<svg width="309" height="165" viewBox="0 0 309 165" fill="none" xmlns="http://www.w3.org/2000/svg">
<g clip-path="url(#clip0_75_891)">
<rect width="309" height="165" fill="white"/>
<path d="M260 150.138H48V150.244H260V150.138Z" fill="#EBEBEB"/>
<path d="M81.0721 154.174H70.2432V154.28H81.0721V154.174Z" fill="#EBEBEB"/>
<path d="M159.936 153.025H113.321V153.131H159.936V153.025Z" fill="#EBEBEB"/>
<path d="M120.08 155.556H89.2681V155.662H120.08V155.556Z" fill="#EBEBEB"/>
<path d="M238.762 157.401H197.952V157.507H238.762V157.401Z" fill="#EBEBEB"/>
<path d="M194.174 157.401H191.49V157.507H194.174V157.401Z" fill="#EBEBEB"/>
<path d="M205.257 155.611H175.717V155.717H205.257V155.611Z" fill="#EBEBEB"/>
<path d="M148.488 131.227H66.618C65.9766 131.226 65.3619 130.97 64.9088 130.517C64.4557 130.063 64.2012 129.447 64.2012 128.806V13.7198C64.2068 13.0821 64.4637 12.4724 64.9162 12.023C65.3687 11.5737 65.9803 11.321 66.618 11.3199H148.488C149.13 11.3199 149.746 11.575 150.2 12.0291C150.654 12.4831 150.909 13.0989 150.909 13.741V128.806C150.909 129.448 150.654 130.064 150.2 130.518C149.746 130.972 149.13 131.227 148.488 131.227ZM66.618 11.4047C66.0047 11.4059 65.417 11.6503 64.9837 12.0843C64.5505 12.5183 64.3072 13.1065 64.3072 13.7198V128.806C64.3072 129.419 64.5505 130.008 64.9837 130.442C65.417 130.876 66.0047 131.12 66.618 131.121H148.488C149.102 131.12 149.69 130.876 150.124 130.442C150.558 130.008 150.802 129.42 150.803 128.806V13.7198C150.802 13.1061 150.558 12.518 150.124 12.084C149.69 11.6501 149.102 11.4059 148.488 11.4047H66.618Z" fill="#EBEBEB"/>
<path d="M240.203 131.227H158.329C157.687 131.226 157.072 130.971 156.618 130.517C156.164 130.063 155.909 129.448 155.908 128.806V13.7198C155.914 13.0817 156.172 12.472 156.625 12.0228C157.079 11.5735 157.691 11.321 158.329 11.3199H240.203C240.84 11.3222 241.451 11.5753 241.902 12.0245C242.354 12.4737 242.61 13.0828 242.616 13.7198V128.806C242.616 129.447 242.362 130.061 241.91 130.515C241.457 130.969 240.844 131.225 240.203 131.227ZM158.329 11.4047C157.715 11.4059 157.127 11.6501 156.693 12.084C156.259 12.518 156.015 13.1061 156.014 13.7198V128.806C156.015 129.42 156.259 130.008 156.693 130.442C157.127 130.876 157.715 131.12 158.329 131.121H240.203C240.817 131.12 241.405 130.876 241.839 130.442C242.273 130.008 242.517 129.42 242.518 128.806V13.7198C242.517 13.1061 242.273 12.518 241.839 12.084C241.405 11.6501 240.817 11.4059 240.203 11.4047H158.329Z" fill="#EBEBEB"/>
<path d="M101.534 70.8623L212.711 70.8623V21.0677L101.534 21.0677V70.8623Z" fill="#E6E6E6"/>
<path d="M99.1893 70.8623L211.617 70.8623V21.0677L99.1893 21.0677V70.8623Z" fill="#F0F0F0"/>
<path d="M101.534 72.5455L212.711 72.5455V70.858L101.534 70.858V72.5455Z" fill="#E6E6E6"/>
<path d="M95.2885 72.5455L207.716 72.5455V70.858L95.2885 70.858V72.5455Z" fill="#F0F0F0"/>
<path d="M208.34 67.5847V24.3452L102.471 24.3452V67.5847H208.34Z" fill="#FAFAFA"/>
<path d="M179.741 67.5847L160.504 24.3452H140.813L160.055 67.5847H179.741Z" fill="white"/>
<path d="M206.822 60.3556C206.884 60.3556 206.943 60.3311 206.987 60.2873C207.031 60.2436 207.055 60.1843 207.055 60.1224V26.478C207.055 26.4158 207.031 26.356 206.987 26.3116C206.944 26.2672 206.884 26.2417 206.822 26.2406C206.791 26.2406 206.76 26.2468 206.732 26.2587C206.703 26.2707 206.677 26.2883 206.656 26.3104C206.634 26.3325 206.617 26.3587 206.605 26.3875C206.594 26.4163 206.588 26.4471 206.589 26.478V60.1224C206.588 60.1532 206.594 60.1838 206.605 60.2124C206.617 60.2409 206.634 60.2668 206.656 60.2886C206.678 60.3104 206.704 60.3275 206.732 60.3391C206.761 60.3506 206.791 60.3562 206.822 60.3556Z" fill="#F0F0F0"/>
<path d="M152.652 67.5847L133.411 24.3452H126.601L145.838 67.5847H152.652Z" fill="white"/>
<path d="M102.887 67.5805V24.3409H102.472V67.5805H102.887Z" fill="#E6E6E6"/>
<g opacity="0.5">
<path d="M98.4136 28.8438H209.595L209.896 25.6172H98.7146L98.4136 28.8438Z" fill="#E6E6E6"/>
<path d="M98.4136 34.1778H209.595L209.896 30.9469H98.7146L98.4136 34.1778Z" fill="#E6E6E6"/>
<path d="M98.4136 39.5075H209.595L209.896 36.2809H98.7146L98.4136 39.5075Z" fill="#E6E6E6"/>
<path d="M98.4136 44.8414H209.595L209.896 41.6105H98.7146L98.4136 44.8414Z" fill="#E6E6E6"/>
<path d="M98.4136 50.1711H209.595L209.896 46.9402H98.7146L98.4136 50.1711Z" fill="#E6E6E6"/>
<path d="M98.4136 55.5008H209.595L209.896 52.2742H98.7146L98.4136 55.5008Z" fill="#E6E6E6"/>
</g>
<path d="M215.591 148.081H226.572V104.486H215.591V148.081Z" fill="#F0F0F0"/>
<path d="M172.643 150.138H224.46V148.081H172.643V150.138Z" fill="#F0F0F0"/>
<path d="M215.59 104.485H170.536V148.081H215.59V104.485Z" fill="#F5F5F5"/>
<path d="M211.265 131.783H174.852C174.829 131.783 174.806 131.778 174.785 131.769C174.763 131.76 174.744 131.747 174.728 131.73C174.711 131.714 174.699 131.694 174.69 131.672C174.682 131.651 174.678 131.628 174.678 131.605V120.958C174.678 120.935 174.682 120.912 174.69 120.89C174.699 120.868 174.711 120.849 174.728 120.832C174.744 120.816 174.763 120.802 174.785 120.793C174.806 120.784 174.829 120.78 174.852 120.78H188.963C188.996 120.78 189.029 120.789 189.057 120.807C189.086 120.825 189.109 120.85 189.123 120.88C189.138 120.91 189.144 120.944 189.14 120.977C189.136 121.01 189.123 121.042 189.103 121.068C189.029 121.161 188.989 121.276 188.988 121.395C188.99 121.469 189.006 121.542 189.036 121.61C189.067 121.679 189.11 121.74 189.164 121.791C189.218 121.842 189.282 121.882 189.351 121.909C189.421 121.936 189.495 121.948 189.569 121.946H196.552C196.627 121.948 196.701 121.936 196.771 121.909C196.84 121.882 196.904 121.842 196.958 121.791C197.012 121.74 197.055 121.679 197.085 121.61C197.115 121.542 197.132 121.469 197.133 121.395C197.133 121.276 197.092 121.161 197.019 121.068C196.998 121.042 196.985 121.01 196.982 120.977C196.978 120.944 196.984 120.91 196.998 120.88C197.013 120.85 197.036 120.825 197.064 120.807C197.093 120.789 197.125 120.78 197.159 120.78H211.265C211.312 120.78 211.358 120.799 211.391 120.832C211.425 120.865 211.443 120.911 211.443 120.958V131.605C211.443 131.652 211.425 131.697 211.391 131.73C211.358 131.764 211.312 131.783 211.265 131.783ZM175.03 131.426H211.07V121.136H197.451C197.477 121.22 197.49 121.307 197.489 121.395C197.485 121.639 197.384 121.872 197.208 122.042C197.033 122.212 196.797 122.305 196.552 122.302H189.569C189.325 122.305 189.089 122.212 188.913 122.042C188.738 121.872 188.637 121.639 188.632 121.395C188.632 121.307 188.645 121.22 188.67 121.136H175.03V131.426Z" fill="white"/>
<path d="M211.265 144.371H174.852C174.829 144.371 174.806 144.367 174.785 144.358C174.763 144.349 174.744 144.335 174.728 144.319C174.711 144.302 174.699 144.283 174.69 144.261C174.682 144.239 174.678 144.216 174.678 144.193V133.546C174.678 133.523 174.682 133.5 174.69 133.479C174.699 133.457 174.711 133.437 174.728 133.421C174.744 133.404 174.763 133.391 174.785 133.382C174.806 133.373 174.829 133.368 174.852 133.368H188.967C189.001 133.369 189.033 133.379 189.062 133.397C189.09 133.415 189.113 133.44 189.128 133.47C189.142 133.501 189.147 133.535 189.143 133.569C189.138 133.603 189.124 133.635 189.103 133.661C189.027 133.751 188.987 133.866 188.988 133.983C188.99 134.058 189.006 134.131 189.036 134.2C189.066 134.268 189.11 134.33 189.164 134.381C189.218 134.433 189.281 134.473 189.351 134.5C189.42 134.527 189.495 134.54 189.569 134.539H196.552C196.627 134.54 196.701 134.527 196.771 134.5C196.84 134.473 196.904 134.433 196.958 134.381C197.012 134.33 197.055 134.268 197.085 134.2C197.115 134.131 197.132 134.058 197.133 133.983C197.133 133.866 197.092 133.752 197.019 133.661C196.996 133.635 196.982 133.603 196.977 133.569C196.973 133.535 196.978 133.501 196.993 133.47C197.009 133.44 197.032 133.415 197.06 133.397C197.088 133.379 197.121 133.369 197.155 133.368H211.265C211.312 133.368 211.358 133.387 211.391 133.421C211.425 133.454 211.443 133.499 211.443 133.546V144.193C211.443 144.24 211.425 144.286 211.391 144.319C211.358 144.352 211.312 144.371 211.265 144.371ZM175.03 144.032H211.07V133.725H197.451C197.477 133.808 197.49 133.896 197.489 133.983C197.488 134.105 197.462 134.224 197.414 134.336C197.366 134.447 197.297 134.548 197.21 134.633C197.123 134.718 197.02 134.784 196.907 134.829C196.794 134.874 196.674 134.896 196.552 134.895H189.569C189.448 134.896 189.327 134.874 189.214 134.829C189.102 134.784 188.999 134.718 188.912 134.633C188.825 134.548 188.755 134.447 188.707 134.336C188.659 134.224 188.634 134.105 188.632 133.983C188.632 133.896 188.645 133.808 188.67 133.725H175.03V144.032Z" fill="white"/>
<path d="M211.265 119.194H174.852C174.829 119.194 174.806 119.189 174.785 119.18C174.763 119.171 174.744 119.158 174.728 119.142C174.711 119.125 174.699 119.105 174.69 119.084C174.682 119.062 174.678 119.039 174.678 119.016V108.369C174.678 108.346 174.682 108.323 174.69 108.302C174.699 108.28 174.711 108.26 174.728 108.244C174.744 108.227 174.763 108.214 174.785 108.205C174.806 108.196 174.829 108.191 174.852 108.191H188.963C188.996 108.192 189.029 108.202 189.057 108.22C189.086 108.238 189.109 108.263 189.124 108.293C189.142 108.322 189.151 108.355 189.151 108.388C189.151 108.422 189.142 108.455 189.124 108.484C189.048 108.574 189.008 108.688 189.009 108.806C189.011 108.881 189.027 108.954 189.058 109.022C189.088 109.09 189.131 109.151 189.185 109.203C189.239 109.254 189.303 109.294 189.372 109.321C189.442 109.347 189.516 109.36 189.59 109.357H196.574C196.648 109.36 196.722 109.347 196.792 109.321C196.861 109.294 196.925 109.254 196.979 109.203C197.033 109.151 197.076 109.09 197.106 109.022C197.137 108.954 197.153 108.881 197.155 108.806C197.156 108.688 197.116 108.574 197.04 108.484C197.022 108.455 197.013 108.422 197.013 108.388C197.013 108.355 197.022 108.322 197.04 108.293C197.055 108.263 197.078 108.238 197.107 108.22C197.135 108.202 197.168 108.192 197.201 108.191H211.308C211.331 108.191 211.354 108.196 211.376 108.205C211.397 108.214 211.417 108.227 211.434 108.243C211.45 108.26 211.463 108.28 211.472 108.301C211.481 108.323 211.486 108.346 211.486 108.369V119.016C211.487 119.044 211.482 119.071 211.471 119.097C211.46 119.122 211.443 119.145 211.421 119.162C211.4 119.179 211.374 119.191 211.347 119.197C211.32 119.203 211.292 119.202 211.265 119.194ZM175.03 118.838H211.07V108.547H197.451C197.477 108.631 197.49 108.718 197.489 108.806C197.485 109.051 197.384 109.283 197.208 109.453C197.033 109.623 196.797 109.717 196.552 109.713H189.569C189.325 109.717 189.089 109.623 188.913 109.453C188.738 109.283 188.637 109.051 188.632 108.806C188.632 108.718 188.645 108.631 188.67 108.547H175.03V118.838Z" fill="white"/>
<path d="M169.073 104.485H215.59V100.907H169.073V104.485Z" fill="#F0F0F0"/>
<path d="M228.102 100.907H215.586V104.486H228.102V100.907Z" fill="#E6E6E6"/>
<path d="M68.6867 150.133H86.2954L86.2954 90.9938H68.6867V150.133Z" fill="#F5F5F5"/>
<path d="M68.6908 150.133H71.5952L71.5952 90.9938H68.6908V150.133Z" fill="#F0F0F0"/>
<path d="M150.435 92.9485H83.5825V107.746H150.435V92.9485Z" fill="#E6E6E6"/>
<path d="M150.435 112.177H83.5825V115.594H150.435V112.177Z" fill="#E6E6E6"/>
<path d="M146.529 90.998H68.6914V96.1369H146.529V90.998Z" fill="#F0F0F0"/>
<path d="M146.529 150.133H164.134V90.9938H146.529V150.133Z" fill="#F5F5F5"/>
<path d="M146.525 150.133H149.429V90.9938H146.525V150.133Z" fill="#F0F0F0"/>
<path d="M154 169.286C199.403 169.286 236.209 167.137 236.209 164.486C236.209 161.835 199.403 159.686 154 159.686C108.597 159.686 71.7905 161.835 71.7905 164.486C71.7905 167.137 108.597 169.286 154 169.286Z" fill="#F5F5F5"/>
<path d="M127.288 52.024C126.529 52.7452 125.628 53.2998 124.642 53.6522C124.589 52.5719 124.402 51.5024 124.087 50.4679C124.087 50.4679 124.172 52.7787 123.514 54.0507C122.58 54.3469 121.629 54.5848 120.665 54.7631C120.606 54.4752 120.526 54.1919 120.428 53.9151C120.398 54.2292 120.334 54.5391 120.237 54.8394C117.027 55.4245 112.605 56.3785 108.607 55.6874C106.169 52.5498 108.721 50.2305 108.971 48.3776C109.298 45.9523 107.025 45.3842 107.301 43.4168C107.576 41.4494 109.777 42.6451 110.883 40.4191C112.35 37.4511 115.573 35.6915 118.388 36.247C122.115 36.989 120.83 42.573 123.709 44.3666C126.588 46.1601 128.017 49.2553 127.288 52.024Z" fill="#263238"/>
<path d="M127.224 52.7575H127.191C127.178 52.7532 127.166 52.7464 127.155 52.7374C127.145 52.7284 127.137 52.7175 127.131 52.7053C127.125 52.693 127.122 52.6797 127.121 52.6661C127.12 52.6525 127.122 52.6389 127.127 52.6261C127.911 50.345 128.28 47.4109 124.112 44.939C122.573 44.0231 122.145 42.3738 121.725 40.7795C121.161 38.6214 120.635 36.5862 117.383 36.6328C117.357 36.6308 117.332 36.6195 117.314 36.6008C117.295 36.5821 117.284 36.5574 117.282 36.531C117.28 36.5172 117.282 36.5032 117.287 36.4901C117.291 36.4769 117.299 36.465 117.308 36.4549C117.318 36.4449 117.33 36.437 117.343 36.4319C117.356 36.4267 117.369 36.4244 117.383 36.425C120.775 36.3784 121.369 38.5874 121.929 40.7244C122.331 42.2805 122.755 43.8874 124.218 44.7609C128.564 47.3388 128.068 50.523 127.322 52.6939C127.314 52.7129 127.3 52.729 127.283 52.7403C127.265 52.7516 127.245 52.7576 127.224 52.7575Z" fill="#263238"/>
<path d="M122.624 80.1437C122.624 80.1437 122.454 100.877 121.157 117.909C118.346 134.768 115.882 157.91 115.882 157.91H113.194C113.194 157.91 110.485 127.199 113.474 117.32C111.702 104.651 112.253 80.4871 112.253 80.4871L122.624 80.1437Z" fill="#FFC3BD"/>
<path d="M126.173 61.8651C126.173 62.0601 126.173 62.3484 126.173 62.5943L126.206 63.3703C126.236 63.8918 126.283 64.4133 126.342 64.9263C126.452 65.9505 126.63 66.9662 126.876 67.9664C127.113 68.9208 127.442 69.8496 127.86 70.7394C128.245 71.5608 128.767 72.3107 129.403 72.9569L129.56 73.1138C129.488 73.0403 129.395 72.9914 129.293 72.9739C129.242 72.9739 129.293 72.9993 129.425 72.9951C129.775 72.9579 130.118 72.8693 130.442 72.7322C131.308 72.3807 132.142 71.9551 132.935 71.4602C133.783 70.9556 134.606 70.3959 135.433 69.8193C136.259 69.2427 137.091 68.6406 137.892 68.047C138.085 67.903 138.325 67.8355 138.565 67.8573C138.805 67.879 139.029 67.9887 139.193 68.1651C139.358 68.3415 139.451 68.5724 139.456 68.8134C139.461 69.0545 139.376 69.2889 139.219 69.4716C138.515 70.2942 137.782 71.0362 137.023 71.7824C136.264 72.5287 135.462 73.2283 134.61 73.9024C133.729 74.6135 132.78 75.2369 131.778 75.7638C131.173 76.0747 130.526 76.2961 129.857 76.421C129.391 76.5051 128.912 76.4965 128.449 76.3955C127.84 76.2604 127.287 75.9388 126.868 75.4755L127.029 75.6366C126.008 74.7571 125.158 73.698 124.519 72.5117C123.914 71.4 123.44 70.2219 123.107 69.001C122.778 67.8265 122.538 66.6288 122.39 65.4182C122.318 64.8203 122.267 64.2183 122.234 63.6162C122.234 63.3151 122.204 63.0141 122.2 62.7088C122.195 62.4035 122.2 62.1195 122.2 61.7548C122.231 61.2482 122.457 60.7734 122.831 60.4296C123.204 60.0858 123.696 59.8997 124.204 59.9101C124.711 59.9205 125.195 60.1266 125.554 60.4854C125.913 60.8442 126.119 61.3279 126.13 61.8354L126.173 61.8651Z" fill="#FFC3BD"/>
<path d="M142.018 68.0214L141.912 66.389C141.903 66.2602 141.867 66.1346 141.807 66.0204C141.747 65.9062 141.663 65.806 141.561 65.7261C141.46 65.6462 141.343 65.5884 141.218 65.5565C141.093 65.5247 140.962 65.5194 140.835 65.541C140.021 65.6783 139.276 66.0808 138.715 66.6858L136.934 68.5938L136.612 70.3746C138.045 71.0784 140.05 69.6368 140.05 69.6368L141.513 68.916C141.676 68.8335 141.811 68.7045 141.901 68.5453C141.991 68.386 142.032 68.2037 142.018 68.0214Z" fill="#FFC3BD"/>
<path d="M124.884 58.8673C127.695 61.1272 127.267 63.6203 127.89 65.4605C126.588 67.6653 121.441 68.7041 121.441 68.7041C121.441 68.7041 121.852 56.4293 124.884 58.8673Z" fill="#249748"/>
<path d="M126.13 61.352C126.554 67.1396 123.039 71.528 122.738 77.6294L108.127 77.2732C108.551 71.3372 108.373 71.9224 106.287 60.4277C106.229 60.1105 106.237 59.7847 106.31 59.4707C106.383 59.1566 106.52 58.8608 106.712 58.6017C106.904 58.3426 107.147 58.1256 107.426 57.9642C107.706 57.8028 108.015 57.7003 108.335 57.6632C109.421 57.5403 110.765 57.4215 112.177 57.3961C114.543 57.2924 116.913 57.359 119.27 57.5954C120.792 57.7777 122.416 58.0703 123.654 58.3162C125.109 58.5918 126.016 59.868 126.13 61.352Z" fill="#249748"/>
<path d="M119.686 63.3998C119.745 63.9976 119.444 64.481 119.012 64.481C118.579 64.481 118.164 64.0019 118.121 63.404C118.079 62.8062 118.363 62.3186 118.796 62.3186C119.228 62.3186 119.627 62.802 119.686 63.3998Z" fill="white"/>
<path d="M118.901 60.6989C119.885 60.9491 120.936 61.6232 121.356 63.3447C124.29 58.952 119.278 57.5825 119.278 57.5825L118.901 60.6989Z" fill="white"/>
<path d="M117.175 60.9279C116.814 60.881 116.447 60.9059 116.095 61.0013C115.744 61.0966 115.415 61.2605 115.127 61.4835C114.839 61.7065 114.597 61.9843 114.417 62.3008C114.237 62.6173 114.121 62.9663 114.076 63.3278C110.858 59.1387 112.185 57.3663 112.185 57.3663L117.175 60.9279Z" fill="white"/>
<path d="M113.114 49.4164C113.495 51.7102 113.826 55.9036 112.185 57.3833C112.185 57.3833 115.077 60.5167 118.371 61.3435C118.853 60.86 119.192 60.2534 119.352 59.5902C119.512 58.9269 119.486 58.2325 119.279 57.5826C116.735 56.9042 116.87 55.0174 117.362 53.2578L113.114 49.4164Z" fill="#FFC3BD"/>
<path opacity="0.2" d="M114.843 50.9852L117.362 53.2536C117.238 53.6687 117.153 54.0946 117.108 54.5256C116.137 54.356 114.831 53.2536 114.759 52.2318C114.709 51.8146 114.738 51.3919 114.843 50.9852Z" fill="black"/>
<path d="M110.421 46.8639C111.913 50.3789 112.473 51.8968 114.941 53.0967C118.651 54.903 122.641 52.2996 122.229 48.4115C121.856 44.9093 119.478 39.7534 115.445 39.5669C114.559 39.524 113.676 39.7081 112.881 40.1018C112.086 40.4955 111.405 41.0857 110.901 41.8165C110.398 42.5473 110.09 43.3945 110.006 44.2778C109.922 45.1611 110.065 46.0513 110.421 46.8639Z" fill="#FFC3BD"/>
<path d="M109.967 44.0613C114.742 44.0231 121.415 41.636 119.452 39.1386C118.447 34.1693 110.035 39.3421 109.967 44.0613Z" fill="#263238"/>
<path d="M110.688 43.2386C113.885 45.0279 113.037 48.492 111.011 49.1746C108.869 46.6052 108.335 42.7892 110.688 43.2386Z" fill="#263238"/>
<path d="M116.544 48.2885C116.544 48.2885 117.629 48.0892 120.635 48.2588C120.211 49.1789 119.529 49.9124 117.99 49.8107C117.793 49.8128 117.597 49.7743 117.416 49.6975C117.234 49.6208 117.071 49.5074 116.935 49.3646C116.799 49.2218 116.695 49.0525 116.627 48.8673C116.56 48.6822 116.532 48.4851 116.544 48.2885Z" fill="#263238"/>
<path d="M118.605 48.8269C118.015 48.7602 117.42 48.8867 116.909 49.1873C117.178 49.4004 117.51 49.5195 117.854 49.5265C118.444 49.5929 119.04 49.4649 119.55 49.1619C119.28 48.9492 118.948 48.8315 118.605 48.8269Z" fill="#A02724"/>
<path d="M116.688 48.2673C116.688 48.4454 116.773 48.5514 117.048 48.6659C117.853 48.7621 118.665 48.7819 119.474 48.7252C119.866 48.7097 120.237 48.5389 120.504 48.2504C119.234 48.1547 117.958 48.1604 116.688 48.2673Z" fill="white"/>
<path d="M116.179 45.7869C116.281 46.0795 116.519 46.2618 116.714 46.2109C116.909 46.1601 116.972 45.8505 116.871 45.558C116.769 45.2654 116.527 45.0831 116.336 45.134C116.145 45.1849 116.073 45.4944 116.179 45.7869Z" fill="#263238"/>
<path d="M119.928 44.4725C120.029 44.7651 120.271 44.9474 120.462 44.8965C120.653 44.8456 120.725 44.5361 120.619 44.2435C120.513 43.951 120.275 43.7686 120.084 43.8195C119.894 43.8704 119.826 44.1799 119.928 44.4725Z" fill="#263238"/>
<path d="M120.008 43.8663L120.64 43.4126C120.64 43.4126 120.47 44.091 120.008 43.8663Z" fill="#263238"/>
<path d="M118.859 45.1976C119.352 45.7728 119.923 46.2765 120.555 46.6944C120.444 46.8545 120.299 46.9884 120.13 47.0865C119.962 47.1847 119.774 47.2447 119.58 47.2625L118.859 45.1976Z" fill="#FAA69D"/>
<path d="M110.328 50.2644C110.576 50.5378 110.877 50.7591 111.211 50.9156C111.546 51.0721 111.909 51.1606 112.278 51.176C113.257 51.2099 113.516 50.2814 113.05 49.48C112.626 48.7592 111.621 47.873 110.73 48.208C110.541 48.2901 110.375 48.4169 110.246 48.5776C110.116 48.7383 110.028 48.928 109.989 49.1303C109.949 49.3327 109.959 49.5416 110.018 49.7392C110.077 49.9368 110.183 50.117 110.328 50.2644Z" fill="#FFC3BD"/>
<path d="M114.449 45.2653C114.473 45.2598 114.495 45.2494 114.514 45.2347C114.533 45.2201 114.548 45.2017 114.56 45.1805C114.665 44.9767 114.817 44.8008 115.003 44.6674C115.19 44.5339 115.405 44.4468 115.632 44.4131C115.68 44.4078 115.724 44.3848 115.755 44.3487C115.787 44.3125 115.803 44.2659 115.802 44.218C115.8 44.1941 115.794 44.1707 115.783 44.1492C115.773 44.1277 115.758 44.1085 115.74 44.0927C115.721 44.077 115.7 44.0649 115.678 44.0573C115.655 44.0497 115.631 44.0467 115.607 44.0484C115.319 44.0859 115.045 44.1922 114.807 44.3582C114.57 44.5243 114.376 44.7453 114.242 45.0024C114.219 45.0447 114.214 45.0942 114.227 45.1402C114.241 45.1862 114.272 45.2251 114.314 45.2484C114.334 45.2605 114.356 45.2682 114.38 45.2711C114.403 45.274 114.427 45.2721 114.449 45.2653Z" fill="#263238"/>
<path d="M120.25 43.086C120.29 43.062 120.32 43.0244 120.334 42.98C120.342 42.9572 120.344 42.9332 120.342 42.9094C120.339 42.8856 120.332 42.8625 120.321 42.8416C120.309 42.8206 120.294 42.8021 120.275 42.7873C120.256 42.7725 120.235 42.7616 120.212 42.7553C119.937 42.6637 119.644 42.6402 119.358 42.6867C119.072 42.7332 118.802 42.8484 118.571 43.0224C118.536 43.054 118.515 43.0978 118.512 43.1447C118.508 43.1915 118.523 43.2377 118.553 43.2738C118.584 43.3098 118.626 43.3329 118.673 43.3382C118.72 43.3435 118.766 43.3306 118.804 43.3022C118.989 43.1674 119.204 43.0789 119.43 43.0442C119.657 43.0096 119.888 43.0297 120.106 43.103C120.129 43.1099 120.155 43.112 120.179 43.1091C120.204 43.1062 120.228 43.0983 120.25 43.086Z" fill="#263238"/>
<path d="M116.264 45.1806L116.891 44.7269C116.891 44.7269 116.722 45.4053 116.264 45.1806Z" fill="#263238"/>
<path d="M118.715 80.644C118.715 80.644 115.992 101.844 111.6 118.592C105.604 131.35 98.5449 141.204 91.3072 151.664L88.7632 150.307C93.7282 139.037 99.0409 125.69 104.07 116.905C107.708 84.9264 107.305 80.6568 107.305 80.6568L118.715 80.644Z" fill="#FFC3BD"/>
<path d="M93.0712 160.144C92.9101 159.461 91.5364 157.664 91.5364 157.664C91.5364 157.664 91.1124 155.226 92.3589 150.731C92.3739 150.679 92.3738 150.623 92.3588 150.571C92.3439 150.518 92.3145 150.471 92.2741 150.434L89.781 148.179C89.7096 148.119 89.618 148.088 89.5249 148.094C89.4319 148.099 89.3445 148.14 89.2807 148.208C89.0687 148.429 88.3818 149.65 88.1359 150.023C87.89 150.396 87.5253 150.939 87.2879 151.295C86.4399 152.635 84.6294 155.7 84.6294 155.7L84.9559 155.874C85.5554 154.966 86.2081 154.094 86.9105 153.262C87.6483 152.478 87.6144 153.86 87.3345 155.043C87.0547 156.226 87.8094 158.071 89.8785 159.283C92.3377 160.653 93.2408 160.844 93.0712 160.144Z" fill="#263238"/>
<path d="M122.747 77.6165C125.842 87.4025 123.489 97.3368 122.018 116.095C115.234 117.116 109.158 116.095 102.174 113.975C106.66 92.4438 101.127 87.076 108.136 77.2604L122.747 77.6165Z" fill="#249748"/>
<path d="M107.886 76.192C107.802 76.572 107.745 76.9574 107.716 77.3453C107.702 77.4197 107.715 77.4968 107.753 77.5623C107.791 77.6278 107.852 77.6772 107.924 77.7015C109.497 77.9431 118.706 79.283 122.819 78.2654C122.877 78.2417 122.927 78.1993 122.959 78.1449C122.991 78.0906 123.004 78.0271 122.997 77.9643C122.997 77.6124 122.997 77.0612 122.997 76.7178C122.997 76.5397 122.891 76.3913 122.76 76.3913C121.322 76.3913 113.737 76.4252 108.098 76.0012C108.045 76.0019 107.995 76.0216 107.956 76.0567C107.917 76.0918 107.892 76.1399 107.886 76.192Z" fill="#263238"/>
<path d="M115.352 76.0436C116.06 75.857 120.216 75.98 120.593 76.1538C120.97 76.3276 120.788 78.6215 120.453 78.7656C119.787 79.0624 116.001 78.9861 115.318 78.8335C114.636 78.6808 114.869 76.192 115.352 76.0436Z" fill="white"/>
<path opacity="0.2" d="M115.395 101.318L115.967 91.863L119.232 87.3728L115.395 101.318Z" fill="black"/>
<path d="M109.013 63.0479C108.45 63.7432 107.83 64.5107 107.275 65.2696C106.72 66.0286 106.147 66.8003 105.638 67.5889C104.617 69.0613 103.794 70.6623 103.192 72.3504C103.141 72.5455 103.082 72.7363 103.048 72.9186L103.018 73.0373C103.018 73.0373 103.018 73.0585 103.018 73.0882C103.06 73.3668 103.151 73.6355 103.289 73.8811C103.717 74.6399 104.224 75.3506 104.803 76.0011C106.07 77.4387 107.416 78.8047 108.835 80.0926L108.861 80.1181C109.035 80.2817 109.144 80.5037 109.166 80.7419C109.188 80.9802 109.123 81.2184 108.981 81.4115C108.84 81.6045 108.633 81.7391 108.399 81.7899C108.165 81.8406 107.92 81.804 107.712 81.6869C105.902 80.6819 104.205 79.4865 102.649 78.1211C101.802 77.3853 101.05 76.5463 100.41 75.6237C100.002 75.0357 99.7141 74.3729 99.5625 73.6733C99.5191 73.4454 99.4964 73.2141 99.4946 72.9822C99.4946 72.8634 99.4946 72.732 99.4946 72.6006C99.4946 72.4691 99.5158 72.4395 99.5285 72.3547C99.5667 72.0451 99.6303 71.7568 99.6897 71.4643C99.9557 70.3766 100.334 69.3194 100.818 68.3097C101.271 67.3506 101.781 66.419 102.344 65.5198C102.895 64.6294 103.463 63.7602 104.082 62.9334C104.701 62.1066 105.316 61.3052 106.041 60.4869C106.385 60.1125 106.861 59.8859 107.368 59.8544C107.875 59.8229 108.375 59.989 108.763 60.3179C109.15 60.6469 109.396 61.1131 109.447 61.6189C109.499 62.1246 109.352 62.6306 109.039 63.0309L109.013 63.0479Z" fill="#FFC3BD"/>
<path d="M108.518 57.6293C105.749 57.7946 104.842 59.3677 103.888 61.0594C104.736 63.472 108.255 67.3474 108.255 67.3474C108.255 67.3474 113.546 57.3325 108.518 57.6293Z" fill="#249748"/>
<path d="M138.825 65.787C134.114 62.679 127.852 64.4344 124.833 69.7005C120.118 66.5926 113.856 68.3479 110.841 73.614C107.826 78.8801 109.204 85.6726 113.915 88.7805L130.981 100.029L141.895 80.9492C144.918 75.6831 143.54 68.8949 138.825 65.787Z" fill="#249748"/>
<path opacity="0.9" d="M138.825 65.787C134.114 62.679 127.852 64.4344 124.833 69.7005C120.118 66.5926 113.856 68.3479 110.841 73.614C107.826 78.8801 109.204 85.6726 113.915 88.7805L130.981 100.029L141.895 80.9492C144.918 75.6831 143.54 68.8949 138.825 65.787Z" fill="white"/>
<path opacity="0.2" d="M114.962 86.9701C114.03 86.3393 113.231 85.5294 112.614 84.5875C111.997 83.6457 111.573 82.5906 111.367 81.4835C110.899 79.1633 111.291 76.7521 112.469 74.6995C113.571 72.6958 115.422 71.2107 117.617 70.5697C118.656 70.2711 119.747 70.2021 120.815 70.3676C121.883 70.533 122.903 70.929 123.803 71.528L125.422 72.5965L126.457 70.786C127.56 68.7821 129.413 67.297 131.609 66.6562C132.647 66.3576 133.738 66.2887 134.805 66.4542C135.873 66.6196 136.891 67.0156 137.791 67.6145C141.607 70.1288 142.722 75.6408 140.284 79.9105L130.409 97.1757L114.962 86.9701Z" fill="#249748"/>
<path d="M131.295 89.001L126.483 90.345L123.383 75.0683L128.196 73.7242L131.295 89.001Z" fill="#249748"/>
<path d="M120.822 86.6138L119.762 81.3986L133.856 77.4554L134.912 82.6706L120.822 86.6138Z" fill="#249748"/>
<path d="M107.627 79.4144L111.282 79.5035L109.361 82.4418C109.361 82.4418 107.182 81.9033 106.622 80.3642L107.627 79.4144Z" fill="#FFC3BD"/>
<path d="M112.795 81.6234L112.104 83.171C112.066 83.2624 112.008 83.3441 111.934 83.4103C111.861 83.4765 111.773 83.5256 111.678 83.554C111.583 83.5824 111.483 83.5894 111.385 83.5745C111.287 83.5596 111.194 83.5232 111.112 83.4678L109.361 82.4417L111.282 79.5034L112.579 80.6991C112.703 80.814 112.79 80.9635 112.829 81.1282C112.867 81.2929 112.856 81.4654 112.795 81.6234Z" fill="#FFC3BD"/>
<path d="M122.103 163.735C121.59 163.209 119.635 162.518 119.635 162.518C119.635 162.518 117.808 160.063 116.357 155.518C116.34 155.464 116.309 155.415 116.268 155.377C116.226 155.338 116.175 155.311 116.12 155.298L112.787 154.5C112.742 154.486 112.695 154.482 112.648 154.488C112.601 154.494 112.556 154.51 112.516 154.535C112.475 154.56 112.441 154.594 112.415 154.633C112.388 154.672 112.371 154.717 112.363 154.763C112.308 155.056 112.363 156.726 112.363 157.176C112.363 157.625 112.363 158.27 112.363 158.698C112.393 160.28 112.567 163.837 112.567 163.837H112.936C112.937 162.758 113.004 161.681 113.135 160.61C113.317 159.567 114.055 160.801 114.466 161.98C114.878 163.159 116.536 164.414 118.944 164.473C121.776 164.541 122.624 164.282 122.103 163.735Z" fill="#263238"/>
<path d="M188.5 154.395L194.988 154.454L194.742 162.111L189.323 162.065L188.5 154.395Z" fill="#FFC3BD"/>
<path opacity="0.2" d="M188.505 154.395L194.992 154.458L194.852 158.745L188.963 158.694L188.505 154.395Z" fill="black"/>
<path d="M195.386 123.909C197.65 113.839 201.398 103.205 197.451 94.1696L179.439 95.7426C179.439 95.7426 181.224 117.176 181.704 126.232C182.204 135.649 188.318 157.375 188.318 157.375H195.738C195.738 157.375 196.883 134.335 195.386 123.909Z" fill="#263238"/>
<path d="M195.781 164.477H194.085L193.661 163.905L192.953 164.486H183.387C183.293 163.825 183.381 163.15 183.642 162.535C183.642 162.535 186.962 161.997 188.246 161.115C188.355 161.04 188.478 160.988 188.608 160.961C188.738 160.935 188.871 160.935 189.001 160.962C190.159 161.183 193.22 161.679 194.878 161.034C194.919 161.022 194.962 161.019 195.004 161.026C195.046 161.032 195.086 161.048 195.121 161.072C195.157 161.096 195.186 161.128 195.208 161.164C195.229 161.201 195.243 161.242 195.247 161.285C195.342 162.361 195.52 163.428 195.781 164.477Z" fill="#263238"/>
<path d="M216.472 149.951L222.722 148.2L225.13 155.472L219.911 156.943L216.472 149.951Z" fill="#FFC3BD"/>
<path opacity="0.2" d="M216.477 149.955L222.726 148.2L224.075 152.275L218.402 153.869L216.477 149.955Z" fill="black"/>
<path d="M215.662 122.073C215.297 112.245 214.682 97.5446 210.998 93.3428L190.828 94.7123C190.828 94.7123 198.363 115.624 201.267 124.46C204.29 133.648 217.341 152.805 217.341 152.805L224.082 150.867C224.082 150.867 219.295 133.008 215.662 122.073Z" fill="#263238"/>
<path d="M160.983 80.6949L161.539 83.3703C161.115 86.2069 157.545 84.9985 157.545 84.9985L155.607 85.1087C155.263 85.1067 154.931 84.9822 154.671 84.7576C154.411 84.5331 154.239 84.2231 154.186 83.8833L153.784 82.0177C153.676 81.6388 153.721 81.233 153.909 80.8869C154.097 80.5407 154.412 80.2816 154.789 80.1649L156.442 79.796C156.923 79.6898 157.422 79.7029 157.896 79.8341L160.983 80.6949Z" fill="#FFC3BD"/>
<path d="M150.816 86.0839C149.324 86.0812 147.875 85.5785 146.703 84.6562C145.53 83.7339 144.7 82.4452 144.345 80.9959C144.305 80.8318 144.332 80.6585 144.42 80.5141C144.508 80.3698 144.65 80.2663 144.814 80.2264C144.978 80.1865 145.151 80.2134 145.296 80.3013C145.44 80.3891 145.543 80.5307 145.583 80.6949C145.921 82.0865 146.797 83.2871 148.02 84.0325C149.242 84.778 150.711 85.0073 152.102 84.6699C153.494 84.3326 154.695 83.4562 155.44 82.2337C156.185 81.0111 156.415 79.5425 156.077 78.1509L138.494 5.42219C138.455 5.25801 138.482 5.08492 138.57 4.941C138.659 4.79707 138.801 4.69411 138.965 4.65475C139.129 4.61539 139.302 4.64286 139.446 4.73113C139.59 4.81939 139.693 4.96121 139.732 5.12539L157.311 77.8414C157.519 78.6931 157.556 79.5773 157.421 80.4434C157.286 81.3094 156.982 82.1404 156.525 82.8887C156.069 83.637 155.469 84.288 154.761 84.8042C154.052 85.3205 153.249 85.692 152.397 85.8974C151.879 86.022 151.348 86.0847 150.816 86.0839Z" fill="#263238"/>
<path d="M93.6307 37.9811C93.4356 36.23 96.5266 34.0549 100.716 33.0415C105.053 31.9943 108.903 32.5836 109.336 34.3602C108.912 32.5836 113.245 30.0142 119.028 28.615C124.812 27.2158 129.832 27.5211 130.256 29.2976C129.832 27.5211 135.679 24.587 143.323 22.7383C150.968 20.8897 157.527 20.8261 157.956 22.6027C157.532 20.8261 161.861 18.2567 167.644 16.8575C173.427 15.4583 178.452 15.7635 178.88 17.5401C178.456 15.7635 181.619 13.4782 185.944 12.4521C190.133 11.4387 193.89 11.956 194.513 13.6096C191.693 2.92058 167.097 -0.314538 139.368 6.40162C111.638 13.1178 91.2478 27.1861 93.6307 37.9811Z" fill="#249748"/>
<path opacity="0.2" d="M109.336 34.3601C108.912 32.5835 113.245 30.0141 119.028 28.6149C124.812 27.2157 129.832 27.521 130.256 29.2975C129.832 27.521 135.679 24.5869 143.324 22.7382C150.968 20.8896 157.528 20.826 157.956 22.6026C157.532 20.826 161.861 18.2566 167.644 16.8574C173.428 15.4582 178.452 15.7634 178.88 17.54C176.268 6.72799 158.579 1.72479 139.368 6.37183C120.156 11.0189 106.72 23.5438 109.336 34.3601Z" fill="black"/>
<path d="M130.256 29.2975C129.832 27.521 135.679 24.5869 143.324 22.7382C150.969 20.8896 157.528 20.826 157.956 22.6026C155.353 11.7863 147.025 4.53591 139.381 6.37183C131.736 8.20775 127.653 18.4813 130.256 29.2975Z" fill="#249748"/>
<path d="M161.632 81.0044C160.474 78.9607 158.371 79.0794 156.713 78.6597C156.434 78.5876 155.988 79.2236 156.332 79.6222C156.522 79.8837 156.762 80.1044 157.039 80.2712C157.316 80.4379 157.623 80.5474 157.943 80.5931C158.024 81.3224 158.956 83.2304 161.017 83.0226C161.462 82.4479 161.681 81.7297 161.632 81.0044Z" fill="#FFC3BD"/>
<path d="M191.121 64.2097C190.239 65.5326 189.332 66.8131 188.429 68.1063C187.525 69.3995 186.601 70.6757 185.664 71.9477C183.794 74.4917 181.882 77.0145 179.868 79.5288L179.02 80.6016L178.227 80.945C177.803 81.1273 177.379 81.3181 176.985 81.475L175.823 81.899C175.077 82.1449 174.335 82.3866 173.61 82.5944C172.16 83.0184 170.722 83.383 169.298 83.7222C167.873 84.0614 166.44 84.3582 165.015 84.6296C163.591 84.9009 162.166 85.1553 160.699 85.3631L158.965 78.7063L166.783 75.645C168.077 75.1447 169.327 74.6104 170.578 74.0889C171.197 73.826 171.782 73.5547 172.363 73.2876L173.169 72.8636L173.856 72.482L172.202 73.8981C173.877 71.3541 175.547 68.7296 177.227 66.122L179.771 62.2042C180.619 60.9068 181.467 59.5881 182.315 58.3119L191.121 64.2097Z" fill="#249748"/>
<g opacity="0.6">
<path d="M191.121 64.2097C190.239 65.5326 189.332 66.8131 188.429 68.1063C187.525 69.3995 186.601 70.6757 185.664 71.9477C183.794 74.4917 181.882 77.0145 179.868 79.5288L179.02 80.6016L178.227 80.945C177.803 81.1273 177.379 81.3181 176.985 81.475L175.823 81.899C175.077 82.1449 174.335 82.3866 173.61 82.5944C172.16 83.0184 170.722 83.383 169.298 83.7222C167.873 84.0614 166.44 84.3582 165.015 84.6296C163.591 84.9009 162.166 85.1553 160.699 85.3631L158.965 78.7063L166.783 75.645C168.077 75.1447 169.327 74.6104 170.578 74.0889C171.197 73.826 171.782 73.5547 172.363 73.2876L173.169 72.8636L173.856 72.482L172.202 73.8981C173.877 71.3541 175.547 68.7296 177.227 66.122L179.771 62.2042C180.619 60.9068 181.467 59.5881 182.315 58.3119L191.121 64.2097Z" fill="white"/>
</g>
<path d="M186.851 54.7927C192.778 53.6822 198.811 53.2328 204.837 53.4528C205.663 53.5 206.471 53.7153 207.211 54.0854C207.951 54.4555 208.607 54.9728 209.14 55.6055C209.673 56.2382 210.072 56.973 210.311 57.765C210.55 58.5569 210.625 59.3894 210.531 60.2114C209.014 74.5256 211.926 91.3499 211.888 94.1568C211.888 94.1568 185.6 104.982 178.566 96.7814C175.174 79.7196 180.059 64.8627 182.34 58.6511C182.697 57.6749 183.3 56.8073 184.09 56.1315C184.881 55.4558 185.831 54.9947 186.851 54.7927Z" fill="#249748"/>
<path d="M210.757 56.0181C209.625 54.568 207.611 52.66 200.856 53.0077C194.997 58.1381 190.913 65.202 190.913 65.202C190.913 65.202 187.191 59.9401 190.723 53.966C186.835 54.072 184.291 55.2761 183.375 55.9121C182.459 56.5481 177.969 65.096 176.977 78.664C175.984 92.232 178.168 117.604 179.016 124.104C191.664 129.192 212.58 123.468 217.032 119.016C216.468 108.7 212.584 93.2241 211.876 86.6521C211.168 80.0801 212.593 58.8801 210.757 56.0181Z" fill="#249748"/>
<path opacity="0.7" d="M210.757 56.0181C209.625 54.568 207.611 52.66 200.856 53.0077C194.997 58.1381 190.913 65.202 190.913 65.202C190.913 65.202 187.191 59.9401 190.723 53.966C186.835 54.072 184.291 55.2761 183.375 55.9121C182.459 56.5481 177.969 65.096 176.977 78.664C175.984 92.232 178.168 117.604 179.016 124.104C191.664 129.192 212.58 123.468 217.032 119.016C216.468 108.7 212.584 93.2241 211.876 86.6521C211.168 80.0801 212.593 58.8801 210.757 56.0181Z" fill="white"/>
<path d="M189.773 55.5728C190.098 54.7764 190.682 54.113 191.431 53.6903C191.654 52.9076 191.6 52.0719 191.278 51.3244L199.873 47.7076C199.419 50.6968 199.071 53.0585 200.297 54.3814C198.651 55.5983 195.633 57.7946 192.151 58.0108C188.67 58.2271 189.319 56.8491 189.773 55.5728Z" fill="#FFC3BD"/>
<path opacity="0.2" d="M191.371 51.5999L197.977 50.6078C196.103 53.0161 193.029 54.1355 191.515 53.3638C191.618 52.7732 191.569 52.166 191.371 51.5999Z" fill="black"/>
<path d="M191.935 58.0193L193.262 56.688L195.28 57.4809C195.28 57.4809 194.153 58.7529 191.935 58.0193Z" fill="#249748"/>
<path opacity="0.3" d="M191.935 58.0193L193.262 56.688L195.28 57.4809C195.28 57.4809 194.153 58.7529 191.935 58.0193Z" fill="black"/>
<path d="M191.13 46.3763C189.396 46.1007 188.586 43.5948 189.722 42.2041C190.858 40.8134 188.162 40.2792 189.056 38.9393C189.951 37.5995 192.516 36.2554 194.081 37.4892C195.645 38.7231 192.092 42.3737 192.86 44.5361C192.315 45.179 191.738 45.7932 191.13 46.3763Z" fill="#263238"/>
<path d="M201.187 43.0394C200.525 47.2498 199.987 50.0948 197.371 51.6509C192.155 54.7418 189.442 52.1554 188.831 47.8349C188.28 43.9383 189.45 37.7098 193.758 36.4547C194.71 36.1781 195.716 36.1471 196.683 36.3646C197.65 36.582 198.547 37.0409 199.288 37.6984C200.03 38.3559 200.593 39.1906 200.925 40.1245C201.257 41.0585 201.347 42.0613 201.187 43.0394Z" fill="#FFC3BD"/>
<path d="M199.308 47.4998C197.676 46.8596 197.417 44.2308 198.838 43.1242C200.258 42.0175 197.731 40.9066 198.897 39.7873C200.063 38.6679 203.489 37.574 204.112 39.4608C205.092 42.4288 201.115 43.8026 201.395 46.0794C200.724 46.5888 200.028 47.0629 199.308 47.4998Z" fill="#263238"/>
<path d="M199.724 39.6092C195.641 41.0169 196.612 38.1507 194.339 38.5492C192.066 38.9478 189.802 39.3379 189.34 37.2772C188.963 35.6151 190.065 34.0972 192.253 34.2456C191.121 35.0003 191.405 35.7508 192.52 35.3735C193.635 34.9961 196.451 32.2698 197.922 34.4407C199.393 36.6115 201.924 34.9452 203.107 36.3614C204.29 37.7775 202.395 40.1519 199.724 39.6092Z" fill="#263238"/>
<path d="M189.798 50.8961C189.917 50.6919 190.078 50.5153 190.27 50.3779C190.463 50.2405 190.682 50.1454 190.913 50.099C191.486 50.2959 192.01 50.6108 192.453 51.0233C192.665 52.0494 190.333 53.084 189.993 53.2239C189.875 52.308 189.798 50.8961 189.798 50.8961Z" fill="#263238"/>
<path opacity="0.2" d="M195.552 43.3363C195.794 43.2484 196.051 43.2091 196.307 43.2208C196.564 43.2324 196.816 43.2947 197.049 43.4041C196.55 43.4776 196.042 43.4545 195.552 43.3363Z" fill="black"/>
<path opacity="0.2" d="M195.552 43.6924C195.785 43.6612 196.022 43.6807 196.247 43.7495C196.471 43.8183 196.678 43.9348 196.854 44.0909C196.397 44.0527 195.953 43.9168 195.552 43.6924Z" fill="black"/>
<path opacity="0.2" d="M189.713 42.8444C189.713 42.8444 189.366 42.4204 189.107 42.6578C189.277 42.7961 189.495 42.863 189.713 42.8444Z" fill="black"/>
<path opacity="0.2" d="M189.65 43.1751C189.65 43.1751 189.366 42.802 189.184 43.1751C189.253 43.2207 189.334 43.245 189.417 43.245C189.5 43.245 189.581 43.2207 189.65 43.1751Z" fill="black"/>
<path opacity="0.2" d="M190.985 39.5838C192.224 39.3549 193.488 39.2978 194.742 39.4142C192.66 39.6092 190.985 39.5838 190.985 39.5838Z" fill="black"/>
<path opacity="0.2" d="M190.502 40.152C190.502 40.152 193.372 40.0502 194.81 40.6184C193.364 40.5784 191.923 40.4224 190.502 40.152Z" fill="black"/>
<path d="M202.803 47.3981C202.507 47.836 202.128 48.2113 201.687 48.5024C201.246 48.7935 200.752 48.9945 200.233 49.0941C198.838 49.3527 198.253 48.0765 198.732 46.8214C199.156 45.6936 200.428 44.2011 201.772 44.5064C203.116 44.8117 203.519 46.2999 202.803 47.3981Z" fill="#FFC3BD"/>
<path d="M194.407 43.4549C194.373 43.7984 194.166 44.057 193.941 44.0358C193.716 44.0146 193.559 43.7136 193.589 43.3701C193.619 43.0267 193.831 42.7638 194.06 42.785C194.289 42.8062 194.441 43.12 194.407 43.4549Z" fill="#263238"/>
<path d="M190.748 43.1581C190.714 43.5015 190.507 43.7601 190.282 43.7389C190.057 43.7177 189.9 43.4167 189.93 43.0733C189.96 42.7298 190.172 42.4669 190.401 42.4881C190.629 42.5093 190.782 42.8104 190.748 43.1581Z" fill="#263238"/>
<path d="M193.966 47.2751C194.509 47.6737 196.052 47.4151 196.158 46.8511C197.154 47.5295 196.34 48.5853 194.886 48.9075C193.432 49.2298 191.545 48.6404 191.129 48.1147L191.18 46.372C192.283 46.1642 193.008 46.5798 193.966 47.2751Z" fill="#263238"/>
<path d="M189.103 46.8385C188.514 47.2285 188.132 46.9784 188.153 46.4145C187.229 46.9741 187.305 47.8561 188.386 48.3352C189.468 48.8143 190.718 48.5938 191.147 48.1232L191.248 46.4017C190.417 46.088 189.993 46.2533 189.103 46.8385Z" fill="#263238"/>
<path d="M191.91 43.5439L191.656 46.4441C191.656 46.4441 190.528 46.5967 189.921 46.0455C190.347 45.0478 191.034 44.1835 191.91 43.5439Z" fill="#ED847E"/>
<path d="M195.649 42.4288C195.685 42.429 195.72 42.4187 195.751 42.3992C195.796 42.3704 195.828 42.3248 195.84 42.2724C195.852 42.2199 195.843 42.1649 195.814 42.1193C195.652 41.8388 195.425 41.6012 195.152 41.4264C194.879 41.2516 194.568 41.1446 194.246 41.1144C194.219 41.1133 194.193 41.1175 194.168 41.1267C194.143 41.136 194.12 41.1501 194.101 41.1682C194.081 41.1864 194.066 41.2083 194.055 41.2325C194.044 41.2568 194.038 41.2829 194.038 41.3095C194.037 41.3362 194.041 41.3629 194.05 41.388C194.059 41.4132 194.073 41.4362 194.091 41.4559C194.109 41.4756 194.131 41.4915 194.156 41.5028C194.18 41.514 194.206 41.5204 194.233 41.5215C194.488 41.5494 194.734 41.6374 194.949 41.7781C195.164 41.9188 195.343 42.1084 195.471 42.3313C195.489 42.362 195.515 42.3873 195.547 42.4045C195.578 42.4216 195.613 42.43 195.649 42.4288Z" fill="#263238"/>
<path d="M188.861 41.9242C188.895 41.9268 188.929 41.9208 188.96 41.9067C188.991 41.8926 189.018 41.871 189.039 41.8437C189.189 41.6384 189.387 41.4722 189.615 41.3593C189.843 41.2464 190.095 41.19 190.349 41.195C190.376 41.1973 190.403 41.1943 190.428 41.1861C190.454 41.178 190.478 41.1649 190.498 41.1476C190.519 41.1302 190.535 41.109 190.548 41.0851C190.56 41.0612 190.567 41.0352 190.57 41.0084C190.573 40.9546 190.556 40.9016 190.521 40.8604C190.486 40.8193 190.437 40.7933 190.383 40.7879C190.061 40.7781 189.741 40.8462 189.451 40.9865C189.161 41.1268 188.909 41.335 188.717 41.5935C188.684 41.6358 188.669 41.6893 188.675 41.7425C188.682 41.7957 188.709 41.8442 188.751 41.8776C188.783 41.9026 188.821 41.9187 188.861 41.9242Z" fill="#263238"/>
<path d="M218.982 90.1543L221.526 89.1621C224.397 89.1367 223.794 92.834 223.794 92.834L224.218 94.7292C224.273 95.0676 224.205 95.4144 224.027 95.7073C223.849 96.0002 223.573 96.2202 223.247 96.3277L221.471 97.0358C221.115 97.2037 220.708 97.2258 220.337 97.0975C219.965 96.9691 219.658 96.7004 219.482 96.3489L218.842 94.7801C218.657 94.3236 218.587 93.8285 218.639 93.3385L218.982 90.1543Z" fill="#FFC3BD"/>
<path d="M210.222 55.45L210.778 55.874L211.278 56.298C211.604 56.5693 211.918 56.8449 212.232 57.1205C212.859 57.676 213.474 58.2356 214.076 58.8165C215.28 59.9656 216.438 61.1824 217.557 62.4544C218.123 63.0904 218.67 63.7462 219.198 64.4218C219.727 65.0974 220.241 65.804 220.742 66.5418C221.785 68.0562 222.69 69.6611 223.447 71.3372L223.824 72.1852L223.871 72.8127C223.985 74.2883 224.074 75.7807 224.167 77.252L224.452 81.6913C224.613 84.6593 224.774 87.6273 224.876 90.5953L217.426 91.4221C216.866 88.5135 216.37 85.5963 215.866 82.6835L215.153 78.312C214.916 76.8535 214.678 75.3949 214.462 73.9363L214.886 75.4119C214.283 74.3332 213.588 73.309 212.809 72.3506C211.986 71.3372 211.079 70.3366 210.112 69.3572C209.145 68.3777 208.115 67.4322 207.055 66.5163C206.526 66.0528 205.988 65.6019 205.439 65.1638L204.625 64.5193L204.223 64.2098L203.871 63.9469L210.222 55.45Z" fill="#249748"/>
<g opacity="0.7">
<path d="M210.222 55.45L210.778 55.874L211.278 56.298C211.604 56.5693 211.918 56.8449 212.232 57.1205C212.859 57.676 213.474 58.2356 214.076 58.8165C215.28 59.9656 216.438 61.1824 217.557 62.4544C218.123 63.0904 218.67 63.7462 219.198 64.4218C219.727 65.0974 220.241 65.804 220.742 66.5418C221.785 68.0562 222.69 69.6611 223.447 71.3372L223.824 72.1852L223.871 72.8127C223.985 74.2883 224.074 75.7807 224.167 77.252L224.452 81.6913C224.613 84.6593 224.774 87.6273 224.876 90.5953L217.426 91.4221C216.866 88.5135 216.37 85.5963 215.866 82.6835L215.153 78.312C214.916 76.8535 214.678 75.3949 214.462 73.9363L214.886 75.4119C214.283 74.3332 213.588 73.309 212.809 72.3506C211.986 71.3372 211.079 70.3366 210.112 69.3572C209.145 68.3777 208.115 67.4322 207.055 66.5163C206.526 66.0528 205.988 65.6019 205.439 65.1638L204.625 64.5193L204.223 64.2098L203.871 63.9469L210.222 55.45Z" fill="white"/>
</g>
<path d="M199.508 52.5286C199.508 52.5286 196.964 56.1792 193.262 56.6965C194.758 57.3135 196.094 58.2632 197.167 59.4737C197.167 59.4737 200.983 56.5057 201.505 53.597C201.136 52.5498 199.508 52.5286 199.508 52.5286Z" fill="#249748"/>
<path opacity="0.3" d="M193.173 124.6C193.124 124.601 193.076 124.584 193.038 124.553C193 124.522 192.975 124.479 192.966 124.43C187.114 95.5687 190.583 66.0032 190.617 65.7064C190.62 65.6786 190.629 65.6516 190.643 65.6272C190.656 65.6028 190.675 65.5813 190.697 65.5639C190.719 65.5466 190.744 65.5338 190.771 65.5262C190.798 65.5187 190.826 65.5165 190.854 65.5198C190.882 65.5232 190.909 65.532 190.933 65.5457C190.958 65.5594 190.979 65.5779 190.997 65.5999C191.014 65.622 191.027 65.6472 191.034 65.6742C191.042 65.7012 191.044 65.7294 191.041 65.7573C191.007 66.0541 187.547 95.5518 193.385 124.346C193.395 124.401 193.384 124.457 193.353 124.504C193.322 124.551 193.275 124.584 193.22 124.596L193.173 124.6Z" fill="#249748"/>
<path d="M199.427 73.0756H193.046C192.936 73.0786 192.827 73.0571 192.727 73.0127C192.627 72.9682 192.538 72.902 192.466 72.8187C192.395 72.7354 192.343 72.6372 192.314 72.5313C192.285 72.4254 192.28 72.3144 192.3 72.2064L192.724 69.2935C192.771 69.0593 192.896 68.848 193.078 68.694C193.261 68.54 193.49 68.4524 193.729 68.4455H200.089C200.196 68.4431 200.303 68.4642 200.402 68.5074C200.5 68.5506 200.588 68.6149 200.659 68.6957C200.731 68.7765 200.783 68.8719 200.813 68.9751C200.844 69.0784 200.851 69.1871 200.835 69.2935L200.411 72.2064C200.369 72.441 200.249 72.6546 200.071 72.8124C199.892 72.9703 199.665 73.063 199.427 73.0756Z" fill="white"/>
<path d="M197.167 69.1366H196.476C196.448 69.1377 196.42 69.1325 196.395 69.1214C196.369 69.1102 196.346 69.0934 196.328 69.0723C196.309 69.0511 196.296 69.0261 196.289 68.999C196.281 68.972 196.28 68.9437 196.285 68.9161L196.544 67.1862C196.554 67.1255 196.585 67.0702 196.631 67.0299C196.678 66.9896 196.737 66.9669 196.798 66.9657H197.49C197.518 66.9646 197.545 66.9698 197.571 66.981C197.597 66.9921 197.62 67.0089 197.638 67.0301C197.656 67.0512 197.67 67.0763 197.677 67.1033C197.684 67.1303 197.685 67.1587 197.68 67.1862L197.422 68.9161C197.412 68.9768 197.381 69.0321 197.334 69.0724C197.288 69.1127 197.229 69.1354 197.167 69.1366Z" fill="#249748"/>
<path d="M191.935 58.0194L190.176 56.7092L188.162 57.5106C188.162 57.5106 189.887 59.1387 191.935 58.0194Z" fill="#249748"/>
<path opacity="0.3" d="M191.935 58.0194L190.176 56.7092L188.162 57.5106C188.162 57.5106 189.887 59.1387 191.935 58.0194Z" fill="black"/>
<path d="M191.43 53.6903C191.43 53.6903 190.158 55.4966 190.158 56.7092C188.886 57.2943 186.961 58.9183 186.961 58.9183C186.961 58.9183 187.212 56.3743 189.76 54.1567C190.257 53.8365 190.839 53.6739 191.43 53.6903Z" fill="#249748"/>
<path d="M227.144 156.078L225.978 156.875L225.342 156.616L225.053 157.511L218.024 162.315C217.601 161.791 217.325 161.165 217.222 160.5C217.222 160.5 219.198 158.872 219.287 157.269C219.289 157.209 219.308 157.151 219.342 157.102C219.376 157.052 219.423 157.013 219.478 156.989C220.279 156.659 223.417 155.293 224.566 153.686C224.594 153.646 224.631 153.613 224.675 153.591C224.719 153.568 224.767 153.556 224.816 153.556C224.865 153.556 224.914 153.568 224.957 153.591C225.001 153.613 225.038 153.646 225.066 153.686C225.697 154.535 226.392 155.334 227.144 156.078Z" fill="#263238"/>
</g>
<defs>
<clipPath id="clip0_75_891">
<rect width="309" height="165" fill="white"/>
</clipPath>
</defs>
</svg>
