<svg width="304" height="165" viewBox="0 0 304 165" fill="none" xmlns="http://www.w3.org/2000/svg">
<g clip-path="url(#clip0_75_874)">
<rect width="303.5" height="165" fill="white"/>
<path d="M228.549 106.967H149.742C149.065 106.966 148.416 106.696 147.937 106.218C147.458 105.739 147.188 105.089 147.187 104.412V-10.3779C147.188 -11.0552 147.458 -11.7044 147.937 -12.1833C148.416 -12.6622 149.065 -12.9317 149.742 -12.9329H228.549C229.226 -12.9317 229.875 -12.6622 230.354 -12.1833C230.833 -11.7044 231.103 -11.0552 231.104 -10.3779V104.412C231.103 105.089 230.833 105.739 230.354 106.218C229.875 106.696 229.226 106.966 228.549 106.967ZM149.742 -12.8239C149.094 -12.8227 148.472 -12.5646 148.014 -12.1062C147.555 -11.6477 147.297 -11.0263 147.296 -10.3779V104.412C147.297 105.061 147.555 105.682 148.014 106.14C148.472 106.599 149.094 106.857 149.742 106.858H228.549C229.198 106.858 229.82 106.6 230.279 106.142C230.737 105.683 230.995 105.061 230.995 104.412V-10.3779C230.995 -11.0266 230.737 -11.6487 230.279 -12.1075C229.82 -12.5662 229.198 -12.8239 228.549 -12.8239H149.742Z" fill="#E0E0E0"/>
<path d="M137.673 106.967H58.8708C58.1928 106.967 57.5425 106.698 57.0627 106.219C56.5828 105.74 56.3127 105.09 56.3115 104.412V-10.3779C56.3127 -11.0559 56.5828 -11.7058 57.0627 -12.1848C57.5425 -12.6638 58.1928 -12.9329 58.8708 -12.9329H137.673C138.351 -12.9329 139.001 -12.6637 139.48 -12.1845C139.959 -11.7054 140.228 -11.0555 140.228 -10.3779V104.412C140.228 105.09 139.959 105.74 139.48 106.219C139.001 106.698 138.351 106.967 137.673 106.967ZM58.8708 -12.8239C58.2217 -12.8239 57.5991 -12.5663 57.1397 -12.1077C56.6803 -11.6491 56.4217 -11.027 56.4205 -10.3779V104.412C56.4182 104.735 56.4799 105.056 56.602 105.355C56.7241 105.655 56.9042 105.927 57.132 106.156C57.3598 106.385 57.6307 106.568 57.9291 106.692C58.2275 106.816 58.5476 106.88 58.8708 106.88H137.673C137.995 106.88 138.313 106.817 138.61 106.694C138.906 106.571 139.176 106.391 139.403 106.164C139.63 105.936 139.81 105.667 139.933 105.37C140.056 105.073 140.119 104.755 140.119 104.434V-10.3779C140.119 -10.6991 140.056 -11.0172 139.933 -11.3139C139.81 -11.6107 139.63 -11.8803 139.403 -12.1075C139.176 -12.3346 138.906 -12.5148 138.61 -12.6377C138.313 -12.7606 137.995 -12.8239 137.673 -12.8239H58.8708Z" fill="#E0E0E0"/>
<path d="M253 133.594H35V133.703H253V133.594Z" fill="#E0E0E0"/>
<path d="M64.5305 139.811H57.5283V139.92H64.5305V139.811Z" fill="#E0E0E0"/>
<path d="M132.612 138.629H109.272V138.738H132.612V138.629Z" fill="#E0E0E0"/>
<path d="M80.7713 143.861H64.9663V143.97H80.7713V143.861Z" fill="#E0E0E0"/>
<path d="M218.791 138.573H199.96V138.682H218.791V138.573Z" fill="#E0E0E0"/>
<path d="M225.436 138.573H222.676V138.682H225.436V138.573Z" fill="#E0E0E0"/>
<path d="M196.364 141.289H172.868V141.398H196.364V141.289Z" fill="#E0E0E0"/>
<path d="M126.939 29.3984H111.801V48.8222H126.939V29.3984Z" fill="#E6E6E6"/>
<path d="M126.198 29.3984H108.414V48.8222H126.198V29.3984Z" fill="#F0F0F0"/>
<path d="M124.48 31.125H110.053V47.1H124.48V31.125Z" fill="white"/>
<path d="M119.998 36.2305H114.792V41.9944H119.998V36.2305Z" fill="#F0F0F0"/>
<path d="M126.939 -0.990845H111.801V18.433H126.939V-0.990845Z" fill="#E6E6E6"/>
<path d="M126.198 -0.990845H108.414V18.433H126.198V-0.990845Z" fill="#F0F0F0"/>
<path d="M124.48 0.735718H110.053V16.7108H124.48V0.735718Z" fill="white"/>
<path d="M119.998 5.84131H114.792V11.6052H119.998V5.84131Z" fill="#F0F0F0"/>
<path d="M92.6174 -6.01794H71.4365V21.1579H92.6174V-6.01794Z" fill="#E6E6E6"/>
<path d="M91.5798 -6.01794H66.6973V21.1579H91.5798V-6.01794Z" fill="#F0F0F0"/>
<path d="M89.1775 -3.60681H68.9907V18.7425H89.1775V-3.60681Z" fill="white"/>
<path d="M82.9076 3.53491H75.6221V11.6009H82.9076V3.53491Z" fill="#F0F0F0"/>
<path d="M102.828 108.96H57.7852V112.234H102.828V108.96Z" fill="#E0E0E0"/>
<path d="M107.197 66.2797H54.4106V91.0139H107.197V66.2797Z" fill="#E6E6E6"/>
<path d="M59.6643 90.5823H54.3931V133.903H59.6643V90.5823Z" fill="#E6E6E6"/>
<path d="M107.197 90.5735H101.926V133.894H107.197V90.5735Z" fill="#E6E6E6"/>
<path d="M103.818 68.9872H57.7852V88.3151H103.818V68.9872Z" fill="#EBEBEB"/>
<path d="M83.095 78.3699C83.095 78.8237 82.9604 79.2672 82.7082 79.6445C82.456 80.0217 82.0976 80.3156 81.6783 80.4891C81.259 80.6625 80.7976 80.7077 80.3526 80.6189C79.9077 80.53 79.499 80.3112 79.1785 79.99C78.8579 79.6688 78.6398 79.2598 78.5518 78.8146C78.4638 78.3695 78.5099 77.9082 78.6841 77.4892C78.8584 77.0703 79.153 76.7124 79.5307 76.4609C79.9084 76.2094 80.3523 76.0757 80.806 76.0765C81.107 76.0765 81.405 76.1359 81.683 76.2512C81.961 76.3665 82.2135 76.5355 82.4261 76.7485C82.6387 76.9615 82.8073 77.2144 82.922 77.4926C83.0368 77.7708 83.0956 78.0689 83.095 78.3699Z" fill="#E0E0E0"/>
<path d="M59.6688 91.0183H54.4106V93.037H59.6688V91.0183Z" fill="#E0E0E0"/>
<path d="M107.193 91.0183H101.935V93.037H107.193V91.0183Z" fill="#E0E0E0"/>
<path d="M76.5946 31.9489C76.9221 30.8856 76.982 29.7579 76.769 28.6658C76.0777 29.5537 75.6272 30.6049 75.461 31.7178C75.3553 31.0437 75.177 30.3829 74.9291 29.7471C74.6746 29.1051 74.2147 28.5655 73.6211 28.2124C73.2954 29.6891 73.5023 31.2335 74.2053 32.5724C73.5575 31.5169 72.5341 30.7458 71.3408 30.4142C71.4814 31.2119 71.8414 31.9546 72.3805 32.5592C72.9196 33.1637 73.6164 33.6061 74.3928 33.8368L75.4872 33.6755C76.3878 33.4972 77.2001 33.0157 77.7887 32.3112C78.3774 31.6067 78.7069 30.7217 78.7223 29.8038C77.8132 30.2882 77.0716 31.0359 76.5946 31.9489Z" fill="#E0E0E0"/>
<path d="M88.6279 33.1262C88.5843 31.3386 88.4622 29.4769 87.5815 27.9203C86.7008 26.3638 84.8391 25.2171 83.1212 25.7403C81.0284 26.3595 80.2567 28.8795 79.8774 31.0334C78.6201 38.0959 77.9782 45.2543 77.959 52.4279L87.7385 51.5559C88.266 45.4039 88.7849 39.2738 88.6279 33.1262Z" fill="#EBEBEB"/>
<path d="M82.611 26.015C81.4164 30.2486 81.1984 34.6827 80.915 39.0514C80.6316 43.4201 80.5531 47.8281 80.2305 52.2099C80.4659 47.8237 80.5618 43.4289 80.806 39.0427C81.1243 34.6827 81.3379 30.2311 82.611 26.015Z" fill="#E6E6E6"/>
<path d="M84.316 25.6837C83.6882 34.1421 83.4876 43.4376 83.2217 51.944C83.3481 43.3199 83.553 34.2686 84.316 25.6837Z" fill="#E6E6E6"/>
<path d="M86.2865 26.4205C86.8009 34.8179 87.2151 43.3155 86.1426 51.6867C87.08 43.3025 86.6658 34.8266 86.2865 26.4205Z" fill="#E6E6E6"/>
<path d="M79.5591 37.7957C79.328 36.0125 78.8354 33.9546 77.196 33.209C75.5566 32.4635 73.4769 33.5971 72.6049 35.2146C71.7329 36.8322 71.7329 38.7637 71.7329 40.6079C71.7591 44.6773 71.7867 48.7466 71.8158 52.8159L80.0998 51.4033C80.324 46.8604 80.143 42.3065 79.5591 37.7957Z" fill="#E6E6E6"/>
<path d="M74.4143 33.5186C73.2327 39.7534 73.7516 46.1625 73.9085 52.4453C73.6121 46.1538 73.1019 39.7316 74.4143 33.5186Z" fill="#E0E0E0"/>
<path d="M75.5479 33.4706C75.7571 39.4569 76.058 46.0361 76.4896 52.0093C75.9185 45.9445 75.6176 39.5571 75.5479 33.4706Z" fill="#E0E0E0"/>
<path d="M77.1963 33.1959C78.3648 39.2476 79.1234 45.4388 78.8836 51.6082C78.9883 45.4344 78.2296 39.2738 77.1963 33.1959Z" fill="#E0E0E0"/>
<path d="M93.86 42.4522C94.0431 40.9306 94.0693 39.1299 92.8703 38.1707C91.6713 37.2115 89.718 37.7085 88.6542 38.8639C87.5903 40.0193 87.1849 41.6107 86.8099 43.1324L84.3247 53.2258L91.4533 53.7926C92.5915 50.0916 93.3969 46.2964 93.86 42.4522Z" fill="#E6E6E6"/>
<path d="M90.4987 37.8394C88.2271 42.7487 87.3159 48.1333 86.1387 53.3697C87.1982 48.1072 88.1225 42.692 90.4987 37.8394Z" fill="#E0E0E0"/>
<path d="M91.4359 38.0399C90.3851 42.9667 89.2166 48.5998 88.3315 53.5441C89.1207 48.4167 90.2107 43.0801 91.4359 38.0399Z" fill="#E0E0E0"/>
<path d="M92.8614 38.1707C92.5692 43.4027 91.8978 48.6826 90.3979 53.7271C91.767 48.6477 92.4297 43.4027 92.8614 38.1707Z" fill="#E0E0E0"/>
<path d="M69.4438 50.9891H95.5472V58.92C95.5472 61.2963 94.6032 63.5752 92.9229 65.2555C91.2426 66.9358 88.9637 67.8798 86.5874 67.8798H78.4211C77.243 67.8821 76.076 67.652 74.987 67.2028C73.8979 66.7535 72.9081 66.0939 72.0743 65.2617C71.2404 64.4295 70.5789 63.441 70.1275 62.3528C69.6762 61.2646 69.4438 60.0981 69.4438 58.92V50.9891Z" fill="#E0E0E0"/>
<path d="M211.205 -5.30286H173.722V42.7923H211.205V-5.30286Z" fill="#E6E6E6"/>
<path d="M209.37 -5.30286H165.338V42.7923H209.37V-5.30286Z" fill="#F0F0F0"/>
<path d="M205.118 -1.03003H169.397V38.5195H205.118V-1.03003Z" fill="white"/>
<path d="M194.022 11.6052H181.13V25.8799H194.022V11.6052Z" fill="#F0F0F0"/>
<path d="M215.883 117.174C215.883 116.851 214.798 85.0712 209.627 80.0441C204.6 75.1565 198.827 79.861 198.587 80.0441L198.064 79.4424C198.129 79.3857 204.643 74.0709 210.189 79.4642C215.591 84.718 216.646 115.827 216.69 117.148L215.883 117.174Z" fill="#E0E0E0"/>
<path d="M216.328 123.417C216.293 123.038 212.797 85.263 226.592 69.4319L227.202 69.9638C213.634 85.5159 217.1 122.964 217.135 123.339L216.328 123.417Z" fill="#E0E0E0"/>
<path d="M215.818 119.424L215.011 119.367C215.042 118.931 217.71 76.4253 207.599 67.1167L208.148 66.5194C218.556 76.0896 215.94 117.658 215.818 119.424Z" fill="#E0E0E0"/>
<path d="M217.135 119.398H216.328C216.328 118.225 216.659 90.6782 224.486 86.1961C226.23 85.1977 227.93 85.032 229.548 85.6991C234.278 87.6568 236.624 96.0803 236.724 96.4378L235.944 96.6514C235.918 96.5642 233.602 88.2541 229.238 86.449C227.865 85.8822 226.4 86.013 224.878 86.885C217.462 91.1491 217.139 119.119 217.135 119.398Z" fill="#E0E0E0"/>
<path d="M214.087 119.419L213.28 119.371C213.28 119.158 214.462 97.6062 208.646 90.0111C207.237 88.1711 205.707 87.2948 204.09 87.3951C200.279 87.661 197.083 93.2375 197.053 93.2941L196.346 92.893C196.486 92.6489 199.786 86.8849 204.033 86.5885C205.929 86.4533 207.704 87.4343 209.287 89.5053C215.286 97.3489 214.139 118.521 214.087 119.419Z" fill="#E0E0E0"/>
<path d="M215.364 122.349C215.207 120.261 211.562 71.0495 217.98 62.3774L218.63 62.8614C212.4 71.2893 216.14 121.778 216.18 122.288L215.364 122.349Z" fill="#E0E0E0"/>
<path d="M231.292 90.6825C231.292 90.6825 227.446 92.0995 228.588 95.448C229.731 98.7965 241.895 104.308 241.895 104.308C241.895 104.308 246.988 99.638 242.331 92.0428C237.675 84.4477 231.396 88.2889 231.292 90.6825Z" fill="#EBEBEB"/>
<path d="M214.571 84.3126C214.571 84.3126 218.67 84.1382 218.901 87.6698C219.132 91.2014 210.028 100.963 210.028 100.963C210.028 100.963 203.532 98.6178 204.927 89.8062C206.322 80.9947 213.555 82.1413 214.571 84.3126Z" fill="#EBEBEB"/>
<path d="M211.105 67.4132C211.105 67.4132 213.834 67.1211 213.616 65.4599C213.398 63.7988 203 59.5129 196.865 66.4366C196.865 66.4366 200.789 73.1815 206.457 73.2687C212.125 73.3559 211.105 67.4132 211.105 67.4132Z" fill="#EBEBEB"/>
<path d="M216.193 63.3759C216.193 63.3759 213.721 64.5705 213.027 63.0445C212.334 61.5185 218.892 52.3799 227.76 54.9959C227.76 54.9959 227.991 62.8003 223.221 65.8959C218.451 68.9915 216.193 63.3759 216.193 63.3759Z" fill="#EBEBEB"/>
<path d="M203.266 89.3397C203.266 89.3397 205.149 87.818 203.113 87.0725C201.077 86.3269 191.088 86.5406 190.997 96.416C190.997 96.416 202.62 98.3474 204.077 94.5804C205.533 90.8134 203.266 89.3397 203.266 89.3397Z" fill="#EBEBEB"/>
<path d="M226.966 67.1647C226.966 67.1647 225.078 65.6431 227.114 64.9019C229.151 64.1607 239.126 64.37 239.231 74.2541C239.231 74.2541 227.607 76.1856 226.151 72.4229C224.695 68.6602 226.966 67.1647 226.966 67.1647Z" fill="#EBEBEB"/>
<path d="M220.819 75.1304C220.819 75.1304 220.653 73.2818 222.149 74.0056C223.644 74.7293 228.846 80.345 223.457 85.6686C223.457 85.6686 216.197 80.2927 217.505 77.4936C218.813 74.6944 220.819 75.1304 220.819 75.1304Z" fill="#EBEBEB"/>
<path d="M201.578 77.7639C201.578 77.7639 202.707 76.2902 201.055 76.1071C199.402 75.924 192.012 77.8991 193.734 85.2631C193.734 85.2631 202.742 84.5873 203.126 81.5222C203.51 78.4572 201.578 77.7639 201.578 77.7639Z" fill="#EBEBEB"/>
<path d="M224.708 133.659H206.54L201.705 111.366H229.081L224.708 133.659Z" fill="#F0F0F0"/>
<path d="M230.659 111.044H200.057V117.453H230.659V111.044Z" fill="#E6E6E6"/>
<path d="M235.072 154.94C235.072 156.414 194.297 157.613 144 157.613C93.7029 157.613 52.9282 156.414 52.9282 154.94C52.9282 153.467 93.7029 152.263 144 152.263C194.297 152.263 235.072 153.462 235.072 154.94Z" fill="#F5F5F5"/>
<path d="M154.429 85.3459C154.429 85.3459 142.278 91.9557 141.384 92.056C140.159 92.226 126.024 86.388 126.024 86.388L121.123 91.3017C121.123 91.3017 132.817 98.3082 138.999 100.214C145.182 102.119 159.513 94.7287 159.513 94.7287L154.429 85.3459Z" fill="#FFC3BD"/>
<path d="M128.435 88.132C128.435 88.132 128.548 85.5727 127.096 84.0336C125.644 82.4945 124.916 80.8726 123.748 79.8C122.579 78.7275 122.004 80.1794 122.339 81.2781C122.675 82.3768 123.918 84.2908 123.05 84.426C122.182 84.5612 115.137 81.81 113.955 82.1326C112.774 82.4553 113.768 83.2532 113.768 83.2532C113.768 83.2532 112.185 82.6515 111.609 83.2532C111.034 83.8548 111.915 84.5306 111.915 84.5306C111.915 84.5306 110.838 84.1644 110.663 84.9666C110.489 85.7689 116.623 88.8034 116.789 89.0738C116.789 89.0738 113.367 86.7542 112.521 87.369C111.675 87.9838 113.515 89.3659 114.958 90.5038C116.557 91.6617 118.409 92.4238 120.36 92.7274C122.666 93.1155 125.74 94.1968 127.039 92.4571C128.339 90.7175 128.435 88.132 128.435 88.132Z" fill="#FFC3BD"/>
<g opacity="0.2">
<path d="M112.08 84.7923C113.885 85.4942 115.664 86.2529 117.404 87.0682C117.206 87.5315 117.04 88.0079 116.907 88.4939C116.846 88.738 117.234 88.738 117.304 88.4939C117.721 86.9793 118.465 85.5745 119.484 84.3781C119.654 84.1731 119.348 83.99 119.178 84.1906C118.923 84.4958 118.684 84.8146 118.463 85.1454C118.459 85.1283 118.45 85.1126 118.438 85.0997C118.425 85.0868 118.41 85.077 118.394 85.0713C117.07 84.3222 115.66 83.7366 114.195 83.3273C113.964 83.2706 113.798 83.6238 114.034 83.6892C115.466 84.0901 116.845 84.6625 118.141 85.3939C118.193 85.4201 118.298 86.013 118.35 86C118.071 86.436 117.77 86.2616 117.561 86.7107C115.817 85.891 114.051 85.1323 112.237 84.4347C112.019 84.3519 111.862 84.7094 112.08 84.7923Z" fill="black"/>
</g>
<g opacity="0.2">
<path d="M125.034 90.5518C123.238 89.113 122.623 87.0245 123.399 85.1454C123.491 84.9317 123.107 84.7835 123.015 84.9971C122.169 87.0376 122.863 89.2699 124.794 90.8265C124.999 90.9791 125.252 90.7044 125.034 90.5518Z" fill="black"/>
</g>
<path d="M226.979 145.714L213.053 147.24L212.404 138.411L222.441 137.975L226.979 145.714Z" fill="#FFC3BD"/>
<path d="M222.402 149.006C221.53 149.59 220.719 149.952 220.121 149.006L219.271 147.65C218.979 147.123 219.123 146.547 219.184 145.963C219.655 141.524 216.045 141.79 215.36 140.543C214.488 138.943 220.156 137.16 220.387 136.933L225.366 131.919C225.776 131.483 227.019 131.213 227.45 131.667C227.529 131.746 227.595 131.837 227.647 131.937L231.898 139.663L237.849 150.48C239.471 153.427 235.878 155.45 234.954 154.373C230.821 149.534 227.852 148.361 225.554 147.28C224.467 147.786 223.414 148.363 222.402 149.006Z" fill="#249748"/>
<path opacity="0.4" d="M237.849 150.48L231.897 139.65L227.646 131.924C227.595 131.824 227.529 131.733 227.45 131.653C227.154 131.344 226.491 131.379 225.968 131.566L225.532 131.819L237.574 153.706C237.969 153.274 238.209 152.723 238.259 152.14C238.309 151.556 238.164 150.973 237.849 150.48Z" fill="white"/>
<path d="M229.212 148.936C229.379 148.252 229.675 147.606 230.084 147.031C230.201 146.857 229.918 146.695 229.8 146.865C229.381 147.466 229.076 148.138 228.902 148.849C228.895 148.89 228.903 148.932 228.925 148.967C228.947 149.002 228.981 149.027 229.021 149.038C229.061 149.049 229.104 149.045 229.141 149.026C229.177 149.007 229.206 148.975 229.22 148.936H229.212Z" fill="#263238"/>
<path d="M227.237 147.799C227.407 147.167 227.673 146.566 228.026 146.015C228.139 145.837 227.856 145.675 227.743 145.85C227.375 146.424 227.099 147.052 226.923 147.711C226.917 147.732 226.916 147.754 226.918 147.775C226.921 147.796 226.928 147.817 226.938 147.835C226.949 147.854 226.963 147.87 226.98 147.883C226.996 147.897 227.016 147.906 227.036 147.912C227.057 147.918 227.078 147.919 227.1 147.917C227.121 147.914 227.141 147.907 227.16 147.897C227.179 147.886 227.195 147.872 227.208 147.855C227.221 147.839 227.231 147.819 227.237 147.799Z" fill="#263238"/>
<path d="M225.676 147.04C225.677 146.534 225.837 146.042 226.133 145.632C226.144 145.613 226.151 145.593 226.154 145.571C226.156 145.55 226.155 145.528 226.149 145.508C226.143 145.487 226.134 145.468 226.12 145.451C226.107 145.434 226.091 145.42 226.072 145.409C226.054 145.399 226.033 145.392 226.012 145.389C225.991 145.387 225.969 145.388 225.949 145.394C225.928 145.399 225.909 145.409 225.892 145.422C225.875 145.435 225.861 145.452 225.85 145.47C225.523 145.928 225.348 146.477 225.349 147.04C225.355 147.079 225.375 147.114 225.405 147.139C225.435 147.165 225.473 147.179 225.512 147.179C225.551 147.179 225.589 147.165 225.619 147.139C225.649 147.114 225.669 147.079 225.676 147.04Z" fill="#263238"/>
<path d="M223.788 147.995C223.532 147.52 223.369 147 223.308 146.464C223.308 146.421 223.292 146.38 223.261 146.349C223.231 146.318 223.19 146.3 223.147 146.299C223.103 146.299 223.061 146.316 223.03 146.347C222.999 146.378 222.981 146.42 222.981 146.464C223.045 147.058 223.223 147.634 223.505 148.16C223.601 148.344 223.884 148.16 223.788 147.995Z" fill="#263238"/>
<g opacity="0.3">
<path d="M221.194 142.632C221.465 142.496 221.697 142.294 221.869 142.044C222.041 141.794 222.146 141.504 222.175 141.202C222.134 140.826 221.997 140.467 221.778 140.16L220.069 137.252H220.034C218.551 137.866 214.911 139.327 215.582 140.544C216.11 141.503 218.634 141.437 219.157 143.757C219.886 143.334 220.845 142.846 221.194 142.632Z" fill="black"/>
</g>
<path d="M206.431 114.17L203.047 109.213L184.269 111.876L181.653 115.452C181.653 115.452 152.772 127.607 148.517 130.437C144.065 133.406 140.163 136.851 141.933 143.848C143.703 150.846 151.377 152.49 160.132 153.532C168.887 154.574 207.765 150.676 207.765 150.676L205.38 139.048L175.732 137.653C175.732 137.653 200.335 136.345 202.559 134.326C210.381 127.259 206.431 114.17 206.431 114.17Z" fill="#263238"/>
<path opacity="0.2" d="M206.431 114.17L203.047 109.213L184.269 111.876L181.653 115.452C181.653 115.452 152.772 127.607 148.517 130.437C144.065 133.406 140.163 136.851 141.933 143.848C143.703 150.846 151.377 152.49 160.132 153.532C168.887 154.574 207.765 150.676 207.765 150.676L205.38 139.048L175.732 137.653C175.732 137.653 200.335 136.345 202.559 134.326C210.381 127.259 206.431 114.17 206.431 114.17Z" fill="white"/>
<path d="M220.182 114.671L216.812 109.71L190.342 113.141L191.436 117.161C191.436 117.161 166.545 128.104 162.312 130.934C157.856 133.908 153.958 137.352 155.724 144.345C157.489 151.339 165.141 152.987 173.883 154.046C182.625 155.106 218.006 151.064 218.006 151.064L217.239 136.24L189.505 138.172C189.505 138.172 214.087 136.864 216.328 134.849C224.411 127.642 221.917 117.933 220.182 114.671Z" fill="#263238"/>
<path opacity="0.2" d="M220.182 114.671L216.812 109.71L190.342 113.141L191.436 117.161C191.436 117.161 166.545 128.104 162.312 130.934C157.856 133.908 153.958 137.352 155.724 144.345C157.489 151.339 165.141 152.987 173.883 154.046C182.625 155.106 218.006 151.064 218.006 151.064L217.239 136.24L189.505 138.172C189.505 138.172 214.087 136.864 216.328 134.849C224.411 127.642 221.917 117.933 220.182 114.671Z" fill="white"/>
<path d="M163.79 77.0139L149.777 86.9111L156.81 99.7382L169.454 92.7361L163.79 77.0139Z" fill="#249748"/>
<path d="M163.79 77.014C166.262 75.1435 181.112 66.6284 190.696 66.2142L208.284 92.8538C208.284 92.8538 217.087 103.231 220.082 113.263C211.837 124.717 182.791 124.237 181.23 115.635C181.417 115.753 183.201 115.09 179.708 108.367C173.556 96.5206 166.593 91.4586 161.832 80.2796C161.736 80.0006 163.541 77.2014 163.79 77.014Z" fill="#249748"/>
<path d="M153.204 52.9642L152.72 53.6444C152.337 53.8269 152.025 54.1311 151.832 54.5096C151.64 54.888 151.579 55.3194 151.657 55.7365C151.736 56.1536 151.95 56.533 152.267 56.8155C152.584 57.0979 152.985 57.2676 153.409 57.2981C153.535 57.2878 153.661 57.3251 153.762 57.4027C153.901 57.5553 153.784 57.7864 153.697 57.9695C153.261 58.8764 153.893 60.0231 154.813 60.4111C155.286 60.5743 155.79 60.6304 156.287 60.5753C156.785 60.5203 157.264 60.3555 157.69 60.0928C156.775 57.4245 154.137 55.6282 153.204 52.9642Z" fill="#263238"/>
<path d="M175.963 51.4033C176.462 51.1987 176.889 50.851 177.191 50.4042C177.493 49.9573 177.656 49.4312 177.659 48.892C177.671 48.5942 177.593 48.2997 177.437 48.0461C177.001 47.3791 176.015 47.4183 175.222 47.536C175.549 47.2343 175.786 46.8469 175.905 46.4177C176.023 45.9885 176.019 45.5346 175.893 45.1075C175.795 44.5623 175.49 44.0762 175.041 43.7511C174.592 43.426 174.035 43.2871 173.487 43.3635C172.805 43.4229 172.135 43.58 171.499 43.83L173.02 56.7792C173.908 56.6304 174.758 56.309 175.523 55.8331C175.904 55.5944 176.233 55.2808 176.489 54.9113C176.745 54.5418 176.924 54.1242 177.014 53.6836C177.09 53.2418 177.03 52.7874 176.843 52.3802C176.655 51.9731 176.349 51.6324 175.963 51.4033Z" fill="#263238"/>
<path d="M182.145 70.4957C177.572 69.1659 174.084 60.9343 172.749 56.426L167.012 68.8041C167.455 69.1819 167.872 69.5898 168.259 70.0249C168.984 70.786 169.501 71.7216 169.759 72.7411C169.912 73.875 170.008 75.0159 170.046 76.1594C170.046 76.1594 170.67 78.8015 177.022 75.8062C179.939 74.7947 182.145 70.4957 182.145 70.4957Z" fill="#FFC3BD"/>
<path d="M172.697 52.0007C174.171 58.375 175.13 61.9371 172.828 66.1053C169.366 72.3749 160.777 71.9346 157.376 66.1401C154.324 60.9081 152.419 51.3772 157.996 47.0346C163.489 42.7575 171.228 45.6263 172.697 52.0007Z" fill="#FFC3BD"/>
<path d="M171.272 44.2311C169.362 41.0526 160.481 43.7122 158.527 46.2236C158.235 46.5986 164.256 47.5752 163.903 47.5578L166.624 47.6406C166.981 47.44 167.858 47.6406 168.59 48.6826C168.59 48.6826 171.167 58.3575 174.786 60.2846C176.713 58.5406 175.71 54.6994 175.741 52.223C175.789 48.53 175.588 43.2239 171.272 44.2311Z" fill="#263238"/>
<path d="M176.792 56.4436C176.763 57.2658 176.573 58.0743 176.231 58.8225C175.889 59.5708 175.402 60.2441 174.799 60.8036C173.16 62.3121 171.834 60.4896 171.429 58.4666C171.062 56.6398 170.949 54.3202 173.011 53.579C175.074 52.8378 176.826 54.4249 176.792 56.4436Z" fill="#FFC3BD"/>
<path d="M164.056 56.5961C164.248 57.237 164.056 57.8605 163.62 57.987C163.184 58.1134 162.687 57.6948 162.495 57.0539C162.303 56.413 162.495 55.7939 162.931 55.6674C163.367 55.541 163.851 55.9596 164.056 56.5961Z" fill="#263238"/>
<path d="M157.634 58.6802C157.826 59.3211 157.634 59.9402 157.198 60.0667C156.762 60.1931 156.265 59.7789 156.073 59.138C155.881 58.4971 156.073 57.8779 156.509 57.7515C156.945 57.6251 157.446 58.048 157.634 58.6802Z" fill="#263238"/>
<path d="M159.626 57.6904C159.626 57.6904 158.492 61.5011 158.213 62.9966C159.369 63.5241 160.829 62.6739 160.829 62.6739L159.626 57.6904Z" fill="#F39389"/>
<path d="M164.749 53.0951C164.705 53.1302 164.652 53.1532 164.596 53.1616C164.541 53.17 164.484 53.1636 164.431 53.143C164.056 52.9951 163.652 52.9344 163.251 52.9653C162.849 52.9963 162.459 53.1182 162.111 53.3218C162.043 53.3667 161.961 53.3845 161.88 53.3716C161.799 53.3587 161.726 53.316 161.675 53.252C161.628 53.1837 161.61 53.0995 161.625 53.0178C161.639 52.9361 161.686 52.8636 161.754 52.816C162.19 52.5506 162.681 52.3896 163.189 52.3457C163.697 52.3019 164.209 52.3763 164.684 52.5631C164.723 52.5766 164.758 52.5979 164.789 52.6258C164.819 52.6536 164.843 52.6874 164.86 52.725C164.877 52.7626 164.886 52.8032 164.886 52.8444C164.887 52.8855 164.879 52.9263 164.863 52.9643C164.837 53.0171 164.798 53.0623 164.749 53.0951Z" fill="#263238"/>
<path opacity="0.2" d="M172.432 58.048C172.406 58.0473 172.382 58.0378 172.363 58.0211C172.344 58.0043 172.331 57.9815 172.327 57.9564C172.223 57.3712 172.279 56.7687 172.488 56.2124C172.646 55.7284 172.966 55.3139 173.395 55.0396C173.618 54.8992 173.878 54.8277 174.142 54.8339C174.405 54.8401 174.661 54.9237 174.878 55.0745C174.896 55.0953 174.907 55.1225 174.907 55.1508C174.907 55.179 174.896 55.2062 174.878 55.2271C174.856 55.2473 174.828 55.2586 174.799 55.2586C174.77 55.2586 174.742 55.2473 174.721 55.2271C174.538 55.1083 174.324 55.0451 174.106 55.0451C173.888 55.0451 173.674 55.1083 173.491 55.2271C173.105 55.4755 172.817 55.8499 172.676 56.2865C172.48 56.802 172.427 57.361 172.523 57.9041C172.526 57.9182 172.526 57.9327 172.524 57.9469C172.521 57.9611 172.515 57.9745 172.507 57.9864C172.499 57.9983 172.488 58.0083 172.476 58.0159C172.464 58.0235 172.45 58.0285 172.436 58.0305L172.432 58.048Z" fill="black"/>
<path d="M153.984 56.8446C153.922 56.8488 153.86 56.8351 153.806 56.8053C153.768 56.7857 153.735 56.7587 153.708 56.7259C153.681 56.693 153.661 56.6551 153.649 56.6144C153.637 56.5736 153.634 56.5309 153.639 56.4888C153.644 56.4466 153.658 56.406 153.679 56.3693C153.921 55.9248 154.265 55.5433 154.681 55.2556C155.097 54.9678 155.576 54.7818 156.077 54.7125C156.119 54.7083 156.161 54.7125 156.201 54.7247C156.241 54.737 156.278 54.7571 156.31 54.7839C156.342 54.8108 156.368 54.8437 156.388 54.8808C156.407 54.918 156.418 54.9586 156.422 55.0003C156.426 55.084 156.398 55.1662 156.342 55.2291C156.287 55.292 156.209 55.3304 156.125 55.336C155.728 55.3933 155.35 55.5441 155.023 55.7761C154.695 56.008 154.427 56.3145 154.242 56.6702C154.215 56.7174 154.178 56.7577 154.134 56.788C154.089 56.8183 154.038 56.8377 153.984 56.8446Z" fill="#263238"/>
<path d="M172.035 40.669C171.089 39.3915 169.07 39.688 167.71 40.4467C167.221 38.6678 164.544 38.4105 163.079 38.9337C161.614 39.4569 161.187 40.2417 161.187 40.2417C161.313 40.2417 160.446 39.5223 159.971 39.2825C159.092 38.8544 158.107 38.692 157.138 38.8151C156.168 38.9383 155.256 39.3416 154.512 39.9758C153.781 40.6503 153.259 41.52 153.007 42.482C152.755 43.4439 152.784 44.4579 153.09 45.404C152.455 45.1056 151.729 45.0671 151.066 45.2968C150.403 45.5265 149.856 46.0062 149.541 46.6335C149.271 47.2901 149.255 48.024 149.497 48.6917C149.739 49.3594 150.221 49.9128 150.849 50.2436C150.564 50.3545 150.304 50.5224 150.086 50.737C149.868 50.9517 149.695 51.2085 149.58 51.4919C149.464 51.7753 149.407 52.0794 149.412 52.3855C149.418 52.6916 149.486 52.9933 149.612 53.2723C149.738 53.5513 149.919 53.8018 150.145 54.0083C150.371 54.2149 150.637 54.3732 150.926 54.4737C151.215 54.5742 151.522 54.6148 151.827 54.5928C152.133 54.5709 152.431 54.4871 152.702 54.3463C153.186 55.6238 153.845 57.2021 154.329 58.4796L154.59 53.1255C155.406 52.5108 155.462 52.0443 155.327 51.0066C156.391 52.0181 157.42 51.5777 158.772 51.0851C159.451 50.8223 160.045 50.3794 160.492 49.804C160.938 49.2287 161.219 48.5425 161.305 47.8194C162.425 48.8745 164.078 49.4152 165.503 48.9181C166.929 48.4211 167.914 46.7381 167.444 45.2819C168.07 45.7556 168.844 45.9923 169.629 45.95C170.413 45.9077 171.157 45.5892 171.729 45.0508C172.275 44.4661 172.603 43.7117 172.658 42.914C172.714 42.1163 172.494 41.3237 172.035 40.669Z" fill="#263238"/>
<path d="M161.958 64.588C162.755 65.0107 163.52 65.4901 164.247 66.0224C164.356 65.9134 164.479 65.8045 164.583 65.6867C166.109 64.1607 166.327 62.9486 166.07 62.0679C165.943 61.6408 165.718 61.2494 165.412 60.9256C165.244 60.7378 165.05 60.5748 164.836 60.4417C164.509 61.7497 163.201 63.2669 162.469 64.0561C162.133 64.37 161.958 64.588 161.958 64.588Z" fill="#263238"/>
<path d="M162.438 64.0474L163.127 64.4529C164.557 63.0141 165.373 61.8107 165.381 60.9125C165.213 60.7249 165.02 60.562 164.806 60.4286C164.492 61.7366 163.184 63.2539 162.438 64.0474Z" fill="white"/>
<path d="M164.557 65.678C166.083 64.152 166.301 62.9399 166.044 62.0592C165.475 62.6498 165.015 63.3361 164.684 64.0866C164.479 64.5915 164.435 65.1471 164.557 65.678Z" fill="#C15854"/>
<path opacity="0.2" d="M163.289 84.0336L167.762 93.6735L169.314 92.8146L163.289 84.0336Z" fill="black"/>
<g opacity="0.2">
<path d="M194.048 100.209C193.32 103.192 192.038 106.011 190.268 108.519C188.48 111.031 185.969 112.939 183.07 113.987C186.248 113.416 189.832 112.003 191.738 109.387C193.648 106.734 194.475 103.451 194.048 100.209Z" fill="black"/>
</g>
<path opacity="0.2" d="M188.345 126.064C188.345 126.064 191.014 126.304 194.161 123.766C197.309 121.229 197.309 120.06 198.364 119.48C199.42 118.901 218.495 109.016 218.495 109.016L216.877 104.844L194.161 118.7L188.345 126.064Z" fill="black"/>
<path d="M210.708 81.9364C211.074 82.0367 223.23 99.8124 221.948 103.335C220.666 106.858 195.849 119.467 196.224 119.467C196.599 119.467 193.377 113.525 193.377 113.525L208.733 100.702L200.51 89.8018L210.708 81.9364Z" fill="#FFC3BD"/>
<path d="M181.112 124.281L176.961 121.203C176.961 121.203 173.613 128.323 173.996 128.963C174.38 129.604 176.094 130.075 177.572 128.99C179.05 127.904 181.112 124.281 181.112 124.281Z" fill="#249748"/>
<path opacity="0.5" d="M181.112 124.281L176.961 121.203C176.961 121.203 173.613 128.323 173.996 128.963C174.38 129.604 176.094 130.075 177.572 128.99C179.05 127.904 181.112 124.281 181.112 124.281Z" fill="white"/>
<path d="M189.697 126.19L184.727 127.607C184.727 127.607 188.328 134.583 189.087 134.684C189.845 134.784 191.267 133.703 191.288 131.863C191.31 130.023 189.697 126.19 189.697 126.19Z" fill="#249748"/>
<path opacity="0.5" d="M189.697 126.19L184.727 127.607C184.727 127.607 188.328 134.583 189.087 134.684C189.845 134.784 191.267 133.703 191.288 131.863C191.31 130.023 189.697 126.19 189.697 126.19Z" fill="white"/>
<path d="M191.415 125.881L192.754 120.897C192.754 120.897 200.227 123.343 200.427 124.067C200.628 124.791 199.804 126.352 197.994 126.683C196.185 127.014 191.415 125.881 191.415 125.881Z" fill="#249748"/>
<path opacity="0.5" d="M191.415 125.881L192.754 120.897C192.754 120.897 200.227 123.343 200.427 124.067C200.628 124.791 199.804 126.352 197.994 126.683C196.185 127.014 191.415 125.881 191.415 125.881Z" fill="white"/>
<path opacity="0.2" d="M181.112 124.281C180.402 125.495 179.611 126.661 178.745 127.769C177.407 125.848 176.778 123.522 176.966 121.189L181.112 124.281Z" fill="black"/>
<path d="M187.103 117.152L183.362 113.59C183.362 113.59 189.797 109.095 190.503 109.343C191.21 109.592 191.968 111.214 191.136 112.862C190.303 114.51 187.103 117.152 187.103 117.152Z" fill="#249748"/>
<path opacity="0.5" d="M187.103 117.152L183.362 113.59C183.362 113.59 189.797 109.095 190.503 109.343C191.21 109.592 191.968 111.214 191.136 112.862C190.303 114.51 187.103 117.152 187.103 117.152Z" fill="white"/>
<path opacity="0.2" d="M187.103 117.152C188.186 116.245 189.206 115.265 190.155 114.218C188.034 113.231 185.635 113.012 183.371 113.599L187.103 117.152Z" fill="black"/>
<path opacity="0.2" d="M185.947 129.901C185.947 129.901 187.848 130.032 189.2 129.26C190.552 128.488 190.268 127.673 190.268 127.673L185.472 129.016L185.947 129.901Z" fill="black"/>
<path d="M178.57 116.062C181.309 112.81 186.362 112.574 189.859 115.5C193.355 118.425 193.974 123.465 191.236 126.718C188.498 129.971 183.449 130.206 179.948 127.28C176.447 124.355 175.828 119.315 178.57 116.062Z" fill="#249748"/>
<path opacity="0.5" d="M178.57 116.062C181.309 112.81 186.362 112.574 189.859 115.5C193.355 118.425 193.974 123.465 191.236 126.718C188.498 129.971 183.449 130.206 179.948 127.28C176.447 124.355 175.828 119.315 178.57 116.062Z" fill="white"/>
<path opacity="0.5" d="M181.274 118.874C182.869 116.982 185.808 116.834 187.844 118.547C189.88 120.261 190.238 123.182 188.646 125.087C187.055 126.993 184.112 127.128 182.076 125.414C180.04 123.701 179.682 120.767 181.274 118.874Z" fill="white"/>
<path opacity="0.2" d="M176.874 121.233C178.746 121.03 180.467 120.112 181.678 118.671C182.889 117.23 183.497 115.377 183.375 113.498C181.503 113.699 179.78 114.616 178.569 116.058C177.357 117.5 176.75 119.354 176.874 121.233Z" fill="black"/>
<path d="M166.148 112.639C166.473 112.117 166.945 111.703 167.505 111.449C168.065 111.196 168.688 111.114 169.295 111.214C169.901 111.314 170.465 111.592 170.913 112.012C171.362 112.432 171.676 112.976 171.816 113.575C171.955 114.174 171.914 114.801 171.698 115.376C171.481 115.951 171.099 116.45 170.599 116.808C170.099 117.166 169.505 117.368 168.89 117.388C168.276 117.408 167.669 117.246 167.147 116.921C166.8 116.705 166.499 116.424 166.262 116.092C166.024 115.76 165.854 115.385 165.761 114.987C165.668 114.589 165.655 114.178 165.721 113.775C165.788 113.372 165.933 112.986 166.148 112.639Z" fill="#249748"/>
<path opacity="0.5" d="M166.148 112.639C166.473 112.117 166.945 111.703 167.505 111.449C168.065 111.196 168.688 111.114 169.295 111.214C169.901 111.314 170.465 111.592 170.913 112.012C171.362 112.432 171.676 112.976 171.816 113.575C171.955 114.174 171.914 114.801 171.698 115.376C171.481 115.951 171.099 116.45 170.599 116.808C170.099 117.166 169.505 117.368 168.89 117.388C168.276 117.408 167.669 117.246 167.147 116.921C166.8 116.705 166.499 116.424 166.262 116.092C166.024 115.76 165.854 115.385 165.761 114.987C165.668 114.589 165.655 114.178 165.721 113.775C165.788 113.372 165.933 112.986 166.148 112.639Z" fill="white"/>
<path opacity="0.5" d="M167.479 115.827C167.786 116.085 168.164 116.246 168.563 116.29C168.962 116.334 169.366 116.258 169.722 116.073C170.079 115.887 170.372 115.601 170.565 115.249C170.759 114.896 170.844 114.495 170.809 114.095C170.774 113.694 170.622 113.314 170.37 113C170.119 112.686 169.781 112.454 169.398 112.333C169.015 112.212 168.604 112.207 168.219 112.319C167.833 112.431 167.489 112.655 167.23 112.962C167.058 113.166 166.928 113.403 166.848 113.657C166.767 113.912 166.737 114.18 166.761 114.446C166.784 114.712 166.859 114.971 166.982 115.208C167.105 115.445 167.274 115.655 167.479 115.827Z" fill="white"/>
<path d="M173.133 109.104C173.604 109.498 174.182 109.745 174.793 109.811C175.404 109.878 176.021 109.762 176.566 109.478C177.111 109.194 177.56 108.755 177.856 108.216C178.151 107.677 178.28 107.062 178.227 106.45C178.173 105.837 177.939 105.255 177.555 104.775C177.17 104.296 176.652 103.941 176.065 103.756C175.479 103.571 174.851 103.564 174.261 103.736C173.671 103.908 173.145 104.251 172.749 104.722C172.486 105.034 172.287 105.396 172.164 105.785C172.041 106.175 171.996 106.585 172.031 106.992C172.067 107.399 172.183 107.795 172.372 108.158C172.561 108.52 172.82 108.841 173.133 109.104Z" fill="#249748"/>
<path opacity="0.5" d="M173.133 109.104C173.604 109.498 174.182 109.745 174.793 109.811C175.404 109.878 176.021 109.762 176.566 109.478C177.111 109.194 177.56 108.755 177.856 108.216C178.151 107.677 178.28 107.062 178.227 106.45C178.173 105.837 177.939 105.255 177.555 104.775C177.17 104.296 176.652 103.941 176.065 103.756C175.479 103.571 174.851 103.564 174.261 103.736C173.671 103.908 173.145 104.251 172.749 104.722C172.486 105.034 172.287 105.396 172.164 105.785C172.041 106.175 171.996 106.585 172.031 106.992C172.067 107.399 172.183 107.795 172.372 108.158C172.561 108.52 172.82 108.841 173.133 109.104Z" fill="white"/>
<path opacity="0.5" d="M173.805 108.288C174.112 108.548 174.489 108.71 174.889 108.755C175.288 108.8 175.692 108.725 176.049 108.54C176.406 108.356 176.7 108.069 176.895 107.717C177.089 107.365 177.174 106.964 177.14 106.563C177.106 106.162 176.954 105.781 176.703 105.467C176.451 105.153 176.113 104.921 175.73 104.799C175.347 104.678 174.936 104.673 174.55 104.784C174.164 104.896 173.819 105.12 173.561 105.428C173.217 105.841 173.049 106.373 173.095 106.908C173.141 107.444 173.396 107.94 173.805 108.288Z" fill="white"/>
<path d="M170.565 119.96C173.295 122.258 177.833 121.346 180.733 117.911C183.632 114.475 183.745 109.832 181.016 107.53C178.287 105.227 173.744 106.147 170.844 109.583C167.945 113.019 167.853 117.64 170.565 119.96Z" fill="#249748"/>
<path opacity="0.5" d="M170.565 119.96C173.295 122.258 177.833 121.346 180.733 117.911C183.632 114.475 183.745 109.832 181.016 107.53C178.287 105.227 173.744 106.147 170.844 109.583C167.945 113.019 167.853 117.64 170.565 119.96Z" fill="white"/>
<path d="M178.082 111.022C178.575 111.458 179.115 111.611 179.29 111.406C179.464 111.201 179.198 110.695 178.705 110.276C178.213 109.858 177.668 109.688 177.493 109.897C177.319 110.106 177.572 110.603 178.082 111.022Z" fill="#263238"/>
<path d="M172.898 117.196C173.39 117.632 173.935 117.784 174.11 117.575C174.284 117.366 174.018 116.864 173.521 116.45C173.024 116.036 172.488 115.862 172.309 116.066C172.13 116.271 172.401 116.773 172.898 117.196Z" fill="#263238"/>
<path d="M175.828 115.535C176.233 115.87 176.961 115.652 177.471 115.051C177.982 114.449 178.06 113.703 177.655 113.363C177.249 113.023 176.53 113.241 176.02 113.843C175.509 114.445 175.444 115.199 175.828 115.535Z" fill="#263238"/>
<path opacity="0.2" d="M191.777 125.985C192.211 125.168 192.505 124.284 192.649 123.369L192.828 122.624C192.828 122.624 193.019 124.765 192.597 126.138L191.777 125.985Z" fill="black"/>
<path d="M195.356 113.668C195.356 113.668 193.385 112.055 191.498 112.177C189.61 112.299 189.483 112.256 188.201 112.862C187.164 113.355 187.194 113.939 187.194 113.939C188.11 114.397 189.693 115.212 189.627 115.487C189.409 116.359 182.991 120.069 182.446 121.233C181.901 122.397 183.035 122.131 183.035 122.131C183.035 122.131 181.657 123.003 181.674 123.875C181.692 124.747 182.673 124.494 182.673 124.494C182.56 124.56 182.466 124.654 182.399 124.766C182.333 124.878 182.295 125.005 182.29 125.135C182.285 125.266 182.314 125.395 182.372 125.512C182.431 125.628 182.518 125.728 182.625 125.802C183.196 126.326 188.328 123.622 188.603 123.653C188.603 123.653 184.984 124.834 184.835 125.924C184.687 127.014 186.719 126.474 188.323 126.086C189.928 125.698 191.772 124.529 193.119 123.256C194.82 121.669 197.44 119.929 197.161 117.723C196.919 116.239 196.298 114.842 195.356 113.668Z" fill="#FFC3BD"/>
<path opacity="0.2" d="M208.728 100.706C209.316 100.384 209.975 100.215 210.645 100.215C211.315 100.215 211.974 100.384 212.561 100.706C212.017 100.086 211.282 99.6663 210.472 99.5137C209.661 99.3611 208.823 99.4848 208.092 99.8648L208.728 100.706Z" fill="black"/>
<path opacity="0.2" d="M202.01 91.7812L200.85 92.6532C200.85 92.6532 192.936 83.1702 193.002 83.3054C193.067 83.4405 200.872 94.9771 200.872 94.9771L202.803 92.8581L202.01 91.7812Z" fill="black"/>
<path d="M189.976 66.2578C193.269 65.9692 196.543 66.9941 199.084 69.1093C203.139 72.4229 212.561 81.7271 212.561 81.7271L201.421 92.3394L188.616 79.4381L189.976 66.2578Z" fill="#249748"/>
<path opacity="0.2" d="M189.579 76.36C188.899 73.2513 190.962 69.9638 193.939 68.948C194.364 68.8051 194.803 68.7058 195.247 68.6515C194.428 68.9191 193.653 69.3054 192.945 69.7982C191.895 70.5303 191.041 71.51 190.459 72.6507C189.877 73.7914 189.586 75.0579 189.61 76.3382L189.579 76.36Z" fill="black"/>
<path d="M101.32 56.0816C101.625 55.9423 101.876 55.7062 102.034 55.4098C102.192 55.1135 102.247 54.7734 102.192 54.4422C102.125 54.114 101.986 53.8047 101.786 53.5363C101.585 53.268 101.328 53.0473 101.032 52.8901C100.43 52.5804 99.7681 52.4063 99.0919 52.38C98.4485 52.2844 97.7912 52.3721 97.1953 52.6329L100.016 60.7904C100.659 60.5285 101.237 60.1281 101.708 59.6176C102.183 59.1024 102.437 58.4213 102.414 57.721C102.402 57.3732 102.292 57.0357 102.099 56.7463C101.906 56.4568 101.636 56.2267 101.32 56.0816Z" fill="#263238"/>
<path d="M100.657 49.3498C99.7372 48.7132 98.6384 48.6042 97.5746 48.5127C98.0417 47.9765 98.3338 47.3104 98.4117 46.6037C98.4896 45.8969 98.3497 45.1832 98.0106 44.5581C96.9598 42.7575 94.7057 42.9013 92.9356 43.4943C91.3878 44.0131 89.8007 44.8023 88.8415 46.337C88.7747 45.9035 88.6075 45.4916 88.3531 45.1343C88.0987 44.777 87.7643 44.4841 87.3766 44.2791C86.6566 43.9408 85.8523 43.8239 85.0658 43.9434C83.6917 44.0668 82.4011 44.656 81.4077 45.6133C80.8677 46.157 80.4442 46.8051 80.1631 47.518C79.8819 48.2309 79.7491 48.9937 79.7727 49.7596C78.0287 48.9792 75.888 49.8468 74.9026 51.7303C73.9172 53.6139 74.205 56.3083 75.5566 57.8343C74.8546 58.6017 74.8939 59.7484 75.3037 60.773C75.7136 61.7976 77.959 61.4226 78.9007 61.2526L94.0604 55.759C95.8698 56.8577 98.0324 55.7895 99.8592 54.7257C100.731 54.2286 101.647 53.6226 101.939 52.5457C102.061 51.946 102.005 51.3237 101.777 50.7556C101.549 50.1876 101.16 49.6989 100.657 49.3498Z" fill="#263238"/>
<path d="M93.2841 58.1788C93.2841 58.1788 98.2196 67.0732 98.4507 69.82C100.343 71.4289 101.686 68.1676 101.612 63.7945C101.555 60.2193 99.6889 56.3563 96.5977 54.9655C92.2551 53.0297 93.2841 58.1788 93.2841 58.1788Z" fill="#263238"/>
<path d="M99.4101 85.4855C97.7751 85.0495 94.1476 84.0467 92.6129 83.7415C92.2094 83.3886 91.9021 82.9391 91.7198 82.435C91.5376 81.9309 91.4863 81.3888 91.5709 80.8595C91.7099 79.8923 91.9646 78.9452 92.3295 78.0386L91.1 76.6957L84.7038 70.692C85.0091 74.8602 85.7546 81.5397 82.5762 83.9203C82.5762 83.9203 79.7945 86.0305 78.0984 86.5581C77.4793 88.4634 74.2529 97.3709 74.2529 97.3709L102.013 95.108C102.641 90.7873 99.2488 86.218 99.4101 85.4855Z" fill="#FFC3BD"/>
<path opacity="0.2" d="M91.8454 81.2301C90.1014 80.2796 88.1743 78.6141 88.3269 76.5824C88.3736 75.842 88.5097 75.11 88.7324 74.4023L92.3555 78.8539C92.102 79.6257 91.931 80.4223 91.8454 81.2301Z" fill="black"/>
<path d="M82.999 64.0518C83.8099 70.3868 84.0236 73.0813 87.4244 76.299C92.543 81.1342 100.068 79.1722 101.154 72.811C102.126 67.095 100.635 57.6905 94.2914 55.2446C88.0479 52.8422 82.1837 57.7123 82.999 64.0518Z" fill="#FFC3BD"/>
<path d="M91.6231 66.2841C91.6231 66.8814 91.9719 67.3871 92.3905 67.4177C92.809 67.4482 93.1404 66.9817 93.136 66.3887C93.1316 65.7957 92.7872 65.2856 92.373 65.2551C91.9588 65.2246 91.6187 65.6867 91.6231 66.2841Z" fill="#263238"/>
<path d="M98.0933 65.7302C98.0672 66.3058 98.3767 66.8159 98.7909 66.8726C99.2051 66.9292 99.567 66.4976 99.5932 65.9221C99.6193 65.3466 99.3098 64.8321 98.8956 64.7798C98.4814 64.7274 98.1239 65.1504 98.0933 65.7302Z" fill="#263238"/>
<path d="M89.9359 64.2349C89.9768 64.2389 90.0181 64.2335 90.0567 64.2191C90.0952 64.2048 90.13 64.1818 90.1583 64.152C90.4195 63.8764 90.7451 63.67 91.1058 63.5513C91.4665 63.4326 91.8511 63.4053 92.2249 63.4719C92.2634 63.4821 92.3035 63.4843 92.3428 63.4783C92.3821 63.4723 92.4198 63.4582 92.4534 63.4369C92.487 63.4156 92.5158 63.3875 92.538 63.3545C92.5602 63.3215 92.5754 63.2843 92.5824 63.2451C92.5961 63.1617 92.5782 63.0763 92.5323 63.0053C92.4863 62.9344 92.4156 62.8831 92.3339 62.8615C91.863 62.771 91.377 62.7997 90.92 62.9452C90.4631 63.0906 90.0498 63.3481 89.7179 63.6942C89.6614 63.7527 89.6299 63.8309 89.6299 63.9122C89.6299 63.9936 89.6614 64.0717 89.7179 64.1302C89.7745 64.1917 89.8526 64.2291 89.9359 64.2349Z" fill="#263238"/>
<path d="M99.7892 62.9356C99.8632 62.9105 99.9243 62.8572 99.9593 62.7874C99.976 62.7502 99.9852 62.71 99.9863 62.6693C99.9875 62.6285 99.9805 62.5879 99.9659 62.5498C99.9514 62.5117 99.9294 62.4769 99.9013 62.4473C99.8732 62.4178 99.8396 62.394 99.8023 62.3775C99.3547 62.1432 98.8592 62.015 98.3542 62.0029C97.8491 61.9908 97.3481 62.0951 96.8898 62.3078C96.8545 62.3264 96.8237 62.3524 96.7993 62.384C96.775 62.4156 96.7576 62.452 96.7486 62.4908C96.7395 62.5297 96.7388 62.57 96.7466 62.6091C96.7544 62.6483 96.7706 62.6852 96.7939 62.7176C96.8396 62.7872 96.9092 62.8376 96.9895 62.8593C97.0699 62.881 97.1554 62.8724 97.2299 62.8353C97.5945 62.6725 97.9915 62.5953 98.3905 62.6097C98.7896 62.6241 99.18 62.7296 99.532 62.9182C99.6121 62.9575 99.7045 62.9638 99.7892 62.9356Z" fill="#263238"/>
<path d="M81.2638 69.3011C81.617 69.8734 82.0794 70.3706 82.6248 70.7641C83.1702 71.1576 83.7878 71.4398 84.4422 71.5945C86.1383 71.9564 86.91 69.2183 86.2734 67.5528C85.9762 66.8032 85.4211 66.1844 84.7081 65.8079C83.995 65.4314 83.1709 65.3219 82.3843 65.4992C80.7798 65.896 80.3438 67.8449 81.2638 69.3011Z" fill="#FFC3BD"/>
<path d="M95.8652 65.3292C96.4869 66.6645 97.2437 67.9326 98.1237 69.1137C98.1704 69.1739 98.2024 69.2441 98.2174 69.3187C98.2323 69.3934 98.2298 69.4705 98.2099 69.544C98.1901 69.6175 98.1535 69.6854 98.1029 69.7424C98.0524 69.7993 97.9894 69.8438 97.9188 69.8723C97.3697 70.0589 96.7799 70.0905 96.214 69.9639L95.8652 65.3292Z" fill="#F39389"/>
<path d="M92.2422 65.2333L93.7202 64.9586C93.7202 64.9586 92.87 66.0094 92.2422 65.2333Z" fill="#263238"/>
<path d="M98.7432 64.7798L100.234 64.5923C100.234 64.5923 99.323 65.5864 98.7432 64.7798Z" fill="#263238"/>
<path d="M81.2813 60.5768C80.4093 61.8237 82.1533 65.4425 82.1533 65.4425C82.1533 65.4425 85.2053 64.5357 85.3709 69.1311C86.4958 69.3186 87.7602 65.0283 87.5771 60.7163C87.3199 58.2791 82.8029 58.375 81.2813 60.5768Z" fill="#263238"/>
<path opacity="0.2" d="M84.0585 69.9682H84.0323C83.6824 69.9083 83.35 69.7717 83.059 69.5682C82.768 69.3647 82.5257 69.0993 82.3494 68.791C82.2491 68.6178 82.1861 68.4256 82.1643 68.2267C82.1425 68.0277 82.1625 67.8264 82.2229 67.6356C82.3296 67.3652 82.5363 67.1463 82.8003 67.0245C83.0642 66.9026 83.365 66.8873 83.6399 66.9816C83.6534 66.9864 83.6657 66.9939 83.6761 67.0037C83.6865 67.0134 83.6949 67.0252 83.7006 67.0382C83.7063 67.0513 83.7093 67.0654 83.7093 67.0797C83.7094 67.0939 83.7066 67.108 83.701 67.1212C83.6962 67.1346 83.6887 67.1469 83.679 67.1573C83.6692 67.1677 83.6575 67.1761 83.6444 67.1818C83.6313 67.1875 83.6172 67.1905 83.603 67.1906C83.5887 67.1906 83.5746 67.1878 83.5615 67.1822C83.3397 67.1116 83.0995 67.1277 82.8891 67.2273C82.6788 67.3268 82.514 67.5023 82.4279 67.7185C82.3792 67.8797 82.3641 68.0491 82.3836 68.2164C82.4031 68.3836 82.4568 68.5451 82.5412 68.6908C82.7032 68.9717 82.9258 69.213 83.1928 69.397C83.4598 69.5811 83.7645 69.7032 84.0847 69.7546C84.0986 69.7576 84.1118 69.7635 84.1234 69.7718C84.1351 69.7801 84.1448 69.7908 84.1522 69.803C84.1596 69.8153 84.1643 69.8289 84.1662 69.8431C84.1681 69.8572 84.167 69.8716 84.1631 69.8854C84.1581 69.9092 84.1448 69.9305 84.1257 69.9457C84.1066 69.9608 84.0829 69.9688 84.0585 69.9682Z" fill="black"/>
<path d="M96.7984 72.0392C96.3964 72.7019 96.0424 73.3926 95.739 74.1058L95.3422 74.0099C93.5415 73.5478 92.8614 72.7412 92.6521 71.9825C92.5606 71.6102 92.5606 71.2213 92.6521 70.8489C92.6933 70.6368 92.7637 70.4313 92.8614 70.2385C93.668 71.0538 95.3117 71.6119 96.2011 71.8735C96.563 72 96.7984 72.0392 96.7984 72.0392Z" fill="#263238"/>
<path d="M96.1882 71.8735L95.8612 72.4752C94.1695 72.0392 93.0359 71.4986 92.6392 70.8489C92.6804 70.6368 92.7508 70.4313 92.8484 70.2385C93.655 71.0538 95.2988 71.6119 96.1882 71.8735Z" fill="white"/>
<path d="M95.342 74.0099C93.5413 73.5478 92.8611 72.7412 92.6519 71.9825C93.3317 72.1716 93.9724 72.4802 94.5441 72.8938C94.92 73.1735 95.199 73.5638 95.342 74.0099Z" fill="#C15854"/>
<path d="M99.2619 57.0408C97.919 54.2417 92.4385 51.6432 86.134 54.3464C80.4398 56.7749 77.7628 63.7116 81.8786 64.0212C85.9944 64.3308 92.8789 60.773 92.8789 60.773L99.2619 57.0408Z" fill="#263238"/>
<path d="M84.9174 74.0099C84.9174 74.0099 78.6303 69.1398 77.9414 62.3993C77.9414 62.3993 80.6228 53.8362 92.2553 53.2084L94.9062 53.7316C94.9062 53.7316 83.0688 60.2977 84.9174 74.0099Z" fill="#249748"/>
<path d="M92.5825 53.252C93.6102 52.8434 94.7475 52.8024 95.8018 53.1362C96.8562 53.4699 97.7628 54.1577 98.3682 55.0832C99.8661 57.2892 100.904 59.7745 101.42 62.3906C101.42 62.3906 100.548 57.9216 98.0892 56.5482C96.6277 55.7232 95.1078 55.0062 93.5417 54.403L92.5825 53.252Z" fill="#249748"/>
<path opacity="0.3" d="M91.6099 56.2821L91.9849 53.2345L91.1042 53.2955L90.5723 57.2021L91.6099 56.2821Z" fill="black"/>
<path opacity="0.3" d="M78.6826 60.773C78.6826 60.773 79.5546 66.829 84.8171 72.4752L84.7517 70.0423C84.7517 70.0423 81.2289 64.5487 79.6549 59.2949C79.2827 59.7542 78.957 60.2493 78.6826 60.773Z" fill="black"/>
<path opacity="0.3" d="M81.4775 57.3112C82.2964 60.3079 83.6687 63.125 85.5236 65.617C85.7277 64.9453 85.9663 64.2846 86.2387 63.6375C84.8829 61.2866 83.7165 58.8314 82.7507 56.2953C82.3069 56.6089 81.8818 56.9481 81.4775 57.3112Z" fill="black"/>
<path opacity="0.3" d="M86.9361 54.1807C86.3955 54.3594 85.8854 54.56 85.4058 54.7736C86.0414 56.7441 86.9202 58.6276 88.0218 60.3806C88.3924 59.8225 88.7804 59.2949 89.1728 58.8066C88.3501 57.3031 87.6036 55.7592 86.9361 54.1807Z" fill="black"/>
<path opacity="0.3" d="M97.9362 56.4697L96.9116 53.6095C96.9116 53.6095 97.6441 54.2112 97.8665 54.4815C98.0888 54.7518 98.7777 57.0583 98.7385 57.0452L97.9362 56.4697Z" fill="black"/>
<path d="M91.9587 53.4221C91.9587 53.4221 93.4367 50.1651 95.0499 51.1679C96.6631 52.1707 99.0742 57.0191 97.3956 56.8359C95.717 56.6528 92.0676 57.2022 91.6098 56.2953C91.152 55.3884 91.9587 53.4221 91.9587 53.4221Z" fill="#249748"/>
<path opacity="0.3" d="M91.9194 56.5569L95.6821 51.7042C95.6821 51.7042 96.5541 52.8291 96.6282 52.9294C96.7024 53.0297 93.8858 56.8272 93.8858 56.8272C93.8858 56.8272 92.2334 56.8316 91.9194 56.5569Z" fill="black"/>
<path d="M143.995 158.184L145.539 152.019L130.379 145.034L127.929 154.404L143.995 158.184Z" fill="#FFC3BD"/>
<path opacity="0.3" d="M138.393 148.727L142.796 150.554L140.647 157.33L135.886 156.274L138.393 148.727Z" fill="black"/>
<path d="M143.695 150.667L142.365 152.499C142.22 152.705 142.126 152.942 142.089 153.191C142.053 153.44 142.076 153.694 142.155 153.933C142.831 156.03 141.719 156.431 139.539 156.597C138.925 157.264 139.622 158.066 139.801 158.289L143.786 163.259C143.879 163.378 143.999 163.473 144.135 163.537C144.272 163.602 144.421 163.633 144.572 163.629C144.723 163.625 144.871 163.586 145.004 163.515C145.137 163.444 145.251 163.343 145.338 163.22L149.698 157.181L155.828 148.736C157.498 146.43 155.519 144.271 154.616 145.065C150.579 148.649 147.13 150.763 144.933 151.169C144.54 151.26 144.558 150.89 143.695 150.667Z" fill="#263238"/>
<path d="M147.985 147.725C147.984 147.58 147.95 147.437 147.885 147.308C147.82 147.178 147.726 147.066 147.61 146.979C147.551 146.927 147.48 146.892 147.403 146.878C147.326 146.863 147.247 146.87 147.174 146.896C146.35 147.175 145.761 150.236 145.7 150.585C145.693 150.61 145.694 150.636 145.702 150.66C145.711 150.685 145.726 150.706 145.747 150.721C145.768 150.736 145.793 150.745 145.819 150.745C145.845 150.746 145.87 150.739 145.892 150.724C146.433 150.257 146.924 149.736 147.357 149.168C147.715 148.766 147.935 148.26 147.985 147.725ZM147.248 147.166C147.279 147.153 147.313 147.15 147.346 147.157C147.379 147.164 147.408 147.181 147.431 147.206C147.512 147.271 147.578 147.354 147.625 147.447C147.671 147.54 147.697 147.642 147.701 147.746C147.701 148.549 146.637 149.682 146.023 150.266C146.293 149.015 146.799 147.323 147.248 147.166Z" fill="#249748"/>
<path d="M145.979 150.663C146.193 149.769 146.106 147.511 145.452 147.175C145.321 147.097 145.103 147.075 144.837 147.358C143.786 148.505 145.648 150.676 145.744 150.746C145.751 150.767 145.764 150.784 145.783 150.796C145.801 150.807 145.823 150.812 145.844 150.809C145.866 150.805 145.886 150.795 145.9 150.779C145.914 150.762 145.922 150.741 145.923 150.72L145.979 150.663ZM144.994 147.515C145.186 147.297 145.269 147.358 145.299 147.38C145.709 147.581 145.892 149.303 145.735 150.336C145.321 149.8 144.34 148.387 144.916 147.594L144.994 147.515Z" fill="#249748"/>
<path d="M145.901 152.808C145.878 152.808 145.857 152.802 145.838 152.789C145.819 152.777 145.805 152.759 145.796 152.738C145.647 152.358 145.581 151.949 145.603 151.54C145.626 151.132 145.736 150.733 145.927 150.371C145.934 150.358 145.943 150.347 145.954 150.338C145.965 150.329 145.978 150.322 145.992 150.318C146.006 150.314 146.02 150.313 146.035 150.315C146.049 150.316 146.063 150.32 146.075 150.327C146.088 150.334 146.099 150.343 146.108 150.353C146.117 150.364 146.123 150.377 146.128 150.39C146.132 150.404 146.133 150.418 146.131 150.432C146.13 150.446 146.126 150.459 146.119 150.471C145.943 150.805 145.842 151.172 145.822 151.548C145.801 151.925 145.863 152.301 146.001 152.651C146.007 152.664 146.01 152.679 146.01 152.693C146.009 152.707 146.006 152.721 146.001 152.734C145.995 152.747 145.987 152.759 145.976 152.769C145.966 152.779 145.954 152.786 145.94 152.791C145.929 152.801 145.916 152.807 145.901 152.808Z" fill="#249748"/>
<path d="M147.579 152.294C147.559 152.292 147.54 152.284 147.524 152.272C147.507 152.26 147.495 152.243 147.488 152.224C147.337 151.843 147.271 151.433 147.293 151.024C147.314 150.615 147.424 150.215 147.614 149.852C147.629 149.827 147.652 149.809 147.68 149.801C147.707 149.793 147.737 149.796 147.762 149.808C147.788 149.822 147.807 149.845 147.816 149.873C147.825 149.901 147.823 149.931 147.81 149.957C147.634 150.29 147.532 150.657 147.511 151.033C147.49 151.41 147.55 151.786 147.688 152.137C147.694 152.15 147.697 152.165 147.697 152.179C147.697 152.194 147.694 152.208 147.688 152.222C147.682 152.235 147.674 152.247 147.664 152.257C147.653 152.267 147.641 152.275 147.627 152.281L147.579 152.294Z" fill="#249748"/>
<path d="M149.323 151.4C149.305 151.4 149.287 151.396 149.271 151.387C149.255 151.379 149.242 151.367 149.232 151.352C149.081 150.971 149.014 150.561 149.037 150.152C149.06 149.742 149.171 149.343 149.362 148.98C149.369 148.968 149.378 148.957 149.389 148.948C149.399 148.939 149.412 148.932 149.425 148.928C149.439 148.924 149.453 148.922 149.467 148.924C149.481 148.925 149.494 148.93 149.506 148.937C149.519 148.943 149.531 148.952 149.54 148.963C149.55 148.974 149.557 148.987 149.562 149.001C149.566 149.014 149.568 149.029 149.566 149.043C149.565 149.058 149.561 149.072 149.554 149.085C149.378 149.418 149.276 149.785 149.255 150.161C149.234 150.538 149.294 150.914 149.432 151.265C149.442 151.291 149.442 151.321 149.43 151.347C149.419 151.373 149.398 151.394 149.371 151.404L149.323 151.4Z" fill="#249748"/>
<path d="M100.666 120.754L107.349 126.5C117.914 126.243 153.217 122.659 154.298 133.838C158.941 146.791 126.629 147.733 105.239 149.381C105.169 149.388 105.101 149.412 105.042 149.45C104.982 149.489 104.933 149.542 104.899 149.604C104.733 149.883 104.092 150.515 101.817 151.932C96.2096 155.42 92.6606 156.462 87.7817 156.117C79.3974 155.507 71.8764 150.698 72.561 138.272C72.7541 133.245 73.8561 128.295 75.8135 123.662L100.666 120.754Z" fill="#263238"/>
<path opacity="0.2" d="M82.6287 121.198L76.311 138.006C76.311 138.006 104.154 132.255 121.494 140.718C121.494 140.718 139.03 135.617 142.422 132.434C123.425 143.003 104.756 133.546 104.756 133.546L82.6287 121.198Z" fill="black"/>
<path d="M105.261 151.186L108.466 156.676L124.184 151.073L119.392 142.662L105.261 151.186Z" fill="#FFC3BD"/>
<path d="M111.997 156.279L110.532 154.561C110.367 154.371 110.159 154.223 109.926 154.13C109.692 154.036 109.44 153.998 109.189 154.02C107.009 154.182 106.865 153 107.219 150.837C106.713 150.083 105.771 150.571 105.51 150.694L99.7412 153.397C99.5088 153.503 99.3279 153.697 99.238 153.937C99.1482 154.176 99.1567 154.441 99.2616 154.674C99.3004 154.762 99.3534 154.843 99.4186 154.914L104.254 160.582L111.034 168.526C112.878 170.706 115.446 169.28 114.888 168.216C112.35 163.447 111.108 159.601 111.217 157.364C111.225 156.963 111.579 157.068 111.997 156.279Z" fill="#263238"/>
<path d="M113.851 161.145C113.991 161.179 114.137 161.18 114.278 161.147C114.419 161.115 114.55 161.05 114.661 160.957C114.725 160.912 114.775 160.852 114.807 160.781C114.84 160.711 114.852 160.633 114.845 160.556C114.766 159.684 111.932 158.402 111.605 158.263C111.589 158.254 111.571 158.25 111.553 158.25C111.535 158.25 111.517 158.254 111.5 158.263C111.485 158.268 111.47 158.276 111.458 158.287C111.446 158.299 111.436 158.312 111.429 158.327C111.422 158.342 111.418 158.359 111.418 158.375C111.417 158.392 111.42 158.408 111.426 158.424C111.753 159.059 112.144 159.658 112.595 160.211C112.903 160.648 113.343 160.975 113.851 161.145ZM114.566 160.56C114.571 160.593 114.567 160.626 114.553 160.656C114.539 160.685 114.516 160.71 114.487 160.726C114.404 160.79 114.308 160.835 114.206 160.859C114.103 160.884 113.997 160.886 113.894 160.865C113.114 160.687 112.268 159.374 111.845 158.642C112.996 159.2 114.522 160.072 114.566 160.56Z" fill="#249748"/>
<path d="M111.465 158.507C112.285 158.921 114.517 159.379 114.997 158.816C115.106 158.707 115.176 158.502 114.966 158.175C114.094 156.867 111.548 158.175 111.478 158.258C111.456 158.267 111.436 158.283 111.422 158.303C111.408 158.323 111.401 158.347 111.4 158.372C111.411 158.4 111.431 158.424 111.457 158.441L111.465 158.507ZM114.757 158.284C114.923 158.524 114.844 158.59 114.814 158.616C114.526 158.969 112.808 158.738 111.84 158.354C112.459 158.075 114.06 157.456 114.696 158.202L114.757 158.284Z" fill="#249748"/>
<path d="M111.692 158.712C111.665 158.712 111.639 158.702 111.618 158.685C111.334 158.436 111 158.251 110.638 158.142C110.276 158.033 109.895 158.003 109.521 158.053C109.506 158.058 109.49 158.059 109.475 158.057C109.459 158.054 109.444 158.049 109.431 158.04C109.418 158.032 109.407 158.021 109.399 158.007C109.39 157.994 109.385 157.98 109.382 157.964C109.38 157.949 109.381 157.933 109.386 157.918C109.39 157.903 109.398 157.889 109.408 157.877C109.418 157.865 109.431 157.856 109.445 157.849C109.459 157.843 109.475 157.84 109.49 157.84C109.896 157.782 110.309 157.814 110.701 157.932C111.094 158.05 111.456 158.252 111.762 158.524C111.773 158.534 111.782 158.545 111.788 158.558C111.794 158.572 111.797 158.586 111.797 158.6C111.797 158.615 111.794 158.629 111.788 158.642C111.782 158.656 111.773 158.667 111.762 158.677C111.753 158.687 111.743 158.696 111.731 158.702C111.719 158.708 111.706 158.711 111.692 158.712Z" fill="#249748"/>
<path d="M111.797 160.469C111.784 160.469 111.77 160.467 111.758 160.462C111.746 160.456 111.735 160.448 111.727 160.438C111.443 160.188 111.109 160.003 110.747 159.894C110.385 159.786 110.004 159.757 109.63 159.81C109.615 159.813 109.601 159.812 109.587 159.809C109.573 159.805 109.559 159.799 109.548 159.791C109.536 159.782 109.526 159.772 109.518 159.759C109.511 159.747 109.506 159.733 109.503 159.719C109.501 159.705 109.502 159.69 109.505 159.676C109.508 159.662 109.514 159.648 109.523 159.637C109.531 159.625 109.542 159.615 109.555 159.607C109.567 159.6 109.581 159.595 109.595 159.592C110.001 159.536 110.415 159.567 110.808 159.685C111.201 159.804 111.563 160.005 111.871 160.277C111.891 160.297 111.902 160.325 111.902 160.353C111.902 160.382 111.891 160.409 111.871 160.43C111.862 160.441 111.85 160.45 111.838 160.457C111.825 160.463 111.811 160.467 111.797 160.469Z" fill="#249748"/>
<path d="M112.255 162.374C112.242 162.375 112.228 162.372 112.216 162.367C112.204 162.362 112.194 162.354 112.185 162.344C111.901 162.094 111.567 161.908 111.205 161.8C110.843 161.691 110.462 161.663 110.088 161.716C110.073 161.718 110.059 161.717 110.045 161.714C110.031 161.711 110.017 161.705 110.006 161.696C109.994 161.688 109.984 161.677 109.976 161.665C109.969 161.652 109.964 161.638 109.961 161.624C109.959 161.61 109.96 161.595 109.963 161.581C109.966 161.567 109.972 161.554 109.981 161.542C109.989 161.53 110 161.52 110.013 161.513C110.025 161.505 110.039 161.5 110.053 161.498C110.459 161.441 110.873 161.473 111.266 161.591C111.659 161.709 112.021 161.911 112.329 162.182C112.349 162.203 112.36 162.23 112.36 162.259C112.36 162.287 112.349 162.314 112.329 162.335C112.32 162.346 112.308 162.355 112.296 162.362C112.283 162.369 112.269 162.373 112.255 162.374Z" fill="#249748"/>
<path d="M138.859 148.174C138.859 148.174 100.4 130.38 87.6905 130.965C74.9811 131.549 73.1847 142.737 78.4124 149.734C83.64 156.732 93.3148 155.751 93.3148 155.751C93.3148 155.751 86.74 149.12 87.6905 146.525C88.6409 143.931 92.36 147.554 92.36 147.554C92.36 147.554 115.468 155.023 135.716 156.737L138.859 148.174Z" fill="#263238"/>
<path opacity="0.2" d="M105.832 150.48L91.1826 145.287C91.1826 145.287 94.9671 149.146 104.925 152.189C114.953 155.241 120.024 154.452 120.024 154.452C119.47 154.748 105.832 150.48 105.832 150.48Z" fill="black"/>
<path opacity="0.2" d="M121.311 140.648L135.328 146.582L136.732 146.351L123.416 140.142L121.311 140.648Z" fill="black"/>
<path d="M107.52 113.067C107.52 113.041 107.084 101.029 107.084 101.029C107.119 100.083 107.385 90.4341 102.881 87.4519C99.8812 84.7007 97.5573 87.5522 95.9484 90.5954C94.405 93.5123 96.8204 102.084 96.8204 102.084L99.5672 101.822C99.6283 106.213 99.8158 112.243 100.383 114.985C101.324 119.555 102.563 120.313 110.162 120.174C114.47 120.095 118.773 120.113 118.773 120.113L120.194 115.687C120.194 115.687 108.998 113.712 107.52 113.067Z" fill="#249748"/>
<path opacity="0.5" d="M107.52 113.067C107.52 113.041 107.084 101.029 107.084 101.029C107.119 100.083 107.385 90.4341 102.881 87.4519C99.8812 84.7007 97.5573 87.5522 95.9484 90.5954C94.405 93.5123 96.8204 102.084 96.8204 102.084L99.5672 101.822C99.6283 106.213 99.8158 112.243 100.383 114.985C101.324 119.555 102.563 120.313 110.162 120.174C114.47 120.095 118.773 120.113 118.773 120.113L120.194 115.687C120.194 115.687 108.998 113.712 107.52 113.067Z" fill="white"/>
<g opacity="0.3">
<path d="M103.116 92.8975C103.666 94.0572 104.032 94.6763 104.119 96.0149C104.764 105.829 101.769 107.499 101.76 108.702L102.196 101.29C102.528 98.3823 102.772 95.8056 103.116 92.8975Z" fill="black"/>
</g>
<path d="M73.8036 99.032L71.3184 86.4665C73.8951 83.2793 84.3373 81.2345 84.3373 81.2345C84.4245 85.9738 92.9396 86.4316 91.7711 82.5774C93.8393 83.1665 95.8765 83.8592 97.8751 84.6527C101.032 86.0043 102.715 87.0159 103.329 88.8907C103.329 88.8907 104.328 93.0109 102.776 101.181C102.34 103.427 100.761 115.338 101.032 119.289L106.085 125.432C103.587 127.512 99.1657 130.564 95.7649 129.997C82.6238 127.817 74.7497 126.313 74.7497 126.313C75.0156 123.901 76.4544 120.134 76.8904 118.342C76.8904 116.006 76.3847 114.418 75.7656 110.272C75.6827 109.47 74.0739 99.8212 73.8036 99.032Z" fill="#249748"/>
<path opacity="0.5" d="M73.8036 99.032L71.3184 86.4665C73.8951 83.2793 84.3373 81.2345 84.3373 81.2345C84.4245 85.9738 92.9396 86.4316 91.7711 82.5774C93.8393 83.1665 95.8765 83.8592 97.8751 84.6527C101.032 86.0043 102.715 87.0159 103.329 88.8907C103.329 88.8907 104.328 93.0109 102.776 101.181C102.34 103.427 100.761 115.338 101.032 119.289L106.085 125.432C103.587 127.512 99.1657 130.564 95.7649 129.997C82.6238 127.817 74.7497 126.313 74.7497 126.313C75.0156 123.901 76.4544 120.134 76.8904 118.342C76.8904 116.006 76.3847 114.418 75.7656 110.272C75.6827 109.47 74.0739 99.8212 73.8036 99.032Z" fill="white"/>
<path opacity="0.3" d="M75.4343 108.022C75.4343 108.022 78.338 100.645 78.338 94.2098L73.6685 98.1949L75.4343 108.022Z" fill="black"/>
<path d="M116.802 115.5C116.802 115.5 117.918 113.961 119.47 113.756C121.022 113.551 122.2 112.936 123.368 112.844C124.537 112.753 124.214 113.882 123.503 114.357C122.793 114.833 121.192 115.378 121.637 115.853C122.082 116.328 127.436 117.989 127.977 118.722C128.517 119.454 127.567 119.454 127.567 119.454C127.567 119.454 128.761 119.838 128.818 120.453C128.875 121.067 128.055 121.054 128.055 121.054C128.055 121.054 128.849 121.338 128.583 121.874C128.317 122.41 123.351 121.351 123.133 121.438C123.133 121.438 126.185 121.673 126.398 122.415C126.612 123.156 124.898 123.121 123.538 123.117C122.075 123.047 120.649 122.634 119.374 121.913C117.853 121.072 115.572 120.283 115.62 118.674C115.668 117.065 116.802 115.5 116.802 115.5Z" fill="#FFC3BD"/>
<path d="M133.409 128.85C136.039 130.706 138.517 132.767 140.821 135.015C143.555 137.753 143.895 149.652 144.78 154.635L141.645 156.614C141.645 156.614 137.12 144.533 135.86 140.046C135.86 140.046 126.93 133.942 127.868 134.13L133.409 128.85Z" fill="#FFC3BD"/>
<path d="M118.882 127.154C118.83 127.08 129.315 137.736 131.5 143.024C132.572 145.614 130.593 153.174 129.446 160.464L125.74 159.714C125.74 159.714 125.37 146.098 125.147 145.937C123.063 144.42 110.149 135.421 108.728 132.857L118.882 127.154Z" fill="#FFC3BD"/>
<path d="M129.821 137.151L124.118 132.111L128.997 137.884L119.514 142.867C119.514 142.867 116.096 140.278 110.864 136.157C107.515 133.541 106.713 132.325 106.002 126.474L125.378 121.198C125.378 121.198 125.814 122.72 126.141 122.942C126.141 122.942 134.425 128.61 138.746 132.316L129.821 137.151Z" fill="#249748"/>
<path d="M144.723 153.192L143.529 153.571C143.392 153.621 143.269 153.704 143.173 153.812C143.076 153.921 143.008 154.053 142.975 154.195C142.631 155.503 141.981 155.254 140.908 154.474C140.411 154.561 140.472 155.232 140.499 155.415L140.795 159.448C140.796 159.608 140.857 159.761 140.966 159.876C141.076 159.992 141.225 160.062 141.384 160.072C141.437 160.076 141.49 160.068 141.541 160.05L145.491 158.794L151.019 157.05C152.528 156.575 152.428 154.744 151.333 154.775C148.316 154.949 146.315 154.613 145.155 153.955C144.933 153.82 145.059 153.645 144.723 153.192Z" fill="#263238"/>
<path d="M147.658 153.432C147.704 153.355 147.733 153.27 147.743 153.181C147.754 153.092 147.745 153.002 147.719 152.917C147.71 152.87 147.69 152.827 147.659 152.79C147.628 152.753 147.589 152.725 147.545 152.708C147.069 152.52 145.831 153.798 145.692 153.946C145.684 153.966 145.684 153.988 145.692 154.007C145.69 154.027 145.697 154.047 145.71 154.063C145.723 154.078 145.741 154.088 145.761 154.09C146.159 154.076 146.552 154.013 146.934 153.903C147.223 153.836 147.48 153.669 147.658 153.432ZM147.492 152.865C147.511 152.872 147.528 152.885 147.54 152.901C147.553 152.917 147.56 152.936 147.562 152.956C147.597 153.082 147.581 153.217 147.518 153.331C147.27 153.733 146.411 153.868 145.94 153.916C146.463 153.401 147.231 152.765 147.488 152.865H147.492Z" fill="#249748"/>
<path d="M145.796 154.094C146.176 153.737 146.847 152.586 146.668 152.15C146.629 152.058 146.533 151.967 146.319 151.997C145.447 152.15 145.652 153.959 145.679 154.033C145.678 154.049 145.682 154.064 145.69 154.077C145.698 154.09 145.709 154.1 145.722 154.108C145.738 154.114 145.755 154.114 145.77 154.108L145.796 154.094ZM146.324 152.146C146.485 152.115 146.503 152.18 146.511 152.202C146.642 152.464 146.18 153.388 145.788 153.837C145.761 153.401 145.748 152.324 146.267 152.159L146.324 152.146Z" fill="#249748"/>
<path d="M145.116 155.176H145.094C145.066 155.169 145.042 155.153 145.026 155.129C145.01 155.106 145.003 155.077 145.007 155.049C145.05 154.806 145.147 154.575 145.292 154.375C145.437 154.175 145.626 154.01 145.844 153.894C145.87 153.882 145.899 153.88 145.926 153.889C145.953 153.898 145.975 153.917 145.988 153.942C146 153.968 146.002 153.998 145.993 154.025C145.985 154.053 145.965 154.076 145.94 154.09C145.752 154.191 145.59 154.333 145.465 154.506C145.34 154.679 145.257 154.878 145.221 155.088C145.216 155.113 145.204 155.135 145.184 155.151C145.165 155.167 145.141 155.176 145.116 155.176Z" fill="#249748"/>
<path d="M146.062 155.586C146.047 155.583 146.034 155.578 146.021 155.569C146.009 155.561 145.999 155.551 145.99 155.539C145.982 155.527 145.977 155.513 145.974 155.498C145.971 155.484 145.972 155.469 145.975 155.455C146.017 155.212 146.114 154.982 146.258 154.783C146.402 154.583 146.59 154.42 146.807 154.304C146.834 154.291 146.864 154.289 146.891 154.298C146.919 154.307 146.942 154.326 146.956 154.352C146.968 154.377 146.97 154.407 146.961 154.433C146.952 154.46 146.933 154.483 146.908 154.496C146.72 154.597 146.557 154.74 146.432 154.914C146.308 155.088 146.224 155.288 146.188 155.498C146.183 155.527 146.167 155.552 146.143 155.568C146.119 155.584 146.09 155.591 146.062 155.586Z" fill="#249748"/>
<path d="M147.161 155.834H147.139C147.111 155.827 147.087 155.81 147.071 155.785C147.054 155.761 147.048 155.732 147.052 155.703C147.095 155.46 147.192 155.23 147.338 155.031C147.483 154.832 147.671 154.668 147.889 154.552C147.915 154.54 147.944 154.538 147.971 154.547C147.998 154.556 148.02 154.575 148.033 154.6C148.04 154.613 148.044 154.627 148.045 154.642C148.046 154.656 148.045 154.671 148.04 154.684C148.036 154.698 148.029 154.711 148.019 154.722C148.01 154.733 147.998 154.742 147.985 154.748C147.797 154.849 147.635 154.991 147.511 155.164C147.387 155.337 147.304 155.537 147.27 155.747C147.264 155.771 147.25 155.793 147.23 155.809C147.211 155.825 147.186 155.834 147.161 155.834Z" fill="#249748"/>
<path opacity="0.3" d="M144.723 153.192L143.529 153.571C143.392 153.621 143.269 153.704 143.173 153.812C143.076 153.921 143.008 154.053 142.975 154.195C142.631 155.503 141.981 155.254 140.908 154.474C140.411 154.561 140.472 155.232 140.499 155.415L140.795 159.448C140.796 159.608 140.857 159.761 140.966 159.876C141.076 159.992 141.225 160.062 141.384 160.072C141.437 160.076 141.49 160.068 141.541 160.05L145.491 158.794L151.019 157.05C152.528 156.575 152.428 154.744 151.333 154.775C148.316 154.949 146.315 154.613 145.155 153.955C144.933 153.82 145.059 153.645 144.723 153.192Z" fill="black"/>
<path d="M129.904 157.33H128.653C128.506 157.336 128.364 157.38 128.239 157.456C128.114 157.532 128.011 157.639 127.938 157.766C127.214 158.908 126.669 158.476 125.88 157.404C125.378 157.338 125.247 158.001 125.204 158.175L124.266 162.099C124.223 162.25 124.236 162.411 124.305 162.552C124.373 162.693 124.492 162.804 124.637 162.862C124.686 162.88 124.738 162.889 124.79 162.889H134.735C136.317 162.889 136.775 161.11 135.724 160.809C132.795 160.063 130.99 159.139 130.083 158.158C129.917 157.988 130.087 157.862 129.904 157.33Z" fill="#263238"/>
<path d="M132.629 158.446C132.696 158.387 132.751 158.315 132.787 158.234C132.824 158.153 132.843 158.064 132.842 157.975C132.848 157.927 132.842 157.879 132.824 157.834C132.807 157.789 132.779 157.749 132.742 157.718C132.345 157.399 130.776 158.245 130.601 158.341C130.591 158.346 130.581 158.353 130.574 158.362C130.566 158.371 130.561 158.382 130.558 158.393C130.552 158.413 130.553 158.433 130.561 158.452C130.569 158.47 130.583 158.485 130.601 158.494C130.985 158.599 131.38 158.658 131.778 158.668C132.08 158.701 132.382 158.622 132.629 158.446ZM132.629 157.857C132.645 157.87 132.657 157.887 132.664 157.906C132.671 157.925 132.672 157.946 132.668 157.966C132.667 158.031 132.652 158.095 132.626 158.154C132.6 158.213 132.562 158.266 132.515 158.311C132.158 158.616 131.299 158.485 130.832 158.385C131.499 158.053 132.424 157.683 132.664 157.857H132.629Z" fill="#249748"/>
<path d="M130.654 158.511C131.124 158.284 132.114 157.395 132.058 156.92C132.058 156.824 131.992 156.706 131.778 156.671C130.906 156.558 130.549 158.337 130.549 158.415C130.542 158.428 130.539 158.442 130.539 158.457C130.539 158.471 130.542 158.485 130.549 158.498H130.601L130.654 158.511ZM131.748 156.819C131.909 156.819 131.909 156.902 131.909 156.928C131.953 157.216 131.238 157.957 130.723 158.267C130.832 157.853 131.159 156.815 131.691 156.815L131.748 156.819Z" fill="#249748"/>
<path d="M129.712 159.344H129.66C129.647 159.337 129.636 159.328 129.627 159.317C129.618 159.305 129.611 159.293 129.607 159.279C129.603 159.265 129.602 159.251 129.603 159.236C129.605 159.222 129.609 159.208 129.616 159.196C129.73 158.978 129.892 158.788 130.09 158.642C130.288 158.495 130.516 158.395 130.758 158.35C130.773 158.347 130.787 158.348 130.801 158.351C130.816 158.354 130.829 158.36 130.841 158.369C130.853 158.377 130.863 158.388 130.87 158.401C130.878 158.413 130.883 158.427 130.885 158.441C130.887 158.455 130.887 158.47 130.883 158.484C130.88 158.498 130.874 158.511 130.865 158.522C130.857 158.534 130.846 158.543 130.834 158.55C130.821 158.557 130.807 158.562 130.793 158.563C130.584 158.604 130.387 158.691 130.216 158.819C130.045 158.946 129.906 159.111 129.808 159.3C129.797 159.315 129.783 159.327 129.766 159.335C129.749 159.343 129.73 159.346 129.712 159.344Z" fill="#249748"/>
<path d="M130.484 160.02C130.467 160.026 130.448 160.026 130.431 160.02C130.418 160.013 130.407 160.004 130.397 159.993C130.388 159.982 130.381 159.969 130.377 159.955C130.373 159.941 130.372 159.927 130.373 159.912C130.375 159.898 130.38 159.884 130.388 159.871C130.502 159.653 130.664 159.464 130.862 159.317C131.06 159.171 131.288 159.071 131.53 159.026C131.559 159.021 131.588 159.028 131.612 159.045C131.636 159.062 131.652 159.088 131.656 159.117C131.661 159.146 131.654 159.176 131.637 159.199C131.62 159.223 131.594 159.239 131.565 159.244C131.355 159.282 131.158 159.368 130.987 159.495C130.816 159.622 130.677 159.786 130.58 159.976C130.569 159.991 130.554 160.003 130.537 160.011C130.521 160.018 130.502 160.022 130.484 160.02Z" fill="#249748"/>
<path d="M131.46 160.591H131.408C131.383 160.576 131.365 160.553 131.357 160.525C131.349 160.498 131.352 160.468 131.365 160.443C131.479 160.224 131.642 160.035 131.841 159.888C132.039 159.742 132.269 159.642 132.511 159.597C132.526 159.593 132.542 159.591 132.557 159.594C132.572 159.596 132.587 159.601 132.6 159.609C132.613 159.618 132.624 159.629 132.632 159.641C132.641 159.654 132.646 159.669 132.649 159.684C132.651 159.699 132.651 159.715 132.647 159.73C132.643 159.744 132.636 159.758 132.626 159.77C132.616 159.782 132.604 159.792 132.59 159.799C132.577 159.806 132.561 159.81 132.546 159.81C132.336 159.851 132.138 159.938 131.967 160.066C131.796 160.193 131.655 160.358 131.556 160.547C131.545 160.562 131.531 160.574 131.514 160.581C131.497 160.589 131.479 160.592 131.46 160.591Z" fill="#249748"/>
<path d="M122.636 99.8386L133.601 100.139L141.327 93.7477L143.507 97.1005C143.507 97.1005 136.566 105.271 133.2 105.851C129.834 106.431 122.339 105.951 122.339 105.951L122.636 99.8386Z" fill="#FFC3BD"/>
<path d="M140.769 94.9249C140.769 94.9249 140.289 93.6169 140.769 92.5574C141.248 91.4979 141.397 90.5431 141.824 89.7932C142.251 89.0432 142.809 89.7016 142.809 90.3338C142.809 90.966 142.478 92.1694 142.953 92.0778C143.428 91.9862 146.664 89.4095 147.313 89.379C147.963 89.3484 147.597 89.937 147.597 89.937C147.597 89.937 148.325 89.3572 148.726 89.5795C149.127 89.8019 148.778 90.2989 148.778 90.2989C148.778 90.2989 149.28 89.9283 149.502 90.2989C149.724 90.6695 147.012 93.2899 146.973 93.4599C146.973 93.4599 148.381 91.681 148.926 91.8642C149.471 92.0473 148.735 93.0719 148.168 93.9046C147.532 94.7756 146.702 95.4863 145.744 95.98C144.601 96.5642 143.167 97.6324 142.203 96.9392C141.56 96.4018 141.066 95.7082 140.769 94.9249Z" fill="#FFC3BD"/>
<g opacity="0.2">
<path d="M148.796 90.4733C147.967 91.136 147.161 91.8292 146.385 92.5443C146.566 92.7529 146.732 92.9744 146.882 93.207C146.951 93.3247 146.751 93.3901 146.677 93.2767C146.206 92.5534 145.584 91.9405 144.854 91.4804C144.732 91.402 144.854 91.2581 144.981 91.3366C145.166 91.4519 145.343 91.5786 145.513 91.7159C145.513 91.7058 145.516 91.696 145.52 91.687C145.525 91.678 145.531 91.67 145.539 91.6636C146.109 91.0545 146.75 90.5159 147.448 90.0591C147.557 89.9893 147.706 90.1463 147.592 90.2204C146.908 90.6668 146.28 91.1938 145.722 91.79C145.7 91.8118 145.722 92.1432 145.722 92.1388C145.94 92.3176 146.071 92.1824 146.254 92.383C147.027 91.6679 147.831 90.9776 148.665 90.312C148.735 90.2335 148.874 90.3948 148.796 90.4733Z" fill="black"/>
</g>
<g opacity="0.2">
<path d="M142.945 95.6224C143.285 95.1757 143.467 94.6281 143.46 94.0664C143.454 93.5048 143.26 92.9614 142.91 92.5225C142.827 92.4266 143.002 92.287 143.084 92.3829C143.865 93.3116 143.869 94.5935 143.115 95.7271C143.109 95.7396 143.1 95.7507 143.089 95.7597C143.079 95.7687 143.066 95.7753 143.053 95.7792C143.039 95.7831 143.025 95.7841 143.011 95.7822C142.998 95.7803 142.984 95.7756 142.972 95.7682C142.96 95.7609 142.95 95.7512 142.942 95.7397C142.934 95.7282 142.929 95.7151 142.926 95.7014C142.924 95.6877 142.924 95.6736 142.927 95.66C142.93 95.6464 142.936 95.6336 142.945 95.6224Z" fill="black"/>
</g>
<path opacity="0.2" d="M147.052 93.6473C147.031 93.6554 147.007 93.6554 146.986 93.6473C146.976 93.6376 146.967 93.6257 146.962 93.6126C146.956 93.5995 146.953 93.5854 146.953 93.5711C146.953 93.5568 146.956 93.5426 146.962 93.5295C146.967 93.5164 146.976 93.5045 146.986 93.4947C147.431 92.9484 147.921 92.4408 148.451 91.9775C148.462 91.9683 148.475 91.9614 148.489 91.9572C148.503 91.9531 148.517 91.9516 148.532 91.953C148.546 91.9545 148.56 91.9587 148.573 91.9655C148.585 91.9723 148.597 91.9816 148.606 91.9927C148.615 92.0039 148.622 92.0168 148.626 92.0306C148.63 92.0444 148.632 92.0589 148.63 92.0733C148.629 92.0876 148.625 92.1016 148.618 92.1143C148.611 92.1271 148.602 92.1383 148.591 92.1475C148.072 92.6003 147.592 93.0962 147.156 93.6299C147.142 93.6415 147.124 93.6492 147.106 93.6522C147.088 93.6553 147.069 93.6536 147.052 93.6473Z" fill="black"/>
<path d="M107.345 107.822C107.049 108.995 103.818 119.249 103.818 119.249L106.325 132.329L103.09 132.556C103.09 132.556 98.5251 121.22 98.6297 119.066C98.7343 116.912 101.176 106.793 101.176 106.793L107.345 107.822Z" fill="#FFC3BD"/>
<path d="M106.565 132.281C106.565 132.281 107.18 133.153 106.787 133.921C106.395 134.688 106.351 135.386 106.024 135.957C105.697 136.528 105.056 136.131 104.995 135.695C104.934 135.259 105.135 134.387 104.668 134.492C104.202 134.596 101.259 136.763 100.596 136.859C99.9332 136.955 100.26 136.51 100.26 136.51C100.26 136.51 99.5931 136.99 99.1746 136.885C98.756 136.781 99.0481 136.393 99.0481 136.393C99.0481 136.393 98.586 136.707 98.3287 136.467C98.0715 136.227 100.487 134.112 100.509 133.99C100.509 133.99 99.2923 135.381 98.7342 135.32C98.1761 135.259 98.7996 134.448 99.2749 133.82C99.8862 133.098 100.646 132.517 101.503 132.116C102.58 131.579 103.892 130.677 104.921 131.047C105.572 131.3 106.141 131.727 106.565 132.281Z" fill="#FFC3BD"/>
<path d="M126.669 122.463C126.669 122.463 124.053 113.939 123.338 105.611C123.172 103.619 121.528 98.8793 119.549 98.5916C117.814 98.311 116.045 98.3302 114.317 98.6483C106.582 99.59 104.585 101.892 104.585 101.892C104.585 101.892 104.402 116.036 105.946 128.989C114.43 128.558 123.198 126.461 126.669 122.463Z" fill="#263238"/>
<path opacity="0.2" d="M105.196 117.667C104.899 114.955 104.712 112.435 104.585 110.224C105.516 109.423 106.716 109.004 107.943 109.051C107.943 109.051 108.523 114.976 105.196 117.667Z" fill="black"/>
<path d="M104.572 101.892C101.368 103.44 98.6689 111.82 98.6689 111.82L106.273 113.695L108.052 107.591L104.572 101.892Z" fill="#263238"/>
<path d="M119.104 98.5393C119.104 98.5393 122.836 98.5829 124.829 99.1192C126.821 99.6555 131.604 99.8299 131.604 99.8299L131.39 107.36L122.479 107.534L119.104 98.5393Z" fill="#263238"/>
<path opacity="0.2" d="M123.538 107.534L122.531 102.856L125.143 107.482L123.538 107.534Z" fill="black"/>
<path d="M105.994 77.6679C105.803 77.2987 105.481 77.0145 105.091 76.8716C104.701 76.7286 104.272 76.7374 103.888 76.8962C104.105 76.8442 104.295 76.7131 104.421 76.5284C104.547 76.3438 104.599 76.119 104.568 75.8978C104.528 75.6769 104.436 75.4688 104.3 75.2906C104.163 75.1124 103.986 74.9693 103.783 74.8732C103.371 74.6862 102.927 74.5797 102.475 74.5593C101.034 74.4002 99.5757 74.5216 98.1807 74.9168C97.1255 75.2307 96.0704 75.7888 95.5167 76.7349C94.963 77.681 95.0807 79.0937 96.0312 79.6779C95.0851 79.5689 94.261 80.3973 93.9209 81.2867C93.4849 82.3855 93.6724 83.8112 94.6447 84.4695C95.617 85.1279 96.8857 84.8053 97.9496 84.3736C97.2433 85.2456 96.5849 86.3661 96.9817 87.4256C97.1179 87.7389 97.3213 88.0184 97.5774 88.2444C97.8336 88.4705 98.1363 88.6374 98.4641 88.7336C99.2246 88.9922 100.057 88.9405 100.779 88.5897C101.135 88.4122 101.443 88.1536 101.681 87.8348C101.918 87.5159 102.076 87.1457 102.144 86.7542L105.174 79.7782C105.368 79.6954 105.544 79.5747 105.69 79.4231C105.837 79.2715 105.952 79.0922 106.028 78.8956C106.104 78.699 106.141 78.4891 106.135 78.2783C106.129 78.0675 106.081 77.86 105.994 77.6679Z" fill="#263238"/>
<path d="M108.47 75.4356C108.24 75.3406 107.986 75.3163 107.742 75.3659C107.223 75.4618 106.727 75.6524 106.277 75.9283C105.598 76.2907 105.017 76.8111 104.581 77.4456C104.445 77.6598 104.338 77.8916 104.263 78.1345C104.246 78.0807 104.226 78.0283 104.202 77.9775C104.028 77.675 103.795 77.4104 103.517 77.1993C103.24 76.9881 102.922 76.8347 102.584 76.748C101.825 76.5117 101.017 76.4741 100.239 76.639C100.108 76.6512 99.9814 76.6928 99.8689 76.7608C99.7564 76.8287 99.6607 76.9212 99.589 77.0314C99.5486 77.1373 99.537 77.252 99.5554 77.3638C99.5737 77.4756 99.6214 77.5806 99.6936 77.6679C99.8388 77.8434 100.015 77.9911 100.212 78.1039C101.084 78.6533 101.93 79.2027 102.828 79.6648C102.215 79.8996 101.656 80.2579 101.186 80.7177C100.717 81.1774 100.347 81.7288 100.099 82.3375C99.8352 82.9864 99.7582 83.6963 99.8767 84.3867C100 85.0813 100.394 85.6988 100.971 86.1045C101.232 86.2901 101.545 86.3865 101.865 86.3792C102.085 86.3457 102.295 86.2663 102.482 86.1461C102.669 86.0259 102.829 85.8676 102.951 85.6816C103.796 84.5349 103.718 82.913 104.511 81.7358C104.812 81.2998 105.24 80.9031 105.357 80.3799L105.039 80.4365C105.357 80.3275 105.375 79.8349 105.131 79.6038L105.074 79.5602C105.51 79.3989 105.972 79.2332 106.408 79.037C107.205 78.7119 107.917 78.2077 108.488 77.5633C108.764 77.258 108.942 76.8767 108.998 76.4689C109.022 76.2638 108.985 76.056 108.891 75.8721C108.797 75.6881 108.651 75.5362 108.47 75.4356Z" fill="#249748"/>
<path d="M113.733 94.5455C113.516 94.9233 113.204 95.2375 112.827 95.4564C112.451 95.6753 112.023 95.7912 111.588 95.7924C110.714 95.7796 109.868 95.4844 109.177 94.951C108.757 95.2025 108.291 95.3675 107.807 95.4364C107.322 95.5052 106.829 95.4766 106.356 95.3521C105.884 95.2186 105.461 94.9517 105.138 94.5835C104.815 94.2153 104.605 93.7615 104.533 93.2767C104.544 93.0824 104.492 92.8898 104.385 92.7274C104.313 92.6584 104.229 92.6037 104.136 92.5661C103.509 92.3095 102.909 91.9911 102.344 91.6156C101.779 91.2317 101.371 90.6577 101.193 89.998C100.993 89.0693 101.451 88.1363 101.922 87.3122C102.012 87.1841 102.063 87.0328 102.07 86.8762C102.037 86.7134 101.96 86.5626 101.847 86.4402C101.534 85.996 101.326 85.4856 101.241 84.9484C101.156 84.4112 101.195 83.8616 101.356 83.342C101.517 82.8225 101.795 82.3469 102.169 81.9519C102.543 81.557 103.003 81.2533 103.513 81.0644C103.672 81.0269 103.82 80.9555 103.949 80.8551C104.041 80.752 104.112 80.6321 104.158 80.5019C104.596 79.538 105.238 78.6805 106.04 77.9888C106.842 77.297 107.784 76.7874 108.802 76.4951C109.403 76.325 110.11 76.2553 110.602 76.6302C111.215 75.7042 112.027 74.9267 112.979 74.3543C114.23 73.5477 115.756 72.9417 117.186 73.3384C118.117 73.639 118.928 74.2285 119.501 75.0214C120.066 75.6956 120.437 76.511 120.574 77.3802C120.639 77.8144 120.602 78.2577 120.466 78.6753C120.331 79.0929 120.101 79.4734 119.793 79.7869C120.023 79.7947 120.244 79.8766 120.423 80.0205C120.602 80.1643 120.73 80.3623 120.787 80.5848C120.89 81.0351 120.863 81.5053 120.709 81.9407C120.504 82.6732 120.129 83.4406 119.423 83.724" fill="#263238"/>
<path d="M110.014 93.8218C110.742 95.1298 110.541 95.0295 110.716 96.5337C110.903 98.1643 111.152 100.362 111.152 100.362C111.405 100.698 113.358 101.6 114.975 101.87C117.679 102.306 118.49 101.513 117.844 99.4113C117.598 98.7563 117.558 98.0419 117.729 97.3634C117.899 96.6849 118.273 96.0745 118.799 95.6137C121.245 93.2637 110.014 93.8218 110.014 93.8218Z" fill="#FFC3BD"/>
<path opacity="0.2" d="M110.014 93.8218C110.605 94.7518 111.067 95.7581 111.387 96.8128C113.066 98.8925 115.494 99.1366 117.748 99.0494C117.556 98.1513 117.565 96.4945 118.786 95.5919C121.245 93.2637 110.014 93.8218 110.014 93.8218Z" fill="black"/>
<path d="M105.17 89.7845C107.82 93.9526 109.124 96.5424 112.782 97.4188C118.289 98.753 123.246 93.5166 122.043 88.5636C121.001 84.099 116.841 78.043 111.143 78.9019C105.444 79.7608 102.532 85.6294 105.17 89.7845Z" fill="#FFC3BD"/>
<path d="M113.402 84.7312C113.417 84.6725 113.417 84.611 113.402 84.5524C113.368 84.4825 113.309 84.4281 113.237 84.4005C113.165 84.3729 113.085 84.3742 113.013 84.4042C112.584 84.5733 112.204 84.8456 111.905 85.197C111.606 85.5483 111.398 85.9678 111.3 86.4185C111.293 86.4555 111.293 86.4936 111.3 86.5306C111.308 86.5676 111.323 86.6027 111.345 86.6336C111.366 86.6646 111.394 86.6909 111.426 86.7109C111.458 86.7308 111.494 86.7441 111.531 86.7498C111.606 86.7603 111.683 86.7419 111.745 86.6982C111.808 86.6545 111.851 86.5888 111.867 86.5144C111.955 86.1576 112.128 85.8275 112.372 85.5525C112.616 85.2776 112.923 85.066 113.266 84.9361C113.301 84.9126 113.331 84.8823 113.355 84.8472C113.378 84.812 113.394 84.7726 113.402 84.7312Z" fill="#263238"/>
<path d="M118.869 82.0019C118.917 81.9665 118.953 81.918 118.974 81.8623C118.982 81.8248 118.983 81.786 118.976 81.7482C118.969 81.7104 118.955 81.6742 118.935 81.6418C118.914 81.6094 118.887 81.5814 118.856 81.5594C118.824 81.5374 118.789 81.5218 118.751 81.5135C118.305 81.4021 117.838 81.3998 117.39 81.5068C116.942 81.6138 116.527 81.827 116.179 82.1283C116.125 82.1822 116.095 82.2551 116.095 82.331C116.095 82.407 116.125 82.4799 116.179 82.5338C116.234 82.5865 116.307 82.616 116.384 82.616C116.46 82.616 116.533 82.5865 116.589 82.5338C116.872 82.3002 117.207 82.1386 117.566 82.0626C117.925 81.9867 118.297 81.9988 118.651 82.0978C118.692 82.0972 118.732 82.0884 118.77 82.072C118.807 82.0555 118.841 82.0316 118.869 82.0019Z" fill="#263238"/>
<path d="M117.6 87.308L119.366 87.744C119.366 87.744 119.266 88.4329 118.08 89.1348L117.6 87.308Z" fill="#F39389"/>
<path d="M119.148 90.4341C119.27 91.1189 119.245 91.8221 119.074 92.4964L118.712 92.5661C117.099 92.8757 116.24 92.4789 115.782 91.947C115.445 91.5256 115.268 90.9993 115.28 90.4602C116.24 90.8134 117.761 90.6434 118.594 90.5169C118.78 90.4992 118.965 90.4716 119.148 90.4341Z" fill="#263238"/>
<path d="M118.59 90.5299L118.55 91.1447C117.02 91.4281 115.904 91.4238 115.333 91.0532C115.289 90.8631 115.272 90.668 115.28 90.4733C116.235 90.8264 117.753 90.6564 118.59 90.5299Z" fill="white"/>
<path d="M118.712 92.5792C117.094 92.8844 116.24 92.492 115.777 91.9601C116.397 91.8489 117.032 91.8489 117.652 91.9601C118.061 92.0521 118.431 92.2684 118.712 92.5792Z" fill="#C15854"/>
<path d="M113.214 88.1843C113.384 88.6465 113.776 88.9299 114.086 88.8122C114.395 88.6944 114.478 88.2279 114.317 87.7658C114.156 87.3036 113.75 87.0246 113.445 87.1423C113.14 87.26 113.044 87.7222 113.214 88.1843Z" fill="#263238"/>
<path d="M117.992 85.7906C118.167 86.2484 118.559 86.5362 118.864 86.4141C119.17 86.292 119.257 85.8299 119.091 85.3677C118.925 84.9056 118.533 84.6309 118.219 84.7399C117.905 84.8489 117.84 85.3285 117.992 85.7906Z" fill="#263238"/>
<path d="M118.642 79.6213C116.975 78.8879 115.172 78.5125 113.351 78.5193C111.53 78.526 109.73 78.9148 108.069 79.6605C106.325 80.4497 104.694 81.7533 104.145 83.5845C103.709 85.0974 102.806 87.4649 103.539 88.8645C104.271 90.264 105.483 92.4048 106.552 93.5733L108.583 94.7984C108.742 94.6311 108.863 94.4317 108.939 94.2136C109.014 93.9954 109.041 93.7637 109.019 93.534C108.98 93.0724 109.023 92.6074 109.146 92.1606C109.311 91.7246 108.361 90.9965 108.788 91.1709C109.115 91.3017 109.063 91.7028 109.359 91.8903C109.769 92.1563 110.288 92.3612 110.51 91.9296C110.733 91.4979 110.946 91.4238 111.13 90.8308C111.204 90.5692 111.413 90.3294 111.278 90.0896C111.191 89.8679 111.157 89.6292 111.178 89.392C111.116 88.8239 110.835 88.3026 110.393 87.9402C109.951 87.5861 109.459 87.3009 108.932 87.0943C109.24 86.9366 109.507 86.7087 109.71 86.4292C109.914 86.1496 110.05 85.8261 110.106 85.4847C110.162 85.1432 110.137 84.7934 110.033 84.4634C109.929 84.1334 109.749 83.8324 109.508 83.5845C110.216 83.67 110.93 83.4774 111.499 83.0472C112.068 82.617 112.449 81.9829 112.56 81.2781C113.167 81.4999 113.825 81.5401 114.455 81.3937C115.084 81.2474 115.657 80.9209 116.104 80.454C116.836 80.8427 117.676 80.9805 118.494 80.8464C118.838 80.7941 119.239 80.6023 119.244 80.2578C119.248 79.9134 118.925 79.7477 118.642 79.6213Z" fill="#263238"/>
<path d="M109.455 90.8875C109.455 90.8875 107.55 89.0389 106.334 90.1638C103.992 92.3438 107.406 95.6181 109.342 94.7985C111.278 93.9788 110.907 91.8729 109.455 90.8875Z" fill="#FFC3BD"/>
<path opacity="0.2" d="M108.531 94.0179H108.505C107.576 93.8043 106.643 92.9497 106.761 91.9513C106.756 91.7251 106.837 91.5054 106.988 91.3365C107.083 91.2412 107.198 91.1673 107.324 91.1199C107.451 91.0726 107.586 91.0528 107.72 91.0618C107.75 91.0618 107.778 91.0732 107.799 91.0935C107.82 91.1138 107.832 91.1415 107.834 91.1708C107.834 91.1998 107.822 91.2275 107.802 91.2479C107.781 91.2684 107.754 91.2798 107.725 91.2798C107.621 91.2723 107.516 91.2862 107.418 91.3207C107.32 91.3552 107.23 91.4096 107.153 91.4804C107.039 91.6118 106.978 91.7815 106.983 91.9556C106.879 92.8276 107.716 93.6081 108.562 93.8086C108.587 93.8158 108.608 93.8317 108.622 93.8533C108.637 93.8749 108.643 93.9009 108.64 93.9266C108.637 93.9523 108.624 93.9761 108.605 93.9936C108.586 94.0111 108.561 94.0213 108.536 94.0223L108.531 94.0179Z" fill="black"/>
<path opacity="0.2" d="M75.8398 121.939C75.8398 121.939 87.0581 120.304 89.5826 119.323L90.9385 118.975C92.6311 119.302 94.3577 119.419 96.079 119.323C98.8694 119.058 100.875 118.321 102.575 116.995C104.08 115.814 104.934 113.943 104.838 113.969C104.742 113.996 88.7062 115.883 88.7062 115.883L76.5985 119.315L75.8398 121.939Z" fill="black"/>
<path d="M85.5586 111.82L85.8943 118.347L91.5536 116.707L91.8806 111.166L85.5586 111.82Z" fill="#FFC3BD"/>
<path d="M85.9333 111.166L74 111.92C74 111.92 74.702 108.092 75.4344 104.334C77.2264 98.9492 79.7944 90.7916 79.4108 89.4226C78.3862 86.3182 75.8486 84.0292 72.3432 85.5552C69.5833 86.7542 66.8758 101.09 66.8758 101.09C66.1956 104.207 65.2974 108.938 65.0489 111.018C64.2162 117.941 65.6986 121.551 74.1046 120.937C82.2491 120.348 86.3126 118.787 86.3126 118.787L85.9333 111.166Z" fill="#249748"/>
<path opacity="0.5" d="M85.9333 111.166L74 111.92C74 111.92 74.702 108.092 75.4344 104.334C77.2264 98.9492 79.7944 90.7916 79.4108 89.4226C78.3862 86.3182 75.8486 84.0292 72.3432 85.5552C69.5833 86.7542 66.8758 101.09 66.8758 101.09C66.1956 104.207 65.2974 108.938 65.0489 111.018C64.2162 117.941 65.6986 121.551 74.1046 120.937C82.2491 120.348 86.3126 118.787 86.3126 118.787L85.9333 111.166Z" fill="white"/>
<path d="M90.4327 112.714C90.4327 112.714 90.8687 110.669 92.3337 109.744C93.7986 108.82 94.7186 107.695 95.8565 107.085C96.9945 106.474 97.1645 107.748 96.6675 108.545C96.1705 109.343 94.797 110.603 95.4598 110.887C96.1225 111.17 102.257 110.451 103.129 110.943C104.001 111.436 103.046 111.863 103.046 111.863C103.046 111.863 104.42 111.711 104.755 112.299C105.091 112.888 104.25 113.246 104.25 113.246C104.25 113.246 105.178 113.176 105.152 113.839C105.126 114.501 99.6497 115.652 99.4623 115.831C99.4623 115.831 102.645 114.702 103.19 115.356C103.735 116.01 101.995 116.738 100.618 117.34C99.1147 117.929 97.4934 118.153 95.887 117.994C93.9817 117.828 91.3265 118.05 90.6551 116.411C89.9836 114.772 90.4327 112.714 90.4327 112.714Z" fill="#FFC3BD"/>
</g>
<defs>
<clipPath id="clip0_75_874">
<rect width="303.5" height="165" fill="white"/>
</clipPath>
</defs>
</svg>
