<svg width="304" height="165" viewBox="0 0 304 165" fill="none" xmlns="http://www.w3.org/2000/svg">
<g clip-path="url(#clip0_75_881)">
<rect width="303.5" height="165" transform="translate(0.5)" fill="white"/>
<path d="M218.895 56.95H211.341V49.9479H218.895V42.3936H225.897V49.9479H233.452V56.95H225.897V64.5044H218.895V56.95ZM224.903 55.9517H232.457V50.9427H224.903V43.3883H219.893V50.9427H212.339V55.9517H219.893V63.5061H224.903V55.9517Z" fill="#EBEBEB"/>
<path d="M78.4847 44.0503H74.9058V40.7334H78.4847V37.1544H81.8017V40.7334H85.3806V44.0503H81.8017V47.6293H78.4847V44.0503ZM81.3309 43.5795H84.9098V41.2042H81.3309V37.6252H78.9555V41.2042H75.3766V43.5795H78.9555V47.1585H81.3309V43.5795Z" fill="#EBEBEB"/>
<path d="M218.216 79.252V84.0027H213.09V89.1286H208.336V84.0027H203.21V79.252H208.336V74.1226H213.09V79.252H218.216Z" fill="#EBEBEB"/>
<path d="M83.3984 14.1974V20.6933H90.4076V27.7025H96.9V20.6933H103.909V14.1974H96.9V7.19177H90.4076V14.1974H83.3984Z" fill="#EBEBEB"/>
<path d="M77.0796 160.948C125.078 160.732 178.925 160.729 226.924 160.948C178.925 161.168 125.078 161.164 77.0796 160.948Z" fill="#263238"/>
<path d="M210.757 106.482C210.293 108.004 210.194 109.643 210.427 111.215C210.923 114.532 213.419 117.162 213.96 120.429C213.893 120.822 213.812 121.219 213.705 121.612C213.705 121.619 213.705 121.626 213.698 121.633C213.698 121.633 213.698 121.64 213.698 121.644C213.698 121.644 213.698 121.651 213.698 121.654C213.698 121.672 213.716 121.683 213.727 121.69C213.751 121.644 213.769 121.598 213.79 121.555C213.829 121.474 213.868 121.392 213.9 121.307C213.953 121.191 213.996 121.074 214.042 120.953C214.056 120.96 214.07 120.9 214.07 120.886C215.288 117.53 214.169 113.81 213.603 110.404C213.277 108.457 213.415 106.492 213.125 104.553C213.054 104.089 213.058 103.211 212.392 103.388C211.642 103.59 210.948 105.859 210.76 106.482H210.757Z" fill="#455A64"/>
<path d="M211.249 109.346C211.036 113.381 214.76 116.914 213.896 120.946C213.868 121.059 213.843 121.173 213.811 121.286C213.79 121.364 213.769 121.442 213.744 121.52C213.734 121.555 213.723 121.583 213.712 121.619C213.712 121.626 213.712 121.633 213.705 121.64C213.705 121.64 213.705 121.647 213.705 121.651C213.705 121.651 213.705 121.658 213.705 121.661C213.705 121.679 213.723 121.69 213.734 121.697C213.741 121.697 213.744 121.697 213.748 121.697C213.762 121.697 213.773 121.69 213.78 121.672C213.826 121.552 213.868 121.431 213.904 121.311C213.999 121.013 214.066 120.716 214.109 120.419C214.498 118.645 214.403 116.879 214.027 115.013C213.567 112.723 212.983 110.503 212.565 108.184C212.512 107.898 212.512 106.772 212.052 106.921C211.472 107.112 211.273 108.882 211.249 109.349V109.346ZM211.447 108.744C211.482 108.517 211.776 106.999 212.151 107.158C212.374 107.25 212.403 108.4 212.438 108.563C212.572 109.19 212.707 109.809 212.842 110.432C213.128 111.746 213.422 113.056 213.705 114.365C214.052 115.987 214.272 117.608 214.155 119.219C213.946 115.686 210.859 112.408 211.447 108.744Z" fill="white"/>
<path d="M209.791 145.238C209.791 145.291 209.837 145.365 209.907 145.319C212.966 143.351 216.778 144.954 219.947 143.195C221.218 142.487 222.319 141.496 223.345 140.48C224.103 139.729 224.864 138.933 225.416 138.016C225.49 137.892 225.88 137.393 225.816 137.145C225.331 135.258 220.432 138.448 219.614 138.901C216.41 140.65 213.479 142.243 210.676 144.484C210.382 144.714 210.091 144.954 209.801 145.202C209.791 145.209 209.791 145.223 209.794 145.241L209.791 145.238Z" fill="#455A64"/>
<path d="M209.79 145.238C209.903 145.167 210.013 145.096 210.123 145.029C212.226 144.02 214.566 143.662 216.824 143.089C219.104 142.505 221.054 141.553 222.747 139.899C223.044 139.606 224.287 138.487 223.922 137.924C223.593 137.418 222.343 138.395 222.039 138.568C219.762 139.843 217.539 141.135 215.167 142.232C213.649 142.933 212.116 143.634 210.672 144.484C210.378 144.714 210.088 144.955 209.797 145.202C209.787 145.209 209.787 145.224 209.79 145.241V145.238ZM211.217 144.385C212.888 143.45 214.647 142.668 216.389 141.843C217.585 141.276 218.753 140.664 219.9 140.002C220.527 139.637 221.15 139.266 221.78 138.905C222.099 138.724 222.414 138.547 222.732 138.377C222.892 138.289 223.416 137.988 223.55 138.229C223.911 138.883 220.4 142.218 216.042 143.078C214.406 143.4 212.753 143.765 211.217 144.381V144.385Z" fill="white"/>
<path d="M214.877 139.446C214.877 139.446 214.87 139.478 214.88 139.489C214.891 139.499 214.909 139.503 214.926 139.489C214.99 139.425 215.054 139.365 215.118 139.305C215.348 139.078 215.571 138.844 215.79 138.611C215.829 138.565 215.872 138.526 215.911 138.483C215.925 138.483 215.935 138.48 215.946 138.469C218.389 135.97 222.091 135.209 224.173 132.313C225.1 131.024 225.688 129.531 226.134 128.015C226.325 127.361 227.267 125.36 226.442 124.844C225.801 124.44 224.796 125.318 224.378 125.69C223.047 126.872 222.106 128.522 221.178 130.023C220.268 131.488 219.443 133 218.58 134.487C217.776 135.867 216.842 137.099 215.847 138.306C215.532 138.689 215.21 139.071 214.88 139.457L214.877 139.446Z" fill="#455A64"/>
<path d="M214.877 139.446C214.877 139.446 214.87 139.478 214.881 139.489C215.082 139.28 215.281 139.071 215.482 138.862C215.359 139.007 215.235 139.156 215.114 139.301C215.344 139.075 215.567 138.841 215.787 138.607C215.893 138.483 216.003 138.359 216.113 138.236C217.511 136.876 219.022 135.641 220.615 134.504C221.408 133.938 222.081 133.297 222.644 132.49C223.667 131.021 225.256 127.57 224.948 127.046C224.623 126.49 224.003 127.626 223.826 127.867C222.403 129.807 221.249 131.913 219.72 133.779C218.69 135.032 217.649 136.278 216.608 137.52C216.346 137.775 216.088 138.034 215.84 138.299C215.525 138.682 215.203 139.064 214.874 139.45L214.877 139.446ZM224.718 127.169C224.987 127.283 224.577 128.21 224.47 128.455C223.954 129.633 223.387 130.826 222.754 131.952C222.081 133.145 221.118 133.934 220.014 134.71C219.107 135.347 218.219 136.051 217.373 136.809C218.406 135.637 219.43 134.458 220.385 133.23C221.178 132.207 221.865 131.12 222.566 130.033C222.916 129.492 223.263 128.95 223.635 128.423C223.734 128.278 224.474 127.07 224.718 127.173" fill="white"/>
<path d="M196.671 154.859C196.671 154.859 196.682 154.888 196.696 154.888C196.71 154.888 196.724 154.884 196.728 154.863C196.742 154.785 196.759 154.711 196.774 154.629C196.83 154.346 196.876 154.063 196.919 153.78C196.926 153.727 196.936 153.677 196.94 153.624C196.951 153.613 196.954 153.606 196.958 153.596C197.496 150.526 199.836 148.098 199.907 144.916C199.938 143.5 199.62 142.105 199.181 140.763C198.99 140.186 198.675 138.239 197.807 138.275C197.131 138.303 196.834 139.453 196.713 139.938C196.331 141.478 196.469 143.17 196.544 144.739C196.614 146.275 196.767 147.804 196.88 149.333C196.986 150.753 196.919 152.13 196.795 153.525C196.756 153.964 196.71 154.41 196.664 154.856L196.671 154.859Z" fill="#455A64"/>
<path d="M196.671 154.859C196.671 154.859 196.682 154.888 196.696 154.888C196.738 154.633 196.781 154.378 196.823 154.123C196.805 154.293 196.788 154.463 196.774 154.629C196.83 154.346 196.876 154.063 196.919 153.78C196.936 153.635 196.951 153.489 196.968 153.341C197.315 151.634 197.804 149.964 198.398 148.325C198.696 147.507 198.869 146.696 198.876 145.818C198.89 144.222 198.317 140.88 197.828 140.65C197.308 140.402 197.425 141.553 197.418 141.818C197.351 143.963 197.563 146.094 197.379 148.24C197.255 149.68 197.113 151.121 196.975 152.565C196.912 152.884 196.851 153.206 196.802 153.525C196.763 153.964 196.717 154.41 196.671 154.856V154.859ZM197.177 151.659C197.347 150.275 197.503 148.891 197.588 147.507C197.655 146.356 197.613 145.206 197.581 144.055C197.563 143.478 197.549 142.905 197.556 142.331C197.556 142.176 197.492 140.912 197.722 140.866C197.977 140.813 198.144 141.701 198.19 141.935C198.402 143.064 198.59 144.225 198.689 145.376C198.795 146.594 198.483 147.659 198.062 148.785C197.715 149.709 197.418 150.679 197.177 151.659Z" fill="white"/>
<path d="M196.317 157.408C196.37 157.408 196.452 157.387 196.554 157.327C199.68 156.13 203.103 156.077 206.247 154.881C207.62 154.357 208.92 153.588 209.9 152.473C210.318 151.999 211.773 150.356 211.451 149.599C210.495 147.312 199.939 154.516 196.469 157.107C196.399 157.143 196.346 157.178 196.31 157.217C196.204 157.316 196.222 157.405 196.317 157.412V157.408Z" fill="#455A64"/>
<path d="M196.318 157.408C196.551 157.281 196.781 157.15 197.019 157.026C197.776 156.721 198.544 156.431 199.327 156.183C200.566 155.794 201.84 155.56 203.1 155.245C205.069 154.75 206.885 153.811 208.375 152.427C208.701 152.13 209.663 151.333 209.455 150.778C209.263 150.271 208.474 150.771 208.194 150.902C204.226 152.795 200.364 154.973 196.516 157.111C196.445 157.146 196.378 157.178 196.314 157.213C196.208 157.313 196.226 157.401 196.321 157.408H196.318ZM198.158 156.399C199.666 155.578 201.175 154.764 202.683 153.957C203.868 153.323 205.051 152.696 206.24 152.073C206.828 151.765 207.412 151.45 208.003 151.153C208.237 151.036 209.14 150.576 209.224 150.902C209.306 151.202 208.686 151.836 208.573 151.953C206.789 153.787 204.502 154.732 202.052 155.277C200.728 155.571 199.419 155.925 198.155 156.399H198.158Z" fill="white"/>
<path d="M211.302 130.979C211.277 131.021 211.274 131.063 211.288 131.099C211.306 131.152 211.362 131.191 211.423 131.194C211.451 131.202 211.483 131.194 211.515 131.187C211.532 131.187 211.55 131.187 211.568 131.17C213.044 129.725 215.299 128.38 216.818 126.996C217.982 125.93 218.942 124.66 219.749 123.3C220.641 121.799 221.409 120.171 221.908 118.493C222.145 117.693 222.836 115.803 222.184 115.013C220.85 113.392 218.149 119.286 217.763 119.944C215.593 123.615 213.43 127.286 211.299 130.979H211.302Z" fill="#455A64"/>
<path d="M211.288 131.099C211.305 131.152 211.362 131.191 211.422 131.194C211.511 131.071 211.596 130.943 211.684 130.819C212.261 130.139 212.838 129.463 213.458 128.816C214.459 127.761 215.606 126.847 216.573 125.761C218.258 123.867 221.419 117.834 220.509 117.233C220.035 116.918 219.451 118.16 219.277 118.454C218.598 119.615 218.07 120.854 217.373 122.012C216.647 123.226 215.851 124.394 215.054 125.562C213.829 127.361 212.594 129.155 211.39 130.968C211.355 131.01 211.323 131.053 211.288 131.095V131.099ZM212.498 129.637C213.589 128.047 214.665 126.447 215.744 124.851C216.488 123.746 217.224 122.631 217.89 121.477C218.258 120.829 218.591 120.164 218.923 119.495C219.086 119.173 219.249 118.843 219.433 118.528C219.592 118.259 220.184 117.13 220.449 117.544C220.704 117.941 219.915 119.725 219.727 120.139C219.419 120.812 219.104 121.477 218.761 122.132C218.088 123.421 217.313 124.667 216.336 125.753C215.359 126.833 214.219 127.746 213.231 128.819C212.983 129.088 212.735 129.361 212.495 129.64L212.498 129.637Z" fill="white"/>
<path d="M193.595 133.917C196.31 136.869 200.696 137.69 202.293 142.862C202.296 142.884 202.321 142.884 202.332 142.869C202.339 142.869 202.342 142.859 202.339 142.852C202.24 142.331 202.123 141.811 201.981 141.294C201.245 138.515 199.946 135.814 198.225 133.538C197.184 132.172 195.956 130.936 194.558 129.945C193.843 129.439 192.292 128.147 191.4 128.345C189.471 128.777 193.099 133.382 193.595 133.92V133.917Z" fill="#455A64"/>
<path d="M193.758 132.101C194.852 134.246 197.022 135.637 198.682 137.308C199.825 138.459 200.866 139.719 201.687 141.11C201.914 141.691 202.126 142.275 202.332 142.873C202.339 142.873 202.342 142.862 202.339 142.855C202.24 142.335 202.123 141.815 201.981 141.298C201.963 141.269 201.949 141.241 201.935 141.216C201.358 139.627 200.558 138.101 199.68 136.703C198.445 134.735 196.933 132.936 195.202 131.389C194.905 131.12 193.917 129.948 193.404 130.249C192.912 130.536 193.605 131.807 193.758 132.104V132.101ZM193.574 130.433C193.949 130.292 195.691 132.023 196.374 132.731C197.846 134.25 199.121 135.959 200.158 137.8C200.615 138.607 201.001 139.429 201.351 140.268C200.767 139.397 200.105 138.579 199.386 137.807C197.889 136.204 196.016 134.919 194.657 133.195C194.303 132.745 193.991 132.257 193.758 131.729C193.666 131.52 193.234 130.561 193.574 130.433Z" fill="white"/>
<path d="M196.965 117.81C196.788 119.247 196.77 120.713 196.936 122.153C197.255 124.971 198.243 127.608 199.776 129.984C199.804 130.026 199.829 130.069 199.857 130.111C199.882 130.249 199.907 130.387 199.942 130.522C199.949 130.554 199.953 130.582 199.963 130.614L199.97 130.635C199.991 130.656 200.034 130.649 200.03 130.607C200.03 130.437 200.03 130.267 200.038 130.097C200.091 126.6 200.738 123.176 200.271 119.675C200.165 118.911 199.669 113.905 197.921 114.762C197.106 115.158 197.053 117.077 196.965 117.81Z" fill="#455A64"/>
<path d="M197.662 118.511C197.542 120.667 198.108 122.978 198.551 125.077C198.894 126.709 199.262 128.377 199.776 129.98C199.815 130.111 199.861 130.246 199.903 130.373C199.914 130.419 199.928 130.469 199.942 130.518C199.949 130.557 199.956 130.593 199.97 130.632C199.992 130.653 200.034 130.646 200.031 130.603C200.031 130.433 200.031 130.263 200.038 130.094C200.002 129.966 199.967 129.839 199.932 129.708C199.677 127.807 199.701 125.895 199.716 123.966C199.723 122.925 199.709 121.888 199.616 120.851C199.528 119.852 199.482 118.78 199.17 117.82C199.036 117.403 198.753 116.574 198.165 116.882C197.669 117.141 197.684 118.051 197.655 118.507L197.662 118.511ZM198.947 117.785C199.316 118.918 199.372 120.249 199.454 121.431C199.535 122.564 199.521 123.704 199.51 124.84C199.5 126.044 199.486 127.269 199.595 128.472C199.181 126.957 198.781 125.438 198.487 123.881C198.257 122.663 198.052 121.442 197.91 120.21C197.836 119.576 197.79 118.939 197.846 118.298C197.864 118.072 197.889 117.845 197.939 117.626C198.091 116.925 198.781 117.272 198.947 117.781V117.785Z" fill="white"/>
<path d="M218.435 108.726C218.421 108.783 218.414 108.836 218.399 108.893C218.382 108.981 218.463 109.023 218.53 109.009C218.566 108.999 218.594 108.974 218.605 108.931C218.63 108.832 218.651 108.73 218.676 108.627C218.693 108.542 218.714 108.461 218.732 108.379C218.807 108.245 218.888 108.11 218.976 107.983C219.904 106.581 221.511 105.395 222.601 104.195C223.596 103.108 224.534 101.965 225.295 100.697C226.064 99.4159 226.665 98.0176 226.856 96.5237C226.906 96.1237 227.097 95.1077 226.595 94.8564C225.961 94.5378 224.994 95.752 224.651 96.0671C223.472 97.168 222.47 98.4495 221.628 99.823C219.932 102.581 219.065 105.586 218.435 108.73V108.726Z" fill="#455A64"/>
<path d="M218.718 108.029C218.612 108.255 218.513 108.489 218.435 108.726C218.421 108.783 218.414 108.836 218.399 108.892C218.382 108.981 218.463 109.023 218.53 109.009C218.541 108.97 218.555 108.928 218.569 108.889C218.605 108.8 218.64 108.712 218.676 108.623C218.768 108.404 218.87 108.192 218.976 107.979C219.352 107.232 219.805 106.531 220.336 105.816C221.224 104.627 222.159 103.473 223.005 102.251C223.43 101.639 226.687 96.9237 225.405 96.4741C225.164 96.3856 224.931 96.7113 224.803 96.8423C224.35 97.3131 223.982 97.8724 223.632 98.4211C222.814 99.6991 222.046 101.009 221.316 102.34C220.318 104.174 219.43 106.064 218.714 108.025L218.718 108.029ZM221.047 103.161C221.67 101.982 222.329 100.825 223.019 99.6849C223.355 99.1291 223.692 98.5698 224.056 98.0317C224.237 97.7662 225.154 96.5697 225.405 96.7255C225.773 96.9556 224.899 98.8176 224.633 99.3203C224.329 99.8938 224 100.45 223.653 100.995C222.955 102.096 222.187 103.151 221.394 104.184C220.697 105.101 219.861 106.075 219.21 107.13C219.748 105.774 220.368 104.453 221.044 103.158L221.047 103.161Z" fill="white"/>
<path d="M207.235 125.131C207.253 125.187 207.27 125.237 207.288 125.293C207.316 125.378 207.408 125.375 207.458 125.329C207.486 125.304 207.497 125.265 207.483 125.223C207.451 125.123 207.422 125.024 207.391 124.925C207.366 124.84 207.341 124.762 207.316 124.681C207.316 124.525 207.316 124.369 207.327 124.214C207.422 122.536 208.219 120.702 208.562 119.12C208.877 117.679 209.115 116.22 209.136 114.741C209.157 113.247 208.977 111.732 208.392 110.347C208.233 109.976 207.89 109.002 207.33 109.038C206.622 109.08 206.396 110.617 206.258 111.063C205.794 112.606 205.568 114.217 205.525 115.827C205.44 119.063 206.198 122.1 207.231 125.134L207.235 125.131Z" fill="#455A64"/>
<path d="M207.132 124.387C207.153 124.638 207.185 124.89 207.238 125.13C207.256 125.187 207.273 125.237 207.291 125.293C207.319 125.378 207.412 125.375 207.461 125.329C207.45 125.286 207.44 125.247 207.433 125.205C207.422 125.109 207.404 125.017 207.394 124.921C207.366 124.684 207.344 124.451 207.33 124.213C207.281 123.382 207.319 122.546 207.422 121.661C207.596 120.185 207.822 118.719 207.943 117.236C208.003 116.493 208.456 110.779 207.121 111.034C206.87 111.08 206.831 111.477 206.785 111.657C206.629 112.291 206.59 112.96 206.565 113.611C206.502 115.126 206.491 116.648 206.53 118.164C206.587 120.252 206.767 122.334 207.132 124.387ZM206.704 119.006C206.65 117.672 206.64 116.34 206.665 115.009C206.675 114.362 206.686 113.707 206.732 113.059C206.753 112.737 206.948 111.243 207.242 111.254C207.677 111.268 207.854 113.317 207.879 113.884C207.904 114.532 207.896 115.179 207.872 115.824C207.822 117.126 207.684 118.422 207.521 119.714C207.38 120.858 207.146 122.118 207.111 123.357C206.898 121.912 206.767 120.461 206.704 119.003V119.006Z" fill="white"/>
<path d="M199.606 127.477C200.073 130.515 200.646 133.485 201.446 136.451C202.066 138.738 202.689 141.06 202.777 143.439C202.884 146.285 202.059 149.443 200.614 152.172C201.45 151.241 202.275 150.296 203.092 149.333C204.756 147.383 206.409 145.376 207.592 143.085C207.709 142.859 207.815 142.629 207.921 142.398C207.91 142.384 207.907 142.367 207.91 142.342C208.59 139.237 208.756 136.2 208.509 133.127C207.988 131.506 207.348 130.051 206.501 128.515C205.666 126.999 204.866 125.523 204.424 123.838C204.399 123.743 204.533 123.686 204.572 123.782C205.422 126.012 207.171 128.182 208.197 130.493C208.137 130.111 208.077 129.732 208.006 129.346C207.337 125.686 206.07 122.012 207.408 118.351C207.454 118.227 207.627 118.312 207.588 118.433C206.328 122.507 208.31 126.996 208.898 131.046C209.337 134.058 209.482 137.301 208.753 140.303C209.316 138.653 209.712 136.943 210.095 135.241C212.396 124.971 215.061 114.758 220.053 105.423C220.102 105.331 220.247 105.395 220.201 105.49C215.09 115.618 213.065 126.628 210.403 137.542C210.371 137.665 210.339 137.789 210.307 137.913C211.192 136.472 212.364 135.156 213.518 134.033C213.578 133.977 213.67 134.048 213.617 134.115C212.155 135.991 211.036 138.044 209.716 140.002C209.231 141.528 208.625 143.004 207.808 144.399C206.831 146.059 205.645 147.574 204.409 149.047C206.494 147.298 208.597 145.574 210.558 143.669C213.518 140.795 216.343 137.743 218.899 134.497C218.934 134.451 219.005 134.508 218.969 134.557C216.449 138.069 213.741 141.404 210.672 144.455C208.077 147.036 205.294 149.666 202.179 151.648C199.202 155.075 196.02 158.52 192.253 161.029C192.072 161.15 191.906 160.902 192.062 160.76C192.752 160.148 193.428 159.521 194.097 158.891C194.749 157.44 195.648 156.109 196.225 154.604C196.905 152.834 197.361 151.018 197.605 149.142C197.623 149.004 197.825 149.039 197.818 149.174C197.662 151.73 197.089 154.877 195.722 157.32C196.674 156.378 197.609 155.422 198.522 154.445C200.968 150.71 202.561 146.271 202.027 141.8C201.751 139.503 201.092 137.283 200.554 135.042C199.952 132.543 199.645 130.047 199.429 127.492C199.418 127.382 199.581 127.364 199.598 127.474L199.606 127.477Z" fill="#455A64"/>
<path d="M189.839 25.2422H87.5825V161.065H189.839V25.2422Z" fill="#249748"/>
<g opacity="0.4">
<path d="M189.839 25.2422H87.5825V161.065H189.839V25.2422Z" fill="black"/>
</g>
<path d="M192.618 25.2422H90.3613V161.065H192.618V25.2422Z" fill="#249748"/>
<g opacity="0.2">
<path d="M192.618 25.2422H90.3613V161.065H192.618V25.2422Z" fill="black"/>
</g>
<path d="M185.845 30.6656L95.5825 31.8157L97.1415 154.173L187.404 153.023L185.845 30.6656Z" fill="#EBEBEB"/>
<path d="M96.3043 30.2823L93.6562 152.621L183.905 154.574L186.553 32.2358L96.3043 30.2823Z" fill="#DBDBDB"/>
<path d="M185.234 31.2355H94.9639V153.603H185.234V31.2355Z" fill="white"/>
<path d="M112.936 113.123H105.272V120.787H112.936V113.123Z" fill="#EBEBEB"/>
<path d="M141.908 113.123H117.075V114.245H141.908V113.123Z" fill="#C7C7C7"/>
<path d="M174.929 115.303H117.075V116.425H174.929V115.303Z" fill="#EBEBEB"/>
<path d="M174.929 117.484H117.075V118.606H174.929V117.484Z" fill="#EBEBEB"/>
<path d="M174.929 119.665H117.075V120.787H174.929V119.665Z" fill="#EBEBEB"/>
<path d="M105.835 116.56C106.118 116.797 106.387 117.041 106.653 117.289C106.922 117.537 107.177 117.795 107.439 118.047C107.955 118.557 108.451 119.084 108.943 119.615L108.065 119.672C108.759 118.217 109.566 116.826 110.451 115.484C110.897 114.815 111.364 114.16 111.867 113.526C112.373 112.893 112.901 112.277 113.503 111.7C113.273 112.5 112.972 113.257 112.649 113.997C112.324 114.737 111.963 115.459 111.577 116.164C110.802 117.572 109.948 118.932 108.982 120.224L108.501 120.868L108.101 120.281C107.693 119.682 107.297 119.077 106.918 118.461C106.734 118.149 106.539 117.841 106.359 117.523C106.178 117.208 105.998 116.889 105.835 116.56Z" fill="#249748"/>
<path d="M112.936 125.807H105.272V133.471H112.936V125.807Z" fill="#EBEBEB"/>
<path d="M141.908 125.807H117.075V126.929H141.908V125.807Z" fill="#C7C7C7"/>
<path d="M174.929 127.987H117.075V129.109H174.929V127.987Z" fill="#EBEBEB"/>
<path d="M174.929 130.168H117.075V131.29H174.929V130.168Z" fill="#EBEBEB"/>
<path d="M174.929 132.348H117.075V133.471H174.929V132.348Z" fill="#EBEBEB"/>
<path d="M150.308 61.9661H129.291V63.0882H150.308V61.9661Z" fill="#C7C7C7"/>
<path d="M174.929 64.1467H129.291V65.2689H174.929V64.1467Z" fill="#EBEBEB"/>
<path d="M174.929 66.3275H129.291V67.4497H174.929V66.3275Z" fill="#EBEBEB"/>
<path d="M174.929 70.6887H129.291V71.8109H174.929V70.6887Z" fill="#EBEBEB"/>
<path d="M149.136 72.8693H129.291V73.9914H149.136V72.8693Z" fill="#EBEBEB"/>
<path d="M185.234 43.5581H94.9639V54.2277H185.234V43.5581Z" fill="#249748"/>
<path d="M111.492 46.068C111.492 45.76 111.729 45.5228 112.037 45.5228C112.345 45.5228 112.593 45.76 112.593 46.068V51.9125C112.593 52.2205 112.335 52.4577 112.037 52.4577C111.74 52.4577 111.492 52.2205 111.492 51.9125V46.068Z" fill="white"/>
<path d="M115.535 51.9126C115.535 52.2099 115.287 52.4577 115 52.4577C114.692 52.4577 114.455 52.2099 114.455 51.9126V46.1459C114.444 45.976 114.526 45.799 114.675 45.6892C114.922 45.5193 115.259 45.5689 115.429 45.8096L118.629 50.2381V46.1565C118.629 45.8698 118.866 45.622 119.163 45.622C119.461 45.622 119.708 45.8698 119.708 46.1565V51.9126C119.708 52.2099 119.461 52.4577 119.163 52.4577C119.004 52.4577 118.855 52.3798 118.756 52.2595C118.735 52.2382 118.717 52.2205 118.707 52.1993L115.535 47.7991V51.9126Z" fill="white"/>
<path d="M121.865 50.7337C122.042 50.5142 122.371 50.4859 122.587 50.6629C123.022 51.0204 123.776 51.4346 124.481 51.4275C124.976 51.4275 125.422 51.2789 125.72 51.0594C126.017 50.8399 126.145 50.5921 126.145 50.3443C126.145 50.2169 126.116 50.1248 126.056 50.0257C125.996 49.9266 125.907 49.8275 125.759 49.7283C125.472 49.5407 124.987 49.3708 124.403 49.2611H124.382C123.914 49.1726 123.479 49.0522 123.104 48.8752C122.728 48.6982 122.399 48.4504 122.183 48.1035C122.035 47.8663 121.957 47.5866 121.957 47.2928C121.957 46.6981 122.293 46.1813 122.75 45.845C123.217 45.5087 123.819 45.321 124.463 45.321C125.415 45.321 126.116 45.7883 126.622 46.114C126.849 46.2733 126.92 46.5884 126.761 46.8185C126.612 47.0556 126.293 47.1264 126.056 46.9671C125.55 46.6308 125.065 46.3335 124.46 46.3335C124.013 46.3335 123.617 46.4715 123.348 46.6698C123.079 46.868 122.973 47.0875 122.973 47.2928C122.973 47.4132 122.994 47.4911 123.044 47.5689C123.093 47.6468 123.182 47.7389 123.313 47.8274C123.571 48.0044 124.017 48.1637 124.552 48.2628H124.573C125.079 48.3619 125.543 48.4893 125.939 48.6805C126.346 48.8787 126.704 49.1372 126.93 49.5018C127.079 49.739 127.168 50.0363 127.168 50.3443C127.168 50.978 126.81 51.5231 126.314 51.8807C125.829 52.2382 125.185 52.4471 124.481 52.4471C123.412 52.4364 122.509 51.9019 121.943 51.4559C121.723 51.2789 121.695 50.9496 121.865 50.7337Z" fill="white"/>
<path d="M131.564 52.4577C129.968 52.4577 128.7 51.1691 128.7 49.5938V46.068C128.7 45.76 128.937 45.5228 129.245 45.5228C129.553 45.5228 129.801 45.76 129.801 46.068V49.5938C129.801 50.5638 130.594 51.3567 131.564 51.3567C132.534 51.3567 133.327 50.5638 133.327 49.5938V46.068C133.327 45.76 133.575 45.5228 133.883 45.5228C134.191 45.5228 134.428 45.76 134.428 46.068V49.5938C134.428 51.1691 133.15 52.4577 131.564 52.4577Z" fill="white"/>
<path d="M141.094 51.6364C141.193 51.9231 141.034 52.2311 140.747 52.3302C140.708 52.3409 140.627 52.3586 140.527 52.3586H140.517C140.418 52.3586 140.269 52.3373 140.131 52.2488C140.003 52.1709 139.894 52.04 139.812 51.9019C139.674 51.6152 139.603 51.2576 139.603 50.7125C139.593 50.5248 139.554 50.3939 139.483 50.2877C139.423 50.1779 139.306 50.0788 139.186 50.0009C138.977 49.8629 138.718 49.7814 138.63 49.7637H137.462V51.9125C137.462 52.2099 137.214 52.4577 136.906 52.4577C136.598 52.4577 136.361 52.2099 136.361 51.9125V46.068C136.361 45.76 136.598 45.5228 136.906 45.5228H138.68C139.858 45.5228 140.8 46.4751 140.8 47.6539C140.8 48.3088 140.503 48.8823 140.028 49.2788C140.156 49.3779 140.276 49.4982 140.375 49.6469C140.573 49.9337 140.701 50.3018 140.701 50.716C140.69 51.0134 140.722 51.201 140.74 51.3001C140.899 51.3497 141.027 51.47 141.087 51.6364H141.094ZM139.706 47.6539C139.706 47.0804 139.249 46.6238 138.687 46.6238H137.469V48.6663H138.687C139.253 48.6663 139.706 48.2097 139.706 47.6539Z" fill="white"/>
<path d="M146.237 50.8257H143.83L143.345 52.1143C143.257 52.3337 143.048 52.4612 142.828 52.4612C142.758 52.4612 142.701 52.4506 142.641 52.4329C142.354 52.3231 142.216 52.0081 142.315 51.7178L144.503 45.8803C144.591 45.6608 144.811 45.5228 145.027 45.5334C145.253 45.5228 145.462 45.6608 145.551 45.8803L147.738 51.7178C147.838 52.0045 147.699 52.3231 147.413 52.4329C147.363 52.4541 147.292 52.4612 147.225 52.4612C147.006 52.4612 146.8 52.3337 146.719 52.1143L146.234 50.8257H146.237ZM145.83 49.7354L145.027 47.6043L144.223 49.7354H145.827H145.83Z" fill="white"/>
<path d="M150.191 51.9126C150.191 52.2099 149.944 52.4577 149.657 52.4577C149.349 52.4577 149.112 52.2099 149.112 51.9126V46.1459C149.101 45.976 149.183 45.799 149.331 45.6892C149.579 45.5193 149.915 45.5689 150.085 45.8096L153.285 50.2381V46.1565C153.285 45.8698 153.523 45.622 153.82 45.622C154.117 45.622 154.365 45.8698 154.365 46.1565V51.9126C154.365 52.2099 154.117 52.4577 153.82 52.4577C153.661 52.4577 153.512 52.3798 153.413 52.2595C153.392 52.2382 153.374 52.2205 153.363 52.1993L150.191 47.7991V51.9126Z" fill="white"/>
<path d="M156.432 48.8929C156.443 46.9317 158.085 45.3352 160.068 45.3246C160.939 45.3246 161.732 45.6113 162.358 46.0963C162.595 46.2945 162.634 46.6415 162.457 46.8893C162.259 47.1371 161.891 47.176 161.664 46.999C161.229 46.6415 160.684 46.4538 160.068 46.4538C159.384 46.4538 158.751 46.73 158.284 47.1689C157.838 47.6256 157.561 48.2203 157.561 48.8929C157.561 49.5655 157.838 50.1815 158.284 50.6169C158.751 51.0523 159.384 51.332 160.068 51.332C160.684 51.332 161.218 51.1443 161.664 50.7868C161.891 50.6169 162.259 50.6594 162.457 50.8965C162.634 51.1443 162.595 51.5019 162.358 51.6895C161.735 52.1745 160.942 52.4612 160.068 52.4612C158.085 52.4612 156.443 50.8647 156.432 48.8929Z" fill="white"/>
<path d="M164.376 51.9125V46.068C164.376 45.76 164.613 45.5228 164.921 45.5228H168.16C168.447 45.5228 168.706 45.76 168.706 46.068C168.706 46.376 168.447 46.6238 168.16 46.6238H165.473V48.4362H167.782C168.079 48.4362 168.327 48.6947 168.327 48.9814C168.327 49.2894 168.079 49.5372 167.782 49.5372H165.473V51.3603H168.16C168.447 51.3603 168.706 51.6081 168.706 51.9161C168.706 52.224 168.447 52.4612 168.16 52.4612H164.95C164.928 52.4612 164.928 52.4506 164.928 52.4506L164.918 52.4612C164.61 52.4612 164.373 52.2134 164.373 51.9161L164.376 51.9125Z" fill="white"/>
<path d="M175.12 106.131H105.081V89.2064H175.12V106.131ZM105.463 105.699H174.738V89.6383H105.463V105.699Z" fill="#EBEBEB"/>
<path d="M174.929 99.1786H105.272V99.6105H174.929V99.1786Z" fill="#EBEBEB"/>
<path d="M174.929 92.6757H105.272V93.1075H174.929V92.6757Z" fill="#EBEBEB"/>
<path d="M128.201 89.4224H127.819V105.915H128.201V89.4224Z" fill="#EBEBEB"/>
<path d="M152.383 89.4224H152V105.915H152.383V89.4224Z" fill="#EBEBEB"/>
<path d="M109.248 91.189C110.479 91.1005 111.711 91.058 112.943 91.0226C114.175 90.9836 115.407 90.9766 116.639 90.973C117.871 90.9766 119.103 90.9836 120.335 91.0226L122.183 91.0828C122.799 91.1182 123.415 91.1394 124.031 91.189C123.415 91.2385 122.799 91.2598 122.183 91.2952L120.335 91.3553C119.103 91.3943 117.871 91.4014 116.639 91.4049C115.407 91.3978 114.175 91.3943 112.943 91.3553C111.711 91.3199 110.479 91.2775 109.248 91.189Z" fill="#C7C7C7"/>
<path d="M132.707 91.189C133.939 91.1005 135.171 91.058 136.403 91.0226C137.635 90.9836 138.867 90.9766 140.099 90.973C141.33 90.9766 142.562 90.9836 143.794 91.0226L145.642 91.0828C146.258 91.1182 146.874 91.1394 147.49 91.189C146.874 91.2385 146.258 91.2598 145.642 91.2952L143.794 91.3553C142.562 91.3943 141.33 91.4014 140.099 91.4049C138.867 91.3978 137.635 91.3943 136.403 91.3553C135.171 91.3199 133.939 91.2775 132.707 91.189Z" fill="#C7C7C7"/>
<path d="M156.312 91.189C157.544 91.1005 158.776 91.058 160.008 91.0226C161.24 90.9836 162.472 90.9766 163.704 90.973C164.936 90.9766 166.168 90.9836 167.4 91.0226L169.248 91.0828C169.864 91.1182 170.48 91.1394 171.096 91.189C170.48 91.2385 169.864 91.2598 169.248 91.2952L167.4 91.3553C166.168 91.3943 164.936 91.4014 163.704 91.4049C162.472 91.3978 161.24 91.3943 160.008 91.3553C158.776 91.3199 157.544 91.2775 156.312 91.189Z" fill="#C7C7C7"/>
<path d="M109.248 95.3484C110.479 95.2599 111.711 95.2174 112.943 95.182C114.175 95.1431 115.407 95.136 116.639 95.1324C117.871 95.136 119.103 95.1431 120.335 95.182L122.183 95.2422C122.799 95.2776 123.415 95.2988 124.031 95.3484C123.415 95.398 122.799 95.4192 122.183 95.4546L120.335 95.5148C119.103 95.5537 117.871 95.5608 116.639 95.5643C115.407 95.5572 114.175 95.5537 112.943 95.5148C111.711 95.4794 110.479 95.4369 109.248 95.3484Z" fill="#EBEBEB"/>
<path d="M132.707 95.3484C133.939 95.2599 135.171 95.2174 136.403 95.182C137.635 95.1431 138.867 95.136 140.099 95.1324C141.33 95.136 142.562 95.1431 143.794 95.182L145.642 95.2422C146.258 95.2776 146.874 95.2988 147.49 95.3484C146.874 95.398 146.258 95.4192 145.642 95.4546L143.794 95.5148C142.562 95.5537 141.33 95.5608 140.099 95.5643C138.867 95.5572 137.635 95.5537 136.403 95.5148C135.171 95.4794 133.939 95.4369 132.707 95.3484Z" fill="#EBEBEB"/>
<path d="M156.312 95.3484C157.544 95.2599 158.776 95.2174 160.008 95.182C161.24 95.1431 162.472 95.136 163.704 95.1324C164.936 95.136 166.168 95.1431 167.4 95.182L169.248 95.2422C169.864 95.2776 170.48 95.2988 171.096 95.3484C170.48 95.398 169.864 95.4192 169.248 95.4546L167.4 95.5148C166.168 95.5537 164.936 95.5608 163.704 95.5643C162.472 95.5572 161.24 95.5537 160.008 95.5148C158.776 95.4794 157.544 95.4369 156.312 95.3484Z" fill="#EBEBEB"/>
<path d="M109.248 97.0228C110.479 96.9343 111.711 96.8918 112.943 96.8564C114.175 96.8175 115.407 96.8104 116.639 96.8069C117.871 96.8104 119.103 96.8175 120.335 96.8564L122.183 96.9166C122.799 96.952 123.415 96.9733 124.031 97.0228C123.415 97.0724 122.799 97.0936 122.183 97.129L120.335 97.1892C119.103 97.2282 117.871 97.2352 116.639 97.2388C115.407 97.2317 114.175 97.2282 112.943 97.1892C111.711 97.1538 110.479 97.1113 109.248 97.0228Z" fill="#EBEBEB"/>
<path d="M132.707 97.0228C133.939 96.9343 135.171 96.8918 136.403 96.8564C137.635 96.8175 138.867 96.8104 140.099 96.8069C141.33 96.8104 142.562 96.8175 143.794 96.8564L145.642 96.9166C146.258 96.952 146.874 96.9733 147.49 97.0228C146.874 97.0724 146.258 97.0936 145.642 97.129L143.794 97.1892C142.562 97.2282 141.33 97.2352 140.099 97.2388C138.867 97.2317 137.635 97.2282 136.403 97.1892C135.171 97.1538 133.939 97.1113 132.707 97.0228Z" fill="#EBEBEB"/>
<path d="M156.312 97.0228C157.544 96.9343 158.776 96.8918 160.008 96.8564C161.24 96.8175 162.472 96.8104 163.704 96.8069C164.936 96.8104 166.168 96.8175 167.4 96.8564L169.248 96.9166C169.864 96.952 170.48 96.9733 171.096 97.0228C170.48 97.0724 169.864 97.0936 169.248 97.129L167.4 97.1892C166.168 97.2282 164.936 97.2352 163.704 97.2388C162.472 97.2317 161.24 97.2282 160.008 97.1892C158.776 97.1538 157.544 97.1113 156.312 97.0228Z" fill="#EBEBEB"/>
<path d="M109.248 101.49C110.479 101.402 111.711 101.359 112.943 101.324C114.175 101.285 115.407 101.278 116.639 101.274C117.871 101.278 119.103 101.285 120.335 101.324L122.183 101.384C122.799 101.42 123.415 101.441 124.031 101.49C123.415 101.54 122.799 101.561 122.183 101.597L120.335 101.657C119.103 101.696 117.871 101.703 116.639 101.706C115.407 101.699 114.175 101.696 112.943 101.657C111.711 101.621 110.479 101.579 109.248 101.49Z" fill="#EBEBEB"/>
<path d="M132.707 101.49C133.939 101.402 135.171 101.359 136.403 101.324C137.635 101.285 138.867 101.278 140.099 101.274C141.33 101.278 142.562 101.285 143.794 101.324L145.642 101.384C146.258 101.42 146.874 101.441 147.49 101.49C146.874 101.54 146.258 101.561 145.642 101.597L143.794 101.657C142.562 101.696 141.33 101.703 140.099 101.706C138.867 101.699 137.635 101.696 136.403 101.657C135.171 101.621 133.939 101.579 132.707 101.49Z" fill="#EBEBEB"/>
<path d="M156.312 101.49C157.544 101.402 158.776 101.359 160.008 101.324C161.24 101.285 162.472 101.278 163.704 101.274C164.936 101.278 166.168 101.285 167.4 101.324L169.248 101.384C169.864 101.42 170.48 101.441 171.096 101.49C170.48 101.54 169.864 101.561 169.248 101.597L167.4 101.657C166.168 101.696 164.936 101.703 163.704 101.706C162.472 101.699 161.24 101.696 160.008 101.657C158.776 101.621 157.544 101.579 156.312 101.49Z" fill="#EBEBEB"/>
<path d="M109.248 103.161C110.479 103.073 111.711 103.03 112.943 102.995C114.175 102.956 115.407 102.949 116.639 102.945C117.871 102.949 119.103 102.956 120.335 102.995L122.183 103.055C122.799 103.09 123.415 103.112 124.031 103.161C123.415 103.211 122.799 103.232 122.183 103.267L120.335 103.328C119.103 103.366 117.871 103.374 116.639 103.377C115.407 103.37 114.175 103.366 112.943 103.328C111.711 103.292 110.479 103.25 109.248 103.161Z" fill="#EBEBEB"/>
<path d="M132.707 103.161C133.939 103.073 135.171 103.03 136.403 102.995C137.635 102.956 138.867 102.949 140.099 102.945C141.33 102.949 142.562 102.956 143.794 102.995L145.642 103.055C146.258 103.09 146.874 103.112 147.49 103.161C146.874 103.211 146.258 103.232 145.642 103.267L143.794 103.328C142.562 103.366 141.33 103.374 140.099 103.377C138.867 103.37 137.635 103.366 136.403 103.328C135.171 103.292 133.939 103.25 132.707 103.161Z" fill="#EBEBEB"/>
<path d="M156.312 103.161C157.544 103.073 158.776 103.03 160.008 102.995C161.24 102.956 162.472 102.949 163.704 102.945C164.936 102.949 166.168 102.956 167.4 102.995L169.248 103.055C169.864 103.09 170.48 103.112 171.096 103.161C170.48 103.211 169.864 103.232 169.248 103.267L167.4 103.328C166.168 103.366 164.936 103.374 163.704 103.377C162.472 103.37 161.24 103.366 160.008 103.328C158.776 103.292 157.544 103.25 156.312 103.161Z" fill="#EBEBEB"/>
<path d="M170.118 34.1736H110.08C110.08 27.8724 115.188 22.7642 121.489 22.7642H158.709C165.01 22.7642 170.118 27.8724 170.118 34.1736Z" fill="#C7C7C7"/>
<path d="M153.657 15.3728H126.141L124.919 22.7643H155.282L153.657 15.3728ZM140.099 20.6899C139.203 20.6899 138.478 19.9677 138.478 19.0686C138.478 18.1729 139.207 17.4472 140.099 17.4472C140.991 17.4472 141.72 18.1765 141.72 19.0686C141.72 19.9606 140.998 20.6899 140.099 20.6899Z" fill="#C7C7C7"/>
<path d="M155.282 22.7641H124.919L125.192 21.111H154.917L155.282 22.7641Z" fill="#A6A6A6"/>
<path d="M122.317 65.2549C122.317 65.2549 120.738 77.8927 118.143 80.7353C115.028 84.1479 112.77 83.6488 111.513 85.4046C110.256 83.6417 107.994 84.1444 104.879 80.7318C102.284 77.8892 100.709 65.2514 100.709 65.2514C107.545 61.9344 111.513 58.2139 111.513 58.2139C111.633 58.3307 115.588 61.984 122.317 65.2514V65.2549Z" fill="#249748"/>
<path opacity="0.1" d="M111.513 58.2209V85.4046C110.256 83.6417 107.994 84.1444 104.879 80.7318C102.284 77.8892 100.709 65.2514 100.709 65.2514C107.545 61.9344 111.513 58.2139 111.513 58.2139V58.2209Z" fill="black"/>
<path d="M102.384 66.2708C102.384 66.2708 103.718 76.9439 105.906 79.3476C108.54 82.2327 110.448 81.8079 111.51 83.2947C112.572 81.8079 114.484 82.2327 117.114 79.3476C119.305 76.9439 120.636 66.2708 120.636 66.2708C114.862 63.4671 111.51 60.3271 111.51 60.3271C111.51 60.3271 108.154 63.4671 102.38 66.2708H102.384Z" fill="#249748"/>
<path opacity="0.2" d="M120.639 66.2708C120.639 66.2708 119.305 76.9439 117.114 79.3476C114.483 82.2291 112.575 81.8114 111.51 83.2911V60.3271C111.612 60.4227 114.951 63.5096 120.636 66.2708H120.639Z" fill="white"/>
<path d="M110.717 76.1015L107.669 72.9296L108.798 71.8429L110.48 73.5916L114.101 68.0338L115.414 68.8905L110.717 76.1015Z" fill="white"/>
<path d="M188.466 67.531H189.974V8.60063H188.466V67.531Z" fill="#DBDBDB"/>
<path d="M188.125 5.46063H190.317L189.878 -0.412231H188.568L188.125 5.46063Z" fill="#DBDBDB"/>
<path d="M194.303 75.8749C190.253 75.8749 188.136 72.7243 188.136 69.6161V62.7804H190.338V69.6161C190.338 71.1242 191.174 73.6765 194.306 73.6765C197.078 73.6765 197.977 70.9153 197.977 69.5807V65.8106H200.179V69.5807C200.179 70.6109 199.839 72.1862 198.884 73.5208C197.783 75.0607 196.2 75.8784 194.31 75.8784L194.303 75.8749Z" fill="#263238"/>
<path d="M143.221 33.3771C143.221 33.3771 150.17 30.2407 154.478 30.354C158.779 30.4779 166.609 33.3771 166.609 33.3771C166.609 33.3771 173.725 30.5947 178.132 30.4814C182.539 30.3575 189.223 33.3771 189.223 33.3771C189.223 33.3771 195.907 30.354 200.314 30.4814C204.721 30.5947 211.826 33.3771 211.826 33.3771C211.826 33.3771 219.656 30.4814 223.968 30.354C228.276 30.2371 235.225 33.3771 235.225 33.3771C228.075 19.1145 211.146 4.74561 189.223 4.74561C167.3 4.74561 150.364 19.1145 143.221 33.3771Z" fill="#249748"/>
<path opacity="0.4" d="M143.221 33.3771C143.221 33.3771 150.17 30.2407 154.478 30.354C158.779 30.4779 166.609 33.3771 166.609 33.3771C166.609 33.3771 173.725 30.5947 178.132 30.4814C182.539 30.3575 189.223 33.3771 189.223 33.3771C189.223 33.3771 195.907 30.354 200.314 30.4814C204.721 30.5947 211.826 33.3771 211.826 33.3771C211.826 33.3771 219.656 30.4814 223.968 30.354C228.276 30.2371 235.225 33.3771 235.225 33.3771C228.075 19.1145 211.146 4.74561 189.223 4.74561C167.3 4.74561 150.364 19.1145 143.221 33.3771Z" fill="white"/>
<g opacity="0.1">
<path d="M143.221 33.3772C144.729 31.6002 146.265 29.8443 147.844 28.131C149.412 26.407 151.009 24.7113 152.655 23.0652C155.943 19.7766 159.338 16.5658 163.112 13.8718C164.988 12.516 166.96 11.2841 169.105 10.4416C171.25 9.54951 173.452 8.80257 175.665 8.07687C177.877 7.36533 180.122 6.73521 182.384 6.18651C184.642 5.62011 186.922 5.13513 189.223 4.74927C184.586 5.28027 180.008 6.30333 175.523 7.62021C173.279 8.27511 171.066 9.05037 168.896 9.91767C166.691 10.7673 164.659 12.0098 162.754 13.3692C160.853 14.7462 159.059 16.2543 157.328 17.8296C155.6 19.4049 153.919 21.0333 152.319 22.736C149.101 26.1202 146.049 29.6638 143.224 33.3772H143.221Z" fill="black"/>
<path d="M166.62 33.3771C167.034 31.8478 167.495 30.3327 168.022 28.8424C168.532 27.345 169.091 25.8688 169.714 24.4209C170.974 21.5429 172.376 18.6684 174.316 16.2329C176.277 13.7938 178.738 11.776 181.262 9.89631C182.529 8.95467 183.835 8.06613 185.166 7.21299C186.49 6.34569 187.846 5.53149 189.223 4.74561C186.352 6.09435 183.605 7.70505 180.986 9.51045C178.377 11.3265 175.895 13.369 173.835 15.8435C173.332 16.4665 172.854 17.1285 172.454 17.8188C172.026 18.495 171.64 19.1923 171.261 19.8968C170.528 21.3128 169.845 22.7536 169.272 24.2404C168.125 27.2069 167.197 30.2584 166.617 33.3771H166.62Z" fill="black"/>
<path d="M189.223 33.3771C189.35 30.9912 189.411 28.6052 189.46 26.2192C189.51 23.8333 189.506 21.4473 189.531 19.0614C189.506 16.6754 189.51 14.2894 189.46 11.9035L189.375 8.32455C189.322 7.13157 189.294 5.93859 189.223 4.74561C189.152 5.93859 189.124 7.13157 189.071 8.32455L188.986 11.9035C188.936 14.2894 188.94 16.6754 188.915 19.0614C188.94 21.4473 188.936 23.8333 188.986 26.2192C189.035 28.6052 189.096 30.9912 189.223 33.3771Z" fill="black"/>
<path d="M235.225 33.3771C232.4 29.6637 229.349 26.1201 226.131 22.7359C224.531 21.0331 222.849 19.4083 221.122 17.8294C219.391 16.2541 217.596 14.7461 215.695 13.369C213.791 12.0061 211.759 10.7636 209.553 9.91754C207.38 9.0467 205.171 8.27499 202.926 7.62009C198.441 6.30321 193.864 5.28015 189.227 4.74915C191.528 5.13501 193.807 5.61645 196.066 6.18639C198.328 6.73509 200.572 7.3652 202.785 8.07674C204.994 8.80244 207.196 9.54938 209.344 10.4415C211.493 11.284 213.461 12.5159 215.338 13.8717C219.111 16.5657 222.506 19.78 225.795 23.0651C227.441 24.7112 229.037 26.4069 230.606 28.1308C232.184 29.8442 233.721 31.6 235.229 33.3771H235.225Z" fill="black"/>
<path d="M211.826 33.3771C211.245 30.2584 210.318 27.2069 209.171 24.2404C208.597 22.7536 207.914 21.3128 207.181 19.8968C206.802 19.1959 206.417 18.495 205.988 17.8188C205.585 17.1285 205.107 16.4701 204.608 15.8435C202.551 13.369 200.066 11.3265 197.457 9.51045C194.837 7.70505 192.09 6.09435 189.219 4.74561C190.596 5.53149 191.952 6.34569 193.276 7.21299C194.607 8.06613 195.917 8.95113 197.181 9.89631C199.705 11.776 202.165 13.7938 204.126 16.2329C206.066 18.6684 207.468 21.5429 208.728 24.4209C209.351 25.8688 209.911 27.3485 210.42 28.8424C210.948 30.3327 211.408 31.8478 211.822 33.3771H211.826Z" fill="black"/>
</g>
<path opacity="0.1" d="M235.222 33.3735C235.013 33.2815 228.209 30.2441 223.968 30.3574C219.656 30.4813 211.826 33.377 211.826 33.377C211.826 33.377 204.718 30.5981 200.314 30.4813C195.907 30.3539 189.223 33.377 189.223 33.377C189.223 33.377 182.539 30.3539 178.132 30.4813C174.001 30.5875 167.487 33.0407 166.691 33.3452C167.431 32.9912 173.934 29.9432 177.92 29.5609C182.157 29.1574 189.223 31.9858 189.223 31.9858C189.223 31.9858 195.521 28.9237 200.526 28.5803C205.528 28.2334 210.92 31.1787 211.313 30.9734C211.702 30.7716 217.43 26.4705 221.172 26.2723C229.82 25.8085 217.812 12.4769 206.973 8.03772C220.166 13.0928 230.152 23.2562 235.222 33.3664V33.3735Z" fill="black"/>
<g opacity="0.2">
<path d="M165.204 14.0557C167.682 13.284 170.564 13.6061 172.773 14.9797C170.288 14.5584 167.718 14.2575 165.204 14.0557Z" fill="white"/>
<path d="M213.238 14.0557C210.722 14.261 208.155 14.5584 205.67 14.9797C207.882 13.6061 210.76 13.284 213.238 14.0557Z" fill="white"/>
<path d="M177.144 15.7303C180.468 14.3993 184.383 14.3886 187.704 15.7303C184.171 15.3621 180.677 15.3657 177.144 15.7303Z" fill="white"/>
<path d="M201.854 15.7303C198.321 15.3657 194.823 15.3621 191.294 15.7303C194.614 14.3886 198.533 14.3993 201.854 15.7303Z" fill="white"/>
</g>
<path d="M128.704 108.22L126.109 120.104C125.996 120.454 126.176 120.73 126.516 120.72L132.598 120.525C132.938 120.514 133.306 120.22 133.423 119.87L136.017 107.986C136.134 107.636 135.95 107.36 135.61 107.37L129.529 107.565C129.189 107.576 128.821 107.869 128.704 108.22Z" fill="#A6A6A6"/>
<path d="M129.423 108.188L126.828 120.072C126.714 120.422 126.895 120.698 127.235 120.688L133.317 120.493C133.656 120.482 134.025 120.189 134.141 119.838L136.736 107.954C136.853 107.604 136.669 107.328 136.329 107.338L130.247 107.533C129.908 107.544 129.539 107.837 129.423 108.188Z" fill="#C7C7C7"/>
<path d="M131.107 108.676C131.107 108.963 130.881 109.197 130.594 109.197C130.307 109.197 130.074 108.97 130.074 108.683C130.074 108.397 130.3 108.163 130.587 108.163C130.874 108.163 131.107 108.39 131.107 108.676Z" fill="#263238"/>
<path d="M109.662 126.992C113.272 134.246 121.22 143.591 124.42 143.56C125.942 143.545 128.668 143.846 130.625 142.052C134.895 138.136 138.371 130.755 139.019 126.561C139.249 125.07 131.946 122.015 130.905 123.251C128.47 126.143 125.691 131.768 125.248 131.743C123.609 131.655 117.085 126.472 112.529 122.819C106.999 118.387 108.221 124.1 109.658 126.989L109.662 126.992Z" fill="#FFC3BD"/>
<path d="M139.019 118.879C138.183 115.88 137.511 115.236 138.151 112.333C138.573 110.429 137.535 109.342 136.226 110.893C134.084 113.431 134.349 117.526 134.849 118.921L139.019 118.882V118.879Z" fill="#FFC3BD"/>
<path d="M138.693 127.863C138.693 127.863 139.942 123.629 139.372 120.344C138.976 118.072 137.563 113.229 131.124 110.801C129.598 110.224 127.014 110.489 129.167 112.333C130.696 113.643 132.062 114.015 132.813 114.939C132.813 114.939 129.567 115.664 129.05 117.215C128.82 117.909 128.232 119.817 127.988 121.367C127.988 121.367 128.31 121.513 128.749 121.636C128.749 121.636 128.402 123.134 129.531 125.176L138.696 127.86L138.693 127.863Z" fill="#FFC3BD"/>
<path d="M138.647 118.238C137.709 117.477 135.691 115.902 133.592 115.183C131.259 114.387 126.554 113.48 125.984 115.208C125.567 116.475 127.333 116.978 127.333 116.978C127.333 116.978 125.308 117.013 125.181 118.242C125.064 119.36 126.455 119.668 126.455 119.668C126.455 119.668 125.23 119.902 125.326 120.999C125.439 122.32 127.988 121.615 129.259 122.854C129.546 123.13 138.647 118.242 138.647 118.242V118.238Z" fill="#FFC3BD"/>
<path d="M133.16 117.788C132.158 117.218 129.556 116.507 127.368 116.946C127.319 116.957 127.301 116.999 127.347 116.999C129.857 117.027 132.179 117.534 133.153 117.81C133.167 117.813 133.17 117.795 133.16 117.788Z" fill="#263238"/>
<path d="M132.289 120.118C131.376 119.714 128.657 119.102 126.459 119.622C126.409 119.633 126.395 119.679 126.441 119.675C129.064 119.597 131.298 119.923 132.286 120.139C132.3 120.139 132.303 120.121 132.293 120.118H132.289Z" fill="#263238"/>
<path d="M112.982 133.573L118.986 127.272C118.986 127.272 114.497 123.173 111.198 121.573C107.902 119.973 107.364 122.114 108.731 125.414C110.097 128.713 112.979 133.573 112.979 133.573H112.982Z" fill="#EBEBEB"/>
<path d="M111.648 121.803H108.154C108.2 121.672 108.267 121.552 108.345 121.452H110.94C111.022 121.491 111.11 121.53 111.199 121.573C111.347 121.644 111.496 121.721 111.648 121.803ZM112.848 122.507H108.03C108.03 122.617 108.03 122.734 108.041 122.858H113.39C113.209 122.737 113.029 122.621 112.848 122.507ZM114.402 123.559H108.14C108.161 123.672 108.19 123.789 108.221 123.909H114.884C114.724 123.792 114.565 123.676 114.402 123.559ZM115.804 124.61H108.43C108.469 124.727 108.508 124.84 108.554 124.961H116.247C116.105 124.844 115.956 124.727 115.804 124.61ZM117.11 125.661H108.837C108.887 125.775 108.937 125.892 108.99 126.012H117.532C117.397 125.899 117.259 125.782 117.11 125.661ZM118.356 126.713H109.305L109.475 127.063H118.756C118.654 126.975 118.519 126.858 118.356 126.713ZM109.814 127.764C109.875 127.881 109.931 128.001 109.991 128.118H118.179L118.516 127.764H109.814ZM110.349 128.819C110.409 128.936 110.473 129.056 110.53 129.17H117.178L117.51 128.819H110.349ZM110.905 129.871C110.965 129.987 111.029 130.104 111.092 130.221H116.176L116.509 129.871H110.905ZM111.471 130.922C111.538 131.042 111.602 131.159 111.666 131.272H115.174L115.507 130.922H111.471ZM112.062 131.973C112.13 132.097 112.193 132.214 112.257 132.324H114.172L114.505 131.973H112.062ZM112.661 133.025C112.742 133.17 112.813 133.29 112.862 133.379H113.163L113.503 133.025H112.661Z" fill="#DBDBDB"/>
<path d="M117.188 126.306C116.176 127.198 113.506 129.704 111.995 131.57C111.984 131.58 112.027 131.623 112.037 131.612C113.538 130.26 116.321 127.346 117.248 126.366C117.266 126.348 117.206 126.288 117.188 126.306Z" fill="#263238"/>
<path d="M201.373 163.734C200.449 164.088 173.644 164.577 172.596 163.975C172.483 163.908 172.514 162.725 172.118 159.663C172.097 159.518 171.488 158.948 170.532 158.148C166.946 155.142 158.524 148.809 158.524 148.809L171.902 137.188L184.866 149.928L188.236 153.242C188.236 153.242 199.188 159.157 200.272 159.936C201.348 160.722 202.297 163.373 201.373 163.731V163.734Z" fill="#FFC3BD"/>
<path d="M201.369 163.731C200.448 164.088 173.643 164.573 172.592 163.975C172.479 163.908 172.511 162.725 172.118 159.663C176.327 160.332 195.121 160.686 197.046 159.921C198.774 159.231 195.475 157.217 194.781 156.813C197.344 158.222 199.79 159.589 200.271 159.939C201.347 160.722 202.293 163.377 201.369 163.731Z" fill="#263238"/>
<path d="M182.005 145.471L167.778 158.091C167.778 158.091 152.949 143.014 149.894 142.898C148.358 142.837 123.815 156.544 112.211 157.741C103.98 158.59 98.9463 148.123 98.9463 148.123L117.145 141.085C129.85 134.823 144.166 123.576 152.825 124.624C162.227 125.764 182.009 145.475 182.009 145.475L182.005 145.471Z" fill="#37474F"/>
<path d="M177.46 143.669C175.134 145.737 175.771 145.114 173.467 147.206C172.338 148.229 166.656 153.365 165.764 154.495C165.743 154.519 165.778 154.555 165.806 154.537C167.003 153.734 172.575 148.48 173.683 147.436C175.948 145.301 175.276 145.892 177.52 143.733C177.563 143.694 177.506 143.63 177.46 143.669Z" fill="#263238"/>
<path d="M165.583 153.84C162.351 150.99 151.759 141.708 151.328 141.365C150.981 141.089 150.63 140.724 150.227 140.537C149.88 140.377 149.54 140.466 149.207 140.618C148.719 140.845 148.237 141.096 147.752 141.333C146.796 141.8 145.841 142.264 144.885 142.731C141.182 144.54 137.497 146.395 133.766 148.144C130.176 149.825 126.533 151.408 122.785 152.7C119.057 153.985 115.202 154.966 111.283 155.443C110.802 155.504 110.317 155.553 109.832 155.599C109.796 155.599 109.796 155.656 109.832 155.656C113.683 155.468 117.471 154.682 121.153 153.55C124.866 152.406 128.466 150.926 131.996 149.302C135.652 147.62 139.256 145.818 142.86 144.027C144.761 143.082 146.662 142.126 148.57 141.191C149.002 140.979 149.618 140.519 150.113 140.749C150.326 140.848 150.506 141.022 150.683 141.17C150.896 141.347 151.105 141.521 151.317 141.698C152.135 142.377 165.116 153.56 165.544 153.882C165.576 153.907 165.619 153.865 165.587 153.836L165.583 153.84Z" fill="#263238"/>
<path opacity="0.1" d="M149.837 142.898C147.869 143.107 123.698 156.548 112.207 157.737C103.98 158.587 98.9424 148.116 98.9424 148.116L105.166 145.708L149.837 142.898Z" fill="black"/>
<path d="M99.5161 145.128C99.5161 145.128 97.5408 156.559 103.254 161.051C108.971 165.543 147.31 165.001 153.664 162.948C160.018 160.895 160.217 150.64 153.271 148.264C146.665 146.006 122.098 144.905 121.404 144.629C121.23 144.558 123.896 142.961 123.885 142.862L117.489 140.908L99.5161 145.128Z" fill="#37474F"/>
<path d="M108.193 144.841C108.186 144.792 108.108 144.809 108.108 144.855C108.115 146.147 107.633 147.507 106.787 148.487C105.814 149.61 104.38 150.24 103.081 150.898C102.957 150.962 103.049 151.157 103.18 151.118C103.973 150.88 104.752 150.533 105.478 150.13C106.136 149.762 106.745 149.298 107.205 148.693C108.055 147.581 108.426 146.229 108.196 144.841H108.193Z" fill="#263238"/>
<path d="M120.941 143.425C120.65 143.053 120.335 142.703 120.031 142.342C119.316 141.489 118.597 140.636 117.847 139.814C117.776 139.736 117.638 139.846 117.701 139.931C118.208 140.593 118.742 141.23 119.266 141.875C119.535 142.204 119.808 142.533 120.08 142.862C120.335 143.167 120.65 143.471 120.838 143.825C121.033 144.19 120.778 144.505 120.395 144.544C120.056 144.579 119.741 144.406 119.482 144.207C118.891 143.754 118.424 143.103 117.932 142.551C117.631 142.211 117.33 141.871 117.022 141.538C116.696 141.181 116.349 140.844 116.024 140.49C116.002 140.469 115.963 140.501 115.981 140.526C116.264 140.915 116.526 141.322 116.809 141.712C117.093 142.101 117.383 142.487 117.673 142.869C117.949 143.23 118.24 143.584 118.533 143.935C118.785 144.229 119.071 144.519 119.408 144.717C119.953 145.036 120.895 145.107 121.185 144.402C121.326 144.055 121.149 143.705 120.937 143.432L120.941 143.425Z" fill="#263238"/>
<path d="M152.793 162.987C150.605 163.026 148.417 163.154 146.23 163.203C144.06 163.249 141.89 163.263 139.72 163.242C135.362 163.2 134.541 163.033 130.193 162.732C125.797 162.428 121.057 161.992 116.692 161.387C114.603 161.097 112.486 160.856 110.419 160.414C108.557 160.014 106.868 159.238 105.474 157.886C102.645 155.143 101.548 151.11 101.095 147.259C101.034 146.742 100.985 146.225 100.942 145.705C100.942 145.669 100.886 145.669 100.889 145.705C101.144 149.656 101.76 153.773 104.242 156.948C105.318 158.321 106.684 159.447 108.288 160.091C110.242 160.874 112.412 161.058 114.479 161.338C118.862 161.932 123.623 162.392 128.03 162.732C132.466 163.076 133.376 163.292 137.822 163.355C142.272 163.423 146.725 163.355 151.168 163.139C151.71 163.111 152.251 163.079 152.793 163.033C152.825 163.033 152.825 162.984 152.793 162.984V162.987Z" fill="#263238"/>
<path d="M142.205 146.282C140.828 146.08 134.895 145.365 133.496 145.245C130.725 145.011 128.657 144.799 125.878 144.668C124.299 144.593 122.724 144.586 121.142 144.608C121.092 144.608 121.096 144.682 121.142 144.685C123.921 144.937 126.7 145.114 129.482 145.298C132.257 145.482 140.608 146.356 142.184 146.487C142.3 146.498 142.322 146.3 142.205 146.282Z" fill="#263238"/>
<path d="M124.207 142.724C123.089 143.184 122.041 143.79 121.018 144.431C120.009 145.064 118.979 145.726 118.066 146.494C118.041 146.516 118.073 146.547 118.101 146.537C119.184 146.038 120.221 145.411 121.252 144.809C122.285 144.208 123.315 143.592 124.271 142.869C124.338 142.82 124.296 142.685 124.204 142.721L124.207 142.724Z" fill="#263238"/>
<path d="M121.053 143.57C120.77 144.569 98.6488 148.792 97.8311 148.579C97.8311 148.579 98.6453 137.375 100.794 128.313C103.091 118.606 108.352 120.344 110.302 121.552C112.614 122.985 117.641 128.915 118.126 130.136C118.929 132.157 117.528 134.795 117.528 134.795L121.053 143.567V143.57Z" fill="#EBEBEB"/>
<path d="M108.376 120.751H105.98C106.822 120.528 107.647 120.578 108.376 120.751ZM110.298 121.555C110.245 121.523 110.189 121.488 110.128 121.452H104.486C104.333 121.559 104.185 121.672 104.04 121.803H110.663C110.536 121.707 110.412 121.626 110.298 121.555ZM111.534 122.507H103.353C103.257 122.617 103.162 122.734 103.07 122.858H111.927C111.792 122.734 111.661 122.617 111.534 122.507ZM112.663 123.559H102.599C102.532 123.672 102.461 123.789 102.397 123.909H113.014C112.897 123.789 112.78 123.672 112.663 123.559ZM113.69 124.61H102.036C101.983 124.723 101.93 124.84 101.877 124.96H114.019L113.69 124.61ZM114.656 125.661H101.59C101.547 125.775 101.505 125.892 101.462 126.012H114.968C114.865 125.895 114.762 125.778 114.656 125.661ZM115.576 126.713H101.225C101.19 126.826 101.155 126.943 101.123 127.063H115.874L115.576 126.713ZM116.451 127.764H100.928C100.896 127.881 100.868 127.998 100.839 128.118H116.734C116.642 128.001 116.546 127.885 116.451 127.764ZM117.272 128.819H100.673C100.645 128.936 100.62 129.053 100.592 129.17H117.523C117.449 129.06 117.364 128.943 117.272 128.819ZM118.122 130.14C118.093 130.065 118.047 129.977 117.987 129.87H100.436L100.362 130.221H118.154C118.143 130.193 118.132 130.168 118.122 130.14ZM118.327 130.922H100.216C100.195 131.039 100.17 131.155 100.149 131.272H118.359C118.359 131.155 118.345 131.039 118.327 130.922ZM100.011 131.973C99.9863 132.09 99.9651 132.207 99.9438 132.324H118.313C118.327 132.207 118.341 132.09 118.352 131.973H100.011ZM99.8128 133.025C99.7916 133.141 99.7704 133.258 99.7491 133.379H118.079C118.115 133.265 118.147 133.149 118.178 133.025H99.8128ZM99.6252 134.08C99.604 134.196 99.5863 134.313 99.565 134.43H117.697C117.739 134.331 117.789 134.214 117.842 134.08H99.6252ZM117.658 135.131H99.4482C99.427 135.248 99.4093 135.365 99.3916 135.481H117.8L117.658 135.131ZM118.079 136.182H99.2818C99.2606 136.299 99.2429 136.416 99.2252 136.533H118.221L118.079 136.182ZM118.504 137.234H99.1225C99.1013 137.35 99.0836 137.467 99.0694 137.584H118.642L118.504 137.234ZM118.925 138.285H98.9668C98.9491 138.402 98.9349 138.519 98.9172 138.636H119.067L118.925 138.285ZM119.35 139.34H98.8216C98.8039 139.457 98.7898 139.574 98.7756 139.69H119.488L119.35 139.34ZM119.771 140.391H98.6836C98.6694 140.508 98.6517 140.625 98.6376 140.742H119.913L119.771 140.391ZM120.193 141.443H98.5526L98.5101 141.793H120.334L120.193 141.443ZM120.617 142.494H98.4252C98.411 142.611 98.4004 142.728 98.3862 142.845H120.759L120.617 142.494ZM121.039 143.545H98.3083C98.2942 143.662 98.28 143.779 98.2694 143.896H120.515C120.837 143.765 121.025 143.655 121.049 143.57L121.039 143.545ZM98.1951 144.6C98.1809 144.721 98.1667 144.838 98.1561 144.951H116.819C117.315 144.831 117.778 144.714 118.207 144.6H98.1951ZM98.0853 145.652C98.0747 145.772 98.0641 145.889 98.0499 146.002H112.175C112.72 145.885 113.258 145.769 113.782 145.652H98.0853ZM97.9862 146.703C97.9756 146.824 97.965 146.94 97.9543 147.054H106.996C107.583 146.94 108.178 146.824 108.776 146.703H97.9862ZM97.8906 147.755C97.88 147.886 97.8729 148.006 97.8623 148.105H101.3C101.909 148.002 102.574 147.882 103.286 147.755H97.8906Z" fill="#DBDBDB"/>
<path d="M118.363 130.618C118.165 129.959 117.793 129.361 117.389 128.809C116.943 128.203 116.465 127.619 115.977 127.046C115.959 127.028 115.945 127.007 115.927 126.989C115.892 126.915 115.857 126.84 115.818 126.77C115.747 126.635 115.669 126.504 115.588 126.377C115.421 126.111 115.226 125.856 115.032 125.608C115.018 125.591 114.993 125.608 115.003 125.626C115.166 125.906 115.336 126.185 115.513 126.458C115.549 126.511 115.58 126.568 115.616 126.621C115.156 126.09 114.681 125.569 114.172 125.088C114.157 125.074 114.133 125.095 114.143 125.109C115.06 126.27 116.03 127.385 116.904 128.578C117.304 129.12 117.694 129.69 117.945 130.317C118.218 130.996 118.289 131.697 118.182 132.423C118.122 132.826 118.02 133.227 117.896 133.616C117.765 134.019 117.651 134.43 117.513 134.827C117.503 134.855 117.552 134.876 117.563 134.848C117.899 134.168 118.218 133.513 118.391 132.77C118.558 132.062 118.572 131.318 118.363 130.618Z" fill="#263238"/>
<path d="M102.546 124.334C98.3299 130.989 94.6129 143.046 97.7953 144.979C102.082 147.581 110.398 148.558 120.324 147.652C121.697 147.524 122.703 136.752 121.23 136.809C119.375 136.883 106.401 137.697 106.008 137.34C105.675 137.035 106.274 131.701 106.359 126.164C106.461 119.689 103.753 122.433 102.546 124.334Z" fill="#FFC3BD"/>
<path d="M120.179 136.89C120.179 136.89 124.335 136.288 127.068 136.023C128.594 135.874 131.234 135.853 132.403 136.257C134.155 136.862 141.093 140.505 140.247 142.207C139.479 143.747 133.914 139.86 133.914 139.86C133.914 139.86 139.876 143.287 138.612 144.972C137.348 146.657 131.645 141.428 131.645 141.428C131.645 141.428 137.691 145.089 136.113 146.618C134.92 147.776 129.486 143.329 129.486 143.329C129.486 143.329 134.661 146.512 133.486 147.754C132.187 149.128 126.916 145.34 126.916 145.34C123.393 147.995 120.632 147.822 118.682 147.461C118.211 147.372 120.179 136.894 120.179 136.894V136.89Z" fill="#FFC3BD"/>
<path d="M131.932 138.543C132.647 138.922 133.373 139.297 134.053 139.736C134.732 140.175 135.394 140.639 136.031 141.142C137.589 142.37 138.371 143.382 138.318 143.326C137.012 141.97 134.608 140.359 133.929 139.92C133.253 139.481 132.594 139.011 131.918 138.568C131.9 138.557 131.918 138.533 131.936 138.543H131.932Z" fill="#263238"/>
<path d="M130.3 140.965C131.192 141.485 132.098 141.97 132.965 142.533C133.829 143.092 134.601 143.698 135.426 144.314C135.489 144.36 135.443 144.381 135.376 144.335C134.527 143.751 133.698 143.28 132.845 142.706C131.992 142.136 131.156 141.528 130.286 140.99C130.271 140.982 130.286 140.961 130.3 140.968V140.965Z" fill="#263238"/>
<path d="M128.526 142.791C129.932 143.517 131.199 144.505 132.42 145.499C132.481 145.549 132.42 145.567 132.353 145.521C131.075 144.597 130.081 143.86 128.502 142.841C128.477 142.827 128.498 142.777 128.526 142.791Z" fill="#263238"/>
<path d="M118.395 136.961C119.039 136.855 119.684 136.773 120.328 136.692C120.972 136.607 121.616 136.54 122.261 136.469C122.905 136.405 123.549 136.334 124.197 136.281C124.845 136.221 125.489 136.161 126.141 136.119C125.507 136.271 124.866 136.38 124.222 136.483C123.581 136.586 122.933 136.66 122.289 136.734C121.641 136.798 120.997 136.858 120.346 136.894C119.698 136.933 119.046 136.965 118.395 136.961Z" fill="#263238"/>
<path d="M98.0753 132.32L106.709 133.407C106.709 133.407 107.339 127.361 106.667 123.757C105.994 120.153 103.952 120.996 102.111 124.054C100.27 127.113 98.0718 132.32 98.0718 132.32H98.0753Z" fill="#EBEBEB"/>
<path d="M105.885 121.803H103.98C104.211 121.636 104.434 121.516 104.646 121.452H105.386C105.566 121.513 105.733 121.629 105.885 121.803ZM106.313 122.507H103.226C103.127 122.617 103.032 122.734 102.933 122.858H106.441C106.402 122.73 106.359 122.614 106.313 122.507ZM106.667 123.757C106.653 123.69 106.642 123.622 106.628 123.559H102.426C102.352 123.672 102.278 123.789 102.203 123.909H106.692C106.685 123.86 106.678 123.806 106.667 123.757ZM106.798 124.61H101.793C101.725 124.727 101.658 124.844 101.594 124.961H106.837C106.827 124.844 106.812 124.727 106.798 124.61ZM106.901 125.661H101.216C101.152 125.778 101.088 125.895 101.028 126.012H106.922L106.901 125.661ZM106.958 126.713H100.667C100.61 126.83 100.55 126.946 100.494 127.063H106.968L106.958 126.713ZM106.975 127.764H100.147C100.09 127.881 100.033 128.001 99.9767 128.118H106.979C106.979 128.001 106.979 127.885 106.979 127.764H106.975ZM99.6439 128.819C99.5908 128.936 99.5342 129.053 99.4811 129.17H106.965C106.965 129.056 106.972 128.939 106.972 128.819H99.6439ZM99.1589 129.871C99.1023 129.991 99.0492 130.108 98.9996 130.221H106.929C106.936 130.108 106.94 129.991 106.943 129.871H99.1589ZM98.6846 130.922C98.6279 131.046 98.5784 131.163 98.5288 131.272H106.876C106.883 131.159 106.89 131.042 106.897 130.922H98.6846ZM98.2244 131.973L98.0757 132.32H106.802C106.812 132.214 106.823 132.097 106.83 131.973H98.2244ZM103.672 133.025L106.483 133.379H106.713C106.713 133.326 106.731 133.205 106.745 133.025H103.672Z" fill="#DBDBDB"/>
<path d="M106.465 131.796C105.138 131.548 101.523 130.982 99.1198 130.936C99.1056 130.936 99.0985 130.993 99.1127 130.996C101.099 131.35 105.109 131.754 106.455 131.881C106.479 131.881 106.49 131.8 106.465 131.796Z" fill="#263238"/>
<path d="M107.33 128.423C107.33 128.423 107.312 128.409 107.308 128.423C107.227 128.731 107.16 129.039 107.103 129.35C107.103 128.695 107.085 128.04 107.053 127.385C107.053 127.361 107.018 127.364 107.018 127.385C106.894 129.347 106.724 131.311 106.643 133.276C106.437 133.311 106.229 133.343 106.02 133.361C105.984 133.361 105.984 133.414 106.02 133.418C106.253 133.421 106.487 133.442 106.717 133.467C106.77 133.474 106.837 133.453 106.845 133.389C107.004 132.253 107.078 131.102 107.096 129.948C107.142 129.764 107.188 129.577 107.22 129.389C107.276 129.063 107.315 128.748 107.326 128.419L107.33 128.423Z" fill="#263238"/>
<path d="M102.359 104.39C102.359 104.39 99.5265 104.91 98.6061 107.183C97.6857 109.452 98.992 110.974 101.088 111.958C103.183 112.946 106.21 113.19 107.527 111.413C109.63 108.574 106.932 104.775 105.166 104.358C103.399 103.94 102.359 104.39 102.359 104.39Z" fill="#263238"/>
<path d="M102.359 104.39C100.373 105.108 97.5796 106.602 98.192 109.115C98.7195 110.811 100.762 111.788 102.305 112.415C100.578 112.018 98.3973 111.052 97.8168 109.222C97.0804 106.503 100.093 104.797 102.359 104.39Z" fill="#263238"/>
<path d="M101.014 117.364C101.014 117.364 102.685 117.332 103.641 115.654C104.596 113.976 103.729 112.652 102.189 111.668C100.653 110.684 97.874 110.025 96.7978 112.199C95.5624 114.694 97.4775 116.988 98.8156 117.498C100.15 118.004 101.014 117.367 101.014 117.367V117.364Z" fill="#263238"/>
<path d="M100.422 117.452C102.037 117.077 104.363 116.206 104.143 114.188C103.899 112.808 102.423 111.848 101.283 111.186C102.607 111.668 104.207 112.634 104.479 114.135C104.78 116.344 102.242 117.378 100.419 117.449L100.422 117.452Z" fill="#263238"/>
<path d="M99.1589 122.89C99.1589 122.89 98.95 122.907 98.6208 122.89C99.2757 121.544 99.1129 120.62 99.1129 120.62C98.812 121.594 98.2208 122.341 97.7818 122.794C97.2614 122.695 96.6667 122.507 96.1286 122.15C94.7941 121.261 94.0259 119.884 94.0259 119.884C95.3569 117.445 96.9287 116.741 97.6792 116.539C97.9553 116.464 98.1217 116.457 98.1217 116.457L100.224 117.172C101.29 119.842 99.1589 122.89 99.1589 122.89Z" fill="#263238"/>
<path d="M98.2312 116.543C96.5709 116.585 95.1655 117.573 94.2133 118.872C94.0752 119.06 93.9513 119.254 93.8062 119.442C93.8982 119.226 93.9973 119.01 94.1035 118.801C94.8859 117.353 96.5461 116.221 98.2312 116.543Z" fill="#263238"/>
<path d="M106.062 105.572C104.869 105.027 103.591 105.65 102.798 107.384C101.863 109.427 102.932 110.903 104.122 111.448C105.315 111.993 106.564 110.896 107.166 108.871C107.665 107.204 107.428 106.198 106.058 105.572H106.062Z" fill="#249748"/>
<path d="M105.294 121.813C105.428 122.217 107.637 124.702 109.51 124.437C110.119 124.348 109.793 121.003 109.793 121.003L109.825 120.751L110.278 117.218L105.966 114.988L105.347 114.698C105.347 114.698 105.286 115.671 105.223 116.889C105.223 116.946 105.216 117.003 105.212 117.063C105.209 117.13 105.201 117.197 105.198 117.261C105.187 117.441 105.177 117.629 105.17 117.813C105.163 117.955 105.155 118.089 105.155 118.238C105.152 118.387 105.148 118.532 105.145 118.68C105.131 120.143 105.237 121.647 105.29 121.82L105.294 121.813Z" fill="#FFC3BD"/>
<path d="M105.227 116.886C106.476 119.548 108.781 120.468 109.829 120.751L110.282 117.218L105.97 114.988L105.35 114.698C105.35 114.698 105.29 115.671 105.227 116.889V116.886Z" fill="#263238"/>
<path d="M115.074 111.363C116.058 117.541 112.472 118.826 111.141 119.038C109.93 119.229 105.792 119.728 104.171 113.689C102.553 107.65 105.113 105.239 107.856 104.655C110.6 104.071 114.09 105.19 115.074 111.367V111.363Z" fill="#FFC3BD"/>
<path d="M113.786 110.602C113.638 110.599 113.503 110.57 113.358 110.549C113.195 110.528 113.061 110.528 112.93 110.415C112.859 110.354 112.852 110.216 112.905 110.146C113.029 109.976 113.238 109.951 113.436 109.969C113.652 109.99 113.815 110.057 113.967 110.209C114.116 110.354 113.978 110.609 113.783 110.602H113.786Z" fill="#263238"/>
<path d="M109.698 111.091C109.843 111.062 109.97 111.009 110.112 110.963C110.271 110.914 110.402 110.889 110.508 110.754C110.565 110.684 110.551 110.546 110.484 110.485C110.331 110.34 110.123 110.351 109.931 110.404C109.723 110.461 109.577 110.56 109.45 110.733C109.33 110.903 109.507 111.13 109.698 111.087V111.091Z" fill="#263238"/>
<path d="M110.664 112.588C110.664 112.588 110.632 112.613 110.635 112.631C110.696 113.052 110.696 113.544 110.327 113.728C110.317 113.735 110.32 113.756 110.335 113.753C110.795 113.636 110.791 112.981 110.664 112.592V112.588Z" fill="#263238"/>
<path d="M110.239 112.192C109.552 112.217 109.651 113.587 110.288 113.565C110.915 113.544 110.816 112.171 110.239 112.192Z" fill="#263238"/>
<path d="M109.974 112.284C109.86 112.369 109.751 112.514 109.609 112.539C109.443 112.567 109.308 112.433 109.188 112.302C109.177 112.287 109.163 112.302 109.167 112.319C109.181 112.581 109.301 112.843 109.588 112.864C109.846 112.882 110.016 112.634 110.062 112.365C110.069 112.316 110.023 112.245 109.977 112.28L109.974 112.284Z" fill="#263238"/>
<path d="M113.099 112.231C113.099 112.231 113.134 112.248 113.134 112.266C113.148 112.691 113.237 113.176 113.63 113.293C113.641 113.296 113.641 113.317 113.63 113.317C113.156 113.282 113.046 112.638 113.102 112.231H113.099Z" fill="#263238"/>
<path d="M113.449 111.76C114.129 111.664 114.271 113.031 113.641 113.119C113.021 113.208 112.88 111.841 113.449 111.76Z" fill="#263238"/>
<path d="M113.746 111.82C113.863 111.88 113.984 112.001 114.111 111.997C114.263 111.99 114.355 111.831 114.437 111.678C114.444 111.664 114.458 111.671 114.458 111.693C114.493 111.955 114.433 112.234 114.189 112.312C113.966 112.383 113.775 112.174 113.683 111.923C113.665 111.877 113.697 111.799 113.743 111.824L113.746 111.82Z" fill="#263238"/>
<path d="M110.901 115.859C111.007 115.955 111.11 116.089 111.266 116.1C111.414 116.107 111.584 116.036 111.719 115.979C111.733 115.972 111.747 115.987 111.736 116.001C111.63 116.167 111.4 116.277 111.202 116.245C111.007 116.217 110.908 116.054 110.858 115.877C110.851 115.852 110.883 115.841 110.897 115.856L110.901 115.859Z" fill="#263238"/>
<path d="M112.544 114.174C112.544 114.174 112.685 114.801 112.71 115.098C112.71 115.126 112.643 115.144 112.54 115.162C112.537 115.162 112.533 115.165 112.53 115.162C112.009 115.289 111.461 115.151 111.103 114.748C111.078 114.719 111.114 114.687 111.146 114.702C111.563 114.957 112.006 114.995 112.473 114.964C112.487 114.879 112.197 113.898 112.243 113.891C112.406 113.863 112.735 113.948 112.933 113.987C112.678 112.673 112.211 111.413 111.977 110.1C111.97 110.054 112.038 110.032 112.055 110.075C112.636 111.363 112.965 112.868 113.262 114.217C113.301 114.383 112.668 114.213 112.544 114.171V114.174Z" fill="#263238"/>
<path d="M104.639 113.912C106.101 113.725 105.775 111.424 105.775 111.424C105.775 111.424 107.414 111.048 107.17 108.354C107.17 108.354 108.186 109.862 110.48 109.884C110.965 109.887 109.202 108.871 109.202 108.871C109.202 108.871 111.347 110.34 114.806 109.2C115.05 109.119 114.006 105.452 111.05 104.556C108.094 103.66 105.683 104.726 104.203 106.715C104.203 106.715 102.292 107.933 102.327 109.894C102.363 111.855 104.069 113.983 104.639 113.912Z" fill="#263238"/>
<path d="M105.226 114.004C105.226 114.004 103.725 112.156 102.876 112.705C102.026 113.254 103.254 116.004 104.32 116.316C105.385 116.627 105.693 115.647 105.693 115.647L105.226 114.008V114.004Z" fill="#FFC3BD"/>
<path d="M103.251 113.484C103.251 113.484 103.233 113.509 103.251 113.512C103.997 113.753 104.429 114.401 104.748 115.08C104.511 114.826 104.206 114.702 103.867 114.985C103.849 114.999 103.867 115.027 103.888 115.024C104.182 114.939 104.401 114.974 104.617 115.197C104.773 115.357 104.886 115.562 104.999 115.749C105.038 115.813 105.152 115.767 105.123 115.696L105.116 115.679C105.067 114.751 104.252 113.505 103.251 113.484Z" fill="#263238"/>
</g>
<defs>
<clipPath id="clip0_75_881">
<rect width="303.5" height="165" fill="white" transform="translate(0.5)"/>
</clipPath>
</defs>
</svg>
