<svg width="304" height="165" viewBox="0 0 304 165" fill="none" xmlns="http://www.w3.org/2000/svg">
<g clip-path="url(#clip0_87_584)">
<rect width="303.5" height="165" fill="white"/>
<g clip-path="url(#clip1_87_584)">
<path d="M66.3269 65.4269L63.3604 63.0302L64.3404 61.752L66.7507 62.9503L66.9096 62.1248L69.214 64.4682L68.3664 65.9595L66.3269 65.4269Z" fill="#EAC1A4"/>
<path d="M97.6615 63.696L84.3384 70.5666L68.7109 63.4297L67.2012 66.4389L83.7557 78.9018L101.952 74.1083L97.6615 63.696Z" fill="#8C9498"/>
<path d="M157.946 1.35539C157.946 0.796159 157.946 0.263557 157.92 -0.295675L158.661 -1.84022C158.847 -2.05326 159.244 -2.05326 159.429 -1.84022L160.092 -0.322305L160.118 1.32876C160.727 1.32876 161.707 1.78147 161.734 2.3407C161.734 2.92657 161.257 3.37928 160.648 3.40591H160.144L160.807 58.9563C160.833 62.0986 162.555 64.6817 164.992 64.6018C166.872 64.5486 168.488 62.9508 168.726 60.3943C168.779 59.8351 169.256 59.3823 169.865 59.3823H169.918C170.607 59.3823 171.163 59.9416 171.084 60.6073C170.66 64.2556 167.72 66.892 164.939 66.9186C162.74 66.9453 160.939 65.96 159.88 64.2024C158.555 61.9921 158.608 59.5688 158.582 57.1454C158.555 54.8552 158.529 52.5384 158.502 50.2482C158.476 47.026 158.423 43.8037 158.396 40.6081C158.343 36.9332 158.317 33.2849 158.264 29.6099C158.211 25.9616 158.184 22.2866 158.131 18.6383C158.105 15.4427 158.052 12.2737 158.026 9.07811C157.999 7.21401 157.973 5.3499 157.946 3.4858H157.602C156.993 3.4858 156.489 3.03309 156.489 2.44722C156.489 1.83473 157.337 1.35539 157.946 1.35539Z" fill="#249748"/>
<path opacity="0.26" d="M158.317 32.4859L160.489 30.1957L160.436 26.4941L158.237 26.5208L158.317 32.4859Z" fill="black"/>
<path d="M173.6 31.6875L173.229 29.637C171.958 22.5534 169.124 15.8692 164.859 10.0106L159.482 2.60742C172.355 2.98024 183.453 10.3301 188.963 20.9555C190.658 24.2044 191.823 27.7462 192.353 31.5011C189.572 30.7288 186.34 30.2761 182.897 30.3293C179.533 30.3826 176.355 30.8886 173.6 31.6875Z" fill="#39B54A"/>
<path d="M145.947 27.906L145.1 32.3H144.756C141.815 31.3679 138.319 30.8619 134.558 30.9152C130.823 30.9685 127.327 31.5543 124.36 32.5396C124.89 27.7462 126.453 23.2457 128.837 19.2512C134.717 9.42472 145.55 2.7672 158.026 2.60742C158.396 2.60742 158.767 2.60742 159.112 2.60742L154.953 8.70571C149.868 15.017 147.59 21.355 145.947 27.906Z" fill="#39B54A"/>
<path d="M173.23 29.6633L173.6 31.7138C173.574 31.7138 173.547 31.7405 173.521 31.7405C169.945 30.2226 165.045 29.397 159.668 29.4503C154 29.5035 148.888 30.5687 145.312 32.2997H145.1L145.948 27.9057C147.59 21.3547 149.894 15.0168 154.98 8.73208L159.112 2.63379C159.244 2.63379 159.377 2.63379 159.483 2.63379L164.86 10.037C169.124 15.8689 171.985 22.5797 173.23 29.6633Z" fill="#7AE582"/>
<path d="M170.289 67.5578L168.674 66.0665L168.647 64.1225L168.223 63.9361L167.958 64.4154L167.482 62.8443L166.343 62.0986L164.648 62.7378L163.667 64.3089L164.489 65.9067L166.29 67.0785L168.409 69.2089L170.289 67.5578Z" fill="#EAC1A4"/>
<path d="M170.13 65.7468L167.243 69.1289L174.977 80.7396L177.865 81.6716L190.181 72.0049L186.897 65.374L177.706 73.0701L170.13 65.7468Z" fill="#249748"/>
<path d="M209.146 156.982L209.57 158.926L206.179 161.696L203.822 160.178L205.332 157.808L208.722 155.038L209.146 156.982Z" fill="#249748"/>
<path d="M197.253 97.251L201.041 105.879L201.412 130.192L209.225 156.317L205.57 157.914L189.651 127.556L187.824 117.943L187.108 97.7037L197.253 97.251Z" fill="#8C9295"/>
<path d="M178.871 99.1945L178.553 124.653L183.427 157.488H187.162L189.545 127.183L194.657 96.9043L178.871 99.1945Z" fill="#8C9295"/>
<path d="M187.161 157.035V159.032L183.109 161.03L181.069 159.032L183.109 157.035H187.161Z" fill="#249748"/>
<path d="M186.235 64.7078L196.167 64.335C196.167 64.335 202.101 69.4746 205.173 82.8429C208.299 96.4508 204.59 116.051 204.59 116.051C204.59 116.051 177.918 112.535 173.547 112.003L180.222 85.1331L186.235 64.7078Z" fill="#249748"/>
<path d="M189.784 65.72C190.949 65.6135 192.115 65.507 193.254 65.3738C193.254 64.4684 193.201 63.5363 193.068 62.6309C194.048 62.2847 195.161 61.8054 195.32 60.7934C195.373 60.4739 195.32 60.1543 195.267 59.8348C195.028 58.5299 194.817 57.2516 194.578 55.9468C194.499 55.4941 194.419 55.0413 194.181 54.6419C193.757 53.9761 192.909 53.6832 192.115 53.5234C190.075 53.1772 187.85 53.6033 186.288 54.9082C185.864 55.2544 185.493 55.6805 185.308 56.1864C185.016 56.9853 185.228 57.8375 185.44 58.663C185.625 59.4087 185.837 60.1543 186.023 60.9C186.261 61.7521 186.579 62.7374 187.427 63.057C187.877 63.2168 188.407 63.1901 188.804 63.4298C189.519 63.9092 189.413 64.9477 189.784 65.72Z" fill="#EAC1A4"/>
<path d="M178.447 52.7511C178.421 51.8724 178.553 50.9669 178.739 50.1414C179.056 48.7566 180.725 48.1175 182.155 48.011C185.281 47.798 188.274 46.4132 191.32 47.4784C193.068 48.0909 195.399 48.2507 196.962 49.1028C197.624 49.4756 198.154 50.0349 198.551 50.6474C199.955 52.8044 199.981 55.787 198.551 57.944C198.233 58.4234 197.862 58.8761 197.465 59.3021C196.644 60.1809 195.664 61.2728 194.525 61.5923C194.498 60.607 195.426 57.4647 194.657 56.6391C193.439 55.3343 190.631 55.787 189.122 56.1065C187.453 56.4527 185.97 57.6245 184.301 57.8641C183.109 58.0505 181.599 57.4647 180.593 56.8522C179.03 55.9201 178.5 54.349 178.447 52.7511Z" fill="#249748"/>
<path d="M188.963 65.9064L178.527 107.13L177.679 112.536L190.684 114.213C190.684 114.213 190.181 94.4804 190.34 91.8441C190.499 89.2077 192.433 83.5088 192.75 77.3839C192.909 73.8421 194.075 67.4775 193.254 65.4004L188.963 65.9064Z" fill="white"/>
<path d="M121.632 79.009L124.413 77.1449L123.645 75.9199L121.447 76.7987L121.367 76.0531L119.169 77.9438L119.778 79.3286L121.632 79.009Z" fill="#EBCEB1"/>
<path d="M119.698 77.065L120.784 79.8345C120.943 80.2872 110.348 86.1725 109.395 86.5985C107.329 87.5306 103.568 89.7143 103.568 89.7143C100.681 89.7409 95.2508 88.3029 93.4231 87.5306C92.6815 87.211 92.1782 85.6132 91.728 85.0007C91.1717 84.2018 91.8869 82.7638 92.3636 82.1247C93.3437 80.7665 94.8799 79.8079 96.5221 79.4883C97.1049 79.3818 97.7406 79.3285 98.3233 79.4883C98.9325 79.6481 99.7006 76.9318 100.204 77.278C101.104 77.9171 101.608 82.0714 102.694 82.4176C104.045 82.897 119.354 76.4258 119.698 77.065Z" fill="#8C9498"/>
<path d="M97.9263 64.3626C97.8733 64.3626 97.7939 64.3626 97.7409 64.3626C94.7743 64.4957 91.1721 68.3571 89.1061 70.6207C83.7292 76.4793 79.968 83.1901 77.1603 90.6997C75.6505 94.7475 74.2997 98.8485 73.0548 102.976C72.7105 104.121 70.2736 114.56 69.6909 114.614C75.73 113.841 81.8221 113.255 87.8347 113.682C93.8473 114.081 99.8334 115.546 104.998 118.688C107.647 105.293 109.607 91.4454 110.243 77.864C110.322 76.2396 110.561 74.5619 110.428 72.9641C110.243 71.1 109.316 70.2745 108.256 68.8631C107.886 68.3837 107.541 67.9044 107.091 67.5049C104.734 65.3479 101.025 64.2561 97.9263 64.3626Z" fill="#8C9498"/>
<path d="M76.8423 109.82L83.1198 135.012L83.2522 153.546L86.3247 154.212L87.5166 136.956L90.5097 105.346L76.8423 109.82Z" fill="#EBCEB1"/>
<path d="M86.3511 154.718L86.8543 156.609L86.404 160.311H83.9407L83.0137 154.958L83.305 154.079L86.3511 154.718Z" fill="#249748"/>
<path d="M100.84 107.05L101.396 128.807L98.456 159.511L95.4365 159.751L94.3505 131.576L88.2319 106.038L100.84 107.05Z" fill="#EBCEB1"/>
<path d="M98.35 159.005L102.429 161.135L102.111 162.999L94.9331 162.147L95.2774 159.458L98.35 159.005Z" fill="#249748"/>
<path d="M101.74 109.847L103.78 134.985L101.687 152.215L93.5294 151.762L92.0726 132.163L88.5498 110.805L89.0795 107.477L100.866 107.663L101.74 109.847Z" fill="#249748"/>
<path d="M89.3443 133.147L88.3907 151.176L81.2921 150.83L81.4246 133.733L76.9482 112.269L77.9812 106.251L89.927 106.997L89.3443 133.147Z" fill="#249748"/>
<path d="M103.223 111.923C95.9395 110.672 84.1526 107.689 76.8687 106.438C80.6828 93.9482 86.7484 80.1006 93.8205 69.129C95.0919 67.1317 96.7076 65.0546 99.012 64.6018C101.475 64.0959 105.793 65.6937 106.269 68.4099C106.958 72.3778 105.528 77.8636 105.078 81.8581C104.018 90.9656 104.972 102.949 103.223 111.923Z" fill="white"/>
<path d="M101.952 55.8679C104.681 51.1543 110.773 54.2168 111.143 58.9303C111.408 62.0194 108.362 65.4281 105.184 65.6677C105.131 66.4134 105.025 67.159 104.892 67.878C104.098 67.665 103.303 67.4519 102.509 67.2389C102.27 67.1856 101.979 67.0791 101.899 66.8395C101.846 66.7063 101.899 66.5465 101.926 66.3867C102.058 65.8808 102.217 65.4014 102.35 64.8955C102.297 64.8688 102.244 64.8156 102.191 64.7889C100.866 63.8036 100.284 62.0727 100.363 60.4482C100.469 58.8238 101.131 57.2793 101.952 55.8679Z" fill="#EAC1A4"/>
<path d="M102.111 57.4651C100.787 58.7168 100.654 60.714 100.575 62.445C100.496 63.9629 100.257 64.8949 98.6149 64.4422C97.6879 64.2026 96.0457 63.7765 95.6483 62.7912C95.357 62.0455 96.443 60.7406 97.0257 60.2879C97.476 59.9417 98.1381 59.995 98.5619 59.6488C98.7473 59.5157 98.8533 59.3026 98.9592 59.1162C99.4095 58.2907 99.7274 57.4119 99.9128 56.5065C100.045 55.894 100.098 55.2549 100.337 54.669C100.707 53.8168 101.767 53.2043 102.456 52.6185C103.753 51.5266 106.694 50.7277 107.753 52.6451C107.991 53.0712 107.991 53.6038 107.965 54.1098C107.938 54.4027 107.912 54.7222 107.78 54.9885C107.223 56.0538 106.164 55.7076 105.21 55.8673C104.098 56.0538 102.959 56.6662 102.111 57.4651Z" fill="#249748"/>
<path d="M109.739 61.726C109.395 62.4983 108.574 63.1374 108.653 63.963C108.68 64.3358 108.918 64.6553 109.051 65.0015C109.475 65.9602 109.316 67.1053 108.68 67.9308C110.216 68.6499 111.779 69.3955 113.315 70.1145C113.554 70.221 113.792 70.3276 114.057 70.3276C114.613 70.3009 114.931 69.7151 115.169 69.2357C115.62 68.2504 116.096 67.2118 115.885 66.1466C115.779 65.6673 115.567 65.2146 115.461 64.7086C115.01 62.3652 117.871 60.1282 116.997 57.8913C116.6 56.906 115.593 56.2935 114.904 55.4946C113.686 54.0566 113.527 51.9528 112.229 50.6213C109.766 48.0648 104.972 50.1686 105.343 53.7104C105.66 56.5864 111.117 58.5837 109.739 61.726Z" fill="#249748"/>
<path d="M97.529 65.0811C97.529 65.0811 84.921 95.0399 87.7022 102.683C90.4834 110.326 91.7812 113.282 91.7812 113.282L72.4985 114.08C72.4985 114.08 84.8151 70.3272 97.529 65.0811Z" fill="#8C9498"/>
<path d="M214.682 117.729L206.126 108.781H205.861C205.411 107.716 204.961 106.651 204.484 105.559C202.074 99.9136 199.663 94.2414 197.253 88.5958C195.134 83.616 193.439 75.2009 186.817 74.8281L123.804 71.2863C116.811 70.8868 110.19 74.7215 106.799 81.1128L95.0388 103.402L93.9794 103.349L72.4982 108.728C64.8964 111.897 59.7578 119.061 59.2811 127.209L58.5659 139.433L218.522 148.434L219.529 131.018C219.873 126.118 218.099 121.298 214.682 117.729Z" fill="#006837"/>
<path d="M153.761 104.068L195.796 106.438L187.585 82.6843C187.188 81.5125 186.129 80.687 184.91 80.6337L155.192 78.9561L153.761 104.068Z" fill="#39B54A"/>
<path d="M148.013 78.5295L123.936 77.1714C118.824 76.8784 114.004 79.6746 111.54 84.3349L102.641 101.165L146.556 103.642L148.013 78.5295Z" fill="#39B54A"/>
<g opacity="0.2">
<path d="M188.406 88.3568C188.936 88.6764 189.492 89.0226 190.022 89.3421L187.771 82.8444C187.373 81.6727 186.314 80.8471 185.096 80.7939L174.792 80.208C179.348 82.9509 183.877 85.6405 188.406 88.3568Z" fill="#FFFDF1"/>
<path d="M188.909 93.9486C181.44 89.3949 173.6 84.2553 166.21 79.5684L156.542 79.1689C162.846 85.1341 170.898 90.5933 178.05 95.4932C182.341 98.4491 186.711 101.245 191.24 103.855C192.724 104.707 194.26 105.479 195.823 106.278L192.247 95.9992C191.134 95.3068 190.022 94.6144 188.909 93.9486Z" fill="#FFFDF1"/>
<path d="M139.564 93.1499C136.438 90.8864 133.18 88.8092 129.922 86.7587C126.612 84.7082 123.248 82.631 119.751 80.9001C118.586 80.3142 117.42 79.7816 116.255 79.249C114.321 80.474 112.706 82.2316 111.567 84.362L111.487 84.5218C114.984 87.238 118.48 89.9011 121.95 92.644C127.062 96.6917 132.81 99.8341 138.372 103.189L146.583 103.642L146.848 99.0884C144.411 97.1178 142.107 94.9874 139.564 93.1499Z" fill="#FFFDF1"/>
</g>
<path opacity="0.1" d="M119.169 142.841C119.354 142.149 119.46 141.403 119.513 140.684C119.937 133.387 113.209 127.049 104.468 126.57C101.052 126.384 97.8466 127.103 95.1714 128.487C100.495 129.899 105.078 132.828 108.759 136.53C110.64 138.42 112.044 140.391 113.13 142.468L119.169 142.841Z" fill="#000100"/>
<path opacity="0.1" d="M201.994 147.501C202.18 146.809 202.286 146.063 202.339 145.344C202.762 138.047 196.194 131.71 187.665 131.23C184.327 131.044 181.202 131.763 178.58 133.174C183.771 134.586 188.247 137.515 191.823 141.19C193.651 143.081 195.028 145.051 196.088 147.128L201.994 147.501Z" fill="#000100"/>
<path d="M100.435 154.133C108.218 154.107 114.506 147.862 114.481 140.185C114.455 132.508 108.126 126.305 100.344 126.331C92.5613 126.357 86.2729 132.602 86.2982 140.279C86.3235 147.956 92.6528 154.159 100.435 154.133Z" fill="#249748"/>
<path d="M100.415 148.115C104.833 148.1 108.403 144.559 108.389 140.206C108.375 135.852 104.782 132.335 100.364 132.35C95.9461 132.364 92.3763 135.905 92.3905 140.258C92.4047 144.612 95.9975 148.129 100.415 148.115Z" fill="#FFFDF1"/>
<path opacity="0.1" d="M101.475 145.797C103.012 145.77 104.574 145.318 105.713 144.306C105.157 145.664 103.912 146.702 102.455 146.995C101.979 147.102 101.475 147.128 100.972 147.128C100.442 147.128 99.9127 147.128 99.3829 147.022C97.9791 146.729 96.7342 145.797 96.125 144.519C96.3369 144.918 97.8732 145.291 98.2705 145.397C99.3035 145.664 100.389 145.824 101.475 145.797Z" fill="#000100"/>
<path d="M183.527 158.82C191.309 158.794 197.597 152.55 197.572 144.873C197.547 137.195 191.217 130.993 183.435 131.019C175.653 131.044 169.364 137.289 169.39 144.966C169.415 152.644 175.744 158.846 183.527 158.82Z" fill="#249748"/>
<path d="M183.506 152.801C187.924 152.787 191.494 149.246 191.48 144.893C191.466 140.54 187.873 137.022 183.455 137.036C179.037 137.051 175.467 140.592 175.481 144.945C175.495 149.298 179.088 152.816 183.506 152.801Z" fill="#FFFDF1"/>
<path opacity="0.1" d="M184.566 150.484C186.102 150.458 187.665 150.005 188.804 148.993C188.247 150.351 187.003 151.39 185.546 151.683C185.069 151.789 184.566 151.816 184.062 151.816C183.533 151.816 183.003 151.816 182.473 151.709C181.069 151.417 179.825 150.484 179.215 149.206C179.427 149.606 180.963 149.978 181.361 150.085C182.42 150.325 183.48 150.511 184.566 150.484Z" fill="#000100"/>
<path opacity="0.5" d="M140.729 113.708L136.385 113.468C135.485 113.415 134.796 112.643 134.823 111.764C134.875 110.859 135.644 110.193 136.571 110.246L140.915 110.486C141.815 110.539 142.504 111.311 142.477 112.19C142.398 113.069 141.63 113.761 140.729 113.708Z" fill="#29313F"/>
<path d="M188.221 91.498L186.42 93.0959L184.274 92.9627L184.01 93.4154L184.539 93.735L182.712 94.1344L181.785 95.3061L182.367 97.2235L184.063 98.3952L185.89 97.6496L187.347 95.7855L189.916 93.6551L188.221 91.498Z" fill="#EAC1A4"/>
<path d="M186.5 92.4565C189.44 90.1929 192.353 87.956 195.293 85.6924C196.088 85.0799 196.988 84.6272 197.757 84.0147C198.896 83.1093 199.213 82.843 198.816 81.5648C197.704 77.8099 195.32 74.4545 194.234 70.7263C195.479 70.0073 196.591 69.1285 197.916 68.5426C200.087 67.584 200.591 69.1285 201.465 70.7263C202.524 72.5904 203.504 74.5078 204.431 76.4518C205.199 78.0496 208.987 84.787 206.842 86.4114C205.305 87.5565 188.38 96.3445 188.566 96.6906C188.513 96.5309 186.5 92.4565 186.5 92.4565Z" fill="#249748"/>
<path d="M83.7555 35.4688C67.095 43.6708 56.0499 37.8388 54.5401 36.96C54.5401 36.96 54.4871 36.8535 54.4606 36.9068C54.4077 36.8801 54.4077 36.9867 54.4077 36.9867C53.5071 38.4779 46.6469 48.8104 28.0264 49.5028C28.0264 49.5028 33.4298 81.4855 46.9912 91.6582C61.5062 102.523 71.8363 104.308 71.8627 104.281C71.9157 104.308 80.2327 97.9163 87.5697 81.4589C94.4564 66.0401 83.7555 35.4688 83.7555 35.4688Z" fill="#249748"/>
<path d="M82.0075 39.3564C66.8568 46.733 56.8711 41.5934 55.5203 40.7945C55.5203 40.7945 55.4673 40.6879 55.4408 40.7412C55.3878 40.7146 55.3878 40.8211 55.3878 40.8211C54.5667 42.1526 48.3157 51.3932 31.4434 52.0856C31.4434 52.0856 36.1846 80.5532 48.4747 89.5808C61.5858 99.2209 71.1212 101.511 71.1742 101.458C71.2272 101.484 78.5906 94.9867 85.3184 80.2869C91.5694 66.5458 82.0075 39.3564 82.0075 39.3564Z" fill="#7AE582"/>
<g opacity="0.06">
<path d="M56.0763 43.5645C56.0763 43.5645 56.0763 43.458 56.1293 43.4846C56.1558 43.4314 56.2088 43.5379 56.2088 43.5379C57.6126 44.3368 67.7042 49.5563 83.0403 42.4727C82.2192 39.6499 81.61 37.9189 81.61 37.9189C66.4593 45.2955 56.4736 40.1559 55.1228 39.357C55.1228 39.357 55.0698 39.2505 55.0433 39.3037C54.9904 39.2771 54.9904 39.3836 54.9904 39.3836C54.1693 40.7151 47.9183 49.9557 31.0459 50.6481C31.0459 50.6481 31.3373 52.459 31.9994 55.335C48.8983 54.2698 55.2287 44.9493 56.0763 43.5645Z" fill="black"/>
</g>
<path opacity="0.34" d="M79.2527 48.2773C67.8367 53.8963 58.7516 49.9817 57.6921 49.3692C57.6921 49.3692 57.6656 49.2893 57.6391 49.3425C57.5862 49.3159 57.6127 49.3958 57.6127 49.3958C57.0035 50.4344 50.9908 58.1305 38.2505 58.5832C38.2505 58.5832 43.2301 79.8873 52.5536 86.8643C62.5128 94.3208 69.5849 95.5457 69.6114 95.5191C69.6379 95.5457 75.3326 91.1518 80.3917 79.8606C85.0799 69.3151 79.2527 48.2773 79.2527 48.2773Z" fill="white"/>
<path d="M236.216 71.2862L234.6 70.434L234.15 68.8895L233.779 68.8096L233.673 69.2623L232.931 68.0906L231.845 67.7178L230.627 68.5966L230.177 70.0879L231.183 71.1797L232.905 71.7389L235.05 73.0172L236.216 71.2862Z" fill="#EAC1A4"/>
<path d="M235.289 69.5019L244.824 76.0795L254.545 65.7471L255.71 77.4643L246.228 83.6159L233.567 72.591L235.289 69.5019Z" fill="#93AA9D"/>
<path d="M269.616 155.117L269.775 156.715L266.862 158.686L265.167 157.301L266.544 155.517L269.457 153.546L269.616 155.117Z" fill="#22252D"/>
<path d="M269.537 106.864L270.04 111.657L265.67 128.114L269.722 154.585L266.729 155.597L258.889 129.766L257.644 122.256L257.671 106.331L269.537 106.864Z" fill="#EAC1A4"/>
<path d="M246.599 112.19L252.877 156.556H255.737L256.24 128.115L261.432 108.169L246.599 112.19Z" fill="#EAC1A4"/>
<path d="M255.711 156.21V157.808L252.638 159.406L251.102 157.808L252.638 156.21H255.711Z" fill="#22252D"/>
<path d="M253.618 66.6526C253.856 66.2798 254.148 65.9869 254.572 65.7472C257.406 64.176 262.094 65.5608 265.166 65.5608C266.067 74.9878 268.583 83.9888 270.199 93.2295C271.921 103.056 273.854 112.856 276.026 122.602C276.159 123.162 267.471 122.869 266.65 122.895C258.306 123.029 247.394 123.002 239.315 120.525C244.453 106.917 246.334 92.2708 250.387 78.3166C251.102 75.8666 251.949 73.4433 252.585 70.9933C252.956 69.5553 252.876 67.8244 253.618 66.6526Z" fill="#7AE582"/>
<path d="M257.406 52.7511C255.287 53.3103 253.618 55.2543 253.406 57.3847C252.241 56.3195 251.658 54.6951 251.87 53.1505C252.082 51.606 253.088 50.1946 254.492 49.4756C255.79 50.168 256.823 51.3663 257.247 52.7777L257.406 52.7511Z" fill="#249748"/>
<path d="M253.115 55.5474C254.201 49.8752 261.405 50.8338 263.471 55.4409C264.637 58.0506 263.418 61.7522 261.061 63.5897C261.008 64.0956 260.955 65.4804 260.558 65.8266C260.134 66.1994 258.81 65.8532 258.28 65.7201C258.147 65.6934 257.989 65.6402 257.883 65.5337C257.75 65.4005 257.724 65.0543 257.724 64.6815C257.353 64.6549 256.956 64.575 256.558 64.4418C254.89 63.9092 253.671 62.3647 253.168 60.7136C252.665 59.0359 252.771 57.2517 253.115 55.5474Z" fill="#EAC1A4"/>
<path d="M263.736 78.1033C263.657 78.1033 263.604 78.1033 263.577 78.0766C262.306 77.8636 260.267 77.4641 259.684 76.1326C259.075 74.7745 260.161 72.3245 260.32 70.9131C260.584 68.7827 260.69 66.6257 260.77 64.4687C260.876 62.5247 260.161 60.6339 259.128 58.9829C258.095 57.3318 256.744 55.8938 255.446 54.4557C254.89 53.8699 254.333 53.2308 254.148 52.4319C253.963 51.5531 254.307 50.6476 254.89 49.9553C255.79 48.9167 256.85 48.3841 258.201 48.3575C262.968 48.2509 266.544 51.0205 267.895 55.6008C269.828 62.1785 267.418 68.4365 267.762 74.9875C267.815 76.106 268.186 77.1978 268.822 78.1299C268.716 77.8902 264.769 78.1565 263.736 78.1033Z" fill="#249748"/>
<path d="M260.584 86.8651L258.651 87.5042L257.088 86.6787L256.743 86.9184L257.035 87.3445L255.525 87.0515L254.413 87.6108L254.201 89.2352L255.075 90.6999L256.717 90.7265L258.439 89.8211L261.114 89.0754L260.584 86.8651Z" fill="#EAC1A4"/>
<path d="M265.643 84.8408C266.438 84.3082 266.994 83.5359 267.073 82.4175C267.153 81.3789 266.888 80.3403 266.703 79.3284C266.12 76.0795 266.199 72.7241 266.914 69.5019C267.63 66.3063 271.417 70.3274 271.894 71.7654C272.424 73.3632 272.265 75.1208 272.397 76.7719C272.556 79.0088 272.662 81.2191 272.636 83.4561C272.636 84.8674 272.98 88.1962 271.47 89.0217C271.073 89.2348 270.596 89.3147 270.146 89.3946C269.431 89.5011 260.822 90.5663 260.69 90.1668L259.498 86.4653C261.326 86.0924 264.001 85.9327 265.643 84.8408Z" fill="#7AE582"/>
<path d="M248.029 122.868L202.921 116.024L212.192 56.6924L257.3 63.5363L248.029 122.868Z" fill="#249748"/>
<path opacity="0.26" d="M206.683 114.001L207.371 114.107L246.996 121.35L254.73 65.0811L252.797 65.3207L206.683 114.001Z" fill="black"/>
<path d="M246.149 119.992L205.597 113.814L214.179 58.9297L254.731 65.0812L246.149 119.992Z" fill="#F4F4F2"/>
<path d="M240.454 57.5715L240.189 57.5182L240.215 57.3318C240.48 55.6275 239.076 53.9764 237.09 53.6835L234.468 53.284C232.481 52.9911 230.654 54.1362 230.362 55.8405L230.336 56.0269L230.071 55.9736C228.084 55.6807 226.257 56.8258 225.965 58.5301L225.436 61.992L243.05 64.6551L243.579 61.1931C243.844 59.4888 242.44 57.8644 240.454 57.5715ZM237.567 57.1986L232.931 56.5062C232.455 56.4264 232.137 56.0003 232.19 55.5209C232.269 55.0416 232.72 54.722 233.196 54.8019L237.832 55.4943C238.308 55.5742 238.626 56.0003 238.573 56.4796C238.494 56.959 238.043 57.2785 237.567 57.1986Z" fill="#DFE5E5"/>
<path opacity="0.12" d="M243.05 64.6813L225.436 61.9916L225.674 60.3672L243.288 63.0302L243.05 64.6813Z" fill="black"/>
<path d="M246.678 85.2138L216.191 80.6068L216.324 79.7812L246.784 84.4149L246.678 85.2138Z" fill="#39B54A"/>
<path d="M245.751 91.1786L215.264 86.545L215.397 85.7461L245.857 90.3797L245.751 91.1786Z" fill="#39B54A"/>
<path d="M244.798 97.1444L214.337 92.5108L214.47 91.7119L244.93 96.3455L244.798 97.1444Z" fill="#39B54A"/>
<path d="M243.87 103.109L213.41 98.4757L213.543 97.6768L244.003 102.284L243.87 103.109Z" fill="#39B54A"/>
<path d="M222.813 111.445L211.609 109.74L211.583 110.033L222.787 111.737L222.813 111.445Z" fill="#39B54A"/>
<path d="M239.368 108.754C238.865 108.461 238.255 108.434 237.699 108.621C237.62 108.568 237.567 108.514 237.487 108.488C236.719 108.062 235.739 108.195 235.104 108.754C234.468 109.313 234.256 110.245 234.574 111.018C234.892 111.816 235.713 112.322 236.56 112.296C236.772 112.296 236.958 112.243 237.143 112.189C237.514 112.456 237.964 112.589 238.441 112.589C239.421 112.562 240.242 111.816 240.401 110.858C240.507 110.006 240.11 109.18 239.368 108.754ZM236.825 111.923C236.11 112.056 235.395 111.737 235.024 111.151C234.653 110.538 234.706 109.739 235.156 109.18C235.607 108.621 236.401 108.408 237.09 108.674C237.17 108.701 237.275 108.754 237.355 108.807C237.222 108.887 237.09 108.967 236.984 109.074C236.348 109.633 236.137 110.565 236.454 111.337C236.56 111.577 236.693 111.79 236.852 111.95C236.852 111.923 236.825 111.923 236.825 111.923ZM238.203 110.512C238.097 111.071 237.726 111.577 237.222 111.79C237.09 111.683 236.984 111.55 236.905 111.417C236.534 110.805 236.587 110.006 237.037 109.446C237.196 109.233 237.408 109.1 237.646 108.994C238.07 109.367 238.282 109.952 238.203 110.512ZM238.706 112.216C238.282 112.296 237.885 112.216 237.514 112.03C238.044 111.737 238.414 111.204 238.52 110.565C238.6 109.952 238.414 109.313 237.991 108.887C238.308 108.807 238.626 108.834 238.944 108.94C239.712 109.233 240.163 110.006 240.057 110.805C239.951 111.497 239.421 112.083 238.706 112.216Z" fill="#39B54A"/>
<path d="M218.761 65.8799L219.264 65.9598L218.628 70.0342L218.125 69.9543L218.761 65.8799Z" fill="#202020"/>
<path d="M222.972 66.5193L223.475 66.5992L222.84 70.6736L222.31 70.5937L220.853 67.0519L220.35 70.3008L219.847 70.2209L220.482 66.1465L221.012 66.2264L222.469 69.7682L222.972 66.5193Z" fill="#202020"/>
<path d="M226.548 69.3951C226.68 69.5815 226.733 69.8478 226.68 70.1674C226.627 70.487 226.469 70.7533 226.204 70.9397C225.939 71.1261 225.568 71.1794 225.118 71.0995C224.667 71.0196 224.35 70.8864 224.191 70.6734C224.005 70.4603 223.926 70.1674 223.926 69.8212H224.35C224.35 70.3272 224.614 70.6201 225.144 70.7C225.753 70.8065 226.098 70.5935 226.177 70.1141C226.204 69.9011 226.177 69.7413 226.071 69.6348C225.965 69.5283 225.806 69.3951 225.541 69.2886L225.197 69.1288C224.826 68.9691 224.561 68.7826 224.429 68.5962C224.297 68.4098 224.244 68.1435 224.297 67.824C224.35 67.5044 224.509 67.2381 224.773 67.0517C225.038 66.8653 225.383 66.812 225.806 66.8653C226.23 66.9185 226.548 67.0783 226.707 67.2914C226.866 67.5044 226.945 67.7973 226.945 68.1435H226.522C226.522 67.6375 226.283 67.3446 225.78 67.2647C225.197 67.1848 224.853 67.3712 224.8 67.8506C224.773 68.0636 224.8 68.2234 224.879 68.3299C224.959 68.4365 225.118 68.5696 225.356 68.6761L225.727 68.8359C226.151 69.0223 226.389 69.2087 226.548 69.3951Z" fill="#202020"/>
<path d="M230.389 67.6375L230.892 67.7174L230.468 70.4336C230.442 70.6733 230.362 70.8863 230.283 71.0727C230.203 71.2325 230.097 71.3657 229.991 71.4456C229.885 71.5255 229.753 71.5787 229.621 71.632C229.462 71.6586 229.329 71.6852 229.223 71.6852C229.091 71.6852 228.958 71.6586 228.799 71.632C228.64 71.6054 228.508 71.5787 228.376 71.5521C228.27 71.5255 228.137 71.4722 228.005 71.3923C227.872 71.3124 227.766 71.2059 227.713 71.0994C227.634 70.9929 227.581 70.8331 227.555 70.6467C227.528 70.4603 227.528 70.2472 227.555 69.9809L227.978 67.2646L228.482 67.3445L228.058 70.0608C227.978 70.4869 228.058 70.8064 228.243 70.9662C228.323 71.0461 228.429 71.0994 228.535 71.1526C228.64 71.1793 228.746 71.2059 228.879 71.2325C229.011 71.2592 229.117 71.2592 229.223 71.2592C229.329 71.2592 229.435 71.2325 229.541 71.1793C229.779 71.0727 229.912 70.8064 229.991 70.3804L230.389 67.6375Z" fill="#202020"/>
<path d="M232.004 67.9033L233.249 68.0897C233.488 68.1164 233.7 68.1963 233.859 68.3028C234.017 68.4093 234.15 68.5158 234.203 68.649C234.335 68.9153 234.362 69.1816 234.309 69.5011C234.229 70.087 233.912 70.4332 233.435 70.5131C233.514 70.593 233.594 70.7261 233.647 70.9125L234.044 72.4038L233.514 72.3239L233.143 70.9125C233.117 70.7794 233.037 70.6729 232.958 70.593C232.879 70.5397 232.746 70.4864 232.587 70.4598L232.11 70.3799L231.846 72.0576L231.342 71.9777L232.004 67.9033ZM232.19 69.9805L232.932 70.087C233.196 70.1403 233.408 70.087 233.567 69.9538C233.726 69.8207 233.806 69.6343 233.859 69.4212C233.885 69.1816 233.859 68.9952 233.753 68.8087C233.647 68.6223 233.461 68.5158 233.196 68.4892L232.455 68.3827L232.19 69.9805Z" fill="#202020"/>
<path d="M236.454 68.5693L237.116 68.6759L237.832 72.9633L237.328 72.8834L237.116 71.6052L235.554 71.3655L234.971 72.5372L234.468 72.4573L236.454 68.5693ZM236.719 69.0487L235.739 70.966L237.064 71.1791L236.719 69.0487Z" fill="#202020"/>
<path d="M241.672 69.3689L242.176 69.4488L241.54 73.5232L241.01 73.4433L239.553 69.9015L239.05 73.1504L238.547 73.0705L239.183 68.9961L239.712 69.076L241.169 72.6178L241.672 69.3689Z" fill="#202020"/>
<path d="M244.718 70.1673C244.374 70.1141 244.083 70.1673 243.897 70.3271C243.712 70.4603 243.579 70.7266 243.473 71.0994C243.42 71.2592 243.394 71.4456 243.367 71.6853C243.341 71.9249 243.314 72.1113 243.288 72.2978C243.288 72.4575 243.288 72.6173 243.314 72.7771C243.341 72.9369 243.394 73.07 243.447 73.1499C243.579 73.363 243.844 73.4961 244.188 73.5494C244.771 73.6293 245.116 73.3896 245.221 72.7771L245.619 72.857C245.539 73.2564 245.354 73.576 245.116 73.7624C244.877 73.9488 244.533 74.0287 244.109 73.9488C243.5 73.8423 243.103 73.6026 242.917 73.1765C242.838 72.9635 242.785 72.7505 242.785 72.4842C242.785 72.2445 242.811 71.9249 242.864 71.5787C242.917 71.2325 242.997 70.9396 243.076 70.6999C243.155 70.4603 243.288 70.2472 243.42 70.0875C243.712 69.7413 244.162 69.6347 244.771 69.7146C245.195 69.7679 245.46 69.9277 245.645 70.1407C245.804 70.3538 245.91 70.6467 245.884 70.9929H245.46C245.486 70.5135 245.248 70.2472 244.718 70.1673Z" fill="#202020"/>
<path d="M246.97 70.167L249.168 70.5132L249.115 70.9126L247.42 70.6463L247.208 72.0577L248.797 72.2974L248.744 72.6969L247.155 72.4572L246.917 73.9485L248.718 74.2148L248.665 74.6142L246.36 74.268L246.97 70.167Z" fill="#202020"/>
<path d="M225.78 76.4255L225.065 76.319L224.826 77.8369L224.323 77.757L224.959 73.6826L226.177 73.869C227.025 74.0022 227.396 74.4815 227.263 75.3337C227.131 76.1858 226.628 76.5587 225.78 76.4255ZM225.118 75.9195L225.807 76.0261C226.336 76.106 226.654 75.8397 226.76 75.2538C226.84 74.6679 226.628 74.3217 226.098 74.2418L225.409 74.1353L225.118 75.9195Z" fill="#202020"/>
<path d="M230.495 78.13C230.336 78.3164 230.15 78.4495 229.912 78.5028C229.674 78.5827 229.409 78.5827 229.091 78.5294C228.773 78.4762 228.508 78.3963 228.323 78.2631C228.111 78.13 227.978 77.9436 227.899 77.7305C227.82 77.5175 227.767 77.2778 227.767 77.0381C227.767 76.7985 227.767 76.5322 227.82 76.2392C227.873 75.9463 227.926 75.7066 227.978 75.5202C228.031 75.3338 228.111 75.1474 228.217 74.961C228.323 74.7746 228.429 74.6414 228.588 74.5349C228.879 74.2952 229.303 74.242 229.78 74.2952C230.415 74.4018 230.813 74.6681 230.998 75.1208C231.078 75.3338 231.13 75.5735 231.13 75.8132C231.13 76.0528 231.13 76.3458 231.078 76.6653C231.025 76.9849 230.972 77.2512 230.866 77.4908C230.76 77.7305 230.627 77.9436 230.495 78.13ZM229.17 78.1566C229.356 78.1832 229.541 78.1566 229.727 78.1033C229.912 78.0501 230.018 77.9436 230.124 77.7838C230.23 77.624 230.309 77.4642 230.389 77.2778C230.442 77.0914 230.495 76.8784 230.548 76.6121C230.574 76.3724 230.601 76.1327 230.601 75.9197C230.601 75.7066 230.574 75.5202 230.521 75.3604C230.415 74.9876 230.124 74.7746 229.7 74.7213C229.356 74.6681 229.064 74.7479 228.853 74.9344C228.588 75.174 228.402 75.6267 228.296 76.2659C228.19 76.905 228.243 77.3843 228.402 77.7039C228.535 77.9436 228.8 78.1033 229.17 78.1566Z" fill="#202020"/>
<path d="M231.739 78.8752L232.375 74.8008L232.878 74.8807L232.295 78.5556L233.832 78.7953L233.779 79.1947L231.739 78.8752Z" fill="#202020"/>
<path d="M235.103 75.2002L235.607 75.2801L234.971 79.3545L234.468 79.2746L235.103 75.2002Z" fill="#202020"/>
<path d="M238.149 75.9994C237.805 75.9461 237.514 75.9994 237.328 76.1592C237.143 76.2923 237.01 76.5586 236.904 76.9314C236.852 77.0912 236.825 77.2776 236.799 77.5173C236.772 77.757 236.746 77.9434 236.719 78.1298C236.719 78.2896 236.719 78.4493 236.746 78.6091C236.772 78.7689 236.825 78.9021 236.878 78.9819C237.01 79.195 237.275 79.3281 237.62 79.3814C238.202 79.4613 238.547 79.2216 238.653 78.6091L239.05 78.689C238.97 79.0885 238.785 79.408 238.547 79.5944C238.308 79.7808 237.964 79.8607 237.54 79.7808C236.931 79.6743 236.534 79.4347 236.348 79.0086C236.269 78.7955 236.216 78.5825 236.216 78.3162C236.216 78.0765 236.242 77.757 236.295 77.4108C236.348 77.0646 236.428 76.7716 236.507 76.532C236.587 76.2923 236.719 76.0793 236.852 75.9195C237.143 75.5733 237.593 75.4668 238.202 75.5467C238.626 75.5999 238.891 75.7597 239.076 75.9727C239.235 76.1858 239.341 76.4787 239.315 76.8249H238.891C238.918 76.3722 238.653 76.0793 238.149 75.9994Z" fill="#202020"/>
<path d="M240.957 80.2596L240.454 80.1798L240.665 78.7684L239.818 75.9189L240.321 75.9988L240.983 78.3157L242.334 76.2918L242.837 76.3717L241.142 78.8216L240.957 80.2596Z" fill="#202020"/>
</g>
</g>
<defs>
<clipPath id="clip0_87_584">
<rect width="303.5" height="165" fill="white"/>
</clipPath>
<clipPath id="clip1_87_584">
<rect width="248" height="165" fill="white" transform="translate(28 -2)"/>
</clipPath>
</defs>
</svg>
