<svg width="309" height="165" viewBox="0 0 309 165" fill="none" xmlns="http://www.w3.org/2000/svg">
<rect width="309" height="165" fill="white"/>
<g clip-path="url(#clip0_87_601)">
<path d="M254.673 120.89H75.0094C69.3266 120.89 64.682 123.702 64.682 127.143C64.682 129.519 66.9224 131.621 70.1736 132.659H54.3274C48.6446 132.686 44 135.499 44 138.94C44 142.38 48.6446 145.193 54.3274 145.193H59.8462C58.3162 146.285 57.36 147.705 57.36 149.235V151.747C57.36 155.188 62.0046 158 67.6874 158H244.673C250.356 158 255 155.188 255 151.747V149.235C255 145.794 250.356 142.981 244.673 142.981L232.625 143.118C233.553 143.118 235.029 142.681 236.04 141.807C237.788 140.251 237.87 137.902 237.023 135.963C236.477 134.707 235.575 133.697 233.39 133.314L254.673 133.396C260.355 133.396 265 130.584 265 127.143C265 123.702 260.355 120.89 254.673 120.89Z" fill="white"/>
<path d="M233.717 36.837C234.018 37.8747 234.619 38.9123 234.4 39.9773C234.127 41.3154 232.652 42.2711 232.652 43.6365C232.679 44.8653 233.881 45.7119 235.056 46.0942C236.204 46.4765 237.515 46.6403 238.417 47.4595C239.236 48.1968 239.591 49.3164 240.029 50.2995C240.493 51.3098 241.203 52.3475 242.296 52.5114C243.088 52.6479 243.853 52.2929 244.509 51.856C245.165 51.4191 245.766 50.8729 246.504 50.5725C247.241 50.2449 248.143 50.2176 248.744 50.7091C249.099 51.0095 249.29 51.4464 249.536 51.8287C250.274 52.9756 251.558 53.7675 252.924 53.8494C254.29 53.9313 255.684 53.2487 256.421 52.1018C257.159 50.9549 257.159 49.3437 256.367 48.2514C255.929 47.6234 255.301 47.1864 254.755 46.6676C254.208 46.1488 253.716 45.4934 253.662 44.7561C253.607 43.9096 254.154 43.1723 254.536 42.4077C254.919 41.6704 255.137 40.66 254.591 40.0319C254.072 39.4585 253.197 39.4858 252.487 39.1854C251.503 38.7485 250.984 37.6289 250.82 36.5639C250.629 35.4989 250.711 34.4066 250.465 33.3416C250.001 31.3482 248.416 29.7098 246.531 28.9179C244.646 28.0986 242.487 28.0713 240.493 28.5083C238.772 28.8906 235.876 29.6825 234.81 31.1844C233.717 32.7955 233.144 34.8709 233.717 36.837Z" fill="#249748"/>
<path d="M200.194 48.4701C200.276 48.4701 200.386 48.4428 200.468 48.4701C201.26 48.5794 201.615 49.1255 202.353 49.4805C202.681 49.6171 203.473 49.1255 203.582 49.8901C203.609 50.1632 203.637 50.8459 203.719 51.4466C203.828 52.2932 204.511 53.3035 205.167 54.0135C207.817 56.7989 211.177 58.765 214.538 60.6219C214.729 60.7311 214.92 60.8404 215.139 60.8404C215.521 60.8404 215.849 60.54 216.122 60.2669C217.379 58.9561 218.773 57.7546 220.248 56.7169C221.559 55.7885 223.007 54.942 224.619 54.6416C226.231 54.3685 228.007 54.7508 229.1 55.9523C229.92 56.8535 230.247 58.1642 230.002 59.3384C229.319 62.2876 224.974 63.0249 222.57 63.9534C220.275 64.8272 217.926 65.5372 215.549 66.056C215.248 66.1107 214.948 66.1926 214.647 66.138C214.319 66.0833 214.046 65.8922 213.8 65.701C210.385 63.3526 207.216 60.7038 204.074 57.9731C203.2 57.2358 202.844 56.1162 202.052 55.4335C201.533 54.9966 200.823 55.0239 200.249 54.7235C199.675 54.4231 199.019 53.877 198.582 53.3855C197.763 52.4297 198.063 51.1463 198.227 49.9994C198.255 49.7263 198.282 49.5351 198.446 49.3167C198.692 48.9617 199.101 48.8251 199.511 48.6886C199.703 48.5794 199.948 48.5248 200.194 48.4701Z" fill="#F5E3DD"/>
<path d="M223.144 62.9431C221.614 61.0316 220.112 59.1201 218.582 57.2086C218.691 57.3178 226.833 49.781 227.324 49.3714C229.237 47.7329 231.231 46.0126 233.635 45.3299C238.799 43.828 243.225 49.3714 240.083 53.9863C236.668 58.9835 231.095 63.1069 225.357 65.0184C225.221 65.0731 225.111 65.1004 224.975 65.0731C224.811 65.0458 224.674 64.8819 224.565 64.7454C224.1 64.1446 223.636 63.5438 223.144 62.9431Z" fill="#249748"/>
<path d="M230.493 137.628L230.575 143.636L227.105 143.69L227.023 137.027L230.493 137.628Z" fill="#ECD3B7"/>
<path d="M227.406 142.734L230.411 143.745L231.313 144.728L231.149 147.076L222.98 147.732C222.297 146.694 222.734 145.301 223.881 144.892L224.264 144.755L227.406 142.734Z" fill="#39B54A"/>
<path d="M255.492 131.866L257.787 137.382L254.618 138.775L252.049 132.658L255.492 131.866Z" fill="#ECD3B7"/>
<path d="M254.672 138.884C254.781 138.748 254.918 138.638 255.082 138.502C255.465 138.202 258.552 136.536 258.825 137.3C258.88 137.437 258.852 137.546 258.852 137.683C258.606 139.867 258.087 142.025 257.377 144.073C257.076 144.946 256.585 145.93 255.71 146.148C255.328 146.257 254.918 146.175 254.508 146.093C253.935 145.957 253.361 145.793 252.814 145.575C252.623 145.493 252.405 145.383 252.295 145.192C252.077 144.81 252.459 144.346 252.842 144.127C253.224 143.909 253.689 143.772 253.88 143.363C253.962 143.171 253.962 142.98 253.989 142.789C254.016 141.315 253.771 139.922 254.672 138.884Z" fill="#39B54A"/>
<path d="M233.69 109.802C234.837 115.154 238.088 118.977 241.558 122.91C245.547 127.415 249.29 132.112 252.76 137.028C254.262 136.372 255.765 135.744 257.268 135.089C256.011 127.579 252.541 120.698 249.864 113.598C248.006 108.655 246.476 103.44 246.394 98.1146C246.367 95.4658 246.968 93.0355 247.323 90.4686C247.733 87.2736 247.76 83.9967 248.143 80.8018C248.279 79.7368 248.334 78.4534 247.541 77.7434C247.186 77.443 246.722 77.3065 246.257 77.1972C229.127 73.8111 231.531 99.6438 233.69 109.802Z" fill="#249748"/>
<path d="M247.651 81.7849C247.651 78.5353 247.268 75.4223 246.695 73.0466C241.831 72.7735 236.313 73.3196 231.504 74.33C226.805 75.3131 223.854 76.3507 223.827 81.5938C223.772 91.2332 220.084 99.4527 218.499 108.71C217.57 114.089 219.182 118.896 220.931 123.893C222.953 129.6 224.674 135.416 226.067 141.315C227.706 141.315 229.318 141.288 230.958 141.288C232.57 133.86 231.914 126.132 232.05 118.513C232.132 113.216 232.679 107.809 234.564 102.839C236.64 97.3774 239.646 99.562 243.088 96.3943C246.449 93.3359 247.623 87.3829 247.651 81.7849Z" fill="#249748"/>
<path d="M242.132 44.7014C242.678 45.1383 243.143 45.6572 243.607 46.1487C244.017 46.6129 244.454 47.0772 244.864 47.5141C246.312 49.0979 247.022 51.4463 247.651 53.4671C250.929 64.1169 252.104 78.7536 249.973 89.895C241.913 90.605 232.597 88.5296 224.564 87.41C223.772 87.3008 222.898 87.1097 222.488 86.427C222.242 86.0174 222.242 85.4985 222.242 85.007C222.242 77.9344 223.69 70.343 225.056 63.3523C225.63 60.4031 226.34 57.4812 227.242 54.6413C228.198 51.6102 229.291 48.3606 231.559 46.0668C233.963 43.6091 238.607 42.4076 241.613 44.3191C241.804 44.4557 241.968 44.5649 242.132 44.7014Z" fill="#249748"/>
<path d="M241.23 46.1765C241.367 45.2207 241.531 44.265 241.667 43.2819C241.859 43.1727 242.05 43.0908 242.214 42.9542C245.574 40.7423 251.202 28.9456 242.241 26.2968C234.099 23.8937 234.537 35.3628 236.121 40.1416C236.394 40.9608 236.75 41.7254 237.296 42.4081C237.651 42.8723 237.733 42.7904 237.706 43.3092C237.651 43.8281 237.159 44.4015 237.05 44.9477C236.941 45.5211 236.968 46.1765 237.296 46.668C237.487 46.9684 237.788 47.1869 238.116 47.3507C238.607 47.6238 239.181 47.7603 239.755 47.6511C240.411 47.5692 241.148 46.8865 241.23 46.1765Z" fill="#F5E3DD"/>
<path d="M233.908 35.8539C234.4 37.3831 235.11 38.8304 235.985 40.1684C235.93 37.3558 236.258 34.5158 236.968 31.7851C237.023 31.5666 237.077 31.3482 236.968 31.157C236.859 30.9932 236.668 30.9112 236.476 30.8839C233.034 30.1193 233.034 33.1777 233.908 35.8539Z" fill="#249748"/>
<path d="M244.345 85.4719C244.291 85.4173 244.209 85.3354 244.181 85.2534C243.826 84.5161 244.072 83.9427 243.935 83.1508C243.881 82.7958 243.007 82.4408 243.553 81.9219C243.744 81.7308 244.318 81.3212 244.755 80.9389C245.383 80.3381 245.848 79.2185 246.039 78.2628C246.394 76.4332 245.329 71.1629 247.542 70.2617C252.733 68.1591 249.072 78.9728 248.99 79.9831C248.935 80.6658 249.372 81.2393 249.427 81.8673C249.509 82.4954 249.454 83.3692 249.29 83.9973C248.963 85.2261 247.76 85.7177 246.722 86.2365C246.476 86.373 246.285 86.455 246.039 86.455C245.602 86.455 245.274 86.1819 244.919 85.9361C244.7 85.8269 244.509 85.663 244.345 85.4719Z" fill="#F5E3DD"/>
<path d="M244.7 46.5587C244.919 46.8044 245.192 47.1594 245.547 47.5963C247.46 49.7809 248.662 53.3309 249.591 56.0343C251.585 61.7961 252.295 67.9949 251.612 74.0298C251.585 74.2483 251.558 74.494 251.367 74.6306C251.203 74.7671 250.957 74.7671 250.738 74.7398C249.372 74.6579 247.979 74.5486 246.613 74.4667C246.312 74.4394 246.012 74.4121 245.766 74.2483C245.274 73.9206 245.247 73.2379 245.247 72.6644C245.274 68.8687 244.837 65.1003 243.908 61.4138C243.471 59.6662 242.296 57.6181 242.159 55.8704C242.05 54.2866 242.733 52.4843 242.624 50.764C242.569 49.7263 242.487 48.1971 243.088 47.296C243.908 46.1217 244.236 46.0944 244.7 46.5587Z" fill="#249748"/>
<path d="M241.886 30.8022C243.279 31.1299 244.646 31.9218 245.329 33.2052C246.121 34.6798 245.848 36.5367 245.192 38.0932C244.536 39.6498 243.525 41.0151 242.788 42.5443C242.542 43.0905 242.323 43.7459 242.651 44.2647C242.979 44.7562 243.717 44.8381 244.263 44.5924C244.809 44.3466 245.192 43.8551 245.547 43.3636C247.077 41.3155 248.552 39.1582 249.427 36.7552C250.301 34.3521 250.52 31.6214 249.563 29.2457C248.416 26.3784 245.52 24.3031 242.433 24.1119C239.345 23.9208 236.231 25.6684 234.755 28.3718C234.346 29.1091 234.045 29.983 234.236 30.8295C234.427 31.676 235.22 32.4133 236.067 32.2768C237.078 32.1129 237.214 30.9933 238.007 30.6384C238.935 30.1741 240.903 30.5564 241.886 30.8022Z" fill="#249748"/>
<path d="M243.088 152.238L232.296 149.261C231.613 149.07 231.203 148.36 231.395 147.705L236.476 129.3L249.727 132.959L244.645 151.364C244.481 152.019 243.771 152.402 243.088 152.238Z" fill="#006837"/>
<path d="M168.502 131.676L159.759 129.273C158.502 128.918 157.792 127.634 158.12 126.405L162.901 109.011L176.152 112.67L171.37 130.065C171.043 131.293 169.731 132.031 168.502 131.676Z" fill="#006837"/>
<path d="M246.285 70.3162L199.593 57.4545C196.014 56.4714 192.162 58.028 190.004 61.3321L175.496 83.5057L163.584 95.8486C163.092 96.3401 162.764 96.9409 162.573 97.6235L158.284 113.134C157.683 115.319 158.94 117.585 161.125 118.213L245.93 142.408C248.143 143.036 250.438 141.752 251.039 139.54L255.164 124.603C255.301 124.057 255.356 123.484 255.274 122.937L252.76 104.805L252.514 104.751L252.541 79.0273C252.541 74.8493 250.001 71.3266 246.285 70.3162Z" fill="#006837"/>
<path d="M238.963 100.955L188.474 87.0553C185.851 86.318 184.758 83.0412 186.37 80.6108L197.271 64.1718C198.254 62.6699 200.003 61.9872 201.615 62.4241L241.121 73.2924C242.815 73.7567 243.963 75.3405 243.963 77.2247L244.045 96.6948C244.072 99.5348 241.531 101.665 238.963 100.955Z" fill="#F5F5F5"/>
<g opacity="0.14">
<path d="M243.963 92.3263C240.957 89.3498 237.788 86.5371 234.673 83.6698C230.767 80.0926 226.996 76.3515 223.117 72.7469C221.095 70.8627 219.073 68.9512 217.079 67.0397L201.533 62.7525C200.877 62.5613 200.167 62.5886 199.511 62.7525C199.539 62.7798 199.566 62.8071 199.566 62.8071C201.56 64.7732 203.582 66.712 205.604 68.6781C209.21 72.1735 212.762 75.7234 216.177 79.3826C219.565 83.0418 222.816 86.8375 226.286 90.4421C229.51 93.8282 232.816 97.1323 236.094 100.491L238.854 101.256C241.422 101.966 243.963 99.8085 243.963 96.9958V92.3263Z" fill="#D8D8D8"/>
<path d="M222.543 90.0874C219.018 86.3463 215.712 82.4141 212.133 78.7003C208.609 75.0411 204.948 71.4912 201.314 67.9412C200.03 66.6851 198.719 65.429 197.435 64.1455C197.353 64.2547 197.271 64.364 197.189 64.4732L192.162 72.0646C193.145 73.1569 194.183 74.2219 195.167 75.3142C200.932 81.7314 206.696 88.2032 212.98 94.1289L231.367 99.1808C228.389 96.177 225.439 93.1732 222.543 90.0874Z" fill="#D8D8D8"/>
</g>
<path d="M251.913 100.654L255 100.054C255.546 99.9444 256.147 100.026 256.639 100.299L259.809 102.047C260.601 102.484 261.093 103.331 261.065 104.232C261.038 105.406 260.164 106.389 258.989 106.553L254.836 107.154C254.454 107.208 254.071 107.181 253.716 107.044L251.558 106.307C250.547 105.979 249.891 105.024 249.918 103.959L249.946 102.948C250 101.829 250.82 100.873 251.913 100.654Z" fill="#006837"/>
<path d="M177.573 80.1741L175.223 78.0714C174.813 77.6891 174.267 77.4706 173.693 77.4433L170.059 77.3068C169.158 77.2795 168.311 77.7437 167.874 78.5356C167.3 79.546 167.546 80.8567 168.447 81.594L171.699 84.2155C171.999 84.4613 172.327 84.6252 172.709 84.7071L174.922 85.1713C175.961 85.3898 177.026 84.9255 177.545 83.9971L178.037 83.1233C178.611 82.1675 178.42 80.9387 177.573 80.1741Z" fill="#006837"/>
<path opacity="0.06" d="M253.634 130.147L251.039 139.513C250.438 141.725 248.143 143.009 245.93 142.381L161.125 118.186C158.94 117.558 157.683 115.292 158.284 113.107L160.879 104.833L253.634 130.147Z" fill="white"/>
<path opacity="0.1" d="M160.469 117.94L173.665 121.763L172.518 125.914L160.032 119.47L160.469 117.94Z" fill="#040504"/>
<path opacity="0.1" d="M233.799 139.049L246.995 142.872L245.848 147.05L233.389 140.578L233.799 139.049Z" fill="#040504"/>
<path d="M248.77 125.509C250.119 122.444 248.727 118.867 245.661 117.519C242.595 116.17 239.016 117.562 237.667 120.626C236.318 123.691 237.71 127.268 240.776 128.616C243.842 129.964 247.421 128.573 248.77 125.509Z" fill="#F5F5F5"/>
<path opacity="0.1" d="M244.728 127.17C245.875 126.951 246.995 126.432 247.733 125.531C247.487 126.624 246.667 127.579 245.629 127.962C245.274 128.098 244.891 128.18 244.536 128.235C244.126 128.289 243.744 128.344 243.334 128.344C242.241 128.289 241.203 127.716 240.575 126.815C240.766 127.115 241.995 127.197 242.296 127.224C243.088 127.306 243.908 127.306 244.728 127.17Z" fill="#040504"/>
<path d="M177.173 108.31C178.889 105.434 177.948 101.713 175.071 99.9979C172.195 98.2827 168.471 99.2231 166.755 102.098C165.039 104.974 165.98 108.695 168.857 110.41C171.734 112.126 175.457 111.185 177.173 108.31Z" fill="#F5F5F5"/>
<path opacity="0.1" d="M173.474 109.311C174.622 109.093 175.742 108.574 176.479 107.673C176.234 108.765 175.414 109.721 174.376 110.103C174.021 110.24 173.638 110.322 173.283 110.376C172.873 110.431 172.491 110.486 172.081 110.486C170.988 110.431 169.95 109.857 169.321 108.956C169.513 109.257 170.742 109.339 171.043 109.366C171.835 109.448 172.654 109.448 173.474 109.311Z" fill="#040504"/>
<path d="M137.329 29.308L138.613 25.5396L137.711 23.2185L135.58 23L135.198 25.5669L134.678 25.1846L133.777 25.4303L134.487 27.888L134.76 29.3353L137.329 29.308Z" fill="#E3C9A9"/>
<path d="M120.963 49.8977C121.673 49.5154 122.384 49.0785 123.121 48.7508C125.225 47.7678 127.302 46.7301 129.351 45.6378C130.607 44.9551 131.892 44.2451 132.738 43.0982C133.203 42.4428 133.531 41.7055 133.831 40.9682C135.416 37.036 136.7 32.9672 137.711 28.8438C136.864 28.4342 134.514 27.3146 133.722 28.0792C133.449 28.325 133.285 28.7073 133.148 29.035C132.465 30.7007 131.755 32.3391 131.045 33.9776C130.252 35.8072 129.405 37.6641 128.258 39.2752C128.094 39.4937 127.957 39.7121 127.711 39.8213C127.466 39.9579 127.192 40.0125 126.919 40.0398C122.712 40.6406 120.198 39.084 116.073 40.1217C115.144 40.3402 112.576 43.2074 111.974 43.972C111.51 44.5728 111.428 45.3647 111.373 46.102C111.319 47.0851 111.346 48.1228 111.811 49.0239C112.33 50.0616 113.395 50.7443 114.515 51.0173C115.636 51.3177 116.81 51.2358 117.958 51.0719C119.051 50.8808 120.007 50.4166 120.963 49.8977Z" fill="#D8D8D8"/>
<path d="M200.905 2.34863L192.599 27.089L202.271 27.6079L201.424 49.2353L211.533 23.4572L200.741 21.4637L200.905 2.34863Z" fill="#006837"/>
<path d="M227.242 28.127L213.554 37.4934L215.767 41.371L205.44 51.9935L220.084 42.7637L218.254 37.6845L227.242 28.127Z" fill="#006837"/>
<path d="M129.979 68.4313L128.804 70.7797L132.465 73.1827L134.815 71.7901L134.897 69.4416L132.793 69.4963L133.012 69.0593L133.695 68.8409L133.449 68.1582L129.979 68.4313Z" fill="#F3E7E2"/>
<path d="M107.849 41.3702C108.341 40.6329 108.969 40.0321 109.734 39.6225C110.144 39.4041 110.609 39.2402 111.073 39.2402C111.565 39.2402 112.029 39.4041 112.494 39.6225C118.149 42.4625 118.395 51.6924 118.45 57.0992C118.477 60.5672 123.285 62.4514 125.826 64.281C127.001 65.1002 130.853 67.0664 130.853 68.3771C130.853 68.6502 129.351 71.5721 129.405 71.5994C126.1 70.3159 122.821 69.0325 119.515 67.7491C117.084 66.7933 114.515 66.2745 112.111 65.2368C111.21 64.8545 110.253 64.3629 109.68 63.571C109.242 62.943 109.051 62.1784 108.86 61.4138C107.986 57.6727 107.33 53.9316 106.893 50.1085C106.674 48.197 106.401 46.2582 106.729 44.3467C106.893 43.2817 107.275 42.244 107.849 41.3702Z" fill="#EFDFD8"/>
<path d="M102.877 39.022C102.822 39.022 102.767 39.022 102.74 39.0493C101.483 39.1586 100.199 39.6228 99.2975 40.5239C98.833 40.9881 98.5052 41.5616 98.2046 42.1077C97.385 43.637 96.8113 45.2481 96.2102 46.8592C94.4343 51.5561 93.041 56.3895 92.0028 61.2775C91.511 63.6532 88.5603 90.5509 90.3089 90.4144C101.019 89.7317 111.729 89.3494 122.466 89.3221C123.176 75.368 123.832 60.9771 118.887 47.8969C118.122 45.8761 117.193 43.8554 115.772 42.217C112.685 38.7763 107.193 38.6124 102.877 39.022Z" fill="#D8D8D8"/>
<path d="M110.335 143.691V145.548L115.062 147.896L117.439 145.548L115.062 143.172H114.761L114.679 143.691H110.335Z" fill="#249748"/>
<path d="M98.6692 143.172H98.3413L95.9917 145.548L98.3413 147.896L103.068 145.548V143.691H98.7238L98.6692 143.172Z" fill="#249748"/>
<path d="M120.198 87.4099C117.521 86.618 114.652 85.4165 111.865 85.4438C111.565 85.4438 111.264 85.4438 110.991 85.4711C110.745 85.4984 110.499 85.4984 110.226 85.5257C108.368 85.6623 106.265 85.8807 104.079 86.1538C103.97 86.1538 103.86 86.1811 103.751 86.1811C100.964 86.7819 99.1337 87.0276 97.9589 87.0823C96.8115 87.3826 95.7186 87.7649 94.6804 88.2565C94.1613 88.5022 93.6969 88.7753 93.2324 89.0757L93.2051 92.1068L98.5327 143.718H102.904V144.236H102.931L107.74 109.611L107.767 109.42L110.39 144.236H110.417V143.718H114.816L120.39 104.941L120.198 87.4099Z" fill="#39B54A"/>
<path d="M111.209 25.3954C111.783 26.515 112.002 27.7984 112.002 29.0819C112.002 29.4095 112.002 29.8191 112.248 30.0103C112.521 30.2288 112.248 30.693 112.466 30.4199C112.685 30.1468 113.477 29.1911 113.532 28.8361C113.641 27.9896 113.696 27.143 113.668 26.3238C113.641 25.5865 113.532 24.8219 113.095 24.2485C112.821 23.8935 112.466 23.6477 112.111 23.4019C111.592 23.0469 111.073 22.6919 110.472 22.5554C109.434 22.3096 108.778 22.6373 109.652 23.4565C110.308 23.9754 110.827 24.6035 111.209 25.3954Z" fill="#249748"/>
<path d="M103.97 39.3765C105.418 39.5949 106.838 39.8134 108.286 40.0045C108.56 38.7484 108.778 37.465 108.86 36.1815C110.117 36.0177 111.62 35.69 112.139 34.3792C112.303 33.9696 112.33 33.5054 112.357 33.0685C112.466 31.2116 112.576 29.3547 112.685 27.4978C112.712 26.8424 112.767 26.187 112.576 25.5863C112.248 24.5213 111.319 23.8386 110.39 23.4017C108.013 22.2821 105.199 22.1729 102.904 23.4836C102.303 23.8386 101.702 24.3028 101.319 24.9309C100.746 25.914 100.746 27.1974 100.773 28.3716C100.8 29.4639 100.8 30.5562 100.828 31.6485C100.855 32.9046 100.964 34.3519 101.893 35.0619C102.385 35.4442 103.041 35.5261 103.451 36.0177C104.161 36.8369 103.724 38.2296 103.97 39.3765Z" fill="#EACDB0"/>
<path d="M112.821 32.3315C112.821 31.9765 112.712 30.9661 112.193 31.5669C112.057 31.7307 112.002 31.9492 111.975 32.1677C111.947 32.3861 111.947 32.6046 111.865 32.823C111.674 33.2873 111.155 33.4784 110.69 33.4511C110.499 33.4511 110.308 33.3965 110.171 33.2873C110.007 33.178 109.898 33.0415 109.789 32.8776C109.516 32.5227 109.242 32.1404 108.942 31.7854C108.45 31.1573 107.439 31.3757 106.756 31.4304C105.964 31.485 105.144 31.7034 104.489 32.195C104.434 32.2496 104.352 32.3042 104.297 32.3588C104.133 32.4953 103.969 32.6046 103.778 32.6865C103.15 32.9596 102.412 32.6046 102.002 32.0038C101.811 31.7307 101.647 31.4031 101.347 31.3211C101.101 31.2665 100.855 31.4304 100.746 31.6488C100.609 31.8673 100.554 32.1404 100.527 32.4134C100.418 33.3692 100.5 34.3522 100.855 35.2261C101.647 37.1103 103.341 37.438 105.09 37.4926C105.773 37.5199 106.456 37.5199 107.139 37.5472C108.395 37.5745 109.707 37.6018 110.8 36.9191C111.756 36.3184 112.357 35.2534 112.658 34.1065C112.74 33.5603 112.821 32.9323 112.821 32.3315ZM108.122 34.7072C107.439 35.1168 106.729 35.1168 105.991 34.8438C105.691 34.7345 105.855 34.2157 106.155 34.3249C106.756 34.5434 107.33 34.5707 107.876 34.2157C108.177 34.0519 108.395 34.5434 108.122 34.7072Z" fill="#249748"/>
<path d="M113.586 22.2825C113.723 21.8456 113.832 21.3814 113.914 20.9171C113.477 21.0537 113.013 21.0537 112.576 20.9718C112.576 20.6987 112.603 20.4256 112.603 20.1798C112.603 19.9614 109.652 19.661 109.434 19.6064C107.193 19.306 105.144 19.0056 103.041 20.1252C101.237 21.081 100.063 22.5829 99.6801 24.6036C99.3249 26.5424 99.8167 29.1093 100.855 30.7751C100.882 30.2562 100.636 29.0274 100.8 28.5359C100.91 28.0443 101.101 27.5801 101.347 27.1432C101.866 26.2967 102.603 25.5867 103.45 25.0952C104.816 24.3305 106.374 23.9482 107.904 23.8117C109.324 23.6752 111.046 23.5933 112.412 24.0302C113.067 24.2486 113.177 24.4125 113.614 23.7571C113.696 23.6479 114.324 22.2552 114.27 22.2552C114.051 22.3098 113.805 22.3098 113.586 22.2825Z" fill="#249748"/>
<path d="M63.7529 113.489L67.5778 103.522L67.7964 103.412C67.7964 102.402 67.8237 101.392 67.8237 100.381C67.8784 95.0563 67.933 89.7313 67.9603 84.3791C68.015 79.6823 66.567 72.3912 71.7033 69.9335L120.581 46.5858C126.018 43.9916 132.52 44.9201 137.328 48.9615L154.022 63.0521L154.841 62.6698L173.665 59.9937C180.742 60.0483 187.189 64.1444 190.249 70.5343L194.839 80.1465L70.7744 139.458L64.2447 125.804C62.4142 121.927 62.2229 117.476 63.7529 113.489Z" fill="#249748"/>
<path d="M107.658 82.6856L75.0637 98.2507L73.7523 76.4868C73.6976 75.3945 74.2441 74.4115 75.2003 73.9746L98.2319 62.9697L107.658 82.6856Z" fill="#F5F5F5"/>
<path d="M103.806 60.321L122.493 51.3915C126.455 49.5073 131.209 50.19 134.706 53.1392L147.301 63.789L113.231 80.0642L103.806 60.321Z" fill="#F5F5F5"/>
<g opacity="0.2">
<path d="M74.9543 81.3476C74.6265 81.7846 74.2986 82.2215 73.9981 82.6584L73.6429 76.7054C73.5883 75.6131 74.1347 74.6301 75.0909 74.1931L83.0687 70.3701C80.3639 74.0293 77.6591 77.6885 74.9543 81.3476Z" fill="#D8D8D8"/>
<path d="M76.4022 85.9896C80.8282 79.9001 85.3908 73.2098 89.7075 67.0383L97.2481 63.5703C94.2155 70.4244 89.5982 77.4424 85.5547 83.6958C83.1232 87.4642 80.555 91.1507 77.8502 94.7006C76.9486 95.8748 75.9924 96.9944 75.0088 98.1413L74.4351 88.7203C75.0908 87.8192 75.7465 86.8907 76.4022 85.9896Z" fill="#D8D8D8"/>
<path d="M115.307 69.305C117.056 66.4651 118.941 63.7343 120.881 61.0309C122.848 58.3002 124.842 55.5422 127.028 53.0026C127.766 52.1561 128.503 51.3641 129.241 50.5449C131.181 50.8999 133.039 51.7738 134.651 53.1391L134.76 53.2483C132.875 56.5525 130.962 59.8567 129.132 63.1882C126.4 68.1035 122.875 72.5 119.569 77.033L113.204 80.0641L111.482 76.4869C112.794 74.0838 113.914 71.5988 115.307 69.305Z" fill="#D8D8D8"/>
</g>
<path opacity="0.1" d="M147.875 102.621C147.492 102.129 147.164 101.583 146.891 100.982C144.159 95.2476 147.41 87.9565 154.186 84.7343C156.836 83.4781 159.623 83.0139 162.191 83.2597C158.421 86.1269 155.743 89.9773 154.049 94.1553C153.175 96.2853 152.71 98.3333 152.546 100.354L147.875 102.621Z" fill="#040504"/>
<path opacity="0.1" d="M83.6428 133.313C83.2603 132.795 82.9325 132.276 82.6592 131.675C79.9271 125.94 83.0417 118.731 89.6534 115.564C92.2489 114.335 94.9537 113.898 97.4946 114.171C93.8336 116.984 91.2381 120.807 89.6261 124.93C88.8065 127.033 88.342 129.081 88.2054 131.074L83.6428 133.313Z" fill="#040504"/>
<path d="M170.476 102.966C175.192 98.2527 175.192 90.6106 170.476 85.8971C165.761 81.1836 158.115 81.1836 153.399 85.8971C148.683 90.6106 148.683 98.2527 153.399 102.966C158.115 107.68 165.761 107.68 170.476 102.966Z" fill="#006837"/>
<path d="M168.36 96.8542C169.693 93.311 167.9 89.3585 164.355 88.0261C160.81 86.6936 156.856 88.4857 155.523 92.0289C154.19 95.572 155.983 99.5245 159.528 100.857C163.073 102.189 167.027 100.397 168.36 96.8542Z" fill="#249748"/>
<path opacity="0.1" d="M162.928 99.2619C161.698 99.7262 160.305 99.89 159.076 99.4531C159.95 100.354 161.316 100.791 162.545 100.573C162.955 100.491 163.365 100.354 163.775 100.19C164.185 100.027 164.622 99.8354 165.004 99.5896C166.015 98.907 166.698 97.7327 166.753 96.5039C166.726 96.9135 165.633 97.7054 165.332 97.8966C164.595 98.4427 163.775 98.9343 162.928 99.2619Z" fill="#040504"/>
<path d="M100.685 136.838C107.116 135.073 110.899 128.432 109.134 122.004C107.368 115.576 100.723 111.796 94.2923 113.56C87.861 115.324 84.0786 121.966 85.844 128.394C87.6093 134.822 94.254 138.602 100.685 136.838Z" fill="#006837"/>
<path d="M103.751 127.972C105.279 124.509 103.708 120.463 100.243 118.936C96.7775 117.409 92.7297 118.979 91.2019 122.442C89.6741 125.906 91.2448 129.952 94.7102 131.479C98.1757 133.006 102.223 131.436 103.751 127.972Z" fill="#249748"/>
<path opacity="0.1" d="M98.4504 130.036C97.221 130.501 95.8276 130.664 94.5981 130.228C95.4724 131.129 96.8385 131.566 98.0679 131.347C98.4777 131.265 98.8875 131.129 99.2974 130.965C99.7072 130.801 100.144 130.61 100.527 130.364C101.538 129.681 102.221 128.507 102.275 127.278C102.248 127.688 101.155 128.48 100.855 128.671C100.144 129.217 99.3247 129.709 98.4504 130.036Z" fill="#040504"/>
<path opacity="0.25" d="M120.745 86.4268L125.007 84.3788C125.471 84.1603 125.662 83.6142 125.444 83.1499L125.034 82.2761C124.815 81.8119 124.269 81.6207 123.805 81.8392L119.542 83.8872C119.078 84.1057 118.887 84.6518 119.105 85.1161L119.515 85.9899C119.734 86.4541 120.28 86.6453 120.745 86.4268Z" fill="#040504"/>
<path d="M155.88 67.8312L166.18 58.3009L170.933 63.4347L174.321 52.6483L182.108 56.9356L184.239 53.0306L173.447 49.6445L169.185 57.4271L165.305 55.2971L152 65.7012L155.88 67.8312Z" fill="#249748"/>
<path d="M96.8661 74.166L94.3799 75.0398L95.3088 79.2998L97.9863 79.9552L99.6802 78.3167L98.1502 76.8967L98.6146 76.7329L99.243 77.0606L99.5436 76.4325L96.8661 74.166Z" fill="#EBCEB0"/>
<path d="M100.008 39.3767C100.855 39.1855 101.757 39.1855 102.576 39.4586C103.013 39.5951 103.45 39.7863 103.778 40.114C104.134 40.4417 104.352 40.9059 104.516 41.3701C106.565 47.3504 100.281 54.1226 96.5383 58.0002C94.134 60.4852 96.2377 65.2094 96.7841 68.2951C97.03 69.7151 98.4234 73.8112 97.5218 74.7396C97.3306 74.9308 94.216 75.9684 94.2433 76.0231C92.7953 72.8008 91.3473 69.5785 89.8992 66.3563C88.8337 63.9805 87.3584 61.8233 86.3475 59.3929C85.965 58.4645 85.6372 57.4814 85.8011 56.4983C85.9104 55.7337 86.3202 55.0511 86.73 54.3957C88.7244 51.0915 90.8828 47.9785 93.2324 44.9201C94.4072 43.3908 95.582 41.8343 97.1393 40.6874C98.0136 40.0594 98.9972 39.5951 100.008 39.3767Z" fill="#D8D8D8"/>
<path d="M88.0958 28.6454C87.7406 27.0615 88.5876 25.6416 90.0903 25.3139C91.6749 24.9589 92.959 25.8873 93.3141 27.4711C93.6693 29.0277 92.9043 30.4476 91.3197 30.8026C89.7897 31.1576 88.451 30.2019 88.0958 28.6454ZM87.7953 22.0643L82.3584 0.955755L86.6205 0L90.8006 21.3816L87.7953 22.0643Z" fill="#249748"/>
</g>
<defs>
<clipPath id="clip0_87_601">
<rect width="221" height="158" fill="white" transform="translate(44)"/>
</clipPath>
</defs>
</svg>
