<svg width="214" height="165" viewBox="0 0 214 165" fill="none" xmlns="http://www.w3.org/2000/svg">
<path d="M124.768 180.963C106.45 181.325 84.3198 175.991 72.4131 160.873C54.4146 138.03 32.3052 143.206 15.8616 96.0353C13.4291 89.1617 11.7508 82.044 10.8561 74.8077C10.4297 71.2641 10.2291 67.697 10.2554 64.1279C10.4982 32.6763 29.0633 8.96093 53.8821 -2.23009C86.5222 -16.9527 111.567 -0.0276747 126.818 11.3763C142.068 22.7804 185.235 26.7123 201.764 72.9504C204.317 80.0009 206.048 87.3226 206.923 94.7701C208.848 111.768 205.841 131.018 195.996 145.409C195.259 146.491 194.479 147.539 193.674 148.587C177.891 168.881 149.766 180.469 124.768 180.963Z" fill="#92E3A9"/>
<path opacity="0.8" d="M124.768 180.963C106.45 181.325 84.3198 175.991 72.4131 160.873C54.4146 138.03 32.3052 143.206 15.8616 96.0353C13.4291 89.1617 11.7508 82.044 10.8561 74.8077C10.4297 71.2641 10.2291 67.697 10.2554 64.1279C10.4982 32.6763 29.0633 8.96093 53.8821 -2.23009C86.5222 -16.9527 111.567 -0.0276747 126.818 11.3763C142.068 22.7804 185.235 26.7123 201.764 72.9504C204.317 80.0009 206.048 87.3226 206.923 94.7701C208.848 111.768 205.841 131.018 195.996 145.409C195.259 146.491 194.479 147.539 193.674 148.587C177.891 168.881 149.766 180.469 124.768 180.963Z" fill="white"/>
<path d="M165.119 2.85547C163.616 3.86139 162.477 5.32447 161.87 7.02821C161.263 8.73195 161.22 10.5858 161.749 12.3155C162.277 14.0452 163.349 15.5589 164.804 16.6325C166.26 17.7061 168.022 18.2826 169.831 18.2767C171.228 18.2808 172.603 17.9336 173.831 17.267" stroke="#263238" stroke-width="0.977064" stroke-linecap="round" stroke-linejoin="round"/>
<path d="M175.586 16.0017C177.053 14.6305 177.981 12.7805 178.204 10.7852C178.427 8.78995 177.93 6.78064 176.802 5.11952C175.675 3.4584 173.991 2.25475 172.054 1.72556C170.117 1.19637 168.055 1.37646 166.24 2.23335" stroke="#263238" stroke-width="0.977064" stroke-linecap="round" stroke-linejoin="round"/>
<path d="M169.831 20.8721V26.6998" stroke="#263238" stroke-width="0.977064" stroke-linecap="round" stroke-linejoin="round"/>
<path d="M169.831 -6.09863V-0.270953" stroke="#263238" stroke-width="0.977064" stroke-linecap="round" stroke-linejoin="round"/>
<path d="M159.718 20.415L158.231 21.8975" stroke="#263238" stroke-width="0.977064" stroke-linecap="round" stroke-linejoin="round"/>
<path d="M162.354 17.7744L160.587 19.5466" stroke="#263238" stroke-width="0.977064" stroke-linecap="round" stroke-linejoin="round"/>
<path d="M181.426 -1.29785L177.303 2.82583" stroke="#263238" stroke-width="0.977064" stroke-linecap="round" stroke-linejoin="round"/>
<path d="M180.4 10.2969H186.232" stroke="#263238" stroke-width="0.977064" stroke-linecap="round" stroke-linejoin="round"/>
<path d="M153.43 10.2969H159.262" stroke="#263238" stroke-width="0.977064" stroke-linecap="round" stroke-linejoin="round"/>
<path d="M180.332 20.8027L181.426 21.8976" stroke="#263238" stroke-width="0.977064" stroke-linecap="round" stroke-linejoin="round"/>
<path d="M177.303 17.7744L179.825 20.2921" stroke="#263238" stroke-width="0.977064" stroke-linecap="round" stroke-linejoin="round"/>
<path d="M160.105 0.576172L162.354 2.82545" stroke="#263238" stroke-width="0.977064" stroke-linecap="round" stroke-linejoin="round"/>
<path d="M158.231 -1.29785L159.309 -0.220072" stroke="#263238" stroke-width="0.977064" stroke-linecap="round" stroke-linejoin="round"/>
<g opacity="0.3">
<path d="M136.394 15.1463C136.394 15.0654 136.394 14.9802 136.394 14.8864C136.435 13.9861 136.216 13.0929 135.763 12.3139C135.31 11.5349 134.641 10.9031 133.838 10.4944C130.477 8.5433 128.526 10.4944 127.55 12.2282C126.575 13.962 125.058 11.1462 122.673 11.4699C120.287 11.7937 120.398 14.3965 119.746 15.8066C119.094 17.2167 117.688 15.3806 115.844 15.7001C113.999 16.0196 113.893 17.1059 113.569 17.5404C113.245 17.9749 110.306 16.9142 108.678 17.7662C107.644 18.3641 106.784 19.2235 106.186 20.2583H141.745C141.745 20.2583 142.171 17.6597 140.769 16.6842C139.508 15.7981 136.641 17.1996 136.394 15.1463Z" stroke="black" stroke-width="0.977064" stroke-linecap="round" stroke-linejoin="round"/>
<path d="M119.895 18.3926C119.774 18.4207 119.661 18.4777 119.567 18.5587C119.107 18.9592 119.107 19.2446 119.107 19.2446" stroke="black" stroke-width="0.977064" stroke-linecap="round" stroke-linejoin="round"/>
<path d="M127.75 15.0234C127.431 15.7178 127.154 16.4761 126.502 16.7828C125.569 17.2088 124.696 16.2333 123.84 16.0118C123.596 15.9325 123.333 15.931 123.088 16.0073C122.843 16.0836 122.628 16.234 122.472 16.4378C122.089 16.8638 122.08 17.8819 121.573 18.1673C121.261 18.2869 120.927 18.3391 120.594 18.3207" stroke="black" stroke-width="0.977064" stroke-linecap="round" stroke-linejoin="round"/>
<path d="M138.332 18.226C138.307 18.1621 138.281 18.1025 138.251 18.0428C137.565 16.6754 135.951 17.7744 134.958 17.391C134.072 17.0502 134.362 15.653 134.243 14.9245C134.013 13.5144 132.241 12.4366 130.856 12.6539C129.826 12.8272 128.895 13.3693 128.236 14.179" stroke="black" stroke-width="0.977064" stroke-linecap="round" stroke-linejoin="round"/>
<path d="M138.613 19.4703C138.587 19.2269 138.547 18.9851 138.494 18.7461" stroke="black" stroke-width="0.977064" stroke-linecap="round" stroke-linejoin="round"/>
</g>
<g opacity="0.3">
<path d="M71.0115 31.636C70.9934 31.4948 70.9849 31.3525 70.986 31.21C70.9476 28.0363 69.7676 25.8382 66.8921 24.1683C61.5075 21.0414 58.3721 24.1683 56.8172 26.95C55.2623 29.7318 52.8213 25.212 48.9958 25.7317C45.1704 26.2514 45.3493 30.4177 44.3098 32.684C43.2704 34.9503 41.0083 31.9896 38.0519 32.5093C35.0955 33.0291 34.9251 34.7671 34.4053 35.4615C33.8856 36.1559 29.1911 34.4221 26.584 35.8108C24.9231 36.7673 23.5445 38.1458 22.5881 39.8067H79.5784C79.5784 39.8067 80.2728 35.6404 78.015 34.0728C75.9915 32.6755 71.3992 34.929 71.0115 31.636Z" stroke="black" stroke-width="0.977064" stroke-linecap="round" stroke-linejoin="round"/>
<path d="M44.5569 36.8379C44.3623 36.8847 44.1813 36.9767 44.0287 37.1063C43.296 37.7495 43.296 38.2053 43.296 38.2053" stroke="black" stroke-width="0.977064" stroke-linecap="round" stroke-linejoin="round"/>
<path d="M57.158 31.4404C56.6511 32.5523 56.2038 33.7664 55.1558 34.2563C53.6648 34.9549 52.2675 33.3787 50.8958 33.0209C50.5063 32.8945 50.0873 32.8909 49.6957 33.0106C49.304 33.1302 48.9586 33.3673 48.7062 33.6897C48.0885 34.4011 48.0757 36.0072 47.262 36.463C46.7619 36.6574 46.2257 36.7417 45.6901 36.7101" stroke="black" stroke-width="0.977064" stroke-linecap="round" stroke-linejoin="round"/>
<path d="M74.1085 36.5736C74.0659 36.4714 74.0233 36.3734 73.9765 36.2797C72.8817 34.0858 70.2916 35.8537 68.6983 35.236C67.284 34.6907 67.7484 32.4542 67.5567 31.2827C67.1903 29.0207 64.3489 27.2954 62.1252 27.6447C60.4766 27.9222 58.9852 28.7898 57.9291 30.0857" stroke="black" stroke-width="0.977064" stroke-linecap="round" stroke-linejoin="round"/>
<path d="M74.5558 38.5802C74.5178 38.1919 74.4552 37.8063 74.3684 37.4258" stroke="black" stroke-width="0.977064" stroke-linecap="round" stroke-linejoin="round"/>
</g>
<path d="M19.2142 102.817C32.7993 89.7347 64.3702 59.6974 67.7441 59.6974C72.0723 59.6974 100.789 80.5459 100.789 80.5459C100.789 80.5459 144.062 41.9929 149.174 42.3848C154.286 42.7767 203.463 96.6743 203.463 96.6743" stroke="#B2B2B2" stroke-width="0.977064" stroke-linecap="round" stroke-linejoin="round"/>
<path d="M124.019 61.0775L140.731 54.3936L143.794 63.3055L147.138 61.0775L149.647 64.1404L153.268 58.8495L166.917 75.0077L167.194 62.4705L171.092 64.9754L171.373 62.4705" stroke="#B2B2B2" stroke-width="0.977064" stroke-linecap="round" stroke-linejoin="round"/>
<path d="M51.8713 72.4989L58.2784 70.5479L58.5553 73.3339L64.6854 71.3871L63.5693 78.6291L74.4323 71.664L82.7904 78.071L83.3485 74.45L85.8534 76.3968L88.6394 71.9409" stroke="#B2B2B2" stroke-width="0.977064" stroke-linecap="round" stroke-linejoin="round"/>
<path d="M95.4682 91.9844C95.4682 91.8097 95.3404 91.682 95.2126 91.7075L87.8982 93.2752C87.6383 93.3306 87.5361 92.8492 87.7746 92.7129L95.1444 88.5551C95.1905 88.5222 95.227 88.4777 95.2502 88.426C95.2734 88.3744 95.2825 88.3175 95.2765 88.2612C94.9698 82.949 94.4969 77.1213 93.8792 71.1743C93.8792 71.0082 93.7429 70.8931 93.6193 70.923L87.1484 72.5844C86.9098 72.644 86.782 72.2308 86.9823 72.0519L93.2232 66.3775C93.2602 66.3398 93.2879 66.294 93.3042 66.2438C93.3204 66.1935 93.3248 66.1401 93.3169 66.0879C92.9846 63.2166 92.6182 60.3454 92.2221 57.5167L91.7109 54.6924C91.681 54.5134 91.5362 54.4155 91.4127 54.4879L87.6468 56.5625C87.421 56.6861 87.2208 56.3112 87.404 56.0811L91.1528 51.0884C91.1807 51.0494 91.2004 51.0051 91.2107 50.9582C91.2209 50.9114 91.2215 50.8629 91.2124 50.8158C90.4627 46.1638 89.6362 41.7377 88.7416 37.7546C88.699 37.5672 88.5372 37.4862 88.4136 37.5885L83.57 41.5673C83.3655 41.7377 83.144 41.4097 83.2761 41.1413L87.5361 33.1751C87.5801 33.0913 87.5907 32.9939 87.5659 32.9025C86.9161 30.3666 86.1123 27.8727 85.159 25.4347C85.1036 25.2984 84.9801 25.243 84.8778 25.3069L81.5082 27.2793C81.3335 27.3815 81.1503 27.1642 81.2057 26.9257L82.2664 22.6657C82.2664 22.589 82.3602 22.278 82.4411 22.0054L82.718 20.9106C81.9384 19.9521 81.1375 19.4238 80.3196 19.4238C79.5017 19.4238 78.5901 20.0202 77.7636 21.1278L79.0203 26.9342C79.0757 27.1728 78.8925 27.39 78.7179 27.2878L75.689 25.5114C75.662 25.4977 75.6323 25.4903 75.602 25.4897C75.5717 25.4891 75.5417 25.4955 75.5143 25.5082C75.4868 25.5209 75.4626 25.5397 75.4434 25.5631C75.4242 25.5865 75.4106 25.614 75.4036 25.6434C74.4278 28.1915 73.607 30.7963 72.9456 33.4435C72.9214 33.5345 72.9305 33.6312 72.9711 33.7161L76.9627 41.1583C77.1033 41.4225 76.8733 41.7505 76.6688 41.5844L72.166 37.8952C72.0424 37.7929 71.8806 37.8739 71.838 38.0613C70.9391 42.0998 70.1084 46.5813 69.3544 51.2886C69.3397 51.3844 69.3626 51.4821 69.4183 51.5613L72.8263 56.0982C72.9967 56.3282 72.8263 56.7031 72.5877 56.5795L69.086 54.6498C68.9582 54.5774 68.8091 54.6796 68.7835 54.8628C68.2212 58.6499 67.7143 62.5308 67.2627 66.4329C67.2558 66.4845 67.2607 66.5369 67.2769 66.5864C67.2931 66.6358 67.3203 66.6809 67.3564 66.7183L73.2267 72.0519C73.4227 72.2308 73.2949 72.644 73.0606 72.5844L67.0114 71.0167C66.8836 70.9826 66.7643 71.0976 66.7473 71.2638C66.1253 77.2618 65.6524 83.1321 65.35 88.4742C65.343 88.5306 65.3517 88.5878 65.375 88.6396C65.3982 88.6914 65.4353 88.7359 65.482 88.7681L72.4471 92.7001C72.6857 92.8364 72.5835 93.3178 72.3236 93.2624L65.4224 91.7842C65.2946 91.7544 65.1753 91.8864 65.1668 92.0611C65.0347 95.1325 64.9623 97.9782 64.9623 100.509C64.9623 102.11 64.9907 103.65 65.0475 105.127C65.0456 105.181 65.059 105.235 65.0861 105.282C65.1132 105.33 65.1529 105.369 65.2009 105.395L72.494 108.449C72.7283 108.547 72.6857 109.003 72.4429 109.024L65.563 109.634C65.4928 109.653 65.4324 109.697 65.3938 109.759C65.3551 109.821 65.341 109.894 65.3542 109.966C65.6586 114.209 66.4155 118.408 67.612 122.49C67.6546 122.635 67.7739 122.703 67.8847 122.656L72.1106 120.833C72.3279 120.739 72.494 121.093 72.3406 121.315L69.0562 125.971C69.0216 126.023 69.0011 126.084 68.9966 126.146C68.9921 126.209 69.0038 126.272 69.0306 126.329C71.8337 132.506 75.8466 135.177 80.3196 135.177C84.6946 135.177 88.6437 132.621 91.4425 126.691C91.4681 126.633 91.4792 126.57 91.4747 126.506C91.4702 126.443 91.4504 126.382 91.4169 126.329L87.8982 121.332C87.7448 121.11 87.8982 120.756 88.1282 120.85L92.7205 122.835C92.7493 122.845 92.7799 122.848 92.8101 122.845C92.8404 122.841 92.8695 122.831 92.8954 122.816C92.9214 122.8 92.9436 122.779 92.9605 122.753C92.9774 122.728 92.9885 122.699 92.9931 122.669C94.2161 118.549 94.9889 114.308 95.2978 110.021C95.311 109.95 95.2969 109.876 95.2582 109.814C95.2196 109.753 95.1592 109.708 95.089 109.689L87.7959 109.041C87.5531 109.02 87.5105 108.564 87.7448 108.466L95.3532 105.284C95.3923 105.265 95.4261 105.236 95.4514 105.2C95.4767 105.164 95.4927 105.123 95.498 105.08L95.6088 104.539C95.6088 104.539 95.6088 104.496 95.6088 104.475C95.6471 103.197 95.6684 101.897 95.6684 100.538C95.6769 97.9697 95.6045 95.09 95.4682 91.9844Z" fill="#92E3A9"/>
<path opacity="0.4" d="M95.4682 91.9844C95.4682 91.8097 95.3404 91.682 95.2126 91.7075L87.8982 93.2752C87.6383 93.3306 87.5361 92.8492 87.7746 92.7129L95.1444 88.5551C95.1905 88.5222 95.227 88.4777 95.2502 88.426C95.2734 88.3744 95.2825 88.3175 95.2765 88.2612C94.9698 82.949 94.4969 77.1213 93.8792 71.1743C93.8792 71.0082 93.7429 70.8931 93.6193 70.923L87.1484 72.5844C86.9098 72.644 86.782 72.2308 86.9823 72.0519L93.2232 66.3775C93.2602 66.3398 93.2879 66.294 93.3042 66.2438C93.3204 66.1935 93.3248 66.1401 93.3169 66.0879C92.9846 63.2166 92.6182 60.3454 92.2221 57.5167L91.7109 54.6924C91.681 54.5134 91.5362 54.4155 91.4127 54.4879L87.6468 56.5625C87.421 56.6861 87.2208 56.3112 87.404 56.0811L91.1528 51.0884C91.1807 51.0494 91.2004 51.0051 91.2107 50.9582C91.2209 50.9114 91.2215 50.8629 91.2124 50.8158C90.4627 46.1638 89.6362 41.7377 88.7416 37.7546C88.699 37.5672 88.5372 37.4862 88.4136 37.5885L83.57 41.5673C83.3655 41.7377 83.144 41.4097 83.2761 41.1413L87.5361 33.1751C87.5801 33.0913 87.5907 32.9939 87.5659 32.9025C86.9161 30.3666 86.1123 27.8727 85.159 25.4347C85.1036 25.2984 84.9801 25.243 84.8778 25.3069L81.5082 27.2793C81.3335 27.3815 81.1503 27.1642 81.2057 26.9257L82.2664 22.6657C82.2664 22.589 82.3602 22.278 82.4411 22.0054L82.718 20.9106C81.9384 19.9521 81.1375 19.4238 80.3196 19.4238C79.5017 19.4238 78.5901 20.0202 77.7636 21.1278L79.0203 26.9342C79.0757 27.1728 78.8925 27.39 78.7179 27.2878L75.689 25.5114C75.662 25.4977 75.6323 25.4903 75.602 25.4897C75.5717 25.4891 75.5417 25.4955 75.5143 25.5082C75.4868 25.5209 75.4626 25.5397 75.4434 25.5631C75.4242 25.5865 75.4106 25.614 75.4036 25.6434C74.4278 28.1915 73.607 30.7963 72.9456 33.4435C72.9214 33.5345 72.9305 33.6312 72.9711 33.7161L76.9627 41.1583C77.1033 41.4225 76.8733 41.7505 76.6688 41.5844L72.166 37.8952C72.0424 37.7929 71.8806 37.8739 71.838 38.0613C70.9391 42.0998 70.1084 46.5813 69.3544 51.2886C69.3397 51.3844 69.3626 51.4821 69.4183 51.5613L72.8263 56.0982C72.9967 56.3282 72.8263 56.7031 72.5877 56.5795L69.086 54.6498C68.9582 54.5774 68.8091 54.6796 68.7835 54.8628C68.2212 58.6499 67.7143 62.5308 67.2627 66.4329C67.2558 66.4845 67.2607 66.5369 67.2769 66.5864C67.2931 66.6358 67.3203 66.6809 67.3564 66.7183L73.2267 72.0519C73.4227 72.2308 73.2949 72.644 73.0606 72.5844L67.0114 71.0167C66.8836 70.9826 66.7643 71.0976 66.7473 71.2638C66.1253 77.2618 65.6524 83.1321 65.35 88.4742C65.343 88.5306 65.3517 88.5878 65.375 88.6396C65.3982 88.6914 65.4353 88.7359 65.482 88.7681L72.4471 92.7001C72.6857 92.8364 72.5835 93.3178 72.3236 93.2624L65.4224 91.7842C65.2946 91.7544 65.1753 91.8864 65.1668 92.0611C65.0347 95.1325 64.9623 97.9782 64.9623 100.509C64.9623 102.11 64.9907 103.65 65.0475 105.127C65.0456 105.181 65.059 105.235 65.0861 105.282C65.1132 105.33 65.1529 105.369 65.2009 105.395L72.494 108.449C72.7283 108.547 72.6857 109.003 72.4429 109.024L65.563 109.634C65.4928 109.653 65.4324 109.697 65.3938 109.759C65.3551 109.821 65.341 109.894 65.3542 109.966C65.6586 114.209 66.4155 118.408 67.612 122.49C67.6546 122.635 67.7739 122.703 67.8847 122.656L72.1106 120.833C72.3279 120.739 72.494 121.093 72.3406 121.315L69.0562 125.971C69.0216 126.023 69.0011 126.084 68.9966 126.146C68.9921 126.209 69.0038 126.272 69.0306 126.329C71.8337 132.506 75.8466 135.177 80.3196 135.177C84.6946 135.177 88.6437 132.621 91.4425 126.691C91.4681 126.633 91.4792 126.57 91.4747 126.506C91.4702 126.443 91.4504 126.382 91.4169 126.329L87.8982 121.332C87.7448 121.11 87.8982 120.756 88.1282 120.85L92.7205 122.835C92.7493 122.845 92.7799 122.848 92.8101 122.845C92.8404 122.841 92.8695 122.831 92.8954 122.816C92.9214 122.8 92.9436 122.779 92.9605 122.753C92.9774 122.728 92.9885 122.699 92.9931 122.669C94.2161 118.549 94.9889 114.308 95.2978 110.021C95.311 109.95 95.2969 109.876 95.2582 109.814C95.2196 109.753 95.1592 109.708 95.089 109.689L87.7959 109.041C87.5531 109.02 87.5105 108.564 87.7448 108.466L95.3532 105.284C95.3923 105.265 95.4261 105.236 95.4514 105.2C95.4767 105.164 95.4927 105.123 95.498 105.08L95.6088 104.539C95.6088 104.539 95.6088 104.496 95.6088 104.475C95.6471 103.197 95.6684 101.897 95.6684 100.538C95.6769 97.9697 95.6045 95.09 95.4682 91.9844Z" fill="white"/>
<path d="M80.9288 112.956L80.4602 86.2588L88.665 79.4556L80.3963 82.8167L80.2429 74.088L80.1748 74.2286L80.2259 72.9506L80.0044 60.4049L86.7991 54.1299L80.1364 58.13L79.9873 59.4592L79.7147 43.9102L79.5656 46.9731L78.8457 70.2114L78.5347 69.5937L73.2054 66.1261L78.8031 71.5703L77.8914 101.032L69.4737 98.387L77.7977 104.108L77.1715 124.343L74.002 123.713L77.0735 127.547L76.7284 138.576L76.311 161.665H81.7851L80.9714 115.376L87.6 113.847L80.9288 112.956Z" fill="#263238"/>
<path opacity="0.5" d="M80.9288 112.956L80.4602 86.2588L88.665 79.4556L80.3963 82.8167L80.2429 74.088L80.1748 74.2286L80.2259 72.9506L80.0044 60.4049L86.7991 54.1299L80.1364 58.13L79.9873 59.4592L79.7147 43.9102L79.5656 46.9731L78.8457 70.2114L78.5347 69.5937L73.2054 66.1261L78.8031 71.5703L77.8914 101.032L69.4737 98.387L77.7977 104.108L77.1715 124.343L74.002 123.713L77.0735 127.547L76.7284 138.576L76.311 161.665H81.7851L80.9714 115.376L87.6 113.847L80.9288 112.956Z" fill="white"/>
<path d="M49.49 103.58C49.49 103.435 49.3835 103.329 49.277 103.35L43.1852 104.671C42.9679 104.718 42.8827 104.313 43.083 104.202L49.2216 100.735C49.2611 100.708 49.2927 100.672 49.3129 100.629C49.3332 100.586 49.3414 100.539 49.3366 100.492C49.081 96.0614 48.6849 91.205 48.1694 86.2506C48.1694 86.11 48.0586 86.012 47.9521 86.0418L42.559 87.4221C42.363 87.4732 42.2523 87.1281 42.4184 86.9961L47.6241 82.2675C47.6548 82.2356 47.678 82.1972 47.692 82.1552C47.706 82.1132 47.7104 82.0686 47.7051 82.0247C47.4239 79.6348 47.1172 77.2407 46.7892 74.8806L46.3632 72.5249C46.3376 72.38 46.2183 72.2991 46.1118 72.3545L42.9722 74.0883C42.789 74.1905 42.6314 73.8753 42.772 73.6836L45.8988 69.5216C45.9439 69.4555 45.9621 69.3748 45.9499 69.2958C45.3237 65.4149 44.6336 61.7258 43.8881 58.4072C43.854 58.2539 43.7177 58.1857 43.6155 58.2709L39.5685 61.5852C39.3981 61.7258 39.2064 61.4531 39.3214 61.2359L42.8827 54.5945C42.9176 54.5245 42.9252 54.444 42.904 54.3687C42.3635 52.2512 41.6949 50.1685 40.9018 48.1321C40.855 48.0213 40.7527 47.9745 40.6675 48.0256L37.8602 49.6742C37.7154 49.7594 37.562 49.5762 37.6089 49.376L38.4907 45.836C38.4907 45.7721 38.5674 45.5122 38.6355 45.2864L38.8656 44.3705C38.2138 43.5696 37.5492 43.1309 36.8676 43.1309C36.186 43.1309 35.4277 43.6293 34.7376 44.5367L35.7856 49.376C35.8324 49.5762 35.6791 49.7594 35.5342 49.6742L33.0081 48.1917C32.9186 48.1406 32.8164 48.1917 32.7695 48.3025C31.9586 50.427 31.2743 52.5977 30.7204 54.8033C30.7095 54.8407 30.7061 54.88 30.7105 54.9187C30.7149 54.9575 30.727 54.995 30.746 55.029L34.0645 61.2188C34.1838 61.4361 33.9921 61.7087 33.8217 61.5681L30.0687 58.4924C29.9622 58.4072 29.8301 58.4924 29.7918 58.633C29.0463 61.9984 28.3519 65.7344 27.7257 69.6579C27.7179 69.697 27.7185 69.7373 27.7273 69.7762C27.7361 69.8151 27.753 69.8517 27.7768 69.8837L30.6139 73.6665C30.7588 73.8582 30.6139 74.1735 30.4137 74.0712L27.5169 72.4737C27.4104 72.4141 27.2869 72.4993 27.2656 72.6527C26.797 75.8093 26.3752 79.0427 25.9876 82.293C25.9825 82.3337 25.9863 82.3749 25.9988 82.4139C26.0113 82.4529 26.0322 82.4887 26.06 82.5188L30.9505 86.962C31.1166 87.1111 31.0101 87.4562 30.8142 87.388L25.7575 86.11C25.651 86.0844 25.5531 86.1782 25.5403 86.3187C25.0206 91.3157 24.6244 96.2105 24.373 100.662C24.3675 100.71 24.3748 100.757 24.3943 100.801C24.4138 100.844 24.4448 100.882 24.4838 100.909L30.32 104.189C30.5202 104.3 30.435 104.705 30.222 104.658L24.4668 103.427C24.3603 103.401 24.2623 103.512 24.2538 103.657C24.143 106.213 24.0834 108.59 24.0834 110.699C24.0834 112.032 24.1089 113.319 24.1558 114.533C24.1539 114.578 24.1649 114.623 24.1875 114.662C24.2101 114.701 24.2434 114.733 24.2836 114.754L30.3498 117.31C30.5415 117.391 30.5074 117.77 30.3072 117.792L24.552 118.303C24.4455 118.303 24.3688 118.439 24.3816 118.58C24.6348 122.117 25.2646 125.617 26.2602 129.021C26.2986 129.14 26.3965 129.2 26.4903 129.157L30.009 127.636C30.1922 127.56 30.3328 127.854 30.2007 128.037L27.4786 131.905C27.4543 131.951 27.4417 132.002 27.4417 132.054C27.4417 132.106 27.4543 132.157 27.4786 132.203C29.8173 137.354 33.1657 139.582 36.8889 139.582C40.5355 139.582 43.8285 137.452 46.1587 132.506C46.1848 132.46 46.1986 132.407 46.1986 132.354C46.1986 132.301 46.1848 132.249 46.1587 132.203L43.2278 128.037C43.1 127.854 43.2278 127.56 43.4195 127.636L47.2535 129.289C47.343 129.332 47.4452 129.289 47.4793 129.153C48.4995 125.718 49.1437 122.183 49.4005 118.61C49.4102 118.55 49.3978 118.489 49.3656 118.438C49.3335 118.387 49.2838 118.35 49.2259 118.333L43.1 117.787C42.8955 117.766 42.8614 117.387 43.0574 117.306L49.4005 114.656C49.4331 114.64 49.4611 114.616 49.4819 114.586C49.5027 114.556 49.5158 114.522 49.5198 114.486L49.6135 114.034C49.6135 114.034 49.6135 114 49.6135 113.979C49.6476 112.922 49.6647 111.829 49.6647 110.699C49.6689 108.569 49.6093 106.17 49.49 103.58Z" fill="#92E3A9"/>
<path opacity="0.4" d="M49.49 103.58C49.49 103.435 49.3835 103.329 49.277 103.35L43.1852 104.671C42.9679 104.718 42.8827 104.313 43.083 104.202L49.2216 100.735C49.2611 100.708 49.2927 100.672 49.3129 100.629C49.3332 100.586 49.3414 100.539 49.3366 100.492C49.081 96.0614 48.6849 91.205 48.1694 86.2506C48.1694 86.11 48.0586 86.012 47.9521 86.0418L42.559 87.4221C42.363 87.4732 42.2523 87.1281 42.4184 86.9961L47.6241 82.2675C47.6548 82.2356 47.678 82.1972 47.692 82.1552C47.706 82.1132 47.7104 82.0686 47.7051 82.0247C47.4239 79.6348 47.1172 77.2407 46.7892 74.8806L46.3632 72.5249C46.3376 72.38 46.2183 72.2991 46.1118 72.3545L42.9722 74.0883C42.789 74.1905 42.6314 73.8753 42.772 73.6836L45.8988 69.5216C45.9439 69.4555 45.9621 69.3748 45.9499 69.2958C45.3237 65.4149 44.6336 61.7258 43.8881 58.4072C43.854 58.2539 43.7177 58.1857 43.6155 58.2709L39.5685 61.5852C39.3981 61.7258 39.2064 61.4531 39.3214 61.2359L42.8827 54.5945C42.9176 54.5245 42.9252 54.444 42.904 54.3687C42.3635 52.2512 41.6949 50.1685 40.9018 48.1321C40.855 48.0213 40.7527 47.9745 40.6675 48.0256L37.8602 49.6742C37.7154 49.7594 37.562 49.5762 37.6089 49.376L38.4907 45.836C38.4907 45.7721 38.5674 45.5122 38.6355 45.2864L38.8656 44.3705C38.2138 43.5696 37.5492 43.1309 36.8676 43.1309C36.186 43.1309 35.4277 43.6293 34.7376 44.5367L35.7856 49.376C35.8324 49.5762 35.6791 49.7594 35.5342 49.6742L33.0081 48.1917C32.9186 48.1406 32.8164 48.1917 32.7695 48.3025C31.9586 50.427 31.2743 52.5977 30.7204 54.8033C30.7095 54.8407 30.7061 54.88 30.7105 54.9187C30.7149 54.9575 30.727 54.995 30.746 55.029L34.0645 61.2188C34.1838 61.4361 33.9921 61.7087 33.8217 61.5681L30.0687 58.4924C29.9622 58.4072 29.8301 58.4924 29.7918 58.633C29.0463 61.9984 28.3519 65.7344 27.7257 69.6579C27.7179 69.697 27.7185 69.7373 27.7273 69.7762C27.7361 69.8151 27.753 69.8517 27.7768 69.8837L30.6139 73.6665C30.7588 73.8582 30.6139 74.1735 30.4137 74.0712L27.5169 72.4737C27.4104 72.4141 27.2869 72.4993 27.2656 72.6527C26.797 75.8093 26.3752 79.0427 25.9876 82.293C25.9825 82.3337 25.9863 82.3749 25.9988 82.4139C26.0113 82.4529 26.0322 82.4887 26.06 82.5188L30.9505 86.962C31.1166 87.1111 31.0101 87.4562 30.8142 87.388L25.7575 86.11C25.651 86.0844 25.5531 86.1782 25.5403 86.3187C25.0206 91.3157 24.6244 96.2105 24.373 100.662C24.3675 100.71 24.3748 100.757 24.3943 100.801C24.4138 100.844 24.4448 100.882 24.4838 100.909L30.32 104.189C30.5202 104.3 30.435 104.705 30.222 104.658L24.4668 103.427C24.3603 103.401 24.2623 103.512 24.2538 103.657C24.143 106.213 24.0834 108.59 24.0834 110.699C24.0834 112.032 24.1089 113.319 24.1558 114.533C24.1539 114.578 24.1649 114.623 24.1875 114.662C24.2101 114.701 24.2434 114.733 24.2836 114.754L30.3498 117.31C30.5415 117.391 30.5074 117.77 30.3072 117.792L24.552 118.303C24.4455 118.303 24.3688 118.439 24.3816 118.58C24.6348 122.117 25.2646 125.617 26.2602 129.021C26.2986 129.14 26.3965 129.2 26.4903 129.157L30.009 127.636C30.1922 127.56 30.3328 127.854 30.2007 128.037L27.4786 131.905C27.4543 131.951 27.4417 132.002 27.4417 132.054C27.4417 132.106 27.4543 132.157 27.4786 132.203C29.8173 137.354 33.1657 139.582 36.8889 139.582C40.5355 139.582 43.8285 137.452 46.1587 132.506C46.1848 132.46 46.1986 132.407 46.1986 132.354C46.1986 132.301 46.1848 132.249 46.1587 132.203L43.2278 128.037C43.1 127.854 43.2278 127.56 43.4195 127.636L47.2535 129.289C47.343 129.332 47.4452 129.289 47.4793 129.153C48.4995 125.718 49.1437 122.183 49.4005 118.61C49.4102 118.55 49.3978 118.489 49.3656 118.438C49.3335 118.387 49.2838 118.35 49.2259 118.333L43.1 117.787C42.8955 117.766 42.8614 117.387 43.0574 117.306L49.4005 114.656C49.4331 114.64 49.4611 114.616 49.4819 114.586C49.5027 114.556 49.5158 114.522 49.5198 114.486L49.6135 114.034C49.6135 114.034 49.6135 114 49.6135 113.979C49.6476 112.922 49.6647 111.829 49.6647 110.699C49.6689 108.569 49.6093 106.17 49.49 103.58Z" fill="white"/>
<path d="M37.3746 121.063L36.9826 98.8091L43.8242 93.139L36.9315 95.9379L36.8037 88.666L36.7483 88.7811L36.7909 87.7161L36.6035 77.2578L42.2693 72.0307L36.7143 75.3621L36.5907 76.4697L36.3649 63.5107L36.2371 66.0625L35.6407 85.4327L35.3809 84.9172L30.9377 82.029L35.6067 86.5659L34.8441 111.125L27.8236 108.918L34.7632 113.689L34.2435 130.555L31.6023 130.026L34.1625 133.226L33.8771 142.423L33.5278 161.665H38.086L37.4086 123.083L42.9339 121.805L37.3746 121.063Z" fill="#263238"/>
<path opacity="0.5" d="M37.3746 121.063L36.9826 98.8091L43.8242 93.139L36.9315 95.9379L36.8037 88.666L36.7483 88.7811L36.7909 87.7161L36.6035 77.2578L42.2693 72.0307L36.7143 75.3621L36.5907 76.4697L36.3649 63.5107L36.2371 66.0625L35.6407 85.4327L35.3809 84.9172L30.9377 82.029L35.6067 86.5659L34.8441 111.125L27.8236 108.918L34.7632 113.689L34.2435 130.555L31.6023 130.026L34.1625 133.226L33.8771 142.423L33.5278 161.665H38.086L37.4086 123.083L42.9339 121.805L37.3746 121.063Z" fill="white"/>
<path d="M196.175 112.028C196.175 111.904 196.085 111.811 195.991 111.832L190.781 112.948C190.598 112.986 190.526 112.641 190.696 112.548L195.945 109.566C195.976 109.542 196.001 109.51 196.017 109.473C196.033 109.437 196.038 109.396 196.034 109.357C195.817 105.574 195.48 101.421 195.041 97.1861C195.041 97.0668 194.943 96.9859 194.854 97.0072L190.245 98.1915C190.074 98.2341 189.985 97.9401 190.125 97.8123L194.573 93.7696C194.599 93.7429 194.619 93.7106 194.63 93.6752C194.642 93.6397 194.646 93.6021 194.641 93.5651C194.402 91.5203 194.138 89.4755 193.857 87.4605L193.495 85.4455C193.474 85.3177 193.372 85.2496 193.282 85.3007L190.598 86.7789C190.441 86.8684 190.304 86.6 190.428 86.4381L193.099 82.8768C193.137 82.8205 193.152 82.752 193.141 82.6851C192.605 79.3708 192.017 76.2184 191.378 73.3812C191.348 73.2449 191.233 73.1895 191.144 73.2619L187.693 76.1289C187.544 76.2525 187.382 76.0182 187.48 75.8307L190.522 70.1564C190.552 70.0959 190.56 70.0262 190.543 69.9604C190.083 68.1525 189.514 66.3742 188.839 64.6354C188.834 64.6147 188.825 64.5953 188.811 64.5788C188.798 64.5622 188.781 64.549 188.762 64.5399C188.742 64.5309 188.721 64.5264 188.7 64.5267C188.679 64.527 188.658 64.5321 188.639 64.5417L186.24 65.9475C186.117 66.0199 185.985 65.8666 186.027 65.6962L186.777 62.6716C186.777 62.6162 186.845 62.3947 186.905 62.1987L187.101 61.4191C186.543 60.7333 185.972 60.3584 185.397 60.3584C184.822 60.3584 184.166 60.7844 183.573 61.5597L184.468 65.6962C184.506 65.8666 184.379 66.0199 184.255 65.9475L182.095 64.6695C182.076 64.6591 182.055 64.6531 182.034 64.6521C182.012 64.6511 181.991 64.6551 181.971 64.6638C181.951 64.6724 181.934 64.6855 181.92 64.702C181.906 64.7185 181.896 64.738 181.891 64.759C181.198 66.5758 180.613 68.4322 180.14 70.3183C180.116 70.38 180.116 70.4483 180.14 70.51L182.981 75.8137C183.084 76.0011 182.917 76.2397 182.773 76.1119L179.565 73.4835C179.475 73.411 179.36 73.4835 179.331 73.6027C178.692 76.4782 178.099 79.6732 177.563 83.0259C177.556 83.0597 177.557 83.0945 177.564 83.1282C177.571 83.1619 177.585 83.1937 177.605 83.2218L180.033 86.4552C180.153 86.617 180.033 86.8812 179.859 86.796L177.384 85.4328C177.294 85.3816 177.188 85.4328 177.171 85.5861C176.77 88.2827 176.408 91.056 176.089 93.825C176.082 93.8617 176.085 93.8994 176.096 93.9349C176.107 93.9705 176.126 94.0029 176.153 94.0294L180.336 97.8294C180.476 97.9572 180.383 98.2554 180.217 98.2085L175.893 97.1009C175.808 97.0753 175.722 97.1605 175.71 97.2798C175.284 101.54 174.926 105.732 174.713 109.54C174.708 109.58 174.714 109.62 174.73 109.656C174.747 109.692 174.773 109.723 174.806 109.745L179.765 112.548C179.94 112.641 179.863 112.974 179.68 112.948L174.772 111.913C174.683 111.913 174.598 111.985 174.589 112.109C174.495 114.299 174.444 116.326 174.444 118.124C174.444 119.27 174.466 120.365 174.504 121.417C174.503 121.456 174.513 121.495 174.532 121.528C174.552 121.562 174.58 121.59 174.615 121.609L179.799 123.773C179.965 123.841 179.935 124.169 179.761 124.199L174.858 124.625C174.768 124.625 174.704 124.74 174.713 124.859C174.93 127.881 175.468 130.872 176.319 133.779C176.322 133.801 176.33 133.822 176.342 133.84C176.354 133.858 176.37 133.874 176.389 133.885C176.407 133.897 176.428 133.904 176.45 133.906C176.472 133.908 176.494 133.906 176.515 133.899L179.522 132.599C179.68 132.531 179.799 132.783 179.688 132.945L177.362 136.25C177.337 136.287 177.322 136.329 177.318 136.373C177.314 136.417 177.322 136.462 177.341 136.502C179.339 140.902 182.202 142.806 185.384 142.806C188.502 142.806 191.314 140.975 193.308 136.761C193.329 136.721 193.34 136.677 193.34 136.632C193.34 136.586 193.329 136.542 193.308 136.502L190.803 132.945C190.692 132.783 190.803 132.519 190.965 132.599L194.236 134.014C194.313 134.048 194.398 134.014 194.432 133.895C195.302 130.959 195.852 127.938 196.072 124.885C196.082 124.834 196.071 124.782 196.044 124.738C196.016 124.695 195.973 124.663 195.923 124.65L190.726 124.186C190.551 124.186 190.526 123.845 190.692 123.76L196.111 121.494C196.138 121.479 196.162 121.459 196.181 121.434C196.199 121.408 196.212 121.379 196.217 121.349L196.294 120.965C196.294 120.965 196.294 120.936 196.294 120.919C196.319 120.015 196.336 119.082 196.336 118.111C196.324 116.292 196.273 114.243 196.175 112.028Z" fill="#92E3A9"/>
<path opacity="0.4" d="M196.175 112.028C196.175 111.904 196.085 111.811 195.991 111.832L190.781 112.948C190.598 112.986 190.526 112.641 190.696 112.548L195.945 109.566C195.976 109.542 196.001 109.51 196.017 109.473C196.033 109.437 196.038 109.396 196.034 109.357C195.817 105.574 195.48 101.421 195.041 97.1861C195.041 97.0668 194.943 96.9859 194.854 97.0072L190.245 98.1915C190.074 98.2341 189.985 97.9401 190.125 97.8123L194.573 93.7696C194.599 93.7429 194.619 93.7106 194.63 93.6752C194.642 93.6397 194.646 93.6021 194.641 93.5651C194.402 91.5203 194.138 89.4755 193.857 87.4605L193.495 85.4455C193.474 85.3177 193.372 85.2496 193.282 85.3007L190.598 86.7789C190.441 86.8684 190.304 86.6 190.428 86.4381L193.099 82.8768C193.137 82.8205 193.152 82.752 193.141 82.6851C192.605 79.3708 192.017 76.2184 191.378 73.3812C191.348 73.2449 191.233 73.1895 191.144 73.2619L187.693 76.1289C187.544 76.2525 187.382 76.0182 187.48 75.8307L190.522 70.1564C190.552 70.0959 190.56 70.0262 190.543 69.9604C190.083 68.1525 189.514 66.3742 188.839 64.6354C188.834 64.6147 188.825 64.5953 188.811 64.5788C188.798 64.5622 188.781 64.549 188.762 64.5399C188.742 64.5309 188.721 64.5264 188.7 64.5267C188.679 64.527 188.658 64.5321 188.639 64.5417L186.24 65.9475C186.117 66.0199 185.985 65.8666 186.027 65.6962L186.777 62.6716C186.777 62.6162 186.845 62.3947 186.905 62.1987L187.101 61.4191C186.543 60.7333 185.972 60.3584 185.397 60.3584C184.822 60.3584 184.166 60.7844 183.573 61.5597L184.468 65.6962C184.506 65.8666 184.379 66.0199 184.255 65.9475L182.095 64.6695C182.076 64.6591 182.055 64.6531 182.034 64.6521C182.012 64.6511 181.991 64.6551 181.971 64.6638C181.951 64.6724 181.934 64.6855 181.92 64.702C181.906 64.7185 181.896 64.738 181.891 64.759C181.198 66.5758 180.613 68.4322 180.14 70.3183C180.116 70.38 180.116 70.4483 180.14 70.51L182.981 75.8137C183.084 76.0011 182.917 76.2397 182.773 76.1119L179.565 73.4835C179.475 73.411 179.36 73.4835 179.331 73.6027C178.692 76.4782 178.099 79.6732 177.563 83.0259C177.556 83.0597 177.557 83.0945 177.564 83.1282C177.571 83.1619 177.585 83.1937 177.605 83.2218L180.033 86.4552C180.153 86.617 180.033 86.8812 179.859 86.796L177.384 85.4328C177.294 85.3816 177.188 85.4328 177.171 85.5861C176.77 88.2827 176.408 91.056 176.089 93.825C176.082 93.8617 176.085 93.8994 176.096 93.9349C176.107 93.9705 176.126 94.0029 176.153 94.0294L180.336 97.8294C180.476 97.9572 180.383 98.2554 180.217 98.2085L175.893 97.1009C175.808 97.0753 175.722 97.1605 175.71 97.2798C175.284 101.54 174.926 105.732 174.713 109.54C174.708 109.58 174.714 109.62 174.73 109.656C174.747 109.692 174.773 109.723 174.806 109.745L179.765 112.548C179.94 112.641 179.863 112.974 179.68 112.948L174.772 111.913C174.683 111.913 174.598 111.985 174.589 112.109C174.495 114.299 174.444 116.326 174.444 118.124C174.444 119.27 174.466 120.365 174.504 121.417C174.503 121.456 174.513 121.495 174.532 121.528C174.552 121.562 174.58 121.59 174.615 121.609L179.799 123.773C179.965 123.841 179.935 124.169 179.761 124.199L174.858 124.625C174.768 124.625 174.704 124.74 174.713 124.859C174.93 127.881 175.468 130.872 176.319 133.779C176.322 133.801 176.33 133.822 176.342 133.84C176.354 133.858 176.37 133.874 176.389 133.885C176.407 133.897 176.428 133.904 176.45 133.906C176.472 133.908 176.494 133.906 176.515 133.899L179.522 132.599C179.68 132.531 179.799 132.783 179.688 132.945L177.362 136.25C177.337 136.287 177.322 136.329 177.318 136.373C177.314 136.417 177.322 136.462 177.341 136.502C179.339 140.902 182.202 142.806 185.384 142.806C188.502 142.806 191.314 140.975 193.308 136.761C193.329 136.721 193.34 136.677 193.34 136.632C193.34 136.586 193.329 136.542 193.308 136.502L190.803 132.945C190.692 132.783 190.803 132.519 190.965 132.599L194.236 134.014C194.313 134.048 194.398 134.014 194.432 133.895C195.302 130.959 195.852 127.938 196.072 124.885C196.082 124.834 196.071 124.782 196.044 124.738C196.016 124.695 195.973 124.663 195.923 124.65L190.726 124.186C190.551 124.186 190.526 123.845 190.692 123.76L196.111 121.494C196.138 121.479 196.162 121.459 196.181 121.434C196.199 121.408 196.212 121.379 196.217 121.349L196.294 120.965C196.294 120.965 196.294 120.936 196.294 120.919C196.319 120.015 196.336 119.082 196.336 118.111C196.324 116.292 196.273 114.243 196.175 112.028Z" fill="white"/>
<path d="M185.819 126.968L185.482 107.947L191.331 103.104L185.439 105.498L185.333 99.2782L185.282 99.3804L185.316 98.4688L185.158 89.5313L190.002 85.0626L185.252 87.9125L185.145 88.8582L184.954 77.7822L184.847 79.9676L184.336 96.5177L184.115 96.0789L180.315 93.6081L184.306 97.489L183.654 118.474L177.656 116.587L183.586 120.668L183.143 135.079L180.885 134.628L183.071 137.363L182.828 145.218L182.53 161.666H186.428L185.848 128.693L190.568 127.603L185.819 126.968Z" fill="#263238"/>
<path opacity="0.5" d="M185.819 126.968L185.482 107.947L191.331 103.104L185.439 105.498L185.333 99.2782L185.282 99.3804L185.316 98.4688L185.158 89.5313L190.002 85.0626L185.252 87.9125L185.145 88.8582L184.954 77.7822L184.847 79.9676L184.336 96.5177L184.115 96.0789L180.315 93.6081L184.306 97.489L183.654 118.474L177.656 116.587L183.586 120.668L183.143 135.079L180.885 134.628L183.071 137.363L182.828 145.218L182.53 161.666H186.428L185.848 128.693L190.568 127.603L185.819 126.968Z" fill="white"/>
<path d="M157.954 141.839H154.465L154.414 141.916C154.115 141.866 153.813 141.841 153.511 141.839C149.251 141.839 145.809 146.278 145.809 151.752C145.809 157.226 149.259 161.665 153.511 161.665C153.817 161.665 156.344 161.635 156.642 161.592L154.465 161.665H157.954C162.214 161.665 165.656 157.226 165.656 151.752C165.656 146.278 162.21 141.839 157.954 141.839Z" fill="#263238" stroke="#263238" stroke-width="0.977064" stroke-linecap="round" stroke-linejoin="round"/>
<path d="M86.4753 141.839H82.9821L82.9353 141.916C82.6367 141.866 82.3347 141.841 82.0321 141.839C77.7721 141.839 74.3258 146.278 74.3258 151.752C74.3258 157.226 77.7764 161.665 82.0321 161.665C82.3345 161.662 82.6363 161.638 82.9353 161.592L82.9821 161.665H86.4753C90.7353 161.665 94.1774 157.226 94.1774 151.752C94.1774 146.278 90.7268 141.839 86.4753 141.839Z" fill="#263238" stroke="#263238" stroke-width="0.977064" stroke-linecap="round" stroke-linejoin="round"/>
<path d="M191.161 142.132H189.486L187.987 131.614C187.899 130.997 187.593 130.433 187.124 130.023C186.654 129.613 186.054 129.386 185.431 129.382H176.012L160.77 113.194C159.954 112.327 158.97 111.637 157.878 111.165C156.785 110.693 155.608 110.45 154.418 110.45H114.033C113.162 110.451 112.299 110.627 111.498 110.969C110.696 111.311 109.972 111.811 109.369 112.44L39.9774 141.731V154.085H144.015L170.125 153.902L189.486 152.624V152.535H191.08C191.248 152.535 191.409 152.468 191.528 152.349C191.647 152.23 191.714 152.068 191.714 151.9V142.686C191.714 142.539 191.656 142.398 191.552 142.294C191.448 142.19 191.307 142.132 191.161 142.132Z" fill="#92E3A9" stroke="#263238" stroke-width="0.977064" stroke-linecap="round" stroke-linejoin="round"/>
<path d="M164.144 112.648H170.696" stroke="#263238" stroke-width="0.977064" stroke-linecap="round" stroke-linejoin="round"/>
<path d="M168.076 118.327H194.492" stroke="#263238" stroke-width="0.977064" stroke-linecap="round" stroke-linejoin="round"/>
<path d="M190.343 134.047H196.673" stroke="#263238" stroke-width="0.977064" stroke-linecap="round" stroke-linejoin="round"/>
<path d="M193.401 151.73H201.465" stroke="#263238" stroke-width="0.977064" stroke-linecap="round" stroke-linejoin="round"/>
<path d="M161.605 152.217V153.993L170.125 153.933L189.486 152.655V152.566H191.08C191.198 152.565 191.314 152.53 191.414 152.467C191.514 152.404 191.594 152.314 191.646 152.208L161.605 152.217Z" fill="#263238" stroke="#263238" stroke-width="0.977064" stroke-linecap="round" stroke-linejoin="round"/>
<path d="M170.125 153.933C170.209 153.93 170.291 153.911 170.368 153.877C170.444 153.842 170.513 153.793 170.571 153.732C170.628 153.671 170.673 153.599 170.703 153.52C170.733 153.442 170.747 153.358 170.745 153.274C170.742 153.191 170.723 153.108 170.689 153.031C170.654 152.955 170.605 152.886 170.544 152.828C170.483 152.771 170.411 152.726 170.332 152.696C170.254 152.666 170.17 152.652 170.086 152.655H160.288L124.078 110.455H114.033C113.162 110.456 112.299 110.632 111.498 110.974C110.696 111.316 109.972 111.816 109.369 112.445L39.9774 141.732V154.086H144.015L170.125 153.933Z" fill="#263238" stroke="#263238" stroke-width="0.977064" stroke-linecap="round" stroke-linejoin="round"/>
<path d="M56.191 141.839H52.6978L50.4102 145.2C49.1529 147.155 48.4844 149.43 48.4844 151.754C48.4844 154.078 49.1529 156.353 50.4102 158.308L52.6978 161.665H56.191C60.451 161.665 63.8931 157.226 63.8931 151.752C63.8931 146.278 60.4467 141.839 56.191 141.839Z" fill="#263238" stroke="#263238" stroke-width="0.977064" stroke-linecap="round" stroke-linejoin="round"/>
<path d="M51.7478 161.665C56.0015 161.665 59.4499 157.227 59.4499 151.752C59.4499 146.277 56.0015 141.839 51.7478 141.839C47.4941 141.839 44.0457 146.277 44.0457 151.752C44.0457 157.227 47.4941 161.665 51.7478 161.665Z" fill="#636363" stroke="#263238" stroke-width="0.977064" stroke-linecap="round" stroke-linejoin="round"/>
<path d="M51.7478 159.659C55.1428 159.659 57.895 156.119 57.895 151.752C57.895 147.386 55.1428 143.846 51.7478 143.846C48.3528 143.846 45.6006 147.386 45.6006 151.752C45.6006 156.119 48.3528 159.659 51.7478 159.659Z" fill="white" stroke="#263238" stroke-width="0.977064" stroke-linecap="round" stroke-linejoin="round"/>
<path d="M53.0471 151.752C53.0471 152.676 52.4635 153.426 51.7691 153.426C51.0747 153.426 50.4911 152.676 50.4911 151.752C50.4911 150.828 51.0747 150.082 51.7691 150.082C52.4635 150.082 53.0471 150.832 53.0471 151.752Z" fill="white" stroke="#263238" stroke-width="0.977064" stroke-linecap="round" stroke-linejoin="round"/>
<path d="M133.945 141.839H130.456L128.168 145.2C126.911 147.155 126.242 149.43 126.242 151.754C126.242 154.078 126.911 156.353 128.168 158.308L130.456 161.665H133.945C138.205 161.665 141.651 157.226 141.651 151.752C141.651 146.278 138.2 141.839 133.945 141.839Z" fill="#263238" stroke="#263238" stroke-width="0.977064" stroke-linecap="round" stroke-linejoin="round"/>
<path d="M129.506 161.665C133.759 161.665 137.208 157.227 137.208 151.752C137.208 146.277 133.759 141.839 129.506 141.839C125.252 141.839 121.803 146.277 121.803 151.752C121.803 157.227 125.252 161.665 129.506 161.665Z" fill="#636363" stroke="#263238" stroke-width="0.977064" stroke-linecap="round" stroke-linejoin="round"/>
<path d="M129.506 159.659C132.901 159.659 135.653 156.119 135.653 151.752C135.653 147.386 132.901 143.846 129.506 143.846C126.111 143.846 123.358 147.386 123.358 151.752C123.358 156.119 126.111 159.659 129.506 159.659Z" fill="white" stroke="#263238" stroke-width="0.977064" stroke-linecap="round" stroke-linejoin="round"/>
<path d="M130.801 151.752C130.801 152.676 130.221 153.426 129.523 153.426C128.824 153.426 128.223 152.676 128.223 151.752C128.223 150.828 128.803 150.082 129.523 150.082C130.243 150.082 130.801 150.832 130.801 151.752Z" fill="white" stroke="#263238" stroke-width="0.977064" stroke-linecap="round" stroke-linejoin="round"/>
<path d="M160.787 113.19C160.663 113.058 160.527 112.938 160.395 112.811H128.922V128.364H175.088L160.787 113.19Z" fill="#263238" stroke="#263238" stroke-width="0.977064" stroke-linecap="round" stroke-linejoin="round"/>
<path d="M164.404 142.132H162.567L160.748 129.378H149.11L133.872 113.19C133.055 112.324 132.07 111.633 130.977 111.162C129.884 110.69 128.707 110.446 127.516 110.446H90.4286C89.5573 110.447 88.695 110.624 87.8935 110.966C87.092 111.308 86.3677 111.807 85.7639 112.436L62.0783 128.274L40.1606 137.749L36.7526 142.354C35.9171 143.489 35.469 144.863 35.4746 146.273V154.116H42.3417V151.504C42.3417 145.114 46.9936 139.93 52.7233 139.93C57.8353 139.93 61.009 144.075 61.8057 149.698L62.4319 154.116H120.206V151.504C120.206 145.114 122.83 139.93 129.88 139.93C136.16 139.93 138.4 144.075 139.385 149.698L140.122 153.932L162.584 152.654V152.565H164.421L164.404 142.132Z" fill="#92E3A9" stroke="#263238" stroke-width="0.977064" stroke-linecap="round" stroke-linejoin="round"/>
<path d="M101.377 131.648H97.2616V133.297H101.377V131.648Z" fill="#263238" stroke="#263238" stroke-width="0.977064" stroke-linecap="round" stroke-linejoin="round"/>
<path d="M85.9641 114.786L65.6269 128.29H103.639V113.01H90.1773C89.392 113.01 88.6146 113.167 87.8911 113.472C87.1675 113.777 86.5123 114.224 85.9641 114.786Z" fill="#263238" stroke="#263238" stroke-width="0.977064" stroke-linecap="round" stroke-linejoin="round"/>
<path d="M81.9597 128.232C81.9188 128.023 81.8974 127.81 81.8958 127.597C81.9259 126.777 82.2728 126.001 82.8635 125.431C83.4541 124.862 84.2427 124.544 85.0631 124.544C85.8836 124.544 86.6721 124.862 87.2628 125.431C87.8535 126.001 88.2004 126.777 88.2304 127.597C88.2309 127.81 88.2095 128.023 88.1665 128.232H89.9259C89.9545 128.021 89.9702 127.809 89.9728 127.597C89.8991 126.348 89.3508 125.174 88.4402 124.315C87.5295 123.457 86.3253 122.979 85.0738 122.979C83.8223 122.979 82.618 123.457 81.7074 124.315C80.7967 125.174 80.2485 126.348 80.1748 127.597C80.176 127.809 80.1902 128.021 80.2174 128.232H81.9597Z" fill="#6E6E6E" stroke="#263238" stroke-width="0.977064" stroke-linecap="round" stroke-linejoin="round"/>
<path d="M94.8803 118.025L93.4532 119.925L94.2456 120.398L95.3532 123.721L97.5726 123.248L97.7302 124.513L101.053 123.248L99.6302 121.191L97.7302 121.033L94.8803 118.025Z" fill="white" stroke="#263238" stroke-width="0.977064" stroke-linecap="round" stroke-linejoin="round"/>
<path d="M96.3032 114.063L95.498 115.175C95.498 115.175 89.1677 117.863 91.0676 118.341C92.9676 118.818 98.6675 118.656 99.9327 118.656C101.198 118.656 103.575 118.813 103.575 118.813L101.019 116.441L97.8538 115.806L96.3032 114.063Z" fill="white" stroke="#263238" stroke-width="0.977064" stroke-linecap="round" stroke-linejoin="round"/>
<path d="M95.1955 128.313L93.794 130.055C93.794 130.055 88.7246 127.363 87.617 127.205C86.5094 127.048 84.9417 128.381 84.9417 128.381C85.8054 128.299 86.6742 128.284 87.5403 128.334C88.9887 128.381 87.6383 129.233 93.9303 134.648C94.4117 135.074 95.1146 134.822 95.5108 134.328C95.9069 133.834 98.5226 129.578 98.5226 129.578L95.1955 128.313Z" fill="white" stroke="#263238" stroke-width="0.977064" stroke-linecap="round" stroke-linejoin="round"/>
<path d="M98.5183 123.563L101.994 122.136L102.74 123.307L99.758 124.692L98.5183 123.563Z" fill="white" stroke="#263238" stroke-width="0.977064" stroke-linecap="round" stroke-linejoin="round"/>
<path d="M101.066 126.208C101.114 125.872 101.078 125.53 100.962 125.211C100.846 124.893 100.654 124.607 100.401 124.381C99.8517 123.886 99.1233 123.392 98.5226 123.563C97.4107 123.882 93.5171 130.076 93.5171 130.076L98.7654 133.531L101.066 126.208Z" fill="white" stroke="#263238" stroke-width="0.977064" stroke-linecap="round" stroke-linejoin="round"/>
<path d="M85.9939 122.229L84.192 122.92L85.6489 123.346L86.1303 124.385L85.2314 124.662C85.2314 124.662 85.9258 125.352 86.2027 125.352C86.5986 125.307 86.9913 125.237 87.3784 125.143L90.4243 128.33H94.3265L88.469 124.266L86.978 122.506L85.9939 122.229Z" fill="white" stroke="#263238" stroke-width="0.977064" stroke-linecap="round" stroke-linejoin="round"/>
<path d="M132.603 115.498L141.25 124.341C141.537 124.637 141.741 125.003 141.843 125.402C141.928 125.745 141.934 126.102 141.861 126.447C141.788 126.793 141.637 127.117 141.419 127.395C141.202 127.674 140.925 127.899 140.607 128.054C140.29 128.209 139.942 128.29 139.589 128.29H106.186V113.01H126.69C127.791 113.01 128.882 113.231 129.897 113.658C130.912 114.085 131.832 114.711 132.603 115.498Z" fill="#263238" stroke="#263238" stroke-width="0.977064" stroke-linecap="round" stroke-linejoin="round"/>
<path d="M124.5 113.01H121.143L109.087 128.29H112.444L124.5 113.01Z" fill="white" stroke="#263238" stroke-width="0.977064" stroke-linecap="round" stroke-linejoin="round"/>
<path d="M106.186 114.092V126.292L116.666 113.01H107.038L106.186 114.092Z" fill="white" stroke="#263238" stroke-width="0.977064" stroke-linecap="round" stroke-linejoin="round"/>
<path d="M160.748 129.378H185.414C186.037 129.382 186.637 129.61 187.107 130.019C187.576 130.429 187.882 130.994 187.97 131.61L189.469 142.128H162.567L160.748 129.378Z" fill="#92E3A9" stroke="#263238" stroke-width="0.977064" stroke-linecap="round" stroke-linejoin="round"/>
<path d="M184.161 135.129H172.463V139.934H184.161V135.129Z" fill="white" stroke="#263238" stroke-width="0.977064" stroke-linecap="round" stroke-linejoin="round"/>
<path d="M190.773 144.097H140.654" stroke="#263238" stroke-width="1.95413" stroke-linecap="round" stroke-linejoin="round"/>
<path d="M118.255 144.097H62.713" stroke="#263238" stroke-width="1.95413" stroke-linecap="round" stroke-linejoin="round"/>
<path d="M44.2715 144.097H37.9156" stroke="#263238" stroke-width="1.95413" stroke-linecap="round" stroke-linejoin="round"/>
<path d="M170.444 135.211H159.398C158.887 135.211 158.386 135.353 157.951 135.622C157.516 135.89 157.164 136.275 156.936 136.732L155.087 140.429C155.003 140.599 154.963 140.787 154.972 140.976C154.981 141.165 155.038 141.349 155.138 141.51C155.238 141.671 155.377 141.803 155.543 141.895C155.708 141.987 155.894 142.036 156.084 142.035H170.448L170.444 135.211Z" fill="white" stroke="#263238" stroke-width="0.977064" stroke-linecap="round" stroke-linejoin="round"/>
<path d="M170.444 135.211H161.541L162.512 142.035H170.444V135.211Z" fill="#263238" stroke="#263238" stroke-width="0.977064" stroke-linecap="round" stroke-linejoin="round"/>
<path d="M188.46 135.211H185.763L185.725 142.035H189.431L188.46 135.211Z" fill="#263238" stroke="#263238" stroke-width="0.977064" stroke-linecap="round" stroke-linejoin="round"/>
<path d="M68.0466 125.105H62.6577C62.1871 125.105 61.8057 125.487 61.8057 125.957V130.256C61.8057 130.726 62.1871 131.108 62.6577 131.108H68.0466C68.5171 131.108 68.8986 130.726 68.8986 130.256V125.957C68.8986 125.487 68.5171 125.105 68.0466 125.105Z" fill="#263238" stroke="#263238" stroke-width="0.977064" stroke-linecap="round" stroke-linejoin="round"/>
<path d="M104.367 130.017V150.754" stroke="#263238" stroke-width="0.977064" stroke-linecap="round" stroke-linejoin="round"/>
<path d="M58.2571 139.295C58.2571 139.295 63.2541 142.111 63.8931 151.751H116.917" stroke="#263238" stroke-width="0.977064" stroke-linecap="round" stroke-linejoin="round"/>
<path d="M142.017 143.384C142.017 143.384 139.406 136.568 130.66 136.568C124.564 136.568 121.65 139.772 120.189 142.298" stroke="#263238" stroke-width="0.977064" stroke-linecap="round" stroke-linejoin="round"/>
<path d="M152.335 108.827H94.629V110.288H152.335V108.827Z" fill="#263238" stroke="#263238" stroke-width="0.977064" stroke-linecap="round" stroke-linejoin="round"/>
<path d="M117.906 99.8131C117.906 99.8131 108.406 100.022 102.889 100.022C97.3724 100.022 96.6099 99.1699 96.7632 100.235C96.9166 101.3 97.0699 108.678 97.0699 108.678L118.059 108.887L117.906 99.8131Z" fill="white" stroke="#263238" stroke-width="0.977064" stroke-linecap="round" stroke-linejoin="round"/>
<path d="M115.797 101.863H113.739V104.811H115.797V101.863Z" fill="white" stroke="#263238" stroke-width="0.977064" stroke-linecap="round" stroke-linejoin="round"/>
<path d="M100.21 101.863H98.152V104.811H100.21V101.863Z" fill="white" stroke="#263238" stroke-width="0.977064" stroke-linecap="round" stroke-linejoin="round"/>
<path d="M117.906 99.814C117.906 99.814 128.628 100.24 132.151 99.814C135.674 99.388 136.134 99.388 136.134 100.24C136.134 101.092 136.287 109.105 136.287 109.105L118.076 108.888L117.906 99.814Z" fill="#263238" stroke="#263238" stroke-width="0.977064" stroke-linecap="round" stroke-linejoin="round"/>
<path d="M96.9507 103.575L117.85 103.456" stroke="#263238" stroke-width="0.977064" stroke-linecap="round" stroke-linejoin="round"/>
<path d="M118.536 103.694H135.925" stroke="white" stroke-width="0.977064" stroke-linecap="round" stroke-linejoin="round"/>
<path d="M108.431 103.336H103.119V105.342H108.431V103.336Z" fill="#263238" stroke="#263238" stroke-width="0.977064" stroke-linecap="round" stroke-linejoin="round"/>
<path d="M157.579 87.3874C156.868 87.2724 156.139 87.1872 155.411 87.1233C145.983 86.3011 136.667 84.1413 127.167 83.9666C119.405 83.8892 111.656 84.6029 104.039 86.0966C97.4618 87.332 90.3817 87.6345 84.3538 90.8337C81.5507 92.3205 75.7358 100.858 81.7978 102.204C84.2899 102.757 85.6787 99.9842 90.6629 99.9842C95.6471 99.9842 159.517 100.163 161.179 99.8862C162.84 99.6093 164.778 103.486 167.275 104.04C170.027 104.649 169.315 99.0215 169.166 97.6497C168.429 90.9615 163.368 88.299 157.579 87.3874Z" fill="#92E3A9" stroke="#263238" stroke-width="0.977064" stroke-linecap="round" stroke-linejoin="round"/>
<path d="M160.067 88.5283C160.067 88.5283 164.22 89.359 166.163 92.128C168.105 94.897 168.378 97.3934 167.824 101.27" stroke="#263238" stroke-width="0.977064" stroke-linecap="round" stroke-linejoin="round"/>
<path d="M100.423 108.367C100.423 108.367 97.9262 88.4477 105.42 85.4316" stroke="#263238" stroke-width="0.977064" stroke-linecap="round" stroke-linejoin="round"/>
<path d="M122.383 108.534C122.383 108.534 121.169 88.435 130.477 83.7959" stroke="#263238" stroke-width="0.977064" stroke-linecap="round" stroke-linejoin="round"/>
<path d="M118.736 108.533C118.736 108.533 118.31 88.7754 133.531 83.9658" stroke="#263238" stroke-width="0.977064" stroke-linecap="round" stroke-linejoin="round"/>
<path d="M108.125 85.0996C108.125 85.0996 100.218 89.6195 98.1349 108.53" stroke="#263238" stroke-width="0.977064" stroke-linecap="round" stroke-linejoin="round"/>
<path d="M149.604 97.2656H124.308V108.955H149.604V97.2656Z" fill="#BABABA" stroke="#263238" stroke-width="0.977064" stroke-linecap="round" stroke-linejoin="round"/>
<path d="M149.604 97.2656H140.599V108.955H149.604V97.2656Z" fill="#8A8A8A" stroke="#263238" stroke-width="0.977064" stroke-linecap="round" stroke-linejoin="round"/>
<path d="M124.308 97.2657L125.868 95.3785C126.221 94.9517 126.664 94.6085 127.166 94.3735C127.667 94.1386 128.215 94.0177 128.769 94.0196H145.038C145.571 94.02 146.098 94.1343 146.583 94.3547C147.069 94.5751 147.502 94.8965 147.853 95.2976L149.609 97.2827L124.308 97.2657Z" fill="white" stroke="#263238" stroke-width="0.977064" stroke-linecap="round" stroke-linejoin="round"/>
<path d="M145.302 94.0713H143.329C142.943 94.0716 142.566 94.1836 142.242 94.3937C141.919 94.6039 141.663 94.9032 141.506 95.2556L140.586 97.2663" stroke="#263238" stroke-width="0.977064" stroke-linecap="round" stroke-linejoin="round"/>
<path d="M149.604 97.2656H124.308V99.647H149.604V97.2656Z" fill="white" stroke="#263238" stroke-width="0.977064" stroke-linecap="round" stroke-linejoin="round"/>
<path d="M149.609 97.2656H140.394V99.647H149.609V97.2656Z" fill="#8A8A8A" stroke="#263238" stroke-width="0.977064" stroke-linecap="round" stroke-linejoin="round"/>
<path d="M125.578 99.6562L126.732 100.385H128.5L129.655 99.7755L125.578 99.6562Z" fill="#263238" stroke="#263238" stroke-width="0.977064" stroke-linecap="round" stroke-linejoin="round"/>
<path d="M134.4 99.6562L135.559 100.385H137.323L138.477 99.7755L134.4 99.6562Z" fill="#263238" stroke="#263238" stroke-width="0.977064" stroke-linecap="round" stroke-linejoin="round"/>
<path d="M127.661 109.045L133.412 94.0536C133.412 94.0536 134.115 93.6276 135.793 94.0536C135.793 94.0536 134.392 94.1899 133.834 95.0334C133.276 95.8769 128.93 109.045 128.93 109.045" stroke="#263238" stroke-width="0.977064" stroke-linecap="round" stroke-linejoin="round"/>
<path d="M205.47 161.664H209.675" stroke="#263238" stroke-width="0.977064" stroke-linecap="round" stroke-linejoin="round"/>
<path d="M23.93 161.664H201.913" stroke="#263238" stroke-width="0.977064" stroke-linecap="round" stroke-linejoin="round"/>
<path d="M3.056 161.664H20.096" stroke="#263238" stroke-width="0.977064" stroke-linecap="round" stroke-linejoin="round"/>
</svg>
