<svg width="312" height="165" viewBox="0 0 312 165" fill="none" xmlns="http://www.w3.org/2000/svg">
<g clip-path="url(#clip0_213_2463)">
<rect width="312" height="165" fill="white"/>
<path d="M236.499 159.528H242.003" stroke="#006837" stroke-width="0.844037" stroke-linecap="round" stroke-linejoin="round"/>
<path d="M69.8529 159.528H233.23" stroke="#006837" stroke-width="0.844037" stroke-linecap="round" stroke-linejoin="round"/>
<path opacity="0.3" d="M84.3253 20.4951C78.7442 20.4951 74.2199 25.0194 74.2199 30.6004C74.2199 36.1814 84.3253 46.3588 84.3253 46.3588C84.3253 46.3588 94.4306 36.1814 94.4306 30.6004C94.4306 25.0195 89.9063 20.4951 84.3253 20.4951ZM84.3253 34.1822C82.3471 34.1822 80.7435 32.5786 80.7435 30.6004C80.7435 28.6222 82.3471 27.0186 84.3253 27.0186C86.3034 27.0186 87.907 28.6222 87.907 30.6004C87.907 32.5786 86.3034 34.1822 84.3253 34.1822Z" stroke="#006837" stroke-width="0.844037" stroke-linecap="round" stroke-linejoin="round"/>
<path opacity="0.3" d="M221.386 127.717C217.818 127.717 214.925 130.61 214.925 134.178C214.925 137.747 221.386 144.255 221.386 144.255C221.386 144.255 227.848 137.747 227.848 134.178C227.848 130.61 224.955 127.717 221.386 127.717ZM221.386 136.469C220.121 136.469 219.096 135.443 219.096 134.178C219.096 132.914 220.121 131.888 221.386 131.888C222.651 131.888 223.677 132.914 223.677 134.178C223.677 135.443 222.651 136.469 221.386 136.469Z" stroke="#006837" stroke-width="0.844037" stroke-linecap="round" stroke-linejoin="round"/>
<path opacity="0.3" d="M229.166 8.48535C225.597 8.48535 222.704 11.3783 222.704 14.9469C222.704 18.5155 229.166 25.0232 229.166 25.0232C229.166 25.0232 235.627 18.5156 235.627 14.9469C235.627 11.3783 232.735 8.48535 229.166 8.48535ZM229.166 17.2372C227.901 17.2372 226.876 16.2118 226.876 14.9469C226.876 13.682 227.901 12.6566 229.166 12.6566C230.431 12.6566 231.456 13.682 231.456 14.9469C231.456 16.2118 230.431 17.2372 229.166 17.2372Z" stroke="#006837" stroke-width="0.844037" stroke-linecap="round" stroke-linejoin="round"/>
<g opacity="0.2">
<path d="M227.246 102.401C225.948 101.693 223.976 99.0302 223.975 99.0282C223.954 99.0006 226.125 98.2611 226.267 98.2301C227.914 97.872 231.307 98.1487 232.254 99.7813C232.936 100.957 232.33 102.376 231.141 102.914C229.927 103.463 228.352 103.003 227.246 102.401Z" fill="#006837"/>
<path d="M218.964 107.381C217.941 106.397 216.805 103.535 216.716 103.307C215.122 103.953 213.434 104.487 211.697 104.933C210.704 105.189 209.695 105.415 208.681 105.63C209.159 105.601 209.586 105.579 209.646 105.582C211.329 105.672 214.528 106.835 215.01 108.659C215.358 109.974 214.399 111.182 213.11 111.387C211.795 111.596 210.396 110.736 209.489 109.863C208.569 108.977 207.552 106.557 207.291 105.913C206.901 105.991 206.513 106.074 206.123 106.151C204.251 106.519 202.382 106.879 200.559 107.289C199.917 107.432 199.29 107.598 198.661 107.761C199.085 107.735 199.443 107.717 199.498 107.72C201.18 107.81 204.38 108.973 204.862 110.798C205.21 112.112 204.25 113.321 202.962 113.525C201.646 113.734 200.248 112.874 199.341 112.001C198.462 111.156 197.504 108.931 197.19 108.167C196.552 108.353 195.912 108.539 195.302 108.749C194.888 108.901 194.48 109.019 194.073 109.195C193.667 109.361 193.265 109.526 192.866 109.688C192.111 110.03 191.329 110.378 190.6 110.73C190.091 110.97 189.611 111.209 189.126 111.449C189.764 111.298 191.019 111.029 191.126 111.019C192.803 110.852 196.141 111.517 196.895 113.248C197.437 114.495 196.673 115.834 195.43 116.231C194.161 116.637 192.649 115.999 191.62 115.274C190.487 114.475 188.98 111.93 188.794 111.611C187.994 112.009 187.219 112.405 186.494 112.789C184.891 113.635 183.481 114.428 182.301 115.116L181.542 114.139C182.781 113.45 184.273 112.649 185.982 111.795C186.793 111.387 187.668 110.967 188.571 110.544C188.505 110.316 188.137 109.017 187.947 107.761C186.529 107.639 184.044 106.434 183.724 106.277C183.276 107.051 182.848 107.808 182.456 108.529C181.631 110.036 180.926 111.406 180.339 112.588L179.518 111.531C180.081 110.469 180.734 109.276 181.48 107.982C181.932 107.194 182.43 106.361 182.949 105.51C182.673 105.276 180.426 103.342 179.837 102.085C179.304 100.945 178.941 99.3445 179.563 98.1658C180.171 97.0122 181.625 96.4942 182.757 97.2473C184.329 98.292 184.398 101.695 183.94 103.317C183.913 103.413 183.504 104.419 183.236 105.049C183.45 104.702 183.654 104.364 183.879 104.01C184.318 103.307 184.778 102.619 185.27 101.876C185.52 101.526 185.773 101.172 186.027 100.815C186.273 100.456 186.578 100.107 186.854 99.748C187.512 98.9292 188.219 98.132 188.948 97.3444C188.334 96.9577 186.172 95.5534 185.469 94.5023C184.768 93.4561 184.167 91.9291 184.604 90.6701C185.03 89.4374 186.389 88.705 187.622 89.2774C189.334 90.0724 189.918 93.4262 189.711 95.0989C189.698 95.203 189.414 96.3866 189.246 97.0336C189.689 96.5636 190.128 96.0924 190.591 95.6315C191.926 94.3005 193.32 92.9952 194.705 91.6865C195.129 91.2859 195.547 90.8815 195.967 90.4785C195.747 90.3433 193.141 88.7297 192.353 87.5524C191.653 86.5066 191.052 84.9791 191.488 83.7202C191.915 82.4875 193.273 81.7551 194.507 82.3279C196.218 83.1227 196.802 86.4762 196.595 88.1488C196.58 88.2747 196.17 89.9772 196.044 90.4051C196.969 89.5169 197.882 88.6235 198.746 87.7059C199.941 86.4418 201.043 85.1351 202.017 83.7905C201.915 83.7278 199.187 82.0557 198.38 80.8504C197.68 79.804 197.079 78.2766 197.515 77.0178C197.942 75.7852 199.3 75.0529 200.533 75.6256C202.246 76.4204 202.829 79.7738 202.622 81.4466C202.606 81.5777 202.164 83.4092 202.06 83.7355C202.117 83.6553 202.186 83.5787 202.243 83.4981C203.265 82.0494 204.072 80.5175 204.758 79.0464C205.159 78.1923 205.494 77.3534 205.801 76.5302C205.261 76.2708 202.807 75.0585 201.961 74.0539C201.15 73.0909 200.384 71.6388 200.68 70.3398C200.969 69.0675 202.238 68.1906 203.527 68.6241C205.316 69.2264 206.264 72.4954 206.243 74.1806C206.241 74.2722 206.126 75.2025 206.032 75.8788C206.166 75.5051 206.31 75.1221 206.43 74.7615C206.886 73.4087 207.219 72.1419 207.506 71.0175C207.663 70.377 207.793 69.7947 207.909 69.2483C207.512 68.7178 205.939 66.558 205.656 65.2995C205.38 64.0715 205.369 62.4298 206.23 61.4129C207.074 60.4173 208.604 60.2237 209.548 61.2025C210.858 62.5609 210.194 65.8994 209.398 67.3852C209.328 67.5135 208.022 69.3979 208.001 69.3704L207.977 69.3384C207.876 69.8665 207.762 70.431 207.625 71.0456C207.362 72.1785 207.056 73.4558 206.628 74.8236C206.204 76.1919 205.705 77.6663 205.039 79.1719C204.374 80.6821 203.597 82.2364 202.589 83.7345C202.578 83.7515 202.564 83.7677 202.552 83.7846C202.983 83.438 204.22 82.5088 204.323 82.4486C205.776 81.595 209.086 80.7995 210.496 82.0556C211.51 82.9605 211.377 84.4972 210.415 85.3788C209.433 86.2788 207.792 86.333 206.554 86.1054C205.158 85.8488 202.632 84.0885 202.432 83.9479C201.459 85.3659 200.346 86.7417 199.142 88.0723C198.455 88.8339 197.739 89.5793 197.012 90.3178C197.394 90.03 197.738 89.7754 197.79 89.7453C199.243 88.8917 202.553 88.0964 203.962 89.3524C204.977 90.2572 204.844 91.7942 203.882 92.6754C202.899 93.5756 201.259 93.6298 200.021 93.4023C198.765 93.1712 196.581 91.7138 196.009 91.3205C195.727 91.6008 195.448 91.8841 195.165 92.1632C193.808 93.5034 192.447 94.8346 191.153 96.1816C190.696 96.6559 190.264 97.1399 189.83 97.6225C190.17 97.3675 190.458 97.1554 190.505 97.1276C191.959 96.274 195.268 95.4788 196.677 96.7344C197.692 97.6396 197.559 99.1764 196.597 100.058C195.615 100.958 193.974 101.012 192.736 100.784C191.537 100.564 189.51 99.237 188.827 98.7726C188.398 99.2802 187.966 99.7881 187.573 100.3C187.312 100.655 187.037 100.979 186.795 101.35C186.548 101.712 186.302 102.072 186.06 102.427C185.618 103.129 185.158 103.85 184.744 104.546C184.452 105.027 184.184 105.492 183.911 105.958C184.36 105.481 185.258 104.564 185.342 104.496C186.211 103.79 187.892 102.988 189.388 102.829C189.516 102.723 189.652 102.63 189.798 102.55C190.942 101.924 192.44 102.293 192.969 103.546C193.704 105.285 191.884 108.161 190.607 109.261C190.532 109.326 189.636 109.939 189.064 110.317C189.434 110.146 189.791 109.976 190.174 109.805C190.928 109.462 191.691 109.141 192.511 108.793C192.913 108.639 193.319 108.483 193.729 108.326C194.132 108.162 194.578 108.039 195.007 107.892C196.007 107.572 197.036 107.297 198.079 107.043C197.78 106.381 196.752 104.017 196.745 102.752C196.738 101.494 197.079 99.888 198.137 99.0788C199.174 98.2863 200.71 98.4241 201.423 99.5824C202.412 101.19 201.049 104.309 199.954 105.59C199.886 105.67 198.996 106.501 198.499 106.948C199.127 106.8 199.754 106.649 200.394 106.52C202.243 106.147 204.125 105.826 206.002 105.499C206.577 105.399 207.148 105.293 207.721 105.188C207.612 104.954 206.329 102.17 206.321 100.754C206.314 99.495 206.655 97.8895 207.714 97.0799C208.75 96.2877 210.286 96.4258 210.999 97.5839C211.989 99.1914 210.626 102.31 209.53 103.591C209.448 103.688 208.166 104.881 207.826 105.169C209.087 104.939 210.342 104.697 211.569 104.409C213.263 104.013 214.903 103.532 216.457 102.947C216.406 102.838 215.053 99.939 215.045 98.4883C215.038 97.2295 215.379 95.6241 216.438 94.8148C217.474 94.0222 219.01 94.1604 219.723 95.3186C220.713 96.9258 219.35 100.045 218.254 101.326C218.168 101.427 216.789 102.71 216.523 102.925C216.615 102.89 216.715 102.864 216.806 102.828C218.458 102.183 219.977 101.351 221.36 100.503C222.165 100.011 222.907 99.4962 223.618 98.9792C223.311 98.465 221.932 96.0996 221.781 94.795C221.636 93.5444 221.798 91.9112 222.762 90.9906C223.705 90.0892 225.247 90.0578 226.083 91.1303C227.243 92.6192 226.23 95.8694 225.282 97.2628C225.231 97.3388 224.622 98.0512 224.17 98.5636C224.488 98.3253 224.819 98.0854 225.119 97.851C226.244 96.9739 227.222 96.1014 228.081 95.3217C228.566 94.8742 228.995 94.46 229.393 94.0682C229.355 93.4065 229.234 90.7374 229.692 89.5317C230.14 88.3549 231.037 86.9806 232.316 86.6073C233.568 86.2417 234.951 86.9248 235.199 88.2615C235.542 90.1177 233.146 92.5355 231.663 93.3358C231.534 93.4045 229.405 94.2554 229.403 94.2211C229.403 94.2211 229.401 94.1887 229.4 94.1812C229.025 94.5658 228.618 94.9738 228.165 95.4105C227.321 96.2107 226.36 97.107 225.249 98.0119C224.141 98.919 222.911 99.8737 221.525 100.762C220.137 101.654 218.632 102.523 216.965 103.216C216.946 103.224 216.925 103.23 216.906 103.237C217.457 103.186 219.001 103.094 219.121 103.1C220.804 103.19 224.003 104.353 224.485 106.177C224.832 107.492 223.873 108.7 222.585 108.905C221.269 109.113 219.871 108.254 218.964 107.381Z" fill="#006837"/>
<path d="M206.126 76.3746C206.094 76.3628 207.496 74.5487 207.597 74.4444C208.774 73.2375 211.756 71.5965 213.447 72.4359C214.665 73.0403 214.942 74.558 214.247 75.662C213.537 76.7895 211.969 77.2752 210.715 77.3825C209.242 77.5088 206.128 76.3754 206.126 76.3746Z" fill="#006837"/>
</g>
<g opacity="0.2">
<path d="M76.4181 102.401C77.7159 101.693 79.6881 99.0302 79.6896 99.0282C79.71 99.0006 77.5396 98.2611 77.3973 98.2301C75.7505 97.872 72.3575 98.1487 71.4104 99.7813C70.7284 100.957 71.3343 102.376 72.5229 102.914C73.7372 103.463 75.3125 103.003 76.4181 102.401Z" fill="#006837"/>
<path d="M84.7002 107.381C85.7234 106.397 86.8588 103.535 86.9481 103.307C88.542 103.953 90.2297 104.487 91.9674 104.933C92.9606 105.189 93.969 105.415 94.9828 105.63C94.5055 105.601 94.0783 105.579 94.0181 105.582C92.3349 105.672 89.1358 106.835 88.6538 108.659C88.3059 109.974 89.2652 111.182 90.5537 111.387C91.8694 111.596 93.268 110.736 94.1748 109.863C95.0956 108.977 96.1122 106.557 96.373 105.913C96.7629 105.991 97.1511 106.074 97.5412 106.151C99.4129 106.519 101.282 106.879 103.105 107.289C103.747 107.432 104.375 107.598 105.003 107.761C104.579 107.735 104.222 107.717 104.167 107.72C102.484 107.81 99.2844 108.973 98.8022 110.798C98.4546 112.112 99.4138 113.321 100.702 113.525C102.018 113.734 103.416 112.874 104.323 112.001C105.202 111.156 106.161 108.931 106.474 108.167C107.112 108.353 107.752 108.539 108.362 108.749C108.776 108.901 109.184 109.019 109.591 109.195C109.997 109.361 110.4 109.526 110.798 109.688C111.554 110.03 112.336 110.378 113.064 110.73C113.573 110.97 114.053 111.209 114.538 111.449C113.9 111.298 112.645 111.029 112.538 111.019C110.861 110.852 107.523 111.517 106.769 113.248C106.227 114.495 106.992 115.834 108.234 116.231C109.503 116.637 111.015 115.999 112.044 115.274C113.177 114.475 114.684 111.93 114.87 111.611C115.67 112.009 116.445 112.405 117.171 112.789C118.774 113.635 120.183 114.428 121.363 115.116L122.122 114.139C120.883 113.45 119.391 112.649 117.682 111.795C116.871 111.387 115.996 110.967 115.093 110.544C115.159 110.316 115.527 109.017 115.717 107.761C117.136 107.639 119.621 106.434 119.94 106.277C120.388 107.051 120.816 107.808 121.209 108.529C122.033 110.036 122.739 111.406 123.326 112.588L124.146 111.531C123.583 110.469 122.93 109.276 122.184 107.982C121.733 107.194 121.234 106.361 120.715 105.51C120.991 105.276 123.238 103.342 123.827 102.085C124.36 100.945 124.723 99.3445 124.101 98.1658C123.493 97.0122 122.039 96.4942 120.907 97.2473C119.335 98.292 119.266 101.695 119.724 103.317C119.751 103.413 120.16 104.419 120.429 105.049C120.215 104.702 120.01 104.364 119.785 104.01C119.346 103.307 118.886 102.619 118.394 101.876C118.144 101.526 117.892 101.172 117.637 100.815C117.391 100.456 117.086 100.107 116.81 99.748C116.152 98.9292 115.445 98.132 114.716 97.3444C115.33 96.9577 117.492 95.5534 118.196 94.5023C118.896 93.4561 119.497 91.9291 119.061 90.6701C118.634 89.4374 117.276 88.705 116.042 89.2774C114.33 90.0724 113.747 93.4262 113.953 95.0989C113.966 95.203 114.25 96.3866 114.418 97.0336C113.976 96.5636 113.536 96.0924 113.074 95.6315C111.738 94.3005 110.344 92.9952 108.959 91.6865C108.535 91.2859 108.117 90.8815 107.697 90.4785C107.917 90.3433 110.523 88.7297 111.311 87.5524C112.011 86.5066 112.612 84.9791 112.176 83.7202C111.749 82.4875 110.391 81.7551 109.158 82.3279C107.446 83.1227 106.862 86.4762 107.069 88.1488C107.084 88.2747 107.495 89.9772 107.62 90.4051C106.695 89.5169 105.782 88.6235 104.918 87.7059C103.723 86.4418 102.621 85.1351 101.647 83.7905C101.75 83.7278 104.477 82.0557 105.284 80.8504C105.984 79.804 106.586 78.2766 106.149 77.0178C105.722 75.7852 104.364 75.0529 103.131 75.6256C101.419 76.4204 100.835 79.7738 101.042 81.4466C101.058 81.5777 101.5 83.4092 101.604 83.7355C101.547 83.6553 101.478 83.5787 101.421 83.4981C100.4 82.0494 99.5919 80.5175 98.9057 79.0464C98.5054 78.1923 98.1705 77.3534 97.8628 76.5302C98.403 76.2708 100.857 75.0585 101.703 74.0539C102.514 73.0909 103.28 71.6388 102.984 70.3398C102.695 69.0675 101.426 68.1906 100.137 68.6241C98.3482 69.2264 97.3998 72.4954 97.4216 74.1806C97.4229 74.2722 97.5382 75.2025 97.6318 75.8788C97.4984 75.5051 97.3541 75.1221 97.2339 74.7615C96.7784 73.4087 96.4449 72.1419 96.1585 71.0175C96.001 70.377 95.8709 69.7947 95.7553 69.2483C96.1523 68.7178 97.7257 66.558 98.0086 65.2995C98.2841 64.0715 98.2948 62.4298 97.4339 61.4129C96.5906 60.4173 95.06 60.2237 94.1165 61.2025C92.8061 62.5609 93.4706 65.8994 94.2666 67.3852C94.3357 67.5135 95.6422 69.3979 95.6631 69.3704L95.6873 69.3384C95.7879 69.8665 95.9023 70.431 96.0395 71.0456C96.3019 72.1785 96.6086 73.4558 97.0365 74.8236C97.4603 76.1919 97.9593 77.6663 98.6248 79.1719C99.2902 80.6821 100.067 82.2364 101.075 83.7345C101.086 83.7515 101.1 83.7677 101.112 83.7846C100.681 83.438 99.444 82.5088 99.341 82.4486C97.8877 81.595 94.5779 80.7995 93.1686 82.0556C92.1538 82.9605 92.287 84.4972 93.2489 85.3788C94.2316 86.2788 95.8717 86.333 97.11 86.1054C98.5063 85.8488 101.032 84.0885 101.232 83.9479C102.205 85.3659 103.319 86.7417 104.522 88.0723C105.209 88.8339 105.925 89.5793 106.652 90.3178C106.27 90.03 105.926 89.7754 105.874 89.7453C104.421 88.8917 101.111 88.0964 99.7022 89.3524C98.687 90.2572 98.8205 91.7942 99.7824 92.6754C100.765 93.5756 102.405 93.6298 103.643 93.4023C104.899 93.1712 107.083 91.7138 107.655 91.3205C107.937 91.6008 108.216 91.8841 108.499 92.1632C109.856 93.5034 111.217 94.8346 112.512 96.1816C112.968 96.6559 113.4 97.1399 113.834 97.6225C113.495 97.3675 113.206 97.1554 113.159 97.1276C111.706 96.274 108.396 95.4788 106.987 96.7344C105.972 97.6396 106.105 99.1764 107.067 100.058C108.049 100.958 109.69 101.012 110.928 100.784C112.127 100.564 114.154 99.237 114.837 98.7726C115.267 99.2802 115.698 99.7881 116.091 100.3C116.352 100.655 116.627 100.979 116.87 101.35C117.117 101.712 117.362 102.072 117.604 102.427C118.046 103.129 118.506 103.85 118.92 104.546C119.212 105.027 119.481 105.492 119.753 105.958C119.304 105.481 118.406 104.564 118.322 104.496C117.453 103.79 115.772 102.988 114.276 102.829C114.148 102.723 114.012 102.63 113.867 102.55C112.722 101.924 111.224 102.293 110.695 103.546C109.96 105.285 111.78 108.161 113.057 109.261C113.132 109.326 114.028 109.939 114.6 110.317C114.23 110.146 113.873 109.976 113.491 109.805C112.736 109.462 111.973 109.141 111.153 108.793C110.751 108.639 110.346 108.483 109.935 108.326C109.533 108.162 109.086 108.039 108.657 107.892C107.657 107.572 106.628 107.297 105.585 107.043C105.884 106.381 106.913 104.017 106.919 102.752C106.926 101.494 106.585 99.888 105.527 99.0788C104.49 98.2863 102.954 98.4241 102.241 99.5824C101.252 101.19 102.615 104.309 103.71 105.59C103.778 105.67 104.668 106.501 105.165 106.948C104.537 106.8 103.911 106.649 103.27 106.52C101.422 106.147 99.539 105.826 97.6622 105.499C97.0872 105.399 96.5157 105.293 95.943 105.188C96.0519 104.954 97.3352 102.17 97.3431 100.754C97.3501 99.495 97.009 97.8895 95.9505 97.0799C94.9142 96.2877 93.3777 96.4258 92.6651 97.5839C91.6756 99.1914 93.0386 102.31 94.1339 103.591C94.2165 103.688 95.4977 104.881 95.8383 105.169C94.5773 104.939 93.3226 104.697 92.0953 104.409C90.4016 104.013 88.7617 103.532 87.2074 102.947C87.2584 102.838 88.6107 99.939 88.6188 98.4883C88.6259 97.2295 88.2848 95.6241 87.2262 94.8148C86.19 94.0222 84.6537 94.1604 83.9407 95.3186C82.9512 96.9258 84.3144 100.045 85.4097 101.326C85.4958 101.427 86.875 102.71 87.1414 102.925C87.0491 102.89 86.9496 102.864 86.8579 102.828C85.2064 102.183 83.6876 101.351 82.3037 100.503C81.4988 100.011 80.7569 99.4962 80.0462 98.9792C80.3534 98.465 81.7318 96.0996 81.8832 94.795C82.0282 93.5444 81.8657 91.9112 80.9026 90.9906C79.9595 90.0892 78.417 90.0578 77.5816 91.1303C76.4214 92.6192 77.434 95.8694 78.3818 97.2628C78.4333 97.3388 79.0425 98.0512 79.4939 98.5636C79.1767 98.3253 78.8447 98.0854 78.5455 97.851C77.4197 96.9739 76.4423 96.1014 75.5833 95.3217C75.0983 94.8742 74.6687 94.46 74.2712 94.0682C74.3091 93.4065 74.4301 90.7374 73.9718 89.5317C73.5243 88.3549 72.6275 86.9806 71.3484 86.6073C70.0959 86.2417 68.7127 86.9248 68.4653 88.2615C68.122 90.1177 70.5182 92.5355 72.0015 93.3358C72.1298 93.4045 74.2589 94.2554 74.2616 94.2211C74.2616 94.2211 74.2634 94.1887 74.2637 94.1812C74.6389 94.5658 75.046 94.9738 75.4994 95.4105C76.3431 96.2107 77.3037 97.107 78.4152 98.0119C79.5235 98.919 80.7532 99.8737 82.1391 100.762C83.527 101.654 85.0325 102.523 86.6995 103.216C86.7184 103.224 86.7391 103.23 86.758 103.237C86.2073 103.186 84.6631 103.094 84.5436 103.1C82.8606 103.19 79.6613 104.353 79.1789 106.177C78.8317 107.492 79.7907 108.7 81.0792 108.905C82.3954 109.113 83.7932 108.254 84.7002 107.381Z" fill="#006837"/>
<path d="M97.5384 76.3746C97.5707 76.3628 96.1683 74.5487 96.0669 74.4444C94.8905 73.2375 91.908 71.5965 90.2173 72.4359C88.9994 73.0403 88.7223 74.558 89.4176 75.662C90.1273 76.7895 91.695 77.2752 92.9493 77.3825C94.422 77.5088 97.5358 76.3754 97.5384 76.3746Z" fill="#006837"/>
</g>
<path d="M197.829 7.94629H102.041C99.9655 7.94629 98.2832 9.62863 98.2832 11.7039V140.936C98.2832 143.011 99.9655 144.693 102.041 144.693H197.829C199.904 144.693 201.587 143.011 201.587 140.936V11.7039C201.587 9.62863 199.904 7.94629 197.829 7.94629Z" fill="#006837"/>
<path d="M195.1 16.5332H104.77V136.106H195.1V16.5332Z" fill="white" stroke="#006837" stroke-width="0.844037" stroke-linecap="round" stroke-linejoin="round"/>
<path d="M192.199 90.6289H108.074V94.5045H192.199V90.6289Z" fill="#C2C2C2"/>
<path d="M108.074 94.5049H191.863" stroke="#006837" stroke-width="0.844037" stroke-linecap="round" stroke-linejoin="round"/>
<path d="M108.259 90.5977H192.017" stroke="#006837" stroke-width="0.844037" stroke-linecap="round" stroke-linejoin="round"/>
<path d="M192.017 84.3574H108.259" stroke="#006837" stroke-width="0.844037" stroke-linecap="round" stroke-linejoin="round"/>
<path d="M192.017 100.309H108.259" stroke="#006837" stroke-width="0.844037" stroke-linecap="round" stroke-linejoin="round"/>
<path d="M192.017 107.785H108.259" stroke="#006837" stroke-width="0.844037" stroke-linecap="round" stroke-linejoin="round"/>
<path d="M192.199 55.6182H108.074V59.4938H192.199V55.6182Z" fill="#C2C2C2"/>
<path d="M192.199 34.0303H108.074V37.9059H192.199V34.0303Z" fill="#C2C2C2"/>
<path d="M192.089 34.0303H108.074V115.88H192.089V34.0303Z" stroke="#006837" stroke-width="0.844037" stroke-linecap="round" stroke-linejoin="round"/>
<path d="M108.074 37.9053H191.863" stroke="#006837" stroke-width="0.844037" stroke-linecap="round" stroke-linejoin="round"/>
<path d="M108.074 59.4941H191.863" stroke="#006837" stroke-width="0.844037" stroke-linecap="round" stroke-linejoin="round"/>
<path d="M108.259 44.457H192.017" stroke="#006837" stroke-width="0.844037" stroke-linecap="round" stroke-linejoin="round"/>
<path d="M148.358 44.3026V38.0664" stroke="#006837" stroke-width="0.844037" stroke-linecap="round" stroke-linejoin="round"/>
<path d="M108.259 50.4502H192.017" stroke="#006837" stroke-width="0.844037" stroke-linecap="round" stroke-linejoin="round"/>
<path d="M108.259 55.5869H192.017" stroke="#006837" stroke-width="0.844037" stroke-linecap="round" stroke-linejoin="round"/>
<path d="M131.653 50.2958V44.5693" stroke="#006837" stroke-width="0.844037" stroke-linecap="round" stroke-linejoin="round"/>
<path d="M136.116 50.2958V44.5693" stroke="#006837" stroke-width="0.844037" stroke-linecap="round" stroke-linejoin="round"/>
<path d="M140.58 50.2958V44.5693" stroke="#006837" stroke-width="0.844037" stroke-linecap="round" stroke-linejoin="round"/>
<path d="M184.7 50.2958V44.5693" stroke="#006837" stroke-width="0.844037" stroke-linecap="round" stroke-linejoin="round"/>
<path d="M172.055 44.3026V38.0664" stroke="#006837" stroke-width="0.844037" stroke-linecap="round" stroke-linejoin="round"/>
<path d="M192.017 65.9453H108.259" stroke="#006837" stroke-width="0.844037" stroke-linecap="round" stroke-linejoin="round"/>
<path d="M151.919 65.789V59.5527" stroke="#006837" stroke-width="0.844037" stroke-linecap="round" stroke-linejoin="round"/>
<path d="M158.666 90.4062V84.1699" stroke="#006837" stroke-width="0.844037" stroke-linecap="round" stroke-linejoin="round"/>
<path d="M192.017 71.9385H108.259" stroke="#006837" stroke-width="0.844037" stroke-linecap="round" stroke-linejoin="round"/>
<path d="M192.017 78.1475H108.259" stroke="#006837" stroke-width="0.844037" stroke-linecap="round" stroke-linejoin="round"/>
<path d="M168.624 71.7821V66.0557" stroke="#006837" stroke-width="0.844037" stroke-linecap="round" stroke-linejoin="round"/>
<path d="M164.16 71.7821V66.0557" stroke="#006837" stroke-width="0.844037" stroke-linecap="round" stroke-linejoin="round"/>
<path d="M159.697 71.7821V66.0557" stroke="#006837" stroke-width="0.844037" stroke-linecap="round" stroke-linejoin="round"/>
<path d="M115.577 71.7821V66.0557" stroke="#006837" stroke-width="0.844037" stroke-linecap="round" stroke-linejoin="round"/>
<path d="M151.267 84.3199V78.0195" stroke="#006837" stroke-width="0.844037" stroke-linecap="round" stroke-linejoin="round"/>
<path d="M146.804 84.3199V78.0195" stroke="#006837" stroke-width="0.844037" stroke-linecap="round" stroke-linejoin="round"/>
<path d="M142.341 84.3199V78.0195" stroke="#006837" stroke-width="0.844037" stroke-linecap="round" stroke-linejoin="round"/>
<path d="M113.431 84.3199V78.0195" stroke="#006837" stroke-width="0.844037" stroke-linecap="round" stroke-linejoin="round"/>
<path d="M128.222 65.789V59.5527" stroke="#006837" stroke-width="0.844037" stroke-linecap="round" stroke-linejoin="round"/>
<path d="M195.1 16.5332H104.77V29.7885H195.1V16.5332Z" fill="#92E3A9" stroke="#006837" stroke-width="0.844037" stroke-linecap="round" stroke-linejoin="round"/>
<path opacity="0.2" d="M98.2832 28.9097V67.169L157.506 7.94629H119.247L98.2832 28.9097Z" fill="white"/>
<path opacity="0.2" d="M201.587 12.4832V11.2843C201.587 9.44077 200.092 7.94629 198.249 7.94629H196.364L98.2832 106.027V115.787L201.587 12.4832Z" fill="white"/>
<path opacity="0.2" d="M201.587 137.691V99.4316L156.325 144.693H194.584L201.587 137.691Z" fill="white"/>
<path d="M124.201 25.1069V20.3256H123.332V19.4697H126.213V20.3256H125.357V25.1069H124.201Z" fill="#006837"/>
<path d="M126.721 25.1069V19.4697H128.182C128.563 19.4697 128.889 19.5127 129.16 19.5984C129.432 19.6843 129.64 19.8363 129.786 20.0543C129.933 20.2724 130.006 20.5739 130.006 20.959C130.006 21.1912 129.986 21.3964 129.947 21.5749C129.907 21.7536 129.838 21.909 129.738 22.0412C129.638 22.1735 129.498 22.279 129.317 22.3579L130.096 25.1069H128.92L128.273 22.5528H127.869V25.1069H126.721ZM127.869 21.8707H128.203C128.389 21.8707 128.535 21.8405 128.642 21.7801C128.748 21.72 128.824 21.6283 128.868 21.5052C128.912 21.3825 128.934 21.2305 128.934 21.0496C128.934 20.7897 128.886 20.5914 128.791 20.4544C128.696 20.3177 128.519 20.249 128.259 20.249H127.869V21.8707Z" fill="#006837"/>
<path d="M130.5 25.1069L131.592 19.4697H132.866L133.952 25.1069H132.887L132.685 23.8681H131.794L131.579 25.1069H130.5ZM131.899 23.1652H132.574L132.233 20.8894L131.899 23.1652Z" fill="#006837"/>
<path d="M135.114 25.1069L134.042 19.4697H135.037L135.705 23.367L136.332 19.4697H137.369L136.297 25.1069H135.114Z" fill="#006837"/>
<path d="M137.946 25.1069V19.4697H140.403V20.2631H139.095V21.7593H140.104V22.5596H139.095V24.3274H140.417V25.1069H137.946Z" fill="#006837"/>
<path d="M140.995 25.1069V19.4697H142.143V24.3274H143.465V25.1069H140.995Z" fill="#006837"/>
<path d="M145.72 25.1069V19.4697H146.862V25.1069H145.72Z" fill="#006837"/>
<path d="M147.724 25.1069V19.4697H148.524L149.777 22.4066V19.4697H150.724V25.1069H149.958L148.706 21.9889V25.1069H147.724Z" fill="#006837"/>
<path d="M153.041 25.1819C152.694 25.1819 152.404 25.1181 152.171 24.9905C151.94 24.8629 151.765 24.6703 151.646 24.4128C151.528 24.1553 151.459 23.8272 151.441 23.4281L152.429 23.261C152.438 23.4931 152.463 23.6867 152.502 23.8421C152.542 23.9977 152.602 24.1136 152.683 24.1902C152.764 24.2667 152.865 24.305 152.986 24.305C153.134 24.305 153.235 24.2586 153.289 24.1657C153.342 24.073 153.368 23.9663 153.368 23.8457C153.368 23.6091 153.312 23.4107 153.198 23.2506C153.084 23.0905 152.935 22.9293 152.749 22.7669L152.165 22.2589C151.956 22.0826 151.785 21.883 151.653 21.6603C151.521 21.4377 151.455 21.1638 151.455 20.8392C151.455 20.3752 151.59 20.0191 151.862 19.7707C152.133 19.5226 152.506 19.3984 152.979 19.3984C153.262 19.3984 153.494 19.445 153.675 19.5377C153.856 19.6306 153.996 19.7546 154.096 19.91C154.195 20.0654 154.265 20.2349 154.305 20.418C154.344 20.6014 154.368 20.7834 154.378 20.9644L153.397 21.1105C153.387 20.9389 153.372 20.7881 153.351 20.6582C153.33 20.5283 153.289 20.4262 153.226 20.3519C153.163 20.2778 153.069 20.2406 152.944 20.2406C152.809 20.2406 152.71 20.2904 152.645 20.3901C152.58 20.49 152.547 20.6002 152.547 20.7207C152.547 20.9204 152.593 21.0839 152.683 21.2115C152.774 21.3391 152.898 21.4724 153.055 21.6116L153.626 22.1126C153.863 22.3169 154.066 22.5501 154.235 22.8121C154.404 23.0743 154.489 23.3979 154.489 23.783C154.489 24.0475 154.429 24.2865 154.308 24.4998C154.188 24.7132 154.019 24.8804 153.804 25.0009C153.588 25.1215 153.334 25.1819 153.041 25.1819Z" fill="#006837"/>
<path d="M156.681 25.1834C156.254 25.1834 155.923 25.1103 155.686 24.9642C155.449 24.8181 155.283 24.607 155.188 24.3308C155.093 24.0548 155.046 23.7197 155.046 23.3253V19.4697H156.18V23.4854C156.18 23.6245 156.19 23.7614 156.211 23.896C156.232 24.0306 156.279 24.1395 156.351 24.223C156.422 24.3066 156.532 24.3483 156.681 24.3483C156.834 24.3483 156.947 24.3066 157.019 24.223C157.091 24.1395 157.136 24.0306 157.154 23.896C157.173 23.7614 157.182 23.6245 157.182 23.4854V19.4697H158.317V23.3253C158.317 23.7197 158.269 24.0548 158.174 24.3308C158.079 24.607 157.913 24.8181 157.676 24.9642C157.44 25.1103 157.108 25.1834 156.681 25.1834Z" fill="#006837"/>
<path d="M159.117 25.1069V19.4697H160.578C160.959 19.4697 161.285 19.5127 161.556 19.5984C161.827 19.6843 162.036 19.8363 162.183 20.0543C162.329 20.2724 162.402 20.5739 162.402 20.959C162.402 21.1912 162.382 21.3964 162.342 21.5749C162.303 21.7536 162.234 21.909 162.134 22.0412C162.034 22.1735 161.894 22.279 161.713 22.3579L162.492 25.1069H161.316L160.669 22.5528H160.265V25.1069H159.117ZM160.265 21.8707H160.599C160.785 21.8707 160.931 21.8405 161.038 21.7801C161.144 21.72 161.22 21.6283 161.264 21.5052C161.308 21.3825 161.33 21.2305 161.33 21.0496C161.33 20.7897 161.282 20.5914 161.187 20.4544C161.092 20.3177 160.915 20.249 160.655 20.249H160.265V21.8707Z" fill="#006837"/>
<path d="M162.896 25.1069L163.988 19.4697H165.262L166.348 25.1069H165.283L165.081 23.8681H164.19L163.974 25.1069H162.896ZM164.295 23.1652H164.97L164.629 20.8894L164.295 23.1652Z" fill="#006837"/>
<path d="M166.877 25.1069V19.4697H167.677L168.93 22.4066V19.4697H169.876V25.1069H169.111L167.858 21.9889V25.1069H166.877Z" fill="#006837"/>
<path d="M172.298 25.1819C171.881 25.1819 171.55 25.103 171.306 24.9452C171.063 24.7876 170.892 24.5684 170.795 24.2875C170.697 24.0069 170.649 23.6809 170.649 23.3097V21.2844C170.649 20.8947 170.697 20.5596 170.795 20.2789C170.892 19.9982 171.063 19.7812 171.306 19.6281C171.55 19.475 171.881 19.3984 172.298 19.3984C172.702 19.3984 173.018 19.4658 173.248 19.6002C173.478 19.735 173.64 19.9251 173.735 20.1709C173.83 20.4169 173.878 20.7022 173.878 21.0269V21.5002H172.764V20.9714C172.764 20.8415 172.757 20.7197 172.743 20.6059C172.729 20.4924 172.691 20.3995 172.628 20.3276C172.566 20.2557 172.458 20.2198 172.305 20.2198C172.152 20.2198 172.041 20.2568 171.971 20.331C171.901 20.4054 171.857 20.5015 171.839 20.6199C171.82 20.7382 171.811 20.8693 171.811 21.0131V23.5742C171.811 23.732 171.823 23.87 171.849 23.9884C171.874 24.1066 171.923 24.1972 171.995 24.2597C172.067 24.3224 172.17 24.3537 172.305 24.3537C172.453 24.3537 172.559 24.3178 172.622 24.2458C172.684 24.174 172.724 24.0777 172.74 23.9569C172.756 23.8363 172.764 23.7088 172.764 23.5742V23.0243H173.878V23.4906C173.878 23.8202 173.831 24.1113 173.739 24.3641C173.646 24.6171 173.486 24.8165 173.258 24.9626C173.031 25.1087 172.711 25.1819 172.298 25.1819Z" fill="#006837"/>
<path d="M174.581 25.1069V19.4697H177.037V20.2631H175.729V21.7593H176.738V22.5596H175.729V24.3274H177.051V25.1069H174.581Z" fill="#006837"/>
<path d="M206.145 161.72C205.649 160.989 204.654 160.797 203.922 161.293C203.191 161.789 203 162.785 203.496 163.516C203.992 164.248 204.987 164.439 205.718 163.943C206.45 163.447 206.641 162.452 206.145 161.72Z" fill="#006837" stroke="#006837" stroke-width="0.844037" stroke-linecap="round" stroke-linejoin="round"/>
<path d="M203.724 159.8L204.591 163.181L205.268 163.129L205.616 159.738L203.724 159.8Z" fill="white" stroke="#006837" stroke-width="0.844037" stroke-linecap="round" stroke-linejoin="round"/>
<path d="M196.728 161.72C196.232 160.989 195.237 160.797 194.505 161.293C193.774 161.789 193.583 162.785 194.079 163.516C194.575 164.248 195.57 164.439 196.302 163.943C197.033 163.447 197.224 162.452 196.728 161.72Z" fill="#006837" stroke="#006837" stroke-width="0.844037" stroke-linecap="round" stroke-linejoin="round"/>
<path d="M194.307 159.8L195.174 163.181L195.851 163.129L196.199 159.738L194.307 159.8Z" fill="white" stroke="#006837" stroke-width="0.844037" stroke-linecap="round" stroke-linejoin="round"/>
<path d="M206.356 122.287L206.327 161.088" stroke="#006837" stroke-width="1.68807" stroke-linecap="round" stroke-linejoin="round"/>
<path d="M206.402 115.627L206.356 122.287" stroke="#006837" stroke-width="3.37615" stroke-linecap="round" stroke-linejoin="round"/>
<path d="M203.893 136.66L194.819 136.568C194.114 136.56 193.538 137.126 193.53 137.83L193.308 159.793C193.3 160.497 193.865 161.074 194.57 161.081L203.644 161.173C204.348 161.18 204.925 160.615 204.932 159.911L205.155 137.948C205.162 137.244 204.597 136.667 203.893 136.66Z" fill="#006837" stroke="#006837" stroke-width="0.844037" stroke-linecap="round" stroke-linejoin="round"/>
<path d="M191.961 159.849L194.57 159.902L194.762 140.948L191.575 140.89C190.666 140.88 189.922 141.61 189.913 142.519L189.76 157.603C189.747 158.831 190.733 159.837 191.961 159.849Z" fill="#006837" stroke="#006837" stroke-width="0.844037" stroke-linecap="round" stroke-linejoin="round"/>
<path d="M193.14 159.861L195.749 159.913L195.942 140.96L192.755 140.901C191.846 140.892 191.102 141.621 191.092 142.53L190.939 157.614C190.927 158.843 191.912 159.848 193.14 159.861Z" fill="#92E3A9" stroke="#006837" stroke-width="0.844037" stroke-linecap="round" stroke-linejoin="round"/>
<path d="M205.241 136.674L196.166 136.582C195.462 136.575 194.885 137.14 194.878 137.844L194.655 159.807C194.648 160.511 195.213 161.088 195.917 161.095L204.992 161.187C205.696 161.195 206.273 160.629 206.28 159.925L206.503 137.962C206.51 137.258 205.945 136.682 205.241 136.674Z" fill="#92E3A9" stroke="#006837" stroke-width="0.844037" stroke-linecap="round" stroke-linejoin="round"/>
<path d="M199.454 136.614L199.043 145.707C199.029 146.024 199.274 146.292 199.59 146.307L200.994 146.37C201.31 146.384 201.579 146.139 201.593 145.822L202.008 136.64L199.454 136.614Z" fill="#006837"/>
<path d="M197.3 149.405L203.621 149.573C204.237 149.589 204.723 150.102 204.707 150.718L204.528 157.419C204.512 158.034 203.999 158.521 203.384 158.505L197.062 158.336C196.447 158.32 195.96 157.807 195.977 157.192L196.155 150.49C196.171 149.875 196.684 149.388 197.3 149.405Z" fill="#006837" stroke="#006837" stroke-width="0.844037" stroke-linecap="round" stroke-linejoin="round"/>
<path d="M198.038 149.547L204.36 149.715C204.975 149.732 205.462 150.245 205.445 150.86L205.267 157.562C205.251 158.177 204.738 158.663 204.122 158.647L197.801 158.479C197.185 158.463 196.699 157.95 196.715 157.334L196.894 150.633C196.91 150.017 197.423 149.531 198.038 149.547Z" fill="#92E3A9" stroke="#006837" stroke-width="0.844037" stroke-linecap="round" stroke-linejoin="round"/>
<path d="M171.946 82.1151C171.946 82.1151 171.587 84.94 171.722 85.3435C171.856 85.7471 172.663 87.3612 172.708 87.4958C172.753 87.6303 171.766 88.4822 171.946 88.8858C172.125 89.2893 173.112 89.7825 173.112 89.7825C173.112 89.7825 175.533 92.5625 175.847 92.5177C176.161 92.4728 177.326 91.8451 177.326 91.8451L177.999 93.4145L184.68 90.5896L182.662 87.2716C182.662 87.2716 180.555 81.9358 178.582 80.2319C176.609 78.528 172.753 80.1871 171.946 82.1151Z" fill="white" stroke="#006837" stroke-width="0.844037" stroke-linecap="round" stroke-linejoin="round"/>
<path d="M175.847 92.5186L177.54 90.6982L177.326 91.846L175.847 92.5186Z" fill="#006837" stroke="#006837" stroke-width="0.844037" stroke-linecap="round" stroke-linejoin="round"/>
<path d="M173.739 89.6033C173.739 89.6033 174.412 89.2894 174.143 88.4375" stroke="#006837" stroke-width="0.844037" stroke-linecap="round" stroke-linejoin="round"/>
<path d="M172.17 85.5665C172.17 85.5665 172.17 84.9835 172.843 85.2526" stroke="#006837" stroke-width="0.844037" stroke-linecap="round" stroke-linejoin="round"/>
<path d="M172.843 86.8682L173.381 87.8098" stroke="#006837" stroke-width="0.844037" stroke-linecap="round" stroke-linejoin="round"/>
<path d="M180.465 77.3626C178.896 76.3761 176.564 76.6003 175.443 77.3626C174.394 78.0757 172.601 79.887 172.374 80.1177C172.375 80.1149 172.376 80.1104 172.377 80.1071C172.367 80.1182 172.359 80.1323 172.349 80.1426C172.349 80.1426 171.721 81.7046 171.946 82.1155C172.394 82.0706 173.829 81.1738 173.739 81.7119C173.65 82.25 173.067 83.1916 173.425 83.3709C173.784 83.5503 174.655 84.3486 174.655 84.3486C174.655 84.3486 174.815 85.2093 175.354 85.1197C175.892 85.03 176.295 84.178 176.699 84.7161C177.102 85.2542 179.882 87.9893 180.062 87.9893C180.241 87.9893 182.662 87.2719 182.662 87.2719C182.662 87.2719 182.842 84.4919 182.976 82.6535C183.111 80.8151 182.034 78.349 180.465 77.3626Z" fill="#006837" stroke="#006837" stroke-width="0.844037" stroke-linecap="round" stroke-linejoin="round"/>
<path d="M175.623 85.9727C175.623 85.9727 175.264 83.4169 176.161 83.8653C177.057 84.3137 177.775 86.6901 177.551 87.2282C177.326 87.7663 176.788 87.4076 176.788 87.4076" fill="white"/>
<path d="M175.623 85.9727C175.623 85.9727 175.264 83.4169 176.161 83.8653C177.057 84.3137 177.775 86.6901 177.551 87.2282C177.326 87.7663 176.788 87.4076 176.788 87.4076" stroke="#006837" stroke-width="0.844037" stroke-linecap="round" stroke-linejoin="round"/>
<path d="M177.157 93.2098L176.174 95.9953C176.174 95.9953 179.178 94.3567 182.073 93.3736C184.968 92.3905 186.88 92.1174 186.88 92.1174L185.405 89.9326C185.405 89.9326 179.342 90.5334 177.157 93.2098Z" fill="#92E3A9" stroke="#006837" stroke-width="0.844037" stroke-linecap="round" stroke-linejoin="round"/>
<path d="M161.765 99.7298L167.958 110.121C168.004 110.199 168.096 110.237 168.184 110.216L173.997 108.788C174.13 108.755 174.194 108.604 174.126 108.485L168.755 99.1645C168.716 99.0974 168.643 99.0577 168.565 99.0618L161.931 99.4191C161.777 99.4274 161.686 99.5969 161.765 99.7298Z" fill="#006837" stroke="#006837" stroke-width="0.844037" stroke-linecap="round" stroke-linejoin="round"/>
<path d="M162.451 100.141L168.024 109.492L173.408 108.17L168.591 99.8105L162.451 100.141Z" fill="#878787" stroke="#006837" stroke-width="0.844037" stroke-linecap="round" stroke-linejoin="round"/>
<path d="M172.624 101.84C172.624 101.84 170.986 102.714 170.385 102.987C169.784 103.26 169.456 103.478 169.839 103.806C170.221 104.134 171.532 103.369 171.532 103.369L172.569 102.932L172.624 101.84Z" fill="white" stroke="#006837" stroke-width="0.844037" stroke-linecap="round" stroke-linejoin="round"/>
<path d="M185.948 160.576L186.318 163.416C186.318 163.416 185.948 164.034 184.775 164.157C183.602 164.281 182.737 164.466 182.737 164.466L183.06 161.704L185.948 160.576Z" fill="white" stroke="#006837" stroke-width="0.844037" stroke-linecap="round" stroke-linejoin="round"/>
<path d="M186.318 163.415L186.265 163.004C185.16 163.434 183.824 163.572 182.837 163.609L182.737 164.465C182.737 164.465 183.602 164.28 184.775 164.156C185.948 164.033 186.318 163.415 186.318 163.415Z" fill="white" stroke="#006837" stroke-width="0.844037" stroke-linecap="round" stroke-linejoin="round"/>
<path d="M177.551 159.403L174.341 161.379C174.341 161.379 172.921 161.749 172.118 161.811C171.316 161.873 171.316 162.737 171.686 163.046C172.057 163.355 173.285 163.878 174.835 164.219C177.922 164.898 182.367 164.651 182.737 164.466C183.108 164.281 183.417 163.972 183.478 163.725C183.54 163.478 183.478 161.07 183.478 161.07C183.478 161.07 178.786 160.515 177.551 159.403Z" fill="white" stroke="#006837" stroke-width="0.844037" stroke-linecap="round" stroke-linejoin="round"/>
<path d="M174.403 163.415C172.593 162.866 171.849 162.418 171.551 162.116C171.363 162.413 171.446 162.845 171.686 163.045C172.056 163.354 173.284 163.877 174.835 164.218C177.922 164.897 182.367 164.65 182.737 164.465C183.084 164.292 183.374 164.011 183.461 163.773C181.396 163.95 176.986 164.2 174.403 163.415Z" fill="white" stroke="#006837" stroke-width="0.844037" stroke-linecap="round" stroke-linejoin="round"/>
<path d="M187.626 120.268C187.626 120.268 187.626 123.312 186.611 124.947C185.597 126.582 184.187 128.048 184.187 128.273C184.187 128.499 182.834 139.041 182.834 139.605C182.834 140.168 182.778 141.803 183.116 142.649C183.454 143.495 184.751 148.85 185.54 153.642C186.33 158.434 185.991 159.618 185.991 159.618C185.991 159.618 186.33 160.464 186.33 160.689C186.33 160.915 186.16 161.535 186.16 161.535C186.16 161.535 185.258 161.817 184.413 161.817C183.567 161.817 183.06 161.704 183.06 161.704C183.06 161.704 183.003 160.802 183.172 160.351C183.342 159.9 183.229 158.66 183.229 158.378C183.229 158.096 181.087 143.495 181.087 142.367C181.087 141.24 181.03 129.288 181.03 129.288L180.523 121C180.523 121 183.454 120.888 187.626 120.268Z" fill="#92E3A9" stroke="#006837" stroke-width="0.844037" stroke-linecap="round" stroke-linejoin="round"/>
<path d="M183.623 126.638C183.623 126.638 182.27 129.119 182.158 129.344C182.045 129.57 182.045 131.543 182.045 131.994C182.045 132.445 181.763 141.014 181.819 142.198C181.876 143.382 182.778 147.047 183.06 149.245C183.342 151.444 183.849 157.871 183.905 158.04C183.962 158.209 184.187 158.998 184.074 159.506C183.962 160.013 183.68 160.577 183.68 160.577C183.68 160.577 183.849 161.535 183.736 161.817C183.623 162.099 182.101 162.381 179.959 161.761C177.817 161.141 176.915 159.788 176.915 159.788C176.915 159.788 177.027 159.506 177.027 158.942C177.027 158.378 177.591 158.265 177.591 158.265L176.52 150.711C176.52 150.711 175.505 148.343 175.449 147.949C175.393 147.554 175.674 146.596 175.618 146.201C175.562 145.806 174.885 144.961 174.829 144.566C174.772 144.171 172.912 137.857 172.799 132.276C172.686 126.695 172.897 121.503 172.897 121.503C172.897 121.503 174.321 122.241 178.719 121.959C183.116 121.677 184.864 121.621 186.95 120.719" fill="#92E3A9"/>
<path d="M183.623 126.638C183.623 126.638 182.27 129.119 182.158 129.344C182.045 129.57 182.045 131.543 182.045 131.994C182.045 132.445 181.763 141.014 181.819 142.198C181.876 143.382 182.778 147.047 183.06 149.245C183.342 151.444 183.849 157.871 183.905 158.04C183.962 158.209 184.187 158.998 184.074 159.506C183.962 160.013 183.68 160.577 183.68 160.577C183.68 160.577 183.849 161.535 183.736 161.817C183.623 162.099 182.101 162.381 179.959 161.761C177.817 161.141 176.915 159.788 176.915 159.788C176.915 159.788 177.027 159.506 177.027 158.942C177.027 158.378 177.591 158.265 177.591 158.265L176.52 150.711C176.52 150.711 175.505 148.343 175.449 147.949C175.393 147.554 175.674 146.596 175.618 146.201C175.562 145.806 174.885 144.961 174.829 144.566C174.772 144.171 172.912 137.857 172.799 132.276C172.686 126.695 172.897 121.503 172.897 121.503C172.897 121.503 174.321 122.241 178.719 121.959C183.116 121.677 184.864 121.621 186.95 120.719" stroke="#006837" stroke-width="0.844037" stroke-linecap="round" stroke-linejoin="round"/>
<path d="M178.981 154.782L179.342 158.539C179.342 158.539 178.848 158.847 179.033 159.465C179.218 160.082 179.342 160.453 179.342 160.453" stroke="#006837" stroke-width="0.844037" stroke-linecap="round" stroke-linejoin="round"/>
<path d="M175.746 135.951C175.788 136.224 175.834 136.489 175.884 136.745C176.872 141.808 177.984 145.636 178.045 145.821C178.107 146.006 177.304 146.685 177.613 147.056C177.922 147.426 178.292 147.612 178.292 147.612L178.86 153.519" stroke="#006837" stroke-width="0.844037" stroke-linecap="round" stroke-linejoin="round"/>
<path d="M175.39 123.038C175.39 123.038 175.031 129.322 175.538 134.312" stroke="#006837" stroke-width="0.844037" stroke-linecap="round" stroke-linejoin="round"/>
<path d="M173.97 122.915C173.97 122.915 173.785 125.138 175.02 126.249" stroke="#006837" stroke-width="0.844037" stroke-linecap="round" stroke-linejoin="round"/>
<path d="M183.417 123.225C181.997 123.842 178.91 123.904 178.91 123.904L179.28 124.83C179.28 124.83 181.441 124.706 182.305 124.398" stroke="#006837" stroke-width="0.844037" stroke-linecap="round" stroke-linejoin="round"/>
<path d="M172.897 121.503C172.897 121.503 173.662 122.923 179.615 122.595C185.569 122.268 187.863 121.284 187.917 120.793C187.972 120.301 187.808 119.154 187.808 119.154C187.808 119.154 176.557 119.974 172.897 121.503Z" fill="#C2C2C2" stroke="#006837" stroke-width="0.844037" stroke-linecap="round" stroke-linejoin="round"/>
<path d="M176.174 95.9961C176.174 95.9961 172.843 97.5254 172.788 98.017C172.733 98.5086 170.986 111.726 170.986 111.726L168.364 108.668C168.364 108.668 168.418 107.575 168.255 107.138C168.091 106.701 168.036 106.374 167.654 106.21C167.271 106.046 166.015 105.718 165.687 105.445C165.36 105.172 164.431 104.298 164.213 104.626C163.994 104.954 163.557 105.5 163.667 105.882C163.776 106.264 164.213 107.029 164.213 107.248C164.213 107.466 164.213 109.105 164.923 109.869C165.633 110.634 166.671 110.962 166.671 110.962C166.671 110.962 168.364 115.44 168.965 116.314C169.565 117.188 172.078 119.209 172.078 119.209C172.078 119.209 171.477 120.629 171.641 120.739C171.805 120.848 172.569 121.995 172.788 121.995C173.006 121.995 179.561 120.902 180.052 120.848C180.544 120.793 185.46 120.848 185.842 120.684C186.224 120.52 187.48 119.974 187.753 119.755C188.027 119.537 188.464 119.155 188.245 118.281C188.027 117.407 187.808 111.235 187.808 110.689C187.808 110.142 189.157 105.882 189.392 104.134C190.24 97.8391 190.148 97.4694 190.166 96.6485C190.209 94.7108 188.673 93.7069 188.455 93.5977C188.236 93.4885 186.88 92.1182 186.88 92.1182C186.88 92.1182 182.019 92.5005 176.174 95.9961Z" fill="#C2C2C2" stroke="#006837" stroke-width="0.844037" stroke-linecap="round" stroke-linejoin="round"/>
<path d="M172.078 119.209C172.078 119.209 173.99 118.881 174.317 118.608C174.645 118.335 177.54 109.869 177.649 109.378C177.758 108.886 177.922 102.933 177.922 102.933" stroke="#006837" stroke-width="0.844037" stroke-linecap="round" stroke-linejoin="round"/>
<path d="M177.867 106.647L178.796 103.315" stroke="#006837" stroke-width="0.844037" stroke-linecap="round" stroke-linejoin="round"/>
<path d="M170.767 115.004C170.603 114.075 170.986 111.727 170.986 111.727C170.986 111.727 171.368 114.021 172.078 114.949" stroke="#006837" stroke-width="0.844037" stroke-linecap="round" stroke-linejoin="round"/>
<path d="M168.364 108.668C168.364 108.668 168.418 107.576 168.255 107.139C168.091 106.702 168.036 106.374 167.654 106.21C167.271 106.046 166.015 105.719 165.687 105.445C165.36 105.172 164.431 104.298 164.213 104.626C163.994 104.954 163.557 105.5 163.667 105.882C163.776 106.265 164.213 107.029 164.213 107.248C164.213 107.466 164.213 109.105 164.923 109.87C165.633 110.634 166.671 110.962 166.671 110.962C166.671 110.962 166.765 111.213 166.917 111.605C167.25 110.801 167.925 109.812 169.245 109.696L168.364 108.668Z" fill="white" stroke="#006837" stroke-width="0.844037" stroke-linecap="round" stroke-linejoin="round"/>
<path d="M167.49 112.655C167.49 112.655 167.872 111.289 169.456 110.743" stroke="#006837" stroke-width="0.844037" stroke-linecap="round" stroke-linejoin="round"/>
<path d="M180.052 120.848L185.569 119.209" stroke="#006837" stroke-width="0.844037" stroke-linecap="round" stroke-linejoin="round"/>
<path d="M186.605 106.357C186.605 106.357 183.114 110.132 180.283 112.208" stroke="#006837" stroke-width="0.844037" stroke-linecap="round" stroke-linejoin="round"/>
<path d="M184.812 109.188C184.812 109.188 182.17 111.831 181.038 112.68" stroke="#006837" stroke-width="0.844037" stroke-linecap="round" stroke-linejoin="round"/>
<path d="M186.88 92.1182C186.88 92.1182 189.464 95.496 189.585 96.5236C189.705 97.5512 189.826 98.1557 189.826 98.1557L191.337 97.0676C191.337 97.0676 190.612 94.4684 189.766 93.6221C188.92 92.7758 186.88 92.1182 186.88 92.1182Z" fill="#006837" stroke="#006837" stroke-width="0.844037" stroke-linecap="round" stroke-linejoin="round"/>
<path d="M191.158 95.8901C191.158 95.8901 189.001 95.7823 187.6 96.8605C186.198 97.9386 185.551 101.497 185.228 103.437C184.904 105.378 184.581 114.111 184.581 115.513C184.581 116.915 185.875 117.562 186.414 117.777C186.953 117.993 190.08 117.238 190.511 117.13C190.942 117.022 194.069 117.022 194.931 115.082C195.794 113.141 195.902 109.691 195.794 108.397C195.686 107.103 194.716 105.162 194.716 105.162C194.716 105.162 194.931 100.095 194.5 98.3699C194.069 96.6448 192.128 95.6744 191.158 95.8901Z" fill="#006837" stroke="#006837" stroke-width="0.844037" stroke-linecap="round" stroke-linejoin="round"/>
<path d="M194.716 105.162C194.716 105.162 186.861 106.9 187.045 107.636C187.229 108.371 186.953 109.934 187.045 110.21C187.137 110.485 195.794 108.397 195.794 108.397C195.794 108.397 195.584 105.539 194.716 105.162Z" fill="#878787" stroke="#878787" stroke-width="0.844037" stroke-linecap="round" stroke-linejoin="round"/>
<path d="M193.572 97.0635C193.572 97.0635 189.619 97.3393 188.332 98.5344C187.045 99.7295 186.749 104.133 186.677 105.245" stroke="#878787" stroke-width="0.844037" stroke-linecap="round" stroke-linejoin="round"/>
<path d="M187.045 111.589C187.045 111.589 186.769 115.542 187.045 116.461C187.321 117.381 191.661 116.921 193.296 116.002" stroke="#878787" stroke-width="0.844037" stroke-linecap="round" stroke-linejoin="round"/>
<path d="M116.534 149.497C116.534 149.497 115.542 158.852 115.4 159.207C115.258 159.561 112.636 159.561 112.494 160.624C112.352 161.687 112.778 162.113 113.203 162.325C113.628 162.538 115.258 163.317 115.754 163.459C116.251 163.601 117.597 163.743 117.952 163.105C118.306 162.467 118.022 160.199 118.022 160.199L120.574 149.639L116.534 149.497Z" fill="white" stroke="#006837" stroke-width="0.844037" stroke-linecap="round" stroke-linejoin="round"/>
<path d="M128.978 147.82C128.978 147.82 128.525 159.25 128.242 160.384C127.958 161.518 127.887 162.368 128.171 163.006C128.454 163.644 129.517 163.644 129.943 163.502C130.368 163.36 133.203 162.014 133.486 161.588C133.77 161.163 132.919 160.738 132.565 160.596C132.211 160.454 131.077 159.391 131.006 159.179C130.935 158.966 132.522 149.521 132.522 149.521L128.978 147.82Z" fill="white" stroke="#006837" stroke-width="0.844037" stroke-linecap="round" stroke-linejoin="round"/>
<path d="M129.943 163.502C130.368 163.36 133.203 162.013 133.486 161.588C133.77 161.163 132.919 160.738 132.565 160.596C132.211 160.454 131.077 159.391 131.006 159.178C130.988 159.126 131.145 158.519 131.39 157.638L128.449 157.534C128.227 158.94 128.32 160.069 128.242 160.383C127.958 161.517 127.887 162.368 128.171 163.006C128.454 163.643 129.517 163.643 129.943 163.502Z" fill="#92E3A9" stroke="#006837" stroke-width="0.844037" stroke-linecap="round" stroke-linejoin="round"/>
<path d="M115.775 156.381C115.599 157.892 115.449 159.085 115.4 159.207C115.258 159.562 112.636 159.562 112.494 160.625C112.352 161.688 112.778 162.113 113.203 162.326C113.628 162.538 115.258 163.318 115.754 163.46C116.251 163.602 117.597 163.743 117.952 163.105C118.306 162.468 118.022 160.2 118.022 160.2L118.887 156.623L115.775 156.381Z" fill="#92E3A9" stroke="#006837" stroke-width="0.844037" stroke-linecap="round" stroke-linejoin="round"/>
<path d="M118.061 162.769C117.497 162.879 116.614 162.953 115.754 162.609C114.777 162.218 113.295 161.457 112.468 161.021C112.47 161.797 112.836 162.142 113.203 162.326C113.628 162.538 115.258 163.318 115.754 163.46C116.251 163.601 117.597 163.743 117.952 163.105C117.999 163.02 118.034 162.903 118.061 162.769Z" fill="white" stroke="#006837" stroke-width="0.844037" stroke-linecap="round" stroke-linejoin="round"/>
<path d="M133.486 161.589C133.655 161.336 133.421 161.083 133.13 160.89C132.31 161.468 131.002 162.37 130.439 162.652C129.855 162.944 128.737 162.868 128.094 162.792C128.116 162.866 128.14 162.938 128.171 163.006C128.454 163.644 129.517 163.644 129.943 163.502C130.368 163.361 133.203 162.014 133.486 161.589Z" fill="white" stroke="#006837" stroke-width="0.844037" stroke-linecap="round" stroke-linejoin="round"/>
<path d="M120.865 116.47C120.865 116.47 120.014 118.384 119.589 124.054C119.164 129.724 118.88 136.457 118.172 139.221C117.463 141.985 115.974 149.497 115.974 149.497L121.077 150.419L123.558 139.433L129.299 120.793L127.991 151.19L132.882 151.615L136.174 130.432C136.174 130.432 138.512 121.998 138.583 119.092C138.654 116.187 137.804 115.407 137.804 115.407L129.299 113.706L120.865 116.47Z" fill="#006837" stroke="#006837" stroke-width="0.844037" stroke-linecap="round" stroke-linejoin="round"/>
<path d="M121.356 114.607L120.865 116.471C120.865 116.471 127.456 115.478 130.291 115.266C133.126 115.053 138.158 115.975 138.158 115.975L137.141 113.679C137.141 113.679 134.047 112.856 130.574 112.785C127.102 112.714 124.267 113.21 123.7 113.352C123.133 113.494 121.356 114.607 121.356 114.607Z" fill="white" stroke="#006837" stroke-width="0.844037" stroke-linecap="round" stroke-linejoin="round"/>
<path d="M122.697 90.5693C122.697 90.5693 117.436 93.0453 116.301 94.9022C115.166 96.7592 110.214 107.695 110.627 108.726C111.04 109.758 113.413 112.028 113.413 112.028L116.095 110.377L115.373 107.282L118.777 100.06C118.777 100.06 120.531 108.211 120.634 109.139C120.737 110.068 120.118 112.853 120.428 113.678C120.737 114.504 121.047 114.71 121.356 114.607C121.666 114.504 125.999 113.266 127.856 113.266C129.713 113.266 136.522 114.4 137.141 113.678C137.76 112.956 137.347 112.337 137.141 112.028C136.934 111.718 134.355 102.536 134.355 102.536C134.355 102.536 135.696 94.6959 135.077 93.8706C134.458 93.0453 128.681 90.8788 128.681 90.8788L122.697 90.5693Z" fill="#92E3A9" stroke="#006837" stroke-width="0.844037" stroke-linecap="round" stroke-linejoin="round"/>
<path d="M125.507 109.805L131.096 107.738" stroke="#006837" stroke-width="0.844037" stroke-linecap="round" stroke-linejoin="round"/>
<path d="M123.66 110.489L124.788 110.072" stroke="#006837" stroke-width="0.844037" stroke-linecap="round" stroke-linejoin="round"/>
<path d="M122.438 109.979L125.901 108.553" stroke="#006837" stroke-width="0.844037" stroke-linecap="round" stroke-linejoin="round"/>
<path d="M117.034 96.6719L118.777 100.06L117.09 98.523" stroke="#006837" stroke-width="0.844037" stroke-linecap="round" stroke-linejoin="round"/>
<path d="M135.077 93.8711L139.617 108.314L141.783 110.068L139.617 112.853C139.617 112.853 136.109 109.965 135.593 109.449C135.077 108.933 132.704 100.886 132.704 100.886" fill="#92E3A9"/>
<path d="M135.077 93.8711L139.617 108.314L141.783 110.068L139.617 112.853C139.617 112.853 136.109 109.965 135.593 109.449C135.077 108.933 132.704 100.886 132.704 100.886" stroke="#006837" stroke-width="0.844037" stroke-linecap="round" stroke-linejoin="round"/>
<path d="M151.27 116.683V114.557H144.182V116.47" stroke="#006837" stroke-width="2.53211" stroke-miterlimit="10"/>
<path d="M144.182 116.47V136.031H151.27V116.682" stroke="#006837" stroke-width="1.68807" stroke-miterlimit="10"/>
<path d="M141.783 110.066L147.551 112.413C147.551 112.413 148.564 112.781 148.748 112.919C148.932 113.057 149.485 113.564 149.485 113.564H148.978C148.978 113.564 150.267 115.267 150.129 115.451C149.991 115.636 150.083 115.728 149.669 115.728C149.254 115.728 148.886 115.497 148.886 115.497C148.886 115.497 148.149 115.636 147.505 115.451C146.86 115.267 145.341 113.794 145.341 113.794L139.617 112.852L141.783 110.066Z" fill="white" stroke="#006837" stroke-width="0.844037" stroke-linecap="round" stroke-linejoin="round"/>
<path d="M142.79 158.853H142.248C142.075 158.853 141.936 158.992 141.936 159.165V161.117C141.936 161.29 142.075 161.429 142.248 161.429H142.79C142.963 161.429 143.103 161.29 143.103 161.117V159.165C143.103 158.992 142.963 158.853 142.79 158.853Z" fill="#006837" stroke="#006837" stroke-width="0.844037" stroke-linecap="round" stroke-linejoin="round"/>
<path d="M143.129 157.47H141.925V160.305H143.129V157.47Z" fill="white" stroke="#006837" stroke-width="0.844037" stroke-linecap="round" stroke-linejoin="round"/>
<path d="M153.001 161.43H153.544C153.716 161.43 153.856 161.29 153.856 161.118V159.165C153.856 158.993 153.716 158.853 153.544 158.853H153.001C152.829 158.853 152.689 158.993 152.689 159.165V161.118C152.689 161.29 152.829 161.43 153.001 161.43Z" fill="#006837" stroke="#006837" stroke-width="0.844037" stroke-linecap="round" stroke-linejoin="round"/>
<path d="M152.63 160.271H153.835V157.436H152.63V160.271Z" fill="white" stroke="#006837" stroke-width="0.844037" stroke-linecap="round" stroke-linejoin="round"/>
<path d="M152.717 135.605H142.948C141.555 135.605 140.426 136.734 140.426 138.127V155.905C140.426 157.298 141.555 158.427 142.948 158.427H152.717C154.11 158.427 155.239 157.298 155.239 155.905V138.127C155.239 136.734 154.11 135.605 152.717 135.605Z" fill="#C2C2C2" stroke="#006837" stroke-width="0.844037" stroke-linecap="round" stroke-linejoin="round"/>
<path d="M152.467 137.137H143.197C141.667 137.137 140.426 138.378 140.426 139.908V155.655C140.426 157.186 141.667 158.427 143.197 158.427H152.467C153.998 158.427 155.239 157.186 155.239 155.655V139.908C155.239 138.378 153.998 137.137 152.467 137.137Z" fill="#878787" stroke="#006837" stroke-width="0.844037" stroke-linecap="round" stroke-linejoin="round"/>
<path d="M142.29 140.275V155.281" stroke="#006837" stroke-width="0.844037" stroke-linecap="round" stroke-linejoin="round"/>
<path d="M145.061 140.275V155.281" stroke="#006837" stroke-width="0.844037" stroke-linecap="round" stroke-linejoin="round"/>
<path d="M147.832 140.275V155.281" stroke="#006837" stroke-width="0.844037" stroke-linecap="round" stroke-linejoin="round"/>
<path d="M150.603 140.275V155.281" stroke="#006837" stroke-width="0.844037" stroke-linecap="round" stroke-linejoin="round"/>
<path d="M153.374 140.275V155.281" stroke="#006837" stroke-width="0.844037" stroke-linecap="round" stroke-linejoin="round"/>
<path d="M116.095 110.377L119.776 116.397L120.625 116.774L120.106 119.133C120.106 119.133 118.408 118.284 118.172 117.812C117.936 117.34 113.413 112.028 113.413 112.028L116.095 110.377Z" fill="white" stroke="#006837" stroke-width="0.844037" stroke-linecap="round" stroke-linejoin="round"/>
<path d="M121.927 89.748L119.95 100.954C119.95 100.954 122.323 104.118 126.278 104.118C130.233 104.118 132.21 102.14 132.21 102.14L130.496 88.957L121.927 89.748Z" fill="#006837" stroke="#006837" stroke-width="0.844037" stroke-linecap="round" stroke-linejoin="round"/>
<path d="M126.603 92.6888C131.179 92.6888 134.889 88.9175 134.889 84.2653C134.889 79.6131 131.179 75.8418 126.603 75.8418C122.027 75.8418 118.317 79.6131 118.317 84.2653C118.317 88.9175 122.027 92.6888 126.603 92.6888Z" fill="white" stroke="#006837" stroke-width="0.844037" stroke-linecap="round" stroke-linejoin="round"/>
<path d="M126.557 87.1031C128.732 87.1031 130.494 85.3814 130.494 83.2576C130.494 81.1338 128.732 79.4121 126.557 79.4121C124.383 79.4121 122.62 81.1338 122.62 83.2576C122.62 85.3814 124.383 87.1031 126.557 87.1031Z" fill="#92E3A9" stroke="#006837" stroke-width="0.844037" stroke-linecap="round" stroke-linejoin="round"/>
<path d="M126.146 86.4404L125.644 90.9605L126.72 91.104L126.146 86.4404Z" fill="#92E3A9" stroke="#006837" stroke-width="0.844037" stroke-linecap="round" stroke-linejoin="round"/>
<path d="M126.557 86.4578L127.366 89.8125L126.72 89.7408L126.146 86.4404L126.557 86.4578Z" fill="#92E3A9" stroke="#006837" stroke-width="0.844037" stroke-linecap="round" stroke-linejoin="round"/>
<path d="M126.557 86.4576C128.732 86.4576 130.494 84.7359 130.494 82.6121C130.494 80.4883 128.732 78.7666 126.557 78.7666C124.383 78.7666 122.62 80.4883 122.62 82.6121C122.62 84.7359 124.383 86.4576 126.557 86.4576Z" fill="white" stroke="#006837" stroke-width="0.844037" stroke-linecap="round" stroke-linejoin="round"/>
<path d="M188.656 39.9439L184.66 47.1351L186.347 47.0463L192.029 40.9205L190.52 39.5L188.656 39.9439Z" fill="#006837" stroke="#006837" stroke-width="0.844037" stroke-linecap="round" stroke-linejoin="round"/>
<path d="M242.19 28.1365L238.151 27.858C237.415 27.8073 236.676 27.8691 235.958 28.0413L194.16 38.0799L185.637 35.0613L183.329 35.7716L190.698 41.4535L200.907 40.9208L239.153 32.3282C240.514 32.0223 241.807 31.4643 242.963 30.6829L243.983 29.9936C244.294 29.7834 244.447 29.4054 244.368 29.0384C244.286 28.6574 243.974 28.3692 243.587 28.3188L242.19 28.1365Z" fill="white" stroke="#006837" stroke-width="0.844037" stroke-linecap="round" stroke-linejoin="round"/>
<path d="M198.958 41.0217C200.821 39.3333 203.473 37.0448 206.053 35.2228L194.16 38.0791L185.637 35.0605L183.329 35.7708L190.698 41.4527L198.958 41.0217Z" fill="#92E3A9" stroke="#006837" stroke-width="0.844037" stroke-linecap="round" stroke-linejoin="round"/>
<path d="M188.656 39.9435L186.791 33.1074H188.478L192.739 39.6771L188.656 39.9435Z" fill="#006837" stroke="#006837" stroke-width="0.844037" stroke-linecap="round" stroke-linejoin="round"/>
<path d="M188.656 39.9434L187.004 40.1004L187.13 41.0775L190.697 41.4526L188.656 39.9434Z" fill="white" stroke="#006837" stroke-width="0.844037" stroke-linecap="round" stroke-linejoin="round"/>
<path d="M213.825 35.2593L213.331 30.7546L208.333 15.1426L211.48 16.315L223.636 33.3464L213.825 35.2593Z" fill="#006837" stroke="#006837" stroke-width="0.844037" stroke-linecap="round" stroke-linejoin="round"/>
<path d="M217.289 24.9797C216.833 24.6287 216.694 23.3812 217.061 22.9383C217.595 22.2941 220.139 22.0632 220.871 22.5128C221.374 22.822 221.522 24.1416 221.099 24.5542C220.484 25.1543 217.952 25.4902 217.289 24.9797Z" fill="white" stroke="#006837" stroke-width="0.844037" stroke-linecap="round" stroke-linejoin="round"/>
<path d="M216.859 23.1689L214.923 23.7021L215.204 24.8244H217.027C217.027 24.8244 216.775 24.0388 216.859 23.1689Z" fill="white" stroke="#006837" stroke-width="0.844037" stroke-linecap="round" stroke-linejoin="round"/>
<path d="M221.835 30.5373C221.379 30.1863 221.24 28.9388 221.607 28.4959C222.141 27.8517 224.685 27.6208 225.417 28.0705C225.92 28.3796 226.067 29.6992 225.645 30.1118C225.03 30.7119 222.498 31.0478 221.835 30.5373Z" fill="white" stroke="#006837" stroke-width="0.844037" stroke-linecap="round" stroke-linejoin="round"/>
<path d="M221.405 28.7266L219.469 29.2597L219.749 30.382H221.573C221.573 30.382 221.321 29.5964 221.405 28.7266Z" fill="white" stroke="#006837" stroke-width="0.844037" stroke-linecap="round" stroke-linejoin="round"/>
<path d="M208.874 39.2423L213.116 39.7793L202.108 53.6871L200.766 53.8483L203.719 54.1704L222.675 36.8259L224.823 35.5908L208.874 39.2423Z" fill="#006837" stroke="#006837" stroke-width="0.844037" stroke-linecap="round" stroke-linejoin="round"/>
<path d="M218.809 42.4504C218.353 42.0994 218.214 40.8519 218.581 40.409C219.115 39.7648 221.659 39.5339 222.391 39.9836C222.894 40.2927 223.042 41.6123 222.619 42.0249C222.004 42.625 219.472 42.9609 218.809 42.4504Z" fill="white" stroke="#006837" stroke-width="0.844037" stroke-linecap="round" stroke-linejoin="round"/>
<path d="M218.379 40.6396L216.443 41.1728L216.723 42.2951H218.547C218.547 42.2951 218.295 41.5095 218.379 40.6396Z" fill="white" stroke="#006837" stroke-width="0.844037" stroke-linecap="round" stroke-linejoin="round"/>
<path d="M211.13 48.9474C210.674 48.5965 210.535 47.349 210.902 46.9061C211.436 46.2619 213.98 46.0309 214.712 46.4806C215.215 46.7898 215.363 48.1094 214.94 48.5219C214.325 49.122 211.793 49.4579 211.13 48.9474Z" fill="white" stroke="#006837" stroke-width="0.844037" stroke-linecap="round" stroke-linejoin="round"/>
<path d="M210.7 47.1367L208.764 47.6698L209.045 48.7922H210.868C210.868 48.7922 210.616 48.0066 210.7 47.1367Z" fill="white" stroke="#006837" stroke-width="0.844037" stroke-linecap="round" stroke-linejoin="round"/>
<path d="M184.633 41.2275C184.633 41.2275 113.957 52.9478 79.4744 72.0176C44.9921 91.0873 105.597 78.8095 105.597 78.8095" stroke="#006837" stroke-width="0.844037" stroke-linecap="round" stroke-linejoin="round"/>
</g>
<defs>
<clipPath id="clip0_213_2463">
<rect width="312" height="165" fill="white"/>
</clipPath>
</defs>
</svg>
