<svg width="200" height="165" viewBox="0 0 200 165" fill="none" xmlns="http://www.w3.org/2000/svg">
<path d="M174.744 21.6757C174.744 21.6757 159.976 1.31574 133.144 1.45974C106.312 1.60374 89.912 19.7837 71.516 30.3997C61.884 35.9517 50.048 35.7957 39.516 39.2357C5.80001 50.2317 -1.92799 93.0757 15.468 114.648C30.528 133.32 53.804 141.048 87.504 139.196C121.204 137.344 144.992 137.176 172.344 113.472C199.696 89.7677 192.4 48.6717 174.744 21.6757Z" fill="#92E3A9"/>
<path opacity="0.7" d="M174.744 21.6757C174.744 21.6757 159.976 1.31574 133.144 1.45974C106.312 1.60374 89.912 19.7837 71.516 30.3997C61.884 35.9517 50.048 35.7957 39.516 39.2357C5.80001 50.2317 -1.92799 93.0757 15.468 114.648C30.528 133.32 53.804 141.048 87.504 139.196C121.204 137.344 144.992 137.176 172.344 113.472C199.696 89.7677 192.4 48.6717 174.744 21.6757Z" fill="white"/>
<path d="M34.284 8.3724C33.4159 7.84232 32.417 7.56524 31.4 7.5724C30.1397 7.57067 28.9167 8.00026 27.9343 8.78978C26.952 9.57931 26.2694 10.6812 26 11.9124C25.4938 11.4208 24.8543 11.0888 24.161 10.9577C23.4677 10.8265 22.7511 10.902 22.1003 11.1748C21.4496 11.4475 20.8933 11.9055 20.5007 12.4918C20.1081 13.0781 19.8964 13.7668 19.892 14.4724C19.892 14.5164 19.892 14.5604 19.892 14.6044H49.46" stroke="#B2B2B2" stroke-width="0.917431" stroke-linecap="round" stroke-linejoin="round"/>
<path d="M53.2 14.6037H71.624C71.4523 14.3196 71.2227 14.075 70.95 13.8857C70.6774 13.6964 70.3679 13.5668 70.0417 13.5053C69.7156 13.4437 69.3801 13.4517 69.0572 13.5286C68.7344 13.6055 68.4314 13.7497 68.168 13.9517C67.9141 13.2212 67.4392 12.5877 66.8093 12.1391C66.1793 11.6904 65.4254 11.4488 64.652 11.4477C64.0109 11.447 63.3808 11.6139 62.824 11.9317C62.6648 10.2011 61.8914 8.58459 60.6437 7.37475C59.396 6.16491 57.7565 5.44163 56.0218 5.33578C54.287 5.22993 52.5717 5.7485 51.1862 6.79766C49.8007 7.84682 48.8365 9.35726 48.468 11.0557C47.8698 10.4658 47.1251 10.0459 46.3108 9.83934C45.4964 9.63277 44.6417 9.64694 43.8346 9.88039C43.0275 10.1138 42.2972 10.5581 41.7188 11.1676C41.1405 11.777 40.7349 12.5295 40.544 13.3477C40.1334 12.7967 39.536 12.4144 38.8637 12.2723C38.1915 12.1302 37.4904 12.238 36.892 12.5757C36.8162 11.6556 36.5094 10.7696 36 9.99969" stroke="#B2B2B2" stroke-width="0.917431" stroke-linecap="round" stroke-linejoin="round"/>
<path d="M135.6 92.7676H178.8C178.628 92.4835 178.399 92.2389 178.126 92.0496C177.853 91.8603 177.544 91.7307 177.218 91.6692C176.892 91.6076 176.556 91.6156 176.233 91.6925C175.91 91.7694 175.607 91.9136 175.344 92.1156C175.166 91.6003 174.877 91.1305 174.497 90.7395C174.117 90.3484 173.656 90.0456 173.146 89.8525C172.636 89.6594 172.09 89.5807 171.546 89.622C171.003 89.6633 170.475 89.8237 170 90.0916C169.835 88.284 169.001 86.6031 167.661 85.3791C166.32 84.155 164.571 83.4761 162.756 83.4756C162.24 83.475 161.725 83.53 161.22 83.6396" stroke="#B2B2B2" stroke-width="0.917431" stroke-linecap="round" stroke-linejoin="round"/>
<path d="M159.064 84.4756C158.195 84.9857 157.441 85.6707 156.85 86.4873C156.259 87.304 155.844 88.2343 155.632 89.2196C155.034 88.6297 154.289 88.2098 153.475 88.0032C152.66 87.7967 151.806 87.8108 150.999 88.0443C150.191 88.2777 149.461 88.722 148.883 89.3314C148.304 89.9409 147.899 90.6934 147.708 91.5116C147.301 90.9574 146.704 90.5724 146.031 90.43C145.358 90.2876 144.657 90.3978 144.06 90.7396C143.94 89.4262 143.353 88.1994 142.406 87.2811C141.459 86.3629 140.215 85.8139 138.899 85.7337C137.582 85.6534 136.281 86.0472 135.23 86.8436C134.178 87.64 133.447 88.7866 133.168 90.0756C132.662 89.584 132.022 89.252 131.329 89.1209C130.636 88.9897 129.919 89.0652 129.268 89.338C128.618 89.6107 128.061 90.0687 127.669 90.655C127.276 91.2413 127.064 91.93 127.06 92.6356C127.06 92.6796 127.06 92.7236 127.06 92.7676H131.6" stroke="#B2B2B2" stroke-width="0.917431" stroke-linecap="round" stroke-linejoin="round"/>
<path d="M191.6 118.865H8V123.169H191.6V118.865Z" fill="#B2B2B2"/>
<path d="M143.68 121.005V0.46875" stroke="#B2B2B2" stroke-width="1.83486" stroke-linecap="round" stroke-linejoin="round"/>
<path d="M73.464 121.005V0.957031" stroke="#B2B2B2" stroke-width="1.83486" stroke-linecap="round" stroke-linejoin="round"/>
<path d="M7.76001 76.4688H191.604" stroke="#B2B2B2" stroke-width="1.83486" stroke-linecap="round" stroke-linejoin="round"/>
<path d="M8.79999 28.1094H194" stroke="#B2B2B2" stroke-width="1.83486" stroke-linecap="round" stroke-linejoin="round"/>
<path d="M98.292 53.3848L96.476 54.5048" stroke="#B2B2B2" stroke-width="0.458716" stroke-linecap="round" stroke-linejoin="round"/>
<path d="M128.912 34.5166L100.732 51.8806" stroke="#B2B2B2" stroke-width="0.458716" stroke-linecap="round" stroke-linejoin="round"/>
<path d="M132.628 35.6885L110.052 49.6005" stroke="#B2B2B2" stroke-width="0.458716" stroke-linecap="round" stroke-linejoin="round"/>
<path d="M142.488 29.6123L135.672 33.8163" stroke="#B2B2B2" stroke-width="0.458716" stroke-linecap="round" stroke-linejoin="round"/>
<g opacity="0.3">
<path d="M24.308 113.292L22.492 114.412" stroke="black" stroke-width="0.458716" stroke-linecap="round" stroke-linejoin="round"/>
<path d="M54.928 94.4248L26.752 111.789" stroke="#B2B2B2" stroke-width="0.458716" stroke-linecap="round" stroke-linejoin="round"/>
<path d="M58.644 95.5967L36.072 109.513" stroke="#B2B2B2" stroke-width="0.458716" stroke-linecap="round" stroke-linejoin="round"/>
<path d="M68.504 89.5205L61.688 93.7245" stroke="#B2B2B2" stroke-width="0.458716" stroke-linecap="round" stroke-linejoin="round"/>
</g>
<path opacity="0.3" d="M127.524 114.736L125.708 115.856" stroke="black" stroke-width="0.458716" stroke-linecap="round" stroke-linejoin="round"/>
<path d="M158.144 95.8691L129.964 113.233" stroke="#B2B2B2" stroke-width="0.458716" stroke-linecap="round" stroke-linejoin="round"/>
<path d="M161.86 97.041L139.288 110.953" stroke="#B2B2B2" stroke-width="0.458716" stroke-linecap="round" stroke-linejoin="round"/>
<path d="M171.72 90.9648L164.904 95.1688" stroke="#B2B2B2" stroke-width="0.458716" stroke-linecap="round" stroke-linejoin="round"/>
<g opacity="0.3">
<path d="M14.724 55.5361L12.908 56.6561" stroke="#B2B2B2" stroke-width="0.458716" stroke-linecap="round" stroke-linejoin="round"/>
<path d="M45.3441 36.6689L17.1641 54.0329" stroke="#B2B2B2" stroke-width="0.458716" stroke-linecap="round" stroke-linejoin="round"/>
<path d="M49.06 37.8408L26.488 51.7528" stroke="#B2B2B2" stroke-width="0.458716" stroke-linecap="round" stroke-linejoin="round"/>
<path d="M58.9201 31.7646L52.1041 35.9686" stroke="#B2B2B2" stroke-width="0.458716" stroke-linecap="round" stroke-linejoin="round"/>
</g>
<path d="M183.08 163.735H186.844" stroke="#263238" stroke-width="0.917431" stroke-linecap="round" stroke-linejoin="round"/>
<path d="M79.8959 163.735H178.688" stroke="#263238" stroke-width="0.917431" stroke-linecap="round" stroke-linejoin="round"/>
<path d="M9.95197 163.735H77.384" stroke="#263238" stroke-width="0.917431" stroke-linecap="round" stroke-linejoin="round"/>
<path d="M163.796 98.1592L169.084 148.827" stroke="#263238" stroke-width="1.83486" stroke-linecap="round" stroke-linejoin="round"/>
<path d="M168.228 139.132L165.832 136.6" stroke="#263238" stroke-width="1.83486" stroke-linecap="round" stroke-linejoin="round"/>
<path d="M166.56 137.36C166.555 136.972 166.468 136.59 166.303 136.239C166.139 135.888 165.902 135.576 165.608 135.324C164.992 134.776 161.752 133.412 161.448 134.552C161.112 135.796 164.428 138.232 166.56 137.36Z" fill="#92E3A9" stroke="#263238" stroke-width="0.917431" stroke-linecap="round" stroke-linejoin="round"/>
<path d="M166.56 137.36L163.48 135.436" stroke="#263238" stroke-width="0.458716" stroke-linecap="round" stroke-linejoin="round"/>
<path d="M168.832 144.891L166.436 142.363" stroke="#263238" stroke-width="1.83486" stroke-linecap="round" stroke-linejoin="round"/>
<path d="M167.164 143.119C167.159 142.732 167.071 142.35 166.906 142C166.741 141.649 166.503 141.338 166.208 141.087C165.592 140.535 162.356 139.175 162.048 140.315C161.712 141.555 165.028 143.999 167.164 143.119Z" fill="#92E3A9" stroke="#263238" stroke-width="0.917431" stroke-linecap="round" stroke-linejoin="round"/>
<path d="M167.164 143.12L164.08 141.2" stroke="#263238" stroke-width="0.458716" stroke-linecap="round" stroke-linejoin="round"/>
<path d="M166.764 125.071L164.364 122.539" stroke="#263238" stroke-width="1.83486" stroke-linecap="round" stroke-linejoin="round"/>
<path d="M165.092 123.295C165.088 122.908 165.001 122.526 164.837 122.176C164.673 121.825 164.435 121.514 164.14 121.263C163.524 120.715 160.288 119.351 159.98 120.491C159.644 121.731 162.96 124.167 165.092 123.295Z" fill="#92E3A9" stroke="#263238" stroke-width="0.917431" stroke-linecap="round" stroke-linejoin="round"/>
<path d="M165.092 123.296L162.012 121.376" stroke="#263238" stroke-width="0.458716" stroke-linecap="round" stroke-linejoin="round"/>
<path d="M167.364 130.832L164.968 128.3" stroke="#263238" stroke-width="1.83486" stroke-linecap="round" stroke-linejoin="round"/>
<path d="M165.696 129.06C165.691 128.672 165.603 128.291 165.438 127.94C165.273 127.59 165.035 127.278 164.74 127.028C164.124 126.476 160.888 125.116 160.58 126.256C160.244 127.496 163.56 129.932 165.696 129.06Z" fill="#92E3A9" stroke="#263238" stroke-width="0.917431" stroke-linecap="round" stroke-linejoin="round"/>
<path d="M165.696 129.06L162.612 127.14" stroke="#263238" stroke-width="0.458716" stroke-linecap="round" stroke-linejoin="round"/>
<path d="M165.784 115.707L163.388 113.175" stroke="#263238" stroke-width="1.83486" stroke-linecap="round" stroke-linejoin="round"/>
<path d="M164.116 113.936C164.111 113.549 164.024 113.167 163.86 112.817C163.696 112.466 163.458 112.155 163.164 111.904C162.548 111.352 159.308 109.992 159 111.132C158.668 112.372 162 114.8 164.116 113.936Z" fill="#92E3A9" stroke="#263238" stroke-width="0.917431" stroke-linecap="round" stroke-linejoin="round"/>
<path d="M164.116 113.936L161.032 112.016" stroke="#263238" stroke-width="0.458716" stroke-linecap="round" stroke-linejoin="round"/>
<path d="M164.804 106.307L162.408 103.775" stroke="#263238" stroke-width="1.83486" stroke-linecap="round" stroke-linejoin="round"/>
<path d="M163.136 104.535C163.131 104.147 163.043 103.765 162.878 103.414C162.713 103.063 162.475 102.751 162.18 102.499C161.568 101.951 158.328 100.587 158.02 101.731C157.688 102.971 161 105.407 163.136 104.535Z" fill="#92E3A9" stroke="#263238" stroke-width="0.917431" stroke-linecap="round" stroke-linejoin="round"/>
<path d="M163.136 104.535L160.052 102.611" stroke="#263238" stroke-width="0.458716" stroke-linecap="round" stroke-linejoin="round"/>
<path d="M167.828 135.724L169.648 132.748" stroke="#263238" stroke-width="1.83486" stroke-linecap="round" stroke-linejoin="round"/>
<path d="M169.092 133.644C169.017 133.264 169.025 132.872 169.114 132.495C169.203 132.117 169.371 131.763 169.608 131.456C170.096 130.792 172.984 128.788 173.52 129.856C174.104 130.988 171.364 134.056 169.092 133.644Z" fill="#92E3A9" stroke="#263238" stroke-width="0.917431" stroke-linecap="round" stroke-linejoin="round"/>
<path d="M169.092 133.643L171.868 130.987" stroke="#263238" stroke-width="0.458716" stroke-linecap="round" stroke-linejoin="round"/>
<path d="M166.244 120.56L168.068 117.588" stroke="#263238" stroke-width="1.83486" stroke-linecap="round" stroke-linejoin="round"/>
<path d="M167.512 118.479C167.436 118.099 167.442 117.707 167.531 117.33C167.619 116.952 167.787 116.598 168.024 116.291C168.512 115.627 171.4 113.623 171.936 114.691C172.52 115.823 169.78 118.891 167.512 118.479Z" fill="#92E3A9" stroke="#263238" stroke-width="0.917431" stroke-linecap="round" stroke-linejoin="round"/>
<path d="M167.512 118.479L170.288 115.823" stroke="#263238" stroke-width="0.458716" stroke-linecap="round" stroke-linejoin="round"/>
<path d="M165.548 113.896L167.372 110.924" stroke="#263238" stroke-width="1.83486" stroke-linecap="round" stroke-linejoin="round"/>
<path d="M166.8 111.816C166.724 111.436 166.73 111.044 166.819 110.666C166.907 110.289 167.075 109.935 167.312 109.628C167.804 108.964 170.688 106.964 171.224 108.028C171.824 109.16 169.084 112.228 166.8 111.816Z" fill="#92E3A9" stroke="#263238" stroke-width="0.917431" stroke-linecap="round" stroke-linejoin="round"/>
<path d="M166.816 111.816L169.592 109.16" stroke="#263238" stroke-width="0.458716" stroke-linecap="round" stroke-linejoin="round"/>
<path d="M164.528 104.124L166.352 101.152" stroke="#263238" stroke-width="1.83486" stroke-linecap="round" stroke-linejoin="round"/>
<path d="M165.796 102.043C165.72 101.663 165.727 101.272 165.815 100.895C165.903 100.518 166.071 100.165 166.308 99.8587C166.8 99.1947 169.684 97.1907 170.22 98.2587C170.8 99.3867 168.064 102.455 165.796 102.043Z" fill="#92E3A9" stroke="#263238" stroke-width="0.917431" stroke-linecap="round" stroke-linejoin="round"/>
<path d="M165.796 102.044L168.572 99.3916" stroke="#263238" stroke-width="0.458716" stroke-linecap="round" stroke-linejoin="round"/>
<path d="M163.748 97.8791C163.673 97.4987 163.681 97.1068 163.77 96.7294C163.859 96.3521 164.027 95.9981 164.264 95.6911C164.752 95.0271 167.64 93.0271 168.176 94.0911C168.76 95.2231 166.02 98.2911 163.748 97.8791Z" fill="#92E3A9" stroke="#263238" stroke-width="0.917431" stroke-linecap="round" stroke-linejoin="round"/>
<path d="M163.748 97.8796L166.524 95.2236" stroke="#263238" stroke-width="0.458716" stroke-linecap="round" stroke-linejoin="round"/>
<path d="M163.912 97.9995C163.526 98.0349 163.137 97.9872 162.772 97.8595C162.406 97.7319 162.072 97.5272 161.792 97.2595C161.18 96.7035 159.492 93.6235 160.592 93.1995C161.796 92.7315 164.56 95.7795 163.912 97.9995Z" fill="#92E3A9" stroke="#263238" stroke-width="0.917431" stroke-linecap="round" stroke-linejoin="round"/>
<path d="M163.912 97.9921L161.564 94.9561" stroke="#263238" stroke-width="0.458716" stroke-linecap="round" stroke-linejoin="round"/>
<path d="M177.74 105.14L172.484 155.808" stroke="#263238" stroke-width="1.83486" stroke-linecap="round" stroke-linejoin="round"/>
<path d="M173.644 146.144L171.82 143.172" stroke="#263238" stroke-width="1.83486" stroke-linecap="round" stroke-linejoin="round"/>
<path d="M172.376 144.064C172.452 143.684 172.445 143.293 172.357 142.916C172.269 142.539 172.101 142.186 171.864 141.88C171.372 141.216 168.484 139.216 167.948 140.28C167.368 141.412 170.108 144.48 172.376 144.064Z" fill="#92E3A9" stroke="#263238" stroke-width="0.917431" stroke-linecap="round" stroke-linejoin="round"/>
<path d="M172.376 144.063L169.756 141.551" stroke="#263238" stroke-width="0.458716" stroke-linecap="round" stroke-linejoin="round"/>
<path d="M175.104 132.083L173.28 129.111" stroke="#263238" stroke-width="1.83486" stroke-linecap="round" stroke-linejoin="round"/>
<path d="M173.836 129.999C173.912 129.619 173.905 129.227 173.816 128.849C173.727 128.472 173.558 128.118 173.32 127.811C172.832 127.147 169.944 125.147 169.408 126.211C168.828 127.351 171.568 130.399 173.836 129.999Z" fill="#92E3A9" stroke="#263238" stroke-width="0.917431" stroke-linecap="round" stroke-linejoin="round"/>
<path d="M173.836 130.003L171.216 127.487" stroke="#263238" stroke-width="0.458716" stroke-linecap="round" stroke-linejoin="round"/>
<path d="M174.508 137.844L172.684 134.876" stroke="#263238" stroke-width="1.83486" stroke-linecap="round" stroke-linejoin="round"/>
<path d="M173.24 135.768C173.315 135.387 173.307 134.995 173.218 134.618C173.129 134.241 172.961 133.887 172.724 133.58C172.236 132.916 169.348 130.916 168.812 131.98C168.228 133.112 170.972 136.18 173.24 135.768Z" fill="#92E3A9" stroke="#263238" stroke-width="0.917431" stroke-linecap="round" stroke-linejoin="round"/>
<path d="M173.24 135.767L170.616 133.251" stroke="#263238" stroke-width="0.458716" stroke-linecap="round" stroke-linejoin="round"/>
<path d="M176.076 122.719L174.252 119.751" stroke="#263238" stroke-width="1.83486" stroke-linecap="round" stroke-linejoin="round"/>
<path d="M174.8 120.644C174.875 120.263 174.867 119.871 174.778 119.494C174.689 119.117 174.521 118.763 174.284 118.456C173.796 117.792 170.908 115.792 170.372 116.856C169.796 118 172.54 121.056 174.8 120.644Z" fill="#92E3A9" stroke="#263238" stroke-width="0.917431" stroke-linecap="round" stroke-linejoin="round"/>
<path d="M174.808 120.644L172.188 118.128" stroke="#263238" stroke-width="0.458716" stroke-linecap="round" stroke-linejoin="round"/>
<path d="M177.052 113.32L175.228 110.348" stroke="#263238" stroke-width="1.83486" stroke-linecap="round" stroke-linejoin="round"/>
<path d="M175.784 111.24C175.859 110.86 175.851 110.469 175.762 110.092C175.673 109.715 175.505 109.362 175.268 109.056C174.78 108.388 171.892 106.392 171.356 107.456C170.772 108.588 173.516 111.656 175.784 111.24Z" fill="#92E3A9" stroke="#263238" stroke-width="0.917431" stroke-linecap="round" stroke-linejoin="round"/>
<path d="M175.784 111.24L173.164 108.724" stroke="#263238" stroke-width="0.458716" stroke-linecap="round" stroke-linejoin="round"/>
<path d="M173.952 142.723L176.348 140.191" stroke="#263238" stroke-width="1.83486" stroke-linecap="round" stroke-linejoin="round"/>
<path d="M175.62 140.952C175.625 140.564 175.713 140.181 175.878 139.83C176.043 139.479 176.281 139.167 176.576 138.916C177.188 138.368 180.428 137.004 180.736 138.144C181.068 139.384 177.756 141.82 175.62 140.952Z" fill="#92E3A9" stroke="#263238" stroke-width="0.917431" stroke-linecap="round" stroke-linejoin="round"/>
<path d="M175.62 140.952L178.884 138.928" stroke="#263238" stroke-width="0.458716" stroke-linecap="round" stroke-linejoin="round"/>
<path d="M175.528 127.559L177.924 125.027" stroke="#263238" stroke-width="1.83486" stroke-linecap="round" stroke-linejoin="round"/>
<path d="M177.2 125.788C177.204 125.4 177.291 125.017 177.455 124.666C177.619 124.315 177.857 124.003 178.152 123.752C178.768 123.204 182.004 121.84 182.312 122.98C182.644 124.22 179.328 126.656 177.2 125.788Z" fill="#92E3A9" stroke="#263238" stroke-width="0.917431" stroke-linecap="round" stroke-linejoin="round"/>
<path d="M177.196 125.788L180.456 123.76" stroke="#263238" stroke-width="0.458716" stroke-linecap="round" stroke-linejoin="round"/>
<path d="M176.22 120.895L178.616 118.363" stroke="#263238" stroke-width="1.83486" stroke-linecap="round" stroke-linejoin="round"/>
<path d="M177.888 119.124C177.892 118.736 177.979 118.353 178.143 118.002C178.307 117.651 178.545 117.339 178.84 117.088C179.456 116.54 182.692 115.176 183 116.316C183.336 117.556 180.02 120 177.888 119.124Z" fill="#92E3A9" stroke="#263238" stroke-width="0.917431" stroke-linecap="round" stroke-linejoin="round"/>
<path d="M177.888 119.124L181.148 117.096" stroke="#263238" stroke-width="0.458716" stroke-linecap="round" stroke-linejoin="round"/>
<path d="M177.232 111.128L179.628 108.592" stroke="#263238" stroke-width="1.83486" stroke-linecap="round" stroke-linejoin="round"/>
<path d="M178.9 109.351C178.905 108.964 178.992 108.583 179.156 108.232C179.321 107.882 179.558 107.57 179.852 107.319C180.468 106.767 183.704 105.403 184.012 106.543C184.348 107.783 181.036 110.223 178.9 109.351Z" fill="#92E3A9" stroke="#263238" stroke-width="0.917431" stroke-linecap="round" stroke-linejoin="round"/>
<path d="M178.9 109.351L182.164 107.327" stroke="#263238" stroke-width="0.458716" stroke-linecap="round" stroke-linejoin="round"/>
<path d="M177.756 104.851C177.761 104.465 177.848 104.083 178.012 103.733C178.177 103.382 178.414 103.071 178.708 102.819C179.324 102.267 182.56 100.903 182.868 102.047C183.2 103.287 179.892 105.723 177.756 104.851Z" fill="#92E3A9" stroke="#263238" stroke-width="0.917431" stroke-linecap="round" stroke-linejoin="round"/>
<path d="M177.756 104.851L181.02 102.827" stroke="#263238" stroke-width="0.458716" stroke-linecap="round" stroke-linejoin="round"/>
<path d="M177.888 105C177.503 104.955 177.133 104.827 176.801 104.626C176.47 104.426 176.186 104.156 175.968 103.836C175.484 103.168 174.468 99.8077 175.632 99.6197C176.9 99.4157 178.98 102.968 177.888 105Z" fill="#92E3A9" stroke="#263238" stroke-width="0.917431" stroke-linecap="round" stroke-linejoin="round"/>
<path d="M177.888 105L176.216 101.54" stroke="#263238" stroke-width="0.458716" stroke-linecap="round" stroke-linejoin="round"/>
<path d="M171.716 84.5039V148.58" stroke="#263238" stroke-width="1.83486" stroke-linecap="round" stroke-linejoin="round"/>
<path d="M171.768 138.947L169.644 136.179" stroke="#263238" stroke-width="1.83486" stroke-linecap="round" stroke-linejoin="round"/>
<path d="M170.292 137.007C170.327 136.622 170.279 136.233 170.152 135.867C170.024 135.502 169.82 135.167 169.552 134.887C169 134.279 165.92 132.587 165.496 133.687C165.032 134.887 168.076 137.655 170.292 137.007Z" fill="#92E3A9" stroke="#263238" stroke-width="0.917431" stroke-linecap="round" stroke-linejoin="round"/>
<path d="M170.292 137.007L167.424 134.779" stroke="#263238" stroke-width="0.458716" stroke-linecap="round" stroke-linejoin="round"/>
<path d="M171.768 126.904L169.644 124.14" stroke="#263238" stroke-width="1.83486" stroke-linecap="round" stroke-linejoin="round"/>
<path d="M170.292 124.968C170.328 124.582 170.28 124.193 170.152 123.827C170.024 123.462 169.82 123.128 169.552 122.848C169 122.236 165.92 120.544 165.496 121.648C165.032 122.848 168.076 125.6 170.292 124.968Z" fill="#92E3A9" stroke="#263238" stroke-width="0.917431" stroke-linecap="round" stroke-linejoin="round"/>
<path d="M170.292 124.967L167.424 122.735" stroke="#263238" stroke-width="0.458716" stroke-linecap="round" stroke-linejoin="round"/>
<path d="M171.768 112.767L169.644 109.999" stroke="#263238" stroke-width="1.83486" stroke-linecap="round" stroke-linejoin="round"/>
<path d="M170.292 110.831C170.327 110.444 170.28 110.055 170.152 109.689C170.024 109.322 169.82 108.988 169.552 108.707C169 108.099 165.92 106.407 165.496 107.507C165.032 108.707 168.076 111.475 170.292 110.831Z" fill="#92E3A9" stroke="#263238" stroke-width="0.917431" stroke-linecap="round" stroke-linejoin="round"/>
<path d="M170.292 110.832L167.424 108.6" stroke="#263238" stroke-width="0.458716" stroke-linecap="round" stroke-linejoin="round"/>
<path d="M171.768 103.356L169.644 100.588" stroke="#263238" stroke-width="1.83486" stroke-linecap="round" stroke-linejoin="round"/>
<path d="M170.292 101.42C170.328 101.034 170.28 100.645 170.152 100.279C170.024 99.9137 169.82 99.5797 169.552 99.2998C169 98.6878 165.92 96.9958 165.496 98.0998C165.032 99.2998 168.076 102.064 170.292 101.42Z" fill="#92E3A9" stroke="#263238" stroke-width="0.917431" stroke-linecap="round" stroke-linejoin="round"/>
<path d="M170.292 101.419L167.424 99.1875" stroke="#263238" stroke-width="0.458716" stroke-linecap="round" stroke-linejoin="round"/>
<path d="M171.768 93.9037L169.644 91.1357" stroke="#263238" stroke-width="1.83486" stroke-linecap="round" stroke-linejoin="round"/>
<path d="M170.292 91.9675C170.327 91.5812 170.28 91.1918 170.152 90.8254C170.024 90.4591 169.82 90.1243 169.552 89.8435C169 89.2355 165.92 87.5435 165.496 88.6435C165.032 89.8435 168.076 92.6115 170.292 91.9675Z" fill="#92E3A9" stroke="#263238" stroke-width="0.917431" stroke-linecap="round" stroke-linejoin="round"/>
<path d="M170.292 91.9683L167.424 89.7363" stroke="#263238" stroke-width="0.458716" stroke-linecap="round" stroke-linejoin="round"/>
<path d="M171.72 142.623L173.84 139.855" stroke="#263238" stroke-width="1.83486" stroke-linecap="round" stroke-linejoin="round"/>
<path d="M173.2 140.688C173.164 140.302 173.212 139.913 173.339 139.547C173.466 139.18 173.669 138.845 173.936 138.564C174.492 137.956 177.572 136.264 177.996 137.364C178.452 138.564 175.408 141.332 173.2 140.688Z" fill="#92E3A9" stroke="#263238" stroke-width="0.917431" stroke-linecap="round" stroke-linejoin="round"/>
<path d="M173.196 140.688L176.232 138.336" stroke="#263238" stroke-width="0.458716" stroke-linecap="round" stroke-linejoin="round"/>
<path d="M171.72 123.472L173.84 120.704" stroke="#263238" stroke-width="1.83486" stroke-linecap="round" stroke-linejoin="round"/>
<path d="M173.2 121.536C173.165 121.151 173.212 120.762 173.339 120.396C173.466 120.031 173.669 119.697 173.936 119.416C174.492 118.804 177.572 117.112 177.996 118.216C178.452 119.416 175.408 122.18 173.2 121.536Z" fill="#92E3A9" stroke="#263238" stroke-width="0.917431" stroke-linecap="round" stroke-linejoin="round"/>
<path d="M173.196 121.536L176.232 119.184" stroke="#263238" stroke-width="0.458716" stroke-linecap="round" stroke-linejoin="round"/>
<path d="M171.72 114.02L173.84 111.252" stroke="#263238" stroke-width="1.83486" stroke-linecap="round" stroke-linejoin="round"/>
<path d="M173.2 112.084C173.164 111.698 173.212 111.309 173.339 110.942C173.466 110.576 173.669 110.241 173.936 109.96C174.492 109.352 177.572 107.66 177.996 108.76C178.452 109.96 175.408 112.728 173.2 112.084Z" fill="#92E3A9" stroke="#263238" stroke-width="0.917431" stroke-linecap="round" stroke-linejoin="round"/>
<path d="M173.196 112.083L176.232 109.731" stroke="#263238" stroke-width="0.458716" stroke-linecap="round" stroke-linejoin="round"/>
<path d="M171.72 101.528L173.84 98.7598" stroke="#263238" stroke-width="1.83486" stroke-linecap="round" stroke-linejoin="round"/>
<path d="M173.2 99.5998C173.165 99.2144 173.212 98.8258 173.339 98.4602C173.466 98.0946 173.669 97.7603 173.936 97.4798C174.492 96.8678 177.572 95.1798 177.996 96.2798C178.452 97.4678 175.408 100.236 173.2 99.5998Z" fill="#92E3A9" stroke="#263238" stroke-width="0.917431" stroke-linecap="round" stroke-linejoin="round"/>
<path d="M173.196 99.5873L176.232 97.2393" stroke="#263238" stroke-width="0.458716" stroke-linecap="round" stroke-linejoin="round"/>
<path d="M171.72 91.7036L173.84 88.9355" stroke="#263238" stroke-width="1.83486" stroke-linecap="round" stroke-linejoin="round"/>
<path d="M173.2 89.7683C173.164 89.3823 173.212 88.9931 173.339 88.6268C173.466 88.2606 173.669 87.9256 173.936 87.6443C174.492 87.0363 177.572 85.3443 177.996 86.4443C178.452 87.6443 175.408 90.4003 173.2 89.7683Z" fill="#92E3A9" stroke="#263238" stroke-width="0.917431" stroke-linecap="round" stroke-linejoin="round"/>
<path d="M173.196 89.767L176.232 87.415" stroke="#263238" stroke-width="0.458716" stroke-linecap="round" stroke-linejoin="round"/>
<path d="M171.6 85.4118C171.565 85.0255 171.613 84.6361 171.74 84.2698C171.868 83.9034 172.072 83.5686 172.34 83.2878C172.892 82.6798 175.972 80.9878 176.396 82.0878C176.852 83.2878 173.808 86.0558 171.6 85.4118Z" fill="#92E3A9" stroke="#263238" stroke-width="0.917431" stroke-linecap="round" stroke-linejoin="round"/>
<path d="M171.592 85.4116L174.628 83.0596" stroke="#263238" stroke-width="0.458716" stroke-linecap="round" stroke-linejoin="round"/>
<path d="M171.74 85.5395C171.353 85.5345 170.971 85.4466 170.62 85.2817C170.27 85.1168 169.959 84.8788 169.708 84.5835C169.16 83.9675 167.8 80.7275 168.94 80.4235C170.184 80.0915 172.616 83.4075 171.74 85.5395Z" fill="#92E3A9" stroke="#263238" stroke-width="0.917431" stroke-linecap="round" stroke-linejoin="round"/>
<path d="M171.74 85.5394L169.72 82.2754" stroke="#263238" stroke-width="0.458716" stroke-linecap="round" stroke-linejoin="round"/>
<path d="M174.352 165.2H167.564L166.716 148.06H175.2L174.352 165.2Z" fill="#263238" stroke="#263238" stroke-width="0.917431" stroke-linecap="round" stroke-linejoin="round"/>
<path d="M188.096 -0.980469H79V64.1875H188.096V-0.980469Z" fill="#263238"/>
<path opacity="0.1" d="M188.096 -0.980469H79V64.1875H188.096V-0.980469Z" fill="white"/>
<path d="M188.096 -0.980469H79V14.4955H188.096V-0.980469Z" fill="#263238"/>
<path d="M108.356 29.0394V24.7314H108.836V28.6034H110.068V29.0394H108.356Z" fill="white"/>
<path d="M110.4 25.7715C110.4 25.1115 110.728 24.6875 111.388 24.6875C112.048 24.6875 112.376 25.1115 112.376 25.7715V27.9995C112.376 28.6515 112.052 29.0835 111.388 29.0835C110.724 29.0835 110.4 28.6515 110.4 27.9995V25.7715ZM110.876 28.0235C110.876 28.4235 111.04 28.6475 111.388 28.6475C111.736 28.6475 111.896 28.4195 111.896 28.0235V25.7475C111.896 25.3475 111.736 25.1235 111.388 25.1235C111.04 25.1235 110.876 25.3595 110.876 25.7475V28.0235Z" fill="white"/>
<path d="M113.252 29.0394H112.82V24.7314H113.428L114.428 27.8474V24.7314H114.852V29.0394H114.352L113.252 25.5554V29.0394Z" fill="white"/>
<path d="M116.356 24.7314C117.028 24.7314 117.336 25.1314 117.336 25.8034V27.9754C117.336 28.6354 117.028 29.0394 116.356 29.0394H115.344V24.7314H116.356ZM116.356 28.6034C116.7 28.6034 116.868 28.3874 116.868 27.9954V25.7794C116.868 25.3794 116.7 25.1674 116.352 25.1674H115.832V28.6034H116.356Z" fill="white"/>
<path d="M117.748 25.7715C117.748 25.1115 118.072 24.6875 118.732 24.6875C119.392 24.6875 119.724 25.1115 119.724 25.7715V27.9995C119.724 28.6515 119.396 29.0835 118.732 29.0835C118.068 29.0835 117.748 28.6515 117.748 27.9995V25.7715ZM118.22 28.0235C118.22 28.4235 118.388 28.6475 118.732 28.6475C119.076 28.6475 119.244 28.4195 119.244 28.0235V25.7475C119.244 25.3475 119.084 25.1235 118.732 25.1235C118.38 25.1235 118.22 25.3595 118.22 25.7475V28.0235Z" fill="white"/>
<path d="M120.604 29.0394H120.172V24.7314H120.8L121.796 27.8474V24.7314H122.22V29.0394H121.724L120.62 25.5554L120.604 29.0394Z" fill="white"/>
<path d="M163.532 25.7715V26.1715H163.076V25.7715C163.076 25.3715 162.92 25.1475 162.568 25.1475C162.216 25.1475 162.064 25.3835 162.064 25.7715V28.0475C162.064 28.4475 162.224 28.6715 162.568 28.6715C162.912 28.6715 163.076 28.4355 163.076 28.0475V27.4875H163.532V27.9995C163.532 28.6515 163.224 29.0835 162.556 29.0835C161.888 29.0835 161.6 28.6515 161.6 27.9995V25.7715C161.6 25.1195 161.908 24.6875 162.564 24.6875C163.22 24.6875 163.532 25.1195 163.532 25.7715Z" fill="#92E3A9"/>
<path d="M164.452 28.1714L164.288 29.0394H163.844L164.668 24.7314H165.364L166.192 29.0394H165.708L165.544 28.1714H164.452ZM164.516 27.7714H165.476L164.988 25.2834L164.516 27.7714Z" fill="#92E3A9"/>
<path d="M166.992 29.0394H166.56V24.7314H167.168L168.168 27.8474V24.7314H168.592V29.0394H168.092L166.992 25.5554V29.0394Z" fill="#92E3A9"/>
<path d="M170.988 25.7715V26.1715H170.532V25.7715C170.532 25.3715 170.38 25.1475 170.028 25.1475C169.676 25.1475 169.524 25.3835 169.524 25.7715V28.0475C169.524 28.4475 169.684 28.6715 170.028 28.6715C170.372 28.6715 170.532 28.4355 170.532 28.0475V27.4875H170.988V27.9995C170.988 28.6515 170.68 29.0835 170.016 29.0835C169.352 29.0835 169.048 28.6515 169.048 27.9995V25.7715C169.048 25.1195 169.356 24.6875 170.016 24.6875C170.676 24.6875 170.988 25.1195 170.988 25.7715Z" fill="#92E3A9"/>
<path d="M172.96 26.6394V27.0714H171.904V28.6034H173.2V29.0394H171.424V24.7314H173.2V25.1674H171.904V26.6394H172.96Z" fill="#92E3A9"/>
<path d="M173.644 29.0394V24.7314H174.124V28.6034H175.356V29.0394H173.644Z" fill="#92E3A9"/>
<path d="M175.716 29.0394V24.7314H176.196V28.6034H177.428V29.0394H175.716Z" fill="#92E3A9"/>
<path d="M179.328 26.6394V27.0714H178.272V28.6034H179.568V29.0394H177.792V24.7314H179.568V25.1674H178.272V26.6394H179.328Z" fill="#92E3A9"/>
<path d="M181.02 24.7314C181.692 24.7314 182 25.1314 182 25.8034V27.9754C182 28.6354 181.692 29.0394 181.02 29.0394H180V24.7314H181.02ZM181.02 28.6034C181.364 28.6034 181.528 28.3874 181.528 27.9954V25.7794C181.528 25.3794 181.364 25.1674 181.012 25.1674H180.496V28.6034H181.02Z" fill="#92E3A9"/>
<path d="M108.8 36.4603H108.368V32.1523H108.98L109.976 35.2683V32.1523H110.4V36.4603H109.88L108.8 32.9763V36.4603Z" fill="white"/>
<path d="M112.4 34.0603V34.4923H111.344V36.0243H112.64V36.4603H110.864V32.1523H112.64V32.5883H111.344V34.0603H112.4Z" fill="white"/>
<path d="M114.236 36.4603H113.576L112.984 32.1523H113.452L113.96 35.8203L114.44 32.1563H114.912L115.388 35.8283L115.876 32.1523H116.276L115.692 36.4603H115.056L114.656 33.5363L114.236 36.4603Z" fill="white"/>
<path d="M118.4 34.9163L117.488 32.1523H118L118.668 34.2683L119.348 32.1523H119.804L118.884 34.9163V36.4603H118.4V34.9163Z" fill="white"/>
<path d="M120 33.1992C120 32.5392 120.324 32.1152 120.984 32.1152C121.644 32.1152 122 32.5312 122 33.1992V35.4272C122 36.0792 121.672 36.5112 121.008 36.5112C120.344 36.5112 120.024 36.0792 120.024 35.4272L120 33.1992ZM120.472 35.4512C120.472 35.8512 120.64 36.0752 120.984 36.0752C121.328 36.0752 121.496 35.8472 121.496 35.4512V33.1752C121.496 32.7752 121.336 32.5512 120.984 32.5512C120.632 32.5512 120.472 32.7872 120.472 33.1752V35.4512Z" fill="white"/>
<path d="M123.4 32.1523C124.076 32.1523 124.36 32.4963 124.36 33.1363V33.4883C124.36 33.9603 124.196 34.2563 123.824 34.3723C124.224 34.4923 124.368 34.8123 124.368 35.2723V35.9443C124.353 36.1206 124.382 36.2979 124.452 36.4603H123.968C123.899 36.2947 123.872 36.1149 123.888 35.9363V35.2603C123.888 34.7723 123.66 34.6203 123.26 34.6203H122.92V36.4603H122.44V32.1523H123.4ZM123.276 34.1843C123.676 34.1843 123.888 34.0603 123.888 33.5923V33.1923C123.888 32.7923 123.744 32.6003 123.388 32.6003H122.92V34.2003L123.276 34.1843Z" fill="white"/>
<path d="M125.6 34.5883L125.344 35.0163V36.4603H124.864V32.1523H125.344V34.2323L126.492 32.1523H126.976L125.888 34.1163L127.016 36.4603H126.52L125.6 34.5883Z" fill="white"/>
<path d="M163.532 33.1992V33.5992H163.076V33.1992C163.076 32.7992 162.92 32.5752 162.568 32.5752C162.216 32.5752 162.064 32.8112 162.064 33.1992V35.4752C162.064 35.8752 162.224 36.0992 162.568 36.0992C162.912 36.0992 163.076 35.8632 163.076 35.4752V34.9152H163.532V35.4512C163.532 36.1032 163.224 36.5352 162.556 36.5352C161.888 36.5352 161.592 36.1032 161.592 35.4512V33.1992C161.592 32.5472 161.9 32.1152 162.556 32.1152C163.212 32.1152 163.532 32.5392 163.532 33.1992Z" fill="#92E3A9"/>
<path d="M164.452 35.6002L164.288 36.4682H163.844L164.668 32.1602H165.364L166.192 36.4682H165.708L165.544 35.6002H164.452ZM164.516 35.2002H165.476L164.988 32.7122L164.516 35.2002Z" fill="#92E3A9"/>
<path d="M166.992 36.4603H166.56V32.1523H167.168L168.168 35.2683V32.1523H168.592V36.4603H168.092L166.992 32.9763V36.4603Z" fill="#92E3A9"/>
<path d="M170.988 33.1992V33.5992H170.532V33.1992C170.532 32.7992 170.38 32.5752 170.028 32.5752C169.676 32.5752 169.524 32.8112 169.524 33.1992V35.4752C169.524 35.8752 169.684 36.0992 170.028 36.0992C170.372 36.0992 170.532 35.8632 170.532 35.4752V34.9152H170.988V35.4512C170.988 36.1032 170.68 36.5352 170.016 36.5352C169.352 36.5352 169.048 36.1032 169.048 35.4512V33.1992C169.048 32.5472 169.356 32.1152 170.016 32.1152C170.676 32.1152 170.988 32.5392 170.988 33.1992Z" fill="#92E3A9"/>
<path d="M172.96 34.0603V34.4923H171.904V36.0243H173.2V36.4603H171.424V32.1523H173.2V32.5883H171.904V34.0603H172.96Z" fill="#92E3A9"/>
<path d="M173.644 36.4603V32.1523H174.124V36.0243H175.356V36.4603H173.644Z" fill="#92E3A9"/>
<path d="M175.716 36.4603V32.1523H176.196V36.0243H177.428V36.4603H175.716Z" fill="#92E3A9"/>
<path d="M179.328 34.0603V34.4923H178.272V36.0243H179.568V36.4603H177.792V32.1523H179.568V32.5883H178.272V34.0603H179.328Z" fill="#92E3A9"/>
<path d="M181.02 32.1523C181.692 32.1523 182 32.5523 182 33.2243V35.3963C182 36.0563 181.692 36.4603 181.02 36.4603H180V32.1523H181.02ZM181.02 36.0243C181.364 36.0243 181.528 35.8083 181.528 35.4163V33.2003C181.528 32.8003 181.364 32.5923 181.012 32.5923H180.496V36.0283L181.02 36.0243Z" fill="#92E3A9"/>
<path d="M109.296 39.5674C109.976 39.5674 110.264 39.9674 110.264 40.6234V41.1394C110.264 41.8234 109.944 42.1794 109.26 42.1794H108.836V43.8794H108.356V39.5674H109.296ZM109.26 41.7474C109.616 41.7474 109.788 41.5834 109.788 41.1714V40.5994C109.788 40.1994 109.648 40.0074 109.296 40.0074H108.836V41.7474H109.26Z" fill="white"/>
<path d="M111.064 43.0114L110.9 43.8794H110.456L111.28 39.5674H111.976L112.8 43.8794H112.32L112.156 43.0114H111.064ZM111.128 42.6114H112.088L111.6 40.1114L111.128 42.6114Z" fill="white"/>
<path d="M114.136 39.5674C114.816 39.5674 115.1 39.9154 115.1 40.5554V40.9074C115.13 41.0943 115.092 41.2857 114.994 41.4476C114.896 41.6094 114.744 41.7313 114.564 41.7914C114.964 41.9074 115.104 42.2274 115.104 42.6914V43.3634C115.091 43.54 115.121 43.7172 115.192 43.8794H114.704C114.636 43.7136 114.608 43.5339 114.624 43.3554V42.6794C114.624 42.1914 114.396 42.0394 113.996 42.0394H113.656V43.8794H113.176V39.5674H114.136ZM114 41.5994C114.38 41.5994 114.608 41.4794 114.608 41.0114V40.6114C114.608 40.2114 114.468 40.0194 114.108 40.0194H113.64V41.6194L114 41.5994Z" fill="white"/>
<path d="M116.084 39.5674V43.8794H115.6V39.5674H116.084Z" fill="white"/>
<path d="M118.444 40.6033V40.7193H118V40.5793C118 40.1793 117.852 39.9633 117.508 39.9633C117.164 39.9633 117.012 40.1913 117.012 40.5713C117.012 41.5393 118.46 41.6313 118.46 42.8433C118.46 43.4993 118.148 43.9233 117.488 43.9233C116.828 43.9233 116.52 43.4993 116.52 42.8433V42.5993H116.972V42.8713C116.972 43.2713 117.132 43.4873 117.476 43.4873C117.82 43.4873 117.98 43.2593 117.98 42.8713C117.98 41.9073 116.54 41.8153 116.54 40.6033C116.54 39.9393 116.848 39.5273 117.496 39.5273C118.144 39.5273 118.444 39.9513 118.444 40.6033Z" fill="white"/>
<path d="M163.532 40.6113V41.0113H163.076V40.6113C163.076 40.2113 162.92 39.9913 162.568 39.9913C162.216 39.9913 162.064 40.2233 162.064 40.6113V42.8913C162.064 43.2913 162.224 43.5153 162.568 43.5153C162.912 43.5153 163.076 43.2793 163.076 42.8913V42.3313H163.532V42.8673C163.532 43.5193 163.224 43.9513 162.556 43.9513C161.888 43.9513 161.6 43.4913 161.6 42.8393V40.6113C161.6 39.9553 161.908 39.5273 162.564 39.5273C163.22 39.5273 163.532 39.9553 163.532 40.6113Z" fill="#92E3A9"/>
<path d="M164.452 43.0114L164.288 43.8794H163.844L164.668 39.5674H165.364L166.192 43.8794H165.708L165.544 43.0114H164.452ZM164.516 42.6114H165.476L164.988 40.1234L164.516 42.6114Z" fill="#92E3A9"/>
<path d="M166.992 43.8794H166.56V39.5674H167.168L168.168 42.6834V39.5674H168.592V43.8794H168.092L166.992 40.3994V43.8794Z" fill="#92E3A9"/>
<path d="M170.988 40.6117V41.0117H170.532V40.6117C170.532 40.2117 170.38 39.9917 170.028 39.9917C169.676 39.9917 169.524 40.2237 169.524 40.6117V42.8917C169.524 43.2917 169.684 43.5157 170.028 43.5157C170.372 43.5157 170.532 43.2797 170.532 42.8917V42.3317H170.988V42.8677C170.988 43.5197 170.68 43.9517 170.016 43.9517C169.352 43.9517 169.048 43.5197 169.048 42.8677V40.6397C169.048 39.9837 169.356 39.5557 170.016 39.5557C170.676 39.5557 170.988 39.9557 170.988 40.6117Z" fill="#92E3A9"/>
<path d="M172.96 41.4794V41.9074H171.904V43.4434H173.2V43.8794H171.424V39.5674H173.2V39.9994H171.904V41.4714L172.96 41.4794Z" fill="#92E3A9"/>
<path d="M173.644 43.8794V39.5674H174.124V43.4434H175.356V43.8794H173.644Z" fill="#92E3A9"/>
<path d="M175.716 43.8794V39.5674H176.196V43.4434H177.428V43.8794H175.716Z" fill="#92E3A9"/>
<path d="M179.328 41.4794V41.9074H178.272V43.4434H179.568V43.8794H177.792V39.5674H179.568V39.9994H178.272V41.4714L179.328 41.4794Z" fill="#92E3A9"/>
<path d="M181.02 39.5674C181.692 39.5674 182 39.9674 182 40.6394V42.7994C182 43.4554 181.692 43.8634 181.02 43.8634H180V39.5674H181.02ZM181.02 43.4434C181.364 43.4434 181.528 43.2274 181.528 42.8314V40.6154C181.528 40.2154 181.364 40.0074 181.012 40.0074H180.496V43.4434H181.02Z" fill="#92E3A9"/>
<path d="M109.944 51.2913H109.48L108.768 47.8633V51.2993H108.348V46.9873H109.02L109.728 50.4313L110.412 46.9873H111.084V51.2993H110.628V47.8313L109.944 51.2913Z" fill="white"/>
<path d="M112.06 50.4313L111.896 51.2993H111.452L112.276 46.9873H112.972L113.8 51.2993H113.32L113.152 50.4313H112.06ZM112.124 50.0313H113.084L112.596 47.5433L112.124 50.0313Z" fill="white"/>
<path d="M115.2 46.9873C115.872 46.9873 116.18 47.3873 116.18 48.0593V50.2353C116.18 50.8913 115.872 51.2993 115.2 51.2993H114.192V46.9873H115.2ZM115.2 50.8633C115.544 50.8633 115.708 50.6473 115.708 50.2513V48.0353C115.708 47.6353 115.544 47.4273 115.192 47.4273H114.676V50.8633H115.2Z" fill="white"/>
<path d="M117.576 46.9873C118.252 46.9873 118.536 47.3313 118.536 47.9753V48.3233C118.536 48.7993 118.368 49.0953 118 49.2113C118.4 49.3273 118.54 49.6473 118.54 50.1113V50.7993C118.527 50.9759 118.557 51.1531 118.628 51.3153H118.14C118.072 51.1494 118.045 50.9698 118.06 50.7913V50.1153C118.06 49.6273 117.832 49.4753 117.432 49.4753H117.092V51.3153H116.612V46.9873H117.576ZM117.452 49.0193C117.832 49.0193 118.06 48.8953 118.06 48.4313V48.0313C118.06 47.6313 117.92 47.4433 117.56 47.4433H117.092V49.0433L117.452 49.0193Z" fill="white"/>
<path d="M119.52 46.9873V51.2993H119.04V46.9873H119.52Z" fill="white"/>
<path d="M121.024 46.9873C121.696 46.9873 122 47.3873 122 48.0593V50.2353C122 50.8913 121.696 51.2993 121.024 51.2993H120V46.9873H121.024ZM121.024 50.8633C121.368 50.8633 121.536 50.6473 121.536 50.2513V48.0353C121.536 47.6353 121.368 47.4273 121.02 47.4273H120.5V50.8633H121.024Z" fill="white"/>
<path d="M163.532 48.0277V48.4277H163.076V48.0277C163.076 47.6277 162.92 47.4077 162.568 47.4077C162.216 47.4077 162.064 47.6397 162.064 48.0277V50.3077C162.064 50.7077 162.224 50.9277 162.568 50.9277C162.912 50.9277 163.076 50.6957 163.076 50.3077V49.7477H163.532V50.2837C163.532 50.9357 163.224 51.3677 162.556 51.3677C161.888 51.3677 161.592 50.9357 161.592 50.2837V48.0517C161.592 47.3997 161.9 46.9717 162.556 46.9717C163.212 46.9717 163.532 47.3757 163.532 48.0277Z" fill="#92E3A9"/>
<path d="M164.452 50.4313L164.288 51.2993H163.844L164.668 46.9873H165.364L166.192 51.2993H165.708L165.544 50.4313H164.452ZM164.516 50.0313H165.476L164.988 47.5433L164.516 50.0313Z" fill="#92E3A9"/>
<path d="M166.992 51.2993H166.56V46.9873H167.168L168.168 50.1033V46.9873H168.592V51.2993H168.092L166.992 47.8153V51.2993Z" fill="#92E3A9"/>
<path d="M170.988 48.0277V48.4277H170.532V48.0277C170.532 47.6277 170.38 47.4077 170.028 47.4077C169.676 47.4077 169.524 47.6397 169.524 48.0277V50.3077C169.524 50.7077 169.684 50.9277 170.028 50.9277C170.372 50.9277 170.532 50.6957 170.532 50.3077V49.7477H170.988V50.2837C170.988 50.9357 170.68 51.3677 170.016 51.3677C169.352 51.3677 169.048 50.9357 169.048 50.2837V48.0517C169.048 47.3997 169.356 46.9717 170.016 46.9717C170.676 46.9717 170.988 47.3757 170.988 48.0277Z" fill="#92E3A9"/>
<path d="M172.96 48.8953V49.3273H171.904V50.8633H173.2V51.2993H171.424V46.9873H173.2V47.4273H171.904V48.8953H172.96Z" fill="#92E3A9"/>
<path d="M173.644 51.2993V46.9873H174.124V50.8633H175.356V51.2993H173.644Z" fill="#92E3A9"/>
<path d="M175.716 51.2993V46.9873H176.196V50.8633H177.428V51.2993H175.716Z" fill="#92E3A9"/>
<path d="M179.328 48.8953V49.3273H178.272V50.8633H179.568V51.2993H177.792V46.9873H179.568V47.4273H178.272V48.8953H179.328Z" fill="#92E3A9"/>
<path d="M181.02 46.9873C181.692 46.9873 182 47.3873 182 48.0593V50.2353C182 50.8913 181.692 51.2993 181.02 51.2993H180V46.9873H181.02ZM181.02 50.8633C181.364 50.8633 181.528 50.6473 181.528 50.2513V48.0353C181.528 47.6353 181.364 47.4273 181.012 47.4273H180.496V50.8633H181.02Z" fill="#92E3A9"/>
<path d="M109.316 54.3994C109.992 54.3994 110.276 54.7434 110.276 55.3834V55.7354C110.276 56.2114 110.108 56.5074 109.74 56.6234C110.14 56.7394 110.284 57.0594 110.284 57.5234V58.1914C110.269 58.369 110.298 58.5476 110.368 58.7114H109.88C109.815 58.5449 109.787 58.3659 109.8 58.1874V57.5194C109.8 57.0314 109.576 56.8754 109.172 56.8754H108.836V58.7194H108.356V54.3994H109.316ZM109.2 56.4394C109.6 56.4394 109.808 56.3154 109.808 55.8474V55.4474C109.808 55.0474 109.668 54.8554 109.312 54.8554H108.844V56.4554L109.2 56.4394Z" fill="white"/>
<path d="M110.744 55.4473C110.744 54.7913 111.072 54.3633 111.728 54.3633C112.384 54.3633 112.72 54.7913 112.72 55.4473V57.6793C112.72 58.3313 112.396 58.7633 111.728 58.7633C111.06 58.7633 110.744 58.3313 110.744 57.6793V55.4473ZM111.22 57.7033C111.22 58.1033 111.384 58.3233 111.728 58.3233C112.072 58.3233 112.24 58.0953 112.24 57.7033V55.4233C112.24 55.0233 112.08 54.8033 111.728 54.8033C111.376 54.8033 111.22 55.0353 111.22 55.4233V57.7033Z" fill="white"/>
<path d="M114.764 58.7114H114.304L113.6 55.2834V58.7194H113.2V54.3994H113.868L114.576 57.8434L115.26 54.3994H115.932V58.7194H115.476V55.2514L114.764 58.7114Z" fill="white"/>
<path d="M117.932 56.3154V56.7474H116.88V58.2794H118.172V58.7194H116.4V54.3994H118.176V54.8354H116.88V56.3074L117.932 56.3154Z" fill="white"/>
<path d="M142.924 25.7714V25.8834C142.945 26.0678 142.906 26.2541 142.811 26.4138C142.717 26.5735 142.572 26.6977 142.4 26.7674C142.573 26.8393 142.718 26.9657 142.812 27.1274C142.907 27.2892 142.946 27.4774 142.924 27.6634V27.9994C142.924 28.6554 142.616 29.0874 141.952 29.0874C141.288 29.0874 140.984 28.6554 140.984 27.9994V27.7034H141.436V28.0274C141.436 28.4274 141.596 28.6514 141.94 28.6514C142.284 28.6514 142.444 28.4234 142.444 27.9874V27.6554C142.444 27.2274 142.268 27.0274 141.904 27.0114H141.644V26.5834H141.928C142.003 26.5842 142.077 26.5688 142.145 26.5383C142.213 26.5077 142.274 26.4628 142.323 26.4065C142.372 26.3502 142.408 26.2839 142.429 26.2123C142.45 26.1406 142.455 26.0653 142.444 25.9914V25.7954C142.444 25.3514 142.292 25.1234 141.94 25.1234C141.588 25.1234 141.436 25.3634 141.436 25.7514V25.9714H140.984V25.7754C140.984 25.1154 141.292 24.6914 141.952 24.6914C142.612 24.6914 142.924 25.1114 142.924 25.7714Z" fill="white"/>
<path d="M144.272 25.5115C144.092 25.6219 143.887 25.6864 143.676 25.6995V25.2995C143.846 25.3032 144.012 25.2485 144.147 25.1444C144.282 25.0403 144.377 24.8931 144.416 24.7275H144.748V29.0395H144.272V25.5115Z" fill="white"/>
<path d="M142.948 33.1995C142.948 34.4995 141.492 34.9675 141.484 35.9595V36.0275H142.9V36.4635H141.008V36.0955C141.008 34.7035 142.468 34.4315 142.468 33.2195C142.468 32.7755 142.32 32.5435 141.964 32.5435C141.608 32.5435 141.46 32.7955 141.46 33.1755V33.5755H141.008V33.1995C141.008 32.5395 141.312 32.1035 141.976 32.1035C142.64 32.1035 142.948 32.5395 142.948 33.1995Z" fill="white"/>
<path d="M144.828 32.5803H143.364V32.1523H145.316V32.5523L144.208 36.4443H143.728L144.828 32.5803Z" fill="white"/>
<path d="M142.948 40.6159C142.948 41.9159 141.492 42.3839 141.484 43.3759V43.4439H142.9V43.8799H141.008V43.5119C141.008 42.1199 142.468 41.8479 142.468 40.6359C142.468 40.1919 142.32 39.9559 141.964 39.9559C141.608 39.9559 141.46 40.2119 141.46 40.5919V40.9919H141.008V40.6439C141.008 39.9839 141.312 39.5479 141.976 39.5479C142.64 39.5479 142.948 39.9559 142.948 40.6159Z" fill="white"/>
<path d="M145.372 40.5912V40.7272C145.395 40.9088 145.359 41.093 145.27 41.2529C145.181 41.4127 145.043 41.5397 144.876 41.6152C145.045 41.6933 145.185 41.8237 145.274 41.9872C145.363 42.1507 145.398 42.3387 145.372 42.5232V42.8432C145.372 42.9766 145.346 43.1087 145.295 43.232C145.244 43.3553 145.169 43.4673 145.074 43.5616C144.98 43.656 144.868 43.7308 144.745 43.7819C144.622 43.8329 144.489 43.8592 144.356 43.8592C144.223 43.8592 144.09 43.8329 143.967 43.7819C143.844 43.7308 143.732 43.656 143.638 43.5616C143.543 43.4673 143.468 43.3553 143.417 43.232C143.366 43.1087 143.34 42.9766 143.34 42.8432V42.5232C143.313 42.3385 143.347 42.1501 143.436 41.9863C143.526 41.8225 143.666 41.6922 143.836 41.6152C143.668 41.5412 143.529 41.4145 143.439 41.2543C143.35 41.0941 143.315 40.909 143.34 40.7272V40.5912C143.34 40.4578 143.366 40.3257 143.417 40.2024C143.468 40.0791 143.543 39.9671 143.638 39.8728C143.732 39.7784 143.844 39.7036 143.967 39.6525C144.09 39.6015 144.223 39.5752 144.356 39.5752C144.489 39.5752 144.622 39.6015 144.745 39.6525C144.868 39.7036 144.98 39.7784 145.074 39.8728C145.169 39.9671 145.244 40.0791 145.295 40.2024C145.346 40.3257 145.372 40.4578 145.372 40.5912ZM143.812 40.5912V40.7992C143.812 41.2192 144.016 41.4032 144.356 41.4032C144.696 41.4032 144.896 41.2192 144.896 40.7992V40.5912C144.896 40.1472 144.692 39.9432 144.356 39.9432C144.02 39.9432 143.812 40.1592 143.812 40.6032V40.5912ZM143.812 42.4592V42.8192C143.812 43.2632 144.008 43.4752 144.356 43.4752C144.704 43.4752 144.892 43.2632 144.896 42.8192V42.4592C144.896 42.0392 144.712 41.8352 144.356 41.8352C144 41.8352 143.812 42.0512 143.812 42.4712V42.4592Z" fill="white"/>
<path d="M142.948 48.0351C142.948 49.3351 141.492 49.8031 141.484 50.7951V50.8631H142.9V51.2991H141.008V50.9311C141.008 49.5391 142.468 49.2671 142.468 48.0551C142.468 47.6111 142.32 47.3751 141.964 47.3751C141.608 47.3751 141.46 47.6271 141.46 48.0111V48.3991H141.008V48.0511C141.008 47.3911 141.312 46.9551 141.976 46.9551C142.64 46.9551 142.948 47.3751 142.948 48.0351Z" fill="white"/>
<path d="M145.328 48.0273V50.2273C145.328 50.9113 145.02 51.3433 144.328 51.3433C143.636 51.3433 143.356 50.9153 143.356 50.2593V50.1793H143.808V50.2873C143.808 50.6873 143.972 50.9033 144.316 50.9033C144.66 50.9033 144.848 50.6713 144.848 50.2153V49.2473C144.797 49.3885 144.702 49.5093 144.576 49.5916C144.451 49.6738 144.302 49.713 144.152 49.7033C143.596 49.7033 143.352 49.3033 143.352 48.6873V48.0273C143.352 47.3713 143.672 46.9473 144.336 46.9473C145 46.9473 145.328 47.3713 145.328 48.0273ZM143.824 48.0033V48.6513C143.824 49.0513 143.992 49.2713 144.336 49.2713C144.68 49.2713 144.848 49.0393 144.848 48.6513V47.9993C144.848 47.5993 144.688 47.3793 144.336 47.3793C143.984 47.3793 143.824 47.5993 143.824 47.9993V48.0033Z" fill="white"/>
<path d="M142.76 57.8512V58.7192H142.292V57.8512H140.9V57.4112L142.236 54.4072H142.76V57.4112H143.104V57.8512H142.76ZM141.344 57.4112H142.292V55.3072L141.344 57.4112Z" fill="white"/>
<path d="M143.436 55.4473C143.436 54.7913 143.764 54.3633 144.42 54.3633C145.076 54.3633 145.412 54.7913 145.412 55.4473V57.6713C145.412 58.3313 145.088 58.7633 144.42 58.7633C143.752 58.7633 143.436 58.3313 143.436 57.6713V55.4473ZM143.912 57.7033C143.912 58.1033 144.076 58.3233 144.42 58.3233C144.764 58.3233 144.932 58.0913 144.932 57.7033V55.4233C144.932 55.0233 144.772 54.7953 144.42 54.7953C144.068 54.7953 143.912 55.0313 143.912 55.4233V57.7033Z" fill="white"/>
<path d="M87.372 25.5115C87.19 25.6213 86.9842 25.6858 86.772 25.6995V25.2995C86.9422 25.3032 87.1085 25.2485 87.2432 25.1444C87.3778 25.0403 87.4727 24.8931 87.512 24.7275H87.844V29.0395H87.372V25.5115Z" fill="white"/>
<path d="M90.512 25.7791C90.512 27.0751 89.052 27.5431 89.048 28.5351V28.6031H90.464V29.0391H88.572V28.6711C88.572 27.2791 90.032 27.0071 90.032 25.7951C90.032 25.3511 89.884 25.1191 89.528 25.1191C89.172 25.1191 89.02 25.3711 89.02 25.7511V26.1511H88.572V25.7991C88.572 25.1391 88.872 24.7031 89.54 24.7031C90.208 24.7031 90.512 25.1191 90.512 25.7791Z" fill="white"/>
<path d="M91.416 26.0996V26.6956H90.956V26.0996H91.416ZM91.416 28.4436V29.0396H90.956V28.4436H91.416Z" fill="white"/>
<path d="M93.824 25.7714V25.8834C93.8455 26.0678 93.8058 26.2541 93.7112 26.4138C93.6165 26.5735 93.4721 26.6977 93.3 26.7674C93.4731 26.8393 93.6179 26.9657 93.7124 27.1274C93.807 27.2892 93.8462 27.4774 93.824 27.6634V27.9994C93.824 28.6554 93.516 29.0874 92.852 29.0874C92.188 29.0874 91.884 28.6554 91.884 27.9994V27.7034H92.336V28.0274C92.336 28.4274 92.496 28.6514 92.84 28.6514C93.184 28.6514 93.344 28.4234 93.344 27.9874V27.6554C93.344 27.2274 93.164 27.0274 92.804 27.0114H92.544V26.5834H92.828C92.9027 26.5842 92.9766 26.5688 93.0448 26.5383C93.1129 26.5077 93.1736 26.4628 93.2226 26.4065C93.2717 26.3502 93.308 26.2839 93.3289 26.2123C93.3499 26.1406 93.355 26.0653 93.344 25.9914V25.7954C93.344 25.3514 93.192 25.1234 92.84 25.1234C92.488 25.1234 92.336 25.3634 92.336 25.7514V25.9714H91.884V25.7754C91.884 25.1154 92.192 24.6914 92.852 24.6914C93.512 24.6914 93.824 25.1114 93.824 25.7714Z" fill="white"/>
<path d="M96.228 25.7715V27.9715C96.228 28.6515 95.92 29.0835 95.228 29.0835C94.536 29.0835 94.256 28.6595 94.256 27.9995V27.9195H94.704V28.0315C94.704 28.4315 94.872 28.6475 95.216 28.6475C95.56 28.6475 95.748 28.4115 95.748 27.9595V26.9915C95.6971 27.1327 95.6017 27.2535 95.4762 27.3358C95.3507 27.418 95.2018 27.4573 95.052 27.4475C94.496 27.4475 94.252 27.0475 94.252 26.4315V25.7715C94.252 25.1115 94.576 24.6875 95.24 24.6875C95.904 24.6875 96.228 25.1115 96.228 25.7715ZM94.724 25.7475V26.3995C94.724 26.7995 94.892 27.0235 95.236 27.0235C95.58 27.0235 95.748 26.7875 95.748 26.3995V25.7555C95.748 25.3555 95.588 25.1315 95.236 25.1315C94.884 25.1315 94.724 25.3515 94.724 25.7475Z" fill="white"/>
<path d="M109.364 16.4951C110.036 16.4951 110.344 16.8951 110.344 17.5671V19.7391C110.344 20.3991 110.036 20.8071 109.364 20.8071H108.356V16.4951H109.364ZM109.364 20.3671C109.708 20.3671 109.872 20.1551 109.872 19.7591V17.5431C109.872 17.1431 109.708 16.9311 109.356 16.9311H108.84V20.3671H109.364Z" fill="white"/>
<path d="M112.328 18.3991V18.8311H111.272V20.3631H112.568V20.7991H110.8V16.4951H112.576V16.9311H111.28V18.3991H112.328Z" fill="white"/>
<path d="M114.876 17.5312V17.6472H114.42V17.5072C114.42 17.1072 114.272 16.8912 113.928 16.8912C113.584 16.8912 113.436 17.1192 113.436 17.4992C113.436 18.4672 114.884 18.5592 114.884 19.7712C114.884 20.4232 114.568 20.8512 113.908 20.8512C113.248 20.8512 112.944 20.4232 112.944 19.7712V19.5272H113.392V19.7952C113.392 20.1952 113.552 20.4112 113.896 20.4112C114.24 20.4112 114.404 20.1832 114.404 19.7952C114.404 18.8352 112.96 18.7432 112.96 17.5312C112.96 16.8632 113.268 16.4512 113.916 16.4512C114.564 16.4512 114.876 16.8792 114.876 17.5312Z" fill="white"/>
<path d="M115.924 20.7991V16.9311H115.124V16.4951H117.2V16.9311H116.4V20.7991H115.924Z" fill="white"/>
<path d="M118 16.4951V20.7991H117.52V16.4951H118Z" fill="white"/>
<path d="M118.916 20.7991H118.484V16.4951H119.096L120.092 19.5991V16.4951H120.516V20.7991H120.02L118.916 17.3111V20.7991Z" fill="white"/>
<path d="M121.496 19.9393L121.332 20.7993H120.888L121.712 16.4873H122.4L123.232 20.7993H122.752L122.588 19.9313L121.496 19.9393ZM121.56 19.5393H122.52L122.032 17.0513L121.56 19.5393Z" fill="white"/>
<path d="M124 20.7991V16.9311H123.2V16.4951H125.264V16.9311H124.464V20.7991H124Z" fill="white"/>
<path d="M126.072 16.4951V20.7991H125.6V16.4951H126.072Z" fill="white"/>
<path d="M126.528 17.5352C126.528 16.8792 126.856 16.4512 127.512 16.4512C128.168 16.4512 128.504 16.8792 128.504 17.5352V19.7672C128.504 20.4192 128.18 20.8512 127.512 20.8512C126.844 20.8512 126.528 20.4192 126.528 19.7672V17.5352ZM127.004 19.7912C127.004 20.1912 127.168 20.4112 127.512 20.4112C127.856 20.4112 128.024 20.1832 128.024 19.7912V17.5112C128.024 17.1112 127.864 16.8912 127.512 16.8912C127.16 16.8912 127.004 17.1232 127.004 17.5112V19.7912Z" fill="white"/>
<path d="M129.388 20.7991H128.956V16.4951H129.564L130.564 19.6111V16.4951H130.988V20.7991H130.488L129.388 17.3111V20.7991Z" fill="white"/>
<path d="M162.588 16.4951C163.264 16.4951 163.548 16.8391 163.548 17.4791V17.8311C163.548 18.3071 163.384 18.6031 163.012 18.7191C163.412 18.8351 163.556 19.1551 163.556 19.6191V20.2871C163.541 20.4647 163.57 20.6433 163.64 20.8071H163.156C163.088 20.6412 163.061 20.4617 163.076 20.2831V19.5991C163.076 19.1111 162.848 18.9551 162.448 18.9551H162.108V20.7991H161.628V16.4951H162.588ZM162.464 18.5271C162.864 18.5271 163.076 18.4031 163.076 17.9351V17.5351C163.076 17.1351 162.932 16.9431 162.576 16.9431H162.108V18.5431L162.464 18.5271Z" fill="white"/>
<path d="M165.6 18.3991V18.8311H164.544V20.3631H165.84V20.7991H164.064V16.4951H165.84V16.9311H164.544V18.3991H165.6Z" fill="white"/>
<path d="M167.86 20.7991H167.396L166.684 17.3711V20.7991H166.284V16.4951H166.956L167.664 19.9391L168.348 16.4951H169.02V20.7991H168.564V17.3391L167.86 20.7991Z" fill="white"/>
<path d="M170 19.9393L169.812 20.7993H169.368L170.196 16.4873H170.888L171.716 20.7993H171.236L171.068 19.9313L170 19.9393ZM170.06 19.5393H171.02L170.536 17.0513L170.06 19.5393Z" fill="white"/>
<path d="M173.052 16.4951C173.728 16.4951 174.012 16.8391 174.012 17.4791V17.8311C174.012 18.3071 173.844 18.6031 173.476 18.7191C173.876 18.8351 174.02 19.1551 174.02 19.6191V20.2871C174.005 20.4647 174.034 20.6433 174.104 20.8071H173.6C173.535 20.6406 173.507 20.4616 173.52 20.2831V19.5991C173.52 19.1111 173.296 18.9551 172.892 18.9551H172.556V20.7991H172.076V16.4951H173.052ZM172.928 18.5271C173.328 18.5271 173.536 18.4031 173.536 17.9351V17.5351C173.536 17.1351 173.396 16.9431 173.04 16.9431H172.572V18.5431L172.928 18.5271Z" fill="white"/>
<path d="M175.248 18.9351L174.996 19.3591V20.7991H174.516V16.4951H174.996V18.5751L176.144 16.4951H176.628L175.54 18.4591L176.668 20.7991H176.172L175.248 18.9351Z" fill="white"/>
<path d="M178.872 17.5312V17.6472H178.4V17.5072C178.4 17.1072 178.252 16.8912 177.908 16.8912C177.564 16.8912 177.416 17.1192 177.416 17.4992C177.416 18.4672 178.86 18.5592 178.86 19.7712C178.86 20.4232 178.548 20.8512 177.888 20.8512C177.228 20.8512 176.92 20.4232 176.92 19.7712V19.5272H177.372V19.7952C177.372 20.1952 177.532 20.4112 177.876 20.4112C178.22 20.4112 178.38 20.1832 178.38 19.7952C178.38 18.8352 176.94 18.7432 176.94 17.5312C176.94 16.8632 177.248 16.4512 177.896 16.4512C178.544 16.4512 178.872 16.8792 178.872 17.5312Z" fill="white"/>
<path d="M142.912 17.5352V17.9072H142.456V17.5072C142.456 17.1072 142.304 16.8872 141.952 16.8872C141.6 16.8872 141.448 17.1192 141.448 17.5072V19.7872C141.448 20.1872 141.608 20.4072 141.952 20.4072C142.296 20.4072 142.456 20.1752 142.456 19.7872V18.9272H142V18.4952H142.9V19.7672C142.9 20.4192 142.592 20.8512 141.928 20.8512C141.264 20.8512 140.96 20.4192 140.96 19.7672V17.5352C140.96 16.8832 141.268 16.4512 141.928 16.4512C142.588 16.4512 142.912 16.8832 142.912 17.5352Z" fill="white"/>
<path d="M143.848 19.9393L143.684 20.7993H143.24L144.064 16.4873H144.76L145.6 20.7993H145.12L144.956 19.9313L143.848 19.9393ZM143.912 19.5393H144.872L144.4 17.0393L143.912 19.5393Z" fill="white"/>
<path d="M146.348 20.7991V16.9311H145.548V16.4951H147.612V16.9311H146.812V20.7991H146.348Z" fill="white"/>
<path d="M149.476 18.3991V18.8311H148.424V20.3631H149.716V20.7991H147.944V16.4951H149.716V16.9311H148.424V18.3991H149.476Z" fill="white"/>
<path d="M87.12 20.7991V16.9311H86.32V16.4951H88.4V16.9311H87.6V20.7991H87.12Z" fill="white"/>
<path d="M89.2 16.4951V20.7991H88.72V16.4951H89.2Z" fill="white"/>
<path d="M91.288 20.7991H90.824L90.112 17.3711V20.7991H89.692V16.4951H90.364L91.072 19.9391L91.756 16.4951H92.428V20.7991H91.972V17.3391L91.288 20.7991Z" fill="white"/>
<path d="M94.452 18.3991V18.8311H93.4V20.3631H94.692V20.7991H92.92V16.4951H94.692V16.9311H93.4V18.3991H94.452Z" fill="white"/>
<path d="M100.372 4.27148C101.4 4.27148 101.868 4.89148 101.868 5.90748V9.22748C101.868 10.2355 101.4 10.8555 100.372 10.8555H98.832V4.27148H100.372ZM100.372 10.1875C100.9 10.1875 101.172 9.85948 101.172 9.25548V5.87148C101.172 5.26748 100.92 4.93948 100.372 4.93948H99.572V10.1875H100.372Z" fill="white"/>
<path d="M104.896 7.19948V7.85548H103.296V10.1995H105.272V10.8675H102.564V4.27148H105.272V4.93948H103.296V7.19948H104.896Z" fill="white"/>
<path d="M107.38 4.27148C108.412 4.27148 108.856 4.88348 108.856 5.87148V6.67148C108.856 7.71548 108.368 8.27148 107.324 8.27148H106.672V10.8675H105.94V4.27148H107.38ZM107.324 7.59948C107.868 7.59948 108.124 7.34748 108.124 6.71548V5.84348C108.124 5.23948 107.908 4.93948 107.372 4.93948H106.664V7.59948H107.324Z" fill="white"/>
<path d="M110.048 9.52748L109.796 10.8555H109.116L110.4 4.27148H111.46L112.72 10.8555H111.988L111.732 9.52748H110.048ZM110.144 8.89948H111.6L110.856 5.09948L110.144 8.89948Z" fill="white"/>
<path d="M114.74 4.27148C115.776 4.27148 116.208 4.79948 116.208 5.77548V6.31148C116.208 7.03548 115.956 7.48748 115.408 7.66748C116.008 7.84348 116.232 8.33548 116.232 9.03948V10.0635C116.21 10.3369 116.255 10.6116 116.364 10.8635H115.6C115.494 10.611 115.451 10.3363 115.476 10.0635V9.01948C115.476 8.27948 115.128 8.04348 114.516 8.04348H114V10.8435H113.264V4.27148H114.74ZM114.552 7.37548C115.136 7.37548 115.484 7.18748 115.484 6.47148V5.84348C115.484 5.24748 115.268 4.93948 114.724 4.93948H114V7.37548H114.552Z" fill="white"/>
<path d="M117.928 10.8555V4.93948H116.728V4.27148H119.88V4.93948H118.68V10.8555H117.928Z" fill="white"/>
<path d="M121.06 9.30348C121.06 9.89548 121.296 10.2515 121.832 10.2515C122.368 10.2515 122.592 9.89548 122.592 9.30348V4.27148H123.28V9.26748C123.28 10.2635 122.82 10.9315 121.804 10.9315C120.788 10.9315 120.336 10.2635 120.336 9.26748V4.27148H121.06V9.30348Z" fill="white"/>
<path d="M125.472 4.27148C126.504 4.27148 126.936 4.79948 126.936 5.77548V6.31148C126.936 7.03548 126.684 7.48748 126.136 7.66748C126.736 7.84348 126.964 8.33548 126.964 9.03948V10.0635C126.94 10.337 126.985 10.6122 127.096 10.8635H126.352C126.248 10.6104 126.205 10.3362 126.228 10.0635V9.01948C126.228 8.27948 125.88 8.04348 125.268 8.04348H124.752V10.8435H124V4.27148H125.472ZM125.284 7.37548C125.864 7.37548 126.212 7.18748 126.212 6.47148V5.84348C126.212 5.24748 125.996 4.93948 125.452 4.93948H124.736V7.37548H125.284Z" fill="white"/>
<path d="M130.048 7.19948V7.85548H128.448V10.1995H130.4V10.8675H127.692V4.27148H130.4V4.93948H128.44V7.19948H130.048Z" fill="white"/>
<path d="M133.944 5.85141V6.03141H133.248V5.81541C133.248 5.21941 133.02 4.87141 132.496 4.87141C131.972 4.87141 131.74 5.21941 131.74 5.80341C131.74 7.27941 133.952 7.42341 133.952 9.27541C133.952 10.2714 133.472 10.9194 132.464 10.9194C131.456 10.9194 130.988 10.2714 130.988 9.27541V8.89941H131.676V9.29941C131.676 9.89141 131.92 10.2394 132.448 10.2394C132.976 10.2394 133.22 9.89141 133.22 9.29941C133.22 7.83141 131.016 7.69941 131.016 5.83941C131.016 4.82341 131.488 4.19141 132.476 4.19141C133.464 4.19141 133.944 4.85541 133.944 5.85141Z" fill="white"/>
<path d="M87.372 32.9316C87.1904 33.0417 86.9842 33.105 86.772 33.1156V32.7156C86.9422 32.7192 87.1085 32.6645 87.2432 32.5604C87.3778 32.4563 87.4727 32.3092 87.512 32.1436H87.844V36.4516H87.372V32.9316Z" fill="white"/>
<path d="M90.512 33.1995C90.512 34.4995 89.052 34.9675 89.048 35.9595V36.0275H90.464V36.4635H88.572V36.0955C88.572 34.7035 90.032 34.4315 90.032 33.2195C90.032 32.7755 89.884 32.5435 89.528 32.5435C89.172 32.5435 89.02 32.7955 89.02 33.1755V33.5755H88.572V33.1995C88.572 32.5395 88.872 32.1035 89.54 32.1035C90.208 32.1035 90.512 32.5395 90.512 33.1995Z" fill="white"/>
<path d="M91.416 33.5156V34.1156H90.956V33.5156H91.416ZM91.416 35.8636V36.4596H90.956V35.8636H91.416Z" fill="white"/>
<path d="M92.4 33.9035C92.4637 33.7902 92.5577 33.6969 92.6714 33.634C92.7852 33.5711 92.9142 33.5412 93.044 33.5475C93.596 33.5475 93.844 33.9475 93.844 34.5715V35.4155C93.844 36.0715 93.528 36.5035 92.868 36.5035C92.208 36.5035 91.904 36.0715 91.904 35.4155V35.1235H92.352V35.4435C92.352 35.8435 92.512 36.0675 92.856 36.0675C93.2 36.0675 93.364 35.8315 93.364 35.4435V34.6075C93.364 34.2075 93.204 33.9835 92.856 33.9835C92.7934 33.9808 92.7309 33.9908 92.6723 34.0129C92.6137 34.035 92.5601 34.0687 92.5149 34.1121C92.4697 34.1554 92.4337 34.2075 92.4091 34.2652C92.3846 34.3228 92.3719 34.3848 92.372 34.4475V34.5475H91.92L92.04 32.1475H93.74V32.5755H92.468L92.4 33.9035Z" fill="white"/>
<path d="M94.256 33.1992C94.256 32.5392 94.584 32.1152 95.24 32.1152C95.896 32.1152 96.232 32.5392 96.232 33.1992V35.4232C96.232 36.0792 95.908 36.5112 95.24 36.5112C94.572 36.5112 94.256 36.0792 94.256 35.4232V33.1992ZM94.732 35.4512C94.732 35.8512 94.896 36.0752 95.24 36.0752C95.584 36.0752 95.752 35.8392 95.752 35.4512V33.1752C95.752 32.7752 95.592 32.5472 95.24 32.5472C94.888 32.5472 94.732 32.7792 94.732 33.1752V35.4512Z" fill="white"/>
<path d="M87.372 40.3516C87.1904 40.4617 86.9842 40.525 86.772 40.5356V40.1356C86.9429 40.1398 87.11 40.0848 87.2449 39.9797C87.3798 39.8747 87.4742 39.7263 87.512 39.5596H87.844V43.8796H87.372V40.3516Z" fill="white"/>
<path d="M90.488 40.6115V40.7195C90.5084 40.9043 90.4683 41.0907 90.3739 41.2508C90.2794 41.4109 90.1356 41.536 89.964 41.6075C90.1367 41.6787 90.2814 41.8044 90.376 41.9654C90.4706 42.1265 90.51 42.314 90.488 42.4995V42.8315C90.488 43.4915 90.18 43.9235 89.516 43.9235C88.852 43.9235 88.548 43.4915 88.548 42.8315V42.5355H88.996V42.8635C88.996 43.2635 89.156 43.4875 89.5 43.4875C89.844 43.4875 90.008 43.2595 90.008 42.8195V42.4875C90.008 42.0635 89.828 41.8595 89.464 41.8475H89.2V41.4155H89.48C89.5548 41.4162 89.6289 41.4008 89.6972 41.3703C89.7655 41.3398 89.8264 41.2949 89.8757 41.2387C89.9251 41.1825 89.9618 41.1163 89.9832 41.0447C90.0047 40.973 90.0104 40.8976 90 40.8235V40.6275C90 40.1835 89.844 39.9555 89.492 39.9555C89.14 39.9555 88.988 40.1955 88.988 40.5835V40.7995H88.54V40.6035C88.54 39.9435 88.848 39.5195 89.508 39.5195C90.168 39.5195 90.488 39.9515 90.488 40.6115Z" fill="white"/>
<path d="M91.416 40.9355V41.5355H90.956V40.9355H91.416ZM91.416 43.2836V43.8795H90.956V43.2836H91.416Z" fill="white"/>
<path d="M93.824 40.6115V40.7195C93.8457 40.9045 93.8062 41.0914 93.7116 41.2518C93.617 41.4122 93.4724 41.5371 93.3 41.6075C93.4727 41.6787 93.6174 41.8044 93.712 41.9654C93.8066 42.1265 93.846 42.314 93.824 42.4995V42.8315C93.824 43.4915 93.516 43.9235 92.852 43.9235C92.188 43.9235 91.884 43.4915 91.884 42.8315V42.5355H92.336V42.8635C92.336 43.2635 92.496 43.4875 92.84 43.4875C93.184 43.4875 93.344 43.2595 93.344 42.8195V42.4875C93.344 42.0635 93.164 41.8595 92.804 41.8475H92.544V41.4155H92.828C92.9027 41.4163 92.9766 41.401 93.0448 41.3704C93.1129 41.3399 93.1736 41.2949 93.2226 41.2386C93.2717 41.1823 93.308 41.1161 93.3289 41.0444C93.3499 40.9727 93.355 40.8974 93.344 40.8235V40.6275C93.344 40.1835 93.192 39.9555 92.84 39.9555C92.488 39.9555 92.336 40.1955 92.336 40.5835V40.7995H91.884V40.6035C91.884 39.9435 92.192 39.5195 92.852 39.5195C93.512 39.5195 93.824 39.9515 93.824 40.6115Z" fill="white"/>
<path d="M96.232 40.6159C96.232 41.9159 94.772 42.3839 94.768 43.3759V43.4439H96.184V43.8799H94.292V43.5119C94.292 42.1199 95.752 41.8479 95.752 40.6359C95.752 40.1919 95.604 39.9559 95.248 39.9559C94.892 39.9559 94.744 40.2119 94.744 40.5919V40.9919H94.292V40.6439C94.292 39.9839 94.596 39.5479 95.26 39.5479C95.924 39.5479 96.232 39.9559 96.232 40.6159Z" fill="white"/>
<path d="M87.372 47.7714C87.1897 47.8799 86.9839 47.943 86.772 47.9554V47.5554C86.9426 47.5606 87.1096 47.5064 87.2446 47.4021C87.3796 47.2977 87.4741 47.1497 87.512 46.9834H87.844V51.2954H87.372V47.7714Z" fill="white"/>
<path d="M90.488 48.0273V48.1393C90.5084 48.324 90.4683 48.5104 90.3739 48.6705C90.2794 48.8306 90.1356 48.9558 89.964 49.0273C90.1367 49.0984 90.2814 49.2241 90.376 49.3852C90.4706 49.5462 90.51 49.7338 90.488 49.9193V50.2513C90.488 50.9113 90.18 51.3433 89.516 51.3433C88.852 51.3433 88.548 50.9113 88.548 50.2513V49.9553H88.996V50.2833C88.996 50.6833 89.156 50.9033 89.5 50.9033C89.844 50.9033 90.008 50.6753 90.008 50.2393V49.9073C90.008 49.4833 89.828 49.2793 89.464 49.2673H89.2V48.8353H89.48C89.5548 48.836 89.6289 48.8206 89.6972 48.7901C89.7655 48.7595 89.8264 48.7147 89.8757 48.6585C89.9251 48.6023 89.9618 48.5361 89.9832 48.4644C90.0047 48.3928 90.0104 48.3173 90 48.2433V48.0473C90 47.6033 89.844 47.3753 89.492 47.3753C89.14 47.3753 88.988 47.6153 88.988 48.0033V48.2273H88.54V48.0273C88.54 47.3713 88.848 46.9473 89.508 46.9473C90.168 46.9473 90.488 47.3713 90.488 48.0273Z" fill="white"/>
<path d="M91.416 48.3555V48.9515H90.956V48.3555H91.416ZM91.416 50.7035V51.2995H90.956V50.7035H91.416Z" fill="white"/>
<path d="M93.66 50.4321V51.3001H93.2V50.4321H91.8V50.0001L93.136 46.9961H93.66V50.0001H94V50.4401L93.66 50.4321ZM92.244 49.9921H93.2V47.8881L92.244 49.9921Z" fill="white"/>
<path d="M96.352 47.9999V48.1359C96.3756 48.317 96.34 48.5008 96.2506 48.6601C96.1613 48.8194 96.0229 48.9456 95.856 49.0199C96.0251 49.0991 96.1645 49.2304 96.2537 49.3945C96.3429 49.5585 96.3774 49.7468 96.352 49.9319V50.2519C96.3608 50.3909 96.3409 50.5303 96.2937 50.6614C96.2465 50.7924 96.1729 50.9125 96.0775 51.014C95.9821 51.1156 95.8669 51.1965 95.7391 51.2518C95.6112 51.3072 95.4734 51.3357 95.334 51.3357C95.1947 51.3357 95.0569 51.3072 94.929 51.2518C94.8011 51.1965 94.6859 51.1156 94.5906 51.014C94.4952 50.9125 94.4216 50.7924 94.3744 50.6614C94.3272 50.5303 94.3073 50.3909 94.316 50.2519V49.9319C94.2904 49.7463 94.3251 49.5574 94.4152 49.3932C94.5052 49.2289 94.6458 49.098 94.816 49.0199C94.6476 48.9473 94.5076 48.8216 94.4173 48.662C94.327 48.5024 94.2915 48.3176 94.316 48.1359V47.9999C94.3073 47.8608 94.3272 47.7214 94.3744 47.5904C94.4216 47.4593 94.4952 47.3393 94.5906 47.2377C94.6859 47.1361 94.8011 47.0552 94.929 46.9999C95.0569 46.9446 95.1947 46.916 95.334 46.916C95.4734 46.916 95.6112 46.9446 95.7391 46.9999C95.8669 47.0552 95.9821 47.1361 96.0775 47.2377C96.1729 47.3393 96.2465 47.4593 96.2937 47.5904C96.3409 47.7214 96.3608 47.8608 96.352 47.9999ZM94.792 47.9999V48.2079C94.792 48.6079 94.996 48.8119 95.332 48.8119C95.668 48.8119 95.876 48.6279 95.876 48.2079V47.9999C95.876 47.5559 95.672 47.3519 95.332 47.3519C94.992 47.3519 94.8 47.5999 94.8 48.0239L94.792 47.9999ZM94.792 49.8639V50.2279C94.792 50.6719 94.988 50.8799 95.332 50.8799C95.676 50.8799 95.868 50.6719 95.876 50.2279V49.8639C95.876 49.4639 95.692 49.2439 95.332 49.2439C94.972 49.2439 94.8 49.4719 94.8 49.8879L94.792 49.8639Z" fill="white"/>
<path d="M87.372 55.1991C87.1897 55.3077 86.9839 55.3708 86.772 55.3831V54.9831C86.9426 54.9883 87.1096 54.9341 87.2446 54.8298C87.3796 54.7255 87.4741 54.5775 87.512 54.4111H87.844V58.7191H87.372V55.1991Z" fill="white"/>
<path d="M89.052 56.1634C89.1147 56.0502 89.2079 55.9567 89.321 55.8938C89.4342 55.8309 89.5627 55.8009 89.692 55.8074C90.248 55.8074 90.492 56.2074 90.492 56.8274V57.6714C90.492 58.3314 90.18 58.7634 89.52 58.7634C88.86 58.7634 88.552 58.3314 88.552 57.6714V57.3834H89.004V57.7034C89.004 58.1034 89.164 58.3234 89.508 58.3234C89.852 58.3234 90.012 58.0914 90.012 57.7034V56.8634C90.012 56.4634 89.852 56.2434 89.508 56.2434C89.4455 56.2407 89.3832 56.2506 89.3246 56.2724C89.266 56.2942 89.2124 56.3276 89.1669 56.3704C89.1214 56.4133 89.085 56.4649 89.0598 56.5221C89.0345 56.5792 89.021 56.6409 89.02 56.7034V56.7994H88.572L88.688 54.3994H90.4V54.8314H89.12L89.052 56.1634Z" fill="white"/>
<path d="M91.416 55.7754V56.3714H90.956V55.7754H91.416ZM91.416 58.1194V58.7194H90.956V58.1194H91.416Z" fill="white"/>
<path d="M92.8 55.1991C92.6176 55.3077 92.4119 55.3708 92.2 55.3831V54.9831C92.3705 54.9883 92.5376 54.9341 92.6726 54.8298C92.8075 54.7255 92.9021 54.5775 92.94 54.4111H93.272V58.7191H92.8V55.1991Z" fill="white"/>
<path d="M93.956 55.4473C93.956 54.7913 94.28 54.3633 94.94 54.3633C95.6 54.3633 95.932 54.7913 95.932 55.4473V57.6713C95.932 58.3313 95.604 58.7633 94.94 58.7633C94.276 58.7633 93.956 58.3313 93.956 57.6713V55.4473ZM94.428 57.7033C94.428 58.1033 94.596 58.3233 94.94 58.3233C95.284 58.3233 95.452 58.0913 95.452 57.7033V55.4233C95.452 55.0233 95.292 54.7953 94.94 54.7953C94.588 54.7953 94.428 55.0313 94.428 55.4233V57.7033Z" fill="white"/>
<path d="M163.532 55.4473V55.8473H163.076V55.4473C163.076 55.0473 162.92 54.8273 162.568 54.8273C162.216 54.8273 162.064 55.0593 162.064 55.4473V57.7273C162.064 58.1273 162.224 58.3473 162.568 58.3473C162.912 58.3473 163.076 58.1153 163.076 57.7273V57.1673H163.532V57.7033C163.532 58.3553 163.224 58.7873 162.556 58.7873C161.888 58.7873 161.6 58.3313 161.6 57.6793V55.4473C161.6 54.7953 161.908 54.3633 162.564 54.3633C163.22 54.3633 163.532 54.7993 163.532 55.4473Z" fill="#92E3A9"/>
<path d="M164.452 57.8514L164.288 58.7194H163.844L164.668 54.3994H165.364L166.192 58.7114H165.708L165.544 57.8434L164.452 57.8514ZM164.516 57.4514H165.476L164.988 54.9634L164.516 57.4514Z" fill="#92E3A9"/>
<path d="M166.992 58.7194H166.56V54.3994H167.168L168.168 57.5154V54.3994H168.592V58.7194H168.092L166.992 55.2314V58.7194Z" fill="#92E3A9"/>
<path d="M170.988 55.4477V55.8477H170.532V55.4477C170.532 55.0477 170.38 54.8277 170.028 54.8277C169.676 54.8277 169.524 55.0597 169.524 55.4477V57.7277C169.524 58.1277 169.684 58.3477 170.028 58.3477C170.372 58.3477 170.532 58.1157 170.532 57.7277V57.1677H170.988V57.7037C170.988 58.3557 170.68 58.7877 170.016 58.7877C169.352 58.7877 169.048 58.3557 169.048 57.7037V55.4717C169.048 54.8197 169.356 54.3877 170.016 54.3877C170.676 54.3877 170.988 54.7997 170.988 55.4477Z" fill="#92E3A9"/>
<path d="M172.96 56.3154V56.7474H171.904V58.2794H173.2V58.7194H171.424V54.3994H173.2V54.8354H171.904V56.3074L172.96 56.3154Z" fill="#92E3A9"/>
<path d="M173.644 58.7194V54.3994H174.124V58.2714H175.356V58.7114L173.644 58.7194Z" fill="#92E3A9"/>
<path d="M175.716 58.7194V54.3994H176.196V58.2714H177.428V58.7114L175.716 58.7194Z" fill="#92E3A9"/>
<path d="M179.328 56.3154V56.7474H178.272V58.2794H179.568V58.7194H177.792V54.3994H179.568V54.8354H178.272V56.3074L179.328 56.3154Z" fill="#92E3A9"/>
<path d="M181.02 54.3994C181.692 54.3994 182 54.7994 182 55.4714V57.6434C182 58.3034 181.692 58.7114 181.02 58.7114H180V54.3994H181.02ZM181.02 58.2714C181.364 58.2714 181.528 58.0594 181.528 57.6634V55.4474C181.528 55.0474 181.364 54.8354 181.012 54.8354H180.496V58.2714H181.02Z" fill="#92E3A9"/>
<path d="M89.456 7.80011C89.456 8.15611 89.456 8.48411 89.456 8.81211C89.5012 9.09833 89.489 9.39067 89.42 9.67211C89.316 9.90411 89.02 10.0481 88.796 10.2321C88.771 10.2462 88.7481 10.2637 88.728 10.2841C88.7013 10.3174 88.6846 10.3577 88.68 10.4001C88.68 10.6001 88.68 10.8001 88.68 11.0161C89.052 10.9041 89.4 10.7921 89.748 10.7001C89.865 10.6721 89.987 10.6721 90.104 10.7001C90.452 10.7881 90.8 10.8961 91.148 10.9961C91.232 10.4001 91.216 10.3521 90.78 10.0001C90.68 9.91611 90.572 9.84011 90.476 9.75211C90.4327 9.71264 90.4056 9.65846 90.4 9.60011C90.4 9.00411 90.4 8.40011 90.4 7.78011L93.908 8.86411C93.908 8.62811 93.908 8.42411 93.908 8.22411C93.9161 8.1601 93.9034 8.09517 93.8717 8.03896C93.84 7.98276 93.791 7.93827 93.732 7.91211C92.684 7.29211 91.64 6.66011 90.588 6.04011C90.5238 6.01113 90.4704 5.96271 90.4352 5.9017C90.4001 5.84069 90.3849 5.77018 90.392 5.70011C90.392 4.90011 90.392 4.12811 90.392 3.34411C90.4028 3.24569 90.3823 3.14638 90.3335 3.06023C90.2846 2.97409 90.21 2.90548 90.12 2.86411C90.0453 2.82895 89.9625 2.81454 89.8803 2.8224C89.7981 2.83026 89.7196 2.8601 89.6529 2.90879C89.5862 2.95747 89.5338 3.02321 89.5013 3.0991C89.4688 3.175 89.4573 3.25824 89.468 3.34011C89.468 4.14011 89.468 4.94011 89.468 5.74011C89.4749 5.80296 89.4621 5.86641 89.4313 5.92161C89.4004 5.97682 89.3532 6.02104 89.296 6.04811C88.232 6.67611 87.172 7.31211 86.116 7.94411C86.052 7.98411 85.964 8.04811 85.96 8.10411C85.96 8.36011 85.96 8.61611 85.96 8.90411L89.456 7.80011Z" fill="white"/>
<path d="M89.456 7.79932L85.944 8.89532C85.944 8.61132 85.944 8.35532 85.944 8.09532C85.944 8.03932 86.036 7.97532 86.1 7.93532C87.156 7.30332 88.216 6.66732 89.28 6.03932C89.3372 6.01225 89.3844 5.96803 89.4153 5.91283C89.4461 5.85762 89.459 5.79418 89.452 5.73132C89.452 4.93132 89.452 4.13133 89.452 3.33133C89.4413 3.24946 89.4528 3.16621 89.4853 3.09032C89.5178 3.01442 89.5702 2.94869 89.6369 2.9C89.7036 2.85131 89.7821 2.82147 89.8643 2.81361C89.9465 2.80575 90.0293 2.82016 90.104 2.85532C90.194 2.89669 90.2686 2.9653 90.3175 3.05145C90.3663 3.13759 90.3868 3.2369 90.376 3.33532C90.376 4.13532 90.376 4.90732 90.376 5.69132C90.369 5.76139 90.3841 5.83191 90.4192 5.89291C90.4544 5.95392 90.5078 6.00234 90.572 6.03132C91.624 6.65132 92.668 7.28332 93.716 7.90332C93.775 7.92948 93.824 7.97397 93.8557 8.03017C93.8874 8.08638 93.9002 8.15131 93.892 8.21532C93.892 8.41532 93.892 8.61532 93.892 8.85532L90.4 7.79532C90.4 8.42332 90.4 9.01932 90.4 9.61532C90.4124 9.66962 90.4436 9.71779 90.488 9.75132C90.584 9.83932 90.692 9.91532 90.792 9.99932C91.228 10.3513 91.244 10.3993 91.16 10.9953C90.812 10.8953 90.464 10.7873 90.116 10.6993C89.999 10.6713 89.877 10.6713 89.76 10.6993C89.412 10.7913 89.064 10.9033 88.692 11.0153C88.692 10.7993 88.692 10.6153 88.692 10.3993C88.6966 10.3569 88.7133 10.3166 88.74 10.2833C88.7601 10.2629 88.783 10.2454 88.808 10.2313C89.024 10.0473 89.328 9.90332 89.432 9.67132C89.501 9.38988 89.5132 9.09754 89.468 8.81132C89.46 8.48332 89.456 8.15532 89.456 7.79932Z" fill="white"/>
<path d="M46.036 40.0564L47.236 40.7764C47.2283 40.2419 47.255 39.7075 47.316 39.1764C47.396 38.9364 48.752 39.0164 48.752 39.0164C48.4273 37.5163 47.7407 36.1184 46.752 34.9444C45.152 33.1044 42.196 31.1084 39.08 31.1084C35.964 31.1084 32.612 32.4004 30.856 35.2004C30.1451 36.3448 29.6786 37.6239 29.4859 38.9573C29.2931 40.2907 29.3783 41.6495 29.736 42.9484C30.296 44.7084 30.936 49.5004 30.936 49.5004C30.936 49.5004 32.452 49.5804 32.852 49.1804C33.252 48.7804 33.092 45.5804 33.892 43.7484C34.692 41.9164 36.292 41.1924 38.448 40.8724C40.604 40.5524 45.156 39.9124 45.156 39.9124L46.036 40.0564Z" fill="#263238" stroke="#263238" stroke-width="0.917431" stroke-linecap="round" stroke-linejoin="round"/>
<path d="M39.868 131.6C39.868 131.6 38.532 138.8 39.2 143.868C39.868 148.936 40.668 158.532 40.668 159.6V161.468C40.668 161.468 40.132 161.468 40.132 162.8C40.132 164.132 39.868 168.4 39.868 169.068C39.868 169.736 42.532 170.132 43.068 170.132C43.604 170.132 46.132 171.468 47.868 172C49.604 172.532 52.268 172.8 52.532 171.332C52.796 169.864 51.068 167.732 50.132 166.932C49.196 166.132 47.068 163.332 47.068 163.332C47.068 163.332 46.932 161.2 46.668 160.668C46.6446 160.603 46.6051 160.546 46.5533 160.502C46.5015 160.457 46.4391 160.426 46.3721 160.413C46.3051 160.399 46.2357 160.403 46.1706 160.424C46.1054 160.444 46.0467 160.482 46 160.532C46 160.532 48.668 142.8 48.668 141.068C48.668 139.336 49.2 134.532 49.2 132.668C49.2 130.804 39.868 131.6 39.868 131.6Z" fill="white" stroke="#263238" stroke-width="0.917431" stroke-linecap="round" stroke-linejoin="round"/>
<path d="M49.2 132.668C49.2 130.8 39.868 131.6 39.868 131.6C39.868 131.6 39.596 133.056 39.36 135.116C40.3499 135.281 41.3528 135.354 42.356 135.336C44.8255 135.326 47.2253 134.516 49.196 133.028C49.2 132.9 49.2 132.776 49.2 132.668Z" fill="#263238" stroke="#263238" stroke-width="0.917431" stroke-linecap="round" stroke-linejoin="round"/>
<path d="M52.532 171.332C52.8 169.868 51.068 167.732 50.132 166.932C49.196 166.132 47.068 163.332 47.068 163.332C47.068 163.332 46.932 161.2 46.668 160.668C46.54 160.412 46.38 160.372 46.268 160.4L46.016 160.532C45.2937 160.594 44.5794 160.728 43.884 160.932C43.216 161.2 43.084 162.4 43.084 162.4L40.684 161.468C40.684 161.468 40.148 161.468 40.148 162.8C40.148 164.132 39.884 168.4 39.884 169.068C39.884 169.736 42.548 170.132 43.084 170.132C43.62 170.132 46.148 171.468 47.884 172C49.62 172.532 52.268 172.8 52.532 171.332Z" fill="#263238" stroke="#263238" stroke-width="0.917431" stroke-linecap="round" stroke-linejoin="round"/>
<path d="M28.9321 132.932C28.1669 135.763 27.7201 138.671 27.6001 141.6C27.3321 146.8 29.7321 154.932 30.0001 156.532C30.2681 158.132 29.3321 164.4 29.3321 164.4C28.4843 165.955 27.7284 167.558 27.0681 169.2C26.2681 171.332 26.9321 172.668 28.8001 172.932C30.6681 173.196 32.2681 172.932 33.3321 172.132C34.3961 171.332 35.0681 169.068 35.3321 168.668C35.5961 168.268 36.4001 167.732 36.4001 165.868C36.4001 164.004 35.8681 159.732 35.8681 158.668C35.8681 157.604 36.1321 151.6 36.5321 149.732C36.9321 147.864 37.4681 142 37.4681 139.468C37.405 137.327 37.2261 135.191 36.9321 133.068C36.9321 133.068 30.8001 132.532 28.9321 132.932Z" fill="white" stroke="#263238" stroke-width="0.917431" stroke-linecap="round" stroke-linejoin="round"/>
<path d="M37.16 134.936C37.04 133.848 36.932 133.068 36.932 133.068C36.932 133.068 30.8 132.532 28.932 132.932C28.932 132.932 28.76 133.5 28.532 134.508C29.711 134.998 30.9499 135.327 32.216 135.488C33.8844 135.714 35.5825 135.524 37.16 134.936Z" fill="#263238" stroke="#263238" stroke-width="0.917431" stroke-linecap="round" stroke-linejoin="round"/>
<path d="M35.3321 168.668C35.6001 168.268 36.4001 167.732 36.4001 165.868C36.4001 164.896 36.2561 163.28 36.1161 161.796C35.3161 162.8 34.8001 162.532 34.8001 162.532C34.8001 162.532 34.2681 160.4 32.5321 160.268C31.0961 160.156 30.0281 161.236 29.7041 161.608C29.5201 163.14 29.3321 164.408 29.3321 164.408C28.4843 165.962 27.7284 167.565 27.0681 169.208C26.2681 171.34 26.9321 172.676 28.8001 172.94C30.6681 173.204 32.2681 172.94 33.3321 172.14C34.3961 171.34 35.0681 169.068 35.3321 168.668Z" fill="#263238" stroke="#263238" stroke-width="0.917431" stroke-linecap="round" stroke-linejoin="round"/>
<path d="M24.3 83.2995L19.5 85.7995C19.5 85.7995 16.6 105.499 16.6 105.899C16.6 106.299 18.3 107.299 20.5 107.299C22.7 107.299 25.6 105.399 25.6 105.399C25.6 105.399 26.9 85.7995 26.9 85.1995C26.9 84.5995 25.8 81.4995 24.3 83.2995Z" fill="#263238" stroke="#263238" stroke-width="0.917431" stroke-linecap="round" stroke-linejoin="round"/>
<path d="M24.668 97.8688C24.668 97.8688 23.068 111.201 23.2 113.869C23.332 116.537 23.332 121.869 23.332 123.201C23.332 124.533 22.932 130.133 23.6 130.933C24.268 131.733 26.132 133.469 30.268 134.133C34.404 134.797 35.2 134.401 36 134.001C36.8 133.601 38.932 132.801 38.932 132.801C38.932 132.801 39.468 133.869 44.268 134.133C49.068 134.397 48.532 133.869 49.6 133.469C50.668 133.069 52.132 132.401 52.8 131.733C53.468 131.065 51.732 117.601 51.732 116.133C51.732 114.665 52.132 106.133 52.268 104.133C52.404 102.133 51.332 100.669 51.332 99.6007V95.4688C51.332 95.4688 42.668 98.5327 37.6 98.5327C32.532 98.5327 24.532 96.5327 24.532 96.5327L24.668 97.8688Z" fill="white" stroke="#263238" stroke-width="0.917431" stroke-linecap="round" stroke-linejoin="round"/>
<path d="M40.5321 100.4C40.5321 100.4 39.7321 104.132 40.2681 104.532C40.8041 104.932 41.6001 105.6 41.2001 106.8C40.9765 107.483 40.7092 108.152 40.4001 108.8" stroke="#263238" stroke-width="0.917431" stroke-linecap="round" stroke-linejoin="round"/>
<path d="M33.7321 108.268L37.8681 110.532" stroke="#263238" stroke-width="0.917431" stroke-linecap="round" stroke-linejoin="round"/>
<path d="M41.2 111.468L44.8 108.668" stroke="#263238" stroke-width="0.917431" stroke-linecap="round" stroke-linejoin="round"/>
<path d="M50.532 100.268C50.532 100.268 46.932 101.868 45.068 102.932" stroke="#263238" stroke-width="0.917431" stroke-linecap="round" stroke-linejoin="round"/>
<path d="M49.068 101.868C49.068 101.868 45.868 104 44.532 104.268" stroke="#263238" stroke-width="0.917431" stroke-linecap="round" stroke-linejoin="round"/>
<path d="M29.068 100.268C29.1812 101.456 28.8475 102.644 28.132 103.6C27.2585 104.663 26.1673 105.526 24.932 106.132" stroke="#263238" stroke-width="0.917431" stroke-linecap="round" stroke-linejoin="round"/>
<path d="M25.6 99.4678C25.6 99.4678 24.532 106.8 24.532 110.8C24.532 114.8 24.4 118.532 24.4 118.532" stroke="#263238" stroke-width="0.917431" stroke-linecap="round" stroke-linejoin="round"/>
<path d="M23.6 118.132C23.6 118.132 24.132 119.068 27.468 119.6C30.804 120.132 32.8 119.732 32.8 120.532C32.696 121.522 32.5182 122.504 32.268 123.468C30.7536 123.69 29.2097 123.599 27.732 123.2C26.3151 122.775 24.9335 122.24 23.6 121.6" stroke="#263238" stroke-width="0.917431" stroke-linecap="round" stroke-linejoin="round"/>
<path d="M32.268 123.468C32.268 123.468 31.868 129.732 32 130.532C32.132 131.332 32.132 132 30.668 131.868C29.204 131.736 24.532 129.868 24 129.068" stroke="#263238" stroke-width="0.917431" stroke-linecap="round" stroke-linejoin="round"/>
<path d="M40.268 112L38.932 132.8" stroke="#263238" stroke-width="0.917431" stroke-linecap="round" stroke-linejoin="round"/>
<path d="M50.132 122.133C50.132 122.133 50 129.201 50 129.869C50 130.537 49.868 131.201 50.932 131.201C51.996 131.201 53.868 130.801 54 130.001C54.132 129.201 53.068 125.201 52.8 124.401C52.5607 123.436 52.383 122.456 52.268 121.469L50.132 122.133Z" fill="white" stroke="#263238" stroke-width="0.917431" stroke-linecap="round" stroke-linejoin="round"/>
<path d="M51.868 118.932L50.132 120V122.132C50.132 122.132 52.8 122 52.8 121.468C52.8 120.936 51.868 118.932 51.868 118.932Z" fill="white" stroke="#263238" stroke-width="0.917431" stroke-linecap="round" stroke-linejoin="round"/>
<path d="M32.5 48.6998L32.7 53.9998C32.194 54.2437 31.6549 54.4122 31.1 54.4998C30.3 54.5998 26.8 54.2998 23.8 54.9998C20.8 55.6998 19.4 57.6998 18.6 58.5998C17.8 59.4998 16.5 61.0998 15.4 61.9998C14.3 62.8998 10.504 65.7158 10.504 65.7158L12.604 71.9998C12.667 72.1748 12.7735 72.3308 12.9135 72.4533C13.0534 72.5757 13.2222 72.6606 13.404 72.6998C14.004 72.7998 13.104 72.8998 14.804 72.2998C16.504 71.6998 20.1 69.0998 20.1 69.0998L20.6 70.4998L24.2 69.6998C24.2 69.6998 24.2 84.0998 24.3 87.8998C24.4 91.6998 24.2 96.2998 24.1 96.9998C24 97.6998 23.9 98.2998 23.9 98.2998C23.9 98.2998 32.6 101.2 35.9 100.8C39.2 100.4 45.3 99.8998 47 98.7998C48.7 97.6998 52.7 96.3998 52.7 96.3998C52.7 96.3998 51 79.4998 51.1 77.5998C51.2 75.6998 51.4 71.5998 51.4 71.5998L52.9 61.4998C52.9 61.4998 60.5 57.6998 60.8 57.6998C61.2083 57.6365 61.61 57.5361 62 57.3998C62 57.3998 60.3 53.4998 59.2 50.6998C58.1 47.8998 57.4 47.2998 57.4 47.2998L53.5 48.7998C52.2 49.2998 49 50.5998 48.2 51.7998C47.6409 52.5949 46.9669 53.3026 46.2 53.8998H43.3L43.4 49.9998L32.5 48.6998Z" fill="#92E3A9" stroke="#263238" stroke-width="0.917431" stroke-linecap="round" stroke-linejoin="round"/>
<path d="M43.5 53.5996C43.5 53.5996 35.4 65.7996 30.7 72.5996C28.0227 76.5844 25.5851 80.725 23.4 84.9996L24.4 86.0996C24.4 86.0996 33.1 74.7996 37.2 67.1996C39.711 62.5581 42.5167 58.0823 45.6 53.7996L43.5 53.5996Z" fill="#263238" stroke="#263238" stroke-width="0.917431" stroke-linecap="round" stroke-linejoin="round"/>
<path d="M52.9 61.4994L54 54.8994" stroke="#263238" stroke-width="0.917431" stroke-linecap="round" stroke-linejoin="round"/>
<path d="M51.54 65.124L51.4 67" stroke="#263238" stroke-width="0.917431" stroke-linecap="round" stroke-linejoin="round"/>
<path d="M52.2 56.4004L51.68 63.3044" stroke="#263238" stroke-width="0.917431" stroke-linecap="round" stroke-linejoin="round"/>
<path d="M42.676 65.7881C42.464 66.2921 42.24 66.7961 42 67.3001L42.676 65.7881Z" fill="white"/>
<path d="M42.676 65.7881C42.464 66.2921 42.24 66.7961 42 67.3001" stroke="#263238" stroke-width="0.917431" stroke-linecap="round" stroke-linejoin="round"/>
<path d="M45.7 55.3994C45.1879 58.3761 44.3978 61.2982 43.34 64.1274L45.7 55.3994Z" fill="white"/>
<path d="M45.7 55.3994C45.1879 58.3761 44.3978 61.2982 43.34 64.1274" stroke="#263238" stroke-width="0.917431" stroke-linecap="round" stroke-linejoin="round"/>
<path d="M40.544 76.8398C40.244 77.4238 39.932 78.0118 39.6 78.5998" stroke="#263238" stroke-width="0.917431" stroke-linecap="round" stroke-linejoin="round"/>
<path d="M45.6001 62.2998C44.6433 66.9229 43.1366 71.4149 41.1121 75.6798" stroke="#263238" stroke-width="0.917431" stroke-linecap="round" stroke-linejoin="round"/>
<path d="M37.1 73.8994C37.1 73.8994 34 78.9994 33.6 80.0994" stroke="#263238" stroke-width="0.917431" stroke-linecap="round" stroke-linejoin="round"/>
<path d="M24.2 69.7002L27.8 68.2002" stroke="#263238" stroke-width="0.917431" stroke-linecap="round" stroke-linejoin="round"/>
<path d="M43.824 53.9002H43.3L43.4 50.0002L32.5 48.7002L32.7 54.0002C32.7 54.0002 34.8 58.0002 38.6 58.1002C41.916 58.1882 43.48 54.7722 43.824 53.9002Z" fill="white" stroke="#263238" stroke-width="0.917431" stroke-linecap="round" stroke-linejoin="round"/>
<path d="M45.796 38.4598C45.796 38.4598 45.476 47.8878 45.556 49.6598C45.636 51.4318 43.956 54.0598 42.2 55.2598C41.4453 55.7617 40.5621 56.0362 39.6558 56.0503C38.7495 56.0645 37.8581 55.8179 37.088 55.3398C35.808 54.5398 33.488 52.6238 33.088 51.4278C32.688 50.2318 32.368 45.4278 32.368 44.7958C32.368 44.1638 32.928 41.1198 34.768 40.3958C35.7658 40.0377 36.6872 39.4949 37.484 38.7958L36.924 40.0758C36.924 40.0758 38.84 39.9158 39.96 39.2758C40.7006 38.8406 41.3961 38.3327 42.036 37.7598L42.116 38.8758C42.116 38.8758 43.476 39.2758 43.956 38.7958C44.436 38.3158 44.836 37.9958 44.836 37.9958L45.796 38.4598Z" fill="white" stroke="#263238" stroke-width="0.917431" stroke-linecap="round" stroke-linejoin="round"/>
<path d="M38.584 46.3681C38.584 46.7681 38.344 47.1201 38.048 47.1201C37.752 47.1201 37.512 46.7841 37.512 46.3681C37.512 45.9521 37.752 45.6201 38.048 45.6201C38.344 45.6201 38.584 45.9561 38.584 46.3681Z" fill="#263238"/>
<path d="M44.168 46.0009C44.168 46.4009 43.928 46.7529 43.632 46.7529C43.336 46.7529 43.096 46.4169 43.096 46.0009C43.096 45.5849 43.336 45.2529 43.632 45.2529C43.928 45.2529 44.168 45.5729 44.168 46.0009Z" fill="#263238"/>
<path d="M40.204 49.5646C40.444 49.8046 41.88 50.0446 42.204 49.3246C42.528 48.6046 41.964 45.4086 41.964 45.4086L42.604 43.8926C42.604 43.8926 43.244 42.7726 44.684 43.3326" stroke="#263238" stroke-width="0.917431" stroke-linecap="round" stroke-linejoin="round"/>
<path d="M42.2 51.3242C42.2 51.3242 40.284 51.4042 39.244 51.8802C38.204 52.3562 39.164 52.5202 39.164 52.5202C39.164 52.5202 41.564 52.5202 41.804 52.2002C42.044 51.8802 42.36 51.8802 42.2 51.3242Z" stroke="#263238" stroke-width="0.917431" stroke-linecap="round" stroke-linejoin="round"/>
<path d="M39.244 44.2925C39.244 44.2925 37.244 43.8125 36.208 44.5325" stroke="#263238" stroke-width="0.917431" stroke-linecap="round" stroke-linejoin="round"/>
<path d="M15.4 62.0005C14.3 62.9005 10.504 65.7165 10.504 65.7165L12.604 72.0005C12.667 72.1754 12.7735 72.3315 12.9135 72.4539C13.0534 72.5764 13.2222 72.6612 13.404 72.7005C14.004 72.8005 13.104 72.9005 14.804 72.3005C16.504 71.7005 20.1 69.1005 20.1 69.1005L15.976 61.4805C15.78 61.6685 15.6 61.8485 15.4 62.0005Z" stroke="#263238" stroke-width="0.917431" stroke-linecap="round" stroke-linejoin="round"/>
<path d="M63.2 35.4001C58.1 34.6001 48.5 35.0001 48.5 35.0001C48.5 35.0001 46 31.9001 45.2 31.1001C44.4 30.3001 44 29.7001 42.5 29.9001C41 30.1001 39.3 30.3001 38.6 30.4001C37.9 30.5001 37.9 32.3001 37.9 32.3001C37.9 32.3001 37.9 33.3001 38.6 33.6001C39.3 33.9001 39.6 33.6001 39.6 33.6001L40.1 33.2001L41.9 33.4001L42.3 34.0961C43.184 34.7561 45.316 36.3281 46.1 36.8001C47.1 37.4001 48.2 37.2001 49.5 37.6001C51.9726 38.4559 54.3791 39.492 56.7 40.7001C58.2573 41.5984 59.73 42.636 61.1 43.8001L57.42 47.3161C57.532 47.4281 58.2 48.1521 59.2 50.7001C59.668 51.9001 60.248 53.2881 60.756 54.4961C62.52 52.8641 66.356 49.2961 67.8 47.2001C69.6 44.6001 73.3 40.2001 73.2 39.6001C73.1 39.0001 68.3 36.2001 63.2 35.4001Z" fill="white" stroke="#263238" stroke-width="0.917431" stroke-linecap="round" stroke-linejoin="round"/>
<path d="M41.9 30.8994C41.9 30.8994 39.6 31.6994 39.1 31.8994C38.6 32.0994 37.8 31.6994 37.9 32.2994" stroke="#263238" stroke-width="0.917431" stroke-linecap="round" stroke-linejoin="round"/>
<path d="M61.1 43.7996C61.1 43.7996 63 44.0996 65.3 42.5996" stroke="#263238" stroke-width="0.917431" stroke-linecap="round" stroke-linejoin="round"/>
<path d="M50.8 35.1L50.5 37.9L52.3 38.7L52.8 35L50.8 35.1Z" fill="#263238" stroke="#263238" stroke-width="0.917431" stroke-linecap="round" stroke-linejoin="round"/>
<path d="M52.7136 33.8828L50.8332 33.7662C50.6546 33.7551 50.5008 33.8909 50.4898 34.0695L50.4672 34.4328C50.4561 34.6114 50.5919 34.7651 50.7705 34.7762L52.6509 34.8929C52.8295 34.9039 52.9833 34.7682 52.9944 34.5896L53.0169 34.2263C53.028 34.0477 52.8922 33.8939 52.7136 33.8828Z" fill="#263238" stroke="#263238" stroke-width="0.917431" stroke-linecap="round" stroke-linejoin="round"/>
<path d="M28.3 46.6994L33.4 53.8994L35.3 49.5994L30.5 42.8994L28.3 46.6994Z" fill="#263238" stroke="#263238" stroke-width="0.917431" stroke-linecap="round" stroke-linejoin="round"/>
<path d="M31.656 50.6838C31.656 50.6838 31.736 54.5998 30.936 56.1958C30.136 57.7918 16.176 71.3558 14.34 72.4758C12.504 73.5958 9.94002 73.3518 9.38402 72.3158C8.82802 71.2798 8.66402 67.5158 9.46402 66.2438C10.264 64.9718 26.4 55.7958 27.2 55.3158C28 54.8358 27.52 53.2398 27.44 51.4838C27.36 49.7278 27.36 48.2078 27.76 47.5678C28.16 46.9278 30.476 45.0118 31.116 44.6918C31.756 44.3718 32.792 43.6518 33.032 44.3718C33.272 45.0918 32.872 45.3278 32.872 45.3278C32.872 45.3278 33.352 45.3278 33.192 46.2078C33.032 47.0878 31.192 48.6078 31.192 48.6078C32.0159 48.2575 32.8174 47.8567 33.592 47.4078C33.992 47.0878 34.152 47.7278 33.672 48.4478C33.192 49.1678 31.756 49.8838 31.756 49.8838L31.656 50.6838Z" fill="white" stroke="#263238" stroke-width="0.917431" stroke-linecap="round" stroke-linejoin="round"/>
<path d="M32.852 45.3281C32.852 45.3281 29.252 48.3761 29.14 48.6481C28.9841 48.9237 28.8019 49.1836 28.596 49.4241" fill="white"/>
<path d="M32.852 45.3281C32.852 45.3281 29.252 48.3761 29.14 48.6481C28.9841 48.9237 28.8019 49.1836 28.596 49.4241" stroke="#263238" stroke-width="0.917431" stroke-linecap="round" stroke-linejoin="round"/>
<path d="M31.272 44.6885C31.272 44.6885 28.748 47.3285 28.4 47.8885C28.2184 48.1584 28.0631 48.445 27.936 48.7445" fill="white"/>
<path d="M31.272 44.6885C31.272 44.6885 28.748 47.3285 28.4 47.8885C28.2184 48.1584 28.0631 48.445 27.936 48.7445" stroke="#263238" stroke-width="0.917431" stroke-linecap="round" stroke-linejoin="round"/>
<path d="M31.1761 48.6045C31.1761 48.6045 29.8761 49.4245 29.8361 49.6965C29.814 49.8609 29.7611 50.0197 29.6801 50.1645" fill="white"/>
<path d="M31.1761 48.6045C31.1761 48.6045 29.8761 49.4245 29.8361 49.6965C29.814 49.8609 29.7611 50.0197 29.6801 50.1645" stroke="#263238" stroke-width="0.917431" stroke-linecap="round" stroke-linejoin="round"/>
<path d="M82.2 81.4004V118.6" stroke="#263238" stroke-width="3.66972" stroke-linecap="round" stroke-linejoin="round"/>
<path d="M95.4 81.4V80.5C95.4 79.837 95.1366 79.2011 94.6678 78.7322C94.1989 78.2634 93.5631 78 92.9 78H84.7C84.037 78 83.4011 78.2634 82.9322 78.7322C82.4634 79.2011 82.2 79.837 82.2 80.5V81.4" stroke="#263238" stroke-width="5.50459" stroke-linecap="round" stroke-linejoin="round"/>
<path d="M95.4 118V81.4004" stroke="#263238" stroke-width="3.66972" stroke-linecap="round" stroke-linejoin="round"/>
<path d="M84.376 167.965C84.1992 167.965 84.0241 167.93 83.8607 167.862C83.6974 167.794 83.5491 167.695 83.4242 167.57C83.2994 167.444 83.2004 167.296 83.1331 167.132C83.0658 166.969 83.0315 166.794 83.032 166.617V164.137H85.724V166.617C85.724 166.974 85.582 167.317 85.3292 167.57C85.0764 167.823 84.7335 167.965 84.376 167.965Z" fill="#636363" stroke="#263238" stroke-width="0.917431" stroke-linecap="round" stroke-linejoin="round"/>
<path d="M69 167.965C68.6425 167.965 68.2997 167.823 68.0469 167.57C67.7941 167.317 67.652 166.974 67.652 166.617V164.137H70.348V166.617C70.348 166.794 70.3132 166.969 70.2454 167.133C70.1777 167.296 70.0784 167.445 69.9532 167.57C69.828 167.695 69.6794 167.794 69.5159 167.862C69.3523 167.93 69.1771 167.965 69 167.965Z" fill="#636363" stroke="#263238" stroke-width="0.917431" stroke-linecap="round" stroke-linejoin="round"/>
<path d="M93.976 167.965C93.7992 167.965 93.6241 167.93 93.4608 167.862C93.2974 167.794 93.1491 167.695 93.0243 167.57C92.8994 167.444 92.8005 167.296 92.7332 167.132C92.6659 166.969 92.6315 166.794 92.632 166.617V164.137H95.324V166.617C95.324 166.974 95.182 167.317 94.9292 167.57C94.6764 167.823 94.3335 167.965 93.976 167.965Z" fill="#636363" stroke="#263238" stroke-width="0.917431" stroke-linecap="round" stroke-linejoin="round"/>
<path d="M78.4 167.965C78.0425 167.965 77.6996 167.823 77.4468 167.57C77.194 167.317 77.052 166.974 77.052 166.617V164.137H79.748V166.617C79.748 166.974 79.606 167.317 79.3532 167.57C79.1004 167.823 78.7575 167.965 78.4 167.965Z" fill="#636363" stroke="#263238" stroke-width="0.917431" stroke-linecap="round" stroke-linejoin="round"/>
<path d="M85.628 165.4H66.724C65.092 165.4 63.776 163.904 63.8 162.08L64.34 119.628C64.36 117.84 65.664 116.4 67.264 116.4H85.088C86.688 116.4 87.992 117.84 88.016 119.628L88.552 162.08C88.576 163.904 87.26 165.4 85.628 165.4Z" fill="#92E3A9" stroke="#263238" stroke-width="0.917431" stroke-linecap="round" stroke-linejoin="round"/>
<path d="M96.172 165.4H83.372C82.268 165.4 81.372 163.904 81.392 162.08L81.756 119.628C81.756 117.84 82.652 116.4 83.756 116.4H95.82C96.904 116.4 97.784 117.84 97.8 119.628L98.164 162.08C98.168 163.904 97.276 165.4 96.172 165.4Z" fill="#92E3A9" stroke="#263238" stroke-width="0.917431" stroke-linecap="round" stroke-linejoin="round"/>
<path d="M91.4 116.4H89.6V165.4H91.4V116.4Z" fill="#263238" stroke="#263238" stroke-width="0.917431" stroke-linecap="round" stroke-linejoin="round"/>
<path d="M91.4 116.4C88.6 116.8 80 119.2 73.8 119.2H73.312C67.38 119.148 63.388 118.112 63 114.8C62.808 113.156 63.644 111.464 65.216 110.04C66.892 108.524 69.408 107.316 72.416 106.8C78.216 105.8 86.016 105.2 86.016 105.2C86.016 105.2 93.816 104.4 96.216 108.2C98.616 112 94.2 116 91.4 116.4Z" fill="white" stroke="#263238" stroke-width="0.917431" stroke-linecap="round" stroke-linejoin="round"/>
<path d="M85.8 107.2C84.2 108.2 77.6 108.4 72.8 111.2C68 114 68 118.2 72.6 119C72.8444 119.036 73.0835 119.102 73.312 119.196C67.38 119.144 63.388 118.108 63 114.796C62.808 113.152 63.644 111.46 65.216 110.036C67.1709 108.853 69.3504 108.09 71.616 107.796C79.416 106.796 83.816 106.996 83.816 106.996C83.816 106.996 87.4 106.2 85.8 107.2Z" fill="white" stroke="#263238" stroke-width="0.917431" stroke-linecap="round" stroke-linejoin="round"/>
<path d="M78.1721 115.791C83.9121 115.071 92.5361 114.283 96.0001 110.991" stroke="#263238" stroke-width="0.917431" stroke-linecap="round" stroke-linejoin="round"/>
<path d="M70.4 116C70.4 116 70.924 116.7 75.568 116.136" stroke="#263238" stroke-width="0.917431" stroke-linecap="round" stroke-linejoin="round"/>
<path d="M92 113.2C91.3294 113.873 90.7266 114.61 90.2 115.4" stroke="#263238" stroke-width="0.917431" stroke-linecap="round" stroke-linejoin="round"/>
<path d="M84.8 114.6C84.8 114.6 85 115.8 84.4 116.4" stroke="#263238" stroke-width="0.917431" stroke-linecap="round" stroke-linejoin="round"/>
<path d="M63.0001 114.8C63.0001 114.8 65.6001 116.8 68.0001 116.4" stroke="#263238" stroke-width="0.917431" stroke-linecap="round" stroke-linejoin="round"/>
</svg>
