<svg width="184" height="165" viewBox="0 0 184 165" fill="none" xmlns="http://www.w3.org/2000/svg">
<path d="M175.091 92.9527C170.125 108.004 159.427 124.499 143.683 129.869C119.896 137.985 117.77 157.495 74.5966 157.361C67.8652 157.341 61.6169 156.636 55.8521 155.348C52.7531 154.656 49.7929 153.792 46.9761 152.772C21.4006 143.546 7.39713 121.606 5.39896 98.1604C2.7657 67.3245 23.7506 51.7672 37.4256 42.6042C51.1006 33.4413 66.6928 -0.617961 109.136 -0.820397C115.608 -0.848476 122.09 -0.214448 128.403 1.2379C142.815 4.5467 157.644 12.5244 166.552 24.6804C167.22 25.5937 167.861 26.53 168.476 27.4854C180.491 46.1791 181.862 72.4335 175.091 92.9527Z" fill="#92E3A9"/>
<path opacity="0.7" d="M175.091 92.9527C170.125 108.004 159.427 124.499 143.683 129.869C119.896 137.985 117.77 157.495 74.5966 157.361C67.8652 157.341 61.6169 156.636 55.8521 155.348C52.7531 154.656 49.7929 153.792 46.9761 152.772C21.4006 143.546 7.39713 121.606 5.39896 98.1604C2.7657 67.3245 23.7506 51.7672 37.4256 42.6042C51.1006 33.4413 66.6928 -0.617961 109.136 -0.820397C115.608 -0.848476 122.09 -0.214448 128.403 1.2379C142.815 4.5467 157.644 12.5244 166.552 24.6804C167.22 25.5937 167.861 26.53 168.476 27.4854C180.491 46.1791 181.862 72.4335 175.091 92.9527Z" fill="white"/>
<path d="M172.499 159.528H178.003" stroke="#263238" stroke-width="0.844037" stroke-linecap="round" stroke-linejoin="round"/>
<path d="M5.85287 159.528H169.23" stroke="#263238" stroke-width="0.844037" stroke-linecap="round" stroke-linejoin="round"/>
<path opacity="0.3" d="M20.3253 20.4951C14.7442 20.4951 10.2199 25.0194 10.2199 30.6004C10.2199 36.1814 20.3253 46.3588 20.3253 46.3588C20.3253 46.3588 30.4306 36.1814 30.4306 30.6004C30.4306 25.0195 25.9063 20.4951 20.3253 20.4951ZM20.3253 34.1822C18.3471 34.1822 16.7435 32.5786 16.7435 30.6004C16.7435 28.6222 18.3471 27.0186 20.3253 27.0186C22.3034 27.0186 23.907 28.6222 23.907 30.6004C23.907 32.5786 22.3034 34.1822 20.3253 34.1822Z" stroke="black" stroke-width="0.844037" stroke-linecap="round" stroke-linejoin="round"/>
<path opacity="0.3" d="M157.386 127.717C153.818 127.717 150.925 130.61 150.925 134.178C150.925 137.747 157.386 144.255 157.386 144.255C157.386 144.255 163.848 137.747 163.848 134.178C163.848 130.61 160.955 127.717 157.386 127.717ZM157.386 136.469C156.121 136.469 155.096 135.443 155.096 134.178C155.096 132.914 156.121 131.888 157.386 131.888C158.651 131.888 159.677 132.914 159.677 134.178C159.677 135.443 158.651 136.469 157.386 136.469Z" stroke="black" stroke-width="0.844037" stroke-linecap="round" stroke-linejoin="round"/>
<path opacity="0.3" d="M165.166 8.48535C161.597 8.48535 158.704 11.3783 158.704 14.9469C158.704 18.5155 165.166 25.0232 165.166 25.0232C165.166 25.0232 171.627 18.5156 171.627 14.9469C171.627 11.3783 168.735 8.48535 165.166 8.48535ZM165.166 17.2372C163.901 17.2372 162.876 16.2118 162.876 14.9469C162.876 13.682 163.901 12.6566 165.166 12.6566C166.431 12.6566 167.456 13.682 167.456 14.9469C167.456 16.2118 166.431 17.2372 165.166 17.2372Z" stroke="black" stroke-width="0.844037" stroke-linecap="round" stroke-linejoin="round"/>
<g opacity="0.2">
<path d="M163.246 102.401C161.948 101.693 159.976 99.0302 159.975 99.0282C159.954 99.0006 162.125 98.2611 162.267 98.2301C163.914 97.872 167.307 98.1487 168.254 99.7813C168.936 100.957 168.33 102.376 167.141 102.914C165.927 103.463 164.352 103.003 163.246 102.401Z" fill="black"/>
<path d="M154.964 107.381C153.941 106.397 152.805 103.535 152.716 103.307C151.122 103.953 149.434 104.487 147.697 104.933C146.704 105.189 145.695 105.415 144.681 105.63C145.159 105.601 145.586 105.579 145.646 105.582C147.329 105.672 150.528 106.835 151.01 108.659C151.358 109.974 150.399 111.182 149.11 111.387C147.795 111.596 146.396 110.736 145.489 109.863C144.569 108.977 143.552 106.557 143.291 105.913C142.901 105.991 142.513 106.074 142.123 106.151C140.251 106.519 138.382 106.879 136.559 107.289C135.917 107.432 135.29 107.598 134.661 107.761C135.085 107.735 135.443 107.717 135.498 107.72C137.18 107.81 140.38 108.973 140.862 110.798C141.21 112.112 140.25 113.321 138.962 113.525C137.646 113.734 136.248 112.874 135.341 112.001C134.462 111.156 133.504 108.931 133.19 108.167C132.552 108.353 131.912 108.539 131.302 108.749C130.888 108.901 130.48 109.019 130.073 109.195C129.667 109.361 129.265 109.526 128.866 109.688C128.111 110.03 127.329 110.378 126.6 110.73C126.091 110.97 125.611 111.209 125.126 111.449C125.764 111.298 127.019 111.029 127.126 111.019C128.803 110.852 132.141 111.517 132.895 113.248C133.437 114.495 132.673 115.834 131.43 116.231C130.161 116.637 128.649 115.999 127.62 115.274C126.487 114.475 124.98 111.93 124.794 111.611C123.994 112.009 123.219 112.405 122.494 112.789C120.891 113.635 119.481 114.428 118.301 115.116L117.542 114.139C118.781 113.45 120.273 112.649 121.982 111.795C122.793 111.387 123.668 110.967 124.571 110.544C124.505 110.316 124.137 109.017 123.947 107.761C122.529 107.639 120.044 106.434 119.724 106.277C119.276 107.051 118.848 107.808 118.456 108.529C117.631 110.036 116.926 111.406 116.339 112.588L115.518 111.531C116.081 110.469 116.734 109.276 117.48 107.982C117.932 107.194 118.43 106.361 118.949 105.51C118.673 105.276 116.426 103.342 115.837 102.085C115.304 100.945 114.941 99.3445 115.563 98.1658C116.171 97.0122 117.625 96.4942 118.757 97.2473C120.329 98.292 120.398 101.695 119.94 103.317C119.913 103.413 119.504 104.419 119.236 105.049C119.45 104.702 119.654 104.364 119.879 104.01C120.318 103.307 120.778 102.619 121.27 101.876C121.52 101.526 121.773 101.172 122.027 100.815C122.273 100.456 122.578 100.107 122.854 99.748C123.512 98.9292 124.219 98.132 124.948 97.3444C124.334 96.9577 122.172 95.5534 121.469 94.5023C120.768 93.4561 120.167 91.9291 120.604 90.6701C121.03 89.4374 122.389 88.705 123.622 89.2774C125.334 90.0724 125.918 93.4262 125.711 95.0989C125.698 95.203 125.414 96.3866 125.246 97.0336C125.689 96.5636 126.128 96.0924 126.591 95.6315C127.926 94.3005 129.32 92.9952 130.705 91.6865C131.129 91.2859 131.547 90.8815 131.967 90.4785C131.747 90.3433 129.141 88.7297 128.353 87.5524C127.653 86.5066 127.052 84.9791 127.488 83.7202C127.915 82.4875 129.273 81.7551 130.507 82.3279C132.218 83.1227 132.802 86.4762 132.595 88.1488C132.58 88.2747 132.17 89.9772 132.044 90.4051C132.969 89.5169 133.882 88.6235 134.746 87.7059C135.941 86.4418 137.043 85.1351 138.017 83.7905C137.915 83.7278 135.187 82.0557 134.38 80.8504C133.68 79.804 133.079 78.2766 133.515 77.0178C133.942 75.7852 135.3 75.0529 136.533 75.6256C138.246 76.4204 138.829 79.7738 138.622 81.4466C138.606 81.5777 138.164 83.4092 138.06 83.7355C138.117 83.6553 138.186 83.5787 138.243 83.4981C139.265 82.0494 140.072 80.5175 140.758 79.0464C141.159 78.1923 141.494 77.3534 141.801 76.5302C141.261 76.2708 138.807 75.0585 137.961 74.0539C137.15 73.0909 136.384 71.6388 136.68 70.3398C136.969 69.0675 138.238 68.1906 139.527 68.6241C141.316 69.2264 142.264 72.4954 142.243 74.1806C142.241 74.2722 142.126 75.2025 142.032 75.8788C142.166 75.5051 142.31 75.1221 142.43 74.7615C142.886 73.4087 143.219 72.1419 143.506 71.0175C143.663 70.377 143.793 69.7947 143.909 69.2483C143.512 68.7178 141.939 66.558 141.656 65.2995C141.38 64.0715 141.369 62.4298 142.23 61.4129C143.074 60.4173 144.604 60.2237 145.548 61.2025C146.858 62.5609 146.194 65.8994 145.398 67.3852C145.328 67.5135 144.022 69.3979 144.001 69.3704L143.977 69.3384C143.876 69.8665 143.762 70.431 143.625 71.0456C143.362 72.1785 143.056 73.4558 142.628 74.8236C142.204 76.1919 141.705 77.6663 141.039 79.1719C140.374 80.6821 139.597 82.2364 138.589 83.7345C138.578 83.7515 138.564 83.7677 138.552 83.7846C138.983 83.438 140.22 82.5088 140.323 82.4486C141.776 81.595 145.086 80.7995 146.496 82.0556C147.51 82.9605 147.377 84.4972 146.415 85.3788C145.433 86.2788 143.792 86.333 142.554 86.1054C141.158 85.8488 138.632 84.0885 138.432 83.9479C137.459 85.3659 136.346 86.7417 135.142 88.0723C134.455 88.8339 133.739 89.5793 133.012 90.3178C133.394 90.03 133.738 89.7754 133.79 89.7453C135.243 88.8917 138.553 88.0964 139.962 89.3524C140.977 90.2572 140.844 91.7942 139.882 92.6754C138.899 93.5756 137.259 93.6298 136.021 93.4023C134.765 93.1712 132.581 91.7138 132.009 91.3205C131.727 91.6008 131.448 91.8841 131.165 92.1632C129.808 93.5034 128.447 94.8346 127.153 96.1816C126.696 96.6559 126.264 97.1399 125.83 97.6225C126.17 97.3675 126.458 97.1554 126.505 97.1276C127.959 96.274 131.268 95.4788 132.677 96.7344C133.692 97.6396 133.559 99.1764 132.597 100.058C131.615 100.958 129.974 101.012 128.736 100.784C127.537 100.564 125.51 99.237 124.827 98.7726C124.398 99.2802 123.966 99.7881 123.573 100.3C123.312 100.655 123.037 100.979 122.795 101.35C122.548 101.712 122.302 102.072 122.06 102.427C121.618 103.129 121.158 103.85 120.744 104.546C120.452 105.027 120.184 105.492 119.911 105.958C120.36 105.481 121.258 104.564 121.342 104.496C122.211 103.79 123.892 102.988 125.388 102.829C125.516 102.723 125.652 102.63 125.798 102.55C126.942 101.924 128.44 102.293 128.969 103.546C129.704 105.285 127.884 108.161 126.607 109.261C126.532 109.326 125.636 109.939 125.064 110.317C125.434 110.146 125.791 109.976 126.174 109.805C126.928 109.462 127.691 109.141 128.511 108.793C128.913 108.639 129.319 108.483 129.729 108.326C130.132 108.162 130.578 108.039 131.007 107.892C132.007 107.572 133.036 107.297 134.079 107.043C133.78 106.381 132.752 104.017 132.745 102.752C132.738 101.494 133.079 99.888 134.137 99.0788C135.174 98.2863 136.71 98.4241 137.423 99.5824C138.412 101.19 137.049 104.309 135.954 105.59C135.886 105.67 134.996 106.501 134.499 106.948C135.127 106.8 135.754 106.649 136.394 106.52C138.243 106.147 140.125 105.826 142.002 105.499C142.577 105.399 143.148 105.293 143.721 105.188C143.612 104.954 142.329 102.17 142.321 100.754C142.314 99.495 142.655 97.8895 143.714 97.0799C144.75 96.2877 146.286 96.4258 146.999 97.5839C147.989 99.1914 146.626 102.31 145.53 103.591C145.448 103.688 144.166 104.881 143.826 105.169C145.087 104.939 146.342 104.697 147.569 104.409C149.263 104.013 150.903 103.532 152.457 102.947C152.406 102.838 151.053 99.939 151.045 98.4883C151.038 97.2295 151.379 95.6241 152.438 94.8148C153.474 94.0222 155.01 94.1604 155.723 95.3186C156.713 96.9258 155.35 100.045 154.254 101.326C154.168 101.427 152.789 102.71 152.523 102.925C152.615 102.89 152.715 102.864 152.806 102.828C154.458 102.183 155.977 101.351 157.36 100.503C158.165 100.011 158.907 99.4962 159.618 98.9792C159.311 98.465 157.932 96.0996 157.781 94.795C157.636 93.5444 157.798 91.9112 158.762 90.9906C159.705 90.0892 161.247 90.0578 162.083 91.1303C163.243 92.6192 162.23 95.8694 161.282 97.2628C161.231 97.3388 160.622 98.0512 160.17 98.5636C160.488 98.3253 160.819 98.0854 161.119 97.851C162.244 96.9739 163.222 96.1014 164.081 95.3217C164.566 94.8742 164.995 94.46 165.393 94.0682C165.355 93.4065 165.234 90.7374 165.692 89.5317C166.14 88.3549 167.037 86.9806 168.316 86.6073C169.568 86.2417 170.951 86.9248 171.199 88.2615C171.542 90.1177 169.146 92.5355 167.663 93.3358C167.534 93.4045 165.405 94.2554 165.403 94.2211C165.403 94.2211 165.401 94.1887 165.4 94.1812C165.025 94.5658 164.618 94.9738 164.165 95.4105C163.321 96.2107 162.36 97.107 161.249 98.0119C160.141 98.919 158.911 99.8737 157.525 100.762C156.137 101.654 154.632 102.523 152.965 103.216C152.946 103.224 152.925 103.23 152.906 103.237C153.457 103.186 155.001 103.094 155.121 103.1C156.804 103.19 160.003 104.353 160.485 106.177C160.832 107.492 159.873 108.7 158.585 108.905C157.269 109.113 155.871 108.254 154.964 107.381Z" fill="black"/>
<path d="M142.126 76.3746C142.094 76.3628 143.496 74.5487 143.597 74.4444C144.774 73.2375 147.756 71.5965 149.447 72.4359C150.665 73.0403 150.942 74.558 150.247 75.662C149.537 76.7895 147.969 77.2752 146.715 77.3825C145.242 77.5088 142.128 76.3754 142.126 76.3746Z" fill="black"/>
</g>
<g opacity="0.2">
<path d="M12.4181 102.401C13.7159 101.693 15.6881 99.0302 15.6896 99.0282C15.71 99.0006 13.5396 98.2611 13.3973 98.2301C11.7505 97.872 8.35753 98.1487 7.41045 99.7813C6.7284 100.957 7.33427 102.376 8.52295 102.914C9.73724 103.463 11.3125 103.003 12.4181 102.401Z" fill="black"/>
<path d="M20.7002 107.381C21.7234 106.397 22.8588 103.535 22.9481 103.307C24.542 103.953 26.2297 104.487 27.9674 104.933C28.9606 105.189 29.969 105.415 30.9828 105.63C30.5055 105.601 30.0783 105.579 30.0181 105.582C28.3349 105.672 25.1358 106.835 24.6538 108.659C24.3059 109.974 25.2652 111.182 26.5537 111.387C27.8694 111.596 29.268 110.736 30.1748 109.863C31.0956 108.977 32.1122 106.557 32.373 105.913C32.7629 105.991 33.1511 106.074 33.5412 106.151C35.4129 106.519 37.2822 106.879 39.1049 107.289C39.7473 107.432 40.3746 107.598 41.0031 107.761C40.5789 107.735 40.2216 107.717 40.1666 107.72C38.4837 107.81 35.2844 108.973 34.8022 110.798C34.4546 112.112 35.4138 113.321 36.7021 113.525C38.0183 113.734 39.4164 112.874 40.3233 112.001C41.202 111.156 42.1605 108.931 42.4739 108.167C43.1123 108.353 43.7521 108.539 44.3623 108.749C44.7758 108.901 45.1845 109.019 45.5909 109.195C45.9973 109.361 46.3996 109.526 46.798 109.688C47.5536 110.03 48.3355 110.378 49.0643 110.73C49.5731 110.97 50.0534 111.209 50.5381 111.449C49.9003 111.298 48.6454 111.029 48.5379 111.019C46.861 110.852 43.5227 111.517 42.7692 113.248C42.2268 114.495 42.9916 115.834 44.2344 116.231C45.5033 116.637 47.0155 115.999 48.0445 115.274C49.1771 114.475 50.6838 111.93 50.87 111.611C51.6704 112.009 52.4453 112.405 53.1705 112.789C54.7735 113.635 56.183 114.428 57.3634 115.116L58.122 114.139C56.8829 113.45 55.3913 112.649 53.6821 111.795C52.8709 111.387 51.996 110.967 51.0933 110.544C51.1593 110.316 51.5267 109.017 51.7171 107.761C53.1356 107.639 55.6205 106.434 55.94 106.277C56.3882 107.051 56.816 107.808 57.2085 108.529C58.0335 110.036 58.7386 111.406 59.3255 112.588L60.1457 111.531C59.5829 110.469 58.9298 109.276 58.1841 107.982C57.7326 107.194 57.2344 106.361 56.7149 105.51C56.9912 105.276 59.2382 103.342 59.8269 102.085C60.3603 100.945 60.7233 99.3445 60.1014 98.1658C59.4927 97.0122 58.0394 96.4942 56.9068 97.2473C55.3351 98.292 55.2661 101.695 55.7241 103.317C55.7509 103.413 56.16 104.419 56.4286 105.049C56.2145 104.702 56.0103 104.364 55.7854 104.01C55.346 103.307 54.8862 102.619 54.3943 101.876C54.1443 101.526 53.8915 101.172 53.6367 100.815C53.391 100.456 53.0861 100.107 52.8099 99.748C52.1519 98.9292 51.4454 98.132 50.7158 97.3444C51.3301 96.9577 53.4924 95.5534 54.1957 94.5023C54.8958 93.4561 55.4971 91.9291 55.0606 90.6701C54.6337 89.4374 53.2756 88.705 52.0423 89.2774C50.3304 90.0724 49.7466 93.4262 49.9535 95.0989C49.9661 95.203 50.2497 96.3866 50.4178 97.0336C49.9755 96.5636 49.5364 96.0924 49.0736 95.6315C47.7377 94.3005 46.3437 92.9952 44.9593 91.6865C44.5347 91.2859 44.1168 90.8815 43.6968 90.4785C43.9171 90.3433 46.5229 88.7297 47.3109 87.5524C48.0112 86.5066 48.6124 84.9791 48.1759 83.7202C47.7489 82.4875 46.3909 81.7551 45.1576 82.3279C43.4457 83.1227 42.862 86.4762 43.0688 88.1488C43.0844 88.2747 43.4945 89.9772 43.6201 90.4051C42.6954 89.5169 41.7822 88.6235 40.9178 87.7059C39.7232 86.4418 38.6212 85.1351 37.6469 83.7905C37.7495 83.7278 40.477 82.0557 41.284 80.8504C41.9843 79.804 42.5855 78.2766 42.1491 77.0178C41.7221 75.7852 40.3643 75.0529 39.1308 75.6256C37.4186 76.4204 36.8352 79.7738 37.0419 81.4466C37.0583 81.5777 37.5005 83.4092 37.6043 83.7355C37.5467 83.6553 37.478 83.5787 37.4214 83.4981C36.3996 82.0494 35.5919 80.5175 34.9057 79.0464C34.5054 78.1923 34.1705 77.3534 33.8628 76.5302C34.403 76.2708 36.8573 75.0585 37.7034 74.0539C38.5144 73.0909 39.2798 71.6388 38.9843 70.3398C38.6952 69.0675 37.4259 68.1906 36.1372 68.6241C34.3482 69.2264 33.3998 72.4954 33.4216 74.1806C33.4229 74.2722 33.5382 75.2025 33.6318 75.8788C33.4984 75.5051 33.3541 75.1221 33.2339 74.7615C32.7784 73.4087 32.4449 72.1419 32.1585 71.0175C32.001 70.377 31.8709 69.7947 31.7553 69.2483C32.1523 68.7178 33.7257 66.558 34.0086 65.2995C34.2841 64.0715 34.2948 62.4298 33.4339 61.4129C32.5906 60.4173 31.06 60.2237 30.1165 61.2025C28.8061 62.5609 29.4706 65.8994 30.2666 67.3852C30.3357 67.5135 31.6422 69.3979 31.6631 69.3704L31.6873 69.3384C31.7879 69.8665 31.9023 70.431 32.0395 71.0456C32.3019 72.1785 32.6086 73.4558 33.0365 74.8236C33.4603 76.1919 33.9593 77.6663 34.6248 79.1719C35.2902 80.6821 36.0674 82.2364 37.075 83.7345C37.0862 83.7515 37.1005 83.7677 37.1118 83.7846C36.681 83.438 35.444 82.5088 35.341 82.4486C33.8877 81.595 30.5779 80.7995 29.1686 82.0556C28.1538 82.9605 28.287 84.4972 29.2489 85.3788C30.2316 86.2788 31.8717 86.333 33.11 86.1054C34.5063 85.8488 37.0317 84.0885 37.2324 83.9479C38.205 85.3659 39.3186 86.7417 40.5217 88.0723C41.2091 88.8339 41.9249 89.5793 42.6522 90.3178C42.27 90.03 41.9262 89.7754 41.8742 89.7453C40.4207 88.8917 37.1114 88.0964 35.7022 89.3524C34.687 90.2572 34.8205 91.7942 35.7824 92.6754C36.7648 93.5756 38.4051 93.6298 39.6431 93.4023C40.8995 93.1712 43.0829 91.7138 43.6554 91.3205C43.9373 91.6008 44.2159 91.8841 44.4989 92.1632C45.8565 93.5034 47.2172 94.8346 48.5116 96.1816C48.9683 96.6559 49.4002 97.1399 49.834 97.6225C49.4946 97.3675 49.2062 97.1554 49.1591 97.1276C47.7056 96.274 44.3961 95.4788 42.9871 96.7344C41.972 97.6396 42.1051 99.1764 43.0673 100.058C44.0493 100.958 45.6901 101.012 46.9282 100.784C48.1268 100.564 50.1544 99.237 50.837 98.7726C51.2666 99.2802 51.6977 99.7881 52.0913 100.3C52.3519 100.655 52.6274 100.979 52.8695 101.35C53.1166 101.712 53.3618 102.072 53.6044 102.427C54.046 103.129 54.5064 103.85 54.9203 104.546C55.2118 105.027 55.4805 105.492 55.7527 105.958C55.3039 105.481 54.4057 104.564 54.322 104.496C53.4533 103.79 51.7717 102.988 50.2757 102.829C50.148 102.723 50.012 102.63 49.8666 102.55C48.722 101.924 47.2243 102.293 46.695 103.546C45.9604 105.285 47.7805 108.161 49.0572 109.261C49.1325 109.326 50.0283 109.939 50.6 110.317C50.23 110.146 49.8732 109.976 49.4905 109.805C48.736 109.462 47.9728 109.141 47.1531 108.793C46.7513 108.639 46.3455 108.483 45.9355 108.326C45.5326 108.162 45.0859 108.039 44.6575 107.892C43.6572 107.572 42.6277 107.297 41.5848 107.043C41.8841 106.381 42.9126 104.017 42.9194 102.752C42.9265 101.494 42.5851 99.888 41.527 99.0788C40.4905 98.2863 38.9543 98.4241 38.2413 99.5824C37.2518 101.19 38.6149 104.309 39.7101 105.59C39.7784 105.67 40.6677 106.501 41.165 106.948C40.5369 106.8 39.9105 106.649 39.2702 106.52C37.4216 106.147 35.539 105.826 33.6622 105.499C33.0872 105.399 32.5157 105.293 31.943 105.188C32.0519 104.954 33.3352 102.17 33.3431 100.754C33.3501 99.495 33.009 97.8895 31.9505 97.0799C30.9142 96.2877 29.3777 96.4258 28.6651 97.5839C27.6756 99.1914 29.0386 102.31 30.1339 103.591C30.2165 103.688 31.4977 104.881 31.8383 105.169C30.5773 104.939 29.3226 104.697 28.0953 104.409C26.4016 104.013 24.7617 103.532 23.2074 102.947C23.2584 102.838 24.6107 99.939 24.6188 98.4883C24.6259 97.2295 24.2848 95.6241 23.2262 94.8148C22.19 94.0222 20.6537 94.1604 19.9407 95.3186C18.9512 96.9258 20.3144 100.045 21.4097 101.326C21.4958 101.427 22.875 102.71 23.1414 102.925C23.0491 102.89 22.9496 102.864 22.8579 102.828C21.2064 102.183 19.6876 101.351 18.3037 100.503C17.4988 100.011 16.7569 99.4962 16.0462 98.9792C16.3534 98.465 17.7318 96.0996 17.8832 94.795C18.0282 93.5444 17.8657 91.9112 16.9026 90.9906C15.9595 90.0892 14.417 90.0578 13.5816 91.1303C12.4214 92.6192 13.434 95.8694 14.3818 97.2628C14.4333 97.3388 15.0425 98.0512 15.4939 98.5636C15.1767 98.3253 14.8447 98.0854 14.5455 97.851C13.4197 96.9739 12.4423 96.1014 11.5833 95.3217C11.0983 94.8742 10.6687 94.46 10.2712 94.0682C10.3091 93.4065 10.4301 90.7374 9.97184 89.5317C9.52428 88.3549 8.6275 86.9806 7.34837 86.6073C6.09592 86.2417 4.71272 86.9248 4.46531 88.2615C4.122 90.1177 6.51816 92.5355 8.00146 93.3358C8.12978 93.4045 10.2589 94.2554 10.2616 94.2211C10.2616 94.2211 10.2634 94.1887 10.2637 94.1812C10.6389 94.5658 11.046 94.9738 11.4994 95.4105C12.3431 96.2107 13.3037 97.107 14.4152 98.0119C15.5235 98.919 16.7532 99.8737 18.1391 100.762C19.527 101.654 21.0325 102.523 22.6995 103.216C22.7184 103.224 22.7391 103.23 22.758 103.237C22.2073 103.186 20.6631 103.094 20.5436 103.1C18.8606 103.19 15.6613 104.353 15.1789 106.177C14.8317 107.492 15.7907 108.7 17.0792 108.905C18.3954 109.113 19.7932 108.254 20.7002 107.381Z" fill="black"/>
<path d="M33.5384 76.3746C33.5707 76.3628 32.1683 74.5487 32.0669 74.4444C30.8905 73.2375 27.908 71.5965 26.2173 72.4359C24.9994 73.0403 24.7223 74.558 25.4176 75.662C26.1273 76.7895 27.695 77.2752 28.9493 77.3825C30.422 77.5088 33.5358 76.3754 33.5384 76.3746Z" fill="black"/>
</g>
<path d="M133.829 7.94629H38.0408C35.9655 7.94629 34.2832 9.62863 34.2832 11.7039V140.936C34.2832 143.011 35.9655 144.693 38.0408 144.693H133.829C135.904 144.693 137.587 143.011 137.587 140.936V11.7039C137.587 9.62863 135.904 7.94629 133.829 7.94629Z" fill="#263238"/>
<path d="M131.1 16.5332H40.7701V136.106H131.1V16.5332Z" fill="white" stroke="#263238" stroke-width="0.844037" stroke-linecap="round" stroke-linejoin="round"/>
<path d="M128.199 90.6289H44.0742V94.5045H128.199V90.6289Z" fill="#C2C2C2"/>
<path d="M44.0742 94.5049H127.863" stroke="#263238" stroke-width="0.844037" stroke-linecap="round" stroke-linejoin="round"/>
<path d="M44.2595 90.5977H128.017" stroke="#263238" stroke-width="0.844037" stroke-linecap="round" stroke-linejoin="round"/>
<path d="M128.017 84.3574H44.2595" stroke="#263238" stroke-width="0.844037" stroke-linecap="round" stroke-linejoin="round"/>
<path d="M128.017 100.309H44.2595" stroke="#263238" stroke-width="0.844037" stroke-linecap="round" stroke-linejoin="round"/>
<path d="M128.017 107.785H44.2595" stroke="#263238" stroke-width="0.844037" stroke-linecap="round" stroke-linejoin="round"/>
<path d="M128.199 55.6182H44.0742V59.4938H128.199V55.6182Z" fill="#C2C2C2"/>
<path d="M128.199 34.0303H44.0742V37.9059H128.199V34.0303Z" fill="#C2C2C2"/>
<path d="M128.089 34.0303H44.0742V115.88H128.089V34.0303Z" stroke="#263238" stroke-width="0.844037" stroke-linecap="round" stroke-linejoin="round"/>
<path d="M44.0742 37.9053H127.863" stroke="#263238" stroke-width="0.844037" stroke-linecap="round" stroke-linejoin="round"/>
<path d="M44.0742 59.4941H127.863" stroke="#263238" stroke-width="0.844037" stroke-linecap="round" stroke-linejoin="round"/>
<path d="M44.2595 44.457H128.017" stroke="#263238" stroke-width="0.844037" stroke-linecap="round" stroke-linejoin="round"/>
<path d="M84.358 44.3026V38.0664" stroke="#263238" stroke-width="0.844037" stroke-linecap="round" stroke-linejoin="round"/>
<path d="M44.2595 50.4502H128.017" stroke="#263238" stroke-width="0.844037" stroke-linecap="round" stroke-linejoin="round"/>
<path d="M44.2595 55.5869H128.017" stroke="#263238" stroke-width="0.844037" stroke-linecap="round" stroke-linejoin="round"/>
<path d="M67.6534 50.2958V44.5693" stroke="#263238" stroke-width="0.844037" stroke-linecap="round" stroke-linejoin="round"/>
<path d="M72.1165 50.2958V44.5693" stroke="#263238" stroke-width="0.844037" stroke-linecap="round" stroke-linejoin="round"/>
<path d="M76.5795 50.2958V44.5693" stroke="#263238" stroke-width="0.844037" stroke-linecap="round" stroke-linejoin="round"/>
<path d="M120.7 50.2958V44.5693" stroke="#263238" stroke-width="0.844037" stroke-linecap="round" stroke-linejoin="round"/>
<path d="M108.055 44.3026V38.0664" stroke="#263238" stroke-width="0.844037" stroke-linecap="round" stroke-linejoin="round"/>
<path d="M128.017 65.9453H44.2595" stroke="#263238" stroke-width="0.844037" stroke-linecap="round" stroke-linejoin="round"/>
<path d="M87.9189 65.789V59.5527" stroke="#263238" stroke-width="0.844037" stroke-linecap="round" stroke-linejoin="round"/>
<path d="M94.6659 90.4062V84.1699" stroke="#263238" stroke-width="0.844037" stroke-linecap="round" stroke-linejoin="round"/>
<path d="M128.017 71.9385H44.2595" stroke="#263238" stroke-width="0.844037" stroke-linecap="round" stroke-linejoin="round"/>
<path d="M128.017 78.1475H44.2595" stroke="#263238" stroke-width="0.844037" stroke-linecap="round" stroke-linejoin="round"/>
<path d="M104.624 71.7821V66.0557" stroke="#263238" stroke-width="0.844037" stroke-linecap="round" stroke-linejoin="round"/>
<path d="M100.16 71.7821V66.0557" stroke="#263238" stroke-width="0.844037" stroke-linecap="round" stroke-linejoin="round"/>
<path d="M95.6974 71.7821V66.0557" stroke="#263238" stroke-width="0.844037" stroke-linecap="round" stroke-linejoin="round"/>
<path d="M51.5768 71.7821V66.0557" stroke="#263238" stroke-width="0.844037" stroke-linecap="round" stroke-linejoin="round"/>
<path d="M87.267 84.3199V78.0195" stroke="#263238" stroke-width="0.844037" stroke-linecap="round" stroke-linejoin="round"/>
<path d="M82.804 84.3199V78.0195" stroke="#263238" stroke-width="0.844037" stroke-linecap="round" stroke-linejoin="round"/>
<path d="M78.3409 84.3199V78.0195" stroke="#263238" stroke-width="0.844037" stroke-linecap="round" stroke-linejoin="round"/>
<path d="M49.4309 84.3199V78.0195" stroke="#263238" stroke-width="0.844037" stroke-linecap="round" stroke-linejoin="round"/>
<path d="M64.2224 65.789V59.5527" stroke="#263238" stroke-width="0.844037" stroke-linecap="round" stroke-linejoin="round"/>
<path d="M131.1 16.5332H40.7701V29.7885H131.1V16.5332Z" fill="#92E3A9" stroke="#263238" stroke-width="0.844037" stroke-linecap="round" stroke-linejoin="round"/>
<path opacity="0.2" d="M34.2832 28.9097V67.169L93.5059 7.94629H55.2466L34.2832 28.9097Z" fill="white"/>
<path opacity="0.2" d="M137.587 12.4832V11.2843C137.587 9.44077 136.092 7.94629 134.249 7.94629H132.364L34.2832 106.027V115.787L137.587 12.4832Z" fill="white"/>
<path opacity="0.2" d="M137.587 137.691V99.4316L92.3251 144.693H130.584L137.587 137.691Z" fill="white"/>
<path d="M60.2014 25.1069V20.3256H59.3316V19.4697H62.2129V20.3256H61.3569V25.1069H60.2014Z" fill="#263238"/>
<path d="M62.7208 25.1069V19.4697H64.1822C64.5626 19.4697 64.8886 19.5127 65.1601 19.5984C65.4316 19.6843 65.6402 19.8363 65.7865 20.0543C65.9326 20.2724 66.0057 20.5739 66.0057 20.959C66.0057 21.1912 65.9859 21.3964 65.9466 21.5749C65.907 21.7536 65.8375 21.909 65.7378 22.0412C65.6379 22.1735 65.4975 22.279 65.3166 22.3579L66.0961 25.1069H64.92L64.2728 22.5528H63.869V25.1069H62.7208ZM63.869 21.8707H64.2031C64.3887 21.8707 64.5348 21.8405 64.6417 21.7801C64.7482 21.72 64.8237 21.6283 64.8677 21.5052C64.9117 21.3825 64.9339 21.2305 64.9339 21.0496C64.9339 20.7897 64.8862 20.5914 64.7912 20.4544C64.6961 20.3177 64.5186 20.249 64.2588 20.249H63.869V21.8707Z" fill="#263238"/>
<path d="M66.4997 25.1069L67.5924 19.4697H68.866L69.9516 25.1069H68.8868L68.685 23.8681H67.7941L67.5785 25.1069H66.4997ZM67.8985 23.1652H68.5736L68.2326 20.8894L67.8985 23.1652Z" fill="#263238"/>
<path d="M71.1138 25.1069L70.042 19.4697H71.0373L71.7054 23.367L72.3318 19.4697H73.3687L72.2969 25.1069H71.1138Z" fill="#263238"/>
<path d="M73.9465 25.1069V19.4697H76.4032V20.2631H75.0947V21.7593H76.1038V22.5596H75.0947V24.3274H76.417V25.1069H73.9465Z" fill="#263238"/>
<path d="M76.9947 25.1069V19.4697H78.1429V24.3274H79.4652V25.1069H76.9947Z" fill="#263238"/>
<path d="M81.7203 25.1069V19.4697H82.8617V25.1069H81.7203Z" fill="#263238"/>
<path d="M83.7242 25.1069V19.4697H84.5245L85.7773 22.4066V19.4697H86.7239V25.1069H85.9584L84.7056 21.9889V25.1069H83.7242Z" fill="#263238"/>
<path d="M89.0415 25.1819C88.6936 25.1819 88.4036 25.1181 88.1714 24.9905C87.9396 24.8629 87.7646 24.6703 87.646 24.4128C87.5278 24.1553 87.4591 23.8272 87.4408 23.4281L88.4291 23.261C88.4384 23.4931 88.4625 23.6867 88.502 23.8421C88.5416 23.9977 88.6019 24.1136 88.6832 24.1902C88.7644 24.2667 88.865 24.305 88.9858 24.305C89.1342 24.305 89.2352 24.2586 89.2887 24.1657C89.3419 24.073 89.3685 23.9663 89.3685 23.8457C89.3685 23.6091 89.3117 23.4107 89.1981 23.2506C89.0842 23.0905 88.9347 22.9293 88.7493 22.7669L88.1646 22.2589C87.9558 22.0826 87.7855 21.883 87.6532 21.6603C87.5209 21.4377 87.4548 21.1638 87.4548 20.8392C87.4548 20.3752 87.5903 20.0191 87.862 19.7707C88.1333 19.5226 88.5056 19.3984 88.9789 19.3984C89.2618 19.3984 89.4939 19.445 89.6747 19.5377C89.8558 19.6306 89.996 19.7546 90.0959 19.91C90.1954 20.0654 90.2651 20.2349 90.3047 20.418C90.3442 20.6014 90.3683 20.7834 90.3776 20.9644L89.3965 21.1105C89.3872 20.9389 89.3721 20.7881 89.3513 20.6582C89.3304 20.5283 89.2887 20.4262 89.2258 20.3519C89.1633 20.2778 89.0695 20.2406 88.9441 20.2406C88.8093 20.2406 88.7098 20.2904 88.6447 20.3901C88.5797 20.49 88.5473 20.6002 88.5473 20.7207C88.5473 20.9204 88.5926 21.0839 88.6832 21.2115C88.7737 21.3391 88.8977 21.4724 89.0555 21.6116L89.6262 22.1126C89.8626 22.3169 90.0657 22.5501 90.2349 22.8121C90.4042 23.0743 90.489 23.3979 90.489 23.783C90.489 24.0475 90.4287 24.2865 90.3083 24.4998C90.1875 24.7132 90.0193 24.8804 89.8037 25.0009C89.5877 25.1215 89.3336 25.1819 89.0415 25.1819Z" fill="#263238"/>
<path d="M92.6812 25.1834C92.2542 25.1834 91.9226 25.1103 91.6857 24.9642C91.4492 24.8181 91.2832 24.607 91.1883 24.3308C91.0931 24.0548 91.0457 23.7197 91.0457 23.3253V19.4697H92.1799V23.4854C92.1799 23.6245 92.1903 23.7614 92.2115 23.896C92.2323 24.0306 92.2787 24.1395 92.3505 24.223C92.4225 24.3066 92.5324 24.3483 92.6812 24.3483C92.8343 24.3483 92.9468 24.3066 93.0187 24.223C93.0905 24.1395 93.1358 24.0306 93.1545 23.896C93.1728 23.7614 93.1822 23.6245 93.1822 23.4854V19.4697H94.3167V23.3253C94.3167 23.7197 94.2689 24.0548 94.174 24.3308C94.0788 24.607 93.9128 24.8181 93.6763 24.9642C93.4398 25.1103 93.1078 25.1834 92.6812 25.1834Z" fill="#263238"/>
<path d="M95.1167 25.1069V19.4697H96.5783C96.9588 19.4697 97.2848 19.5127 97.5561 19.5984C97.8275 19.6843 98.0362 19.8363 98.1825 20.0543C98.3288 20.2724 98.4017 20.5739 98.4017 20.959C98.4017 21.1912 98.382 21.3964 98.3424 21.5749C98.3029 21.7536 98.2336 21.909 98.1336 22.0412C98.0341 22.1735 97.8936 22.279 97.7128 22.3579L98.4923 25.1069H97.3161L96.6688 22.5528H96.2652V25.1069H95.1167ZM96.2652 21.8707H96.5991C96.7845 21.8707 96.9308 21.8405 97.0376 21.7801C97.1443 21.72 97.2197 21.6283 97.2639 21.5052C97.3078 21.3825 97.3301 21.2305 97.3301 21.0496C97.3301 20.7897 97.2823 20.5914 97.1874 20.4544C97.0922 20.3177 96.9146 20.249 96.6548 20.249H96.2652V21.8707Z" fill="#263238"/>
<path d="M98.8959 25.1069L99.9884 19.4697H101.262L102.348 25.1069H101.283L101.081 23.8681H100.19L99.9744 25.1069H98.8959ZM100.295 23.1652H100.97L100.629 20.8894L100.295 23.1652Z" fill="#263238"/>
<path d="M102.877 25.1069V19.4697H103.677L104.93 22.4066V19.4697H105.876V25.1069H105.111L103.858 21.9889V25.1069H102.877Z" fill="#263238"/>
<path d="M108.298 25.1819C107.881 25.1819 107.55 25.103 107.306 24.9452C107.063 24.7876 106.892 24.5684 106.795 24.2875C106.697 24.0069 106.649 23.6809 106.649 23.3097V21.2844C106.649 20.8947 106.697 20.5596 106.795 20.2789C106.892 19.9982 107.063 19.7812 107.306 19.6281C107.55 19.475 107.881 19.3984 108.298 19.3984C108.702 19.3984 109.018 19.4658 109.248 19.6002C109.478 19.735 109.64 19.9251 109.735 20.1709C109.83 20.4169 109.878 20.7022 109.878 21.0269V21.5002H108.764V20.9714C108.764 20.8415 108.757 20.7197 108.743 20.6059C108.729 20.4924 108.691 20.3995 108.628 20.3276C108.566 20.2557 108.458 20.2198 108.305 20.2198C108.152 20.2198 108.041 20.2568 107.971 20.331C107.901 20.4054 107.857 20.5015 107.839 20.6199C107.82 20.7382 107.811 20.8693 107.811 21.0131V23.5742C107.811 23.732 107.823 23.87 107.849 23.9884C107.874 24.1066 107.923 24.1972 107.995 24.2597C108.067 24.3224 108.17 24.3537 108.305 24.3537C108.453 24.3537 108.559 24.3178 108.622 24.2458C108.684 24.174 108.724 24.0777 108.74 23.9569C108.756 23.8363 108.764 23.7088 108.764 23.5742V23.0243H109.878V23.4906C109.878 23.8202 109.831 24.1113 109.739 24.3641C109.646 24.6171 109.486 24.8165 109.258 24.9626C109.031 25.1087 108.711 25.1819 108.298 25.1819Z" fill="#263238"/>
<path d="M110.581 25.1069V19.4697H113.037V20.2631H111.729V21.7593H112.738V22.5596H111.729V24.3274H113.051V25.1069H110.581Z" fill="#263238"/>
<path d="M142.145 161.72C141.649 160.989 140.654 160.797 139.922 161.293C139.191 161.789 139 162.785 139.496 163.516C139.992 164.248 140.987 164.439 141.718 163.943C142.45 163.447 142.641 162.452 142.145 161.72Z" fill="#263238" stroke="#263238" stroke-width="0.844037" stroke-linecap="round" stroke-linejoin="round"/>
<path d="M139.724 159.8L140.591 163.181L141.268 163.129L141.616 159.738L139.724 159.8Z" fill="white" stroke="#263238" stroke-width="0.844037" stroke-linecap="round" stroke-linejoin="round"/>
<path d="M132.728 161.72C132.232 160.989 131.237 160.797 130.505 161.293C129.774 161.789 129.583 162.785 130.079 163.516C130.575 164.248 131.57 164.439 132.302 163.943C133.033 163.447 133.224 162.452 132.728 161.72Z" fill="#263238" stroke="#263238" stroke-width="0.844037" stroke-linecap="round" stroke-linejoin="round"/>
<path d="M130.307 159.8L131.174 163.181L131.851 163.129L132.199 159.738L130.307 159.8Z" fill="white" stroke="#263238" stroke-width="0.844037" stroke-linecap="round" stroke-linejoin="round"/>
<path d="M142.356 122.287L142.327 161.088" stroke="#263238" stroke-width="1.68807" stroke-linecap="round" stroke-linejoin="round"/>
<path d="M142.402 115.627L142.356 122.287" stroke="#263238" stroke-width="3.37615" stroke-linecap="round" stroke-linejoin="round"/>
<path d="M139.893 136.66L130.819 136.568C130.114 136.56 129.538 137.126 129.53 137.83L129.308 159.793C129.3 160.497 129.865 161.074 130.57 161.081L139.644 161.173C140.348 161.18 140.925 160.615 140.932 159.911L141.155 137.948C141.162 137.244 140.597 136.667 139.893 136.66Z" fill="#263238" stroke="#263238" stroke-width="0.844037" stroke-linecap="round" stroke-linejoin="round"/>
<path d="M127.961 159.849L130.57 159.902L130.762 140.948L127.575 140.89C126.666 140.88 125.922 141.61 125.913 142.519L125.76 157.603C125.747 158.831 126.733 159.837 127.961 159.849Z" fill="#263238" stroke="#263238" stroke-width="0.844037" stroke-linecap="round" stroke-linejoin="round"/>
<path d="M129.14 159.861L131.749 159.913L131.942 140.96L128.755 140.901C127.846 140.892 127.102 141.621 127.092 142.53L126.939 157.614C126.927 158.843 127.912 159.848 129.14 159.861Z" fill="#92E3A9" stroke="#263238" stroke-width="0.844037" stroke-linecap="round" stroke-linejoin="round"/>
<path d="M141.241 136.674L132.166 136.582C131.462 136.575 130.885 137.14 130.878 137.844L130.655 159.807C130.648 160.511 131.213 161.088 131.917 161.095L140.992 161.187C141.696 161.195 142.273 160.629 142.28 159.925L142.503 137.962C142.51 137.258 141.945 136.682 141.241 136.674Z" fill="#92E3A9" stroke="#263238" stroke-width="0.844037" stroke-linecap="round" stroke-linejoin="round"/>
<path d="M135.454 136.614L135.043 145.707C135.029 146.024 135.274 146.292 135.59 146.307L136.994 146.37C137.31 146.384 137.579 146.139 137.593 145.822L138.008 136.64L135.454 136.614Z" fill="#263238"/>
<path d="M133.3 149.405L139.621 149.573C140.237 149.589 140.723 150.102 140.707 150.718L140.528 157.419C140.512 158.034 139.999 158.521 139.384 158.505L133.062 158.336C132.447 158.32 131.96 157.807 131.977 157.192L132.155 150.49C132.171 149.875 132.684 149.388 133.3 149.405Z" fill="#263238" stroke="#263238" stroke-width="0.844037" stroke-linecap="round" stroke-linejoin="round"/>
<path d="M134.038 149.547L140.36 149.715C140.975 149.732 141.462 150.245 141.445 150.86L141.267 157.562C141.251 158.177 140.738 158.663 140.122 158.647L133.801 158.479C133.185 158.463 132.699 157.95 132.715 157.334L132.894 150.633C132.91 150.017 133.423 149.531 134.038 149.547Z" fill="#92E3A9" stroke="#263238" stroke-width="0.844037" stroke-linecap="round" stroke-linejoin="round"/>
<path d="M107.946 82.1151C107.946 82.1151 107.587 84.94 107.722 85.3435C107.856 85.7471 108.663 87.3612 108.708 87.4958C108.753 87.6303 107.766 88.4822 107.946 88.8858C108.125 89.2893 109.112 89.7825 109.112 89.7825C109.112 89.7825 111.533 92.5625 111.847 92.5177C112.161 92.4728 113.326 91.8451 113.326 91.8451L113.999 93.4145L120.68 90.5896L118.662 87.2716C118.662 87.2716 116.555 81.9358 114.582 80.2319C112.609 78.528 108.753 80.1871 107.946 82.1151Z" fill="white" stroke="#263238" stroke-width="0.844037" stroke-linecap="round" stroke-linejoin="round"/>
<path d="M111.847 92.5186L113.54 90.6982L113.326 91.846L111.847 92.5186Z" fill="#263238" stroke="#263238" stroke-width="0.844037" stroke-linecap="round" stroke-linejoin="round"/>
<path d="M109.739 89.6033C109.739 89.6033 110.412 89.2894 110.143 88.4375" stroke="#263238" stroke-width="0.844037" stroke-linecap="round" stroke-linejoin="round"/>
<path d="M108.17 85.5665C108.17 85.5665 108.17 84.9835 108.843 85.2526" stroke="#263238" stroke-width="0.844037" stroke-linecap="round" stroke-linejoin="round"/>
<path d="M108.843 86.8682L109.381 87.8098" stroke="#263238" stroke-width="0.844037" stroke-linecap="round" stroke-linejoin="round"/>
<path d="M116.465 77.3626C114.896 76.3761 112.564 76.6003 111.443 77.3626C110.394 78.0757 108.601 79.887 108.374 80.1177C108.375 80.1149 108.376 80.1104 108.377 80.1071C108.367 80.1182 108.359 80.1323 108.349 80.1426C108.349 80.1426 107.721 81.7046 107.946 82.1155C108.394 82.0706 109.829 81.1738 109.739 81.7119C109.65 82.25 109.067 83.1916 109.425 83.3709C109.784 83.5503 110.655 84.3486 110.655 84.3486C110.655 84.3486 110.815 85.2093 111.354 85.1197C111.892 85.03 112.295 84.178 112.699 84.7161C113.102 85.2542 115.882 87.9893 116.062 87.9893C116.241 87.9893 118.662 87.2719 118.662 87.2719C118.662 87.2719 118.842 84.4919 118.976 82.6535C119.111 80.8151 118.034 78.349 116.465 77.3626Z" fill="#263238" stroke="#263238" stroke-width="0.844037" stroke-linecap="round" stroke-linejoin="round"/>
<path d="M111.623 85.9727C111.623 85.9727 111.264 83.4169 112.161 83.8653C113.057 84.3137 113.775 86.6901 113.551 87.2282C113.326 87.7663 112.788 87.4076 112.788 87.4076" fill="white"/>
<path d="M111.623 85.9727C111.623 85.9727 111.264 83.4169 112.161 83.8653C113.057 84.3137 113.775 86.6901 113.551 87.2282C113.326 87.7663 112.788 87.4076 112.788 87.4076" stroke="#263238" stroke-width="0.844037" stroke-linecap="round" stroke-linejoin="round"/>
<path d="M113.157 93.2098L112.174 95.9953C112.174 95.9953 115.178 94.3567 118.073 93.3736C120.968 92.3905 122.88 92.1174 122.88 92.1174L121.405 89.9326C121.405 89.9326 115.342 90.5334 113.157 93.2098Z" fill="#92E3A9" stroke="#263238" stroke-width="0.844037" stroke-linecap="round" stroke-linejoin="round"/>
<path d="M97.7654 99.7298L103.958 110.121C104.004 110.199 104.096 110.237 104.184 110.216L109.997 108.788C110.13 108.755 110.194 108.604 110.126 108.485L104.755 99.1645C104.716 99.0974 104.643 99.0577 104.565 99.0618L97.931 99.4191C97.7765 99.4274 97.6861 99.5969 97.7654 99.7298Z" fill="#263238" stroke="#263238" stroke-width="0.844037" stroke-linecap="round" stroke-linejoin="round"/>
<path d="M98.451 100.141L104.024 109.492L109.408 108.17L104.591 99.8105L98.451 100.141Z" fill="#878787" stroke="#263238" stroke-width="0.844037" stroke-linecap="round" stroke-linejoin="round"/>
<path d="M108.624 101.84C108.624 101.84 106.986 102.714 106.385 102.987C105.784 103.26 105.456 103.478 105.839 103.806C106.221 104.134 107.532 103.369 107.532 103.369L108.569 102.932L108.624 101.84Z" fill="white" stroke="#263238" stroke-width="0.844037" stroke-linecap="round" stroke-linejoin="round"/>
<path d="M121.948 160.576L122.318 163.416C122.318 163.416 121.948 164.034 120.775 164.157C119.602 164.281 118.737 164.466 118.737 164.466L119.06 161.704L121.948 160.576Z" fill="white" stroke="#263238" stroke-width="0.844037" stroke-linecap="round" stroke-linejoin="round"/>
<path d="M122.318 163.415L122.265 163.004C121.16 163.434 119.824 163.572 118.837 163.609L118.737 164.465C118.737 164.465 119.602 164.28 120.775 164.156C121.948 164.033 122.318 163.415 122.318 163.415Z" fill="white" stroke="#263238" stroke-width="0.844037" stroke-linecap="round" stroke-linejoin="round"/>
<path d="M113.551 159.403L110.341 161.379C110.341 161.379 108.921 161.749 108.118 161.811C107.316 161.873 107.316 162.737 107.686 163.046C108.057 163.355 109.285 163.878 110.835 164.219C113.922 164.898 118.367 164.651 118.737 164.466C119.108 164.281 119.417 163.972 119.478 163.725C119.54 163.478 119.478 161.07 119.478 161.07C119.478 161.07 114.786 160.515 113.551 159.403Z" fill="white" stroke="#263238" stroke-width="0.844037" stroke-linecap="round" stroke-linejoin="round"/>
<path d="M110.403 163.415C108.593 162.866 107.849 162.418 107.551 162.116C107.363 162.413 107.446 162.845 107.686 163.045C108.056 163.354 109.284 163.877 110.835 164.218C113.922 164.897 118.367 164.65 118.737 164.465C119.084 164.292 119.374 164.011 119.461 163.773C117.396 163.95 112.986 164.2 110.403 163.415Z" fill="white" stroke="#263238" stroke-width="0.844037" stroke-linecap="round" stroke-linejoin="round"/>
<path d="M123.626 120.268C123.626 120.268 123.626 123.312 122.611 124.947C121.597 126.582 120.187 128.048 120.187 128.273C120.187 128.499 118.834 139.041 118.834 139.605C118.834 140.168 118.778 141.803 119.116 142.649C119.454 143.495 120.751 148.85 121.54 153.642C122.33 158.434 121.991 159.618 121.991 159.618C121.991 159.618 122.33 160.464 122.33 160.689C122.33 160.915 122.16 161.535 122.16 161.535C122.16 161.535 121.258 161.817 120.413 161.817C119.567 161.817 119.06 161.704 119.06 161.704C119.06 161.704 119.003 160.802 119.172 160.351C119.342 159.9 119.229 158.66 119.229 158.378C119.229 158.096 117.087 143.495 117.087 142.367C117.087 141.24 117.03 129.288 117.03 129.288L116.523 121C116.523 121 119.454 120.888 123.626 120.268Z" fill="#92E3A9" stroke="#263238" stroke-width="0.844037" stroke-linecap="round" stroke-linejoin="round"/>
<path d="M119.623 126.638C119.623 126.638 118.27 129.119 118.158 129.344C118.045 129.57 118.045 131.543 118.045 131.994C118.045 132.445 117.763 141.014 117.819 142.198C117.876 143.382 118.778 147.047 119.06 149.245C119.342 151.444 119.849 157.871 119.905 158.04C119.962 158.209 120.187 158.998 120.074 159.506C119.962 160.013 119.68 160.577 119.68 160.577C119.68 160.577 119.849 161.535 119.736 161.817C119.623 162.099 118.101 162.381 115.959 161.761C113.817 161.141 112.915 159.788 112.915 159.788C112.915 159.788 113.027 159.506 113.027 158.942C113.027 158.378 113.591 158.265 113.591 158.265L112.52 150.711C112.52 150.711 111.505 148.343 111.449 147.949C111.393 147.554 111.674 146.596 111.618 146.201C111.562 145.806 110.885 144.961 110.829 144.566C110.772 144.171 108.912 137.857 108.799 132.276C108.686 126.695 108.897 121.503 108.897 121.503C108.897 121.503 110.321 122.241 114.719 121.959C119.116 121.677 120.864 121.621 122.95 120.719" fill="#92E3A9"/>
<path d="M119.623 126.638C119.623 126.638 118.27 129.119 118.158 129.344C118.045 129.57 118.045 131.543 118.045 131.994C118.045 132.445 117.763 141.014 117.819 142.198C117.876 143.382 118.778 147.047 119.06 149.245C119.342 151.444 119.849 157.871 119.905 158.04C119.962 158.209 120.187 158.998 120.074 159.506C119.962 160.013 119.68 160.577 119.68 160.577C119.68 160.577 119.849 161.535 119.736 161.817C119.623 162.099 118.101 162.381 115.959 161.761C113.817 161.141 112.915 159.788 112.915 159.788C112.915 159.788 113.027 159.506 113.027 158.942C113.027 158.378 113.591 158.265 113.591 158.265L112.52 150.711C112.52 150.711 111.505 148.343 111.449 147.949C111.393 147.554 111.674 146.596 111.618 146.201C111.562 145.806 110.885 144.961 110.829 144.566C110.772 144.171 108.912 137.857 108.799 132.276C108.686 126.695 108.897 121.503 108.897 121.503C108.897 121.503 110.321 122.241 114.719 121.959C119.116 121.677 120.864 121.621 122.95 120.719" stroke="#263238" stroke-width="0.844037" stroke-linecap="round" stroke-linejoin="round"/>
<path d="M114.981 154.782L115.342 158.539C115.342 158.539 114.848 158.847 115.033 159.465C115.218 160.082 115.342 160.453 115.342 160.453" stroke="#263238" stroke-width="0.844037" stroke-linecap="round" stroke-linejoin="round"/>
<path d="M111.746 135.951C111.788 136.224 111.834 136.489 111.884 136.745C112.872 141.808 113.984 145.636 114.045 145.821C114.107 146.006 113.304 146.685 113.613 147.056C113.922 147.426 114.292 147.612 114.292 147.612L114.86 153.519" stroke="#263238" stroke-width="0.844037" stroke-linecap="round" stroke-linejoin="round"/>
<path d="M111.39 123.038C111.39 123.038 111.031 129.322 111.538 134.312" stroke="#263238" stroke-width="0.844037" stroke-linecap="round" stroke-linejoin="round"/>
<path d="M109.97 122.915C109.97 122.915 109.785 125.138 111.02 126.249" stroke="#263238" stroke-width="0.844037" stroke-linecap="round" stroke-linejoin="round"/>
<path d="M119.417 123.225C117.997 123.842 114.91 123.904 114.91 123.904L115.28 124.83C115.28 124.83 117.441 124.706 118.305 124.398" stroke="#263238" stroke-width="0.844037" stroke-linecap="round" stroke-linejoin="round"/>
<path d="M108.897 121.503C108.897 121.503 109.662 122.923 115.615 122.595C121.569 122.268 123.863 121.284 123.917 120.793C123.972 120.301 123.808 119.154 123.808 119.154C123.808 119.154 112.557 119.974 108.897 121.503Z" fill="#C2C2C2" stroke="#263238" stroke-width="0.844037" stroke-linecap="round" stroke-linejoin="round"/>
<path d="M112.174 95.9961C112.174 95.9961 108.843 97.5254 108.788 98.017C108.733 98.5086 106.986 111.726 106.986 111.726L104.364 108.668C104.364 108.668 104.418 107.575 104.255 107.138C104.091 106.701 104.036 106.374 103.654 106.21C103.271 106.046 102.015 105.718 101.687 105.445C101.36 105.172 100.431 104.298 100.213 104.626C99.9943 104.954 99.5573 105.5 99.6666 105.882C99.7758 106.264 100.213 107.029 100.213 107.248C100.213 107.466 100.213 109.105 100.923 109.869C101.633 110.634 102.671 110.962 102.671 110.962C102.671 110.962 104.364 115.44 104.965 116.314C105.565 117.188 108.078 119.209 108.078 119.209C108.078 119.209 107.477 120.629 107.641 120.739C107.805 120.848 108.569 121.995 108.788 121.995C109.006 121.995 115.561 120.902 116.052 120.848C116.544 120.793 121.46 120.848 121.842 120.684C122.224 120.52 123.48 119.974 123.753 119.755C124.027 119.537 124.464 119.155 124.245 118.281C124.027 117.407 123.808 111.235 123.808 110.689C123.808 110.142 125.157 105.882 125.392 104.134C126.24 97.8391 126.148 97.4694 126.166 96.6485C126.209 94.7108 124.673 93.7069 124.455 93.5977C124.236 93.4885 122.88 92.1182 122.88 92.1182C122.88 92.1182 118.019 92.5005 112.174 95.9961Z" fill="#C2C2C2" stroke="#263238" stroke-width="0.844037" stroke-linecap="round" stroke-linejoin="round"/>
<path d="M108.078 119.209C108.078 119.209 109.99 118.881 110.317 118.608C110.645 118.335 113.54 109.869 113.649 109.378C113.758 108.886 113.922 102.933 113.922 102.933" stroke="#263238" stroke-width="0.844037" stroke-linecap="round" stroke-linejoin="round"/>
<path d="M113.867 106.647L114.796 103.315" stroke="#263238" stroke-width="0.844037" stroke-linecap="round" stroke-linejoin="round"/>
<path d="M106.767 115.004C106.603 114.075 106.986 111.727 106.986 111.727C106.986 111.727 107.368 114.021 108.078 114.949" stroke="#263238" stroke-width="0.844037" stroke-linecap="round" stroke-linejoin="round"/>
<path d="M104.364 108.668C104.364 108.668 104.418 107.576 104.255 107.139C104.091 106.702 104.036 106.374 103.654 106.21C103.271 106.046 102.015 105.719 101.687 105.445C101.36 105.172 100.431 104.298 100.213 104.626C99.9943 104.954 99.5573 105.5 99.6666 105.882C99.7758 106.265 100.213 107.029 100.213 107.248C100.213 107.466 100.213 109.105 100.923 109.87C101.633 110.634 102.671 110.962 102.671 110.962C102.671 110.962 102.765 111.213 102.917 111.605C103.25 110.801 103.925 109.812 105.245 109.696L104.364 108.668Z" fill="white" stroke="#263238" stroke-width="0.844037" stroke-linecap="round" stroke-linejoin="round"/>
<path d="M103.49 112.655C103.49 112.655 103.872 111.289 105.456 110.743" stroke="#263238" stroke-width="0.844037" stroke-linecap="round" stroke-linejoin="round"/>
<path d="M116.052 120.848L121.569 119.209" stroke="#263238" stroke-width="0.844037" stroke-linecap="round" stroke-linejoin="round"/>
<path d="M122.605 106.357C122.605 106.357 119.114 110.132 116.283 112.208" stroke="#263238" stroke-width="0.844037" stroke-linecap="round" stroke-linejoin="round"/>
<path d="M120.812 109.188C120.812 109.188 118.17 111.831 117.038 112.68" stroke="#263238" stroke-width="0.844037" stroke-linecap="round" stroke-linejoin="round"/>
<path d="M122.88 92.1182C122.88 92.1182 125.464 95.496 125.585 96.5236C125.705 97.5512 125.826 98.1557 125.826 98.1557L127.337 97.0676C127.337 97.0676 126.612 94.4684 125.766 93.6221C124.92 92.7758 122.88 92.1182 122.88 92.1182Z" fill="#263238" stroke="#263238" stroke-width="0.844037" stroke-linecap="round" stroke-linejoin="round"/>
<path d="M127.158 95.8901C127.158 95.8901 125.001 95.7823 123.6 96.8605C122.198 97.9386 121.551 101.497 121.228 103.437C120.904 105.378 120.581 114.111 120.581 115.513C120.581 116.915 121.875 117.562 122.414 117.777C122.953 117.993 126.08 117.238 126.511 117.13C126.942 117.022 130.069 117.022 130.931 115.082C131.794 113.141 131.902 109.691 131.794 108.397C131.686 107.103 130.716 105.162 130.716 105.162C130.716 105.162 130.931 100.095 130.5 98.3699C130.069 96.6448 128.128 95.6744 127.158 95.8901Z" fill="#263238" stroke="#263238" stroke-width="0.844037" stroke-linecap="round" stroke-linejoin="round"/>
<path d="M130.716 105.162C130.716 105.162 122.861 106.9 123.045 107.636C123.229 108.371 122.953 109.934 123.045 110.21C123.137 110.485 131.794 108.397 131.794 108.397C131.794 108.397 131.584 105.539 130.716 105.162Z" fill="#878787" stroke="#878787" stroke-width="0.844037" stroke-linecap="round" stroke-linejoin="round"/>
<path d="M129.572 97.0635C129.572 97.0635 125.619 97.3393 124.332 98.5344C123.045 99.7295 122.749 104.133 122.677 105.245" stroke="#878787" stroke-width="0.844037" stroke-linecap="round" stroke-linejoin="round"/>
<path d="M123.045 111.589C123.045 111.589 122.769 115.542 123.045 116.461C123.321 117.381 127.661 116.921 129.296 116.002" stroke="#878787" stroke-width="0.844037" stroke-linecap="round" stroke-linejoin="round"/>
<path d="M52.5341 149.497C52.5341 149.497 51.5418 158.852 51.4001 159.207C51.2583 159.561 48.636 159.561 48.4942 160.624C48.3525 161.687 48.7777 162.113 49.203 162.325C49.6282 162.538 51.2583 163.317 51.7544 163.459C52.2506 163.601 53.5971 163.743 53.9515 163.105C54.3059 162.467 54.0224 160.199 54.0224 160.199L56.5739 149.639L52.5341 149.497Z" fill="white" stroke="#263238" stroke-width="0.844037" stroke-linecap="round" stroke-linejoin="round"/>
<path d="M64.9781 147.82C64.9781 147.82 64.5251 159.25 64.2416 160.384C63.9581 161.518 63.8872 162.368 64.1707 163.006C64.4542 163.644 65.5173 163.644 65.9425 163.502C66.3678 163.36 69.2027 162.014 69.4862 161.588C69.7697 161.163 68.9193 160.738 68.5649 160.596C68.2105 160.454 67.0765 159.391 67.0057 159.179C66.9348 158.966 68.5218 149.521 68.5218 149.521L64.9781 147.82Z" fill="white" stroke="#263238" stroke-width="0.844037" stroke-linecap="round" stroke-linejoin="round"/>
<path d="M65.9425 163.502C66.3678 163.36 69.2028 162.013 69.4862 161.588C69.7697 161.163 68.9192 160.738 68.5649 160.596C68.2105 160.454 67.0765 159.391 67.0056 159.178C66.9881 159.126 67.1449 158.519 67.3904 157.638L64.4485 157.534C64.2267 158.94 64.3201 160.069 64.2416 160.383C63.9581 161.517 63.8872 162.368 64.1707 163.006C64.4542 163.643 65.5173 163.643 65.9425 163.502Z" fill="#92E3A9" stroke="#263238" stroke-width="0.844037" stroke-linecap="round" stroke-linejoin="round"/>
<path d="M51.7747 156.381C51.5991 157.892 51.449 159.085 51.4001 159.207C51.2583 159.562 48.636 159.562 48.4942 160.625C48.3525 161.688 48.7777 162.113 49.203 162.326C49.6282 162.538 51.2583 163.318 51.7544 163.46C52.2506 163.602 53.5971 163.743 53.9515 163.105C54.3059 162.468 54.0224 160.2 54.0224 160.2L54.8867 156.623L51.7747 156.381Z" fill="#92E3A9" stroke="#263238" stroke-width="0.844037" stroke-linecap="round" stroke-linejoin="round"/>
<path d="M54.0612 162.769C53.4972 162.879 52.6138 162.953 51.7544 162.609C50.7771 162.218 49.2948 161.457 48.4682 161.021C48.4698 161.797 48.8355 162.142 49.203 162.326C49.6282 162.538 51.2583 163.318 51.7544 163.46C52.2506 163.601 53.5972 163.743 53.9516 163.105C53.9991 163.02 54.0344 162.903 54.0612 162.769Z" fill="white" stroke="#263238" stroke-width="0.844037" stroke-linecap="round" stroke-linejoin="round"/>
<path d="M69.4862 161.589C69.655 161.336 69.4213 161.083 69.1302 160.89C68.3102 161.468 67.0023 162.37 66.4387 162.652C65.8549 162.944 64.7374 162.868 64.0935 162.792C64.1159 162.866 64.1403 162.938 64.1707 163.006C64.4542 163.644 65.5173 163.644 65.9425 163.502C66.3678 163.361 69.2027 162.014 69.4862 161.589Z" fill="white" stroke="#263238" stroke-width="0.844037" stroke-linecap="round" stroke-linejoin="round"/>
<path d="M56.8647 116.47C56.8647 116.47 56.0143 118.384 55.589 124.054C55.1638 129.724 54.8803 136.457 54.1716 139.221C53.4628 141.985 51.9745 149.497 51.9745 149.497L57.0774 150.419L59.5579 139.433L65.2987 120.793L63.9914 151.19L68.8817 151.615L72.1735 130.432C72.1735 130.432 74.5123 121.998 74.5832 119.092C74.6541 116.187 73.8036 115.407 73.8036 115.407L65.2987 113.706L56.8647 116.47Z" fill="#263238" stroke="#263238" stroke-width="0.844037" stroke-linecap="round" stroke-linejoin="round"/>
<path d="M57.3563 114.607L56.8647 116.471C56.8647 116.471 63.456 115.478 66.291 115.266C69.1259 115.053 74.1579 115.975 74.1579 115.975L73.1405 113.679C73.1405 113.679 70.0473 112.856 66.5745 112.785C63.1016 112.714 60.2667 113.21 59.6997 113.352C59.1327 113.494 57.3563 114.607 57.3563 114.607Z" fill="white" stroke="#263238" stroke-width="0.844037" stroke-linecap="round" stroke-linejoin="round"/>
<path d="M58.6975 90.5693C58.6975 90.5693 53.4361 93.0453 52.3012 94.9022C51.1664 96.7592 46.2145 107.695 46.6272 108.726C47.0398 109.758 49.4126 112.028 49.4126 112.028L52.0949 110.377L51.3728 107.282L54.7772 100.06C54.7772 100.06 56.531 108.211 56.6342 109.139C56.7373 110.068 56.1183 112.853 56.4278 113.678C56.7373 114.504 57.0468 114.71 57.3563 114.607C57.6658 114.504 61.9988 113.266 63.8557 113.266C65.7127 113.266 72.5216 114.4 73.1405 113.678C73.7596 112.956 73.3469 112.337 73.1405 112.028C72.9342 111.718 70.3551 102.536 70.3551 102.536C70.3551 102.536 71.6962 94.6959 71.0772 93.8706C70.4583 93.0453 64.681 90.8788 64.681 90.8788L58.6975 90.5693Z" fill="#92E3A9" stroke="#263238" stroke-width="0.844037" stroke-linecap="round" stroke-linejoin="round"/>
<path d="M61.5074 109.805L67.0964 107.738" stroke="#263238" stroke-width="0.844037" stroke-linecap="round" stroke-linejoin="round"/>
<path d="M59.6604 110.489L60.7876 110.072" stroke="#263238" stroke-width="0.844037" stroke-linecap="round" stroke-linejoin="round"/>
<path d="M58.438 109.979L61.9013 108.553" stroke="#263238" stroke-width="0.844037" stroke-linecap="round" stroke-linejoin="round"/>
<path d="M53.0343 96.6719L54.7772 100.06L53.0904 98.523" stroke="#263238" stroke-width="0.844037" stroke-linecap="round" stroke-linejoin="round"/>
<path d="M71.0773 93.8711L75.6165 108.314L77.783 110.068L75.6165 112.853C75.6165 112.853 72.1089 109.965 71.5931 109.449C71.0773 108.933 68.7045 100.886 68.7045 100.886" fill="#92E3A9"/>
<path d="M71.0773 93.8711L75.6165 108.314L77.783 110.068L75.6165 112.853C75.6165 112.853 72.1089 109.965 71.5931 109.449C71.0773 108.933 68.7045 100.886 68.7045 100.886" stroke="#263238" stroke-width="0.844037" stroke-linecap="round" stroke-linejoin="round"/>
<path d="M87.2696 116.683V114.557H80.1823V116.47" stroke="#263238" stroke-width="2.53211" stroke-miterlimit="10"/>
<path d="M80.1823 116.47V136.031H87.2696V116.682" stroke="#263238" stroke-width="1.68807" stroke-miterlimit="10"/>
<path d="M77.783 110.066L83.5509 112.413C83.5509 112.413 84.5638 112.781 84.748 112.919C84.9322 113.057 85.4847 113.564 85.4847 113.564H84.9782C84.9782 113.564 86.2674 115.267 86.1292 115.451C85.9911 115.636 86.0832 115.728 85.6688 115.728C85.2545 115.728 84.8861 115.497 84.8861 115.497C84.8861 115.497 84.1494 115.636 83.5048 115.451C82.8603 115.267 81.3409 113.794 81.3409 113.794L75.6165 112.852L77.783 110.066Z" fill="white" stroke="#263238" stroke-width="0.844037" stroke-linecap="round" stroke-linejoin="round"/>
<path d="M78.7904 158.853H78.2479C78.0755 158.853 77.9358 158.992 77.9358 159.165V161.117C77.9358 161.29 78.0755 161.429 78.2479 161.429H78.7904C78.9628 161.429 79.1025 161.29 79.1025 161.117V159.165C79.1025 158.992 78.9628 158.853 78.7904 158.853Z" fill="#263238" stroke="#263238" stroke-width="0.844037" stroke-linecap="round" stroke-linejoin="round"/>
<path d="M79.1295 157.47H77.9246V160.305H79.1295V157.47Z" fill="white" stroke="#263238" stroke-width="0.844037" stroke-linecap="round" stroke-linejoin="round"/>
<path d="M89.0013 161.43H89.5439C89.7162 161.43 89.856 161.29 89.856 161.118V159.165C89.856 158.993 89.7162 158.853 89.5439 158.853H89.0013C88.8289 158.853 88.6892 158.993 88.6892 159.165V161.118C88.6892 161.29 88.8289 161.43 89.0013 161.43Z" fill="#263238" stroke="#263238" stroke-width="0.844037" stroke-linecap="round" stroke-linejoin="round"/>
<path d="M88.63 160.271H89.8349V157.436H88.63V160.271Z" fill="white" stroke="#263238" stroke-width="0.844037" stroke-linecap="round" stroke-linejoin="round"/>
<path d="M88.7169 135.605H78.9475C77.5549 135.605 76.4259 136.734 76.4259 138.127V155.905C76.4259 157.298 77.5549 158.427 78.9475 158.427H88.7169C90.1096 158.427 91.2385 157.298 91.2385 155.905V138.127C91.2385 136.734 90.1096 135.605 88.7169 135.605Z" fill="#C2C2C2" stroke="#263238" stroke-width="0.844037" stroke-linecap="round" stroke-linejoin="round"/>
<path d="M88.467 137.137H79.1974C77.6667 137.137 76.4259 138.378 76.4259 139.908V155.655C76.4259 157.186 77.6667 158.427 79.1974 158.427H88.467C89.9977 158.427 91.2385 157.186 91.2385 155.655V139.908C91.2385 138.378 89.9977 137.137 88.467 137.137Z" fill="#878787" stroke="#263238" stroke-width="0.844037" stroke-linecap="round" stroke-linejoin="round"/>
<path d="M78.2902 140.275V155.281" stroke="#263238" stroke-width="0.844037" stroke-linecap="round" stroke-linejoin="round"/>
<path d="M81.0612 140.275V155.281" stroke="#263238" stroke-width="0.844037" stroke-linecap="round" stroke-linejoin="round"/>
<path d="M83.8322 140.275V155.281" stroke="#263238" stroke-width="0.844037" stroke-linecap="round" stroke-linejoin="round"/>
<path d="M86.6033 140.275V155.281" stroke="#263238" stroke-width="0.844037" stroke-linecap="round" stroke-linejoin="round"/>
<path d="M89.3743 140.275V155.281" stroke="#263238" stroke-width="0.844037" stroke-linecap="round" stroke-linejoin="round"/>
<path d="M52.0949 110.377L55.7758 116.397L56.625 116.774L56.106 119.133C56.106 119.133 54.4076 118.284 54.1717 117.812C53.9358 117.34 49.4126 112.028 49.4126 112.028L52.0949 110.377Z" fill="white" stroke="#263238" stroke-width="0.844037" stroke-linecap="round" stroke-linejoin="round"/>
<path d="M57.9273 89.748L55.9499 100.954C55.9499 100.954 58.3228 104.118 62.2778 104.118C66.2327 104.118 68.2101 102.14 68.2101 102.14L66.4963 88.957L57.9273 89.748Z" fill="#263238" stroke="#263238" stroke-width="0.844037" stroke-linecap="round" stroke-linejoin="round"/>
<path d="M62.603 92.6888C67.1793 92.6888 70.8891 88.9175 70.8891 84.2653C70.8891 79.6131 67.1793 75.8418 62.603 75.8418C58.0266 75.8418 54.3168 79.6131 54.3168 84.2653C54.3168 88.9175 58.0266 92.6888 62.603 92.6888Z" fill="white" stroke="#263238" stroke-width="0.844037" stroke-linecap="round" stroke-linejoin="round"/>
<path d="M62.5572 87.1031C64.7316 87.1031 66.4943 85.3814 66.4943 83.2576C66.4943 81.1338 64.7316 79.4121 62.5572 79.4121C60.3828 79.4121 58.6201 81.1338 58.6201 83.2576C58.6201 85.3814 60.3828 87.1031 62.5572 87.1031Z" fill="#92E3A9" stroke="#263238" stroke-width="0.844037" stroke-linecap="round" stroke-linejoin="round"/>
<path d="M62.1462 86.4404L61.644 90.9605L62.7201 91.104L62.1462 86.4404Z" fill="#92E3A9" stroke="#263238" stroke-width="0.844037" stroke-linecap="round" stroke-linejoin="round"/>
<path d="M62.5572 86.4578L63.3659 89.8125L62.7201 89.7408L62.1462 86.4404L62.5572 86.4578Z" fill="#92E3A9" stroke="#263238" stroke-width="0.844037" stroke-linecap="round" stroke-linejoin="round"/>
<path d="M62.5572 86.4576C64.7316 86.4576 66.4943 84.7359 66.4943 82.6121C66.4943 80.4883 64.7316 78.7666 62.5572 78.7666C60.3828 78.7666 58.6201 80.4883 58.6201 82.6121C58.6201 84.7359 60.3828 86.4576 62.5572 86.4576Z" fill="white" stroke="#263238" stroke-width="0.844037" stroke-linecap="round" stroke-linejoin="round"/>
<path d="M124.656 39.9439L120.66 47.1351L122.347 47.0463L128.029 40.9205L126.52 39.5L124.656 39.9439Z" fill="#263238" stroke="#263238" stroke-width="0.844037" stroke-linecap="round" stroke-linejoin="round"/>
<path d="M178.19 28.1365L174.151 27.858C173.415 27.8073 172.676 27.8691 171.958 28.0413L130.16 38.0799L121.637 35.0613L119.329 35.7716L126.698 41.4535L136.907 40.9208L175.153 32.3282C176.514 32.0223 177.807 31.4643 178.963 30.6829L179.983 29.9936C180.294 29.7834 180.447 29.4054 180.368 29.0384C180.286 28.6574 179.974 28.3692 179.587 28.3188L178.19 28.1365Z" fill="white" stroke="#263238" stroke-width="0.844037" stroke-linecap="round" stroke-linejoin="round"/>
<path d="M134.958 41.0217C136.821 39.3333 139.473 37.0448 142.053 35.2228L130.16 38.0791L121.637 35.0605L119.329 35.7708L126.698 41.4527L134.958 41.0217Z" fill="#92E3A9" stroke="#263238" stroke-width="0.844037" stroke-linecap="round" stroke-linejoin="round"/>
<path d="M124.656 39.9435L122.791 33.1074H124.478L128.739 39.6771L124.656 39.9435Z" fill="#263238" stroke="#263238" stroke-width="0.844037" stroke-linecap="round" stroke-linejoin="round"/>
<path d="M124.656 39.9434L123.004 40.1004L123.13 41.0775L126.697 41.4526L124.656 39.9434Z" fill="white" stroke="#263238" stroke-width="0.844037" stroke-linecap="round" stroke-linejoin="round"/>
<path d="M149.825 35.2593L149.331 30.7546L144.333 15.1426L147.48 16.315L159.636 33.3464L149.825 35.2593Z" fill="#263238" stroke="#263238" stroke-width="0.844037" stroke-linecap="round" stroke-linejoin="round"/>
<path d="M153.289 24.9797C152.833 24.6287 152.694 23.3812 153.061 22.9383C153.595 22.2941 156.139 22.0632 156.871 22.5128C157.374 22.822 157.522 24.1416 157.099 24.5542C156.484 25.1543 153.952 25.4902 153.289 24.9797Z" fill="white" stroke="#263238" stroke-width="0.844037" stroke-linecap="round" stroke-linejoin="round"/>
<path d="M152.859 23.1689L150.923 23.7021L151.204 24.8244H153.027C153.027 24.8244 152.775 24.0388 152.859 23.1689Z" fill="white" stroke="#263238" stroke-width="0.844037" stroke-linecap="round" stroke-linejoin="round"/>
<path d="M157.835 30.5373C157.379 30.1863 157.24 28.9388 157.607 28.4959C158.141 27.8517 160.685 27.6208 161.417 28.0705C161.92 28.3796 162.067 29.6992 161.645 30.1118C161.03 30.7119 158.498 31.0478 157.835 30.5373Z" fill="white" stroke="#263238" stroke-width="0.844037" stroke-linecap="round" stroke-linejoin="round"/>
<path d="M157.405 28.7266L155.469 29.2597L155.749 30.382H157.573C157.573 30.382 157.321 29.5964 157.405 28.7266Z" fill="white" stroke="#263238" stroke-width="0.844037" stroke-linecap="round" stroke-linejoin="round"/>
<path d="M144.874 39.2423L149.116 39.7793L138.108 53.6871L136.766 53.8483L139.719 54.1704L158.675 36.8259L160.823 35.5908L144.874 39.2423Z" fill="#263238" stroke="#263238" stroke-width="0.844037" stroke-linecap="round" stroke-linejoin="round"/>
<path d="M154.809 42.4504C154.353 42.0994 154.214 40.8519 154.581 40.409C155.115 39.7648 157.659 39.5339 158.391 39.9836C158.894 40.2927 159.042 41.6123 158.619 42.0249C158.004 42.625 155.472 42.9609 154.809 42.4504Z" fill="white" stroke="#263238" stroke-width="0.844037" stroke-linecap="round" stroke-linejoin="round"/>
<path d="M154.379 40.6396L152.443 41.1728L152.723 42.2951H154.547C154.547 42.2951 154.295 41.5095 154.379 40.6396Z" fill="white" stroke="#263238" stroke-width="0.844037" stroke-linecap="round" stroke-linejoin="round"/>
<path d="M147.13 48.9474C146.674 48.5965 146.535 47.349 146.902 46.9061C147.436 46.2619 149.98 46.0309 150.712 46.4806C151.215 46.7898 151.363 48.1094 150.94 48.5219C150.325 49.122 147.793 49.4579 147.13 48.9474Z" fill="white" stroke="#263238" stroke-width="0.844037" stroke-linecap="round" stroke-linejoin="round"/>
<path d="M146.7 47.1367L144.764 47.6698L145.045 48.7922H146.868C146.868 48.7922 146.616 48.0066 146.7 47.1367Z" fill="white" stroke="#263238" stroke-width="0.844037" stroke-linecap="round" stroke-linejoin="round"/>
<path d="M120.633 41.2275C120.633 41.2275 49.9567 52.9478 15.4744 72.0176C-19.0079 91.0873 41.5974 78.8095 41.5974 78.8095" stroke="#263238" stroke-width="0.844037" stroke-linecap="round" stroke-linejoin="round"/>
</svg>
