<svg width="507" height="165" viewBox="0 0 507 165" fill="none" xmlns="http://www.w3.org/2000/svg">
<g clip-path="url(#clip0_244_4358)">
<path d="M336.16 88.168C334.435 102.798 327.76 119.811 314.411 127.623C294.255 139.436 295.942 157.597 256.595 165.493C250.857 166.673 245.008 167.225 239.151 167.142C236.284 167.089 233.424 166.855 230.586 166.442C205.579 162.791 188.751 145.41 182.577 124.424C174.453 96.8305 190.676 78.7495 201.428 67.8785C212.18 57.0075 220.058 23.0785 258.677 15.0285C264.568 13.7644 270.584 13.1842 276.608 13.2995C290.349 13.6495 305.336 18.1505 315.706 27.5655C316.483 28.2655 317.242 28.9982 317.981 29.7635C332.394 44.565 338.519 68.2215 336.16 88.168Z" fill="#249748"/>
<path opacity="0.7" d="M336.16 88.168C334.435 102.798 327.76 119.811 314.411 127.623C294.255 139.436 295.942 157.597 256.595 165.493C250.857 166.673 245.008 167.225 239.151 167.142C236.284 167.089 233.424 166.855 230.586 166.442C205.579 162.791 188.751 145.41 182.577 124.424C174.453 96.8305 190.676 78.7495 201.428 67.8785C212.18 57.0075 220.058 23.0785 258.677 15.0285C264.568 13.7644 270.584 13.1842 276.608 13.2995C290.349 13.6495 305.336 18.1505 315.706 27.5655C316.483 28.2655 317.242 28.9982 317.981 29.7635C332.394 44.565 338.519 68.2215 336.16 88.168Z" fill="white"/>
<path d="M181.152 162.436H339.135" stroke="#263238" stroke-width="0.802752" stroke-linecap="round" stroke-linejoin="round"/>
<path d="M294.695 25.6896H308.03C308.03 25.6896 309.308 21.8396 307.005 20.4396C304.702 19.0396 304.702 20.9506 302.91 20.1806C301.433 19.5471 301.16 18.3431 300.74 17.0691C300.694 16.9221 300.645 16.7751 300.593 16.6316C300.45 16.2335 300.265 15.852 300.04 15.4941" stroke="#B2B2B2" stroke-width="0.802752" stroke-linecap="round" stroke-linejoin="round"/>
<path d="M298.471 13.8382C295.132 11.3882 289.606 12.3087 289.606 17.5027C289.606 18.7802 286.533 17.5027 285.381 19.1652C284.23 20.8277 285.511 21.8532 283.981 22.3642C282.452 22.8752 282.319 21.5977 280.397 21.7237C278.476 21.8497 278.735 23.6417 278.094 24.1562C277.454 24.6707 277.457 24.4117 276.05 24.5377C274.643 24.6637 274.384 25.6892 274.384 25.6892H292.339" stroke="#B2B2B2" stroke-width="0.802752" stroke-linecap="round" stroke-linejoin="round"/>
<path d="M301.905 24.2897C302.091 23.6332 302.095 22.9384 301.916 22.2799C301.737 21.6214 301.382 21.0239 300.89 20.5517C299.178 18.9697 297.39 19.8517 296.896 20.5517C296.403 21.2517 296.389 22.5817 295.566 22.7077C294.744 22.8337 294.933 21.3077 293.158 21.6927C291.384 22.0777 292.08 23.8487 291.258 24.2267C290.435 24.6047 290.435 23.2152 289.294 23.6562C288.153 24.0972 288.216 24.9232 288.216 24.9232" stroke="#B2B2B2" stroke-width="0.802752" stroke-linecap="round" stroke-linejoin="round"/>
<path d="M292.802 19.9836C292.335 19.6517 291.788 19.4508 291.218 19.4015C290.647 19.3523 290.074 19.4566 289.557 19.7036C287.723 20.5506 288.57 22.3146 287.723 22.7381C286.876 23.1616 286.453 22.6646 285.396 23.1616C284.339 23.6586 284.405 24.3586 284.405 24.3586" stroke="#B2B2B2" stroke-width="0.802752" stroke-linecap="round" stroke-linejoin="round"/>
<path d="M203.65 49.4612C203.339 49.29 202.985 49.2145 202.631 49.2442C201.529 49.3177 201.676 50.3467 201.308 50.6442C200.941 50.9417 200.958 50.7912 200.136 50.8647C199.928 50.8615 199.724 50.9232 199.553 51.0411C199.382 51.159 199.251 51.3273 199.18 51.5227H218.49C218.49 51.5227 218.966 50.0982 218.462 49.1182" stroke="#B2B2B2" stroke-width="0.802752" stroke-linecap="round" stroke-linejoin="round"/>
<path d="M217.909 48.5092C216.589 47.7042 216.589 48.8032 215.56 48.3622C214.71 48.0122 214.552 47.3122 214.314 46.5772L214.23 46.3252C213.114 43.2242 207.93 43.0107 207.93 46.8222C207.93 47.5572 206.18 46.8222 205.508 47.7777C204.836 48.7332 205.582 49.3177 204.7 49.6117" stroke="#B2B2B2" stroke-width="0.802752" stroke-linecap="round" stroke-linejoin="round"/>
<path d="M214.982 50.7183C215.089 50.3416 215.091 49.943 214.989 49.5651C214.887 49.1871 214.684 48.8442 214.401 48.5728C213.418 47.6628 212.399 48.1738 212.109 48.5728C211.818 48.9718 211.818 49.7348 211.346 49.8083C210.873 49.8818 210.996 49.0103 209.963 49.2273C208.931 49.4443 209.347 50.4628 208.871 50.6833C208.395 50.9038 208.399 50.0988 207.744 50.3543C207.09 50.6098 207.128 51.0998 207.128 51.0998" stroke="#B2B2B2" stroke-width="0.802752" stroke-linecap="round" stroke-linejoin="round"/>
<path d="M209.76 48.2474C209.493 48.0569 209.179 47.9414 208.851 47.9131C208.524 47.8848 208.195 47.9446 207.898 48.0864C206.848 48.5729 207.331 49.5844 206.848 49.8364C206.365 50.0884 206.12 49.7979 205.511 50.0814C204.902 50.3649 204.944 50.7814 204.944 50.7814" stroke="#B2B2B2" stroke-width="0.802752" stroke-linecap="round" stroke-linejoin="round"/>
<path d="M248.8 15.9309C248.491 15.7592 248.137 15.6837 247.785 15.7139C246.682 15.7874 246.829 16.8164 246.462 17.1139C246.094 17.4114 246.094 17.2609 245.286 17.3309C245.078 17.3288 244.875 17.3913 244.704 17.5098C244.534 17.6283 244.404 17.797 244.334 17.9924H263.643C263.643 17.9924 264.119 16.5679 263.615 15.5879" stroke="#B2B2B2" stroke-width="0.802752" stroke-linecap="round" stroke-linejoin="round"/>
<path d="M263.042 14.9793C261.722 14.1708 261.722 15.2733 260.693 14.8323C259.843 14.4823 259.685 13.7823 259.447 13.0473L259.363 12.7953C258.247 9.69428 253.063 9.47728 253.063 13.2923C253.063 14.0238 251.313 13.2923 250.641 14.2443C249.969 15.1963 250.715 15.7878 249.833 16.0818" stroke="#B2B2B2" stroke-width="0.802752" stroke-linecap="round" stroke-linejoin="round"/>
<path d="M260.115 17.1879C260.22 16.812 260.222 16.4144 260.119 16.0378C260.016 15.6612 259.813 15.3196 259.531 15.0494C258.551 14.1394 257.532 14.6469 257.242 15.0494C256.951 15.4519 256.951 16.2114 256.479 16.2849C256.006 16.3584 256.129 15.4834 255.096 15.7039C254.064 15.9244 254.477 16.9394 254.004 17.1564C253.532 17.3734 253.532 16.5754 252.877 16.8309C252.223 17.0864 252.258 17.5589 252.258 17.5589" stroke="#B2B2B2" stroke-width="0.802752" stroke-linecap="round" stroke-linejoin="round"/>
<path d="M254.89 14.7172C254.622 14.5266 254.308 14.4111 253.981 14.3828C253.653 14.3545 253.324 14.4144 253.028 14.5562C251.978 15.0392 252.461 16.0542 251.978 16.3062C251.495 16.5582 251.246 16.2642 250.641 16.5477C250.035 16.8312 250.074 17.2477 250.074 17.2477" stroke="#B2B2B2" stroke-width="0.802752" stroke-linecap="round" stroke-linejoin="round"/>
<path d="M324.782 33.9805H248.555V162.434H324.782V33.9805Z" fill="#ADADAD" stroke="#ADADAD" stroke-width="0.802752" stroke-linecap="round" stroke-linejoin="round"/>
<path d="M324.782 33.9805H280.892V162.434H324.782V33.9805Z" fill="white" stroke="#ADADAD" stroke-width="0.802752" stroke-linecap="round" stroke-linejoin="round"/>
<path d="M319.685 33.9805H285.984V162.434H319.685V33.9805Z" fill="white" stroke="#ADADAD" stroke-width="0.802752" stroke-linecap="round" stroke-linejoin="round"/>
<path d="M324.782 33.9805H280.892V42.7795H324.782V33.9805Z" fill="#ADADAD" stroke="#ADADAD" stroke-width="0.802752" stroke-linecap="round" stroke-linejoin="round"/>
<path d="M313.498 146.649H292.176V162.438H313.498V146.649Z" fill="white" stroke="#ADADAD" stroke-width="0.802752" stroke-linecap="round" stroke-linejoin="round"/>
<path d="M313.498 146.649H302.837V162.438H313.498V146.649Z" fill="white" stroke="#ADADAD" stroke-width="0.802752" stroke-linecap="round" stroke-linejoin="round"/>
<path d="M263.297 48.3945H253.62V57.183H263.297V48.3945Z" fill="white" stroke="#ADADAD" stroke-width="0.802752" stroke-linecap="round" stroke-linejoin="round"/>
<path d="M263.297 45.8643H253.62V49.6863H263.297V45.8643Z" fill="white" stroke="#ADADAD" stroke-width="0.802752" stroke-linecap="round" stroke-linejoin="round"/>
<path d="M277.129 48.3945H267.452V57.183H277.129V48.3945Z" fill="white" stroke="#ADADAD" stroke-width="0.802752" stroke-linecap="round" stroke-linejoin="round"/>
<path d="M277.129 45.8643H267.452V49.6863H277.129V45.8643Z" fill="white" stroke="#ADADAD" stroke-width="0.802752" stroke-linecap="round" stroke-linejoin="round"/>
<path d="M263.297 65.2637H253.62V74.0522H263.297V65.2637Z" fill="white" stroke="#ADADAD" stroke-width="0.802752" stroke-linecap="round" stroke-linejoin="round"/>
<path d="M263.297 62.7334H253.62V66.5554H263.297V62.7334Z" fill="white" stroke="#ADADAD" stroke-width="0.802752" stroke-linecap="round" stroke-linejoin="round"/>
<path d="M277.129 65.2637H267.452V74.0522H277.129V65.2637Z" fill="white" stroke="#ADADAD" stroke-width="0.802752" stroke-linecap="round" stroke-linejoin="round"/>
<path d="M277.129 62.7334H267.452V66.5554H277.129V62.7334Z" fill="white" stroke="#ADADAD" stroke-width="0.802752" stroke-linecap="round" stroke-linejoin="round"/>
<path d="M263.297 82.1338H253.62V90.9223H263.297V82.1338Z" fill="white" stroke="#ADADAD" stroke-width="0.802752" stroke-linecap="round" stroke-linejoin="round"/>
<path d="M263.297 79.6035H253.62V83.4255H263.297V79.6035Z" fill="white" stroke="#ADADAD" stroke-width="0.802752" stroke-linecap="round" stroke-linejoin="round"/>
<path d="M277.129 82.1338H267.452V90.9223H277.129V82.1338Z" fill="white" stroke="#ADADAD" stroke-width="0.802752" stroke-linecap="round" stroke-linejoin="round"/>
<path d="M277.129 79.6035H267.452V83.4255H277.129V79.6035Z" fill="white" stroke="#ADADAD" stroke-width="0.802752" stroke-linecap="round" stroke-linejoin="round"/>
<path d="M263.297 99.0039H253.62V107.792H263.297V99.0039Z" fill="white" stroke="#ADADAD" stroke-width="0.802752" stroke-linecap="round" stroke-linejoin="round"/>
<path d="M263.297 96.4697H253.62V100.292H263.297V96.4697Z" fill="white" stroke="#ADADAD" stroke-width="0.802752" stroke-linecap="round" stroke-linejoin="round"/>
<path d="M277.129 99.0039H267.452V107.792H277.129V99.0039Z" fill="white" stroke="#ADADAD" stroke-width="0.802752" stroke-linecap="round" stroke-linejoin="round"/>
<path d="M277.129 96.4697H267.452V100.292H277.129V96.4697Z" fill="white" stroke="#ADADAD" stroke-width="0.802752" stroke-linecap="round" stroke-linejoin="round"/>
<path d="M263.297 115.874H253.62V124.663H263.297V115.874Z" fill="white" stroke="#ADADAD" stroke-width="0.802752" stroke-linecap="round" stroke-linejoin="round"/>
<path d="M263.297 113.34H253.62V117.162H263.297V113.34Z" fill="white" stroke="#ADADAD" stroke-width="0.802752" stroke-linecap="round" stroke-linejoin="round"/>
<path d="M277.129 115.874H267.452V124.663H277.129V115.874Z" fill="white" stroke="#ADADAD" stroke-width="0.802752" stroke-linecap="round" stroke-linejoin="round"/>
<path d="M277.129 113.34H267.452V117.162H277.129V113.34Z" fill="white" stroke="#ADADAD" stroke-width="0.802752" stroke-linecap="round" stroke-linejoin="round"/>
<path d="M263.297 132.74H253.62V141.529H263.297V132.74Z" fill="white" stroke="#ADADAD" stroke-width="0.802752" stroke-linecap="round" stroke-linejoin="round"/>
<path d="M263.297 130.21H253.62V134.032H263.297V130.21Z" fill="white" stroke="#ADADAD" stroke-width="0.802752" stroke-linecap="round" stroke-linejoin="round"/>
<path d="M277.129 132.74H267.452V141.529H277.129V132.74Z" fill="white" stroke="#ADADAD" stroke-width="0.802752" stroke-linecap="round" stroke-linejoin="round"/>
<path d="M277.129 130.21H267.452V134.032H277.129V130.21Z" fill="white" stroke="#ADADAD" stroke-width="0.802752" stroke-linecap="round" stroke-linejoin="round"/>
<path d="M294.112 48.3945H284.434V57.183H294.112V48.3945Z" fill="white" stroke="#ADADAD" stroke-width="0.802752" stroke-linecap="round" stroke-linejoin="round"/>
<path d="M294.112 45.8643H284.434V49.6863H294.112V45.8643Z" fill="white" stroke="#ADADAD" stroke-width="0.802752" stroke-linecap="round" stroke-linejoin="round"/>
<path d="M307.947 48.3945H298.269V57.183H307.947V48.3945Z" fill="white" stroke="#ADADAD" stroke-width="0.802752" stroke-linecap="round" stroke-linejoin="round"/>
<path d="M307.947 45.8643H298.269V49.6863H307.947V45.8643Z" fill="white" stroke="#ADADAD" stroke-width="0.802752" stroke-linecap="round" stroke-linejoin="round"/>
<path d="M321.779 48.3945H312.102V57.183H321.779V48.3945Z" fill="white" stroke="#ADADAD" stroke-width="0.802752" stroke-linecap="round" stroke-linejoin="round"/>
<path d="M321.779 45.8643H312.102V49.6863H321.779V45.8643Z" fill="white" stroke="#ADADAD" stroke-width="0.802752" stroke-linecap="round" stroke-linejoin="round"/>
<path d="M294.112 65.2637H284.434V74.0522H294.112V65.2637Z" fill="white" stroke="#ADADAD" stroke-width="0.802752" stroke-linecap="round" stroke-linejoin="round"/>
<path d="M294.112 62.7334H284.434V66.5554H294.112V62.7334Z" fill="white" stroke="#ADADAD" stroke-width="0.802752" stroke-linecap="round" stroke-linejoin="round"/>
<path d="M307.947 65.2637H298.269V74.0522H307.947V65.2637Z" fill="white" stroke="#ADADAD" stroke-width="0.802752" stroke-linecap="round" stroke-linejoin="round"/>
<path d="M307.947 62.7334H298.269V66.5554H307.947V62.7334Z" fill="white" stroke="#ADADAD" stroke-width="0.802752" stroke-linecap="round" stroke-linejoin="round"/>
<path d="M321.779 65.2637H312.102V74.0522H321.779V65.2637Z" fill="white" stroke="#ADADAD" stroke-width="0.802752" stroke-linecap="round" stroke-linejoin="round"/>
<path d="M321.779 62.7334H312.102V66.5554H321.779V62.7334Z" fill="white" stroke="#ADADAD" stroke-width="0.802752" stroke-linecap="round" stroke-linejoin="round"/>
<path d="M294.112 82.1338H284.434V90.9223H294.112V82.1338Z" fill="white" stroke="#ADADAD" stroke-width="0.802752" stroke-linecap="round" stroke-linejoin="round"/>
<path d="M294.112 79.6035H284.434V83.4255H294.112V79.6035Z" fill="white" stroke="#ADADAD" stroke-width="0.802752" stroke-linecap="round" stroke-linejoin="round"/>
<path d="M307.947 82.1338H298.269V90.9223H307.947V82.1338Z" fill="white" stroke="#ADADAD" stroke-width="0.802752" stroke-linecap="round" stroke-linejoin="round"/>
<path d="M307.947 79.6035H298.269V83.4255H307.947V79.6035Z" fill="white" stroke="#ADADAD" stroke-width="0.802752" stroke-linecap="round" stroke-linejoin="round"/>
<path d="M321.779 82.1338H312.102V90.9223H321.779V82.1338Z" fill="white" stroke="#ADADAD" stroke-width="0.802752" stroke-linecap="round" stroke-linejoin="round"/>
<path d="M321.779 79.6035H312.102V83.4255H321.779V79.6035Z" fill="white" stroke="#ADADAD" stroke-width="0.802752" stroke-linecap="round" stroke-linejoin="round"/>
<path d="M294.112 99.0039H284.434V107.792H294.112V99.0039Z" fill="white" stroke="#ADADAD" stroke-width="0.802752" stroke-linecap="round" stroke-linejoin="round"/>
<path d="M294.112 96.4697H284.434V100.292H294.112V96.4697Z" fill="white" stroke="#ADADAD" stroke-width="0.802752" stroke-linecap="round" stroke-linejoin="round"/>
<path d="M307.947 99.0039H298.269V107.792H307.947V99.0039Z" fill="white" stroke="#ADADAD" stroke-width="0.802752" stroke-linecap="round" stroke-linejoin="round"/>
<path d="M307.947 96.4697H298.269V100.292H307.947V96.4697Z" fill="white" stroke="#ADADAD" stroke-width="0.802752" stroke-linecap="round" stroke-linejoin="round"/>
<path d="M321.779 99.0039H312.102V107.792H321.779V99.0039Z" fill="white" stroke="#ADADAD" stroke-width="0.802752" stroke-linecap="round" stroke-linejoin="round"/>
<path d="M321.779 96.4697H312.102V100.292H321.779V96.4697Z" fill="white" stroke="#ADADAD" stroke-width="0.802752" stroke-linecap="round" stroke-linejoin="round"/>
<path d="M294.112 115.874H284.434V124.663H294.112V115.874Z" fill="white" stroke="#ADADAD" stroke-width="0.802752" stroke-linecap="round" stroke-linejoin="round"/>
<path d="M294.112 113.34H284.434V117.162H294.112V113.34Z" fill="white" stroke="#ADADAD" stroke-width="0.802752" stroke-linecap="round" stroke-linejoin="round"/>
<path d="M307.947 115.874H298.269V124.663H307.947V115.874Z" fill="white" stroke="#ADADAD" stroke-width="0.802752" stroke-linecap="round" stroke-linejoin="round"/>
<path d="M307.947 113.34H298.269V117.162H307.947V113.34Z" fill="white" stroke="#ADADAD" stroke-width="0.802752" stroke-linecap="round" stroke-linejoin="round"/>
<path d="M321.779 115.874H312.102V124.663H321.779V115.874Z" fill="white" stroke="#ADADAD" stroke-width="0.802752" stroke-linecap="round" stroke-linejoin="round"/>
<path d="M321.779 113.34H312.102V117.162H321.779V113.34Z" fill="white" stroke="#ADADAD" stroke-width="0.802752" stroke-linecap="round" stroke-linejoin="round"/>
<path d="M294.112 132.74H284.434V141.529H294.112V132.74Z" fill="white" stroke="#ADADAD" stroke-width="0.802752" stroke-linecap="round" stroke-linejoin="round"/>
<path d="M294.112 130.21H284.434V134.032H294.112V130.21Z" fill="white" stroke="#ADADAD" stroke-width="0.802752" stroke-linecap="round" stroke-linejoin="round"/>
<path d="M307.947 132.74H298.269V141.529H307.947V132.74Z" fill="white" stroke="#ADADAD" stroke-width="0.802752" stroke-linecap="round" stroke-linejoin="round"/>
<path d="M307.947 130.21H298.269V134.032H307.947V130.21Z" fill="white" stroke="#ADADAD" stroke-width="0.802752" stroke-linecap="round" stroke-linejoin="round"/>
<path d="M321.779 132.74H312.102V141.529H321.779V132.74Z" fill="white" stroke="#ADADAD" stroke-width="0.802752" stroke-linecap="round" stroke-linejoin="round"/>
<path d="M321.779 130.21H312.102V134.032H321.779V130.21Z" fill="white" stroke="#ADADAD" stroke-width="0.802752" stroke-linecap="round" stroke-linejoin="round"/>
<path d="M321.656 146.625H283.961V151.406H321.656V146.625Z" fill="white" stroke="#ADADAD" stroke-width="0.802752" stroke-linecap="round" stroke-linejoin="round"/>
<path d="M321.656 145.243H283.961V150.024H321.656V145.243Z" fill="white" stroke="#ADADAD" stroke-width="0.802752" stroke-linecap="round" stroke-linejoin="round"/>
<path d="M269.048 27.373H248.513V40.0325H269.048V27.373Z" fill="#ADADAD" stroke="#ADADAD" stroke-width="0.802752" stroke-linecap="round" stroke-linejoin="round"/>
<path d="M269.048 27.373H261.943V40.0325H269.048V27.373Z" fill="white" stroke="#ADADAD" stroke-width="0.802752" stroke-linecap="round" stroke-linejoin="round"/>
<path d="M321.093 30.4668H312.654V40.0323H321.093V30.4668Z" fill="white" stroke="#ADADAD" stroke-width="0.802752" stroke-linecap="round" stroke-linejoin="round"/>
<path d="M317.19 30.4668H308.751V40.0323H317.19V30.4668Z" fill="#ADADAD" stroke="#ADADAD" stroke-width="0.802752" stroke-linecap="round" stroke-linejoin="round"/>
<path d="M326.64 33.9805H246.7V40.032H326.64V33.9805Z" fill="white" stroke="#ADADAD" stroke-width="0.802752" stroke-linecap="round" stroke-linejoin="round"/>
<path d="M326.637 33.9805H278.834V40.032H326.637V33.9805Z" fill="white" stroke="#ADADAD" stroke-width="0.802752" stroke-linecap="round" stroke-linejoin="round"/>
<path d="M280.892 33.9805V36.5215" stroke="#ADADAD" stroke-width="0.802752" stroke-linecap="round" stroke-linejoin="round"/>
<path d="M282.197 33.9805V36.5215" stroke="#ADADAD" stroke-width="0.802752" stroke-linecap="round" stroke-linejoin="round"/>
<path d="M282.197 37.208V39.147" stroke="#ADADAD" stroke-width="0.802752" stroke-linecap="round" stroke-linejoin="round"/>
<path d="M283.506 33.9805V36.5215" stroke="#ADADAD" stroke-width="0.802752" stroke-linecap="round" stroke-linejoin="round"/>
<path d="M283.506 37.3164V39.1154" stroke="#ADADAD" stroke-width="0.802752" stroke-linecap="round" stroke-linejoin="round"/>
<path d="M284.728 37.3164V38.4504" stroke="#ADADAD" stroke-width="0.802752" stroke-linecap="round" stroke-linejoin="round"/>
<path d="M284.815 33.9805V36.5215" stroke="#ADADAD" stroke-width="0.802752" stroke-linecap="round" stroke-linejoin="round"/>
<path d="M286.296 35.8779V36.5219" stroke="#ADADAD" stroke-width="0.802752" stroke-linecap="round" stroke-linejoin="round"/>
<path d="M286.383 33.9805V35.426" stroke="#ADADAD" stroke-width="0.802752" stroke-linecap="round" stroke-linejoin="round"/>
<path d="M280.892 37.0332V38.5382" stroke="#ADADAD" stroke-width="0.802752" stroke-linecap="round" stroke-linejoin="round"/>
<path d="M181.54 56.122C183.031 56.773 186.682 56.689 186.685 56.689C186.689 56.689 185.901 54.2985 185.831 54.155C185.03 52.4785 182.496 49.7135 180.438 49.99C180.095 50.0424 179.767 50.1672 179.475 50.356C179.184 50.5449 178.936 50.7935 178.748 51.0854C178.56 51.3772 178.436 51.7058 178.385 52.0491C178.334 52.3925 178.356 52.7428 178.45 53.077C178.8 54.505 180.27 55.5655 181.54 56.122Z" fill="#263238"/>
<path d="M182.8 66.6954C184.347 66.9194 187.606 65.9744 187.865 65.8974C188.401 67.7626 189.061 69.5901 189.839 71.3679C190.287 72.4179 190.773 73.4364 191.27 74.4619C190.973 74.0279 190.703 73.6394 190.661 73.5904C189.447 72.1904 186.272 70.1849 184.361 71.0004C184.045 71.1427 183.763 71.3503 183.533 71.6096C183.304 71.8689 183.131 72.1741 183.028 72.5048C182.925 72.8356 182.893 73.1845 182.935 73.5285C182.976 73.8725 183.09 74.2038 183.269 74.5004C183.969 75.7849 185.67 76.4219 187.042 76.6214C188.414 76.8209 191.242 76.0754 191.967 75.8689C192.163 76.2609 192.352 76.6529 192.548 77.0449C193.493 78.9244 194.441 80.7934 195.316 82.6449C195.624 83.3029 195.904 83.9609 196.188 84.6189C195.925 84.2304 195.698 83.9189 195.659 83.8629C194.445 82.4629 191.27 80.4574 189.359 81.2729C189.043 81.4152 188.761 81.6228 188.531 81.8821C188.302 82.1414 188.129 82.4466 188.026 82.7773C187.923 83.1081 187.891 83.457 187.933 83.801C187.974 84.145 188.088 84.4763 188.267 84.7729C188.967 86.0574 190.668 86.6944 192.04 86.8939C193.412 87.0934 195.95 86.4214 196.825 86.1799C197.094 86.8799 197.364 87.5449 197.595 88.2169C197.742 88.6789 197.913 89.1164 198.036 89.5889L198.421 90.9889C198.634 91.8779 198.862 92.7949 199.047 93.6664C199.18 94.2719 199.296 94.8494 199.415 95.4339C199.117 94.7759 198.501 93.5019 198.438 93.4039C197.451 91.8289 194.616 89.3719 192.6 89.8864C192.267 89.9796 191.958 90.1422 191.692 90.3636C191.426 90.585 191.211 90.8601 191.059 91.1709C190.907 91.4817 190.823 91.821 190.812 92.1667C190.8 92.5124 190.863 92.8565 190.994 93.1764C191.498 94.5554 193.076 95.4409 194.403 95.8469C195.862 96.2949 199.096 95.8854 199.499 95.8469C199.695 96.8129 199.873 97.7544 200.027 98.6469C200.143 99.3049 200.251 99.9384 200.346 100.547H201.641C201.518 99.8684 201.385 99.1474 201.238 98.4194C201.046 97.4359 200.822 96.3929 200.577 95.3219C201.551 94.9322 202.501 94.4857 203.422 93.9849C204.472 95.1364 207.216 96.4839 207.566 96.6554C207.195 97.5689 206.828 98.4544 206.464 99.2839C206.275 99.7214 206.089 100.138 205.904 100.547H207.272C207.381 100.288 207.489 100.033 207.598 99.7634C207.979 98.8359 208.368 97.8419 208.76 96.8129C209.148 96.8969 212.351 97.5444 213.842 97.2084C215.196 96.9039 216.834 96.1374 217.44 94.8004C217.595 94.491 217.683 94.1523 217.697 93.8066C217.712 93.4608 217.653 93.1158 217.525 92.7944C217.397 92.473 217.202 92.1824 216.953 91.9418C216.704 91.7012 216.407 91.516 216.082 91.3984C214.111 90.7369 211.101 92.9734 209.999 94.4679C209.932 94.5589 209.334 95.5914 208.949 96.2529C209.106 95.8329 209.264 95.4269 209.418 94.9894C209.733 94.1319 210.023 93.2674 210.335 92.3399C210.471 91.8849 210.611 91.4264 210.748 90.9609C210.884 90.4954 210.993 90.0054 211.119 89.5224C211.388 88.3954 211.605 87.2404 211.798 86.0749C212.547 86.3479 215.231 87.2824 216.621 87.1844C218.01 87.0864 219.739 86.5789 220.541 85.3469C220.748 85.0661 220.892 84.7443 220.964 84.4032C221.037 84.062 221.035 83.7093 220.961 83.3687C220.886 83.0281 220.739 82.7075 220.53 82.4281C220.321 82.1488 220.055 81.9172 219.75 81.7489C217.902 80.7934 214.587 82.5539 213.271 83.8489C213.191 83.9294 212.351 84.9759 211.899 85.5604C212.011 84.8604 212.123 84.1604 212.214 83.4429C212.47 81.3814 212.662 79.2849 212.869 77.1954C212.928 76.5549 212.998 75.9179 213.068 75.2809C213.334 75.3824 216.498 76.5584 218.056 76.4499C219.438 76.3519 221.174 75.8444 221.976 74.6124C222.175 74.3303 222.312 74.0093 222.379 73.6703C222.445 73.3314 222.439 72.9823 222.361 72.6458C222.283 72.3094 222.135 71.9932 221.926 71.7181C221.718 71.443 221.453 71.2151 221.15 71.0494C219.302 70.0974 215.987 71.8544 214.671 73.1494C214.57 73.2474 213.366 74.7559 213.079 75.1549C213.226 73.7549 213.387 72.3549 213.604 70.9759C213.885 69.1217 214.285 67.2874 214.801 65.4844C214.927 65.5334 218.224 66.7759 219.82 66.6639C221.202 66.5694 222.938 66.0584 223.74 64.8299C223.936 64.5475 224.07 64.227 224.133 63.8893C224.197 63.5517 224.189 63.2044 224.11 62.87C224.031 62.5357 223.882 62.2217 223.674 61.9485C223.465 61.6754 223.202 61.4491 222.9 61.2844C221.052 60.3324 217.741 62.0894 216.421 63.3844C216.32 63.4894 215.021 65.1099 214.811 65.4214C214.839 65.3164 214.86 65.2044 214.892 65.1029C215.464 63.3098 216.192 61.5706 217.069 59.9054C217.541 58.9779 218.045 58.1204 218.556 57.2979C219.144 57.5919 221.86 58.9079 223.306 58.9674C224.706 59.0234 226.473 58.7084 227.404 57.5674C227.635 57.3087 227.808 57.0041 227.912 56.6737C228.015 56.3433 228.048 55.9946 228.008 55.6507C227.967 55.3067 227.854 54.9752 227.676 54.6782C227.497 54.3812 227.258 54.1253 226.974 53.9274C225.224 52.7794 221.755 54.1619 220.303 55.3274C220.222 55.3904 219.491 56.1219 218.966 56.6574C219.2 56.3074 219.438 55.9049 219.666 55.5584C220.537 54.2459 221.416 53.1084 222.2 52.0934C222.651 51.5229 223.068 51.0154 223.467 50.5464C224.198 50.5464 227.138 50.4449 228.426 49.8464C229.714 49.2479 231.118 48.1559 231.422 46.7209C231.507 46.3854 231.52 46.0356 231.46 45.6947C231.4 45.3538 231.269 45.0295 231.074 44.7431C230.88 44.4567 230.627 44.2148 230.332 44.0333C230.038 43.8517 229.708 43.7347 229.364 43.6899C227.296 43.4694 224.839 46.3009 224.083 47.9984C224.016 48.1454 223.26 50.5569 223.299 50.5569H223.341C222.949 51.0014 222.536 51.4844 222.095 52.0164C221.286 53.0104 220.38 54.1409 219.48 55.4394C218.492 56.8245 217.586 58.2667 216.768 59.7584C215.841 61.4238 215.065 63.1692 214.451 64.9734L214.43 65.0399C214.43 64.4309 214.43 62.7264 214.398 62.5899C214.16 60.7454 212.617 57.3399 210.569 56.9514C210.228 56.8963 209.879 56.914 209.544 57.0036C209.21 57.0931 208.899 57.2524 208.631 57.471C208.363 57.6895 208.144 57.9624 207.989 58.2716C207.834 58.5808 207.746 58.9193 207.731 59.2649C207.612 60.7279 208.672 62.1944 209.708 63.1149C210.874 64.1649 214.111 65.1659 214.37 65.2429C213.79 67.0947 213.332 68.9831 213.002 70.8954C212.802 72.0084 212.652 73.1354 212.487 74.2659C212.487 73.7374 212.487 73.2684 212.459 73.2159C212.221 71.3749 210.678 67.9659 208.63 67.5774C208.289 67.5228 207.94 67.541 207.607 67.6308C207.273 67.7206 206.962 67.88 206.694 68.0985C206.426 68.3169 206.208 68.5896 206.053 68.8985C205.898 69.2075 205.81 69.5457 205.795 69.8909C205.673 71.3574 206.733 72.8204 207.769 73.7409C208.805 74.6614 211.563 75.5959 212.291 75.8409C212.239 76.2749 212.179 76.7089 212.127 77.1464C211.878 79.2464 211.64 81.3149 211.339 83.3519C211.238 84.0519 211.108 84.7729 210.989 85.4764C210.989 85.0109 210.972 84.6154 210.965 84.5559C210.727 82.7149 209.183 79.3059 207.139 78.9174C206.798 78.8617 206.448 78.8791 206.113 78.9684C205.779 79.0577 205.467 79.2169 205.198 79.4355C204.93 79.6541 204.711 79.9271 204.555 80.2366C204.4 80.5461 204.312 80.885 204.297 81.2309C204.178 82.6939 205.239 84.1604 206.275 85.0809C207.311 86.0014 209.803 86.8309 210.667 87.1249C210.513 87.8249 210.363 88.5599 210.184 89.2459C210.051 89.7149 209.957 90.1734 209.796 90.6459C209.635 91.1184 209.502 91.5594 209.355 92.0109C209.043 92.8719 208.725 93.7609 208.399 94.5904C208.179 95.1679 207.955 95.7174 207.731 96.2669C207.846 95.5669 208.035 94.1669 208.039 94.0339C208.016 92.4007 207.575 90.8005 206.758 89.3859C206.762 89.2033 206.75 89.0206 206.723 88.8399C206.683 88.4953 206.571 88.163 206.393 87.8651C206.215 87.5672 205.976 87.3104 205.691 87.1119C205.406 86.9134 205.083 86.7775 204.742 86.7134C204.401 86.6493 204.05 86.6583 203.713 86.7399C201.704 87.2754 200.43 90.8034 200.335 92.6584C200.335 92.7669 200.398 93.9604 200.458 94.7129C200.356 94.2754 200.262 93.8484 200.153 93.4004C199.943 92.5114 199.705 91.6504 199.453 90.6844C199.313 90.2294 199.177 89.7709 199.037 89.3089C198.897 88.8469 198.711 88.3744 198.55 87.9089C198.151 86.8239 197.696 85.7389 197.213 84.6609C197.99 84.4754 200.745 83.7719 201.851 82.9109C202.957 82.0499 204.119 80.6849 204.108 79.2149C204.12 78.8689 204.057 78.5244 203.926 78.2042C203.794 77.884 203.596 77.5953 203.345 77.3572C203.093 77.1191 202.794 76.937 202.468 76.8228C202.141 76.7087 201.793 76.6651 201.448 76.6949C199.38 76.9189 197.598 80.2124 197.21 82.0324C197.189 82.1479 197.066 83.4814 197.014 84.2164C196.716 83.5689 196.426 82.9214 196.104 82.2774C195.18 80.4154 194.189 78.5604 193.206 76.7054C192.905 76.1384 192.611 75.5679 192.313 75.0009C192.593 74.9379 195.883 74.1714 197.119 73.2229C198.221 72.3794 199.387 70.9969 199.376 69.5304C199.388 69.1847 199.325 68.8406 199.194 68.5206C199.062 68.2007 198.865 67.9122 198.614 67.6741C198.363 67.4361 198.064 67.2539 197.738 67.1395C197.412 67.0251 197.065 66.9811 196.72 67.0104C194.651 67.2344 192.87 70.5104 192.481 72.3479C192.453 72.4844 192.282 74.4059 192.261 74.8959C191.61 73.6429 190.973 72.3864 190.392 71.1229C189.603 69.4185 188.925 67.6649 188.362 65.8729C188.491 65.8449 191.928 65.0644 193.199 64.0914C194.298 63.2479 195.467 61.8654 195.456 60.3954C195.468 60.0494 195.405 59.7049 195.274 59.3847C195.142 59.0645 194.944 58.7758 194.693 58.5377C194.441 58.2996 194.142 58.1175 193.816 58.0033C193.489 57.8892 193.141 57.8456 192.796 57.8754C190.731 58.1029 188.946 61.3964 188.561 63.2129C188.53 63.3564 188.344 65.4249 188.337 65.8029C188.306 65.6979 188.26 65.5929 188.232 65.4914C187.718 63.6807 187.367 61.8277 187.182 59.9544C187.067 58.9219 187.014 57.9279 186.983 56.9584C187.637 56.8814 190.63 56.4824 191.865 55.7334C193.101 54.9844 194.364 53.7699 194.515 52.3069C194.565 51.9644 194.541 51.6152 194.446 51.2824C194.351 50.9496 194.186 50.6408 193.963 50.3762C193.739 50.1117 193.463 49.8974 193.151 49.7476C192.839 49.5978 192.498 49.5157 192.152 49.5069C190.052 49.5069 187.924 52.5799 187.354 54.3474C187.322 54.4454 187.112 55.4569 186.972 56.1954C186.972 55.7579 186.948 55.3064 186.951 54.8864C186.951 53.3149 187.053 51.8764 187.151 50.5989C187.214 49.8744 187.284 49.2234 187.357 48.6109C187.959 48.1979 190.364 46.5109 191.102 45.2859C191.841 44.0609 192.415 42.3914 191.876 41.0264C191.762 40.6991 191.581 40.3996 191.343 40.1476C191.105 39.8956 190.817 39.6969 190.497 39.5646C190.177 39.4323 189.832 39.3694 189.486 39.3801C189.139 39.3907 188.799 39.4747 188.488 39.6264C186.626 40.5994 186.15 44.3199 186.447 46.1504C186.475 46.3079 187.172 48.7369 187.203 48.7159L187.238 48.6914C187.158 49.2794 187.077 49.9094 187.004 50.5989C186.878 51.8729 186.745 53.3149 186.71 54.8934C186.656 56.5945 186.703 58.2974 186.85 59.9929C186.996 61.8935 187.312 63.777 187.795 65.6209C187.795 65.6419 187.795 65.6629 187.816 65.6874C187.487 65.1729 186.524 63.7659 186.437 63.6644C185.222 62.2644 182.048 60.2624 180.137 61.0744C179.821 61.217 179.539 61.4249 179.31 61.6843C179.081 61.9438 178.909 62.249 178.806 62.5797C178.703 62.9105 178.671 63.2593 178.713 63.6031C178.755 63.9469 178.869 64.278 179.048 64.5744C179.734 65.8589 181.428 66.4994 182.8 66.6954Z" fill="#263238"/>
<path d="M218.465 56.9239C218.497 56.9449 219.127 54.4984 219.165 54.3374C219.421 52.4999 218.833 48.7934 216.96 47.8904C216.645 47.7469 216.303 47.6718 215.957 47.67C215.611 47.6682 215.269 47.7397 214.952 47.8799C214.636 48.0201 214.352 48.2258 214.121 48.4834C213.89 48.741 213.716 49.0447 213.611 49.3744C213.11 50.7534 213.747 52.4439 214.5 53.6094C215.371 54.9779 218.462 56.9204 218.465 56.9239Z" fill="#263238"/>
<path d="M273.013 137.85C273.839 138.2 275.858 138.165 275.862 138.165C275.865 138.165 275.428 136.842 275.389 136.765C274.945 135.838 273.541 134.315 272.4 134.459C272.212 134.49 272.032 134.56 271.872 134.665C271.712 134.77 271.576 134.908 271.473 135.069C271.37 135.23 271.302 135.411 271.274 135.6C271.245 135.789 271.257 135.982 271.308 136.167C271.497 136.954 272.309 137.549 273.013 137.85Z" fill="#263238"/>
<path d="M273.71 143.706C274.567 143.829 276.373 143.307 276.51 143.265C276.806 144.298 277.171 145.309 277.602 146.293C277.85 146.867 278.12 147.437 278.393 148.008C278.228 147.766 278.081 147.553 278.043 147.525C277.371 146.748 275.614 145.638 274.543 146.09C274.369 146.169 274.213 146.284 274.086 146.428C273.96 146.571 273.865 146.74 273.808 146.922C273.751 147.105 273.733 147.298 273.755 147.488C273.777 147.678 273.839 147.861 273.937 148.025C274.329 148.725 275.267 149.075 276.037 149.201C276.807 149.327 278.354 148.897 278.764 148.785L279.086 149.436C279.607 150.486 280.136 151.511 280.619 152.544C280.79 152.894 280.944 153.272 281.102 153.636C280.955 153.422 280.829 153.24 280.808 153.216C280.136 152.439 278.379 151.333 277.308 151.781C277.134 151.861 276.979 151.976 276.853 152.12C276.726 152.263 276.631 152.431 276.574 152.614C276.517 152.796 276.499 152.989 276.521 153.179C276.543 153.369 276.605 153.552 276.702 153.716C277.094 154.416 278.032 154.784 278.802 154.892C279.572 155.001 280.972 154.63 281.455 154.497C281.606 154.875 281.756 155.253 281.882 155.624C281.963 155.879 282.061 156.121 282.127 156.383C282.194 156.646 282.271 156.898 282.341 157.15C282.46 157.643 282.582 158.147 282.691 158.63C282.764 158.98 282.827 159.288 282.894 159.61C282.729 159.26 282.39 158.56 282.355 158.487C281.805 157.615 280.237 156.254 279.121 156.537C278.937 156.59 278.766 156.681 278.62 156.804C278.473 156.927 278.354 157.079 278.27 157.251C278.186 157.423 278.14 157.611 278.133 157.802C278.126 157.993 278.16 158.184 278.232 158.361C278.508 159.124 279.383 159.617 280.118 159.841C280.927 160.086 282.719 159.862 282.939 159.841C283.048 160.377 283.146 160.891 283.233 161.392C283.296 161.759 283.356 162.109 283.412 162.442H284.112C284.045 162.067 283.972 161.675 283.891 161.262C283.783 160.72 283.657 160.142 283.524 159.547C284.064 159.333 284.59 159.086 285.099 158.805C285.69 159.446 287.199 160.205 287.395 160.286C287.188 160.793 286.985 161.283 286.782 161.742L286.474 162.442H287.23C287.293 162.298 287.353 162.158 287.412 162.008C287.622 161.493 287.839 160.958 288.053 160.373C288.27 160.419 290.044 160.779 290.87 160.594C291.619 160.422 292.526 159.999 292.862 159.26C292.947 159.089 292.995 158.901 293.002 158.71C293.01 158.518 292.977 158.327 292.906 158.149C292.835 157.971 292.728 157.81 292.59 157.677C292.453 157.543 292.289 157.44 292.109 157.374C291.017 157.024 289.351 158.249 288.742 159.075C288.704 159.124 288.392 159.698 288.168 160.062C288.256 159.831 288.343 159.607 288.431 159.362C288.606 158.886 288.763 158.406 288.938 157.892C289.012 157.64 289.089 157.388 289.166 157.129C289.243 156.87 289.302 156.6 289.372 156.331C289.519 155.708 289.638 155.071 289.747 154.423C290.163 154.574 291.647 155.092 292.417 155.039C293.187 154.987 294.146 154.689 294.591 154.021C294.7 153.864 294.776 153.686 294.812 153.499C294.849 153.311 294.845 153.118 294.802 152.932C294.759 152.745 294.677 152.57 294.561 152.418C294.446 152.266 294.3 152.139 294.132 152.047C293.107 151.518 291.273 152.491 290.545 153.216C290.499 153.261 290.034 153.842 289.785 154.164C289.845 153.776 289.908 153.387 289.957 152.992C290.1 151.851 290.209 150.689 290.307 149.53C290.342 149.18 290.38 148.83 290.415 148.48C290.566 148.536 292.316 149.18 293.18 149.128C293.947 149.075 294.906 148.778 295.35 148.113C295.46 147.956 295.536 147.778 295.572 147.59C295.608 147.402 295.605 147.208 295.562 147.022C295.518 146.836 295.436 146.66 295.321 146.507C295.206 146.355 295.059 146.228 294.892 146.135C293.87 145.61 292.032 146.583 291.304 147.308C291.248 147.364 290.583 148.197 290.422 148.417C290.506 147.64 290.594 146.863 290.713 146.104C290.87 145.077 291.092 144.061 291.378 143.062C291.444 143.09 293.271 143.78 294.157 143.717C294.923 143.664 295.882 143.367 296.327 142.698C296.436 142.542 296.512 142.364 296.548 142.176C296.585 141.989 296.581 141.795 296.538 141.609C296.495 141.423 296.413 141.248 296.297 141.095C296.182 140.943 296.036 140.817 295.868 140.724C294.846 140.196 293.009 141.169 292.281 141.893C292.225 141.953 291.507 142.849 291.388 143.02C291.406 142.964 291.416 142.901 291.434 142.845C291.748 141.852 292.151 140.889 292.638 139.968C292.9 139.454 293.18 138.978 293.46 138.523C293.789 138.687 295.291 139.415 296.092 139.447C296.894 139.478 297.842 139.303 298.36 138.677C298.487 138.533 298.582 138.365 298.639 138.182C298.697 137.999 298.715 137.806 298.692 137.616C298.67 137.425 298.607 137.242 298.509 137.077C298.411 136.913 298.279 136.771 298.122 136.661C297.163 136.024 295.235 136.79 294.43 137.431C294.384 137.466 293.982 137.868 293.688 138.166C293.821 137.963 293.95 137.749 294.08 137.557C294.559 136.832 295.046 136.199 295.48 135.639C295.728 135.324 295.959 135.044 296.18 134.781C296.586 134.781 298.213 134.725 298.927 134.393C299.641 134.06 300.418 133.455 300.586 132.66C300.632 132.475 300.638 132.281 300.605 132.093C300.571 131.905 300.498 131.726 300.39 131.567C300.282 131.409 300.143 131.275 299.98 131.175C299.817 131.074 299.635 131.009 299.445 130.984C298.301 130.858 296.939 132.429 296.523 133.367C296.484 133.448 296.064 134.785 296.085 134.785H296.11C295.893 135.03 295.665 135.296 295.41 135.593C294.962 136.143 294.461 136.769 293.961 137.487C293.414 138.254 292.913 139.052 292.459 139.877C291.947 140.8 291.517 141.767 291.175 142.765C291.177 142.778 291.177 142.791 291.175 142.803C291.175 142.453 291.175 141.522 291.175 141.449C291.042 140.43 290.188 138.537 289.057 138.327C288.868 138.297 288.675 138.308 288.49 138.358C288.305 138.407 288.133 138.496 287.984 138.616C287.836 138.737 287.714 138.888 287.628 139.059C287.541 139.23 287.492 139.417 287.482 139.608C287.416 140.42 288.004 141.232 288.578 141.743C289.225 142.32 291.028 142.877 291.161 142.922C290.839 143.948 290.586 144.993 290.401 146.051C290.293 146.667 290.202 147.29 290.118 147.917C290.118 147.626 290.118 147.364 290.118 147.329C289.985 146.31 289.131 144.417 287.997 144.207C287.808 144.177 287.615 144.188 287.43 144.238C287.245 144.287 287.073 144.376 286.925 144.497C286.777 144.617 286.656 144.768 286.569 144.939C286.483 145.11 286.434 145.297 286.425 145.488C286.359 146.3 286.947 147.108 287.517 147.623C288.088 148.137 289.617 148.648 290.023 148.778C289.992 149.019 289.96 149.257 289.932 149.499C289.796 150.654 289.663 151.809 289.495 152.936C289.439 153.335 289.365 153.723 289.295 154.112C289.295 153.853 289.295 153.636 289.295 153.604C289.166 152.582 288.308 150.689 287.195 150.479C287.006 150.45 286.813 150.461 286.628 150.511C286.444 150.561 286.272 150.65 286.123 150.771C285.975 150.892 285.854 151.043 285.768 151.214C285.682 151.385 285.633 151.572 285.624 151.763C285.557 152.572 286.145 153.384 286.716 153.895C287.286 154.406 288.669 154.871 289.148 155.025C289.064 155.424 288.98 155.823 288.882 156.201C288.809 156.46 288.756 156.716 288.665 156.971L288.424 157.727C288.249 158.203 288.074 158.697 287.892 159.155C287.769 159.477 287.647 159.778 287.542 160.086C287.605 159.691 287.71 158.914 287.71 158.847C287.702 157.944 287.461 157.058 287.01 156.275C287.012 156.174 287.005 156.073 286.989 155.974C286.965 155.784 286.902 155.601 286.803 155.437C286.704 155.273 286.572 155.132 286.415 155.022C286.257 154.913 286.079 154.838 285.891 154.802C285.703 154.767 285.509 154.771 285.323 154.815C284.21 155.113 283.503 157.066 283.45 158.091C283.45 158.154 283.489 158.816 283.52 159.232C283.464 158.991 283.412 158.753 283.352 158.504C283.233 158.014 283.104 157.524 282.964 156.999C282.89 156.747 282.813 156.495 282.733 156.24C282.652 155.984 282.554 155.722 282.467 155.459C282.246 154.857 281.994 154.259 281.725 153.66C282.155 153.559 283.681 153.17 284.294 152.698C284.906 152.225 285.547 151.466 285.543 150.654C285.549 150.462 285.514 150.272 285.441 150.094C285.368 149.917 285.258 149.757 285.119 149.625C284.98 149.493 284.815 149.392 284.634 149.328C284.453 149.264 284.261 149.239 284.07 149.254C282.925 149.38 281.931 151.203 281.725 152.211C281.725 152.274 281.644 153.013 281.613 153.419C281.452 153.069 281.287 152.701 281.112 152.344C280.601 151.315 280.062 150.286 279.506 149.261C279.338 148.946 279.177 148.631 279.012 148.316C279.166 148.281 280.986 147.857 281.672 147.332C282.281 146.863 282.929 146.097 282.925 145.285C282.931 145.093 282.897 144.902 282.824 144.725C282.751 144.547 282.641 144.387 282.502 144.255C282.363 144.123 282.198 144.021 282.016 143.957C281.835 143.894 281.643 143.869 281.452 143.885C280.307 144.007 279.313 145.831 279.103 146.839C279.103 146.916 278.995 147.98 278.981 148.239C278.631 147.539 278.281 146.839 277.948 146.139C277.51 145.197 277.134 144.226 276.825 143.234C276.895 143.216 278.799 142.786 279.502 142.247C280.111 141.778 280.759 141.015 280.752 140.199C280.758 140.008 280.723 139.817 280.65 139.639C280.577 139.462 280.468 139.301 280.329 139.169C280.19 139.037 280.024 138.936 279.843 138.872C279.662 138.808 279.469 138.784 279.278 138.799C278.134 138.922 277.14 140.745 276.933 141.753C276.933 141.834 276.814 142.978 276.811 143.188C276.793 143.129 276.769 143.073 276.751 143.013C276.465 142.011 276.269 140.985 276.167 139.947C276.104 139.377 276.076 138.827 276.058 138.292C276.408 138.246 278.078 138.026 278.764 137.609C279.45 137.193 280.146 136.524 280.23 135.716C280.256 135.526 280.242 135.333 280.189 135.15C280.136 134.966 280.044 134.795 279.921 134.649C279.798 134.503 279.645 134.384 279.473 134.301C279.3 134.218 279.112 134.171 278.921 134.165C277.766 134.165 276.58 135.866 276.261 136.846C276.244 136.899 276.128 137.459 276.051 137.868C276.051 137.627 276.051 137.378 276.051 137.144C276.051 136.272 276.107 135.478 276.163 134.771C276.195 134.368 276.237 134.008 276.275 133.668C276.608 133.441 277.941 132.499 278.351 131.827C278.76 131.155 279.079 130.224 278.778 129.468C278.714 129.288 278.612 129.123 278.48 128.985C278.348 128.846 278.189 128.737 278.012 128.664C277.835 128.592 277.644 128.557 277.453 128.563C277.262 128.569 277.074 128.615 276.902 128.698C275.88 129.227 275.61 131.285 275.778 132.3C275.796 132.387 276.181 133.731 276.198 133.721H276.219C276.174 134.046 276.128 134.396 276.086 134.771C276.016 135.471 275.946 136.276 275.925 137.151C275.891 138.092 275.913 139.034 275.992 139.972C276.073 141.025 276.247 142.068 276.513 143.09V143.125C276.331 142.842 275.813 142.075 275.75 142.009C275.078 141.228 273.321 140.122 272.25 140.574C272.076 140.654 271.921 140.769 271.795 140.913C271.669 141.056 271.574 141.224 271.517 141.407C271.46 141.589 271.442 141.782 271.464 141.972C271.486 142.162 271.547 142.345 271.645 142.509C272.012 143.241 272.95 143.594 273.71 143.706Z" fill="#263238"/>
<path d="M293.46 138.295C293.46 138.295 293.81 136.951 293.842 136.863C293.982 135.845 293.656 133.79 292.62 133.29C292.445 133.212 292.256 133.171 292.065 133.171C291.874 133.171 291.684 133.211 291.509 133.288C291.335 133.366 291.178 133.479 291.05 133.621C290.921 133.763 290.824 133.93 290.765 134.112C290.489 134.875 290.839 135.813 291.259 136.457C291.749 137.217 293.46 138.291 293.46 138.295Z" fill="#263238"/>
<path d="M268.348 64.8418H201.494C199.215 64.8418 197.368 66.6893 197.368 68.9683V158.309C197.368 160.588 199.215 162.436 201.494 162.436H268.348C270.627 162.436 272.474 160.588 272.474 158.309V68.9683C272.474 66.6893 270.627 64.8418 268.348 64.8418Z" fill="#263238"/>
<path d="M268.879 70.6133H200.962V157.805H268.879V70.6133Z" fill="white" stroke="#263238" stroke-width="0.802752" stroke-linecap="round" stroke-linejoin="round"/>
<path d="M221.129 83.6709H248.713" stroke="#263238" stroke-width="0.802752" stroke-linecap="round" stroke-linejoin="round"/>
<path d="M252.311 95.5537H261.869" stroke="#263238" stroke-width="0.802752" stroke-linecap="round" stroke-linejoin="round"/>
<path d="M224.811 95.5537H250.036" stroke="#263238" stroke-width="0.802752" stroke-linecap="round" stroke-linejoin="round"/>
<path d="M213.055 95.5537H223.107" stroke="#263238" stroke-width="0.802752" stroke-linecap="round" stroke-linejoin="round"/>
<path d="M207.973 95.5537H210.591" stroke="#263238" stroke-width="0.802752" stroke-linecap="round" stroke-linejoin="round"/>
<path d="M252.5 104.889H261.869" stroke="#263238" stroke-width="0.802752" stroke-linecap="round" stroke-linejoin="round"/>
<path d="M236.949 104.889H250.606" stroke="#263238" stroke-width="0.802752" stroke-linecap="round" stroke-linejoin="round"/>
<path d="M213.625 104.889H234.863" stroke="#263238" stroke-width="0.802752" stroke-linecap="round" stroke-linejoin="round"/>
<path d="M207.973 104.889H211.158" stroke="#263238" stroke-width="0.802752" stroke-linecap="round" stroke-linejoin="round"/>
<path d="M247.19 114.227H261.869" stroke="#263238" stroke-width="0.802752" stroke-linecap="round" stroke-linejoin="round"/>
<path d="M215.711 114.227H244.537" stroke="#263238" stroke-width="0.802752" stroke-linecap="round" stroke-linejoin="round"/>
<path d="M207.973 114.227H213.433" stroke="#263238" stroke-width="0.802752" stroke-linecap="round" stroke-linejoin="round"/>
<path d="M258.379 123.561H261.869" stroke="#263238" stroke-width="0.802752" stroke-linecap="round" stroke-linejoin="round"/>
<path d="M217.986 123.561H254.778" stroke="#263238" stroke-width="0.802752" stroke-linecap="round" stroke-linejoin="round"/>
<path d="M207.973 123.561H215.33" stroke="#263238" stroke-width="0.802752" stroke-linecap="round" stroke-linejoin="round"/>
<path d="M257.813 132.899H261.869" stroke="#263238" stroke-width="0.802752" stroke-linecap="round" stroke-linejoin="round"/>
<path d="M226.141 132.899H254.778" stroke="#263238" stroke-width="0.802752" stroke-linecap="round" stroke-linejoin="round"/>
<path d="M207.973 132.899H223.674" stroke="#263238" stroke-width="0.802752" stroke-linecap="round" stroke-linejoin="round"/>
<path d="M243.589 142.233H261.869" stroke="#263238" stroke-width="0.802752" stroke-linecap="round" stroke-linejoin="round"/>
<path d="M207.973 142.233H239.984" stroke="#263238" stroke-width="0.802752" stroke-linecap="round" stroke-linejoin="round"/>
<path d="M243.865 62.8708C243.533 62.8676 243.209 62.7743 242.925 62.6009C242.642 62.4276 242.411 62.1806 242.258 61.8863C242.104 61.5921 242.033 61.2616 242.052 60.9301C242.072 60.5987 242.18 60.2787 242.367 60.0043C242.979 59.0257 243.317 57.9006 243.345 56.7467C243.372 55.5929 243.089 54.4528 242.525 53.4459C241.961 52.439 241.137 51.6022 240.138 51.0234C239.14 50.4445 238.004 50.1448 236.85 50.1556C235.696 50.1664 234.566 50.4873 233.578 51.0847C232.591 51.6822 231.782 52.5342 231.237 53.5515C230.692 54.5688 230.43 55.714 230.479 56.8671C230.529 58.0202 230.887 59.1388 231.517 60.1058C231.687 60.3822 231.779 60.6989 231.785 61.023C231.79 61.3471 231.709 61.6668 231.549 61.9489C231.39 62.231 231.157 62.4653 230.877 62.6274C230.596 62.7895 230.277 62.8735 229.953 62.8708H218.753L221.777 71.5578H252.02L255.044 62.8708H243.865ZM236.9 59.1713C236.454 59.172 236.018 59.0403 235.647 58.7929C235.276 58.5455 234.986 58.1935 234.815 57.7815C234.644 57.3695 234.599 56.916 234.686 56.4784C234.773 56.0409 234.988 55.6389 235.303 55.3235C235.619 55.008 236.02 54.7933 236.458 54.7064C236.896 54.6196 237.349 54.6645 237.761 54.8355C238.173 55.0066 238.525 55.296 238.773 55.6672C239.02 56.0384 239.152 56.4747 239.151 56.9208C239.151 57.5177 238.914 58.0901 238.492 58.5121C238.07 58.9342 237.497 59.1713 236.9 59.1713Z" fill="white" stroke="#263238" stroke-width="0.802752" stroke-linecap="round" stroke-linejoin="round"/>
<path d="M219.72 150.6C222.9 147.712 223.137 142.794 220.25 139.614C217.362 136.434 212.444 136.197 209.264 139.085C206.084 141.972 205.847 146.89 208.734 150.07C211.622 153.25 216.54 153.487 219.72 150.6Z" fill="#263238" stroke="#263238" stroke-width="0.802752" stroke-linecap="round" stroke-linejoin="round"/>
<path d="M215.053 148.099C214.803 148.097 214.557 148.041 214.33 147.936C214.104 147.831 213.903 147.679 213.74 147.49L210.328 143.5C210.157 143.329 210.024 143.125 209.936 142.901C209.848 142.677 209.808 142.436 209.817 142.196C209.827 141.955 209.886 141.718 209.99 141.502C210.095 141.285 210.244 141.092 210.427 140.935C210.61 140.778 210.823 140.66 211.054 140.59C211.284 140.519 211.527 140.497 211.766 140.525C212.005 140.552 212.237 140.629 212.445 140.75C212.653 140.871 212.835 141.034 212.977 141.228L215.077 143.699L222.077 135.887C222.225 135.699 222.41 135.542 222.621 135.428C222.832 135.314 223.064 135.244 223.303 135.223C223.541 135.203 223.782 135.231 224.009 135.307C224.237 135.383 224.446 135.505 224.624 135.665C224.803 135.826 224.946 136.021 225.046 136.239C225.146 136.457 225.199 136.693 225.204 136.933C225.209 137.172 225.164 137.411 225.073 137.632C224.982 137.854 224.846 138.055 224.674 138.222L216.33 147.514C216.166 147.696 215.966 147.841 215.742 147.941C215.518 148.04 215.276 148.092 215.032 148.092L215.053 148.099Z" fill="#249748"/>
<path d="M223.411 135.838C223.647 135.837 223.878 135.905 224.077 136.034C224.275 136.162 224.432 136.345 224.528 136.561C224.624 136.777 224.656 137.016 224.618 137.25C224.581 137.483 224.476 137.7 224.317 137.875L215.973 147.168C215.859 147.296 215.719 147.398 215.563 147.468C215.407 147.538 215.238 147.574 215.067 147.574C214.893 147.573 214.721 147.534 214.563 147.46C214.405 147.387 214.266 147.28 214.153 147.147L210.723 143.15C210.615 143.029 210.532 142.887 210.48 142.733C210.427 142.58 210.405 142.417 210.416 142.255C210.427 142.093 210.47 141.935 210.543 141.79C210.616 141.644 210.717 141.515 210.84 141.41C210.964 141.304 211.107 141.224 211.262 141.174C211.416 141.125 211.579 141.106 211.741 141.12C211.903 141.134 212.06 141.181 212.204 141.256C212.348 141.332 212.475 141.435 212.578 141.561L215.088 144.487L222.501 136.23C222.615 136.102 222.755 136 222.912 135.93C223.069 135.86 223.239 135.824 223.411 135.824M223.411 134.774C223.092 134.775 222.777 134.842 222.486 134.972C222.195 135.102 221.934 135.291 221.72 135.527L215.105 142.894L213.376 140.878C213.184 140.646 212.947 140.454 212.68 140.314C212.412 140.174 212.12 140.088 211.819 140.063C211.519 140.037 211.216 140.071 210.929 140.164C210.641 140.257 210.376 140.405 210.147 140.602C209.917 140.798 209.73 141.038 209.595 141.308C209.46 141.578 209.379 141.872 209.359 142.173C209.339 142.474 209.379 142.776 209.477 143.062C209.574 143.347 209.728 143.61 209.929 143.836L213.341 147.819C213.552 148.063 213.812 148.261 214.105 148.397C214.397 148.533 214.716 148.606 215.039 148.61H215.067C215.385 148.61 215.7 148.543 215.99 148.414C216.281 148.284 216.541 148.095 216.754 147.857L225.101 138.565C225.393 138.238 225.585 137.833 225.652 137.4C225.72 136.967 225.661 136.523 225.482 136.123C225.303 135.722 225.013 135.382 224.645 135.143C224.278 134.904 223.849 134.776 223.411 134.774Z" fill="#263238"/>
<path d="M237.068 54.6665V32.9385" stroke="#263238" stroke-width="0.802752" stroke-linecap="round" stroke-linejoin="round"/>
<path d="M236.074 28.5879V30.6144L235.265 32.0144C235.265 32.2388 235.309 32.4611 235.394 32.6686C235.48 32.876 235.606 33.0645 235.764 33.2232C235.923 33.3819 236.112 33.5076 236.319 33.5933C236.526 33.679 236.749 33.7229 236.973 33.7224C237.197 33.7224 237.419 33.6782 237.626 33.5923C237.833 33.5064 238.021 33.3806 238.18 33.2219C238.338 33.0633 238.463 32.875 238.549 32.6677C238.634 32.4605 238.678 32.2385 238.678 32.0144V30.6144" stroke="#263238" stroke-width="2.40826" stroke-linecap="round" stroke-linejoin="round"/>
<path d="M234.313 28.4941H237.729V24.7001H234.313V28.4941Z" fill="white" stroke="#263238" stroke-width="0.802752" stroke-linecap="round" stroke-linejoin="round"/>
<path d="M233.054 27.2266H238.997V19.6071H233.054V27.2266Z" fill="white" stroke="#263238" stroke-width="0.802752" stroke-linecap="round" stroke-linejoin="round"/>
<path d="M231.282 25.7744H240.704V23.4364H231.282V25.7744Z" fill="white" stroke="#263238" stroke-width="0.802752" stroke-linecap="round" stroke-linejoin="round"/>
<path d="M236.021 23.4326H237.372L239.28 25.5956L239.08 25.7741H238.086L236.021 23.4326Z" fill="#263238"/>
<path d="M239.962 23.4326L240.704 24.2691V25.7741H240.68L238.615 23.4326H239.962Z" fill="#263238"/>
<path d="M233.431 23.4326H234.779L236.686 25.5956L236.487 25.7741H235.493L233.431 23.4326Z" fill="#263238"/>
<path d="M231.279 23.9366V23.4326H232.185L234.093 25.5956L233.893 25.7741H232.899L231.279 23.9366Z" fill="#263238"/>
<path d="M236.158 19.4746V14.8896" stroke="#263238" stroke-width="1.6055" stroke-linecap="round" stroke-linejoin="round"/>
<path d="M174.064 14.7735H238.538V12.026L226.074 6.74805H174.064" stroke="#263238" stroke-width="1.6055" stroke-linecap="round" stroke-linejoin="round"/>
<path d="M226.074 14.7735V6.74805L217.839 14.7735V6.74805L226.074 14.7735Z" stroke="#263238" stroke-width="1.6055" stroke-linecap="round" stroke-linejoin="round"/>
<path d="M217.849 14.7735V6.74805L209.61 14.7735V6.74805L217.849 14.7735Z" stroke="#263238" stroke-width="1.6055" stroke-linecap="round" stroke-linejoin="round"/>
<path d="M209.621 14.7735V6.74805L201.385 14.7735V6.74805L209.621 14.7735Z" stroke="#263238" stroke-width="1.6055" stroke-linecap="round" stroke-linejoin="round"/>
<path d="M201.396 14.7735V6.74805L193.157 14.7735V6.74805L201.396 14.7735Z" stroke="#263238" stroke-width="1.6055" stroke-linecap="round" stroke-linejoin="round"/>
<path d="M193.167 14.7735V6.74805L184.932 14.7735V6.74805L193.167 14.7735Z" stroke="#263238" stroke-width="1.6055" stroke-linecap="round" stroke-linejoin="round"/>
<path d="M184.943 14.7735V6.74805L176.704 14.7735V6.74805L184.943 14.7735Z" stroke="#263238" stroke-width="1.6055" stroke-linecap="round" stroke-linejoin="round"/>
<path d="M310.722 96.3998L306.389 108.359L306.113 108.289L303.663 106.515L302.756 107.407L303.708 112.087C303.708 112.087 307.558 114.068 308.258 113.938C308.78 113.831 309.293 113.682 309.791 113.494C309.791 113.494 312.213 96.8479 312.276 96.5259C312.339 96.2039 311.933 95.3148 310.722 96.3998Z" fill="white" stroke="#263238" stroke-width="0.802752" stroke-linecap="round" stroke-linejoin="round"/>
<path d="M311.891 158.899C311.891 158.899 310.68 160.744 309.693 161.521C308.706 162.298 306.389 163.418 305.745 163.939C305.101 164.461 305.395 164.926 305.608 165.15C305.822 165.374 308.811 165.539 310.431 165.542C312.052 165.546 314.981 164.842 314.981 164.842C314.981 164.842 316.276 165.049 316.605 164.884C316.934 164.72 317.141 164.352 317.193 163.778C317.246 163.204 317.057 159.963 317.057 159.963L311.891 158.899Z" fill="white" stroke="#263238" stroke-width="0.802752" stroke-linecap="round" stroke-linejoin="round"/>
<path d="M315.37 163.985C314.11 164.188 313.862 164.475 311.419 164.839C309.41 165.14 306.431 164.769 305.35 164.576C305.352 164.683 305.376 164.789 305.42 164.887C305.465 164.984 305.529 165.071 305.609 165.143C305.829 165.367 308.811 165.532 310.432 165.535C312.052 165.539 314.982 164.835 314.982 164.835C314.982 164.835 316.277 165.042 316.606 164.877C316.935 164.713 317.138 164.349 317.19 163.785C316.58 163.817 315.972 163.883 315.37 163.985Z" fill="#263238" stroke="#263238" stroke-width="0.802752" stroke-linecap="round" stroke-linejoin="round"/>
<path d="M312.945 160.254C312.945 160.254 311.545 159.631 310.6 160.681" stroke="#263238" stroke-width="1.6055" stroke-linecap="round" stroke-linejoin="round"/>
<path d="M311.349 159.725C311.349 159.725 312.427 160.568 312.283 161.475" stroke="#263238" stroke-width="1.6055" stroke-linecap="round" stroke-linejoin="round"/>
<path d="M311.898 161.227C311.898 161.227 310.795 160.716 310.046 161.577" stroke="#263238" stroke-width="1.6055" stroke-linecap="round" stroke-linejoin="round"/>
<path d="M310.642 160.797C310.642 160.797 311.489 161.497 311.37 162.232" stroke="#263238" stroke-width="1.6055" stroke-linecap="round" stroke-linejoin="round"/>
<path d="M311.1 162.214C311.1 162.214 310.082 161.734 308.479 162.301" stroke="#263238" stroke-width="1.6055" stroke-linecap="round" stroke-linejoin="round"/>
<path d="M309.812 161.776C309.889 161.854 309.947 161.947 309.982 162.05C310.017 162.153 310.028 162.263 310.015 162.37C310.001 162.478 309.963 162.582 309.904 162.673C309.845 162.764 309.766 162.84 309.672 162.896" stroke="#263238" stroke-width="1.6055" stroke-linecap="round" stroke-linejoin="round"/>
<path d="M319.875 160.65C319.875 160.65 319.276 162.792 319.063 163.1C318.849 163.408 317.421 165.2 317.407 165.826C317.393 166.453 317.852 166.936 318.989 167.195C320.127 167.454 321.891 167.545 323.298 166.904C324.705 166.264 325.338 166.054 325.692 165.074C326.045 164.094 325.811 160.807 325.811 160.807C325.811 160.807 321.418 157.57 319.875 160.65Z" fill="white" stroke="#263238" stroke-width="0.802752" stroke-linecap="round" stroke-linejoin="round"/>
<path d="M325.691 165.063C325.827 164.532 325.891 163.984 325.88 163.436C325.586 163.903 325.256 164.346 324.893 164.762C324.193 165.529 323.01 166.379 320.728 166.547C319.552 166.649 318.383 166.29 317.466 165.546C317.435 165.633 317.415 165.723 317.407 165.816C317.407 166.456 317.851 166.925 318.989 167.184C320.126 167.443 321.89 167.534 323.297 166.894C324.704 166.253 325.338 166.043 325.691 165.063Z" fill="#263238" stroke="#263238" stroke-width="0.802752" stroke-linecap="round" stroke-linejoin="round"/>
<path d="M322.965 159.922C322.965 159.922 321.047 159.827 320.445 160.972" stroke="#263238" stroke-width="1.6055" stroke-linecap="round" stroke-linejoin="round"/>
<path d="M320.865 159.949C320.865 159.949 322.513 160.299 322.765 161.083" stroke="#263238" stroke-width="1.6055" stroke-linecap="round" stroke-linejoin="round"/>
<path d="M322.584 161.321C322.584 161.321 320.662 161.23 320.06 162.371" stroke="#263238" stroke-width="1.6055" stroke-linecap="round" stroke-linejoin="round"/>
<path d="M320.48 161.35C320.48 161.35 322.128 161.7 322.384 162.484" stroke="#263238" stroke-width="1.6055" stroke-linecap="round" stroke-linejoin="round"/>
<path d="M322.202 162.721C322.202 162.721 320.281 162.63 319.679 163.771" stroke="#263238" stroke-width="1.6055" stroke-linecap="round" stroke-linejoin="round"/>
<path d="M320.099 162.749C320.099 162.749 321.748 163.099 322 163.883" stroke="#263238" stroke-width="1.6055" stroke-linecap="round" stroke-linejoin="round"/>
<path d="M308.391 118.601C308.391 118.601 309.126 129.734 309.441 132.86C309.756 135.985 310.523 143.192 310.586 143.384C310.649 143.577 310.841 146.125 310.841 146.125C310.841 146.125 310.652 147.147 310.908 149.38C311.163 151.613 311.926 156.268 311.926 156.268C311.926 156.268 311.289 156.394 311.352 156.905C311.415 157.416 311.671 158.819 311.671 158.819C311.671 158.819 314.096 159.645 314.796 159.712C315.496 159.778 316.896 159.712 316.896 159.712C316.896 159.712 317.47 158.753 317.407 158.245C317.275 157.618 317.104 157 316.896 156.394L317.215 152.631L317.75 137.263C317.75 137.263 319.728 152.25 320.046 153.331C320.365 154.413 320.683 156.131 320.683 156.131C320.683 156.131 320.046 156.642 320.046 156.961C320.046 157.279 320.176 159.512 320.176 159.512C320.176 159.512 321.45 158.49 322.661 158.683C323.872 158.875 325.853 160.279 325.853 160.279C325.931 159.632 326.058 158.992 326.234 158.364C326.49 157.535 325.979 155.431 325.849 154.864C325.702 154.215 325.681 153.544 325.786 152.887C325.916 152.313 325.979 150.528 326.042 149.954C326.105 149.38 325.979 135.093 325.979 135.093L327.281 118.73L308.731 118.156L308.391 118.601Z" fill="#263238" stroke="#263238" stroke-width="0.802752" stroke-linecap="round" stroke-linejoin="round"/>
<path d="M315.188 91.1531C315.188 91.1531 311.247 92.9591 310.988 93.6031C310.729 94.2471 309.399 107.288 308.633 112.503C307.866 117.718 308.195 119.104 308.195 119.104C308.195 119.104 309.018 120.802 317.064 120.525C325.111 120.249 327.96 119.048 328.068 118.338C328.177 117.627 328.289 118.527 328.289 118.033C328.289 117.54 328.891 94.2751 328.289 92.8506C327.687 91.4261 324.292 89.0741 323.305 88.9656C322.318 88.8571 315.188 91.1531 315.188 91.1531Z" fill="#249748" stroke="#263238" stroke-width="0.802752" stroke-linecap="round" stroke-linejoin="round"/>
<path d="M321.694 90.0889C319.286 90.6804 315.188 92.0034 315.188 92.0034C315.188 92.0034 311.247 93.8094 310.988 94.4534C310.898 94.8136 310.834 95.1796 310.795 95.5489C312.545 94.5549 316.637 92.2449 318.016 91.8109C319.139 91.4643 320.294 91.2298 321.463 91.1109L326.017 94.1489L327.928 94.1979C327.928 94.1979 323.64 90.4214 322.429 90.0959C322.186 90.0578 321.938 90.0554 321.694 90.0889Z" fill="white" stroke="#263238" stroke-width="0.802752" stroke-linecap="round" stroke-linejoin="round"/>
<path d="M308.629 113.291V113.354C308.496 114.261 308.405 115.076 308.339 115.822C312.38 116.638 316.506 116.951 320.624 116.753C324.824 116.497 327.155 116.343 328.341 116.266C328.341 115.549 328.373 114.716 328.39 113.795C325.583 114.1 314.628 115.048 308.629 113.291Z" fill="white" stroke="#263238" stroke-width="0.802752" stroke-linecap="round" stroke-linejoin="round"/>
<path d="M311.506 117.655C311.534 118.152 311.576 118.635 311.629 119.104" stroke="#263238" stroke-width="0.802752" stroke-miterlimit="10"/>
<path d="M312.703 106.112C312.15 109.416 311.391 112.699 311.468 116.549" stroke="#263238" stroke-width="0.802752" stroke-miterlimit="10"/>
<path d="M313.711 101.913C313.711 101.913 313.302 103.621 312.847 106.152" stroke="#263238" stroke-width="0.802752" stroke-miterlimit="10"/>
<path d="M301.398 120.614C301.398 120.614 302.203 122.042 303.634 120.453C304.404 119.602 307.299 110.765 307.299 110.765C307.299 110.765 301.65 119.7 301.398 120.614Z" fill="white" stroke="#263238" stroke-width="0.802752" stroke-linecap="round" stroke-linejoin="round"/>
<path d="M295.994 93.8971L299.746 92.5986C299.746 92.5986 299.708 100.649 300.254 102.563L300.796 104.485C300.796 104.485 297.149 98.4016 296.369 96.3716C295.588 94.3416 295.994 93.8971 295.994 93.8971Z" fill="white" stroke="#263238" stroke-width="0.802752" stroke-linecap="round" stroke-linejoin="round"/>
<path d="M303.75 105.57C303.75 105.57 303.085 103.733 301.948 104.111C300.81 104.489 299.974 104.461 299.886 104.968C299.799 105.476 302.756 107.418 302.756 107.418C302.756 107.418 304.853 107.285 303.75 105.57Z" fill="white" stroke="#263238" stroke-width="0.802752" stroke-linecap="round" stroke-linejoin="round"/>
<path d="M305.15 114.247C305.15 114.247 301.454 120.361 301.405 120.613C301.405 120.613 298.871 116.322 295.455 111.065C292.039 105.808 288.826 93.3763 288.826 93.3763C289.806 92.3889 291.092 91.7633 292.473 91.6018C294.874 91.2798 295.7 91.3743 295.7 91.3743C295.7 91.3743 297.989 99.4697 300.523 103.201C302.199 105.602 304.124 107.82 306.267 109.816L307.317 110.764L305.15 114.247Z" fill="white" stroke="#263238" stroke-width="0.802752" stroke-linecap="round" stroke-linejoin="round"/>
<path d="M295.378 104.208C297.572 105.019 299.807 105.713 302.074 106.287" stroke="#263238" stroke-width="0.802752" stroke-miterlimit="10"/>
<path d="M293.331 103.452C293.331 103.452 293.625 103.568 294.122 103.75" stroke="#263238" stroke-width="0.802752" stroke-miterlimit="10"/>
<path d="M296.988 102.657C296.988 102.657 299.386 105.062 301.888 105.538" stroke="#263238" stroke-width="0.802752" stroke-miterlimit="10"/>
<path d="M309.217 108.829C309.217 108.829 306.151 107.404 305.658 107.352C305.164 107.299 302.648 108.279 302.375 108.5C302.102 108.72 301.99 109.2 302.319 109.266C302.648 109.333 303.194 108.937 303.194 108.937L304.618 108.664L305.276 109.046C305.276 109.046 302.977 110.414 302.756 110.855C302.536 111.296 302.154 112.112 302.375 112.276C302.595 112.441 302.704 112.826 303.029 112.826C303.203 112.828 303.376 112.817 303.547 112.791C303.963 112.725 304.352 112.547 304.674 112.276C305.164 111.839 306.26 112.003 306.26 112.003C306.26 112.003 307.576 112.441 307.905 112.332C308.3 112.157 308.684 111.956 309.053 111.73H309.655L309.217 108.829Z" fill="white" stroke="#263238" stroke-width="0.802752" stroke-linecap="round" stroke-linejoin="round"/>
<path d="M302.375 112.276C302.375 112.276 303.547 111.054 303.68 110.897C303.813 110.739 305.801 109.738 305.801 109.738" stroke="#263238" stroke-width="0.802752" stroke-miterlimit="10"/>
<path d="M303.029 112.826C303.029 112.826 304.618 111.426 304.73 111.342C304.842 111.258 306.179 110.719 306.179 110.719" stroke="#263238" stroke-width="0.802752" stroke-miterlimit="10"/>
<path d="M327.452 93.7541C327.452 93.7541 325.317 93.0541 323.84 95.3431C322.363 97.6321 321.478 108.713 321.478 108.713L309.228 108.829L309.445 112.224C309.445 112.224 321.051 113.477 323.294 113.477C325.538 113.477 326.143 113.858 326.416 113.039C326.689 112.22 329.104 102.242 329.433 99.0671C329.762 95.8926 328.492 93.9746 327.452 93.7541Z" fill="white" stroke="#263238" stroke-width="0.802752" stroke-linecap="round" stroke-linejoin="round"/>
<path d="M309.35 118.793C309.35 118.793 305.969 118.282 305.777 118.664C305.584 119.045 305.777 124.264 306.095 124.596C306.414 124.929 308.584 125.363 309.221 124.978C309.858 124.593 310.243 124.341 310.369 124.022C310.495 123.704 310.498 119.686 310.243 119.175C310.152 119.027 310.017 118.911 309.857 118.842C309.697 118.774 309.52 118.757 309.35 118.793Z" fill="#263238" stroke="#263238" stroke-width="0.802752" stroke-linecap="round" stroke-linejoin="round"/>
<path d="M313.365 119.429C313.365 119.429 312.85 124.599 313.683 124.914C314.612 125.198 315.582 125.328 316.553 125.299C316.872 125.232 318.02 125.043 318.212 124.532C318.405 124.021 318.401 120.003 318.275 119.632C318.149 119.261 313.683 118.918 313.365 119.429Z" fill="#263238" stroke="#263238" stroke-width="0.802752" stroke-linecap="round" stroke-linejoin="round"/>
<path d="M321.4 120.004C321.4 120.004 321.656 125.807 321.782 126.062C321.908 126.318 324.333 127.914 324.778 127.847C325.222 127.781 328.796 127.403 328.978 126.699C329.16 125.996 329.615 120.322 329.233 119.699C328.852 119.076 328.022 118.807 327.256 118.744C326.489 118.681 322.027 119.318 322.027 119.318C321.855 119.331 321.694 119.409 321.578 119.537C321.462 119.664 321.398 119.831 321.4 120.004Z" fill="#263238" stroke="#263238" stroke-width="0.802752" stroke-linecap="round" stroke-linejoin="round"/>
<path d="M316.833 89.7041L314.205 91.1286L315.136 92.8261L313.82 101.037C313.82 101.037 321.6 90.9081 321.705 90.7436C322.211 90.396 322.741 90.0849 323.291 89.8126L322.797 87.7861L321.978 88.0066L316.833 89.7041Z" fill="#263238" stroke="#263238" stroke-width="0.802752" stroke-linecap="round" stroke-linejoin="round"/>
<path d="M314.058 78.3994C314.058 78.3994 313.585 79.8589 313.585 80.0549C313.61 80.3195 313.65 80.5824 313.704 80.8424C313.704 80.8424 312.248 82.8899 312.325 83.0054C312.402 83.1209 313.27 84.0309 313.27 84.0309C313.27 84.0309 313.347 87.1004 313.743 87.1424C314.138 87.1844 316.697 87.1809 316.697 87.1809L316.459 91.6679L322.325 88.2834L322.444 84.3459C322.444 84.3459 324.019 82.3369 324.019 81.3149C324.019 80.2929 323.861 80.0934 323.861 80.0934L314.058 78.3994Z" fill="white" stroke="#263238" stroke-width="0.802752" stroke-linecap="round" stroke-linejoin="round"/>
<path d="M323.861 80.0903L317.593 79.0088L317.642 79.4603L317.404 81.6268C317.404 81.6268 319.056 80.4858 319.371 80.3283C319.686 80.1708 320.316 81.2733 319.962 81.9418C319.609 82.6103 318.426 83.5168 318.426 83.5168C318.426 83.5168 319.728 84.8538 321.065 84.9168C321.523 84.9455 321.983 84.9078 322.43 84.8048V84.3253C322.43 84.3253 324.005 82.3163 324.005 81.2943C324.005 80.2723 323.861 80.0903 323.861 80.0903Z" fill="#263238" stroke="#263238" stroke-width="0.802752" stroke-linecap="round" stroke-linejoin="round"/>
<path d="M313.977 79.9321C314.166 79.8201 314.388 79.7784 314.604 79.8143C314.821 79.8501 315.018 79.9613 315.16 80.1281" stroke="#263238" stroke-width="0.802752" stroke-miterlimit="10"/>
<path d="M314.372 81.4684C314.481 81.4684 314.568 81.2569 314.568 80.9959C314.568 80.735 314.481 80.5234 314.372 80.5234C314.264 80.5234 314.176 80.735 314.176 80.9959C314.176 81.2569 314.264 81.4684 314.372 81.4684Z" fill="#263238"/>
<path d="M315.595 87.0968L317.996 86.8203L316.697 88.3568V87.1773L315.595 87.0968Z" fill="#263238" stroke="#263238" stroke-width="0.802752" stroke-miterlimit="10"/>
<path d="M320.239 80.6815L322.43 84.822L323.466 83.8315L321.499 80.5625L320.239 80.6815Z" fill="white" stroke="#263238" stroke-width="0.802752" stroke-linecap="round" stroke-linejoin="round"/>
<path d="M313.284 77.4544C313.284 77.4544 310.509 77.8044 310.852 77.9304C311.195 78.0564 325.524 82.4594 325.524 82.4594C325.393 82.009 325.297 81.5491 325.237 81.0839C325.237 80.7339 325.811 78.5044 325.587 76.2119C325.363 73.9194 320.512 72.6384 318.107 72.4109C315.703 72.1834 314.495 73.3279 314.257 74.5879C314.032 75.5743 313.706 76.5348 313.284 77.4544Z" fill="#249748" stroke="#263238" stroke-width="0.802752" stroke-linecap="round" stroke-linejoin="round"/>
<path d="M317.26 78.6548L314.73 77.7448C314.73 77.7448 316.2 74.4023 316.147 73.9963C316.118 73.7442 316.101 73.4907 316.098 73.2368C316.098 73.2368 316.147 72.5788 318.377 72.8343" stroke="#263238" stroke-width="0.802752" stroke-linecap="round" stroke-linejoin="round"/>
</g>
<defs>
<clipPath id="clip0_244_4358">
<rect width="507" height="165" fill="white"/>
</clipPath>
</defs>
</svg>
