<svg width="507" height="165" viewBox="0 0 507 165" fill="none" xmlns="http://www.w3.org/2000/svg">
<g clip-path="url(#clip0_244_4350)">
<path d="M332.771 84.1905C330.987 99.3221 324.083 116.919 310.277 124.999C289.429 137.216 291.174 156 250.478 164.167C244.543 165.387 238.494 165.958 232.436 165.872C229.471 165.817 226.512 165.576 223.578 165.148C197.713 161.372 180.308 143.396 173.922 121.69C165.52 93.15 182.299 74.4491 193.419 63.2053C204.54 51.9616 212.689 16.8693 252.632 8.54334C258.724 7.2359 264.947 6.63583 271.177 6.75506C285.389 7.11706 300.89 11.7724 311.616 21.5102C312.42 22.2342 313.204 22.992 313.969 23.7835C328.876 39.0925 335.211 63.5601 332.771 84.1905Z" fill="#249748"/>
<path opacity="0.7" d="M332.771 84.1905C330.987 99.3221 324.083 116.919 310.277 124.999C289.429 137.216 291.174 156 250.478 164.167C244.543 165.387 238.494 165.958 232.436 165.872C229.471 165.817 226.512 165.576 223.578 165.148C197.713 161.372 180.308 143.396 173.922 121.69C165.52 93.15 182.299 74.4491 193.419 63.2053C204.54 51.9616 212.689 16.8693 252.632 8.54334C258.724 7.2359 264.947 6.63583 271.177 6.75506C285.389 7.11706 300.89 11.7724 311.616 21.5102C312.42 22.2342 313.204 22.992 313.969 23.7835C328.876 39.0925 335.211 63.5601 332.771 84.1905Z" fill="white"/>
<path d="M172.709 161.005H336.109" stroke="#263238" stroke-width="0.830275" stroke-linecap="round" stroke-linejoin="round"/>
<path d="M300.136 19.5713H320.484C320.484 19.5713 322.439 13.7142 318.924 11.5675C315.409 9.42086 315.409 12.3494 312.676 11.1766C310.417 10.21 309.993 8.37106 309.364 6.4235C309.291 6.20268 309.215 5.97824 309.136 5.7538C308.918 5.14919 308.638 4.56919 308.299 4.02344" stroke="#B2B2B2" stroke-width="0.830275" stroke-linecap="round" stroke-linejoin="round"/>
<path d="M305.903 1.48618C300.803 -2.23156 292.372 -0.845099 292.372 7.07546C292.372 9.03026 287.684 7.07546 285.928 9.60946C284.173 12.1435 286.124 13.7109 283.782 14.4928C281.439 15.2748 281.248 13.32 278.312 13.5154C275.376 13.7109 275.778 16.444 274.797 17.2259C273.816 18.0079 273.823 17.6169 271.673 17.8124C269.522 18.0079 269.139 19.5681 269.139 19.5681H296.538" stroke="#B2B2B2" stroke-width="0.830275" stroke-linecap="round" stroke-linejoin="round"/>
<path d="M311.138 17.4361C311.138 17.4361 312.202 14.1491 309.592 11.731C306.982 9.3128 304.271 10.6667 303.5 11.731C302.729 12.7952 302.725 14.8261 301.469 15.0179C300.213 15.2098 300.499 12.9111 297.802 13.4722C295.105 14.0333 296.159 16.7591 294.906 17.3383C293.653 17.9175 293.65 15.7926 291.909 16.4695C290.167 17.1465 290.265 18.4026 290.265 18.4026" stroke="#B2B2B2" stroke-width="0.830275" stroke-linecap="round" stroke-linejoin="round"/>
<path d="M297.248 10.8658C296.536 10.3586 295.702 10.0512 294.831 9.97546C293.96 9.89971 293.085 10.0584 292.296 10.435C289.494 11.7273 290.787 14.417 289.494 15.065C288.202 15.713 287.558 14.96 285.943 15.713C284.329 16.4659 284.434 17.5411 284.434 17.5411" stroke="#B2B2B2" stroke-width="0.830275" stroke-linecap="round" stroke-linejoin="round"/>
<path d="M182.302 29.7141C181.978 29.5346 181.607 29.4564 181.238 29.4897C180.101 29.5657 180.253 30.63 179.873 30.9377C179.493 31.2454 179.511 31.0897 178.657 31.1658C178.442 31.1625 178.231 31.2263 178.054 31.3483C177.877 31.4702 177.742 31.6443 177.668 31.8463H197.654C197.654 31.8463 198.147 30.373 197.626 29.3594" stroke="#B2B2B2" stroke-width="0.830275" stroke-linecap="round" stroke-linejoin="round"/>
<path d="M197.046 28.7309C195.678 27.8983 195.678 29.035 194.617 28.5789C193.738 28.2169 193.575 27.4929 193.329 26.7327C193.3 26.6458 193.271 26.5589 193.238 26.472C192.087 23.2647 186.722 23.0439 186.722 26.9861C186.722 27.7463 184.912 26.9861 184.217 27.9743C183.522 28.9626 184.293 29.5671 183.381 29.8712" stroke="#B2B2B2" stroke-width="0.830275" stroke-linecap="round" stroke-linejoin="round"/>
<path d="M194.016 31.0114C194.127 30.6219 194.13 30.2094 194.024 29.8183C193.918 29.4273 193.708 29.0726 193.415 28.7924C192.402 27.8512 191.348 28.3797 191.048 28.7924C190.747 29.2051 190.747 29.9942 190.255 30.0702C189.763 30.1463 189.893 29.2449 188.829 29.4693C187.764 29.6938 188.188 30.7472 187.699 30.9752C187.211 31.2033 187.211 30.3707 186.534 30.635C185.857 30.8992 185.893 31.3879 185.893 31.3879" stroke="#B2B2B2" stroke-width="0.830275" stroke-linecap="round" stroke-linejoin="round"/>
<path d="M188.616 28.4769C188.339 28.2798 188.014 28.1604 187.675 28.1311C187.337 28.1018 186.997 28.1637 186.69 28.3104C185.604 28.8136 186.103 29.8598 185.604 30.1204C185.104 30.381 184.851 30.0806 184.225 30.3738C183.598 30.667 183.638 31.0978 183.638 31.0978" stroke="#B2B2B2" stroke-width="0.830275" stroke-linecap="round" stroke-linejoin="round"/>
<path d="M242.662 9.47976C242.341 9.30232 241.974 9.22421 241.609 9.25532C240.472 9.33134 240.624 10.3956 240.244 10.7033C239.864 11.011 239.864 10.8554 239.028 10.9278C238.812 10.9248 238.601 10.9891 238.424 11.1117C238.247 11.2344 238.113 11.4092 238.04 11.6119H258.015C258.015 11.6119 258.503 10.1386 257.986 9.125" stroke="#B2B2B2" stroke-width="0.830275" stroke-linecap="round" stroke-linejoin="round"/>
<path d="M257.406 8.49397C256.038 7.65775 256.038 8.79805 254.974 8.34193C254.098 7.97993 253.931 7.25593 253.688 6.49573C253.66 6.40885 253.631 6.32197 253.598 6.23509C252.443 3.02777 247.082 2.80333 247.082 6.74913C247.082 7.50571 245.272 6.74913 244.573 7.73377C243.875 8.71841 244.649 9.33019 243.741 9.63427" stroke="#B2B2B2" stroke-width="0.830275" stroke-linecap="round" stroke-linejoin="round"/>
<path d="M254.362 10.7787C254.474 10.3915 254.478 9.98123 254.375 9.5917C254.271 9.20217 254.064 8.84798 253.776 8.5669C252.762 7.6257 251.709 8.1506 251.408 8.5669C251.108 8.9832 251.104 9.76874 250.615 9.84476C250.127 9.92078 250.253 9.01578 249.189 9.24384C248.125 9.4719 248.548 10.5217 248.06 10.7461C247.571 10.9706 247.571 10.1452 246.894 10.4095C246.217 10.6737 246.253 11.1624 246.253 11.1624" stroke="#B2B2B2" stroke-width="0.830275" stroke-linecap="round" stroke-linejoin="round"/>
<path d="M248.975 8.22301C248.698 8.02588 248.374 7.90648 248.035 7.8772C247.697 7.84791 247.356 7.90982 247.05 8.05649C245.964 8.55605 246.463 9.60585 245.964 9.86649C245.464 10.1271 245.211 9.82305 244.581 10.1163C243.951 10.4095 243.994 10.8403 243.994 10.8403" stroke="#B2B2B2" stroke-width="0.830275" stroke-linecap="round" stroke-linejoin="round"/>
<path d="M270.384 22.3486H248.936V138.265H270.384V22.3486Z" fill="#263238" stroke="#263238" stroke-width="0.830275" stroke-linecap="round" stroke-linejoin="round"/>
<path d="M283.246 22.3486H265.139V138.265H283.246V22.3486Z" fill="white" stroke="#263238" stroke-width="0.830275" stroke-linecap="round" stroke-linejoin="round"/>
<path d="M282.399 23.5938H265.816V29.3278H282.399V23.5938Z" fill="white" stroke="#263238" stroke-width="0.830275" stroke-linecap="round" stroke-linejoin="round"/>
<path d="M268.06 24.3945V28.5612" stroke="#263238" stroke-width="0.830275" stroke-linecap="round" stroke-linejoin="round"/>
<path d="M270.521 24.3945V28.5612" stroke="#263238" stroke-width="0.830275" stroke-linecap="round" stroke-linejoin="round"/>
<path d="M272.979 24.3945V28.5612" stroke="#263238" stroke-width="0.830275" stroke-linecap="round" stroke-linejoin="round"/>
<path d="M275.441 24.3945V28.5612" stroke="#263238" stroke-width="0.830275" stroke-linecap="round" stroke-linejoin="round"/>
<path d="M277.903 24.3945V28.5612" stroke="#263238" stroke-width="0.830275" stroke-linecap="round" stroke-linejoin="round"/>
<path d="M280.361 24.3945V28.5612" stroke="#263238" stroke-width="0.830275" stroke-linecap="round" stroke-linejoin="round"/>
<path d="M264.114 23.5938H249.898V29.3278H264.114V23.5938Z" fill="white" stroke="#263238" stroke-width="0.830275" stroke-linecap="round" stroke-linejoin="round"/>
<path d="M251.82 24.3945V28.5612" stroke="#263238" stroke-width="0.830275" stroke-linecap="round" stroke-linejoin="round"/>
<path d="M253.931 24.3945V28.5612" stroke="#263238" stroke-width="0.830275" stroke-linecap="round" stroke-linejoin="round"/>
<path d="M256.038 24.3945V28.5612" stroke="#263238" stroke-width="0.830275" stroke-linecap="round" stroke-linejoin="round"/>
<path d="M258.148 24.3945V28.5612" stroke="#263238" stroke-width="0.830275" stroke-linecap="round" stroke-linejoin="round"/>
<path d="M260.259 24.3945V28.5612" stroke="#263238" stroke-width="0.830275" stroke-linecap="round" stroke-linejoin="round"/>
<path d="M262.365 24.3945V28.5612" stroke="#263238" stroke-width="0.830275" stroke-linecap="round" stroke-linejoin="round"/>
<path d="M243.748 37.5527H204.612V138.261H243.748V37.5527Z" fill="white" stroke="#263238" stroke-width="0.830275" stroke-linecap="round" stroke-linejoin="round"/>
<path d="M221.539 41.4043H207.009V134.417H221.539V41.4043Z" fill="#263238" stroke="#263238" stroke-width="0.830275" stroke-linecap="round" stroke-linejoin="round"/>
<path d="M262.695 37.5527H223.56V138.261H262.695V37.5527Z" fill="white" stroke="#263238" stroke-width="0.830275" stroke-linecap="round" stroke-linejoin="round"/>
<path d="M259.47 41.4043H226.781V134.417H259.47V41.4043Z" fill="white" stroke="#263238" stroke-width="0.830275" stroke-linecap="round" stroke-linejoin="round"/>
<path d="M234.991 45.1582H228.294V48.6624H234.991V45.1582Z" fill="white" stroke="#263238" stroke-width="0.830275" stroke-linecap="round" stroke-linejoin="round"/>
<path d="M242.648 45.1582H235.951V48.6624H242.648V45.1582Z" fill="white" stroke="#263238" stroke-width="0.830275" stroke-linecap="round" stroke-linejoin="round"/>
<path d="M250.301 45.1582H243.604V48.6624H250.301V45.1582Z" fill="white" stroke="#263238" stroke-width="0.830275" stroke-linecap="round" stroke-linejoin="round"/>
<path d="M257.956 45.1582H251.259V48.6624H257.956V45.1582Z" fill="white" stroke="#263238" stroke-width="0.830275" stroke-linecap="round" stroke-linejoin="round"/>
<path d="M234.991 51.3877H228.294V54.8919H234.991V51.3877Z" fill="white" stroke="#263238" stroke-width="0.830275" stroke-linecap="round" stroke-linejoin="round"/>
<path d="M242.648 51.3877H235.951V54.8919H242.648V51.3877Z" fill="white" stroke="#263238" stroke-width="0.830275" stroke-linecap="round" stroke-linejoin="round"/>
<path d="M250.301 51.3877H243.604V54.8919H250.301V51.3877Z" fill="white" stroke="#263238" stroke-width="0.830275" stroke-linecap="round" stroke-linejoin="round"/>
<path d="M257.956 51.3877H251.259V54.8919H257.956V51.3877Z" fill="white" stroke="#263238" stroke-width="0.830275" stroke-linecap="round" stroke-linejoin="round"/>
<path d="M234.991 57.6211H228.294V61.1253H234.991V57.6211Z" fill="white" stroke="#263238" stroke-width="0.830275" stroke-linecap="round" stroke-linejoin="round"/>
<path d="M242.648 57.6211H235.951V61.1253H242.648V57.6211Z" fill="white" stroke="#263238" stroke-width="0.830275" stroke-linecap="round" stroke-linejoin="round"/>
<path d="M250.301 57.6211H243.604V61.1253H250.301V57.6211Z" fill="white" stroke="#263238" stroke-width="0.830275" stroke-linecap="round" stroke-linejoin="round"/>
<path d="M257.956 57.6211H251.259V61.1253H257.956V57.6211Z" fill="white" stroke="#263238" stroke-width="0.830275" stroke-linecap="round" stroke-linejoin="round"/>
<path d="M234.991 63.8525H228.294V67.3567H234.991V63.8525Z" fill="white" stroke="#263238" stroke-width="0.830275" stroke-linecap="round" stroke-linejoin="round"/>
<path d="M242.648 63.8525H235.951V67.3567H242.648V63.8525Z" fill="white" stroke="#263238" stroke-width="0.830275" stroke-linecap="round" stroke-linejoin="round"/>
<path d="M250.301 63.8525H243.604V67.3567H250.301V63.8525Z" fill="white" stroke="#263238" stroke-width="0.830275" stroke-linecap="round" stroke-linejoin="round"/>
<path d="M257.956 63.8525H251.259V67.3567H257.956V63.8525Z" fill="white" stroke="#263238" stroke-width="0.830275" stroke-linecap="round" stroke-linejoin="round"/>
<path d="M234.991 70.0859H228.294V73.5901H234.991V70.0859Z" fill="white" stroke="#263238" stroke-width="0.830275" stroke-linecap="round" stroke-linejoin="round"/>
<path d="M242.648 70.0859H235.951V73.5901H242.648V70.0859Z" fill="white" stroke="#263238" stroke-width="0.830275" stroke-linecap="round" stroke-linejoin="round"/>
<path d="M250.301 70.0859H243.604V73.5901H250.301V70.0859Z" fill="white" stroke="#263238" stroke-width="0.830275" stroke-linecap="round" stroke-linejoin="round"/>
<path d="M257.956 70.0859H251.259V73.5901H257.956V70.0859Z" fill="white" stroke="#263238" stroke-width="0.830275" stroke-linecap="round" stroke-linejoin="round"/>
<path d="M234.991 76.3193H228.294V79.8235H234.991V76.3193Z" fill="white" stroke="#263238" stroke-width="0.830275" stroke-linecap="round" stroke-linejoin="round"/>
<path d="M242.648 76.3193H235.951V79.8235H242.648V76.3193Z" fill="white" stroke="#263238" stroke-width="0.830275" stroke-linecap="round" stroke-linejoin="round"/>
<path d="M250.301 76.3193H243.604V79.8235H250.301V76.3193Z" fill="white" stroke="#263238" stroke-width="0.830275" stroke-linecap="round" stroke-linejoin="round"/>
<path d="M257.956 76.3193H251.259V79.8235H257.956V76.3193Z" fill="white" stroke="#263238" stroke-width="0.830275" stroke-linecap="round" stroke-linejoin="round"/>
<path d="M234.991 82.5498H228.294V86.054H234.991V82.5498Z" fill="white" stroke="#263238" stroke-width="0.830275" stroke-linecap="round" stroke-linejoin="round"/>
<path d="M242.648 82.5498H235.951V86.054H242.648V82.5498Z" fill="white" stroke="#263238" stroke-width="0.830275" stroke-linecap="round" stroke-linejoin="round"/>
<path d="M250.301 82.5498H243.604V86.054H250.301V82.5498Z" fill="white" stroke="#263238" stroke-width="0.830275" stroke-linecap="round" stroke-linejoin="round"/>
<path d="M257.956 82.5498H251.259V86.054H257.956V82.5498Z" fill="white" stroke="#263238" stroke-width="0.830275" stroke-linecap="round" stroke-linejoin="round"/>
<path d="M234.991 88.7832H228.294V92.2874H234.991V88.7832Z" fill="white" stroke="#263238" stroke-width="0.830275" stroke-linecap="round" stroke-linejoin="round"/>
<path d="M242.648 88.7832H235.951V92.2874H242.648V88.7832Z" fill="white" stroke="#263238" stroke-width="0.830275" stroke-linecap="round" stroke-linejoin="round"/>
<path d="M250.301 88.7832H243.604V92.2874H250.301V88.7832Z" fill="white" stroke="#263238" stroke-width="0.830275" stroke-linecap="round" stroke-linejoin="round"/>
<path d="M257.956 88.7832H251.259V92.2874H257.956V88.7832Z" fill="white" stroke="#263238" stroke-width="0.830275" stroke-linecap="round" stroke-linejoin="round"/>
<path d="M234.991 95.0127H228.294V98.5169H234.991V95.0127Z" fill="white" stroke="#263238" stroke-width="0.830275" stroke-linecap="round" stroke-linejoin="round"/>
<path d="M242.648 95.0127H235.951V98.5169H242.648V95.0127Z" fill="white" stroke="#263238" stroke-width="0.830275" stroke-linecap="round" stroke-linejoin="round"/>
<path d="M250.301 95.0127H243.604V98.5169H250.301V95.0127Z" fill="white" stroke="#263238" stroke-width="0.830275" stroke-linecap="round" stroke-linejoin="round"/>
<path d="M257.956 95.0127H251.259V98.5169H257.956V95.0127Z" fill="white" stroke="#263238" stroke-width="0.830275" stroke-linecap="round" stroke-linejoin="round"/>
<path d="M234.991 101.246H228.294V104.75H234.991V101.246Z" fill="white" stroke="#263238" stroke-width="0.830275" stroke-linecap="round" stroke-linejoin="round"/>
<path d="M242.648 101.246H235.951V104.75H242.648V101.246Z" fill="white" stroke="#263238" stroke-width="0.830275" stroke-linecap="round" stroke-linejoin="round"/>
<path d="M250.301 101.246H243.604V104.75H250.301V101.246Z" fill="white" stroke="#263238" stroke-width="0.830275" stroke-linecap="round" stroke-linejoin="round"/>
<path d="M257.956 101.246H251.259V104.75H257.956V101.246Z" fill="white" stroke="#263238" stroke-width="0.830275" stroke-linecap="round" stroke-linejoin="round"/>
<path d="M234.991 107.477H228.294V110.981H234.991V107.477Z" fill="white" stroke="#263238" stroke-width="0.830275" stroke-linecap="round" stroke-linejoin="round"/>
<path d="M242.648 107.477H235.951V110.981H242.648V107.477Z" fill="white" stroke="#263238" stroke-width="0.830275" stroke-linecap="round" stroke-linejoin="round"/>
<path d="M250.301 107.477H243.604V110.981H250.301V107.477Z" fill="white" stroke="#263238" stroke-width="0.830275" stroke-linecap="round" stroke-linejoin="round"/>
<path d="M257.956 107.477H251.259V110.981H257.956V107.477Z" fill="white" stroke="#263238" stroke-width="0.830275" stroke-linecap="round" stroke-linejoin="round"/>
<path d="M234.991 113.71H228.294V117.214H234.991V113.71Z" fill="white" stroke="#263238" stroke-width="0.830275" stroke-linecap="round" stroke-linejoin="round"/>
<path d="M242.648 113.71H235.951V117.214H242.648V113.71Z" fill="white" stroke="#263238" stroke-width="0.830275" stroke-linecap="round" stroke-linejoin="round"/>
<path d="M250.301 113.71H243.604V117.214H250.301V113.71Z" fill="white" stroke="#263238" stroke-width="0.830275" stroke-linecap="round" stroke-linejoin="round"/>
<path d="M257.956 113.71H251.259V117.214H257.956V113.71Z" fill="white" stroke="#263238" stroke-width="0.830275" stroke-linecap="round" stroke-linejoin="round"/>
<path d="M234.991 119.943H228.294V123.448H234.991V119.943Z" fill="white" stroke="#263238" stroke-width="0.830275" stroke-linecap="round" stroke-linejoin="round"/>
<path d="M242.648 119.943H235.951V123.448H242.648V119.943Z" fill="white" stroke="#263238" stroke-width="0.830275" stroke-linecap="round" stroke-linejoin="round"/>
<path d="M250.301 119.943H243.604V123.448H250.301V119.943Z" fill="white" stroke="#263238" stroke-width="0.830275" stroke-linecap="round" stroke-linejoin="round"/>
<path d="M257.956 119.943H251.259V123.448H257.956V119.943Z" fill="white" stroke="#263238" stroke-width="0.830275" stroke-linecap="round" stroke-linejoin="round"/>
<path d="M234.991 126.174H228.294V129.678H234.991V126.174Z" fill="white" stroke="#263238" stroke-width="0.830275" stroke-linecap="round" stroke-linejoin="round"/>
<path d="M242.648 126.174H235.951V129.678H242.648V126.174Z" fill="white" stroke="#263238" stroke-width="0.830275" stroke-linecap="round" stroke-linejoin="round"/>
<path d="M250.301 126.174H243.604V129.678H250.301V126.174Z" fill="white" stroke="#263238" stroke-width="0.830275" stroke-linecap="round" stroke-linejoin="round"/>
<path d="M257.956 126.174H251.259V129.678H257.956V126.174Z" fill="white" stroke="#263238" stroke-width="0.830275" stroke-linecap="round" stroke-linejoin="round"/>
<path d="M211.628 45.1582H209.384V48.6624H211.628V45.1582Z" fill="white" stroke="#263238" stroke-width="0.830275" stroke-linecap="round" stroke-linejoin="round"/>
<path d="M214.195 45.1582H211.95V48.6624H214.195V45.1582Z" fill="white" stroke="#263238" stroke-width="0.830275" stroke-linecap="round" stroke-linejoin="round"/>
<path d="M216.758 45.1582H214.513V48.6624H216.758V45.1582Z" fill="white" stroke="#263238" stroke-width="0.830275" stroke-linecap="round" stroke-linejoin="round"/>
<path d="M219.321 45.1582H217.076V48.6624H219.321V45.1582Z" fill="white" stroke="#263238" stroke-width="0.830275" stroke-linecap="round" stroke-linejoin="round"/>
<path d="M211.628 51.3877H209.384V54.8919H211.628V51.3877Z" fill="white" stroke="#263238" stroke-width="0.830275" stroke-linecap="round" stroke-linejoin="round"/>
<path d="M214.195 51.3877H211.95V54.8919H214.195V51.3877Z" fill="white" stroke="#263238" stroke-width="0.830275" stroke-linecap="round" stroke-linejoin="round"/>
<path d="M216.758 51.3877H214.513V54.8919H216.758V51.3877Z" fill="white" stroke="#263238" stroke-width="0.830275" stroke-linecap="round" stroke-linejoin="round"/>
<path d="M219.321 51.3877H217.076V54.8919H219.321V51.3877Z" fill="white" stroke="#263238" stroke-width="0.830275" stroke-linecap="round" stroke-linejoin="round"/>
<path d="M211.628 57.6211H209.384V61.1253H211.628V57.6211Z" fill="white" stroke="#263238" stroke-width="0.830275" stroke-linecap="round" stroke-linejoin="round"/>
<path d="M214.195 57.6211H211.95V61.1253H214.195V57.6211Z" fill="white" stroke="#263238" stroke-width="0.830275" stroke-linecap="round" stroke-linejoin="round"/>
<path d="M216.758 57.6211H214.513V61.1253H216.758V57.6211Z" fill="white" stroke="#263238" stroke-width="0.830275" stroke-linecap="round" stroke-linejoin="round"/>
<path d="M219.321 57.6211H217.076V61.1253H219.321V57.6211Z" fill="white" stroke="#263238" stroke-width="0.830275" stroke-linecap="round" stroke-linejoin="round"/>
<path d="M211.628 63.8525H209.384V67.3567H211.628V63.8525Z" fill="white" stroke="#263238" stroke-width="0.830275" stroke-linecap="round" stroke-linejoin="round"/>
<path d="M214.195 63.8525H211.95V67.3567H214.195V63.8525Z" fill="white" stroke="#263238" stroke-width="0.830275" stroke-linecap="round" stroke-linejoin="round"/>
<path d="M216.758 63.8525H214.513V67.3567H216.758V63.8525Z" fill="white" stroke="#263238" stroke-width="0.830275" stroke-linecap="round" stroke-linejoin="round"/>
<path d="M219.321 63.8525H217.076V67.3567H219.321V63.8525Z" fill="white" stroke="#263238" stroke-width="0.830275" stroke-linecap="round" stroke-linejoin="round"/>
<path d="M211.628 70.0859H209.384V73.5901H211.628V70.0859Z" fill="white" stroke="#263238" stroke-width="0.830275" stroke-linecap="round" stroke-linejoin="round"/>
<path d="M214.195 70.0859H211.95V73.5901H214.195V70.0859Z" fill="white" stroke="#263238" stroke-width="0.830275" stroke-linecap="round" stroke-linejoin="round"/>
<path d="M216.758 70.0859H214.513V73.5901H216.758V70.0859Z" fill="white" stroke="#263238" stroke-width="0.830275" stroke-linecap="round" stroke-linejoin="round"/>
<path d="M219.321 70.0859H217.076V73.5901H219.321V70.0859Z" fill="white" stroke="#263238" stroke-width="0.830275" stroke-linecap="round" stroke-linejoin="round"/>
<path d="M211.628 76.3193H209.384V79.8235H211.628V76.3193Z" fill="white" stroke="#263238" stroke-width="0.830275" stroke-linecap="round" stroke-linejoin="round"/>
<path d="M214.195 76.3193H211.95V79.8235H214.195V76.3193Z" fill="white" stroke="#263238" stroke-width="0.830275" stroke-linecap="round" stroke-linejoin="round"/>
<path d="M216.758 76.3193H214.513V79.8235H216.758V76.3193Z" fill="white" stroke="#263238" stroke-width="0.830275" stroke-linecap="round" stroke-linejoin="round"/>
<path d="M219.321 76.3193H217.076V79.8235H219.321V76.3193Z" fill="white" stroke="#263238" stroke-width="0.830275" stroke-linecap="round" stroke-linejoin="round"/>
<path d="M211.628 82.5498H209.384V86.054H211.628V82.5498Z" fill="white" stroke="#263238" stroke-width="0.830275" stroke-linecap="round" stroke-linejoin="round"/>
<path d="M214.195 82.5498H211.95V86.054H214.195V82.5498Z" fill="white" stroke="#263238" stroke-width="0.830275" stroke-linecap="round" stroke-linejoin="round"/>
<path d="M216.758 82.5498H214.513V86.054H216.758V82.5498Z" fill="white" stroke="#263238" stroke-width="0.830275" stroke-linecap="round" stroke-linejoin="round"/>
<path d="M219.321 82.5498H217.076V86.054H219.321V82.5498Z" fill="white" stroke="#263238" stroke-width="0.830275" stroke-linecap="round" stroke-linejoin="round"/>
<path d="M211.628 88.7832H209.384V92.2874H211.628V88.7832Z" fill="white" stroke="#263238" stroke-width="0.830275" stroke-linecap="round" stroke-linejoin="round"/>
<path d="M214.195 88.7832H211.95V92.2874H214.195V88.7832Z" fill="white" stroke="#263238" stroke-width="0.830275" stroke-linecap="round" stroke-linejoin="round"/>
<path d="M216.758 88.7832H214.513V92.2874H216.758V88.7832Z" fill="white" stroke="#263238" stroke-width="0.830275" stroke-linecap="round" stroke-linejoin="round"/>
<path d="M219.321 88.7832H217.076V92.2874H219.321V88.7832Z" fill="white" stroke="#263238" stroke-width="0.830275" stroke-linecap="round" stroke-linejoin="round"/>
<path d="M211.628 95.0127H209.384V98.5169H211.628V95.0127Z" fill="white" stroke="#263238" stroke-width="0.830275" stroke-linecap="round" stroke-linejoin="round"/>
<path d="M214.195 95.0127H211.95V98.5169H214.195V95.0127Z" fill="white" stroke="#263238" stroke-width="0.830275" stroke-linecap="round" stroke-linejoin="round"/>
<path d="M216.758 95.0127H214.513V98.5169H216.758V95.0127Z" fill="white" stroke="#263238" stroke-width="0.830275" stroke-linecap="round" stroke-linejoin="round"/>
<path d="M219.321 95.0127H217.076V98.5169H219.321V95.0127Z" fill="white" stroke="#263238" stroke-width="0.830275" stroke-linecap="round" stroke-linejoin="round"/>
<path d="M211.628 101.246H209.384V104.75H211.628V101.246Z" fill="white" stroke="#263238" stroke-width="0.830275" stroke-linecap="round" stroke-linejoin="round"/>
<path d="M214.195 101.246H211.95V104.75H214.195V101.246Z" fill="white" stroke="#263238" stroke-width="0.830275" stroke-linecap="round" stroke-linejoin="round"/>
<path d="M216.758 101.246H214.513V104.75H216.758V101.246Z" fill="white" stroke="#263238" stroke-width="0.830275" stroke-linecap="round" stroke-linejoin="round"/>
<path d="M219.321 101.246H217.076V104.75H219.321V101.246Z" fill="white" stroke="#263238" stroke-width="0.830275" stroke-linecap="round" stroke-linejoin="round"/>
<path d="M211.628 107.477H209.384V110.981H211.628V107.477Z" fill="white" stroke="#263238" stroke-width="0.830275" stroke-linecap="round" stroke-linejoin="round"/>
<path d="M214.195 107.477H211.95V110.981H214.195V107.477Z" fill="white" stroke="#263238" stroke-width="0.830275" stroke-linecap="round" stroke-linejoin="round"/>
<path d="M216.758 107.477H214.513V110.981H216.758V107.477Z" fill="white" stroke="#263238" stroke-width="0.830275" stroke-linecap="round" stroke-linejoin="round"/>
<path d="M219.321 107.477H217.076V110.981H219.321V107.477Z" fill="white" stroke="#263238" stroke-width="0.830275" stroke-linecap="round" stroke-linejoin="round"/>
<path d="M211.628 113.71H209.384V117.214H211.628V113.71Z" fill="white" stroke="#263238" stroke-width="0.830275" stroke-linecap="round" stroke-linejoin="round"/>
<path d="M214.195 113.71H211.95V117.214H214.195V113.71Z" fill="white" stroke="#263238" stroke-width="0.830275" stroke-linecap="round" stroke-linejoin="round"/>
<path d="M216.758 113.71H214.513V117.214H216.758V113.71Z" fill="white" stroke="#263238" stroke-width="0.830275" stroke-linecap="round" stroke-linejoin="round"/>
<path d="M219.321 113.71H217.076V117.214H219.321V113.71Z" fill="white" stroke="#263238" stroke-width="0.830275" stroke-linecap="round" stroke-linejoin="round"/>
<path d="M211.628 119.943H209.384V123.448H211.628V119.943Z" fill="white" stroke="#263238" stroke-width="0.830275" stroke-linecap="round" stroke-linejoin="round"/>
<path d="M214.195 119.943H211.95V123.448H214.195V119.943Z" fill="white" stroke="#263238" stroke-width="0.830275" stroke-linecap="round" stroke-linejoin="round"/>
<path d="M216.758 119.943H214.513V123.448H216.758V119.943Z" fill="white" stroke="#263238" stroke-width="0.830275" stroke-linecap="round" stroke-linejoin="round"/>
<path d="M219.321 119.943H217.076V123.448H219.321V119.943Z" fill="white" stroke="#263238" stroke-width="0.830275" stroke-linecap="round" stroke-linejoin="round"/>
<path d="M211.628 126.174H209.384V129.678H211.628V126.174Z" fill="white" stroke="#263238" stroke-width="0.830275" stroke-linecap="round" stroke-linejoin="round"/>
<path d="M214.195 126.174H211.95V129.678H214.195V126.174Z" fill="white" stroke="#263238" stroke-width="0.830275" stroke-linecap="round" stroke-linejoin="round"/>
<path d="M216.758 126.174H214.513V129.678H216.758V126.174Z" fill="white" stroke="#263238" stroke-width="0.830275" stroke-linecap="round" stroke-linejoin="round"/>
<path d="M219.321 126.174H217.076V129.678H219.321V126.174Z" fill="white" stroke="#263238" stroke-width="0.830275" stroke-linecap="round" stroke-linejoin="round"/>
<path d="M286.2 147.634H189.958V161.183H286.2V147.634Z" fill="#263238" stroke="#263238" stroke-width="0.830275" stroke-linecap="round" stroke-linejoin="round"/>
<path d="M236.656 152.107H234.159V161.179H236.656V152.107Z" fill="white" stroke="#263238" stroke-width="0.830275" stroke-linecap="round" stroke-linejoin="round"/>
<path d="M225.171 152.107H222.673V161.179H225.171V152.107Z" fill="white" stroke="#263238" stroke-width="0.830275" stroke-linecap="round" stroke-linejoin="round"/>
<path d="M213.684 152.107H211.186V161.179H213.684V152.107Z" fill="white" stroke="#263238" stroke-width="0.830275" stroke-linecap="round" stroke-linejoin="round"/>
<path d="M202.198 152.107H199.7V161.179H202.198V152.107Z" fill="white" stroke="#263238" stroke-width="0.830275" stroke-linecap="round" stroke-linejoin="round"/>
<path d="M190.715 152.107H188.217V161.179H190.715V152.107Z" fill="white" stroke="#263238" stroke-width="0.830275" stroke-linecap="round" stroke-linejoin="round"/>
<path d="M253.58 152.107H251.082V161.179H253.58V152.107Z" fill="white" stroke="#263238" stroke-width="0.830275" stroke-linecap="round" stroke-linejoin="round"/>
<path d="M270.507 152.107H268.009V161.179H270.507V152.107Z" fill="white" stroke="#263238" stroke-width="0.830275" stroke-linecap="round" stroke-linejoin="round"/>
<path d="M287.431 152.107H284.933V161.179H287.431V152.107Z" fill="white" stroke="#263238" stroke-width="0.830275" stroke-linecap="round" stroke-linejoin="round"/>
<path d="M288.064 128.147H222.292V153.274H288.064V128.147Z" fill="white" stroke="#263238" stroke-width="0.830275" stroke-linecap="round" stroke-linejoin="round"/>
<path d="M232.91 128.147H184.84V153.274H232.91V128.147Z" fill="white" stroke="#263238" stroke-width="0.830275" stroke-linecap="round" stroke-linejoin="round"/>
<path d="M230.821 132.545H186.925V147.249H230.821V132.545Z" fill="#263238" stroke="#263238" stroke-width="0.830275" stroke-linecap="round" stroke-linejoin="round"/>
<path d="M243.748 132.566H234.622V138.264H243.748V132.566Z" fill="white" stroke="#263238" stroke-width="0.830275" stroke-linecap="round" stroke-linejoin="round"/>
<path d="M254.452 132.566H245.326V138.264H254.452V132.566Z" fill="white" stroke="#263238" stroke-width="0.830275" stroke-linecap="round" stroke-linejoin="round"/>
<path d="M265.153 132.566H256.027V138.264H265.153V132.566Z" fill="white" stroke="#263238" stroke-width="0.830275" stroke-linecap="round" stroke-linejoin="round"/>
<path d="M275.854 132.566H266.728V138.264H275.854V132.566Z" fill="white" stroke="#263238" stroke-width="0.830275" stroke-linecap="round" stroke-linejoin="round"/>
<path d="M286.555 132.566H277.429V138.264H286.555V132.566Z" fill="white" stroke="#263238" stroke-width="0.830275" stroke-linecap="round" stroke-linejoin="round"/>
<path d="M243.748 141.584H234.622V147.282H243.748V141.584Z" fill="white" stroke="#263238" stroke-width="0.830275" stroke-linecap="round" stroke-linejoin="round"/>
<path d="M254.452 141.584H245.326V147.282H254.452V141.584Z" fill="white" stroke="#263238" stroke-width="0.830275" stroke-linecap="round" stroke-linejoin="round"/>
<path d="M265.153 141.584H256.027V147.282H265.153V141.584Z" fill="white" stroke="#263238" stroke-width="0.830275" stroke-linecap="round" stroke-linejoin="round"/>
<path d="M275.854 141.584H266.728V147.282H275.854V141.584Z" fill="white" stroke="#263238" stroke-width="0.830275" stroke-linecap="round" stroke-linejoin="round"/>
<path d="M286.555 141.584H277.429V147.282H286.555V141.584Z" fill="white" stroke="#263238" stroke-width="0.830275" stroke-linecap="round" stroke-linejoin="round"/>
<path d="M194.759 132.566H187.399V138.264H194.759V132.566Z" fill="white" stroke="#263238" stroke-width="0.830275" stroke-linecap="round" stroke-linejoin="round"/>
<path d="M203.385 132.566H196.025V138.264H203.385V132.566Z" fill="white" stroke="#263238" stroke-width="0.830275" stroke-linecap="round" stroke-linejoin="round"/>
<path d="M212.015 132.566H204.656V138.264H212.015V132.566Z" fill="white" stroke="#263238" stroke-width="0.830275" stroke-linecap="round" stroke-linejoin="round"/>
<path d="M220.645 132.566H213.286V138.264H220.645V132.566Z" fill="white" stroke="#263238" stroke-width="0.830275" stroke-linecap="round" stroke-linejoin="round"/>
<path d="M229.275 132.566H221.916V138.264H229.275V132.566Z" fill="white" stroke="#263238" stroke-width="0.830275" stroke-linecap="round" stroke-linejoin="round"/>
<path d="M194.759 141.584H187.399V147.282H194.759V141.584Z" fill="white" stroke="#263238" stroke-width="0.830275" stroke-linecap="round" stroke-linejoin="round"/>
<path d="M203.385 141.584H196.025V147.282H203.385V141.584Z" fill="white" stroke="#263238" stroke-width="0.830275" stroke-linecap="round" stroke-linejoin="round"/>
<path d="M212.015 141.584H204.656V147.282H212.015V141.584Z" fill="white" stroke="#263238" stroke-width="0.830275" stroke-linecap="round" stroke-linejoin="round"/>
<path d="M220.645 141.584H213.286V147.282H220.645V141.584Z" fill="white" stroke="#263238" stroke-width="0.830275" stroke-linecap="round" stroke-linejoin="round"/>
<path d="M229.275 141.584H221.916V147.282H229.275V141.584Z" fill="white" stroke="#263238" stroke-width="0.830275" stroke-linecap="round" stroke-linejoin="round"/>
<path d="M242.662 124.273H203.986V128.382H242.662V124.273Z" fill="#263238" stroke="#263238" stroke-width="0.830275" stroke-linecap="round" stroke-linejoin="round"/>
<path d="M268.284 124.273H229.608V128.382H268.284V124.273Z" fill="white" stroke="#263238" stroke-width="0.830275" stroke-linecap="round" stroke-linejoin="round"/>
<path d="M329.118 18.2716L308.575 38.8151C307.676 39.7133 306.458 40.2177 305.187 40.2173C303.917 40.217 302.698 39.712 301.8 38.8133C300.902 37.9147 300.398 36.6961 300.398 35.4255C300.398 34.155 300.903 32.9367 301.802 32.0385L322.342 11.495C323.247 10.6275 324.456 10.1491 325.709 10.1624C326.963 10.1756 328.161 10.6795 329.048 11.5659C329.934 12.4523 330.438 13.6508 330.451 14.9043C330.464 16.1578 329.986 17.3667 329.118 18.2716Z" fill="#263238" stroke="#263238" stroke-width="0.830275" stroke-linecap="round" stroke-linejoin="round"/>
<path d="M305.085 39.4809L293.657 50.9201C293.133 51.4443 292.422 51.7388 291.68 51.7388C290.939 51.7388 290.228 51.4443 289.704 50.9201C289.18 50.3959 288.885 49.6849 288.885 48.9436C288.885 48.2022 289.18 47.4913 289.704 46.9671L301.132 35.5423C301.66 35.0373 302.364 34.7589 303.095 34.7668C303.825 34.7746 304.523 35.068 305.04 35.5842C305.557 36.1004 305.851 36.7984 305.859 37.5287C305.868 38.259 305.59 38.9637 305.085 39.4918V39.4809Z" fill="white" stroke="#263238" stroke-width="0.830275" stroke-linecap="round" stroke-linejoin="round"/>
<path d="M260.19 48.933C257.077 52.0473 254.957 56.0149 254.098 60.334C253.239 64.6531 253.68 69.1299 255.366 73.1983C257.051 77.2666 259.905 80.7438 263.567 83.1902C267.229 85.6367 271.533 86.9424 275.937 86.9424C280.341 86.9424 284.645 85.6367 288.307 83.1902C291.969 80.7438 294.823 77.2666 296.508 73.1983C298.194 69.1299 298.635 64.6531 297.776 60.334C296.918 56.0149 294.797 52.0473 291.684 48.933C289.616 46.8648 287.161 45.2241 284.459 44.1047C281.758 42.9853 278.862 42.4092 275.937 42.4092C273.012 42.4092 270.116 42.9853 267.415 44.1047C264.713 45.2241 262.258 46.8648 260.19 48.933ZM288.911 77.6541C286.345 80.2202 283.075 81.9677 279.516 82.6756C275.956 83.3834 272.267 83.02 268.914 81.6311C265.561 80.2421 262.695 77.8902 260.679 74.8726C258.663 71.8551 257.587 68.3074 257.587 64.6782C257.587 61.0491 258.663 57.5014 260.679 54.4838C262.695 51.4663 265.561 49.1143 268.914 47.7254C272.267 46.3365 275.956 45.973 279.516 46.6809C283.075 47.3888 286.345 49.1363 288.911 51.7023C290.615 53.4063 291.967 55.4292 292.889 57.6557C293.812 59.8821 294.286 62.2684 294.286 64.6782C294.286 67.0881 293.812 69.4744 292.889 71.7008C291.967 73.9272 290.615 75.9502 288.911 77.6541Z" fill="#263238" stroke="#263238" stroke-width="0.830275" stroke-linecap="round" stroke-linejoin="round"/>
<path opacity="0.56" d="M276.947 82.016C287.082 82.016 295.297 73.8005 295.297 63.6662C295.297 53.5319 287.082 45.3164 276.947 45.3164C266.813 45.3164 258.598 53.5319 258.598 63.6662C258.598 73.8005 266.813 82.016 276.947 82.016Z" fill="white"/>
<path d="M261.204 47.9194C258.09 51.0337 255.97 55.0012 255.111 59.3203C254.253 63.6395 254.694 68.1162 256.38 72.1846C258.065 76.2529 260.919 79.7301 264.581 82.1766C268.242 84.623 272.547 85.9288 276.951 85.9288C281.354 85.9288 285.659 84.623 289.321 82.1766C292.982 79.7301 295.836 76.2529 297.522 72.1846C299.207 68.1162 299.649 63.6395 298.79 59.3203C297.931 55.0012 295.811 51.0337 292.698 47.9194C290.63 45.8511 288.175 44.2104 285.473 43.091C282.771 41.9716 279.875 41.3955 276.951 41.3955C274.026 41.3955 271.13 41.9716 268.428 43.091C265.726 44.2104 263.271 45.8511 261.204 47.9194ZM289.925 76.6405C287.358 79.2065 284.089 80.954 280.529 81.6619C276.97 82.3698 273.28 82.0063 269.928 80.6174C266.575 79.2285 263.709 76.8765 261.693 73.859C259.677 70.8414 258.6 67.2937 258.6 63.6646C258.6 60.0354 259.677 56.4877 261.693 53.4702C263.709 50.4526 266.575 48.1007 269.928 46.7117C273.28 45.3228 276.97 44.9594 280.529 45.6672C284.089 46.3751 287.358 48.1226 289.925 50.6887C291.629 52.3926 292.981 54.4156 293.903 56.642C294.825 58.8684 295.3 61.2547 295.3 63.6646C295.3 66.0744 294.825 68.4607 293.903 70.6871C292.981 72.9135 291.629 74.9365 289.925 76.6405Z" fill="white" stroke="#263238" stroke-width="0.830275" stroke-linecap="round" stroke-linejoin="round"/>
<path d="M218.672 39.4162V27.0684" stroke="#263238" stroke-width="0.830275" stroke-linecap="round" stroke-linejoin="round"/>
<path d="M217.645 22.5684V24.6643L216.809 26.1123C216.808 26.3442 216.853 26.5738 216.942 26.7881C217.03 27.0024 217.16 27.1972 217.324 27.3613C217.487 27.5254 217.682 27.6555 217.896 27.7444C218.11 27.8332 218.34 27.8789 218.572 27.8789C219.037 27.8789 219.483 27.6952 219.813 27.3677C220.143 27.0402 220.331 26.5955 220.334 26.1304V24.6824" stroke="#263238" stroke-width="2.49083" stroke-linecap="round" stroke-linejoin="round"/>
<path d="M215.824 22.4707H219.357V18.5466H215.824V22.4707Z" fill="white" stroke="#263238" stroke-width="0.830275" stroke-linecap="round" stroke-linejoin="round"/>
<path d="M214.52 21.1602H220.667V13.2794H214.52V21.1602Z" fill="white" stroke="#263238" stroke-width="0.830275" stroke-linecap="round" stroke-linejoin="round"/>
<path d="M212.689 19.6582H222.434V17.24H212.689V19.6582Z" fill="white" stroke="#263238" stroke-width="0.830275" stroke-linecap="round" stroke-linejoin="round"/>
<path d="M217.59 17.2363H218.988L220.961 19.4735L220.754 19.6581H219.726L217.59 17.2363Z" fill="#263238"/>
<path d="M221.666 17.2363L222.43 18.1015V19.6581H222.405L220.272 17.2363H221.666Z" fill="#263238"/>
<path d="M214.908 17.2363H216.305L218.278 19.4735L218.072 19.6581H217.044L214.908 17.2363Z" fill="#263238"/>
<path d="M212.685 17.7576V17.2363H213.623L215.596 19.4735L215.389 19.6581H214.361L212.685 17.7576Z" fill="#263238"/>
<path d="M217.731 13.1426V8.40039" stroke="#263238" stroke-width="1.66055" stroke-linecap="round" stroke-linejoin="round"/>
<path d="M169.082 8.28015H220.193V5.43845L207.302 -0.0205078H169.082" stroke="#263238" stroke-width="1.66055" stroke-linecap="round" stroke-linejoin="round"/>
<path d="M207.302 8.28015V-0.0205078L198.784 8.28015V-0.0205078L207.302 8.28015Z" stroke="#263238" stroke-width="1.66055" stroke-linecap="round" stroke-linejoin="round"/>
<path d="M194.487 4.17145L190.273 8.28015V-0.0205078L198.795 8.28015V-0.0205078L194.487 4.17145Z" stroke="#263238" stroke-width="1.66055" stroke-linecap="round" stroke-linejoin="round"/>
<path d="M190.284 8.28015V-0.0205078L181.767 8.28015V-0.0205078L190.284 8.28015Z" stroke="#263238" stroke-width="1.66055" stroke-linecap="round" stroke-linejoin="round"/>
<path d="M177.727 4.33435L181.777 8.28015V-0.0205078L173.256 8.28015V-0.0205078L177.727 4.33435Z" stroke="#263238" stroke-width="1.66055" stroke-linecap="round" stroke-linejoin="round"/>
<path d="M218.452 33.3926L187.251 56.9443" stroke="#263238" stroke-width="0.830275" stroke-linecap="round" stroke-linejoin="round"/>
<path d="M218.452 33.3926L249.652 56.9443" stroke="#263238" stroke-width="0.830275" stroke-linecap="round" stroke-linejoin="round"/>
<path d="M249.153 56.5947C238.77 53.5222 229.232 48.102 221.279 40.7536C220.553 40.0683 219.593 39.6865 218.595 39.6865C217.597 39.6865 216.636 40.0683 215.91 40.7536C207.958 48.1032 198.42 53.5235 188.036 56.5947C187.177 56.8525 186.432 57.3984 185.927 58.1406C185.422 58.8829 185.188 59.7763 185.264 60.6709C185.988 69.1091 190.357 92.5268 216.001 114.909C216.715 115.532 217.63 115.875 218.577 115.875C219.524 115.875 220.439 115.532 221.152 114.909C246.796 92.5377 251.166 69.1091 251.89 60.6709C251.969 59.7808 251.741 58.8904 251.243 58.1485C250.745 57.4066 250.007 56.8581 249.153 56.5947Z" fill="#249748" stroke="#263238" stroke-width="0.830275" stroke-linecap="round" stroke-linejoin="round"/>
<path d="M243.27 60.1028C235.1 57.5979 227.582 53.3254 221.249 47.5884C220.53 46.9304 219.589 46.5654 218.614 46.5654C217.639 46.5654 216.699 46.9304 215.979 47.5884C209.645 53.3237 202.127 57.596 193.958 60.1028C193.089 60.3651 192.338 60.9212 191.834 61.6759C191.329 62.4306 191.103 63.3371 191.193 64.2404C191.938 71.6144 195.866 90.1452 216.019 107.959C216.735 108.591 217.657 108.94 218.612 108.94C219.567 108.94 220.49 108.591 221.206 107.959C241.362 90.1452 245.286 71.6144 246.036 64.2404C246.123 63.3375 245.896 62.4319 245.392 61.6777C244.888 60.9234 244.138 60.3669 243.27 60.1028Z" fill="#263238" stroke="#263238" stroke-width="0.830275" stroke-miterlimit="10"/>
<path d="M243.271 60.1019C236.637 58.0535 230.417 54.8515 224.895 50.6429C224.316 50.2007 223.624 49.9294 222.898 49.8597C222.172 49.79 221.441 49.9247 220.788 50.2485C220.135 50.5723 219.585 51.0724 219.201 51.6922C218.817 52.3121 218.614 53.0269 218.615 53.7561V101.355C218.614 102.128 218.843 102.883 219.271 103.526C219.699 104.168 220.308 104.67 221.021 104.967C221.734 105.264 222.519 105.343 223.276 105.194C224.034 105.046 224.731 104.676 225.279 104.132C241.906 87.5524 245.341 71.0814 246.036 64.236C246.123 63.3336 245.895 62.4289 245.391 61.6754C244.887 60.9219 244.138 60.366 243.271 60.1019Z" fill="white" stroke="#263238" stroke-width="0.830275" stroke-linecap="round" stroke-linejoin="round"/>
<path d="M224.805 81.4211C227.947 78.2799 227.947 73.1869 224.805 70.0457C221.664 66.9044 216.571 66.9044 213.43 70.0457C210.289 73.1869 210.289 78.2799 213.43 81.4211C216.571 84.5623 221.664 84.5623 224.805 81.4211Z" fill="white" stroke="#263238" stroke-width="2.49083" stroke-linecap="round" stroke-linejoin="round"/>
<path d="M219.69 79.1078C219.432 79.1057 219.177 79.0484 218.943 78.9398C218.709 78.8311 218.501 78.6737 218.332 78.478L214.803 74.3584C214.521 73.9911 214.391 73.5296 214.438 73.0691C214.486 72.6085 214.709 72.1838 215.06 71.8824C215.412 71.5809 215.866 71.4257 216.328 71.4486C216.791 71.4715 217.227 71.6707 217.547 72.0054L219.719 74.5647L226.959 66.4849C227.112 66.2898 227.303 66.1282 227.521 66.01C227.739 65.8919 227.978 65.8197 228.225 65.798C228.472 65.7763 228.721 65.8055 228.956 65.8838C229.191 65.9621 229.407 66.0878 229.592 66.2532C229.776 66.4186 229.925 66.6201 230.028 66.8453C230.132 67.0705 230.188 67.3145 230.193 67.5622C230.199 67.81 230.153 68.0562 230.059 68.2856C229.966 68.515 229.826 68.7227 229.649 68.8958L221.058 78.5069C220.889 78.6955 220.682 78.8465 220.451 78.95C220.219 79.0535 219.969 79.1073 219.715 79.1078H219.69Z" fill="#249748"/>
<path d="M228.338 66.4264C228.582 66.4254 228.822 66.4955 229.027 66.6283C229.232 66.761 229.394 66.9506 229.494 67.1739C229.593 67.3973 229.626 67.6447 229.587 67.8861C229.548 68.1274 229.44 68.3523 229.275 68.5332L220.645 78.1443C220.527 78.2765 220.382 78.3823 220.219 78.4546C220.057 78.527 219.882 78.5643 219.704 78.5642C219.524 78.5616 219.347 78.5209 219.184 78.4448C219.021 78.3687 218.877 78.2589 218.759 78.1226L215.23 74.003C215.118 73.8776 215.032 73.7312 214.978 73.5722C214.923 73.4133 214.901 73.2451 214.912 73.0775C214.924 72.9099 214.968 72.7462 215.044 72.5961C215.119 72.4459 215.223 72.3122 215.351 72.203C215.479 72.0937 215.627 72.0109 215.787 71.9596C215.947 71.9082 216.115 71.8892 216.283 71.9038C216.45 71.9184 216.613 71.9662 216.761 72.0445C216.91 72.1227 217.042 72.2298 217.148 72.3595L219.74 75.3859L227.397 66.8463C227.515 66.7137 227.66 66.6077 227.822 66.5354C227.984 66.463 228.16 66.4258 228.338 66.4264ZM228.338 65.3404C228.008 65.341 227.682 65.4106 227.381 65.5447C227.08 65.6787 226.81 65.8742 226.589 66.1187L219.748 73.7207L217.959 71.6355C217.758 71.4012 217.513 71.2087 217.238 71.069C216.963 70.9293 216.663 70.8453 216.355 70.8216C216.047 70.7979 215.738 70.835 215.445 70.9309C215.151 71.0268 214.88 71.1795 214.645 71.3803C214.411 71.5812 214.218 71.8262 214.079 72.1015C213.939 72.3767 213.855 72.6768 213.831 72.9845C213.807 73.2923 213.845 73.6017 213.94 73.8951C214.036 74.1885 214.189 74.4601 214.39 74.6944L217.923 78.8104C218.14 79.0647 218.409 79.2697 218.712 79.4114C219.015 79.5532 219.344 79.6284 219.679 79.6321H219.704C220.034 79.6324 220.36 79.5632 220.661 79.4291C220.962 79.295 221.232 79.099 221.453 78.8538L230.083 69.2427C230.386 68.9052 230.585 68.487 230.656 68.0387C230.727 67.5904 230.667 67.1311 230.482 66.7164C230.298 66.3017 229.997 65.9493 229.616 65.7019C229.236 65.4545 228.792 65.3226 228.338 65.3223V65.3404Z" fill="#263238"/>
<path d="M307.938 157.347C307.938 157.347 306.686 159.254 305.665 160.058C304.644 160.862 302.247 162.02 301.578 162.559C300.908 163.099 301.216 163.58 301.437 163.812C301.657 164.044 304.749 164.214 306.429 164.217C308.108 164.221 311.135 163.493 311.135 163.493C311.135 163.493 312.474 163.707 312.811 163.537C313.147 163.367 313.368 162.987 313.419 162.393C313.469 161.799 313.281 158.447 313.281 158.447L307.938 157.347Z" fill="white" stroke="#263238" stroke-width="0.830275" stroke-linecap="round" stroke-linejoin="round"/>
<path d="M311.529 162.608C310.222 162.818 309.965 163.115 307.442 163.491C305.361 163.802 302.284 163.419 301.162 163.219C301.165 163.33 301.191 163.439 301.237 163.54C301.283 163.64 301.348 163.731 301.429 163.806C301.661 164.038 304.742 164.208 306.421 164.211C308.101 164.215 311.127 163.487 311.127 163.487C311.127 163.487 312.467 163.701 312.804 163.531C312.994 163.412 313.151 163.245 313.258 163.047C313.364 162.849 313.417 162.626 313.412 162.401C312.781 162.434 312.152 162.503 311.529 162.608Z" fill="#263238" stroke="#263238" stroke-width="0.830275" stroke-linecap="round" stroke-linejoin="round"/>
<path d="M309.024 158.748C309.024 158.748 307.576 158.104 306.603 159.19" stroke="#263238" stroke-width="1.66055" stroke-linecap="round" stroke-linejoin="round"/>
<path d="M307.37 158.202C307.37 158.202 308.481 159.075 308.333 160.012" stroke="#263238" stroke-width="1.66055" stroke-linecap="round" stroke-linejoin="round"/>
<path d="M307.938 159.754C307.938 159.754 306.798 159.226 306.023 160.116" stroke="#263238" stroke-width="1.66055" stroke-linecap="round" stroke-linejoin="round"/>
<path d="M306.638 159.31C306.638 159.31 307.514 160.034 307.391 160.794" stroke="#263238" stroke-width="1.66055" stroke-linecap="round" stroke-linejoin="round"/>
<path d="M307.098 160.776C307.098 160.776 306.045 160.28 304.387 160.866" stroke="#263238" stroke-width="1.66055" stroke-linecap="round" stroke-linejoin="round"/>
<path d="M305.766 160.323C305.845 160.403 305.905 160.5 305.941 160.607C305.977 160.714 305.988 160.827 305.974 160.939C305.959 161.05 305.92 161.157 305.858 161.251C305.797 161.345 305.714 161.424 305.618 161.482" stroke="#263238" stroke-width="1.66055" stroke-linecap="round" stroke-linejoin="round"/>
<path d="M316.188 159.158C316.188 159.158 315.569 161.373 315.345 161.692C315.12 162.011 313.647 163.864 313.636 164.512C313.625 165.16 314.096 165.66 315.269 165.927C316.441 166.195 318.273 166.289 319.725 165.627C321.176 164.964 321.835 164.747 322.204 163.734C322.574 162.72 322.328 159.321 322.328 159.321C322.328 159.321 317.784 155.972 316.188 159.158Z" fill="white" stroke="#263238" stroke-width="0.830275" stroke-linecap="round" stroke-linejoin="round"/>
<path d="M322.205 163.723C322.35 163.178 322.422 162.617 322.418 162.054C322.114 162.537 321.773 162.996 321.397 163.426C320.673 164.218 319.446 165.098 317.09 165.272C315.873 165.38 314.662 165.008 313.716 164.237C313.683 164.326 313.662 164.42 313.654 164.515C313.654 165.178 314.114 165.663 315.287 165.931C316.46 166.199 318.292 166.293 319.743 165.63C321.195 164.968 321.835 164.736 322.205 163.723Z" fill="#263238" stroke="#263238" stroke-width="0.830275" stroke-linecap="round" stroke-linejoin="round"/>
<path d="M319.384 158.404C319.384 158.404 317.397 158.307 316.774 159.49" stroke="#263238" stroke-width="1.66055" stroke-linecap="round" stroke-linejoin="round"/>
<path d="M317.209 158.434C317.209 158.434 318.914 158.796 319.179 159.606" stroke="#263238" stroke-width="1.66055" stroke-linecap="round" stroke-linejoin="round"/>
<path d="M318.99 159.851C318.99 159.851 317.003 159.757 316.38 160.937" stroke="#263238" stroke-width="1.66055" stroke-linecap="round" stroke-linejoin="round"/>
<path d="M316.814 159.881C316.814 159.881 318.519 160.243 318.78 161.054" stroke="#263238" stroke-width="1.66055" stroke-linecap="round" stroke-linejoin="round"/>
<path d="M318.592 161.301C318.592 161.301 316.605 161.206 315.982 162.387" stroke="#263238" stroke-width="1.66055" stroke-linecap="round" stroke-linejoin="round"/>
<path d="M316.419 161.329C316.419 161.329 318.121 161.691 318.385 162.502" stroke="#263238" stroke-width="1.66055" stroke-linecap="round" stroke-linejoin="round"/>
<path d="M304.318 115.667C304.318 115.667 305.082 127.182 305.404 130.415C305.726 133.647 306.526 141.101 306.591 141.3C306.656 141.499 306.855 144.134 306.855 144.134C306.855 144.134 306.656 145.191 306.921 147.501C307.185 149.811 307.978 154.625 307.978 154.625C307.978 154.625 307.315 154.756 307.384 155.284C307.453 155.813 307.713 157.264 307.713 157.264C307.713 157.264 310.218 158.119 310.946 158.187C311.674 158.256 313.118 158.187 313.118 158.187C313.118 158.187 313.712 157.195 313.647 156.671C313.51 156.022 313.333 155.382 313.118 154.756L313.448 150.864L313.976 134.969C313.976 134.969 316.021 150.469 316.351 151.588C316.68 152.707 317.01 154.484 317.01 154.484C317.01 154.484 316.351 155.013 316.351 155.342C316.351 155.671 316.481 157.981 316.481 157.981C316.481 157.981 317.802 156.924 319.055 157.123C320.307 157.322 322.353 158.774 322.353 158.774C322.436 158.105 322.569 157.443 322.751 156.794C323.012 155.936 322.487 153.76 322.353 153.174C322.199 152.502 322.177 151.808 322.288 151.128C322.418 150.535 322.487 148.688 322.552 148.095C322.617 147.501 322.487 132.724 322.487 132.724L323.833 115.801L304.647 115.207L304.318 115.667Z" fill="#263238" stroke="#263238" stroke-width="0.830275" stroke-linecap="round" stroke-linejoin="round"/>
<path d="M307.276 90.7717C307.276 90.7717 304.818 95.3655 304.177 96.6832C303.536 98.0009 302.79 99.4887 302.79 99.4887C300.452 96.104 298.132 92.7338 295.598 89.4939L295.033 88.835C295.033 88.835 291.869 87.6404 291.572 87.93C291.275 88.2196 290.562 92.6795 291.257 93.36C291.952 94.0406 294.877 94.446 294.877 94.446L295.431 95.0216L295.355 95.0904C295.355 95.0904 299.782 104.915 300.495 105.588C301.209 106.262 302.048 107.445 303.591 107.521C304.474 107.561 307.464 101.241 307.464 101.241L307.276 90.7717Z" fill="white" stroke="#263238" stroke-width="0.830275" stroke-linecap="round" stroke-linejoin="round"/>
<path d="M306.979 90.7064L303.186 97.3418L306.183 104.495L308.036 100.705C308.036 100.705 309.097 90.2937 308.301 90.2068C308.057 90.1866 307.812 90.221 307.584 90.3074C307.355 90.3938 307.149 90.5301 306.979 90.7064Z" fill="white" stroke="#263238" stroke-width="0.830275" stroke-linecap="round" stroke-linejoin="round"/>
<path d="M302.215 98.222C302.215 98.222 305.212 106.251 305.567 106.251C305.922 106.251 306.979 104.662 306.888 103.869C306.798 103.076 304.419 96.8102 303.63 96.7233C302.841 96.6365 302.566 97.4292 302.215 98.222Z" fill="white" stroke="#263238" stroke-width="0.830275" stroke-linecap="round" stroke-linejoin="round"/>
<path d="M296.774 90.9489C296.774 90.9489 295.717 89.1171 295.601 88.3714C295.417 87.213 296.745 86.4926 296.133 86.2175C295.522 85.9424 294.385 86.7388 294.28 87.5678C294.217 88.0902 294.238 88.6194 294.342 89.1352C294.342 89.1352 293.748 90.2212 293.9 91.0321C294.052 91.843 294.461 92.7299 294.772 92.8421" fill="white"/>
<path d="M296.774 90.9489C296.774 90.9489 295.717 89.1171 295.601 88.3714C295.417 87.213 296.745 86.4926 296.133 86.2175C295.522 85.9424 294.385 86.7388 294.28 87.5678C294.217 88.0902 294.238 88.6194 294.342 89.1352C294.342 89.1352 293.748 90.2212 293.9 91.0321C294.052 91.843 294.461 92.7299 294.772 92.8421" stroke="#263238" stroke-width="0.830275" stroke-linecap="round" stroke-linejoin="round"/>
<path d="M291.105 87.0146C291.004 86.989 290.898 86.9844 290.795 87.0009C290.692 87.0174 290.594 87.0548 290.506 87.1107C290.418 87.1666 290.342 87.2399 290.283 87.326C290.224 87.4122 290.184 87.5095 290.164 87.6119C290.123 87.7011 290.101 87.7978 290.098 87.8959C290.096 87.994 290.114 88.0916 290.15 88.1826C290.187 88.2737 290.242 88.3564 290.311 88.4257C290.381 88.495 290.463 88.5494 290.555 88.5857C290.917 88.763 292.94 89.9214 293.143 89.364C293.346 88.8065 293.541 88.3069 293.118 88.0571C292.694 87.8074 291.105 87.0146 291.105 87.0146Z" fill="white" stroke="#263238" stroke-width="0.830275" stroke-linecap="round" stroke-linejoin="round"/>
<path d="M290.852 88.6836C290.751 88.6574 290.646 88.6522 290.543 88.6683C290.44 88.6844 290.341 88.7213 290.253 88.777C290.165 88.8326 290.089 88.9057 290.03 88.9917C289.971 89.0777 289.931 89.1749 289.911 89.2772C289.869 89.3667 289.847 89.4636 289.844 89.5622C289.841 89.6607 289.859 89.7587 289.896 89.8502C289.932 89.9417 289.987 90.0248 290.057 90.0943C290.127 90.1639 290.21 90.2184 290.302 90.2546C290.664 90.432 292.684 91.5904 292.89 91.0293C293.096 90.4682 293.285 89.9759 292.865 89.7261C292.445 89.4763 290.852 88.6836 290.852 88.6836Z" fill="white" stroke="#263238" stroke-width="0.830275" stroke-linecap="round" stroke-linejoin="round"/>
<path d="M290.682 90.3951C290.596 90.3732 290.506 90.3692 290.419 90.3831C290.331 90.3971 290.247 90.4287 290.172 90.4762C290.098 90.5236 290.033 90.5858 289.983 90.659C289.933 90.7322 289.899 90.8149 289.882 90.9019C289.846 90.9778 289.827 91.0601 289.824 91.1439C289.822 91.2276 289.837 91.3109 289.868 91.3886C289.9 91.4663 289.946 91.5368 290.006 91.5957C290.066 91.6545 290.137 91.7005 290.215 91.7308C290.526 91.8829 292.242 92.8675 292.416 92.3933C292.589 91.9191 292.752 91.4955 292.394 91.282C292.035 91.0684 290.682 90.3951 290.682 90.3951Z" fill="white" stroke="#263238" stroke-width="0.830275" stroke-linecap="round" stroke-linejoin="round"/>
<path d="M290.75 91.9194C290.673 91.898 290.592 91.8929 290.512 91.9045C290.433 91.916 290.357 91.9439 290.289 91.9865C290.22 92.029 290.162 92.0853 290.117 92.1516C290.072 92.218 290.041 92.293 290.026 92.3719C289.997 92.4386 289.981 92.5104 289.981 92.5832C289.98 92.6559 289.993 92.7281 290.02 92.7956C290.048 92.863 290.088 92.9243 290.14 92.9759C290.191 93.0274 290.252 93.0683 290.319 93.0959C290.598 93.2299 292.129 94.1095 292.281 93.686C292.433 93.2625 292.582 92.886 292.281 92.6941C291.981 92.5022 290.75 91.9194 290.75 91.9194Z" fill="white" stroke="#263238" stroke-width="0.830275" stroke-linecap="round" stroke-linejoin="round"/>
<path d="M311.341 87.2781C311.341 87.2781 307.265 89.146 306.997 89.8121C306.729 90.4782 305.357 103.966 304.564 109.36C303.771 114.754 304.112 116.187 304.112 116.187C304.112 116.187 304.959 117.943 313.285 117.657C321.611 117.371 324.55 116.129 324.666 115.395C324.782 114.66 324.89 115.59 324.89 115.08C324.89 114.569 325.513 90.5071 324.89 89.0338C324.268 87.5604 320.756 85.1278 319.739 85.0156C318.722 84.9034 311.341 87.2781 311.341 87.2781Z" fill="#249748" stroke="#263238" stroke-width="0.830275" stroke-linecap="round" stroke-linejoin="round"/>
<path d="M304.557 110.175V110.24C304.419 111.178 304.322 112.021 304.253 112.792C308.432 113.636 312.7 113.96 316.959 113.755C321.303 113.491 323.714 113.331 324.941 113.252C324.959 112.51 324.977 111.648 324.996 110.696C322.092 111.011 310.762 111.992 304.557 110.175Z" fill="white" stroke="#263238" stroke-width="0.830275" stroke-linecap="round" stroke-linejoin="round"/>
<path d="M318.204 98.5249C318.393 97.4751 319.334 92.3492 320.554 89.0658L322.541 90.3799L324.518 90.4306C324.518 90.4306 320.083 86.5246 318.831 86.1879C318.579 86.1509 318.323 86.1509 318.071 86.1879C315.58 86.7997 311.341 88.1681 311.341 88.1681C311.341 88.1681 307.265 90.036 306.997 90.7021C306.908 91.0754 306.841 91.4538 306.798 91.8351L307.819 91.2559L306.588 97.6959C306.389 97.6489 306.193 97.5982 306.005 97.5439L305.705 100.147C309.814 100.959 314.006 101.268 318.19 101.066C321.546 100.86 323.75 100.704 325.144 100.628C325.144 99.7774 325.144 98.934 325.144 98.1122C323.555 98.2606 321.024 98.4525 318.204 98.5249ZM307.75 97.9457L309.256 90.4487C311.138 89.4097 313.307 88.2767 314.251 87.9726C315.413 87.6141 316.608 87.3716 317.817 87.2486L318.863 87.9436C318.744 88.2513 316.51 94.0397 315.917 98.5285L316.221 98.5539C313.385 98.6002 310.55 98.3967 307.75 97.9457Z" fill="white" stroke="#263238" stroke-width="0.830275" stroke-linecap="round" stroke-linejoin="round"/>
<path d="M307.533 114.689C307.562 115.203 307.605 115.703 307.659 116.188" stroke="#263238" stroke-width="0.830275" stroke-miterlimit="10"/>
<path d="M308.814 103.507C308.227 106.928 307.413 109.567 307.489 113.56" stroke="#263238" stroke-width="0.830275" stroke-miterlimit="10"/>
<path d="M309.814 98.4062C309.814 98.4062 309.39 100.173 308.916 102.79" stroke="#263238" stroke-width="0.830275" stroke-miterlimit="10"/>
<path d="M305.295 115.866C305.295 115.866 301.802 115.338 301.603 115.732C301.404 116.127 301.603 121.524 301.932 121.868C302.262 122.212 304.506 122.661 305.165 122.263C305.824 121.865 306.218 121.604 306.352 121.274C306.486 120.945 306.483 116.789 306.218 116.261C306.125 116.107 305.985 115.987 305.82 115.916C305.655 115.845 305.471 115.828 305.295 115.866Z" fill="#263238" stroke="#263238" stroke-width="0.830275" stroke-linecap="round" stroke-linejoin="round"/>
<path d="M309.452 116.525C309.452 116.525 308.927 121.868 309.781 122.198C310.742 122.492 311.745 122.626 312.749 122.596C313.082 122.527 314.27 122.332 314.465 121.803C314.661 121.275 314.664 117.119 314.53 116.735C314.396 116.351 309.781 115.997 309.452 116.525Z" fill="#263238" stroke="#263238" stroke-width="0.830275" stroke-linecap="round" stroke-linejoin="round"/>
<path d="M317.763 117.118C317.763 117.118 318.027 123.12 318.161 123.385C318.295 123.649 320.8 125.3 321.26 125.231C321.72 125.162 325.416 124.771 325.604 124.043C325.792 123.316 326.263 117.448 325.868 116.803C325.474 116.159 324.612 115.88 323.823 115.815C323.034 115.75 318.437 116.394 318.437 116.394C318.253 116.407 318.082 116.489 317.957 116.624C317.832 116.758 317.763 116.935 317.763 117.118Z" fill="#263238" stroke="#263238" stroke-width="0.830275" stroke-linecap="round" stroke-linejoin="round"/>
<path d="M313.039 85.7806L311.341 87.2793L311.283 89.0097L309.926 97.5022C309.926 97.5022 317.966 87.0259 318.074 86.8558C318.599 86.4969 319.148 86.1752 319.718 85.8928L319.207 83.7969L318.357 84.0249L313.039 85.7806Z" fill="white" stroke="#263238" stroke-width="0.830275" stroke-linecap="round" stroke-linejoin="round"/>
<path d="M311.341 87.2783L312.478 89.5263L312.655 87.8068L313.629 90.1924L316.898 87.5281" stroke="#263238" stroke-width="0.830275" stroke-linecap="round" stroke-linejoin="round"/>
<path d="M311.92 73.5547C311.92 73.5547 311.196 74.9556 311.149 75.1584C311.134 75.4321 311.134 75.7064 311.149 75.9801C311.149 75.9801 309.303 77.8118 309.364 77.9457C309.426 78.0797 310.135 78.3077 310.135 78.3077C310.135 78.3077 309.458 82.9812 309.853 83.0898C310.248 83.1984 313.089 82.9486 313.089 82.9486L312.644 87.8066L318.711 84.3061L319.399 81.0807C319.399 81.0807 321.357 79.3105 321.535 78.2643C321.712 77.2181 321.589 76.9937 321.589 76.9937L311.92 73.5547Z" fill="white" stroke="#263238" stroke-width="0.830275" stroke-linecap="round" stroke-linejoin="round"/>
<path d="M321.6 76.9825L315.399 74.8105L315.37 75.2811L314.751 77.4531C314.751 77.4531 316.633 76.5807 316.985 76.4757C317.336 76.3708 317.781 77.6016 317.303 78.2242C316.825 78.8468 315.464 79.56 315.464 79.56C315.464 79.56 316.55 81.1528 317.904 81.4677C318.365 81.5752 318.839 81.6166 319.312 81.5908L319.41 81.1057C319.41 81.1057 321.368 79.3355 321.546 78.2894C321.723 77.2432 321.6 76.9825 321.6 76.9825Z" fill="#263238" stroke="#263238" stroke-width="0.830275" stroke-linecap="round" stroke-linejoin="round"/>
<path d="M311.558 75.1053C311.77 75.0243 312.004 75.0209 312.218 75.0958C312.432 75.1707 312.612 75.319 312.727 75.5144" stroke="#263238" stroke-width="0.830275" stroke-linecap="round" stroke-linejoin="round"/>
<path d="M311.971 76.292C311.924 76.5599 311.797 76.759 311.689 76.7409C311.58 76.7228 311.522 76.4911 311.569 76.2232C311.616 75.9554 311.743 75.7563 311.852 75.778C311.96 75.7997 312.014 76.0278 311.971 76.292Z" fill="#263238"/>
<path d="M309.785 82.9992L314.444 82.8291L313.006 84.1902L313.057 82.963L309.785 82.9992Z" fill="#263238" stroke="#263238" stroke-width="0.830275" stroke-linecap="round" stroke-linejoin="round"/>
<path d="M317.803 76.9609L319.312 81.5656L320.543 80.7366L319.11 77.0623L317.803 76.9609Z" fill="white" stroke="#263238" stroke-width="0.830275" stroke-linecap="round" stroke-linejoin="round"/>
<path d="M311.28 72.4584C311.28 72.4584 308.384 72.3425 308.717 72.5199C309.05 72.6973 322.882 79.6984 322.882 79.6984C322.827 79.2178 322.809 78.7337 322.827 78.2504C322.889 77.8884 323.863 75.7164 324.029 73.3453C324.196 70.9742 319.482 68.8166 317.068 68.1614C314.653 67.5062 313.231 68.4655 312.775 69.7108C312.373 70.6762 311.872 71.5971 311.28 72.4584Z" fill="#249748" stroke="#263238" stroke-width="0.830275" stroke-linecap="round" stroke-linejoin="round"/>
<path d="M315.124 74.3767L312.706 73.0011C312.706 73.0011 314.784 69.8517 314.806 69.4318C314.817 69.1699 314.844 68.9088 314.885 68.6499C314.885 68.6499 315.052 67.9874 317.278 68.6499" stroke="#263238" stroke-width="0.830275" stroke-linecap="round" stroke-linejoin="round"/>
<path d="M309.925 78.5942C310.397 78.4614 310.895 78.4477 311.373 78.5544C311.942 78.7607 312.068 79.177 312.3 79.1336C312.532 79.0902 313.925 78.7716 312.459 79.7526C311.909 80.1146 311.417 79.9952 310.986 79.9445C310.658 79.8952 310.334 79.8177 310.019 79.7128C309.863 79.574 309.766 79.3805 309.749 79.1723C309.731 78.9641 309.795 78.7572 309.925 78.5942Z" fill="#263238" stroke="#263238" stroke-width="0.830275" stroke-linecap="round" stroke-linejoin="round"/>
<path d="M320.608 115.247C320.257 115.629 319.843 115.948 319.385 116.192C319.405 116.293 319.394 116.399 319.354 116.494C319.314 116.589 319.247 116.671 319.16 116.728" stroke="#263238" stroke-width="0.830275" stroke-linecap="round" stroke-linejoin="round"/>
<path d="M333.133 101.183C331.909 98.1275 329.962 95.4233 328.329 92.5672C327.841 91.6191 327.26 90.7218 326.595 89.8884C325.919 89.0503 324.958 88.4909 323.895 88.3173H323.84C323.455 88.2801 323.065 88.3254 322.698 88.4503C322.331 88.5751 321.995 88.7766 321.712 89.0413C321.161 89.5831 320.829 90.3084 320.778 91.0793C320.515 92.9176 320.853 94.7917 321.741 96.4225C322.668 98.1021 324.108 99.3981 325.455 100.766C325.85 101.168 326.233 101.574 326.595 102.001C324.24 104.991 321.882 107.982 319.522 110.975C319.375 111.147 319.253 111.338 319.16 111.543H319.066L317.067 112.694C317.067 112.694 315.59 113.697 315.565 114.197C315.511 115.257 315.905 115.699 316.228 116.209C316.625 116.635 317.068 117.015 317.549 117.342C317.867 117.513 318.635 117.813 319.153 117.382C319.67 116.951 321.212 116.524 321.299 115.837C321.386 115.149 320.611 115.236 320.611 115.236C321.119 114.814 321.442 114.212 321.513 113.556C321.74 113.509 321.961 113.436 322.172 113.339C322.843 112.992 323.464 112.556 324.018 112.043C326.635 109.871 329.448 107.909 332.105 105.78C332.635 105.414 333.077 104.934 333.397 104.376C333.864 103.409 333.546 102.207 333.133 101.183Z" fill="white" stroke="#263238" stroke-width="0.830275" stroke-linecap="round" stroke-linejoin="round"/>
<path d="M333.133 101.183C331.82 100.441 330.359 100.002 328.855 99.8977C327.663 99.871 326.488 100.172 325.455 100.766C324.109 99.3909 322.668 98.0949 321.741 96.4225C320.853 94.7917 320.515 92.9176 320.778 91.0793C320.829 90.3084 321.161 89.5831 321.712 89.0413C321.995 88.7766 322.332 88.5751 322.699 88.4503C323.066 88.3254 323.455 88.2801 323.841 88.3173H323.895C324.958 88.4909 325.919 89.0503 326.596 89.8884C327.261 90.7218 327.842 91.6191 328.33 92.5672C329.962 95.4233 331.91 98.1275 333.133 101.183Z" fill="white" stroke="#263238" stroke-width="0.830275" stroke-linecap="round" stroke-linejoin="round"/>
<path d="M325.589 103.076C325.589 103.076 327.707 101.487 329.473 101.665C331.24 101.842 333.176 103.341 333.455 103.25C333.734 103.16 334.516 102.371 334.252 101.487C334.052 100.673 333.785 99.8762 333.455 99.1053C333.013 98.1352 331.164 97.6067 329.397 98.0483C327.631 98.4899 324.811 100.517 324.901 101.133C325.066 101.801 325.297 102.453 325.589 103.076Z" fill="white" stroke="#263238" stroke-width="0.830275" stroke-linecap="round" stroke-linejoin="round"/>
</g>
<defs>
<clipPath id="clip0_244_4350">
<rect width="507" height="165" fill="white"/>
</clipPath>
</defs>
</svg>
