<svg width="304" height="165" viewBox="0 0 304 165" fill="none" xmlns="http://www.w3.org/2000/svg">
<g clip-path="url(#clip0_249_6281)">
<path d="M77.8669 13.8418C77.6661 14.4332 77.4429 15.0023 77.2197 15.5379L77.8669 13.8418Z" fill="#C7634B"/>
<path d="M191.486 14.9233C192.412 16.1061 193.037 17.4452 193.327 18.9181C193.361 19.0632 193.55 19.1413 193.684 19.0967C194.923 18.6838 196.228 18.7619 197.422 19.3087C197.757 19.4649 198.003 18.9516 197.668 18.7954C196.351 18.1928 194.889 18.1035 193.506 18.5611C193.628 18.6169 193.74 18.6838 193.863 18.7396C193.561 17.2332 192.914 15.8272 191.955 14.6108C191.742 14.3319 191.263 14.6332 191.486 14.9233Z" fill="#353659"/>
<path d="M215.882 17.7648C220.788 17.7648 224.765 13.788 224.765 8.88241C224.765 3.97679 220.788 0 215.882 0C210.977 0 207 3.97679 207 8.88241C207 13.788 210.977 17.7648 215.882 17.7648Z" fill="#FFF5EE"/>
<path d="M70.0558 97.6232C77.6661 97.6679 85.2764 97.7013 92.8867 97.746C93.3108 97.746 93.3108 97.0876 92.8867 97.0876C85.2764 97.043 77.6661 97.0095 70.0558 96.9648C69.6318 96.9648 69.6318 97.6232 70.0558 97.6232Z" fill="white"/>
<path d="M88.3117 100.387C93.8018 100.878 99.3142 100.845 104.793 100.298C105.217 100.254 105.217 99.5952 104.793 99.6399C99.3142 100.198 93.8018 100.231 88.3117 99.7291C87.8876 99.6845 87.8988 100.354 88.3117 100.387Z" fill="white"/>
<path d="M76.0038 103.425C77.2648 103.336 78.5257 103.235 79.7867 103.146C80.2107 103.112 80.2107 102.454 79.7867 102.488C78.5257 102.577 77.2648 102.677 76.0038 102.767C75.5798 102.8 75.5798 103.458 76.0038 103.425Z" fill="white"/>
<path d="M84.3507 103.502C85.4778 103.502 86.6048 103.502 87.7207 103.502C88.1447 103.502 88.1447 102.844 87.7207 102.844C86.5937 102.844 85.4666 102.844 84.3507 102.844C83.9267 102.844 83.9267 103.502 84.3507 103.502Z" fill="white"/>
<path d="M72.0424 106.1C76.4724 106.412 80.9025 106.535 85.3437 106.468C85.7677 106.457 85.7677 105.799 85.3437 105.81C80.9025 105.877 76.4724 105.754 72.0424 105.442C71.6184 105.408 71.6184 106.078 72.0424 106.1Z" fill="white"/>
<path d="M222.586 97.3754C231.58 97.1076 240.585 97.0295 249.579 97.1745C250.003 97.1857 250.003 96.5162 249.579 96.5162C240.574 96.3823 231.58 96.4492 222.586 96.717C222.162 96.7282 222.162 97.3866 222.586 97.3754Z" fill="white"/>
<path d="M238.197 100.356C244.68 100.568 251.163 100.612 257.658 100.501C258.082 100.49 258.082 99.8313 257.658 99.8425C251.175 99.9652 244.68 99.9206 238.197 99.6974C237.773 99.6862 237.773 100.345 238.197 100.356Z" fill="white"/>
<path d="M234.626 103.09C237.148 103.124 239.659 103.269 242.17 103.537C242.594 103.581 242.594 102.923 242.17 102.878C239.659 102.621 237.148 102.465 234.626 102.432C234.202 102.421 234.202 103.09 234.626 103.09Z" fill="white"/>
<path d="M239.101 105.913C239.849 106.113 240.607 106.169 241.377 106.069C241.79 106.013 241.801 105.355 241.377 105.41C240.663 105.5 239.971 105.466 239.268 105.277C238.855 105.165 238.688 105.812 239.101 105.913Z" fill="white"/>
<path d="M233.945 108.836C235.552 109.059 237.17 109.138 238.799 109.059C239.223 109.037 239.223 108.379 238.799 108.401C237.237 108.479 235.675 108.423 234.124 108.2C233.711 108.133 233.532 108.769 233.945 108.836Z" fill="white"/>
<path d="M92.4739 83.4834H90.6885L86.9614 124.18H88.7468L92.4739 83.4834Z" fill="white"/>
<path d="M128.104 83.4834H126.319L122.592 124.18H124.377L128.104 83.4834Z" fill="white"/>
<path d="M234.994 83.4834H233.209L229.482 124.18H231.267L234.994 83.4834Z" fill="white"/>
<path d="M199.364 83.4834H197.579L193.852 124.18H195.637L199.364 83.4834Z" fill="white"/>
<path d="M163.734 83.4834H161.949L158.222 124.18H160.007L163.734 83.4834Z" fill="white"/>
<path d="M134.356 143.922C140.227 132.959 138.134 120.402 129.681 115.875C121.228 111.348 109.616 116.565 103.744 127.528C97.8732 138.491 99.9661 151.048 108.419 155.575C116.872 160.102 128.484 154.885 134.356 143.922Z" fill="#353659"/>
<path d="M128.863 141.734C132.625 134.71 131.279 126.662 125.858 123.758C120.436 120.854 112.991 124.195 109.229 131.219C105.467 138.243 106.813 146.291 112.234 149.195C117.656 152.099 125.101 148.758 128.863 141.734Z" fill="#43466B"/>
<path d="M116.499 150.672C113.642 150.672 111.087 149.489 109.29 147.335C107.025 144.613 106.177 140.629 106.958 136.411C108.397 128.622 114.97 122.295 121.598 122.295C124.455 122.295 127.01 123.478 128.807 125.631C131.072 128.354 131.92 132.338 131.139 136.567C129.7 144.345 123.138 150.672 116.499 150.672ZM121.609 123.143C115.372 123.143 109.179 129.158 107.806 136.567C107.07 140.54 107.851 144.267 109.96 146.8C111.589 148.752 113.91 149.835 116.51 149.835C122.748 149.835 128.941 143.82 130.313 136.422C131.05 132.449 130.269 128.722 128.16 126.189C126.53 124.214 124.198 123.143 121.609 123.143Z" fill="#69709E"/>
<path d="M144.675 124.659L144.753 124.826C145.869 127.058 144.954 129.792 142.722 130.897L119.49 142.491C117.258 143.607 114.524 142.692 113.419 140.46L113.341 140.293C112.225 138.061 113.14 135.327 115.372 134.222L138.605 122.628C140.825 121.523 143.559 122.427 144.675 124.659Z" fill="#5F638B"/>
<path d="M164.18 94.0732C165.408 92.7676 137.444 95.0887 136.64 92.4217C134.966 86.8535 133.895 77.4912 143.391 77.4912C157.351 77.4912 177.917 77.4243 177.504 88.3822C177.102 98.8938 165.698 108.379 162.685 124.66C162.685 124.66 162.049 131.12 159.114 129.525C157.106 128.442 155.432 125.385 155.432 125.385C159.058 111.079 157.094 101.639 164.18 94.0732Z" fill="#F6AE92"/>
<path d="M155.008 128.086C154.941 129.079 154.863 130.039 154.83 130.942C154.807 131.478 155.164 131.958 155.689 132.081C157.006 132.404 158.4 132.449 159.762 132.482C164.203 132.605 168.633 132.728 173.074 132.839C173.532 132.851 174.045 132.851 174.313 132.404C174.48 132.125 174.48 131.768 174.335 131.467C174.056 130.864 173.443 130.585 172.862 130.34C170.028 129.146 166.959 127.93 164.884 125.776C164.817 125.709 164.75 125.642 164.694 125.564C164.259 125.084 163.868 124.548 163.545 123.968C163.299 123.522 163.087 123.031 162.976 122.529C162.942 122.35 162.909 122.183 162.897 122.004C162.886 121.937 162.886 121.87 162.886 121.792C162.886 121.792 160.945 122.462 159.226 122.451C157.173 122.439 155.388 121.134 155.388 121.134C155.733 122.685 155.187 124.437 155.109 126.245C155.086 126.858 155.053 127.472 155.008 128.086Z" fill="#25283F"/>
<path d="M104.336 97.3746C104.336 97.3746 99.6048 93.8596 102.461 89.9429C105.318 86.0261 111.623 89.9875 127.022 91.5274C149.786 93.8038 163.098 91.2931 175.072 91.8957C178.141 92.0519 175.485 108.02 168.6 107.596C158.244 106.982 104.336 97.3746 104.336 97.3746Z" fill="#43466B"/>
<path d="M210.858 109.272L210.557 109.942C209.229 110.478 207.901 111.002 206.573 111.538C206.283 111.649 205.959 111.817 205.926 112.129C205.903 112.319 206.015 112.497 206.115 112.665C207.588 115.019 208.872 117.497 209.932 120.074C211.371 119.103 212.822 118.133 214.261 117.151C212.945 114.606 211.806 111.973 210.858 109.272Z" fill="#39364B"/>
<path d="M210.779 54.6492C211.159 56.0218 211.538 57.4055 211.907 58.778C212.085 59.4475 212.252 60.1282 212.197 60.8312C212.152 61.4784 211.918 62.1145 211.594 62.7394C210.913 64.0449 209.92 65.2836 209.016 66.5334C208.057 67.8724 207.086 69.2115 206.126 70.5505C205.847 70.9299 206.55 71.2535 206.829 70.8741C207.867 69.4346 208.894 68.0063 209.931 66.5668C210.824 65.3282 211.817 64.0896 212.464 62.784C213.123 61.4561 213.156 60.2063 212.833 58.9119C212.464 57.4278 212.029 55.966 211.628 54.493C211.538 54.0801 210.679 54.2475 210.779 54.6492Z" fill="#39364B"/>
<path d="M212.777 51.0337C213.458 51.759 213.893 52.674 213.625 53.6114C213.357 54.5487 212.197 55.4526 210.958 55.4749C210.712 55.486 210.489 55.4079 210.333 55.2852C209.463 54.5152 209.072 53.4328 209.295 52.3616C209.407 51.8483 209.664 51.3015 210.188 50.9221C210.701 50.5315 211.516 50.3307 212.107 50.5539C212.386 50.6431 212.598 50.8328 212.777 51.0337Z" fill="#39364B"/>
<path d="M234.501 151.624C242.395 144.651 244.253 133.858 238.652 127.516C233.05 121.174 222.11 121.685 214.216 128.658C206.322 135.63 204.464 146.423 210.065 152.765C215.667 159.107 226.607 158.596 234.501 151.624Z" fill="#353659"/>
<path d="M172.315 140.784L152.732 142.157C151.839 142.224 150.969 142.034 150.199 141.644C149.484 141.287 148.86 140.751 148.391 140.07L144.195 133.978C143.459 132.906 142.555 131.958 141.528 131.188C139.988 130.005 138.169 129.213 136.217 128.867L92.5856 121.301C90.711 120.978 89.6955 118.924 90.5771 117.239C93.2887 112.062 99.4372 102.487 109.223 98.9835C120.851 94.8213 163.444 103.213 172.304 106.248C173.599 106.694 169.503 111.158 169.09 112.463C167.551 117.262 162.54 128.967 169.793 129.782L170.24 131.723L172.025 139.568L172.315 140.784Z" fill="#39B54A"/>
<path d="M230.862 148.103C235.92 143.635 237.11 136.719 233.52 132.654C229.929 128.589 222.919 128.915 217.861 133.383C212.803 137.85 211.613 144.767 215.204 148.832C218.794 152.896 225.804 152.57 230.862 148.103Z" fill="#43466B"/>
<path d="M222.262 151.84C219.238 151.84 216.638 150.669 214.931 148.56C213.179 146.384 212.588 143.482 213.268 140.391C214.63 134.176 220.812 129.121 227.061 129.121C230.085 129.121 232.685 130.293 234.392 132.402C236.144 134.578 236.735 137.479 236.055 140.57C234.682 146.774 228.5 151.84 222.262 151.84ZM227.061 129.958C221.202 129.958 215.388 134.712 214.105 140.559C213.48 143.393 214.016 146.038 215.6 148.013C217.14 149.921 219.506 150.981 222.262 150.981C228.121 150.981 233.934 146.228 235.218 140.38C235.843 137.546 235.307 134.901 233.722 132.926C232.182 131.018 229.817 129.958 227.061 129.958Z" fill="#69709E"/>
<path d="M228.613 144.627C231.551 142.032 232.292 138.071 230.268 135.78C228.245 133.489 224.223 133.735 221.285 136.33C218.348 138.925 217.607 142.886 219.63 145.177C221.654 147.468 225.676 147.221 228.613 144.627Z" fill="#69709E"/>
<path d="M216.359 108.19C215.321 109.105 213.982 109.585 212.811 110.322C212.498 110.522 212.063 110.79 211.538 111.114C211.483 111.147 211.427 111.181 211.371 111.214C210.333 111.85 208.994 112.643 207.644 113.357C207.365 113.502 207.075 113.647 206.796 113.792C203.538 115.41 200.614 116.236 202.221 112.788C202.823 111.516 203.259 110.176 203.605 108.804C204.709 104.441 203.024 88.3275 201.284 78.8872C201.049 77.6374 200.815 76.4992 200.592 75.5172C200.514 75.1936 200.447 74.8923 200.369 74.6022C200.313 74.379 200.257 74.167 200.201 73.9773C200.067 73.5086 199.944 73.118 199.822 72.7944C199.744 72.6047 199.688 72.4262 199.666 72.2588C199.599 71.7901 199.721 71.3661 199.978 70.9979C200.168 70.7077 200.435 70.4623 200.748 70.2391C200.926 70.1163 201.116 69.9936 201.317 69.8931C201.931 69.5695 202.623 69.3464 203.247 69.2348C203.448 69.2013 203.638 69.179 203.817 69.1567C203.962 69.1455 204.107 69.1455 204.229 69.1455C204.33 69.1455 204.43 69.1567 204.52 69.1678C204.776 69.2125 204.966 69.3017 205.044 69.4468C205.267 69.8708 205.635 71.8459 206.071 74.5575C206.071 74.591 206.082 74.6133 206.082 74.6468C206.104 74.7696 206.115 74.8811 206.138 75.0039C206.238 75.6511 206.338 76.3318 206.45 77.0459C206.495 77.3361 206.539 77.6374 206.584 77.9387C206.673 78.5859 206.774 79.2442 206.863 79.9138C207.778 86.3747 208.715 93.8957 209.061 96.6073C209.139 97.2769 209.195 97.6563 209.195 97.6563C209.24 97.7679 209.273 97.8683 209.318 97.9687C211.293 102.611 216.538 102.856 217.43 104.508C218.078 105.724 217.397 107.275 216.359 108.19Z" fill="#39B54A"/>
<path d="M123.361 22.0771C123.361 22.0771 119.534 32.1201 107.382 25.4806C95.2412 18.8299 89.6953 34.7982 89.6953 34.7982C89.6953 34.7982 90.6996 40.1209 93.0987 42.23C93.0987 42.23 96.1786 40.8016 97.8524 41.0248C97.8524 41.0248 94.7168 41.951 93.9468 43.8368C93.9468 43.8368 96.2902 48.9922 101.847 50.6772C120.125 56.2343 126.832 40.7905 126.832 40.7905L134.174 32.3098L123.361 22.0771Z" fill="#262F36"/>
<path d="M90.9903 38.5803C93.3783 33.5811 98.5002 30.1107 104.068 29.9099C107.126 29.7983 110.105 30.5571 113.096 31.1039C115.584 31.5614 118.218 31.9743 120.617 30.9365C123.05 29.8764 124.857 27.7339 125.795 25.279C125.85 25.1339 125.627 25.0223 125.571 25.1674C124.589 27.7339 122.637 29.988 120.003 30.9142C117.102 31.9296 113.832 31.0035 110.931 30.4344C108.208 29.9099 105.43 29.4189 102.651 29.7871C100.308 30.0996 98.065 30.9811 96.1122 32.309C93.8135 33.8601 91.9723 35.9914 90.7783 38.491C90.689 38.6249 90.9122 38.7365 90.9903 38.5803Z" fill="#45515A"/>
<path d="M112.672 40.5C112.672 40.5 110.674 59.682 112.895 64.1232C115.115 68.5644 122.067 66.8013 123.194 64.391C124.31 61.9919 119.791 41.4597 119.791 41.4597L112.672 40.5Z" fill="#249748"/>
<path d="M131.619 37.4639C131.619 37.4639 152.564 43.5566 154.93 42.1282C157.296 40.6999 165.609 45.8776 161.893 50.6871C158.166 55.4965 145.445 53.4656 145.445 53.4656L131.619 37.4639Z" fill="#39B54A"/>
<path d="M142.867 53.8339C142.387 59.2013 139.575 69.3112 139.575 69.3112C139.575 69.3112 118.887 75.3593 118.485 68.8537C118.485 68.8537 119.099 54.5816 115.617 45.9335C112.749 38.8253 124.745 36.8279 129.521 37.33C139.575 38.3901 143.414 47.5961 142.867 53.8339Z" fill="#39B54A"/>
<path d="M135.547 38.5706C135.346 38.6376 141.896 50.4101 141.963 56.235L143.593 53.0436C143.593 53.0436 140.557 42.9337 138.125 39.2625C138.125 39.2625 136.317 38.3028 135.547 38.5706Z" fill="#249748"/>
<path d="M126.721 36.0591C128.719 30.7476 129.221 27.8686 129.221 27.8574L131.051 29.0179L131.43 29.2634L134.7 31.3501C134.7 31.3501 134.666 31.5956 134.61 31.975C134.532 32.5441 134.421 33.4257 134.343 34.3295C134.242 35.5012 134.186 36.7175 134.32 37.3759C134.51 38.3244 136.195 40.9132 131.876 40.4446C127.379 39.9536 126.219 37.3982 126.721 36.0591Z" fill="#FFBEA4"/>
<path d="M131.173 29.3867C131.173 29.3867 131.307 29.5429 131.53 29.7773C132.244 30.5696 133.873 32.3438 134.643 32.9129C134.543 33.5936 134.409 34.6537 134.297 35.7472C133.427 35.1223 130.749 32.8794 131.162 29.4983C131.162 29.4648 131.162 29.4202 131.173 29.3867Z" fill="#FC9171"/>
<path d="M126.531 28.3136C120.594 15.7153 132.835 16.4518 136.428 19.4647C140.01 22.4775 143.648 32.2861 137.544 33.5917C131.44 34.8861 126.531 28.3136 126.531 28.3136Z" fill="#FFBEA4"/>
<path d="M134.375 33.7138C132.367 33.2898 130.525 32.3747 128.963 31.0357C128.885 30.9687 128.997 30.846 129.075 30.9129C130.615 32.2297 132.422 33.1224 134.409 33.5464C134.509 33.5687 134.476 33.7361 134.375 33.7138Z" fill="#FC9171"/>
<path d="M137.165 25.9609C137.511 26.4965 137.332 26.5523 136.864 26.8871C136.774 26.954 136.696 26.7978 136.786 26.742C136.908 26.6527 137.165 26.4072 137.165 26.251C137.165 26.106 136.864 25.827 136.774 25.7042C136.585 25.4587 136.373 25.2244 136.183 24.9789C135.904 24.6107 135.58 24.2201 135.491 23.7514C135.368 23.0931 135.848 22.5798 136.495 22.524C136.607 22.5128 136.596 22.6802 136.495 22.6914C135.19 22.7918 135.714 24.0639 136.172 24.6888C136.473 25.124 136.864 25.5145 137.165 25.9609Z" fill="#C56146"/>
<path d="M132.188 24.0964C132.021 23.8509 132.177 23.3376 132.601 23.0587C133.025 22.7797 133.549 22.8355 133.717 23.081C133.884 23.3265 133.572 23.6055 133.148 23.8844C132.724 24.1634 132.355 24.3419 132.188 24.0964Z" fill="#C56146"/>
<path d="M135.447 22.1781C135.324 21.9103 135.558 21.4305 136.027 21.2296C136.484 21.0176 136.998 21.1626 137.12 21.4305C137.243 21.6983 136.897 21.9214 136.429 22.1335C135.971 22.3343 135.569 22.4459 135.447 22.1781Z" fill="#C56146"/>
<path d="M133.828 25.6466C133.672 25.3453 133.728 25.0106 133.94 24.899C134.152 24.7874 134.453 24.9548 134.609 25.2561C134.766 25.5574 134.71 25.8921 134.498 26.0037C134.275 26.1153 133.985 25.9591 133.828 25.6466Z" fill="#262F36"/>
<path d="M137.02 24.0187C136.864 23.7174 136.92 23.3827 137.132 23.2711C137.344 23.1595 137.645 23.3269 137.801 23.6281C137.957 23.9294 137.902 24.2642 137.69 24.3758C137.466 24.4762 137.165 24.32 137.02 24.0187Z" fill="#262F36"/>
<path d="M138.549 27.8343C138.504 28.0909 138.426 28.4145 138.292 28.6377C138.102 28.939 137.79 29.2179 137.276 29.3072C136.718 29.4076 136.272 29.2849 135.949 29.084C135.748 28.9613 135.558 28.7493 135.413 28.5484C135.357 28.4703 135.346 28.381 135.379 28.3029C135.413 28.2137 135.502 28.1467 135.603 28.1467C135.625 28.1467 135.658 28.1467 135.681 28.1467C135.692 28.1467 135.703 28.1467 135.714 28.1467C135.759 28.1467 135.792 28.1467 135.837 28.1467C135.848 28.1467 135.87 28.1467 135.893 28.1467C136.038 28.1467 136.183 28.1355 136.35 28.1132C136.406 28.1132 136.462 28.1021 136.518 28.0909C136.54 28.0909 136.573 28.0797 136.596 28.0797C136.629 28.0797 136.652 28.0686 136.685 28.0686C136.718 28.0686 136.741 28.0574 136.774 28.0574C136.808 28.0574 136.83 28.0463 136.864 28.0463C136.908 28.0351 136.942 28.0351 136.986 28.024C137.02 28.0128 137.053 28.0128 137.087 28.0016C137.165 27.9793 137.243 27.9682 137.321 27.9458C137.343 27.9347 137.377 27.9347 137.41 27.9235C137.511 27.89 137.622 27.8677 137.723 27.8231C137.767 27.8119 137.812 27.7896 137.857 27.7785C137.89 27.7673 137.935 27.745 137.968 27.7338C137.979 27.7227 138.002 27.7227 138.013 27.7115C138.046 27.7003 138.08 27.678 138.113 27.6669C138.158 27.6446 138.203 27.6222 138.247 27.5999C138.337 27.5553 138.426 27.5776 138.482 27.6334C138.526 27.678 138.56 27.7561 138.549 27.8343Z" fill="#262F36"/>
<path d="M138.482 27.6343C138.091 28.0137 137.466 28.4936 136.785 28.5047C136.239 28.5047 135.748 28.4155 135.391 28.3039C135.424 28.2146 135.513 28.1476 135.614 28.1476C135.636 28.1476 135.67 28.1476 135.692 28.1476C135.703 28.1476 135.714 28.1476 135.725 28.1476C135.77 28.1476 135.803 28.1476 135.848 28.1476C135.859 28.1476 135.882 28.1476 135.904 28.1476C136.049 28.1476 136.194 28.1365 136.361 28.1142C136.417 28.1142 136.473 28.103 136.529 28.0919C136.551 28.0919 136.585 28.0807 136.607 28.0807C136.64 28.0807 136.663 28.0695 136.696 28.0695C136.73 28.0695 136.752 28.0584 136.785 28.0584C136.819 28.0584 136.841 28.0472 136.875 28.0472C136.919 28.0361 136.953 28.0361 136.997 28.0249C137.031 28.0137 137.064 28.0137 137.098 28.0026C137.176 27.9803 137.254 27.9691 137.332 27.9468C137.355 27.9356 137.388 27.9356 137.422 27.9245C137.522 27.891 137.634 27.8687 137.734 27.824C137.779 27.8129 137.823 27.7906 137.868 27.7794C137.901 27.7682 137.946 27.7459 137.979 27.7348C137.991 27.7236 138.013 27.7236 138.024 27.7125C138.058 27.7013 138.091 27.679 138.125 27.6678C138.169 27.6455 138.214 27.6232 138.258 27.6009C138.325 27.5674 138.415 27.5785 138.482 27.6343Z" fill="white"/>
<path d="M138.281 28.6384C138.092 28.9397 137.779 29.2187 137.266 29.308C136.708 29.4084 136.262 29.2856 135.938 29.0848C136.161 28.9286 136.608 28.6831 137.165 28.6831C137.177 28.6831 137.891 28.2255 138.281 28.6384Z" fill="#E55A4D"/>
<path d="M117.213 47.0601C110.217 42.2395 103.376 36.4369 98.8905 30.9356C96.8261 28.4026 90.4656 15.4249 90.4656 15.4249L96.5025 10.1914C96.5025 10.1914 103.555 21.0712 108.163 25.624C112.024 29.4404 120.204 35.6223 126.721 36.0464L128.93 50.2181C128.93 50.2292 119.657 48.7451 117.213 47.0601Z" fill="#39B54A"/>
<path d="M96.5026 10.1923C96.3799 9.86865 95.8554 9.98023 95.3867 10.1923C94.7618 10.4712 93.9361 11.018 93.0769 11.7545C92.3515 12.3905 91.7155 13.0601 91.258 13.6515C90.979 14.0086 90.7335 14.388 90.5773 14.7339C90.5661 14.7562 90.3764 15.1691 90.4657 15.4034C90.5438 15.6043 90.7893 15.6489 91.1352 15.5596C91.3807 15.4927 91.6709 15.3699 92.0056 15.1802C92.0056 15.1802 92.0168 15.1802 92.0168 15.1691C92.5636 14.8566 93.2108 14.3991 93.8803 13.8189C94.2374 13.5064 94.5721 13.1828 94.8734 12.8704C95.3086 12.424 95.6769 11.9888 95.9447 11.5871C96.1902 11.297 96.6477 10.5717 96.5026 10.1923Z" fill="#006837"/>
<path d="M95.956 11.6216C95.4873 11.0748 95.465 10.7066 95.3869 10.2044C95.3311 9.86967 95.2418 9.47912 94.9628 8.95465C94.4384 7.96152 92.4633 4.55808 91.8719 3.55379C91.7603 3.36409 91.4925 3.35293 91.3697 3.53147C90.9903 4.08941 91.0461 5.13834 91.3028 5.87482C91.392 6.14263 91.3809 6.67826 91.2358 6.6671C89.6513 5.06023 86.6719 2.22589 86.2255 2.66108C85.8238 3.05164 87.665 5.24993 88.9929 6.67825L88.9148 6.73405C87.1182 5.1495 84.7972 2.58297 84.3285 3.09628C83.8152 3.66538 85.5671 6.25422 87.2856 7.82761L87.2075 7.88341C87.1963 7.87225 87.1852 7.86109 87.174 7.86109C85.5225 6.37697 83.4916 4.65851 82.9448 5.17181C82.677 5.42847 84.1388 7.30315 85.5783 8.97697C86.0135 9.57954 85.8238 9.63534 85.5894 9.5907C85.4779 9.54607 85.3551 9.51259 85.2547 9.46796C84.1388 9.09971 83.6701 9.17783 83.5697 9.54607C83.5027 9.79156 85.3105 10.4388 87.1852 12.1907C88.1113 13.0611 89.3834 13.5856 90.756 14.389C91.1354 14.6122 91.5482 14.8688 91.9946 15.2147C92.5414 14.9023 93.1998 14.4448 93.8693 13.8534C94.2264 13.5409 94.5611 13.2173 94.8624 12.9049C95.3088 12.4585 95.677 12.0122 95.956 11.6216Z" fill="#FFBEA4"/>
<path d="M123.941 35.5674C123.941 35.5674 125.905 39.83 124.923 46.4361C123.707 54.7047 119.88 58.6661 117.213 59.2017C114.535 59.7374 116.789 62.2369 116.789 62.2369C116.789 62.2369 126.608 59.6481 127.825 47.9313C128.673 39.7519 126.72 36.0584 126.72 36.0584L123.941 35.5674Z" fill="#249748"/>
<path d="M135.949 19.1083C135.949 19.1083 129.443 16.6199 128.215 26.7967C128.215 26.7967 129.331 29.4302 128.439 30.9924C127.546 32.5547 123.417 29.1959 123.417 29.1959C123.417 29.1959 118.719 24.353 120.717 19.6663C122.725 14.9684 132.869 12.8147 135.949 19.1083Z" fill="#262F36"/>
<path d="M127.836 29.2419C126.698 28.6839 126.129 27.49 126.586 26.5861C127.044 25.6822 128.316 25.4033 129.465 25.9612C130.604 26.5191 131.173 27.7131 130.715 28.617C130.258 29.532 128.974 29.811 127.836 29.2419Z" fill="#FFBEA4"/>
<path d="M127.457 29.1732C126.866 28.8385 126.564 28.2471 126.375 27.611C126.341 27.5106 126.508 27.4659 126.542 27.5664C126.709 28.1578 126.977 28.7157 127.546 29.0282C128.249 29.4187 129.175 29.5303 129.956 29.3741C130.057 29.3518 130.102 29.5192 130.001 29.5415C129.164 29.7089 128.193 29.5861 127.457 29.1732Z" fill="#C56146"/>
<path d="M128.964 27.2101C128.874 27.1431 128.964 27.0092 129.053 27.065C129.209 27.1766 129.432 27.344 129.455 27.5449C129.466 27.6453 129.41 27.7234 129.377 27.8127C129.287 28.0247 129.287 28.2144 129.41 28.4152C129.466 28.5045 129.321 28.5826 129.265 28.4934C129.176 28.3371 129.131 28.1698 129.153 27.9801C129.165 27.8908 129.209 27.8127 129.232 27.7346C129.276 27.4779 129.165 27.3552 128.964 27.2101Z" fill="#C56146"/>
<path d="M129.655 26.2157C129.499 26.0818 129.32 25.9813 129.12 25.9255C129.019 25.8921 129.064 25.7358 129.164 25.7693C129.387 25.8363 129.599 25.9479 129.767 26.1041C129.856 26.1822 129.733 26.2938 129.655 26.2157Z" fill="#C56146"/>
<path d="M195.57 71.6879L207.376 77.4905L206.015 74.7454L209.083 70.0141L202.366 66.8896C202.41 69.3334 200.513 71.3866 198.07 71.5429L195.57 71.6879Z" fill="#43466B"/>
<path d="M201.15 67.3361L202.924 57.1146C203.069 56.3 203.839 55.7644 204.642 55.9094L205.613 56.0768C206.428 56.2219 206.963 56.9918 206.818 57.7953L205.044 68.0167C204.899 68.8313 204.129 69.367 203.326 69.2219L202.355 69.0545C201.551 68.9206 201.004 68.1507 201.15 67.3361Z" fill="#43466B"/>
<path d="M203.214 71.3643L187.022 75.3703C186.063 75.6047 185.092 75.0244 184.858 74.0647L184.735 73.5626C184.5 72.6029 185.081 71.6321 186.04 71.3978L202.232 67.3918C203.191 67.1574 204.162 67.7377 204.397 68.6974L204.519 69.1995C204.765 70.1592 204.173 71.13 203.214 71.3643Z" fill="#43466B"/>
<path d="M196.965 60.4621C197.188 60.8526 197.512 61.1874 197.891 61.444C198.494 61.8569 199.242 62.0578 199.967 61.9797C200.391 61.935 200.793 61.8011 201.206 61.7342C201.853 61.6226 202.522 61.6561 203.158 61.8346C203.169 61.8458 203.181 61.8569 203.181 61.8792C203.482 62.3033 203.716 62.7608 204.029 63.1737C204.408 63.6758 204.933 64.1222 205.546 64.1668C205.613 64.178 205.68 64.178 205.747 64.1333C205.881 64.0552 205.859 63.8543 205.825 63.6981C205.613 62.8501 205.323 62.002 204.944 61.1986C204.966 61.2209 204.988 61.2432 205 61.2655C205.39 61.7453 205.669 62.3256 206.048 62.8166C206.428 63.3187 207.499 62.1359 207.265 61.5333C207.421 61.7342 208.581 60.105 207.8 59.1119C208.012 59.2234 209.307 57.4604 207.622 56.6569C207.354 56.523 207.064 56.4114 206.763 56.3333C205.836 56.0767 204.866 56.0767 203.906 56.1101C202.924 56.1436 201.942 56.2217 200.971 56.3222C200.514 56.3779 200.045 56.4337 199.599 56.5007C199.554 56.5119 199.521 56.5119 199.476 56.523C197.914 56.7797 196.608 57.3376 196.63 59.5582C196.697 59.8818 196.809 60.1943 196.965 60.4621Z" fill="#FFBEA4"/>
<path d="M207.365 61.3992C206.885 60.7743 206.383 59.8146 205.568 59.5691C205.49 59.5468 205.434 59.6695 205.524 59.6919C206.294 59.9262 206.796 60.8858 207.265 61.4884C207.32 61.5554 207.421 61.4661 207.365 61.3992Z" fill="#FC9171"/>
<path d="M205.032 61.2775C204.798 60.6972 204.296 60.262 203.682 60.117C203.604 60.0946 203.548 60.2174 203.638 60.2397C204.218 60.3848 204.686 60.7753 204.91 61.3333C204.943 61.4114 205.066 61.3556 205.032 61.2775Z" fill="#FC9171"/>
<path d="M207.878 59.0924C207.499 58.7688 207.153 58.4006 206.852 58.01C206.796 57.9431 206.695 58.0324 206.751 58.0993C207.064 58.501 207.421 58.8693 207.811 59.2152C207.867 59.2598 207.945 59.1482 207.878 59.0924Z" fill="#FC9171"/>
<path d="M179.568 35.8691C179.568 35.8691 183.853 43.8254 189.187 47.7644C194.979 52.0494 202.433 56.0331 202.433 56.0331C202.433 56.0331 201.205 59.5816 198.159 62.0142C198.159 62.0142 188.808 57.6846 183.653 54.9507C178.508 52.2168 168.052 45.8116 168.052 45.8116L179.568 35.8691Z" fill="#249748"/>
<path d="M172.449 128.923C172.427 129.782 172.393 130.608 172.382 131.389C172.382 131.846 172.706 132.248 173.152 132.348C174.301 132.583 175.495 132.583 176.667 132.572C180.483 132.538 184.3 132.505 188.127 132.471C188.518 132.471 188.964 132.449 189.176 132.058C189.321 131.813 189.299 131.5 189.165 131.255C188.908 130.741 188.373 130.518 187.859 130.329C185.393 129.391 182.191 128.844 180.863 126.646C179.814 124.928 183.307 116.693 183.307 116.637L177.683 123.22L177.292 123.198L172.081 122.93C172.427 124.247 172.494 125.798 172.471 127.36C172.483 127.862 172.471 128.398 172.449 128.923Z" fill="#736DDC"/>
<path d="M164.984 129.211C164.961 130.07 164.928 130.896 164.917 131.677C164.917 132.134 165.24 132.536 165.687 132.637C166.836 132.871 168.03 132.871 169.202 132.86C173.018 132.826 176.834 132.793 180.662 132.759C181.052 132.759 181.499 132.737 181.711 132.346C181.856 132.101 181.834 131.788 181.7 131.543C181.443 131.03 180.907 130.806 180.394 130.617C177.928 129.679 175.239 128.731 173.397 126.934C173.342 126.879 173.286 126.823 173.219 126.767C172.828 126.365 172.482 125.919 172.181 125.428C171.947 125.049 171.757 124.636 171.646 124.212C171.612 124.067 171.579 123.91 171.567 123.765C171.556 123.709 171.556 123.643 171.556 123.587L170.206 123.52L169.815 123.497L168.644 114.28C168.99 115.597 165.017 126.097 164.995 127.649C165.006 128.151 164.995 128.686 164.984 129.211Z" fill="#249748"/>
<path d="M157.318 67.5146C157.318 67.5146 189.467 71.476 192.323 82.9138C196.463 99.4735 182.95 123.387 182.95 123.387C182.95 123.387 180.004 124.681 174.648 122.449L177.895 91.8855C177.895 91.8855 147.443 89.1181 144.229 80.6709C139.419 68.0168 157.318 67.5146 157.318 67.5146Z" fill="#F25647"/>
<path d="M151.17 69.4356C151.17 69.4356 185.941 74.0777 188.318 83.4846C192.346 99.4751 174.871 125.799 174.871 125.799C174.871 125.799 170.118 126.97 164.762 124.75C164.762 124.75 169.526 105.378 174.715 93.3601C175.965 90.4588 136.407 101.082 134.343 82.9713C132.044 62.9412 151.17 69.4356 151.17 69.4356Z" fill="#FF6A51"/>
<path d="M170.931 56.4127C181.309 44.0376 184.009 37.7775 175.863 32.332C167.528 26.7638 160.185 26.8865 149.451 37.387C139.318 47.2848 134.498 64.9939 132.969 75.9853C132.969 75.9853 138.961 82.3235 149.361 76.242C160.989 69.4351 168.956 69.569 168.956 69.569C168.956 69.569 161.658 67.46 170.931 56.4127Z" fill="#249748"/>
<path d="M170.195 10.1035C170.195 10.1035 165.508 10.8065 165.319 16.1851C165.14 20.9945 169.838 27.7791 173.186 25.2125C175.317 23.5722 171.054 10.3713 170.195 10.1035Z" fill="#262F36"/>
<path d="M170.787 33.8504C166.937 31.2169 166.245 29.4204 167.372 28.4384C171.769 24.5998 174.324 19.768 174.335 19.7568L175.429 21.6985L175.652 22.1002L177.605 25.5817C177.605 25.5817 177.449 25.7826 177.214 26.1062C177.036 26.3517 176.812 26.6641 176.567 27.0212C176.333 27.356 176.076 27.7354 175.83 28.1148C175.674 28.3491 175.518 28.5946 175.373 28.8289C175.239 29.041 175.105 29.253 174.994 29.465C174.681 30.0006 174.447 30.4916 174.335 30.8598C174.279 31.0495 174.235 31.3062 174.179 31.5963C173.933 32.768 173.755 35.8813 170.787 33.8504Z" fill="#FFBEA4"/>
<path d="M174.168 31.6076C173.409 30.4806 171.914 27.6797 173.275 24.7561C173.298 24.7226 173.309 24.678 173.331 24.6445C173.331 24.6445 173.409 24.8342 173.554 25.1467C173.945 26.0282 175.195 27.2445 175.775 28.2265C175.641 28.4385 175.105 29.2754 174.994 29.4875C174.681 30.0231 174.447 30.5141 174.335 30.8823C174.268 31.0608 174.224 31.3175 174.168 31.6076Z" fill="#FC9171"/>
<path d="M171.099 20.9161C171.099 20.9161 171.612 29.2406 178.609 28.8947C185.483 28.5488 184.01 23.505 182.76 16.2964C182.001 11.9445 169.938 7.82686 171.099 20.9161Z" fill="#FFBEA4"/>
<path d="M171.925 24.9329C172.862 26.3835 173.944 27.7114 175.495 28.5483C175.596 28.6041 175.685 28.4591 175.585 28.4033C174.067 27.5775 172.996 26.2831 172.081 24.8436C172.014 24.7655 171.869 24.8436 171.925 24.9329Z" fill="#C56146"/>
<path d="M177.404 24.0853C178.185 25.0896 179.401 25.6475 180.651 25.1565C180.74 25.123 180.695 24.978 180.595 25.0115C179.412 25.4801 178.274 24.9557 177.526 23.996C177.471 23.9179 177.337 24.0072 177.404 24.0853Z" fill="#C56146"/>
<path d="M179.223 19.6115C179.033 20.1471 179.144 20.6716 179.312 21.196C179.49 21.7875 180.26 23.0707 179.312 23.3274C179.211 23.3497 179.267 23.4948 179.368 23.4724C179.836 23.3497 180.115 23.3832 180.004 22.8252C179.814 21.8209 178.999 20.7162 179.368 19.6784C179.39 19.5892 179.256 19.5222 179.223 19.6115Z" fill="#C56146"/>
<path d="M178.051 18.7188C178.14 19.1205 177.515 19.3548 176.723 19.5445C175.931 19.7342 175.261 19.8012 175.161 19.3994C175.072 18.9977 175.607 18.3952 176.399 18.2055C177.203 18.0158 177.962 18.3282 178.051 18.7188Z" fill="#C56146"/>
<path d="M182.66 18.5507C182.682 18.9525 181.968 19.0752 181.086 19.1087C180.205 19.1422 179.49 19.0864 179.479 18.6846C179.457 18.2829 180.149 17.7808 181.03 17.7361C181.912 17.7027 182.648 18.149 182.66 18.5507Z" fill="#C56146"/>
<path d="M177.672 21.1728C177.716 21.5299 177.549 21.8424 177.292 21.8647C177.047 21.8982 176.812 21.6304 176.768 21.2733C176.723 20.9162 176.89 20.6037 177.147 20.5814C177.404 20.5591 177.638 20.8158 177.672 21.1728Z" fill="#262F36"/>
<path d="M181.03 20.5708C181.075 20.9279 180.908 21.2403 180.651 21.2627C180.406 21.2961 180.171 21.0283 180.127 20.6712C180.082 20.3142 180.249 20.0017 180.506 19.9794C180.751 19.9459 180.986 20.2137 181.03 20.5708Z" fill="#262F36"/>
<path d="M169.793 20.5241C170.05 20.5799 170.284 20.7027 170.541 20.7473C171.311 20.8701 172.126 20.7138 172.773 20.2786C173.587 19.743 174.123 18.7499 174 17.7902C173.933 17.3104 173.755 16.8417 173.554 16.3954C173.554 16.3842 173.543 16.3842 173.543 16.3731C173.219 15.6589 173.788 14.8331 174.569 14.8889C174.927 14.9113 175.284 14.9782 175.563 15.0675C176.656 15.4022 177.727 15.7928 178.776 16.2503C179.468 16.5516 180.193 16.7636 180.941 16.864C184.646 17.3774 184.847 14.7997 183.162 13.3602C181.711 12.1216 179.669 11.6864 177.761 11.798C177.761 11.798 180.339 11.6417 180.127 10.4924C179.915 9.35417 173.007 7.34558 170.195 10.1018C170.195 10.1018 167.517 10.9499 167.071 13.2151C166.624 15.4804 167.651 20.1001 169.793 20.5241Z" fill="#262F36"/>
<path d="M169.693 9.38957C169.693 9.38957 169.872 8.39643 169.392 8.10631C168.912 7.82734 168.644 8.65309 169.693 9.38957Z" fill="#262F36"/>
<path d="M173.39 23.0848C173.95 22.2661 173.572 21.0324 172.545 20.3291C171.517 19.6259 170.23 19.7195 169.67 20.5382C169.109 21.3568 169.488 22.5906 170.515 23.2938C171.542 23.9971 172.829 23.9035 173.39 23.0848Z" fill="#FFBEA4"/>
<path d="M169.347 21.4823C169.437 22.163 169.671 22.7991 170.251 23.2008C170.91 23.6583 171.769 23.9038 172.572 23.8592C172.661 23.848 172.65 23.7141 172.561 23.7252C171.802 23.7699 171.043 23.5467 170.396 23.1338C169.805 22.7544 169.571 22.1519 169.481 21.4823C169.47 21.3819 169.336 21.3931 169.347 21.4823Z" fill="#C56146"/>
<path d="M171.902 21.464C172.07 21.6314 172.17 21.7653 172.081 22.022C172.058 22.0889 172.003 22.1559 171.98 22.234C171.925 22.4125 171.936 22.5911 172.014 22.7696C172.047 22.8589 172.192 22.8143 172.159 22.7138C172.081 22.5353 172.081 22.3456 172.17 22.167C172.226 22.0666 172.326 21.9885 172.326 21.8658C172.326 21.6649 172.137 21.464 172.003 21.3413C171.936 21.2855 171.835 21.3971 171.902 21.464Z" fill="#C56146"/>
<path d="M172.226 20.234C172.416 20.3121 172.572 20.4349 172.706 20.5911C172.773 20.6692 172.896 20.58 172.829 20.5018C172.684 20.3233 172.505 20.1894 172.293 20.089C172.204 20.0555 172.137 20.2006 172.226 20.234Z" fill="#C56146"/>
<path d="M174.346 94.3422C174.982 92.3448 176.511 91.5302 178.419 90.9946C178.497 90.9723 178.464 90.8495 178.386 90.8718C176.433 91.4186 174.859 92.2778 174.223 94.3087C174.201 94.3869 174.324 94.4203 174.346 94.3422Z" fill="white"/>
<path d="M165.118 122.484C168.666 123.957 172.617 124.292 176.399 123.734C176.477 123.723 176.444 123.6 176.366 123.611C172.605 124.169 168.677 123.823 165.151 122.361C165.084 122.328 165.04 122.45 165.118 122.484Z" fill="white"/>
<path d="M187.19 67.4594C187.257 67.9504 187.447 68.4079 187.725 68.8207C188.161 69.468 188.83 69.9701 189.578 70.1821C190.013 70.3049 190.471 70.3383 190.917 70.4276C191.609 70.5727 192.267 70.8851 192.825 71.3092C192.825 71.3315 192.836 71.3426 192.836 71.3649C192.97 71.9006 193.026 72.4585 193.171 72.9941C193.35 73.6413 193.695 74.2997 194.287 74.601C194.354 74.6345 194.421 74.668 194.499 74.6568C194.666 74.6345 194.722 74.4225 194.744 74.2551C194.867 73.3177 194.923 72.3581 194.867 71.3984C194.878 71.4319 194.889 71.4654 194.901 71.4877C195.101 72.1237 195.146 72.8156 195.325 73.4628C195.503 74.11 195.849 74.7684 196.441 75.0697C196.507 75.1032 196.574 75.1366 196.653 75.1255C196.82 75.1032 196.876 74.8911 196.898 74.7237C196.987 74.0542 197.043 73.3624 197.043 72.6705C197.121 72.9383 197.199 73.2062 197.3 73.4628C197.534 74.0877 197.947 74.7126 198.572 74.9469C198.639 74.9692 198.717 74.9916 198.784 74.9804C198.951 74.9358 198.985 74.7237 198.996 74.5564C199.041 73.195 198.94 71.7667 198.561 70.4611C198.728 70.6619 198.884 70.8628 199.018 71.086C199.331 71.6216 199.52 72.2242 199.81 72.771C200.101 73.3177 200.547 73.831 201.15 73.9761C201.216 73.9984 201.283 73.9984 201.35 73.9761C201.495 73.9203 201.507 73.7195 201.495 73.5632C201.295 71.5323 200.726 69.401 199.375 67.928C199.152 67.6825 198.918 67.4594 198.65 67.2585C197.835 66.6225 196.865 66.2431 195.894 65.8971C194.901 65.5401 193.896 65.2164 192.87 64.9375C192.39 64.8147 191.91 64.6697 191.43 64.5692C191.386 64.5581 191.341 64.5469 191.296 64.5358C189.634 64.1675 188.105 64.201 187.235 66.4328C187.145 66.7675 187.134 67.1246 187.19 67.4594Z" fill="#FFBEA4"/>
<path d="M197.21 72.56C196.976 71.7454 196.864 70.5737 196.15 70.0046C196.083 69.9488 195.983 70.0493 196.05 70.1051C196.73 70.6518 196.842 71.8124 197.065 72.5935C197.099 72.6939 197.233 72.6493 197.21 72.56Z" fill="#FC9171"/>
<path d="M194.923 71.5097C194.923 70.829 194.6 70.2041 194.042 69.8024C193.964 69.7466 193.875 69.8582 193.942 69.9028C194.466 70.2822 194.778 70.8625 194.778 71.5097C194.778 71.6101 194.923 71.599 194.923 71.5097Z" fill="#FC9171"/>
<path d="M198.65 70.46C198.405 69.9801 198.204 69.478 198.059 68.9647C198.036 68.8754 197.891 68.92 197.925 69.0093C198.081 69.5449 198.282 70.0471 198.539 70.5381C198.561 70.6162 198.684 70.5381 198.65 70.46Z" fill="#FC9171"/>
<path d="M162.707 34.2842C162.707 34.2842 174.279 51.8258 179.769 55.5417C185.025 59.0902 194.532 64.9932 194.532 64.9932C194.532 64.9932 192.457 69.1778 188.105 69.7469C188.105 69.7469 174.714 65.4954 169.782 62.3821C164.85 59.2687 153.836 47.3065 153.836 47.3065L162.707 34.2842Z" fill="#249748"/>
<path d="M168.387 61.4129C165.196 58.467 162.25 55.2644 159.572 51.8387C159.505 51.7494 159.371 51.8721 159.449 51.9614C162.127 55.3872 165.073 58.5897 168.264 61.5357C168.342 61.6138 168.465 61.491 168.387 61.4129Z" fill="white"/>
<path d="M177.047 52.9976C175.808 51.5023 174.547 50.074 173.498 48.4336C172.416 46.7487 171.434 44.9856 170.418 43.2559C170.363 43.1555 170.206 43.2448 170.262 43.3452C171.322 45.1418 172.338 46.983 173.487 48.7238C174.525 50.2971 175.741 51.6697 176.935 53.1203C176.991 53.2096 177.114 53.0869 177.047 52.9976Z" fill="white"/>
<path d="M175.294 51.0899C176.176 49.9963 176.823 48.7019 177.359 47.4187C177.883 46.1577 178.397 44.774 178.374 43.3903C178.374 43.2787 178.196 43.2787 178.196 43.3903C178.207 44.7517 177.705 46.1131 177.191 47.3517C176.656 48.6127 176.031 49.8959 175.161 50.9672C175.094 51.0453 175.228 51.1792 175.294 51.0899Z" fill="white"/>
<path d="M166.959 62.6502C164.683 63.9223 162.239 64.815 159.684 65.3172C159.572 65.3395 159.617 65.5069 159.728 65.4846C162.295 64.9824 164.761 64.0786 167.048 62.7953C167.149 62.7395 167.06 62.5945 166.959 62.6502Z" fill="white"/>
<path d="M166.669 62.8725C165.33 64.1781 163.879 65.3498 162.317 66.3653C162.217 66.4322 162.306 66.5773 162.406 66.5215C163.991 65.4949 165.453 64.3232 166.803 63.0064C166.881 62.9172 166.747 62.7944 166.669 62.8725Z" fill="white"/>
<path d="M137.388 70.8732C144.887 74.8792 152.888 68.3959 160.576 68.7753C160.688 68.7865 160.688 68.6079 160.576 68.5968C156.481 68.3848 152.642 69.9358 148.77 71.0071C145.099 72.0114 140.981 72.5805 137.489 70.717C137.377 70.6612 137.288 70.8174 137.388 70.8732Z" fill="white"/>
<path d="M160.264 68.4207C153.211 67.0036 145.824 73.0516 139.04 69.4027C138.939 69.3469 138.85 69.5031 138.95 69.5589C145.779 73.219 153.144 67.1709 160.219 68.5881C160.331 68.6104 160.375 68.4431 160.264 68.4207Z" fill="white"/>
<path d="M157.006 94.0732C158.233 92.7676 130.269 95.0887 129.466 92.4217C127.792 86.8535 126.721 77.4912 136.217 77.4912C150.176 77.4912 170.742 77.4243 170.329 88.3822C169.928 98.8938 158.813 108.301 155.8 124.581C155.8 124.581 154.874 131.12 151.94 129.525C149.931 128.442 148.257 125.385 148.257 125.385C151.884 111.079 149.92 101.639 157.006 94.0732Z" fill="#FFBEA4"/>
<path d="M118.485 68.8535C118.485 68.8535 103.822 88.0132 116.689 92.9789C116.689 92.9789 119.735 93.5591 124.511 93.6707C134.197 93.905 136.763 93.7265 136.763 93.7265C136.763 93.7265 139.564 92.6106 139.319 89.8209C138.247 77.4793 144.675 77.5462 144.675 77.5462C144.675 77.5462 133.985 76.6312 134.063 70.6501C134.074 69.6458 118.485 68.8535 118.485 68.8535Z" fill="#FF6A51"/>
<path d="M118.407 61.6238C118.407 61.6238 117.102 67.0581 116.254 68.0512C115.394 69.0444 115.908 70.3611 117.113 70.8075C118.318 71.2538 132.713 73.2512 134.085 71.2538C135.469 69.2564 135.38 63.6547 136.339 60.653C137.299 57.6512 122.982 62.6615 118.407 61.6238Z" fill="#39B54A"/>
<path d="M156.146 95.3473C158.188 92.8142 161.19 91.1962 164.448 90.9284C164.672 90.9061 164.672 90.549 164.448 90.5713C161.112 90.8503 157.999 92.4906 155.901 95.1018C155.756 95.2692 156.001 95.5258 156.146 95.3473Z" fill="#FC9171"/>
<path d="M144.854 77.5469C137.991 76.2414 130.961 74.2105 123.92 74.88C123.808 74.8911 123.808 75.0697 123.92 75.0585C130.95 74.389 137.969 76.4088 144.809 77.7143C144.921 77.7366 144.977 77.5693 144.854 77.5469Z" fill="#EB4738"/>
<path d="M135.324 75.6626C131.284 75.9416 127.345 76.812 123.685 78.5639C123.585 78.6085 123.674 78.7648 123.774 78.7201C127.401 76.9794 131.318 76.1201 135.324 75.8411C135.435 75.83 135.435 75.6515 135.324 75.6626Z" fill="#EB4738"/>
<path d="M137.143 17.836C137.288 16.6197 136.897 15.4257 136.072 14.5219C135.201 13.5734 133.94 13.2944 132.691 13.339C131.642 13.3837 130.805 13.2832 129.845 12.8034C129.176 12.4686 128.528 12.0892 127.803 11.8884C126.174 11.4532 124.466 11.8661 122.871 12.2566C122.759 12.2789 122.804 12.4575 122.915 12.424C124.478 12.0446 126.151 11.6317 127.747 12.0558C129.042 12.4017 130.091 13.3725 131.441 13.5176C132.2 13.5957 132.97 13.4394 133.728 13.551C134.409 13.6515 135.101 13.8858 135.625 14.3322C136.63 15.2025 137.109 16.5193 136.964 17.836C136.953 17.9476 137.132 17.9476 137.143 17.836Z" fill="#262F36"/>
<path d="M137.142 17.1334C136.35 13.9085 131.608 13.239 127.568 14.6673C123.54 16.0957 119.221 16.7987 120.125 21.9317C121.029 27.0536 128.639 22.5343 128.639 22.5343H129.197C129.197 22.5343 130.09 20.269 132.467 20.5034C134.833 20.7377 137.935 20.3583 137.142 17.1334Z" fill="#262F36"/>
<path d="M187.078 138.14L172.036 139.569L150.198 141.633C149.484 141.276 148.859 140.74 148.39 140.06L144.195 133.967C143.458 132.896 142.554 131.947 141.528 131.177C141.584 131.166 141.628 131.166 141.684 131.166H161.178L165.653 133.454L187.078 138.14Z" fill="#006837"/>
<path d="M170.764 132.56H143.637C142.543 132.56 141.885 133.776 142.476 134.691L146.605 141.063C147.531 142.502 149.183 143.294 150.89 143.138L189.031 139.523L170.764 132.56Z" fill="#39B54A"/>
<path d="M130.157 21.0713C130.682 20.1786 130.269 19.1408 129.443 18.594C128.205 17.7683 126.497 17.958 125.102 17.6232C123.473 17.2438 122.134 16.4292 120.661 15.6704C119.289 14.9674 117.972 15.0567 116.499 15.3357C116.387 15.358 116.432 15.5254 116.544 15.5031C117.28 15.358 118.028 15.2129 118.787 15.2687C119.534 15.3245 120.204 15.6146 120.862 15.9717C121.866 16.5185 122.826 17.0764 123.908 17.4558C125.047 17.8464 126.185 17.9915 127.356 18.1254C128.673 18.2816 131.061 19.1855 130.012 20.9709C129.945 21.0825 130.102 21.1717 130.157 21.0713Z" fill="#45515A"/>
<path d="M119.98 14.1322C121.208 14.1991 121.743 15.527 122.692 16.1073C123.629 16.6764 124.801 16.9107 125.861 17.1004C127.044 17.3236 128.249 17.4463 129.398 17.7699C130.101 17.9596 130.882 18.3167 131.128 19.0755C131.385 19.9124 130.726 20.5708 130.09 20.9725C129.99 21.0395 130.079 21.1845 130.179 21.1287C130.949 20.6266 131.675 19.7897 131.217 18.83C130.648 17.6249 128.963 17.4575 127.814 17.2566C126.229 16.9777 124.5 16.8326 123.038 16.0961C121.911 15.527 121.33 14.0317 119.958 13.9536C119.869 13.9425 119.869 14.121 119.98 14.1322Z" fill="#45515A"/>
<path d="M128.461 24.8224C128.071 23.7623 126.765 23.4387 125.75 23.6061C125.002 23.7289 124.411 24.164 123.764 24.5323C122.893 25.0233 121.956 25.2353 120.952 25.1795C120.84 25.1683 120.84 25.3469 120.952 25.358C122.157 25.4138 123.206 25.0791 124.232 24.4542C124.846 24.0859 125.46 23.7512 126.196 23.74C127.011 23.7177 127.982 24.0301 128.283 24.867C128.328 24.9786 128.495 24.934 128.461 24.8224Z" fill="#45515A"/>
<path d="M128.528 24.6426C128.193 23.4374 127.111 22.7567 125.883 22.8683C123.998 23.0357 122.011 24.1181 120.349 22.6451C120.259 22.567 120.137 22.6898 120.226 22.7679C121.219 23.6494 122.525 23.7164 123.774 23.4932C124.656 23.337 125.537 22.9687 126.441 23.058C127.379 23.1473 128.093 23.8056 128.349 24.6984C128.394 24.8099 128.562 24.7541 128.528 24.6426Z" fill="#45515A"/>
<path d="M120.795 25.7919C123.049 26.3052 122.525 29.2958 124.422 30.2108C125.627 30.7911 127.658 31.2486 128.595 29.9876C128.662 29.8983 128.506 29.8091 128.439 29.8983C127.803 30.7464 126.62 30.6795 125.694 30.4674C124.556 30.1996 123.719 29.731 123.261 28.6151C122.759 27.3876 122.302 25.9481 120.851 25.6245C120.728 25.591 120.684 25.7584 120.795 25.7919Z" fill="#45515A"/>
<path d="M249.133 123.4C249.133 124.114 248.72 124.806 247.961 125.219C247.615 125.398 247.224 125.509 246.823 125.543L244.39 125.699L234.247 126.335L225.933 126.86C223.278 127.027 220.778 128.009 218.903 129.627L214.217 133.655C212.152 135.429 209.363 136.423 206.439 136.423C205.066 136.423 203.962 135.474 203.951 134.291C203.939 128.455 205.423 112.576 221.816 111.65C237.148 110.78 245.539 118.479 248.653 122.173C248.976 122.53 249.133 122.965 249.133 123.4Z" fill="#39B54A"/>
<path d="M157.463 141.822C157.463 141.822 179.669 140.204 189.031 139.523C191.597 139.334 193.93 137.939 195.313 135.763L212.632 109.261L202.221 112.765L188.172 129.547C186.576 131.456 184.221 132.549 181.733 132.549H149.629L157.463 141.822Z" fill="#39B54A"/>
<path d="M147.654 130.944C147.632 131.48 147.878 132.283 148.402 132.406C149.719 132.729 151.225 132.451 152.587 132.484C157.028 132.607 161.458 132.729 165.899 132.841C166.357 132.852 166.87 132.852 167.138 132.406C167.305 132.127 167.305 131.77 167.16 131.469C166.881 130.866 166.267 130.587 165.687 130.341C162.853 129.148 159.784 127.931 157.709 125.778C157.642 125.711 157.575 125.644 157.519 125.566C156.001 123.769 156.626 121.069 156.626 120.99C156.626 120.99 155.265 121.928 152.553 121.504C150.522 121.18 149.351 120.41 149.351 120.41C148.324 123.981 147.699 130.04 147.654 130.944Z" fill="#2A2C4B"/>
<path d="M244.39 125.685L234.247 126.321C229.18 123.018 217.441 114.883 223.3 113.801C229.839 112.596 241.734 123.219 244.39 125.685Z" fill="#7AE582"/>
<path d="M142.254 112.329C142.254 112.329 140.022 104.116 133.315 101.751C124.589 98.6708 114.714 101.561 113.765 102.23C112.817 102.9 124.891 101.304 130.37 104.038C136.976 107.297 142.466 118.545 142.254 112.329Z" fill="#7AE582"/>
<path d="M111.4 103.638C107.282 104.14 98.2434 108.202 95.822 117.452C94.5499 122.318 128.517 125.319 129.042 124.594C129.566 123.858 116.432 118.937 114.044 114.172C110.987 108.057 113.654 103.359 111.4 103.638Z" fill="#006837"/>
<path d="M216.281 78.1605C216.147 78.473 215.98 78.7743 215.756 79.0309C214.563 80.3923 212.398 80.091 210.657 79.5777C208.738 79.0197 206.807 78.3167 205.267 77.0446C204.051 76.0404 203.091 74.6232 202.835 73.0833C202.768 72.6816 202.745 72.2687 202.779 71.8446C202.935 70.0704 204.073 68.5305 205.39 67.3253C207.8 65.127 211.884 63.3974 215.143 63.1631C217.252 65.0936 216.973 69.6017 217.006 72.4584C217.029 74.121 216.973 75.8172 216.526 77.424C216.46 77.6695 216.381 77.915 216.281 78.1605Z" fill="#39B54A"/>
<path d="M216.281 78.1619C216.27 78.1842 215.5 79.6795 215.154 79.8134C213.993 80.2263 211.84 80.0366 210.59 79.6237C208.693 78.9876 206.807 78.3516 205.256 77.0572C202.957 75.1267 202.801 73.0511 202.779 72.7275C203.08 72.8726 209.943 77.3919 213.591 75.9413C215.187 75.3052 215.935 76.5439 216.281 78.1619Z" fill="#006837"/>
<path d="M215.288 63.1524C214.707 63.1636 214.239 63.6323 214.172 64.2125C213.826 67.3593 212.565 80.2031 215.087 79.8125C217.787 79.4108 218.814 63.1078 215.288 63.1524Z" fill="white"/>
<path d="M205.926 80.0009L208.224 98.4575L206.74 118.298C206.74 118.298 213 109.159 218.412 107.608C223.824 106.057 211.237 77.8584 205.926 80.0009Z" fill="#39B54A"/>
<path d="M185.07 65.8862C186.331 67.3704 187.569 68.8545 188.841 70.3274C189.455 71.0416 190.08 71.7558 190.85 72.2914C191.553 72.7935 192.356 73.1283 193.182 73.3738C194.923 73.8871 196.764 74.0545 198.55 74.3223C200.469 74.6124 202.399 74.8914 204.319 75.1815C204.865 75.2596 204.843 76.1412 204.285 76.0519C202.221 75.7395 200.156 75.4382 198.092 75.1257C196.307 74.8579 194.477 74.6905 192.747 74.1549C190.995 73.6081 189.656 72.5927 188.462 71.2313C187.089 69.6691 185.773 68.0622 184.434 66.4776C184.065 66.0536 184.701 65.451 185.07 65.8862Z" fill="#39364B"/>
<path d="M180.182 64.5816C180.595 65.7756 181.332 66.9249 182.459 67.4829C183.597 68.0408 185.159 67.7953 185.84 66.7241C185.974 66.5121 186.03 66.2666 185.963 66.0211C185.617 64.6262 184.679 63.3764 183.418 62.6734C182.816 62.3275 182.102 62.1155 181.421 62.2382C180.74 62.361 180.093 62.8966 180.015 63.5884C179.981 63.9121 180.071 64.258 180.182 64.5816Z" fill="#39364B"/>
<path d="M118.53 73.4283C119.255 74.9571 117.146 76.0952 116.89 77.5124C116.778 78.0927 116.845 78.6841 116.834 79.2644C116.834 80.1794 116.599 80.7708 115.975 81.4292C115.584 81.842 115.048 82.7682 115.807 83.1699C116.164 83.3596 116.298 83.036 116.599 82.9914C117.414 82.8798 116.733 83.7725 116.611 84.0403C116.477 84.3304 116.332 84.6429 116.231 84.9553C115.975 85.7811 116.633 86.0489 117.347 85.8146C117.872 85.636 118.407 85.5021 118.798 86.0377C118.932 86.2163 119.032 86.4171 119.166 86.5845C119.456 86.9528 119.835 87.109 120.293 87.1313C120.896 87.1648 121.509 86.9974 122.123 86.9974C122.926 86.9974 123.708 87.1536 124.478 87.3656C125.85 87.745 127.167 88.2918 128.562 88.5931C131.999 89.3184 135.491 87.7674 138.906 88.6489C139.017 88.6824 139.062 88.5038 138.951 88.4815C136.116 87.7562 133.271 88.6935 130.414 88.6266C127.591 88.5708 125.125 86.9304 122.324 86.83C121.732 86.8077 121.163 86.9304 120.572 86.9528C120.137 86.9751 119.702 86.9081 119.378 86.5845C119.166 86.3614 119.043 86.0601 118.842 85.8257C118.63 85.5802 118.407 85.424 118.072 85.424C117.581 85.424 115.896 86.3279 116.432 84.8996C116.577 84.4978 116.767 84.0961 116.957 83.7167C117.023 83.5828 117.314 83.1922 117.314 83.0472C117.325 82.8463 117.135 82.7459 116.968 82.7124C116.856 82.7013 116.756 82.7236 116.644 82.7682C116.254 82.9133 116.521 83.0137 115.986 82.8017C115.863 82.7459 115.74 82.7013 115.617 82.6455C115.562 82.4 115.606 82.1768 115.751 81.9759C116.053 81.4961 116.544 81.2171 116.778 80.6815C117.358 79.3536 116.611 77.8472 117.459 76.5639C118.095 75.5931 119.289 74.6334 118.675 73.3613C118.63 73.2386 118.485 73.3279 118.53 73.4283Z" fill="white"/>
<path d="M115.07 157.199H44C44 157.199 44.7142 151.731 50.2936 151.731C55.873 151.731 55.9622 155.592 60.3253 148.74C64.6884 141.889 73.4258 144.065 76.9966 150.024C80.5674 155.983 85.7116 144.489 89.6953 150.849C93.679 157.199 115.07 157.199 115.07 157.199Z" fill="#CCCCCC"/>
<path d="M220.778 157.197H177.515C177.515 157.197 177.951 153.872 181.343 153.872C184.735 153.872 184.791 156.226 187.447 152.053C190.103 147.879 195.425 149.207 197.601 152.834C199.777 156.461 202.902 149.464 205.334 153.336C207.767 157.208 220.778 157.197 220.778 157.197Z" fill="#CCCCCC"/>
<path d="M202.232 112.776C202.221 112.787 202.221 112.787 202.232 112.776C202.835 111.503 203.259 110.164 203.616 108.792C204.72 104.429 203.035 88.3155 201.295 78.8751C203.292 78.5515 205.658 97.912 206.45 103.837C207.22 109.673 202.366 112.697 202.232 112.776Z" fill="#006837"/>
<path d="M216.281 104.35C216.113 103.904 210.891 86.0611 208.659 85.0792C206.427 84.1084 210.846 106.024 211.282 106.817C211.717 107.609 216.638 105.332 216.281 104.35Z" fill="#7AE582"/>
<path d="M206.428 68.7866C206.428 68.7866 212.331 64.1892 212.822 64.9814C213.313 65.7737 212.978 67.3136 212.521 67.7711C212.063 68.2175 205.58 69.4338 206.428 68.7866Z" fill="#7AE582"/>
<path d="M196.965 28.7044H244.011C244.011 28.7044 241.835 24.9104 238.219 25.9705C234.604 27.0306 238.175 18.9516 228.567 16.8314C218.959 14.7112 218.312 26.2718 213.023 23.8503C207.744 21.44 208.046 24.7542 204.419 25.8143C200.804 26.8743 196.965 24.464 196.965 28.7044Z" fill="white"/>
</g>
<defs>
<clipPath id="clip0_249_6281">
<rect width="303.5" height="165" fill="white"/>
</clipPath>
</defs>
</svg>
