<svg width="304" height="165" viewBox="0 0 304 165" fill="none" xmlns="http://www.w3.org/2000/svg">
<g clip-path="url(#clip0_249_6283)">
<rect width="303.5" height="165" transform="translate(0.5)" fill="white"/>
<path d="M152 151C217.538 151 270.667 147.904 270.667 144.086C270.667 140.267 217.538 137.171 152 137.171C86.4622 137.171 33.3333 140.267 33.3333 144.086C33.3333 147.904 86.4622 151 152 151Z" fill="#F5F5F5"/>
<g clip-path="url(#clip1_249_6283)">
<path d="M130.905 14.5977H51.9194V122.817H130.905V14.5977Z" fill="#455A64"/>
<path d="M127.778 116.369H113.153H58.4985V18.9619H127.778V104.254V116.369Z" fill="#E0E0E0"/>
<path d="M126.703 114.578H112.209H58.01V17.6592H126.703V102.528V114.578Z" fill="#EBEBEB"/>
<path d="M119.309 107.022L111.395 113.47H56.74V17.9189H126.019V101.583L119.309 107.022Z" fill="#FAFAFA"/>
<path d="M119.31 107.023C119.31 107.023 119.44 106.893 119.733 106.665C120.026 106.437 120.45 106.078 121.004 105.622C122.144 104.711 123.805 103.343 126.02 101.552V101.584C126.02 87.841 125.987 57.2933 125.954 17.92L126.02 17.9851C105.402 17.9851 82.0158 17.9851 57.3267 17.9851C57.1313 17.9851 56.9033 17.9851 56.7079 17.9851L56.8056 17.8874C56.8056 53.8086 56.8056 86.9291 56.773 113.438L56.7079 113.373C81.6575 113.406 100.809 113.406 111.362 113.406H111.33C113.968 111.257 115.955 109.661 117.258 108.586C117.909 108.065 118.398 107.642 118.756 107.381C119.147 107.153 119.31 107.023 119.31 107.023C119.31 107.023 119.147 107.153 118.821 107.446C118.496 107.707 118.007 108.13 117.356 108.651C116.053 109.726 114.066 111.354 111.428 113.504C100.875 113.504 81.7226 113.536 56.773 113.536H56.7079V113.471C56.7079 86.9942 56.7079 53.8412 56.6753 17.92V17.8223H56.773C56.9684 17.8223 57.1639 17.8223 57.3919 17.8223C82.0809 17.8223 105.435 17.8223 126.085 17.8223H126.15V17.8874C126.117 57.2607 126.117 87.8084 126.085 101.552C123.87 103.343 122.176 104.711 121.069 105.622C120.515 106.078 120.092 106.404 119.798 106.632C119.473 106.925 119.31 107.023 119.31 107.023Z" fill="#263238"/>
<path d="M105.597 20.9491H77.2275V16.064C77.2275 13.3936 79.3772 11.2441 82.0481 11.2441H101.005C103.545 11.2441 105.63 13.2959 105.63 15.8686V20.9491H105.597Z" fill="#407BFF"/>
<path d="M84.165 11.2433L83.1553 6H99.4735L98.5615 11.2433H84.165Z" fill="#407BFF"/>
<path d="M75.6639 44.8194H64.0034V33.1279H75.6639V44.8194ZM64.3291 44.4938H75.3382V33.4536H64.3291V44.4938Z" fill="#407BFF"/>
<path d="M116.899 35.96C116.899 35.9926 108.789 36.0577 98.7572 36.0577C88.7252 36.0577 80.615 36.0251 80.615 35.96C80.615 35.9274 88.7252 35.8623 98.7572 35.8623C108.789 35.8623 116.899 35.9274 116.899 35.96Z" fill="#263238"/>
<path d="M116.9 38.3721C116.9 38.4047 108.789 38.4698 98.7574 38.4698C88.7255 38.4698 80.6152 38.4372 80.6152 38.3721C80.6152 38.3395 88.7255 38.2744 98.7574 38.2744C108.789 38.307 116.9 38.3395 116.9 38.3721Z" fill="#263238"/>
<path d="M116.899 40.8145C116.899 40.8471 108.789 40.9122 98.757 40.9122C88.725 40.9122 80.6147 40.8796 80.6147 40.8145C80.6147 40.7819 88.725 40.7168 98.757 40.7168C108.789 40.7168 116.899 40.7494 116.899 40.8145Z" fill="#263238"/>
<path d="M116.899 43.2237C116.899 43.2562 108.789 43.3214 98.7572 43.3214C88.7252 43.3214 80.615 43.2888 80.615 43.2237C80.615 43.1911 88.7252 43.126 98.7572 43.126C108.789 43.1585 116.899 43.1911 116.899 43.2237Z" fill="#263238"/>
<path d="M75.6639 62.7976H64.0034V51.1387H75.6639V62.7976ZM64.3291 62.4719H75.3382V51.4643H64.3291V62.4719Z" fill="#407BFF"/>
<path d="M66.3162 57.1955L67.847 55.5345L70.4527 57.6188L76.3481 51.8545L77.7813 53.548L70.3224 60.8755L66.3162 57.1955Z" fill="#407BFF"/>
<path d="M116.899 53.9385C116.899 53.9711 108.789 54.0362 98.7567 54.0362C88.7248 54.0362 80.6145 54.0037 80.6145 53.9385C80.6145 53.8734 88.7248 53.8408 98.7567 53.8408C108.789 53.8734 116.899 53.906 116.899 53.9385Z" fill="#263238"/>
<path d="M116.899 56.3809C116.899 56.4135 108.789 56.4786 98.7572 56.4786C88.7252 56.4786 80.615 56.446 80.615 56.3809C80.615 56.3158 88.7252 56.2832 98.7572 56.2832C108.789 56.2832 116.899 56.3158 116.899 56.3809Z" fill="#263238"/>
<path d="M116.899 58.792C116.899 58.8246 108.789 58.8897 98.757 58.8897C88.725 58.8897 80.6147 58.8572 80.6147 58.792C80.6147 58.7269 88.725 58.6943 98.757 58.6943C108.789 58.7269 116.899 58.7595 116.899 58.792Z" fill="#263238"/>
<path d="M116.899 61.2354C116.899 61.268 108.789 61.3331 98.757 61.3331C88.725 61.3331 80.6147 61.3005 80.6147 61.2354C80.6147 61.1703 88.725 61.1377 98.757 61.1377C108.789 61.1377 116.899 61.1703 116.899 61.2354Z" fill="#263238"/>
<path d="M75.6642 80.2198H64.0037V68.5283H75.6642V80.2198ZM64.3294 79.8941H75.3385V68.854H64.3294V79.8941Z" fill="#407BFF"/>
<path d="M66.3162 74.6173L67.847 72.9564L70.4527 75.0081L76.3481 69.2764L77.7813 70.9373L70.3224 78.2974L66.3162 74.6173Z" fill="#407BFF"/>
<path d="M116.9 71.3623C116.9 71.3949 108.789 71.4601 98.7574 71.4601C88.7255 71.4601 80.6152 71.4275 80.6152 71.3623C80.6152 71.2972 88.7255 71.2646 98.7574 71.2646C108.789 71.2646 116.9 71.2972 116.9 71.3623Z" fill="#263238"/>
<path d="M116.899 73.7725C116.899 73.8051 108.789 73.8702 98.757 73.8702C88.725 73.8702 80.6147 73.8376 80.6147 73.7725C80.6147 73.7074 88.725 73.6748 98.757 73.6748C108.789 73.7074 116.899 73.7399 116.899 73.7725Z" fill="#263238"/>
<path d="M116.9 76.212C116.9 76.2445 108.789 76.3097 98.7574 76.3097C88.7255 76.3097 80.6152 76.2771 80.6152 76.212C80.6152 76.1794 88.7255 76.1143 98.7574 76.1143C108.789 76.1143 116.9 76.1468 116.9 76.212Z" fill="#263238"/>
<path d="M116.899 78.6231C116.899 78.6557 108.789 78.7208 98.7567 78.7208C88.7248 78.7208 80.6145 78.6882 80.6145 78.6231C80.6145 78.5905 88.7248 78.5254 98.7567 78.5254C108.789 78.558 116.899 78.5905 116.899 78.6231Z" fill="#263238"/>
<path d="M75.6639 97.0251H64.0034V85.3662H75.6639V97.0251ZM64.3291 96.6995H75.3382V85.6919H64.3291V96.6995Z" fill="#407BFF"/>
<path d="M66.3162 91.424L67.847 89.7631L70.4527 91.8148L76.3481 86.083L77.7813 87.7439L70.3224 95.104L66.3162 91.424Z" fill="#407BFF"/>
<path d="M116.899 88.1661C116.899 88.1986 108.789 88.2638 98.757 88.2638C88.725 88.2638 80.6147 88.2312 80.6147 88.1661C80.6147 88.1009 88.725 88.0684 98.757 88.0684C108.789 88.0684 116.899 88.1009 116.899 88.1661Z" fill="#263238"/>
<path d="M116.899 90.5782C116.899 90.6107 108.789 90.6759 98.7572 90.6759C88.7252 90.6759 80.615 90.6433 80.615 90.5782C80.615 90.513 88.7252 90.4805 98.7572 90.4805C108.789 90.513 116.899 90.5456 116.899 90.5782Z" fill="#263238"/>
<path d="M116.899 93.0167C116.899 93.0492 108.789 93.1143 98.757 93.1143C88.725 93.1143 80.6147 93.0818 80.6147 93.0167C80.6147 92.9515 88.725 92.9189 98.757 92.9189C108.789 92.9189 116.899 92.9515 116.899 93.0167Z" fill="#263238"/>
<path d="M116.899 95.4307C116.899 95.4633 108.789 95.5284 98.7572 95.5284C88.7252 95.5284 80.615 95.4958 80.615 95.4307C80.615 95.3656 88.7252 95.333 98.7572 95.333C108.789 95.3656 116.899 95.3981 116.899 95.4307Z" fill="#263238"/>
<path d="M113.577 97.6426L105.988 113.372H111.395L113.577 97.6426Z" fill="#E0E0E0"/>
<path d="M111.395 113.47L113.577 97.7402L126.019 101.583L111.395 113.47Z" fill="#FAFAFA"/>
<path d="M111.395 113.469C111.688 113.209 113.056 112.102 115.596 110.017C118.202 107.9 121.817 104.904 125.986 101.517L126.019 101.648C124.488 101.159 122.86 100.671 121.198 100.15C118.495 99.3029 115.922 98.5212 113.544 97.7722L113.642 97.7071C112.991 102.266 112.437 106.174 112.046 108.975C111.655 111.711 111.46 113.111 111.395 113.469C111.395 113.469 111.395 113.437 111.395 113.404C111.395 113.339 111.395 113.274 111.427 113.176C111.46 112.981 111.492 112.688 111.525 112.33C111.623 111.581 111.785 110.473 111.948 109.073C112.339 106.272 112.86 102.332 113.479 97.7071V97.6094L113.577 97.6419C115.955 98.3584 118.528 99.1726 121.231 99.9868C122.892 100.508 124.488 100.996 126.052 101.485L126.214 101.517L126.084 101.615C121.882 105.002 118.202 107.966 115.564 110.082C114.261 111.125 113.219 111.971 112.502 112.558C112.144 112.851 111.883 113.046 111.688 113.209C111.59 113.274 111.525 113.339 111.492 113.372C111.427 113.437 111.395 113.469 111.395 113.469Z" fill="#263238"/>
<g opacity="0.3">
<path d="M98.3335 6L97.4541 11.2433H98.5615L99.4735 6H98.0404" fill="black"/>
</g>
</g>
<path d="M156.467 144.941L160.935 132.52H169.564L169.074 144.941H167.483L166.81 133.866H162.71L157.814 144.941H156.467Z" fill="black"/>
<path d="M191.596 126.338L189.209 131.845C188.291 133.987 186.211 135.333 183.885 135.333H173.848C172.502 135.333 171.217 134.782 170.299 133.864H151.571C150.103 133.864 148.695 133.13 147.838 131.968L145.39 128.541L191.596 126.338Z" fill="#2E353A"/>
<path opacity="0.4" d="M191.596 126.338L189.209 131.845C188.291 133.987 186.211 135.333 183.885 135.333H173.848C172.502 135.333 171.217 134.782 170.299 133.864H151.571C150.103 133.864 148.695 133.13 147.838 131.968L145.39 128.541L191.596 126.338Z" fill="black"/>
<path d="M158.67 61.9033C158.67 61.9033 158.609 62.0257 155.672 62.3317C152.673 62.6376 148.634 64.2286 147.899 66.0644" stroke="#263238" stroke-width="0.326486" stroke-miterlimit="10" stroke-linecap="round" stroke-linejoin="round"/>
<path d="M133.517 61.9046C133.517 61.9046 135.047 61.721 135.353 63.006C135.721 64.291 135.904 65.1477 137.251 65.8208" stroke="#263238" stroke-width="0.326486" stroke-miterlimit="10" stroke-linecap="round" stroke-linejoin="round"/>
<path d="M224.827 121.444H223.665V119.67H225.99C225.929 119.67 225.929 120.833 224.827 121.444Z" fill="#2E353A"/>
<path d="M207.018 144.942C215.536 144.942 222.441 136.641 222.441 126.401C222.441 116.161 215.536 107.86 207.018 107.86C198.501 107.86 191.596 116.161 191.596 126.401C191.596 136.641 198.501 144.942 207.018 144.942Z" fill="#2E353A"/>
<path opacity="0.4" d="M207.018 144.942C215.536 144.942 222.441 136.641 222.441 126.401C222.441 116.161 215.536 107.86 207.018 107.86C198.501 107.86 191.596 116.161 191.596 126.401C191.596 136.641 198.501 144.942 207.018 144.942Z" fill="black"/>
<path d="M209.589 138.089C214.963 138.089 219.32 132.856 219.32 126.401C219.32 119.947 214.963 114.714 209.589 114.714C204.215 114.714 199.858 119.947 199.858 126.401C199.858 132.856 204.215 138.089 209.589 138.089Z" fill="black"/>
<path d="M211.792 121.322C213.995 121.322 215.831 123.525 215.831 126.218C215.831 128.91 213.995 131.113 211.792 131.113C209.588 131.113 207.752 128.91 207.752 126.218C207.752 123.525 209.588 121.322 211.792 121.322Z" fill="#407BFF"/>
<path opacity="0.4" d="M211.792 121.322C213.995 121.322 215.831 123.525 215.831 126.218C215.831 128.91 213.995 131.113 211.792 131.113C209.588 131.113 207.752 128.91 207.752 126.218C207.752 123.525 209.588 121.322 211.792 121.322Z" fill="black"/>
<path d="M223.297 116.857C223.297 116.857 225.011 120.651 223.297 123.588C223.297 123.588 215.709 127.565 206.651 127.565C197.593 127.626 209.405 116 223.297 116.857Z" fill="#2E353A"/>
<path opacity="0.2" d="M223.297 116.857C223.297 116.857 225.011 120.651 223.297 123.588C223.297 123.588 215.709 127.565 206.651 127.565C197.593 127.626 209.405 116 223.297 116.857Z" fill="white"/>
<path d="M216.994 93.3569C216.994 93.3569 218.463 93.7852 218.463 97.1507C218.463 99.1701 216.382 101.251 216.382 101.251C216.382 101.251 213.077 93.2345 216.994 93.3569Z" fill="#263238"/>
<path opacity="0.7" d="M216.994 93.3569C216.994 93.3569 218.463 93.7852 218.463 97.1507C218.463 99.1701 216.382 101.251 216.382 101.251C216.382 101.251 213.077 93.2345 216.994 93.3569Z" fill="white"/>
<path d="M210.323 92.377H217.667C217.667 92.377 218.83 94.3351 215.831 96.5992C212.894 98.9245 210.323 92.377 210.323 92.377Z" fill="#263238"/>
<path d="M218.034 96.2329C218.034 96.9061 217.851 97.3956 217.606 97.3956C217.361 97.3956 217.177 96.8449 217.177 96.2329C217.177 95.5598 217.361 95.0703 217.606 95.0703C217.851 95.0703 218.034 95.621 218.034 96.2329Z" fill="white"/>
<path d="M176.357 104.493C176.357 107.124 165.831 125.91 164.79 126.644C163.75 127.378 149.98 126.583 149.98 126.583L151.02 130.499H188.72L204.387 100.087L194.044 85.1562L175.133 85.707C175.133 85.5846 176.357 101.862 176.357 104.493Z" fill="#407BFF"/>
<path opacity="0.5" d="M176.357 104.493C176.357 107.124 165.831 125.91 164.79 126.644C163.75 127.378 149.98 126.583 149.98 126.583L151.02 130.499H188.72L204.387 100.087L194.044 85.1562L175.133 85.707C175.133 85.5846 176.357 101.862 176.357 104.493Z" fill="white"/>
<path d="M121.216 98.3144C121.216 98.3144 133.517 107.738 139.392 127.075C140.066 129.339 142.146 130.93 144.533 130.93H162.71L141.657 96.6623L130.518 92.0117L121.216 98.3144Z" fill="#407BFF"/>
<path opacity="0.2" d="M119.747 97.2742C119.747 97.2742 133.334 107.677 139.331 127.136C140.005 129.4 142.085 130.93 144.472 130.93H162.649L141.596 96.6623L130.457 92.0117L119.747 97.2742Z" fill="white"/>
<path d="M225.562 115.018C225.501 115.753 224.828 116.303 224.093 116.303H221.401C220.911 116.303 220.421 116.487 220.115 116.854L212.159 125.666C211.915 125.911 211.67 126.155 211.303 126.339C205.978 129.337 200.042 130.867 193.922 130.867H156.59C154.509 130.867 152.857 129.276 152.673 127.196C151.755 116.426 145.268 108.471 139.821 103.637C137.679 101.74 135.721 100.332 134.252 99.3534C132.905 98.4355 131.314 98.0071 129.662 98.0071H121.094C119.992 98.0071 119.258 96.5997 119.564 95.6207C120.971 91.3373 123.603 86.6867 126.235 82.7092C130.029 76.896 133.885 72.4902 133.885 72.4902H145.88C147.165 72.4902 148.267 73.1633 148.94 74.2036C149.552 75.0603 149.797 76.1617 149.674 77.202C148.879 82.1585 148.94 87.2374 149.491 92.1327C151.204 106.758 157.753 120.097 161.119 126.155C162.343 128.358 164.668 129.827 167.116 129.827H176.48C183.273 127.869 188.597 108.777 188.597 103.759C188.597 98.4967 183.212 85.7076 183.212 85.7076H209.956V92.0715C210.446 92.1327 210.201 92.1939 210.385 92.2551C220.605 96.355 224.216 106.88 225.501 112.999C225.623 113.795 225.623 114.406 225.562 115.018Z" fill="#407BFF"/>
<path opacity="0.7" d="M210.385 92.3772C210.201 92.316 210.446 92.2548 209.956 92.1936V85.8297H183.212C183.212 85.8297 188.597 98.6187 188.597 103.881C188.597 108.899 183.334 127.991 176.48 129.949H167.116C164.607 129.949 162.343 128.48 161.119 126.277C157.691 120.219 151.204 106.88 149.491 92.2548C148.879 87.3595 148.879 82.2806 149.674 77.3241C149.858 76.2838 149.552 75.1824 148.94 74.3257C148.267 73.3466 147.165 72.6123 145.88 72.6123H133.885C133.885 72.6123 130.09 77.0181 126.235 82.8313C123.603 86.8088 120.971 91.3981 119.564 95.7427C119.258 96.783 119.992 98.1292 121.094 98.1292H129.662C131.314 98.1292 132.905 98.5576 134.252 99.4754C135.659 100.454 137.679 101.862 139.821 103.759C145.268 108.593 151.755 116.548 152.673 127.318C152.857 129.337 154.509 130.989 156.59 130.989H187.618V119.179C187.618 115.752 188.353 112.326 189.821 109.205L194.228 99.7202C196.309 95.3144 200.715 92.4996 205.611 92.4996H209.773H210.262C211.364 92.8055 211.425 92.8055 210.385 92.3772Z" fill="white"/>
<path d="M140.371 68.6352H143.799C144.717 68.6352 145.573 68.3292 146.247 67.7785L153.285 62.0877C153.591 61.8429 153.897 61.7205 154.264 61.7205H167.911C168.462 61.7205 168.891 61.2922 168.891 60.7414C168.891 60.1907 168.462 59.7624 167.911 59.7624H154.386C153.591 59.7624 152.795 60.0683 152.183 60.5579L145.145 66.2487C144.778 66.5546 144.349 66.677 143.921 66.677H140.371C139.392 66.677 138.535 65.9427 138.413 64.9637L138.107 62.7608C137.862 61.0474 136.332 59.7012 134.619 59.7012H132.048C131.497 59.7012 131.069 60.1295 131.069 60.6802C131.069 61.231 131.497 61.6593 132.048 61.6593H134.619C135.414 61.6593 136.087 62.21 136.149 63.0055L136.455 65.2084C136.761 67.1666 138.474 68.6352 140.371 68.6352Z" fill="#2E353A"/>
<path d="M149.001 71.2669L147.471 73.7145H133.211L132.11 71.634C131.742 70.9609 131.865 70.1042 132.416 69.5535L136.638 65.2089C136.822 65.0253 137.006 64.903 137.189 64.7806C137.312 64.7194 137.373 64.6582 137.495 64.6582C137.74 64.5358 138.046 64.4746 138.352 64.4746H146.492C146.492 64.4746 146.43 66.7999 148.634 66.6163L149.368 69.1252C149.49 69.8595 149.368 70.655 149.001 71.2669Z" fill="#263238"/>
<path opacity="0.4" d="M141.045 67.5954L136.516 67.4118L137.128 64.7806C137.25 64.7194 137.311 64.6582 137.434 64.6582C137.679 64.5358 137.985 64.4746 138.291 64.4746H145.39L141.045 67.5954Z" fill="white"/>
<path d="M172.747 85.156V86.9917C172.747 88.6439 174.093 89.7453 175.807 89.7453H208.916C210.568 89.7453 211.915 88.6439 211.915 86.9917V85.156C211.915 83.5038 210.568 82.4023 208.916 82.4023H175.745C174.093 82.4023 172.747 83.5038 172.747 85.156Z" fill="#2E353A"/>
<path opacity="0.1" d="M183.518 85.156V86.9917C183.518 88.6439 184.681 89.7453 186.333 89.7453H208.916C210.568 89.7453 211.915 88.6439 211.915 86.9917V85.156C211.915 83.5038 210.568 82.4023 208.916 82.4023H186.333C184.681 82.4023 183.518 83.5038 183.518 85.156Z" fill="white"/>
<path d="M159.987 53.1492L154.671 60.0996L155.449 60.6944L160.765 53.7439L159.987 53.1492Z" fill="#2E353A"/>
<path d="M163.199 52.2969H160.69C160.139 52.2969 159.711 52.6028 159.466 53.0924L159.16 53.8879C158.793 54.7445 159.405 55.7236 160.384 55.7236H163.138C163.811 55.7236 164.362 55.2341 164.423 54.561L164.546 53.7655C164.607 52.97 163.995 52.2969 163.199 52.2969Z" fill="#263238"/>
<path d="M135.046 54.2212L134.088 54.4229L135.399 60.65L136.357 60.4483L135.046 54.2212Z" fill="#2E353A"/>
<path d="M131.681 52.2969H134.374C134.925 52.2969 135.353 52.7252 135.476 53.2147L135.659 54.4386C135.782 55.1117 135.231 55.6624 134.558 55.6624H131.804C131.253 55.6624 130.824 55.2341 130.702 54.7445L130.518 53.5207C130.457 52.8476 131.008 52.2969 131.681 52.2969Z" fill="#263238"/>
<path d="M149.307 80.2598C149.001 83.197 149.001 86.073 149.185 88.949C149.246 90.0505 149.368 91.1519 149.491 92.1922L145.207 100.453C144.166 102.472 142.085 103.696 139.882 103.696H139.821C139.637 103.451 139.393 103.268 139.148 103.084C137.373 101.554 135.721 100.331 134.435 99.5352C133.028 98.6173 131.375 98.1278 129.723 98.1278H121.155C120.053 98.1278 119.319 96.7203 119.625 95.7413C121.033 91.4579 123.664 86.8073 126.296 82.8299C126.357 85.5223 126.235 90.8459 125.255 96.6592H129.356C129.356 96.6592 136.883 86.0118 143.309 83.9313L149.001 74.3242C149.613 75.1809 149.858 76.2823 149.735 77.3226C149.491 78.3017 149.429 79.2807 149.307 80.2598Z" fill="#407BFF"/>
<path opacity="0.5" d="M149.307 80.2598C149.001 83.197 149.001 86.073 149.185 88.949C149.246 90.0505 149.368 91.1519 149.491 92.1922L145.207 100.453C144.166 102.472 142.085 103.696 139.882 103.696H139.821C139.637 103.451 139.393 103.268 139.148 103.084C137.373 101.554 135.721 100.331 134.435 99.5352C133.028 98.6173 131.375 98.1278 129.723 98.1278H121.155C120.053 98.1278 119.319 96.7203 119.625 95.7413C121.033 91.4579 123.664 86.8073 126.296 82.8299C126.357 85.5223 126.235 90.8459 125.255 96.6592H129.356C129.356 96.6592 136.883 86.0118 143.309 83.9313L149.001 74.3242C149.613 75.1809 149.858 76.2823 149.735 77.3226C149.491 78.3017 149.429 79.2807 149.307 80.2598Z" fill="white"/>
<path d="M125.194 85.7666C125.194 85.7666 125.623 90.4784 124.093 94.7618H120.543C120.543 94.7618 122.869 88.5202 125.194 85.7666Z" fill="#407BFF"/>
<path opacity="0.7" d="M125.194 85.7666C125.194 85.7666 125.623 90.4784 124.093 94.7618H120.543C120.543 94.7618 122.869 88.5202 125.194 85.7666Z" fill="white"/>
<path d="M141.963 85.7669C142.085 85.7057 138.413 95.4352 138.413 95.4352H133.028C133.028 95.4352 135.782 89.4384 141.963 85.7669Z" fill="#407BFF"/>
<path opacity="0.7" d="M141.963 85.7669C142.085 85.7057 138.413 95.4352 138.413 95.4352H133.028C133.028 95.4352 135.782 89.4384 141.963 85.7669Z" fill="white"/>
<path d="M138.78 92.742C138.78 93.9658 138.046 94.9449 137.067 94.9449C136.088 94.9449 135.353 93.9658 135.353 92.742C135.353 91.5181 136.088 90.5391 137.067 90.5391C138.046 90.5391 138.78 91.5793 138.78 92.742Z" fill="white"/>
<path d="M124.521 92.0086C124.521 93.2324 123.97 94.2114 123.297 94.2114C122.624 94.2114 122.073 93.2324 122.073 92.0086C122.073 90.7847 122.624 89.8057 123.297 89.8057C123.97 89.8669 124.521 90.8459 124.521 92.0086Z" fill="white"/>
<path d="M140.311 89.5005C140.311 90.1124 139.943 90.5408 139.454 90.5408C139.025 90.5408 138.597 90.0512 138.597 89.5005C138.597 88.8886 138.964 88.4603 139.454 88.4603C139.943 88.3991 140.311 88.8886 140.311 89.5005Z" fill="white"/>
<path d="M124.95 88.8879C124.95 89.4998 124.705 89.9282 124.399 89.9282C124.093 89.9282 123.848 89.4386 123.848 88.8879C123.848 88.276 124.093 87.8477 124.399 87.8477C124.705 87.8477 124.95 88.3372 124.95 88.8879Z" fill="white"/>
<path d="M141.412 74.2644C141.412 74.2644 138.841 90.2966 130.457 90.3578C122.562 90.4802 121.828 75.4271 129.355 73.1018C135.414 71.266 141.412 74.2644 141.412 74.2644Z" fill="#407BFF"/>
<path d="M141.412 74.2644C141.412 74.2644 138.841 90.2966 130.457 90.3578C122.562 90.4802 121.828 75.4271 129.355 73.1018C135.414 71.266 141.412 74.2644 141.412 74.2644Z" fill="#263238"/>
<path d="M136.184 82.3205C136.673 78.2607 134.484 74.6589 131.296 74.2755C128.109 73.8922 125.128 76.8725 124.64 80.9323C124.152 84.9921 126.34 88.594 129.528 88.9773C132.716 89.3606 135.696 86.3803 136.184 82.3205Z" fill="#407BFF"/>
<path opacity="0.7" d="M136.184 82.3205C136.673 78.2607 134.484 74.6589 131.296 74.2755C128.109 73.8922 125.128 76.8725 124.64 80.9323C124.152 84.9921 126.34 88.594 129.528 88.9773C132.716 89.3606 135.696 86.3803 136.184 82.3205Z" fill="white"/>
<path d="M131.865 83.5654C131.865 85.34 130.763 86.8086 129.356 86.8086C127.948 86.8086 126.846 85.34 126.846 83.5654C126.846 81.7909 127.948 80.3223 129.356 80.3223C130.763 80.3223 131.865 81.7297 131.865 83.5654Z" fill="white"/>
<path d="M134.007 79.3436C134.007 80.2615 133.456 80.9958 132.721 80.9958C132.048 80.9958 131.436 80.2615 131.436 79.3436C131.436 78.4257 131.987 77.6914 132.721 77.6914C133.456 77.6914 134.007 78.4257 134.007 79.3436Z" fill="white"/>
<path d="M225.134 111.652H222.624C222.196 111.652 221.829 112.02 221.829 112.448V113.855C221.829 114.284 222.196 114.651 222.624 114.651H225.562C225.623 114.651 226.113 113.182 225.134 111.652Z" fill="#407BFF"/>
<path opacity="0.7" d="M225.134 111.652H222.624C222.196 111.652 221.829 112.02 221.829 112.448V113.855C221.829 114.284 222.196 114.651 222.624 114.651H225.562C225.623 114.651 226.113 113.182 225.134 111.652Z" fill="white"/>
<path d="M160.812 59.762C160.812 59.762 160.751 59.2725 159.466 59.2725C158.181 59.2725 157.752 61.1082 157.752 61.1082L158.242 62.638H159.956L160.751 62.332C160.751 62.332 163.872 63.1275 164.178 63.6783C164.484 64.1678 164.913 64.2902 164.79 63.6783C164.668 63.0663 161.302 61.7201 161.302 61.7201L160.812 59.762Z" fill="#2E353A"/>
<path d="M135.598 59.8844C135.598 59.8844 135.353 59.2725 134.619 59.2725C133.884 59.2725 133.517 59.6396 133.456 60.2515C133.395 60.8634 133.456 61.4142 133.456 61.4142L132.783 61.9649C132.783 61.9649 130.641 62.944 130.457 63.1275C130.274 63.2499 130.212 63.8618 130.58 63.8006C130.947 63.7395 131.559 63.2499 132.232 62.8216C132.905 62.3932 134.068 62.332 134.068 62.332L135.353 61.5365L135.598 59.8844Z" fill="#2E353A"/>
<path d="M125.5 98.375L116.993 126.034L119.135 127.319L127.642 100.517L125.5 98.375Z" fill="#407BFF"/>
<path opacity="0.6" d="M125.5 98.375L116.993 126.034L119.135 127.319L127.642 100.517L125.5 98.375Z" fill="white"/>
<path d="M128.988 98.1299L125.438 109.512H124.765C123.541 108.043 122.44 108.165 122.44 108.165L122.011 107.492L124.704 98.1299H128.988Z" fill="#2E353A"/>
<path d="M120.236 125.604C120.236 127.012 119.441 128.174 118.4 128.174C117.421 128.174 116.564 127.012 116.564 125.604C116.564 124.197 117.36 123.034 118.4 123.034C119.441 123.034 120.236 124.197 120.236 125.604Z" fill="#2E353A"/>
<path d="M122.012 144.942C130.529 144.942 137.434 136.64 137.434 126.4C137.434 116.16 130.529 107.859 122.012 107.859C113.494 107.859 106.589 116.16 106.589 126.4C106.589 136.64 113.494 144.942 122.012 144.942Z" fill="#2E353A"/>
<path opacity="0.4" d="M122.012 144.942C130.529 144.942 137.434 136.64 137.434 126.4C137.434 116.16 130.529 107.859 122.012 107.859C113.494 107.859 106.589 116.16 106.589 126.4C106.589 136.64 113.494 144.942 122.012 144.942Z" fill="black"/>
<path d="M143.37 124.81H139.698C138.719 124.81 137.74 124.259 137.311 123.341C135.414 119.792 129.845 110.613 122.073 108.349C112.342 105.534 127.397 103.821 132.783 107.737C138.168 111.653 143.37 124.81 143.37 124.81Z" fill="#263238"/>
<path opacity="0.4" d="M143.37 124.81H139.698C138.719 124.81 137.74 124.259 137.311 123.341C135.414 119.792 129.845 110.613 122.073 108.349C112.342 105.534 127.397 103.821 132.783 107.737C138.168 111.653 143.37 124.81 143.37 124.81Z" fill="black"/>
<path d="M124.582 138.088C129.956 138.088 134.313 132.855 134.313 126.4C134.313 119.946 129.956 114.713 124.582 114.713C119.208 114.713 114.851 119.946 114.851 126.4C114.851 132.855 119.208 138.088 124.582 138.088Z" fill="black"/>
<path d="M126.846 121.322C129.05 121.322 130.886 123.525 130.886 126.218C130.886 128.91 129.05 131.113 126.846 131.113C124.643 131.113 122.807 128.91 122.807 126.218C122.807 123.525 124.582 121.322 126.846 121.322Z" fill="#407BFF"/>
<path opacity="0.4" d="M126.846 121.322C129.05 121.322 130.886 123.525 130.886 126.218C130.886 128.91 129.05 131.113 126.846 131.113C124.643 131.113 122.807 128.91 122.807 126.218C122.807 123.525 124.582 121.322 126.846 121.322Z" fill="black"/>
<path d="M109.588 114.774H111.302C112.709 114.774 114.117 114.285 115.218 113.428C117.85 111.409 123.48 108.104 129.356 110.062C136.088 112.327 140.678 121.138 142.024 123.953C142.269 124.504 142.82 124.81 143.37 124.81C143.37 124.81 141.228 107.431 129.356 102.719C117.85 98.1301 110.016 107.798 108.364 113C108.058 113.918 108.67 114.774 109.588 114.774Z" fill="#407BFF"/>
<path opacity="0.5" d="M109.588 114.774H111.302C112.709 114.774 114.117 114.285 115.218 113.428C117.85 111.409 123.48 108.104 129.356 110.062C136.088 112.327 140.678 121.138 142.024 123.953C142.269 124.504 142.82 124.81 143.37 124.81C143.37 124.81 141.228 107.431 129.356 102.719C117.85 98.1301 110.016 107.798 108.364 113C108.058 113.918 108.67 114.774 109.588 114.774Z" fill="white"/>
<path d="M137.189 101.494L134.68 109.449L128.988 127.317L126.846 125.971L132.354 108.041L134.863 99.8418C135.537 100.27 136.332 100.882 137.189 101.494Z" fill="#407BFF"/>
<path opacity="0.6" d="M137.189 101.494L134.68 109.449L128.988 127.317L126.846 125.971L132.354 108.041L134.863 99.8418C135.537 100.27 136.332 100.882 137.189 101.494Z" fill="white"/>
<path d="M137.679 101.924L135.292 109.512H134.619C133.395 108.043 132.293 108.165 132.293 108.165L131.865 107.492L134.19 99.415C134.251 99.415 134.251 99.4762 134.313 99.4762C134.496 99.5986 134.68 99.721 134.863 99.8434C135.536 100.333 136.332 100.884 137.189 101.557C137.311 101.618 137.495 101.74 137.679 101.924Z" fill="#2E353A"/>
<path d="M130.09 125.605C130.09 127.013 129.294 128.175 128.254 128.175C127.275 128.175 126.418 127.013 126.418 125.605C126.418 124.198 127.213 123.035 128.254 123.035C129.294 123.035 130.09 124.198 130.09 125.605Z" fill="#2E353A"/>
<path opacity="0.5" d="M225.562 115.018C225.501 115.752 224.828 116.303 224.093 116.303H221.4C220.911 116.303 220.421 116.486 220.115 116.854L212.159 125.665C211.914 125.91 211.67 126.155 211.302 126.338C205.978 129.337 200.042 130.867 193.922 130.867H187.679V119.057C187.679 115.63 188.414 112.203 189.882 109.082L194.289 99.5976C196.37 95.1918 200.776 92.377 205.672 92.377H209.834H210.323C214.668 94.0903 217.79 96.9663 220.054 100.148C220.299 100.454 220.544 100.821 220.727 101.189C221.462 102.351 222.135 103.514 222.686 104.676C223.175 105.717 223.604 106.757 223.971 107.736C224.705 109.694 225.134 111.53 225.501 113.06C225.623 113.794 225.623 114.406 225.562 115.018Z" fill="white"/>
<path d="M186.761 67.7801C186.639 67.9637 186.517 68.2085 186.394 68.5144C186.272 68.8204 186.21 69.1875 186.149 69.4935C185.415 72.4307 184.864 75.7962 185.966 78.7334C186.394 79.9572 187.496 81.6706 188.842 82.099C189.821 82.4049 191.29 82.1602 192.33 82.2213C193.554 82.2825 194.84 82.2825 196.064 82.3437C196.309 82.3437 196.553 82.3437 196.798 82.2825C197.043 82.1601 197.227 81.9766 197.349 81.7318C198.022 80.8139 198.634 79.8961 199.246 78.917C199.858 77.9379 200.409 76.8365 200.592 75.6738C200.837 74.2664 200.531 72.859 199.98 71.5128C199.246 69.7994 198.083 68.1473 196.431 67.3518C196.003 67.107 195.513 66.9846 195.023 66.8622C193.004 66.3115 188.23 65.6996 186.761 67.7801Z" fill="#407BFF"/>
<path opacity="0.4" d="M186.761 67.7801C186.639 67.9637 186.517 68.2085 186.394 68.5144C186.272 68.8204 186.21 69.1875 186.149 69.4935C185.415 72.4307 184.864 75.7962 185.966 78.7334C186.394 79.9572 187.496 81.6706 188.842 82.099C189.821 82.4049 191.29 82.1602 192.33 82.2213C193.554 82.2825 194.84 82.2825 196.064 82.3437C196.309 82.3437 196.553 82.3437 196.798 82.2825C197.043 82.1601 197.227 81.9766 197.349 81.7318C198.022 80.8139 198.634 79.8961 199.246 78.917C199.858 77.9379 200.409 76.8365 200.592 75.6738C200.837 74.2664 200.531 72.859 199.98 71.5128C199.246 69.7994 198.083 68.1473 196.431 67.3518C196.003 67.107 195.513 66.9846 195.023 66.8622C193.004 66.3115 188.23 65.6996 186.761 67.7801Z" fill="black"/>
<path d="M196.064 77.3254C196.186 76.6523 196.982 75.5508 198.267 75.7956C199.613 76.1015 199.981 78.8552 196.553 79.2223C196.064 79.2835 195.819 78.794 196.064 77.3254Z" fill="#E4897B"/>
<path d="M198.634 66.6785C198.634 66.6785 192.759 64.4144 188.046 67.1068C183.334 69.8605 194.656 72.0022 194.656 72.0022L192.147 69.9828C192.147 69.9828 195.452 71.8798 197.104 71.7574L198.634 66.6785Z" fill="#263238"/>
<path d="M186.088 79.0996C186.088 79.0996 186.394 81.0577 188.414 81.5473C191.107 82.1592 195.513 80.0175 195.513 80.0175L195.758 81.2413C195.758 81.2413 191.413 83.1383 188.414 82.5263C186.823 82.1592 185.66 80.2011 186.088 79.0996Z" fill="#263238"/>
<path d="M189.454 82.6483L189.271 81.6692C189.271 81.6692 188.475 81.1797 187.924 81.0573C187.374 80.9349 187.067 81.0573 187.067 81.0573C187.067 81.0573 187.006 82.0364 187.802 82.4035C188.598 82.7095 189.454 82.6483 189.454 82.6483Z" fill="#263238"/>
<path opacity="0.5" d="M189.454 82.6483L189.271 81.6692C189.271 81.6692 188.475 81.1797 187.924 81.0573C187.374 80.9349 187.067 81.0573 187.067 81.0573C187.067 81.0573 187.006 82.0364 187.802 82.4035C188.598 82.7095 189.454 82.6483 189.454 82.6483Z" fill="white"/>
<path d="M202.857 79.3448C200.776 82.3432 197.288 84.0566 195.391 81.8537C193.493 79.6508 196.186 71.3899 196.186 71.3899C191.719 68.6975 186.455 69.1258 186.455 69.1258C186.823 65.8215 191.045 62.456 198.512 65.332C201.143 66.3722 202.735 68.0856 203.53 69.9825C203.653 70.2273 203.714 70.4109 203.775 70.6556C203.959 71.1452 204.081 71.5735 204.142 72.063C204.265 72.6138 204.265 73.1645 204.326 73.7152C204.387 75.9793 203.714 78.121 202.857 79.3448Z" fill="#407BFF"/>
<path d="M186.7 67.7181C186.7 67.7181 191.841 66.9226 197.165 69.7986C197.165 69.7986 197.839 72.0015 197.839 72.6746C197.839 73.3477 184.619 70.5329 183.946 69.6762C183.273 68.8195 185.843 68.8807 185.843 68.8807L186.7 67.7181Z" fill="#263238"/>
<path d="M236.15 22.252C236.028 24.6384 237.007 28.4323 238.843 29.6561C238.843 29.6561 237.619 32.2262 233.335 32.9605C228.623 33.8172 230.765 31.0636 230.765 31.0636C233.213 29.9621 232.846 28.1264 232.172 26.413L236.15 22.252Z" fill="#E4897B"/>
<path d="M226.236 20.2935C226.297 20.5995 226.236 20.9055 225.991 20.9666C225.808 21.0278 225.563 20.8443 225.502 20.5383C225.44 20.2323 225.502 19.9264 225.746 19.8652C225.93 19.7428 226.175 19.9876 226.236 20.2935Z" fill="#263238"/>
<path d="M225.869 19.8037H225.073C225.073 19.8037 225.563 20.2932 225.869 19.8037Z" fill="#263238"/>
<path d="M226.052 20.6611C226.052 20.6611 225.869 22.1297 225.44 22.9252C225.93 23.17 226.603 22.8028 226.603 22.8028L226.052 20.6611Z" fill="#A02724"/>
<path d="M225.318 18.3357H225.379C226.052 17.9073 226.726 18.1521 226.726 18.1521C226.848 18.2133 226.909 18.1521 226.97 18.0297C227.032 17.9073 226.97 17.8461 226.848 17.7849C226.787 17.7849 225.991 17.479 225.134 18.0297C225.073 18.0909 225.012 18.2133 225.073 18.2745C225.196 18.3357 225.257 18.3357 225.318 18.3357Z" fill="#263238"/>
<path d="M236.273 16.4998C237.007 20.2937 237.374 21.8847 235.967 24.3324C233.886 28.0039 229.051 28.2486 227.154 24.7607C225.502 21.6399 224.584 15.9491 227.888 13.4403C231.132 10.9314 235.538 12.706 236.273 16.4998Z" fill="#E4897B"/>
<path d="M237.68 13.5014C236.028 10.7478 234.192 9.21798 228.929 10.7478C224.951 11.8492 221.585 17.4789 228.011 20.6608C228.011 20.6608 229.847 23.2921 231.927 24.2099C234.008 25.1278 234.559 25.4338 236.762 24.1487C238.476 23.0473 240.189 17.7848 237.68 13.5014Z" fill="#263238"/>
<path d="M228.868 19.9272C229.112 20.6004 229.051 21.3959 228.868 22.0078C228.562 22.9868 227.827 22.9868 227.46 22.3749C227.093 21.763 226.787 20.6004 227.338 19.8049C227.827 19.0706 228.623 19.1929 228.868 19.9272Z" fill="#E4897B"/>
<path d="M235.661 11.8496C235.661 11.8496 235.967 8.42285 239.027 8.42285C242.087 8.42285 244.535 11.4824 244.78 16.8673C245.024 22.2522 251.206 20.1716 252.736 21.2119C254.204 22.2522 254.327 23.3536 254.327 23.3536C254.327 23.3536 253.531 21.7014 251.818 22.0686C251.818 22.0686 252.919 22.3745 253.042 23.5372C253.042 23.5372 252.43 23.0476 251.634 23.17C251.634 23.17 252.185 24.6998 248.635 24.761C245.086 24.8834 240.924 24.1491 238.598 18.703C236.273 13.257 235.661 11.8496 235.661 11.8496Z" fill="#263238"/>
<path d="M237.436 10.1975C237.436 10.1975 243.617 6.58716 245.33 14.848C246.554 20.5389 250.838 19.315 250.838 19.315" stroke="#263238" stroke-width="0.249261" stroke-miterlimit="10" stroke-linecap="round" stroke-linejoin="round"/>
<path d="M227.215 12.8291C227.215 12.8291 223.849 13.1962 223.849 16.1334C223.849 19.0706 227.766 20.7228 230.336 20.2945" stroke="#263238" stroke-width="0.249261" stroke-miterlimit="10" stroke-linecap="round" stroke-linejoin="round"/>
<path d="M221.095 64.1084C221.095 64.1084 224.277 54.5625 227.337 48.0762L227.888 49.0552C227.888 49.0552 223.115 61.0488 222.747 63.68L221.095 64.1084Z" fill="#263238"/>
<path opacity="0.2" d="M221.095 64.1084C221.095 64.1084 224.277 54.5625 227.337 48.0762L227.888 49.0552C227.888 49.0552 223.115 61.0488 222.747 63.68L221.095 64.1084Z" fill="white"/>
<path d="M247.533 32.165C247.778 33.3277 247.962 34.5515 248.268 35.7142C248.513 36.938 248.819 38.1006 249.125 39.2633C249.798 41.6497 250.471 43.9138 251.45 46.0555L254.633 52.909L256.224 56.3969C256.713 57.5596 257.264 58.7222 257.754 59.8848L255.673 60.9863C254.939 59.946 254.265 58.8446 253.592 57.8043L251.573 54.5612C250.226 52.3583 248.941 50.2166 247.717 47.9525C246.432 45.566 245.453 43.0572 244.718 40.5483C244.351 39.2633 243.984 38.0394 243.678 36.7544C243.372 35.4694 243.127 34.2456 242.943 32.8382L247.533 32.165Z" fill="#DC897C"/>
<path d="M257.57 59.7637C257.57 59.7637 259.712 62.7621 259.712 63.1904C259.773 63.6187 259.896 65.3933 259.773 65.4545C259.651 65.5157 257.019 65.7605 257.019 65.7605L255.428 63.0068C255.428 63.0068 255 61.2935 255.367 60.3144L257.57 59.7637Z" fill="#E4897B"/>
<path d="M227.766 36.9985C227.154 38.2223 226.542 39.3238 225.869 40.4864C225.196 41.5879 224.522 42.6893 223.788 43.7908C222.319 45.9937 220.667 48.0742 218.708 49.9711C216.811 51.8069 214.975 53.459 213.017 55.1724L210.14 57.6813C209.161 58.4768 208.182 59.3334 207.203 60.1289L205.55 58.4767C206.346 57.4977 207.203 56.5186 208.059 55.6007L210.569 52.7247L215.648 47.0951C217.239 45.3206 218.586 43.3624 219.871 41.2819C220.544 40.2416 221.156 39.2014 221.768 38.0999C222.38 37.0597 222.992 35.9582 223.543 34.918L227.766 36.9985Z" fill="#DC897C"/>
<path d="M205.795 58.2939C205.795 58.2939 202.857 60.558 202.735 60.9252C202.551 61.2923 201.939 63.0057 202.001 63.0669C202.123 63.1281 204.51 64.1683 204.51 64.1683L206.835 62.0266C206.835 62.0266 207.753 60.4968 207.692 59.5178L205.795 58.2939Z" fill="#E4897B"/>
<path d="M245.636 30.5739C247.717 30.8187 250.104 37.3662 250.104 37.3662L243.8 39.9362C243.739 39.9362 240.801 29.962 245.636 30.5739Z" fill="#407BFF"/>
<path d="M243.005 54.255C239.945 54.3773 233.396 54.6221 227.031 54.8669C223.053 32.1648 224.951 31.7364 224.951 31.7364C224.951 31.7364 226.664 31.1245 228.745 30.635C228.806 30.635 228.929 30.5738 228.99 30.5738C230.03 30.3902 230.275 30.329 231.621 30.1455C234.008 29.9619 236.15 29.8395 238.843 29.9007C239.027 29.9007 239.21 29.9007 239.333 29.9007C239.822 29.9007 240.312 29.9619 240.74 29.9619C241.046 29.9619 241.352 30.0231 241.658 30.0231C242.025 30.0843 242.331 30.0843 242.637 30.1455C244.351 30.329 245.575 30.5126 245.575 30.5126C242.637 43.8524 242.699 47.8298 243.005 54.255Z" fill="#263238"/>
<path opacity="0.2" d="M227.092 38.7741C227.215 41.8949 226.174 44.3426 225.562 45.444C224.95 41.0382 224.644 38.0398 224.583 36.0205C225.807 36.0205 226.97 36.6324 227.092 38.7741Z" fill="black"/>
<path d="M235.293 110.062C231.254 125.421 223.665 143.717 223.665 143.717L221.034 142.677L228.745 110.062H235.293Z" fill="#EEC1BB"/>
<path d="M225.012 142.188C225.073 141.821 220.789 141.087 220.789 141.087C220.789 141.087 217.545 143.106 214.853 143.106C212.16 143.106 213.2 144.942 216.077 145.615C218.892 146.288 221.095 146.839 223.053 147.328C225.073 147.818 224.216 145.799 225.012 142.188Z" fill="#263238"/>
<path d="M218.28 141.638C218.096 141.577 217.974 141.515 217.913 141.454C217.852 141.393 217.79 141.209 217.913 140.965C217.974 140.842 218.096 140.781 218.219 140.72C218.464 140.659 218.831 140.72 219.198 140.842C218.892 140.597 218.647 140.292 218.708 140.047C218.708 139.924 218.831 139.802 219.076 139.741C219.259 139.68 219.443 139.741 219.626 139.863C220.116 140.23 220.238 141.332 220.238 141.393V141.454C220.238 141.454 220.238 141.454 220.238 141.515C220.238 141.515 220.238 141.515 220.177 141.515C219.932 141.577 218.892 141.76 218.28 141.638ZM218.831 140.965C218.647 140.903 218.463 140.903 218.28 140.965C218.219 140.965 218.158 141.026 218.096 141.087C218.035 141.271 218.035 141.271 218.096 141.332C218.28 141.515 219.076 141.515 219.749 141.393C219.565 141.209 219.137 141.087 218.831 140.965ZM219.32 139.986C219.259 139.986 219.198 139.986 219.137 139.986C219.076 139.986 218.953 140.047 218.953 140.108C218.892 140.292 219.443 140.781 219.994 141.148C219.932 140.842 219.81 140.292 219.504 140.047C219.443 140.047 219.382 140.047 219.32 139.986Z" fill="#407BFF"/>
<path d="M243.127 52.0527C243.127 52.0527 249.063 64.597 246.983 76.407C244.902 88.217 238.537 103.393 236.823 107.125C235.11 110.797 228.745 132.581 228.745 132.581L223.237 130.806C223.237 130.806 228.194 109.145 229.724 101.618C230.459 98.0688 236.762 72.6743 236.762 72.6743C236.762 72.6743 225.991 64.6582 226.787 52.1751L243.127 52.0527Z" fill="#407BFF"/>
<path opacity="0.2" d="M223.176 130.745L228.684 132.519C228.684 132.519 235.049 110.735 236.762 107.002C237.619 105.106 239.761 100.149 241.903 94.2134C243.923 88.5838 245.942 82.0975 246.921 76.3455C249.002 64.5355 243.066 51.9912 243.066 51.9912L226.603 52.1136C225.869 64.5967 236.579 72.6128 236.579 72.6128C236.579 72.6128 235.477 77.0798 234.131 82.5258C232.295 90.0524 229.969 99.4759 229.541 101.556C228.072 109.083 223.176 130.745 223.176 130.745Z" fill="white"/>
<path d="M248.268 116.242C252.613 128.358 255.367 140.291 255.367 140.291L252.674 141.208L241.475 116.242H248.268Z" fill="#EEC1BB"/>
<path d="M255.489 138.271C255.306 137.965 251.511 140.107 251.511 140.107C251.511 140.107 250.287 143.717 248.207 145.431C246.126 147.144 248.145 147.878 250.716 146.593C253.347 145.308 255.367 144.329 257.203 143.472C259.1 142.555 257.142 141.514 255.489 138.271Z" fill="#263238"/>
<path d="M249.92 142.128C249.798 142.189 249.614 142.251 249.553 142.189C249.431 142.189 249.308 142.067 249.247 141.822C249.247 141.7 249.247 141.577 249.308 141.455C249.431 141.21 249.798 141.088 250.165 140.904C249.737 140.904 249.369 140.843 249.247 140.598C249.186 140.476 249.186 140.292 249.369 140.17C249.492 139.986 249.675 139.925 249.859 139.925C250.471 139.864 251.267 140.66 251.328 140.66C251.328 140.66 251.328 140.66 251.328 140.721C251.328 140.721 251.328 140.721 251.328 140.782C251.328 140.782 251.328 140.782 251.328 140.843C251.328 140.843 251.328 140.843 251.328 140.904C251.144 141.027 250.471 141.822 249.92 142.128ZM249.92 141.271C249.737 141.333 249.553 141.455 249.492 141.577C249.431 141.639 249.431 141.7 249.431 141.761C249.492 141.945 249.553 141.945 249.553 141.945C249.798 142.006 250.41 141.455 250.899 140.904C250.655 140.965 250.226 141.088 249.92 141.271ZM249.737 140.17C249.675 140.17 249.614 140.231 249.553 140.292C249.492 140.354 249.431 140.415 249.492 140.476C249.614 140.66 250.287 140.66 250.961 140.598C250.716 140.415 250.226 140.048 249.859 140.109C249.798 140.17 249.737 140.17 249.737 140.17Z" fill="#407BFF"/>
<path opacity="0.2" d="M223.176 130.745L228.684 132.52C228.684 132.52 235.049 110.736 236.762 107.003C237.619 105.106 239.761 100.15 241.903 94.214L239.945 77.1416C239.945 77.1416 242.27 75.7954 243.739 70.4717C243.739 70.4717 241.719 72.3074 239.21 72.491C238.598 72.5522 236.701 76.5296 234.253 82.5876C232.417 90.1142 230.091 99.5377 229.663 101.618C228.072 109.084 223.176 130.745 223.176 130.745Z" fill="black"/>
<path d="M225.44 79.7105C226.419 85.8909 227.949 90.5415 229.663 94.4577C231.866 99.5366 234.253 103.269 236.028 107.124C239.149 113.917 247.35 132.335 247.35 132.335L253.715 130.132C253.715 130.132 244.902 105.35 241.536 99.9038C241.536 99.9038 239.455 82.097 239.21 72.4899C239.21 72.4899 241.475 70.4706 242.209 65.9424C243.005 61.1083 226.848 53.7041 226.848 53.7041C226.848 53.7041 223.176 65.5141 225.44 79.7105Z" fill="#407BFF"/>
<path opacity="0.2" d="M225.44 79.7105C226.419 85.8909 227.949 90.5415 229.663 94.4577C231.866 99.5366 234.253 103.269 236.028 107.124C239.149 113.917 247.35 132.335 247.35 132.335L253.715 130.132C253.715 130.132 244.902 105.35 241.536 99.9038C241.536 99.9038 239.455 82.097 239.21 72.4899C239.21 72.4899 241.475 70.4706 242.209 65.9424C243.005 61.1083 226.848 53.7041 226.848 53.7041C226.848 53.7041 223.176 65.5141 225.44 79.7105Z" fill="white"/>
<path d="M237.802 54.9281L229.173 55.1117L229.112 52.4805L237.68 52.6029L237.802 54.9281Z" fill="#263238"/>
<path d="M228.317 52.4805L228.439 55.1117H227.582L227.337 52.4805H228.317Z" fill="#263238"/>
<path d="M238.476 52.6025L243.004 52.6637L243.188 54.8666L238.537 54.9278L238.476 52.6025Z" fill="#263238"/>
<path d="M229.296 30.5122C229.296 30.5122 230.214 27.6974 235.293 26.8407C240.373 25.984 243.739 25.9228 242.025 31.0629C240.25 36.2642 229.296 30.5122 229.296 30.5122Z" fill="#407BFF"/>
<path d="M224.951 31.7363C222.564 32.8378 219.749 39.936 219.749 39.936L224.951 42.6896L227.032 38.7734C227.032 38.7734 227.521 36.0809 227.032 34.2452C226.603 32.4094 224.951 31.7363 224.951 31.7363Z" fill="#407BFF"/>
<path d="M242.698 30.1455C242.821 40.7317 232.111 61.1697 232.111 61.1697C232.111 61.1697 226.297 63.1278 222.258 61.1697C222.258 61.1697 219.81 65.759 219.81 66.0038C219.81 66.8605 220.666 66.8605 220.666 66.8605C220.666 66.8605 218.341 72.6737 220.789 74.4482C223.237 76.2228 231.499 75.9168 232.723 74.387C233.886 72.8573 233.518 62.3935 233.518 62.3935C233.518 62.3935 243.372 43.3629 244.106 30.2679L242.698 30.1455Z" fill="#263238"/>
<path opacity="0.2" d="M233.457 62.454C233.457 62.454 233.824 72.979 232.662 74.4476C231.499 75.9774 223.237 76.2834 220.789 74.5088C218.341 72.7342 220.666 66.921 220.666 66.921C220.666 66.921 219.81 66.921 219.81 66.0644C219.81 65.8196 222.258 61.2302 222.258 61.2302C226.358 63.1883 232.111 61.2302 232.111 61.2302C232.111 61.2302 242.882 40.731 242.698 30.2061L243.984 30.3896C243.31 43.3623 233.457 62.454 233.457 62.454Z" fill="white"/>
<path opacity="0.2" d="M232.111 61.2314C232.111 61.2314 230.887 67.2894 228.439 67.5342C225.991 67.779 220.605 66.9223 220.605 66.9223C220.605 66.9223 219.748 66.9223 219.748 66.0656C219.748 65.8208 222.196 61.2314 222.196 61.2314C226.297 63.1896 232.111 61.2314 232.111 61.2314Z" fill="white"/>
</g>
<defs>
<clipPath id="clip0_249_6283">
<rect width="303.5" height="165" fill="white" transform="translate(0.5)"/>
</clipPath>
<clipPath id="clip1_249_6283">
<rect width="78.9854" height="116.817" fill="white" transform="translate(51.9194 6)"/>
</clipPath>
</defs>
</svg>
