<svg width="309" height="165" viewBox="0 0 309 165" fill="none" xmlns="http://www.w3.org/2000/svg">
<g clip-path="url(#clip0_249_6285)">
<path d="M247.281 66.6297C247.96 67.7738 247.293 68.7692 246.341 69.145C245.99 68.3904 245.349 67.7474 245.318 67.728C245.728 68.2806 245.983 68.8807 246.107 69.2219C245.632 69.3503 245.11 69.3235 244.66 69.0973C243.918 68.7306 243.486 69.0851 243.01 69.4771C242.339 68.911 241.402 68.6065 241.402 68.6065C242.056 68.9404 242.563 69.384 242.816 69.6356C242.379 69.9647 241.881 70.2436 241.05 70C240.031 69.6881 239.589 70.0881 239.042 70.4754C238.268 70.0411 238.511 70.4345 238.814 70.6259C238.387 70.9095 237.855 71.1322 236.938 71.0484C236.022 70.9647 235.256 71.1084 234.669 71.3064C234.266 71.4395 233.931 70.9765 234.189 70.6413C238.521 64.9394 246.309 64.9966 247.281 66.6297Z" fill="#006837"/>
<path d="M233.778 71.061C231.469 79.5435 219.46 119.591 190.032 155.621L196.205 159.379C196.205 159.379 226.899 117.921 236.921 72.497C237.153 71.4594 236.632 70.4124 235.703 70.0256C234.899 69.7164 234.005 70.202 233.778 71.061Z" fill="#006837"/>
<path d="M251.865 97.2252C249.87 98.9162 247.683 97.9572 246.639 96.2231C247.998 95.2947 249.027 93.8324 249.065 93.7695C248.113 94.7575 247.039 95.4411 246.415 95.7982C246.009 94.9224 245.879 93.8955 246.166 92.9309C246.643 91.3628 245.792 90.6462 244.874 89.854C245.766 88.3595 246.04 86.4315 246.04 86.4315C245.605 87.8176 244.893 88.9582 244.507 89.5275C243.709 88.7874 242.994 87.8989 243.214 86.1984C243.48 84.1004 242.557 83.3791 241.601 82.4457C242.196 80.7854 242.066 78.7864 242.066 78.7864C241.93 80.1826 241.496 81.4128 241.222 82.0684C240.531 81.3297 239.909 80.3549 239.768 78.5573C239.412 73.9485 234.535 70.6517 234.535 70.6517C249.57 73.3752 254.966 94.6065 251.865 97.2252Z" fill="#006837"/>
<path d="M210.286 87.1844C211.317 89.5876 213.701 89.705 215.41 88.6188C214.608 87.1816 214.34 85.4141 214.333 85.3405C214.745 86.6498 215.4 87.7404 215.8 88.3385C216.554 87.7358 217.128 86.8749 217.302 85.8835C217.574 84.2672 218.656 84.0058 219.831 83.7062C219.699 81.9708 220.314 80.1231 220.314 80.1231C220.085 81.5574 220.214 82.8961 220.305 83.5778C221.35 83.2716 222.386 82.7954 222.945 81.1865C223.643 79.1903 224.79 78.9563 226.063 78.5477C226.271 76.7963 227.279 75.0651 227.279 75.0651C226.778 76.3756 226.617 77.6701 226.57 78.3792C227.518 78.0261 228.51 77.4315 229.438 75.8855C231.812 71.9194 235.416 71.1953 235.416 71.1953C219.278 69.2805 208.679 83.4572 210.286 87.1844Z" fill="#006837"/>
<path d="M218.435 68.1218C217.86 69.7989 218.995 70.9424 220.356 71.1787C220.613 70.0869 221.282 69.0802 221.304 69.0374C220.913 69.8816 220.738 70.7285 220.674 71.2055C221.323 71.2504 222.012 71.0766 222.542 70.6612C223.411 69.9776 224.071 70.3369 224.81 70.715C225.531 69.7925 226.681 69.1391 226.681 69.1391C225.913 69.7504 225.368 70.4863 225.11 70.8696C225.766 71.1921 226.515 71.4284 227.533 70.8759C228.796 70.2011 229.47 70.5999 230.306 70.9766C231.21 70.1933 232.508 69.7787 232.508 69.7787C231.664 70.2041 230.986 70.7887 230.645 71.1165C231.28 71.3741 232.048 71.5308 233.225 71.1717C234.517 70.7798 235.642 70.7927 236.509 70.9366C237.006 71.0176 237.758 71.2907 237.483 70.8779C232.563 63.838 219.271 65.6901 218.435 68.1218Z" fill="#006837"/>
<path d="M261.503 80.9135C261.051 83.4958 258.759 84.1564 256.851 83.4912C257.296 81.9037 257.153 80.1175 257.144 80.0553C257.049 81.4253 256.657 82.6295 256.401 83.3132C255.525 82.903 254.767 82.1964 254.372 81.2751C253.73 79.7678 252.628 79.7603 251.409 79.7374C251.139 78.0294 250.116 76.3601 250.116 76.3601C250.664 77.7015 250.855 79.0309 250.921 79.7186C249.841 79.6683 248.721 79.4286 247.797 77.9989C246.656 76.2179 245.483 76.2538 244.153 76.1446C243.544 74.5008 242.16 73.0348 242.16 73.0348C242.944 74.1916 243.4 75.4153 243.614 76.0897C242.611 75.9618 241.504 75.6171 240.248 74.3251C237.029 71.0225 233.352 71.1411 233.352 71.1411C248.61 65.575 262.204 76.9136 261.503 80.9135Z" fill="#006837"/>
<path d="M236.272 95.9545C236.076 95.5123 235.664 94.8633 234.838 94.2965C234.864 94.3387 235.648 95.4955 235.844 96.598C234.938 97.8489 233.961 98.5793 233.165 98.1879C232.121 97.678 231.787 95.679 231.849 93.3769C232.713 92.104 234.271 91.6546 234.271 91.6546C233.426 91.5755 232.369 92.1909 231.888 92.4979C232.045 89.8942 232.628 87.1146 233.182 85.7806C234.295 83.0901 232.678 81.5452 233.722 78.694C234.754 75.8402 235.524 70.8362 235.524 70.8362C235.524 70.8362 238.025 75.0981 238.856 78.6064C239.166 79.9397 239.156 81.0536 239.04 82.1066C238.733 81.6744 238.081 81.0287 236.794 80.7375C236.794 80.7375 238.393 81.4382 238.951 82.8418C238.75 84.3069 238.463 85.7278 238.772 87.5288C239.117 89.5786 237.844 93.456 236.272 95.9545Z" fill="#006837"/>
<path d="M257.248 63.9603C254.102 66.6165 250.661 65.1222 249.002 62.3791C251.15 60.9042 252.77 58.6091 252.829 58.5148C251.334 60.0713 249.64 61.1489 248.656 61.7094C248.01 60.3211 247.812 58.7142 248.265 57.2003C249.016 54.7244 247.671 53.6037 246.226 52.3511C247.619 50.0024 248.073 46.9525 248.073 46.9525C247.391 49.1327 246.271 50.9335 245.652 51.8319C244.4 50.673 243.27 49.2546 243.607 46.5974C244.012 43.2959 242.577 42.1538 241.063 40.6811C241.991 38.0668 241.797 34.9124 241.797 34.9124C241.581 37.1061 240.896 39.0454 240.471 40.0856C239.39 38.9188 238.394 37.388 238.173 34.5514C237.614 27.29 229.919 22.0936 229.919 22.0936C253.63 26.3555 262.145 59.8319 257.248 63.9603Z" fill="#249748"/>
<path d="M266.253 18.5726C267.227 21.8267 264.967 23.9351 262.35 24.2913C261.944 22.1913 260.732 20.2015 260.689 20.1313C261.383 21.7711 261.635 23.4028 261.739 24.3394C260.481 24.3794 259.2 24.0059 258.202 23.1468C256.582 21.7691 255.29 22.4132 253.857 23.096C252.534 21.2722 250.376 19.9359 250.376 19.9359C251.802 21.1717 252.796 22.6062 253.266 23.3649C251.979 23.9381 250.544 24.3205 248.624 23.1964C246.264 21.8005 244.931 22.5189 243.311 23.1816C241.637 21.6233 239.182 20.7332 239.182 20.7332C240.775 21.6125 242.015 22.7687 242.651 23.4344C241.407 23.8738 239.931 24.1265 237.71 23.3635C232.038 21.404 227.847 23.7061 227.847 23.7061C242.329 8.28293 264.732 13.5094 266.253 18.5726Z" fill="#249748"/>
<path d="M276.44 31.4852C276.347 35.6042 272.948 37.1927 269.806 36.6209C270.125 34.0433 269.463 31.295 269.439 31.1933C269.616 33.3475 269.306 35.327 269.069 36.4355C267.61 36.0078 266.265 35.0911 265.43 33.7423C264.077 31.5392 262.346 31.8038 260.451 32.0538C259.61 29.4553 257.619 27.1022 257.619 27.1022C258.805 29.0498 259.408 31.0763 259.673 32.1467C257.975 32.3231 256.171 32.2345 254.389 30.2186C252.178 27.7297 250.372 28.0606 248.26 28.2115C246.923 25.7842 244.417 23.8378 244.417 23.8378C245.921 25.4522 246.915 27.2466 247.41 28.2515C245.815 28.2961 244.018 28.029 241.744 26.3174C235.934 21.9367 230.23 23.0184 230.23 23.0184C252.689 10.6736 276.579 25.0843 276.44 31.4852Z" fill="#249748"/>
<path d="M231.422 24.7873C225.632 35.9193 200.793 92.3218 196.5 159.5L182 161.5C182 161.5 193.318 80.3325 226.779 23.0941C227.543 21.7857 229.091 21.2259 230.425 21.78C231.551 22.2491 232.015 23.6427 231.422 24.7873Z" fill="#006837"/>
<path d="M232.681 61.957C232.366 61.2586 231.728 60.2443 230.415 59.347C230.459 59.4172 231.699 61.2337 231.995 62.9839C230.557 64.9619 229.029 66.1023 227.768 65.4934C226.119 64.6971 225.602 61.5387 225.688 57.91C227.058 55.9159 229.508 55.1964 229.508 55.1964C228.168 55.0731 226.501 56.0369 225.748 56.5319C226.007 52.4276 226.916 48.0565 227.796 45.9473C229.563 41.7061 227.013 39.2813 228.637 34.7785C230.262 30.2757 231.482 22.389 231.482 22.389C231.482 22.389 235.423 29.1022 236.738 34.633C237.228 36.7291 237.21 38.4892 237.035 40.1523C236.549 39.4618 235.524 38.4642 233.485 37.9963C233.485 37.9963 236.009 39.1065 236.892 41.319C236.575 43.633 236.135 45.8581 236.617 48.708C237.16 51.9086 235.158 58.0149 232.681 61.957Z" fill="#249748"/>
<path d="M231.987 62.9695C232.218 62.6518 232.454 62.3113 232.67 61.9541L231.987 62.9695Z" fill="#006837"/>
<path d="M192.396 47.6946C194.026 51.4753 197.773 51.6732 200.481 49.9582C199.217 47.6801 198.79 44.9031 198.78 44.7927C199.424 46.8526 200.459 48.5727 201.09 49.5134C202.287 48.5589 203.181 47.209 203.451 45.6523C203.884 43.1015 205.587 42.6983 207.44 42.2222C207.241 39.4987 208.195 36.5666 208.195 36.5666C207.832 38.8217 208.031 40.9331 208.185 42.0136C209.822 41.5348 211.467 40.7696 212.35 38.241C213.46 35.1055 215.255 34.7237 217.266 34.0811C217.602 31.3276 219.183 28.5909 219.183 28.5909C218.398 30.6506 218.146 32.6917 218.062 33.8123C219.55 33.2505 221.125 32.3248 222.587 29.8845C226.327 23.6352 232.008 22.5 232.008 22.5C206.588 19.4802 189.869 41.8065 192.396 47.6946Z" fill="#249748"/>
<path d="M195.958 11.4093C194.291 14.4617 196.12 17.0409 198.655 17.9497C199.503 15.9288 201.134 14.2003 201.196 14.1428C200.159 15.6392 199.56 17.2146 199.261 18.1284C200.512 18.423 201.88 18.3248 203.05 17.6881C204.963 16.65 206.114 17.5694 207.397 18.5436C209.094 16.9984 211.535 16.109 211.535 16.109C209.854 17.0333 208.555 18.2641 207.919 18.9304C209.089 19.7701 210.439 20.46 212.591 19.7304C215.251 18.8323 216.433 19.8306 217.903 20.8249C219.904 19.6156 222.549 19.242 222.549 19.242C220.777 19.785 219.293 20.6839 218.509 21.2077C219.652 21.9089 221.08 22.4731 223.456 22.1683C226.065 21.8462 228.241 22.2385 229.873 22.8027C230.795 23.1159 232.172 23.8961 231.757 23.0063C224.624 7.77566 198.371 6.97211 195.958 11.4093Z" fill="#249748"/>
<path d="M124.317 49.9036L121.542 55.5424L118.053 52.136L122.215 47.3101L124.317 49.9036Z" fill="#39B54A"/>
<path d="M121.237 57.2949C122.017 57.6278 122.606 58.3217 122.915 59.1542C123.792 61.5937 123.239 67.0375 115.227 76.1765C105.076 87.7776 139.005 69.0262 142.001 76.4822C142.001 76.4822 143.525 79.5665 141.562 77.2534C138.706 74.0064 124.427 83.4403 117.131 85.8034C109.006 88.4218 106.219 83.6736 108.485 77.0244C110.489 70.9459 115.929 55.0851 121.237 57.2949Z" fill="#39B54A"/>
<path d="M123.039 58.3017C123.039 58.3017 125.441 62.4804 119.158 72.1913L111.699 67.3301C111.699 67.3301 116.758 52.1915 123.039 58.3017Z" fill="white"/>
<path d="M130.807 135.728L130.19 136.7C129.049 136.822 127.967 136.895 126.831 136.964C127.355 135.823 127.905 134.361 128.526 132.69C129.676 133.106 130.777 133.465 131.927 133.882C131.611 134.449 131.185 135.059 130.807 135.728Z" fill="#39B54A"/>
<path d="M125.655 139.505C125.655 139.505 125.979 138.832 126.503 137.691C126.57 137.535 127.031 136.496 127.098 136.34C127.164 136.184 127.174 136.723 127.157 136.937C127.7 136.874 128.185 136.859 128.729 136.796C128.844 136.698 129.351 135.771 130.563 136.085C131.351 136.311 130.127 136.803 130.127 136.803L135.869 139.64L125.655 139.505Z" fill="#000C38"/>
<path d="M101.766 86.8049L111.863 87.0385C111.863 87.0385 127.932 97.1778 134.807 107.211C137.316 110.753 138.573 114.461 137.433 119.857C136.531 124.304 135.222 127.802 133.064 131.823C132.686 132.492 132.309 133.161 131.931 133.829C130.781 133.412 129.681 133.053 128.531 132.636C130.757 126.468 132.881 117.601 129.576 111.95C124.141 102.734 98.8621 98.6218 101.766 86.8049Z" fill="#006837"/>
<path d="M119.599 137.88C119.599 137.88 119.332 135.222 117.375 134.147C115.418 133.072 109.805 132.613 109.805 132.613L109.456 136.889L119.599 137.88Z" fill="#A1ACE2"/>
<path d="M63.5162 103.105L62.5375 103.886L52.0627 90.4909L53.7733 90.6307L63.5162 103.105Z" fill="#249748"/>
<path d="M79.3904 97.1918L78.8666 98.3329L63.8766 91.4568L67.2443 91.7321L79.3904 97.1918Z" fill="#249748"/>
<path d="M39.7391 88.5152L74.4859 91.3562C74.7532 91.378 74.9496 91.6093 74.9277 91.8766C74.9059 92.1439 74.6745 92.3402 74.4073 92.3184L67.2441 91.7327L63.8763 91.4574L53.773 90.6313L52.0624 90.4914L39.6605 89.4774C39.3932 89.4556 39.1968 89.2243 39.2187 88.957C39.2405 88.6897 39.4719 88.4934 39.7391 88.5152Z" fill="#006837"/>
<path d="M70.3696 147.631C64.0617 147.115 59.3495 141.564 59.8653 135.256C59.957 134.133 60.2092 133.024 60.6173 131.981L61.9003 132.086C61.8959 132.139 61.8337 132.242 61.7759 132.291C61.3765 133.227 61.1287 134.283 61.0413 135.352C60.9539 136.421 61.0268 137.503 61.2689 138.492C62.0267 141.729 64.3337 144.447 67.4046 145.72C68.3406 146.12 69.3966 146.367 70.4658 146.455C71.5349 146.542 72.6171 146.469 73.6056 146.227C76.8426 145.469 79.5605 143.162 80.834 140.092C81.2334 139.156 81.4812 138.1 81.5686 137.03C81.656 135.961 81.5831 134.879 81.341 133.891C81.2963 133.779 81.3007 133.726 81.256 133.615L82.5389 133.719C82.7722 134.815 82.8408 135.951 82.7447 137.127C82.2289 143.434 76.6775 148.147 70.3696 147.631Z" fill="#249748"/>
<path d="M70.9467 140.575C71.3743 140.61 71.7179 141.015 71.683 141.442L71.5256 143.367C71.4907 143.795 71.0859 144.138 70.6582 144.103C70.2306 144.068 69.887 143.663 69.9219 143.236L70.0793 141.311C70.1186 140.83 70.519 140.54 70.9467 140.575Z" fill="#249748"/>
<path d="M71.668 131.755C71.2403 131.72 70.8967 131.315 70.9317 130.887L71.089 128.963C71.124 128.535 71.5288 128.191 71.9565 128.226C72.3841 128.261 72.7277 128.666 72.6927 129.094L72.5354 131.018C72.5004 131.446 72.0956 131.79 71.668 131.755Z" fill="#249748"/>
<path d="M66.1855 134.966C66.6131 135.001 66.9567 135.405 66.9217 135.833C66.8868 136.261 66.482 136.604 66.0543 136.569L64.1299 136.412C63.7022 136.377 63.3586 135.972 63.3936 135.545C63.4286 135.117 63.8334 134.773 64.261 134.808L66.1855 134.966Z" fill="#249748"/>
<path d="M75.2095 126.61C74.2735 126.21 73.2175 125.962 72.1484 125.875C71.0793 125.788 69.997 125.861 69.0086 126.103C65.8294 126.811 63.1693 129.069 61.8511 132.029L60.5681 131.924C62.3961 127.338 67.0102 124.217 72.1955 124.641C77.3273 125.061 81.431 128.84 82.4941 133.609L81.2111 133.504C80.4402 130.428 78.1735 127.874 75.2095 126.61Z" fill="#006837"/>
<path d="M72.2839 124.217C66.8313 123.771 61.9903 127.035 60.1405 131.888L53.993 131.386C56.2207 123.227 64.0065 117.513 72.7734 118.23C81.4868 118.942 88.2455 125.791 89.1761 134.155L83.0286 133.652C81.983 128.67 77.683 124.659 72.2839 124.217Z" fill="#006837"/>
<path d="M60.1362 131.941C59.7281 132.984 59.4803 134.04 59.3841 135.216C58.8465 141.791 63.7551 147.574 70.3303 148.112C76.9055 148.649 82.6882 143.741 83.2258 137.165C83.3219 135.989 83.2534 134.854 83.02 133.758L89.1675 134.261C89.2896 135.401 89.3047 136.532 89.2129 137.655C88.4043 147.544 79.7302 154.907 69.8408 154.099C59.9513 153.29 52.5884 144.616 53.397 134.726C53.4888 133.604 53.6831 132.544 53.9844 131.492L60.1362 131.941Z" fill="#249748"/>
<path d="M76.5562 135.814L78.4806 135.972C78.9083 136.007 79.2519 136.411 79.2169 136.839C79.1819 137.267 78.7772 137.61 78.3495 137.575L76.4251 137.418C75.9974 137.383 75.6538 136.978 75.6888 136.55C75.7281 136.069 76.1285 135.779 76.5562 135.814Z" fill="#249748"/>
<path d="M72.2842 124.218C77.6833 124.659 81.9833 128.67 83.0246 133.706L82.5435 133.667C81.4848 128.845 77.3767 125.119 72.2448 124.699C67.0595 124.275 62.3964 127.338 60.6175 131.982L60.1364 131.943C61.9862 127.089 66.8316 123.772 72.2842 124.218Z" fill="#FEFEFE"/>
<path d="M59.8697 135.204C59.354 141.512 64.0662 147.063 70.3741 147.579C76.682 148.095 82.2334 143.382 82.7492 137.075C82.8453 135.898 82.7767 134.763 82.5434 133.667L83.0245 133.707C83.2578 134.802 83.3264 135.938 83.2303 137.114C82.6927 143.689 76.9099 148.598 70.3348 148.06C63.7596 147.522 58.851 141.74 59.3886 135.165C59.4804 134.042 59.7326 132.932 60.1407 131.89L60.6218 131.929C60.2137 132.972 59.9615 134.081 59.8697 135.204Z" fill="#FEFEFE"/>
<path d="M75.0131 129.014L75.2097 126.609C78.2316 127.825 80.4404 130.427 81.2604 133.561L77.5185 133.255C75.9094 132.532 74.8601 130.885 75.0131 129.014Z" fill="white"/>
<path d="M77.5139 133.309L81.2559 133.615C81.3006 133.727 81.2962 133.78 81.3409 133.891L78.9354 133.695C78.4587 133.602 77.9285 133.505 77.5139 133.309Z" fill="white"/>
<path d="M64.1859 132.434L61.7804 132.237C61.7847 132.184 61.8469 132.081 61.9048 132.032L65.5933 132.334C65.099 132.455 64.667 132.474 64.1859 132.434Z" fill="white"/>
<path d="M69.0085 126.103L68.8119 128.508C68.6545 130.433 67.2939 131.936 65.5396 132.33L61.8511 132.029C63.1693 129.069 65.825 126.865 69.0085 126.103Z" fill="white"/>
<path d="M78.4328 139.841L80.8384 140.038C79.5648 143.109 76.8469 145.416 73.61 146.174L73.8066 143.768C73.999 141.416 76.0807 139.649 78.4328 139.841Z" fill="white"/>
<path d="M67.6014 143.317L67.4047 145.722C64.3338 144.449 62.0268 141.731 61.269 138.494L63.6746 138.69C66.031 138.829 67.7981 140.911 67.6014 143.317Z" fill="white"/>
<path d="M65.5398 132.331L77.5184 133.256C77.9864 133.456 78.4588 133.602 78.9399 133.642L81.3454 133.838C81.5875 134.827 81.6604 135.909 81.573 136.978C81.4856 138.047 81.2378 139.103 80.8384 140.039L78.4329 139.843C76.0808 139.65 73.999 141.417 73.8067 143.769L73.61 146.175C72.6216 146.417 71.5393 146.49 70.4702 146.403C69.4011 146.315 68.345 146.067 67.409 145.668L67.6057 143.262C67.798 140.91 66.0309 138.829 63.6789 138.636L61.2733 138.44C61.0312 137.451 60.9583 136.369 61.0457 135.3C61.1331 134.231 61.3809 133.175 61.7803 132.239L64.1859 132.435C64.667 132.475 65.099 132.456 65.5398 132.331ZM76.4291 137.365L78.3535 137.522C78.7812 137.557 79.186 137.213 79.2209 136.786C79.2559 136.358 78.9123 135.953 78.4847 135.918L76.5602 135.761C76.1326 135.726 75.7278 136.07 75.6928 136.497C75.6578 136.925 76.0014 137.33 76.4291 137.365ZM69.9219 143.237C69.8869 143.664 70.2305 144.069 70.6581 144.104C71.0858 144.139 71.4906 143.795 71.5256 143.368L71.6829 141.443C71.7179 141.016 71.3743 140.611 70.9466 140.576C70.519 140.541 70.1142 140.884 70.0792 141.312L69.9219 143.237ZM63.3978 135.492C63.3628 135.92 63.7064 136.325 64.1341 136.359L66.0585 136.517C66.4862 136.552 66.891 136.208 66.9259 135.781C66.9609 135.353 66.6173 134.948 66.1896 134.913L64.2652 134.756C63.8332 134.774 63.4328 135.064 63.3978 135.492Z" fill="#A1ACE2"/>
<path d="M77.5141 133.309L65.5354 132.383C67.2941 131.935 68.6547 130.432 68.8077 128.561L69.0044 126.156C69.9928 125.913 71.0751 125.841 72.1442 125.928C73.2133 126.015 74.2693 126.263 75.2053 126.663L75.0087 129.068C74.86 130.886 75.9094 132.532 77.5141 133.309ZM72.6925 129.094C72.7275 128.666 72.3839 128.262 71.9563 128.227C71.5286 128.192 71.1238 128.535 71.0888 128.963L70.9315 130.887C70.8965 131.315 71.2401 131.72 71.6678 131.755C72.0954 131.79 72.5002 131.446 72.5352 131.018L72.6925 129.094Z" fill="#8B9AD1"/>
<path d="M112.97 137.339L114.452 119.217C114.452 119.217 119.209 113.686 120.631 105.515L77.8667 94.1082C77.8667 94.1082 63.1187 96.777 55.5131 109.501C48.5338 121.146 48.2893 130.059 48.2893 130.059L50.9087 130.273L105.422 135.538L112.97 137.339Z" fill="#3543AE"/>
<path d="M152.923 82.4322C155.066 82.5536 157.023 83.6284 158.567 85.1538C160.208 86.7948 161.325 88.9311 162.282 91.0542C164.222 95.6256 165.388 100.456 166.117 105.359C166.405 107.105 166.897 108.975 166.642 110.784C166.421 112.165 165.666 113.502 164.384 114.043L163.094 114.691C163.094 114.691 164.055 108.85 158.516 95.6434C154.461 86.002 152.31 83.3507 151.458 82.5815C151.356 82.5193 151.427 82.3098 151.587 82.3229L152.923 82.4322Z" fill="#3543AE"/>
<path d="M151.373 84.9425L144.099 87.6843L144.476 89.6524C144.557 89.9819 144.637 90.3114 144.723 90.5874C145.099 91.9097 145.64 93.1916 146.35 94.3798C147.203 95.7949 148.191 98.1897 147.607 100.725C147.253 102.418 147.011 104.067 147.031 105.79C147.123 113.224 146.502 132.008 140.563 139.487L148.313 139.475C148.313 139.475 159.108 126.581 155.97 110.988L152.419 93.2078L151.373 84.9425Z" fill="#A1ACE2"/>
<path d="M148.153 139.462L140.616 139.491C140.616 139.491 116.7 138.451 105.06 134.701L95.1386 130.338L92.6336 132.016C92.6336 132.016 100.469 138.2 122.485 140.108L142.334 141.515C142.334 141.515 146.513 141.749 148.153 139.462Z" fill="#006837"/>
<path d="M148.758 144.57C148.758 144.57 149.262 148.27 146.187 149.687C143.111 151.104 118.786 150.46 113.504 147.93C108.222 145.399 100.971 139.963 100.971 139.963C100.971 139.963 109.53 144.537 123.234 146.734C123.234 146.734 133.842 147.978 143.137 147.5C143.083 147.496 146.414 146.907 148.758 144.57Z" fill="#A1ACE2"/>
<path d="M79.8979 88.3538C79.7449 90.2248 78.0679 91.6483 76.1969 91.4953L38.9377 88.4489C37.0667 88.296 35.6432 86.619 35.7962 84.748L35.8749 83.7858L79.9766 87.3916L79.8979 88.3538Z" fill="#C7F9CC"/>
<path d="M36.1154 80.8444L80.217 84.4502L79.9723 87.4438L35.8706 83.8379L36.1154 80.8444Z" fill="#006837"/>
<path d="M38.1826 55.5605C38.3355 53.6895 40.0125 52.266 41.8835 52.419L79.1427 55.4654C81.0137 55.6184 82.4372 57.2954 82.2842 59.1663L80.2169 84.4513L36.1152 80.8455L38.1826 55.5605Z" fill="#C7F9CC"/>
<path d="M36.5332 65.8657L36.747 65.8832C37.0678 65.9094 37.3569 65.664 37.3831 65.3433L37.7459 60.9064C37.7721 60.5856 37.5267 60.2965 37.2059 60.2703L36.9921 60.2528C36.6714 60.2266 36.3822 60.472 36.356 60.7927L35.9932 65.2296C35.967 65.5504 36.2124 65.8395 36.5332 65.8657Z" fill="#006837"/>
<path d="M35.3838 79.9243L35.5976 79.9418C35.9183 79.968 36.2075 79.7226 36.2337 79.4019L36.5965 74.965C36.6227 74.6442 36.3773 74.3551 36.0565 74.3289L35.8427 74.3114C35.5219 74.2852 35.2328 74.5306 35.2066 74.8513L34.8438 79.2882C34.8176 79.609 35.063 79.8981 35.3838 79.9243Z" fill="#006837"/>
<path d="M61.0267 103.278C60.1213 102.504 58.8252 102.56 57.9534 103.349C56.0855 105.134 52.7544 108.359 50.0691 111.584C49.709 112.039 49.2017 112.32 48.6049 112.379L46.4808 112.69C45.8262 112.798 45.3548 113.297 45.298 113.992L45.2412 114.687C45.1844 115.382 45.6709 116.014 46.3571 116.178L51.6993 117.314C51.6993 117.314 55.5365 107.242 61.0267 103.278Z" fill="#249748"/>
<path d="M86.139 89.0257C89.4261 88.9716 92.5242 90.5703 95.7326 91.4784C99.0436 92.4487 102.527 92.6258 105.931 93.1194C109.339 93.5595 112.828 94.3291 115.739 96.2354C118.651 98.1416 120.865 101.336 120.688 104.82L120.627 105.568C116.746 107.619 111.829 107.862 107.444 106.858C101.737 105.584 96.6051 102.528 91.4474 99.792C87.0118 97.4383 81.2267 95.1356 76.2727 94.5153C77.8889 91.2033 82.4777 89.0493 86.139 89.0257Z" fill="#249748"/>
<path d="M151.199 85.0892C151.199 85.0892 149.547 82.2634 150.041 79.5055L147.253 73.4655L139.761 76.2433L144.152 87.688L151.199 85.0892Z" fill="#3543AE"/>
<path d="M146.305 77.1558C146.216 76.9332 146.18 76.715 146.144 76.4968C146.111 75.5793 146.254 73.1694 148.921 72.1497C152.255 70.8617 155.951 81.6038 153.456 81.1845C151.121 80.7784 147.324 79.1764 146.305 77.1558Z" fill="#A1ACE2"/>
<path d="M155.32 139.995C157.454 131.667 165.307 125.798 174.18 126.523C176.479 126.711 178.636 127.318 180.602 128.286C177.173 128.759 171.135 130.203 163.178 134.718C160.014 136.558 157.769 139.012 155.32 139.995Z" fill="#006837"/>
<path d="M163.178 134.718C171.135 130.203 177.173 128.759 180.602 128.286C187.016 131.447 191.245 138.304 190.624 145.895C189.816 155.785 181.142 163.148 171.252 162.339C161.363 161.53 154 152.856 154.808 142.967C154.892 141.951 155.081 140.944 155.321 139.995C157.769 139.011 160.014 136.558 163.178 134.718Z" fill="#249748"/>
<path d="M171.742 156.351C178.317 156.889 184.1 151.98 184.637 145.405C185.175 138.83 180.266 133.047 173.691 132.51C167.116 131.972 161.333 136.881 160.796 143.456C160.258 150.031 165.167 155.814 171.742 156.351ZM173.652 132.991C179.96 133.507 184.672 139.058 184.156 145.366C183.641 151.674 178.089 156.386 171.781 155.87C165.473 155.354 160.761 149.803 161.277 143.495C161.793 137.187 167.344 132.475 173.652 132.991Z" fill="#FEFEFE"/>
<path d="M176.42 137.308L176.617 134.903C179.688 136.176 181.995 138.894 182.752 142.131L180.347 141.935C177.995 141.742 176.228 139.661 176.42 137.308Z" fill="white"/>
<path d="M165.593 140.728L163.187 140.531C164.461 137.46 167.179 135.153 170.416 134.396L170.219 136.801C170.027 139.153 167.945 140.92 165.593 140.728Z" fill="white"/>
<path d="M179.84 148.135L182.246 148.332C180.972 151.403 178.254 153.71 175.017 154.468L175.214 152.062C175.406 149.71 177.488 147.943 179.84 148.135Z" fill="white"/>
<path d="M169.009 151.607L168.812 154.012C165.741 152.739 163.434 150.021 162.676 146.784L165.082 146.981C167.438 147.119 169.205 149.201 169.009 151.607Z" fill="white"/>
<path d="M163.187 140.53L165.593 140.727C167.945 140.919 170.027 139.152 170.219 136.8L170.416 134.394C171.404 134.152 172.487 134.079 173.556 134.167C174.625 134.254 175.681 134.502 176.617 134.901L176.42 137.307C176.228 139.659 177.995 141.741 180.347 141.933L182.753 142.13C182.995 143.118 183.068 144.2 182.98 145.27C182.893 146.339 182.645 147.395 182.246 148.331L179.84 148.134C177.488 147.942 175.406 149.709 175.214 152.061L175.017 154.466C174.029 154.708 172.946 154.781 171.877 154.694C170.808 154.607 169.752 154.359 168.816 153.959L169.013 151.554C169.205 149.202 167.438 147.12 165.086 146.928L162.68 146.731C162.438 145.743 162.365 144.66 162.453 143.591C162.54 142.522 162.784 141.519 163.187 140.53ZM177.836 145.656L179.761 145.813C180.188 145.848 180.593 145.505 180.628 145.077C180.663 144.65 180.319 144.245 179.892 144.21L177.967 144.052C177.54 144.017 177.135 144.361 177.1 144.789C177.065 145.216 177.409 145.621 177.836 145.656ZM171.329 151.528C171.294 151.956 171.638 152.36 172.065 152.395C172.493 152.43 172.898 152.087 172.933 151.659L173.09 149.735C173.125 149.307 172.781 148.902 172.354 148.867C171.926 148.832 171.521 149.176 171.486 149.604L171.329 151.528ZM172.339 139.179C172.304 139.607 172.647 140.012 173.075 140.047C173.503 140.082 173.907 139.738 173.942 139.311L174.1 137.386C174.135 136.959 173.791 136.554 173.363 136.519C172.936 136.484 172.531 136.827 172.496 137.255L172.339 139.179ZM165.541 144.651L167.466 144.808C167.893 144.843 168.298 144.5 168.333 144.072C168.368 143.644 168.024 143.24 167.597 143.205L165.672 143.047C165.245 143.012 164.84 143.356 164.805 143.783C164.77 144.211 165.114 144.616 165.541 144.651Z" fill="#A1ACE2"/>
<path d="M172.78 144.973C173.394 144.7 173.665 144.023 173.392 143.409L168.485 130.361L166.247 131.416L171.064 144.241C171.328 144.962 172.108 145.295 172.78 144.973Z" fill="#3543AE"/>
<path d="M164.051 114.177C165.653 116.299 168.78 116.232 171.444 116.557C177.52 117.269 183.129 121.064 186.135 126.422C177.619 126.587 169.214 129.344 162.198 134.205C158.487 136.808 154.715 140.159 150.194 140.166L162.627 115.137L164.051 114.177Z" fill="#A1ACE2"/>
<path d="M151.904 83.0475C151.757 82.874 151.271 82.2423 151.253 82.4561C151.135 83.8995 151.031 88.4651 153.551 99.1111C156.712 112.446 157.71 121.3 153.598 129.466C149.486 137.632 149.31 141.762 141.497 141.23C133.634 140.641 106.049 140.377 92.7362 132.078L89.6246 133.276C89.6246 133.276 104.715 144.842 125.445 147.344C125.445 147.344 134.198 148.222 143.186 147.557C143.186 147.557 147.783 147.933 154.813 137.637C161.844 127.342 163.494 114.4 163.494 114.4C163.494 114.4 164.397 105.325 155.864 88.5912C155.81 88.5868 153.283 84.6132 151.904 83.0475Z" fill="#249748"/>
<path d="M105.796 134.922C105.796 134.922 115.555 109.674 88.7263 102.799C61.9549 95.8743 53.8356 116.198 52.4874 122.814C51.1392 129.431 50.9089 130.273 50.9089 130.273L90.3064 133.494L105.796 134.922Z" fill="#A1ACE2"/>
<path d="M82.0494 119.956L64.9433 118.557C64.676 118.536 64.4262 118.3 64.4524 117.979C64.4743 117.712 64.71 117.462 65.0307 117.488L82.1368 118.887C82.4041 118.909 82.6539 119.144 82.6277 119.465C82.6015 119.786 82.3167 119.978 82.0494 119.956Z" fill="#249748"/>
<path d="M64.8515 119.681L81.9576 121.079C82.2249 121.101 82.4747 121.337 82.4485 121.658C82.4223 121.978 82.1909 122.175 81.8702 122.148L64.7641 120.75C64.4968 120.728 64.247 120.492 64.2732 120.172C64.2995 119.851 64.5308 119.654 64.8515 119.681Z" fill="#249748"/>
<path d="M64.6767 121.818L81.7828 123.217C82.0501 123.239 82.2999 123.475 82.2737 123.795C82.2518 124.063 82.0161 124.312 81.6954 124.286L64.5893 122.888C64.322 122.866 64.0722 122.63 64.0984 122.309C64.1203 122.042 64.356 121.792 64.6767 121.818Z" fill="#249748"/>
<path d="M64.4973 124.01L81.6034 125.408C81.8707 125.43 82.1205 125.666 82.0942 125.987C82.068 126.307 81.8367 126.504 81.516 126.478L64.4098 125.079C64.1426 125.057 63.8928 124.821 63.919 124.501C63.9452 124.18 64.1765 123.984 64.4973 124.01Z" fill="#249748"/>
<path d="M77.4355 140.193L77.2826 142.064C76.8549 142.029 76.4807 141.999 76.1065 141.968L76.2595 140.097C76.6337 140.128 77.0614 140.163 77.4355 140.193Z" fill="#000C38"/>
<path d="M93.2096 141.428C98.5771 141.598 99.2723 139.018 99.3345 138.916C99.4273 138.439 99.939 138.104 100.416 138.197C100.946 138.294 101.281 138.806 101.135 139.278C101.121 139.438 100.193 143.56 93.11 143.304C90.963 143.236 88.3927 143.08 85.8268 142.87C83.154 142.651 79.7906 142.322 77.2247 142.113L77.382 140.188C81.868 140.609 89.0803 141.252 93.2096 141.428Z" fill="#006837"/>
<path d="M76.2595 140.095C76.3129 140.1 76.3129 140.1 76.2595 140.095L76.1065 141.966C76.1327 141.646 76.1055 141.32 76.1317 141C76.2158 140.63 76.2376 140.363 76.2595 140.095Z" fill="#006837"/>
<path d="M50.2853 135.928L75.2495 137.969C76.5325 138.074 76.4625 138.93 76.3129 140.101C76.2911 140.369 76.2114 140.685 76.1852 141.006C76.1589 141.326 76.1284 141.701 76.16 141.972C76.1216 143.099 76.0561 143.901 74.7731 143.796L49.8089 141.755C48.2052 141.624 47.0315 140.183 47.1582 138.632C47.2403 136.971 48.6816 135.797 50.2853 135.928Z" fill="#006837"/>
<path d="M141.554 75.3678C141.554 75.3678 144.316 78.4457 145.277 80.5154C146.238 82.5851 145.045 83.3486 145.045 83.3486C145.045 83.3486 142.914 79.1383 140.862 77.2485C140.808 77.2441 141.471 76.3835 141.554 75.3678Z" fill="#249748"/>
<path d="M141.523 75.7424C141.365 77.0209 140.257 78.0605 138.921 77.9512C137.584 77.842 136.603 76.6854 136.712 75.349L136.743 74.9748C136.852 73.6384 138.008 72.6567 139.345 72.7659C139.34 72.8194 141.849 73.0783 141.523 75.7424Z" fill="#006837"/>
<path d="M138.757 75.3551L137.516 74.0698C137.516 74.0698 140.617 74.3233 140.268 75.9629C139.931 77.4422 136.954 76.3378 136.954 76.3378C136.954 76.3378 138.581 76.8475 138.757 75.3551Z" fill="#249748"/>
<path d="M136.137 75.1401C136.085 75.7816 136.629 76.3643 137.378 76.4254C138.126 76.4866 138.758 76.0001 138.81 75.3587C138.863 74.7172 138.318 74.1345 137.57 74.0733C136.821 74.0122 136.19 74.4986 136.137 75.1401Z" fill="#3543AE"/>
<path d="M124.532 136.133L123.865 137.048C122.734 137.063 121.603 137.078 120.529 137.044C121.102 135.961 121.812 134.512 122.589 132.907C123.681 133.373 124.769 133.893 125.861 134.359C125.381 134.965 124.954 135.576 124.532 136.133Z" fill="#F7D8C4"/>
<path d="M119.089 139.507C119.089 139.507 119.467 138.838 120.093 137.759C120.16 137.603 120.724 136.627 120.791 136.471C120.857 136.315 120.813 136.85 120.796 137.063C121.335 137.054 121.874 137.044 122.355 137.083C122.471 136.985 123.08 136.12 124.229 136.537C125.014 136.816 123.745 137.197 123.745 137.197L129.233 140.498L119.089 139.507Z" fill="#000C38"/>
<path d="M99.5402 85.0633L111.863 87.0396C111.863 87.0396 124.665 95.674 130.743 106.234C132.967 109.968 134.708 115.007 133.148 120.261C131.877 124.624 129.562 128.578 127.038 132.462C126.612 133.072 126.181 133.737 125.754 134.348C124.662 133.882 123.574 133.362 122.482 132.896C125.177 126.928 128.041 118.229 125.181 112.399C120.484 102.705 92.8238 96.7838 99.5402 85.0633Z" fill="#C7F9CC"/>
<path d="M115.573 52.201C111.54 54.1315 101.346 63.6303 99.54 85.062L111.863 87.0383C111.863 87.0383 112.89 77.1128 120.703 65.8049C120.703 65.8049 122.556 62.889 122.696 58.5415C122.746 56.6083 122.093 54.7253 120.701 53.3199C119.563 52.0968 117.762 51.0885 115.573 52.201Z" fill="#F9F8F7"/>
<path d="M118.479 53.5171C119.308 53.9078 119.897 54.6017 120.201 55.4876C121.069 58.0341 120.388 63.7364 111.868 73.1569C101.045 85.0797 136.818 66.1561 139.837 73.9907C139.837 73.9907 141.348 77.2354 139.339 74.811C136.448 71.3458 121.35 80.9279 113.679 83.2605C105.127 85.8439 102.362 80.8284 104.805 73.9786C107 67.5389 112.97 51.1294 118.479 53.5171Z" fill="#F7D8C4"/>
<path d="M121.089 56.4739C121.654 58.7803 121.46 63.1234 116.027 69.0291L108.326 63.8253C108.326 63.8253 112.947 50.7497 118.599 53.3643C119.896 53.9547 120.771 55.1025 121.089 56.4739Z" fill="white"/>
<path d="M122.696 58.5437C122.696 58.5437 123.463 56.4 123.328 55.4203C123.193 54.4406 121.574 50.5413 119.394 49.5559C119.394 49.5559 117.785 48.8324 116.957 51.7244C117.01 51.7288 121.1 52.3861 122.696 58.5437Z" fill="white"/>
<path d="M125.774 33.3944C129.981 31.9625 134.387 35.3363 134.185 39.7863C134.16 40.7529 133.805 41.8002 133.384 43.0035C130.661 50.6377 125.9 54.2307 122.161 47.3059C119.41 42.13 121.069 35.0008 125.774 33.3944Z" fill="#F7D8C4"/>
<path d="M120.412 39.7357C121.231 38.9415 121.652 40.3751 121.652 40.3751C121.743 41.8894 121.505 43.4843 120.757 43.4232C120.008 43.362 119.598 40.4763 120.412 39.7357Z" fill="#F7D8C4"/>
<path d="M129.552 42.4746L129.163 47.2322L128.12 46.8241L129.552 42.4746Z" fill="#39B54A"/>
<path d="M122.456 45.0146C122.592 44.0033 122.617 43.0368 122.54 42.008C123.218 42.9245 123.843 43.8366 124.762 44.4498C125.426 44.8808 126.215 45.1068 126.972 45.061C127.778 45.0732 128.66 44.8223 129.387 45.1508C129.645 45.2796 129.846 45.4574 130.051 45.5818C130.822 46.0216 131.757 45.7752 132.545 45.3552C131.772 46.9065 130.79 48.3868 129.963 49.2878C129.963 49.2878 127.5 52.4229 124.709 50.365C124.709 50.365 123.376 49.5564 122.255 47.4737C122.227 47.1485 122.2 46.8234 122.226 46.5027C122.324 45.9725 122.416 45.4958 122.456 45.0146Z" fill="white"/>
<path d="M121.214 39.7998C122.681 40.9422 123.255 43.1417 124.909 43.9765C126.094 44.6116 127.568 44.3554 128.896 44.5716C129.586 44.6818 130.296 45.2241 130.986 45.3344C131.677 45.4447 132.407 45.0739 132.927 44.6321C132.798 44.8906 132.727 45.1001 132.599 45.3586C131.811 45.7785 130.88 45.9715 130.105 45.5852C129.846 45.4564 129.645 45.2786 129.44 45.1542C128.718 44.7723 127.837 45.0231 127.026 45.0644C126.273 45.0567 125.484 44.8308 124.816 44.4532C123.897 43.84 123.272 42.9278 122.594 42.0114C122.675 42.9867 122.699 44.0111 122.509 45.018C122.417 45.4948 122.319 46.025 122.334 46.5104C122.307 46.8312 122.335 47.1563 122.362 47.4814C122.313 47.4236 122.317 47.3701 122.268 47.3123C121.71 46.2442 121.931 45.5089 122.032 44.2794C122.128 43.1033 122.157 42.0833 121.862 41.0905C121.683 40.6453 121.5 40.2537 121.214 39.7998Z" fill="#F7F7F7"/>
<path d="M131.648 47.1113C131.648 47.1113 127.779 47.7098 123.837 45.235C123.837 45.235 127.16 48.0359 131.462 47.419L131.648 47.1113Z" fill="#F7F7F7"/>
<path d="M130.488 48.7913C130.488 48.7913 126.382 48.9937 124.544 47.1213C124.544 47.1213 126.022 49.4486 130.248 49.0945L130.488 48.7913Z" fill="#F7F7F7"/>
<path d="M121.096 41.2452C121.088 41.9979 120.764 42.671 120.989 43.8733C121.481 42.4605 122.312 41.5061 122.226 40.5842C122.186 40.4194 122.204 40.2056 122.319 40.1074C122.381 40.0049 122.488 40.0136 122.6 39.9689C123.107 39.6875 123.003 38.9795 122.833 38.4274C123.083 38.6631 123.528 38.4843 123.71 38.2301C123.893 37.9759 123.923 37.6017 124.003 37.2853C124.511 37.6498 125.02 38.0142 125.608 38.0623C126.196 38.1104 126.876 37.6817 126.925 37.0937C127.625 37.7429 128.499 38.2449 129.386 38.5865C130.014 38.7993 130.816 38.8648 131.234 38.3609C131.6 39.1442 132.305 39.74 133.089 40.0194C133.615 40.17 134.265 40.1155 134.469 39.5941C134.532 39.4915 134.54 39.3846 134.652 39.3399C134.763 39.2952 134.865 39.3574 134.972 39.3661C135.342 39.4502 135.64 39.0978 135.72 38.7815C135.75 38.4073 135.616 38.0734 135.424 37.7887C135.138 37.3348 134.795 36.93 134.447 36.5786C134.759 36.7118 135.186 36.7468 135.32 36.4348C135.386 36.2788 135.292 36.1096 135.248 35.9984C134.367 34.2582 132.695 32.9913 130.788 32.6202C130.783 32.0278 130.239 31.4451 129.615 31.1789C128.469 30.7085 127.057 30.8621 126.03 31.5853C126.212 31.3312 126.086 30.8904 125.77 30.8107C125.454 30.731 125.16 31.0299 125.187 31.355C125.009 30.9099 124.732 30.3491 124.242 30.4167C123.917 30.4439 123.681 30.6937 123.601 31.0101C123.522 31.3264 123.553 31.5981 123.527 31.9188C123.518 32.0258 123.509 32.1327 123.452 32.1817C123.394 32.2308 123.287 32.2221 123.176 32.2668C122.467 32.3704 121.804 32.5852 122.069 33.9522C122.069 33.9522 122.297 34.4552 121.495 34.3896C120.961 34.3459 120.632 35.0724 120.535 35.6026C120.438 36.1328 120.608 36.6849 120.778 37.2369C120.818 37.4017 120.912 37.5708 120.846 37.7268C120.766 38.0431 120.334 38.0616 120.054 38.2002C119.715 38.3878 119.569 38.8601 119.641 39.2965C119.771 39.6838 120.021 39.9195 120.377 40.1639C120.399 39.8966 121.117 40.332 121.096 41.2452Z" fill="#000C38"/>
</g>
<defs>
<clipPath id="clip0_249_6285">
<rect width="309" height="165" fill="white"/>
</clipPath>
</defs>
</svg>
