<svg width="304" height="165" viewBox="0 0 304 165" fill="none" xmlns="http://www.w3.org/2000/svg">
<path d="M96.5929 29.4795C96.4129 30.0094 96.2129 30.5193 96.0129 30.9993L96.5929 29.4795Z" fill="#C7634B"/>
<path d="M224.565 1.10323C225.885 1.34319 227.105 1.87312 228.175 2.68301C228.285 2.763 228.465 2.703 228.525 2.59302C229.115 1.58316 230.025 0.853262 231.144 0.503311C231.454 0.403325 231.324 -0.0866059 231.004 0.0133801C229.765 0.393327 228.725 1.20321 228.075 2.33306C228.195 2.30306 228.305 2.27306 228.425 2.24307C227.325 1.41318 226.055 0.863261 224.695 0.613296C224.385 0.553305 224.245 1.04324 224.565 1.10323Z" fill="#353659"/>
<path d="M198.399 30.4486C199.229 31.5085 199.789 32.7083 200.049 34.0281C200.079 34.1581 200.249 34.2281 200.368 34.1881C201.478 33.8181 202.648 33.8881 203.718 34.3781C204.018 34.518 204.238 34.0581 203.938 33.9181C202.758 33.3782 201.448 33.2982 200.209 33.7082C200.318 33.7581 200.418 33.8181 200.528 33.8681C200.259 32.5183 199.679 31.2585 198.819 30.1687C198.629 29.9187 198.199 30.1887 198.399 30.4486Z" fill="#353659"/>
<path d="M211.717 19.6209C216.113 19.6209 219.676 16.0576 219.676 11.662C219.676 7.26644 216.113 3.70312 211.717 3.70312C207.322 3.70312 203.758 7.26644 203.758 11.662C203.758 16.0576 207.322 19.6209 211.717 19.6209Z" fill="#FFF5EE"/>
<path opacity="0.3" d="M46 153.031C46 153.031 242.513 152.651 227.855 157.931C213.207 163.22 46 165 46 165V153.031Z" fill="#FF6A51"/>
<path d="M89.594 104.55C96.4131 104.59 103.232 104.62 110.051 104.66C110.431 104.66 110.431 104.07 110.051 104.07C103.232 104.03 96.4131 104 89.594 103.96C89.2141 103.96 89.2141 104.55 89.594 104.55Z" fill="white"/>
<path d="M105.952 107.027C110.871 107.467 115.811 107.437 120.72 106.947C121.1 106.907 121.1 106.317 120.72 106.357C115.811 106.857 110.871 106.887 105.952 106.437C105.572 106.397 105.582 106.997 105.952 107.027Z" fill="white"/>
<path d="M94.9236 109.748C96.0535 109.668 97.1833 109.578 98.3132 109.498C98.6931 109.468 98.6931 108.878 98.3132 108.908C97.1833 108.988 96.0535 109.078 94.9236 109.158C94.5437 109.188 94.5437 109.778 94.9236 109.748Z" fill="white"/>
<path d="M102.403 109.817C103.412 109.817 104.422 109.817 105.422 109.817C105.802 109.817 105.802 109.228 105.422 109.228C104.412 109.228 103.402 109.228 102.403 109.228C102.023 109.228 102.023 109.817 102.403 109.817Z" fill="white"/>
<path d="M91.3741 112.146C95.3435 112.426 99.313 112.536 103.292 112.476C103.672 112.466 103.672 111.876 103.292 111.886C99.313 111.946 95.3435 111.836 91.3741 111.556C90.9941 111.526 90.9941 112.126 91.3741 112.146Z" fill="white"/>
<path d="M226.265 104.328C234.324 104.088 242.393 104.018 250.452 104.148C250.832 104.158 250.832 103.558 250.452 103.558C242.383 103.438 234.324 103.498 226.265 103.738C225.885 103.748 225.885 104.338 226.265 104.328Z" fill="white"/>
<path d="M240.253 106.998C246.062 107.188 251.872 107.228 257.691 107.128C258.071 107.118 258.071 106.528 257.691 106.538C251.882 106.648 246.062 106.608 240.253 106.408C239.873 106.398 239.873 106.988 240.253 106.998Z" fill="white"/>
<path d="M237.054 109.448C239.313 109.478 241.563 109.608 243.813 109.848C244.193 109.888 244.193 109.298 243.813 109.258C241.563 109.028 239.313 108.889 237.054 108.859C236.674 108.849 236.674 109.448 237.054 109.448Z" fill="white"/>
<path d="M241.063 111.978C241.733 112.158 242.413 112.208 243.103 112.118C243.473 112.068 243.483 111.478 243.103 111.528C242.463 111.608 241.843 111.578 241.213 111.408C240.843 111.308 240.693 111.888 241.063 111.978Z" fill="white"/>
<path d="M236.444 114.598C237.884 114.798 239.333 114.868 240.793 114.798C241.173 114.778 241.173 114.188 240.793 114.208C239.393 114.278 237.993 114.228 236.604 114.028C236.234 113.968 236.074 114.538 236.444 114.598Z" fill="white"/>
<path d="M109.681 91.8809H108.081L104.742 128.346H106.342L109.681 91.8809Z" fill="white"/>
<path d="M141.607 91.8809H140.007L136.667 128.346H138.267L141.607 91.8809Z" fill="white"/>
<path d="M237.383 91.8809H235.784L232.444 128.346H234.044L237.383 91.8809Z" fill="white"/>
<path d="M205.458 91.8809H203.858L200.519 128.346H202.118L205.458 91.8809Z" fill="white"/>
<path d="M173.532 91.8809H171.933L168.593 128.346H170.193L173.532 91.8809Z" fill="white"/>
<path d="M147.208 146.035C152.469 136.212 150.594 124.961 143.02 120.904C135.446 116.848 125.041 121.523 119.78 131.346C114.519 141.169 116.394 152.42 123.969 156.477C131.543 160.533 141.948 155.858 147.208 146.035Z" fill="#353659"/>
<path d="M142.287 144.074C145.657 137.78 144.452 130.569 139.594 127.967C134.736 125.366 128.065 128.359 124.694 134.653C121.323 140.947 122.529 148.158 127.387 150.76C132.245 153.361 138.916 150.368 142.287 144.074Z" fill="#43466B"/>
<path d="M131.208 152.083C128.648 152.083 126.359 151.023 124.749 149.093C122.719 146.653 121.959 143.084 122.659 139.304C123.949 132.325 129.838 126.656 135.777 126.656C138.337 126.656 140.627 127.716 142.236 129.646C144.266 132.085 145.026 135.655 144.326 139.444C143.036 146.413 137.157 152.083 131.208 152.083ZM135.787 127.416C130.198 127.416 124.649 132.805 123.419 139.444C122.759 143.004 123.459 146.343 125.349 148.613C126.809 150.363 128.888 151.333 131.218 151.333C136.807 151.333 142.356 145.944 143.586 139.314C144.246 135.755 143.546 132.415 141.656 130.146C140.197 128.376 138.107 127.416 135.787 127.416Z" fill="#69709E"/>
<path d="M156.455 128.775L156.525 128.925C157.525 130.925 156.705 133.374 154.705 134.364L133.888 144.753C131.889 145.753 129.439 144.933 128.449 142.933L128.379 142.783C127.379 140.783 128.199 138.334 130.199 137.344L151.016 126.955C153.006 125.965 155.455 126.775 156.455 128.775Z" fill="#5F638B"/>
<path d="M173.932 101.37C175.032 100.2 149.976 102.28 149.256 99.8899C147.756 94.9005 146.796 86.5117 155.305 86.5117C167.813 86.5117 186.241 86.4517 185.871 96.2704C185.511 105.689 175.292 114.188 172.592 128.776C172.592 128.776 172.022 134.565 169.393 133.135C167.593 132.165 166.093 129.426 166.093 129.426C169.343 116.608 167.583 108.149 173.932 101.37Z" fill="#F6AE92"/>
<path d="M165.714 131.845C165.654 132.735 165.584 133.595 165.554 134.405C165.534 134.885 165.854 135.315 166.324 135.425C167.503 135.715 168.753 135.755 169.973 135.785C173.952 135.895 177.922 136.005 181.901 136.105C182.311 136.115 182.771 136.115 183.011 135.715C183.161 135.465 183.161 135.145 183.031 134.875C182.781 134.335 182.231 134.085 181.711 133.865C179.172 132.795 176.422 131.705 174.562 129.776C174.502 129.716 174.442 129.656 174.392 129.586C174.002 129.156 173.652 128.676 173.363 128.156C173.143 127.756 172.953 127.316 172.853 126.866C172.823 126.706 172.793 126.556 172.783 126.396C172.773 126.336 172.773 126.276 172.773 126.206C172.773 126.206 171.033 126.806 169.493 126.796C167.653 126.786 166.054 125.616 166.054 125.616C166.364 127.006 165.874 128.576 165.804 130.196C165.784 130.745 165.754 131.295 165.714 131.845Z" fill="#25283F"/>
<path d="M120.31 104.328C120.31 104.328 116.071 101.178 118.63 97.6688C121.19 94.1593 126.839 97.7088 140.637 99.0886C161.034 101.128 172.963 98.8786 183.691 99.4185C186.441 99.5585 184.061 113.867 177.892 113.487C168.613 112.937 120.31 104.328 120.31 104.328Z" fill="#43466B"/>
<path d="M215.757 114.988L215.487 115.588C214.297 116.068 213.107 116.538 211.917 117.018C211.657 117.118 211.367 117.268 211.337 117.548C211.317 117.718 211.417 117.878 211.507 118.028C212.827 120.138 213.977 122.357 214.927 124.667C216.217 123.797 217.516 122.927 218.806 122.047C217.626 119.768 216.607 117.408 215.757 114.988Z" fill="#39364B"/>
<path d="M215.686 66.0446C216.026 67.2745 216.366 68.5143 216.696 69.7441C216.856 70.344 217.006 70.954 216.956 71.5839C216.916 72.1638 216.706 72.7337 216.416 73.2936C215.806 74.4635 214.917 75.5733 214.107 76.6932C213.247 77.893 212.377 79.0928 211.517 80.2927C211.267 80.6326 211.897 80.9226 212.147 80.5826C213.077 79.2928 213.997 78.013 214.927 76.7232C215.726 75.6133 216.616 74.5035 217.196 73.3336C217.786 72.1438 217.816 71.024 217.526 69.8641C217.196 68.5343 216.806 67.2245 216.446 65.9047C216.366 65.5347 215.596 65.6847 215.686 66.0446Z" fill="#39364B"/>
<path d="M217.476 62.8042C218.086 63.4541 218.476 64.274 218.236 65.1139C217.996 65.9538 216.956 66.7637 215.846 66.7837C215.626 66.7936 215.426 66.7237 215.286 66.6137C214.507 65.9238 214.157 64.9539 214.357 63.994C214.457 63.5341 214.687 63.0442 215.156 62.7042C215.616 62.3543 216.346 62.1743 216.876 62.3743C217.126 62.4543 217.316 62.6242 217.476 62.8042Z" fill="#39364B"/>
<path d="M236.941 152.936C244.015 146.689 245.68 137.018 240.661 131.335C235.641 125.653 225.839 126.11 218.765 132.358C211.692 138.605 210.027 148.277 215.046 153.959C220.065 159.642 229.868 159.184 236.941 152.936Z" fill="#353659"/>
<path d="M181.221 143.224L163.674 144.453C162.874 144.513 162.094 144.343 161.404 143.993C160.764 143.673 160.204 143.194 159.784 142.584L156.025 137.124C155.365 136.165 154.555 135.315 153.635 134.625C152.255 133.565 150.625 132.855 148.876 132.545L109.781 125.766C108.101 125.476 107.191 123.636 107.981 122.126C110.411 117.487 115.92 108.908 124.689 105.769C135.108 102.039 173.272 109.558 181.211 112.278C182.371 112.678 178.701 116.677 178.332 117.847C176.952 122.146 172.462 132.635 178.961 133.365L179.361 135.105L180.961 142.134L181.221 143.224Z" fill="#FFBF61"/>
<path d="M233.681 149.781C238.213 145.778 239.279 139.581 236.062 135.939C232.845 132.297 226.564 132.589 222.032 136.592C217.5 140.595 216.434 146.792 219.65 150.435C222.867 154.077 229.149 153.784 233.681 149.781Z" fill="#43466B"/>
<path d="M225.975 153.131C223.266 153.131 220.936 152.081 219.406 150.191C217.836 148.241 217.306 145.642 217.916 142.872C219.136 137.303 224.675 132.773 230.275 132.773C232.984 132.773 235.314 133.823 236.844 135.713C238.414 137.663 238.943 140.262 238.334 143.032C237.104 148.591 231.564 153.131 225.975 153.131ZM230.275 133.523C225.025 133.523 219.816 137.783 218.666 143.022C218.106 145.562 218.586 147.931 220.006 149.701C221.386 151.411 223.506 152.361 225.975 152.361C231.225 152.361 236.434 148.101 237.584 142.862C238.144 140.322 237.664 137.953 236.244 136.183C234.864 134.473 232.744 133.523 230.275 133.523Z" fill="#69709E"/>
<path d="M231.666 146.667C234.298 144.342 234.962 140.793 233.149 138.74C231.336 136.687 227.732 136.908 225.1 139.233C222.467 141.558 221.803 145.107 223.617 147.159C225.43 149.212 229.034 148.992 231.666 146.667Z" fill="#69709E"/>
<path d="M220.686 114.018C219.756 114.838 218.556 115.268 217.506 115.928C217.226 116.108 216.836 116.348 216.366 116.638C216.316 116.668 216.266 116.698 216.216 116.728C215.287 117.298 214.087 118.008 212.877 118.648C212.627 118.778 212.367 118.908 212.117 119.038C209.197 120.487 206.578 121.227 208.018 118.138C208.557 116.998 208.947 115.798 209.257 114.568C210.247 110.659 208.737 96.2208 207.178 87.762C206.968 86.6421 206.758 85.6223 206.558 84.7424C206.488 84.4524 206.428 84.1825 206.358 83.9225C206.308 83.7226 206.258 83.5326 206.208 83.3626C206.088 82.9427 205.978 82.5927 205.868 82.3027C205.798 82.1328 205.748 81.9728 205.728 81.8228C205.668 81.4029 205.778 81.0229 206.008 80.693C206.178 80.433 206.418 80.213 206.698 80.0131C206.858 79.9031 207.028 79.7931 207.208 79.7031C207.758 79.4132 208.377 79.2132 208.937 79.1132C209.117 79.0832 209.287 79.0632 209.447 79.0432C209.577 79.0332 209.707 79.0332 209.817 79.0332C209.907 79.0332 209.997 79.0432 210.077 79.0532C210.307 79.0932 210.477 79.1732 210.547 79.3032C210.747 79.6831 211.077 81.4529 211.467 83.8825C211.467 83.9125 211.477 83.9325 211.477 83.9625C211.497 84.0725 211.507 84.1725 211.527 84.2825C211.617 84.8624 211.707 85.4723 211.807 86.1122C211.847 86.3722 211.887 86.6421 211.927 86.9121C212.007 87.492 212.097 88.0819 212.177 88.6819C212.997 94.471 213.837 101.21 214.147 103.64C214.217 104.24 214.267 104.58 214.267 104.58C214.307 104.68 214.337 104.77 214.377 104.86C216.146 109.019 220.846 109.239 221.646 110.719C222.226 111.809 221.616 113.198 220.686 114.018Z" fill="#FFBF61"/>
<path d="M137.357 36.8584C137.357 36.8584 133.928 45.8571 123.039 39.908C112.161 33.9488 107.191 48.2568 107.191 48.2568C107.191 48.2568 108.091 53.0261 110.241 54.9159C110.241 54.9159 113.001 53.6361 114.5 53.836C114.5 53.836 111.691 54.6659 111.001 56.3557C111.001 56.3557 113.101 60.975 118.08 62.4848C134.458 67.4641 140.467 53.6261 140.467 53.6261L147.046 46.0271L137.357 36.8584Z" fill="#262F36"/>
<path d="M108.352 51.6464C110.491 47.1671 115.081 44.0575 120.07 43.8775C122.81 43.7775 125.479 44.4574 128.159 44.9474C130.389 45.3573 132.748 45.7273 134.898 44.7974C137.078 43.8475 138.697 41.9278 139.537 39.7281C139.587 39.5981 139.387 39.4981 139.337 39.6281C138.457 41.9278 136.708 43.9475 134.348 44.7774C131.748 45.6873 128.819 44.8574 126.219 44.3475C123.779 43.8775 121.29 43.4376 118.8 43.7675C116.7 44.0475 114.691 44.8374 112.941 46.0272C110.881 47.417 109.231 49.3268 108.162 51.5665C108.082 51.6864 108.282 51.7864 108.352 51.6464Z" fill="#45515A"/>
<path d="M127.779 53.3662C127.779 53.3662 125.989 70.5538 127.979 74.5332C129.969 78.5127 136.198 76.9329 137.208 74.7732C138.207 72.6235 134.158 54.2261 134.158 54.2261L127.779 53.3662Z" fill="#8A80EE"/>
<path d="M144.757 50.6455C144.757 50.6455 163.524 56.1047 165.644 54.8249C167.763 53.5451 175.212 58.1845 171.883 62.4938C168.543 66.8032 157.145 64.9835 157.145 64.9835L144.757 50.6455Z" fill="#FFBF61"/>
<path d="M154.835 65.3135C154.405 70.1228 151.885 79.1815 151.885 79.1815C151.885 79.1815 133.348 84.6008 132.988 78.7716C132.988 78.7716 133.538 65.9834 130.418 58.2345C127.849 51.8654 138.597 50.0756 142.877 50.5256C151.885 51.4754 155.325 59.7243 154.835 65.3135Z" fill="#FFBF61"/>
<path d="M148.276 51.637C148.096 51.697 153.965 62.2455 154.025 67.4648L155.485 64.6052C155.485 64.6052 152.765 55.5465 150.585 52.2569C150.585 52.2569 148.966 51.397 148.276 51.637Z" fill="#8A80EE"/>
<path d="M140.368 49.3871C142.157 44.6277 142.607 42.0481 142.607 42.0381L144.247 43.0779L144.587 43.2979L147.517 45.1677C147.517 45.1677 147.487 45.3876 147.437 45.7276C147.367 46.2375 147.267 47.0274 147.197 47.8373C147.107 48.8871 147.057 49.977 147.177 50.5669C147.347 51.4168 148.856 53.7365 144.987 53.3165C140.957 52.8766 139.918 50.5869 140.368 49.3871Z" fill="#FFBEA4"/>
<path d="M144.357 43.4082C144.357 43.4082 144.477 43.5482 144.677 43.7582C145.316 44.4681 146.776 46.0578 147.466 46.5678C147.376 47.1777 147.256 48.1275 147.156 49.1074C146.376 48.5475 143.977 46.5378 144.347 43.5082C144.347 43.4782 144.347 43.4382 144.357 43.4082Z" fill="#FC9171"/>
<path d="M140.197 42.4469C134.878 31.1585 145.846 31.8184 149.066 34.5181C152.275 37.2177 155.535 46.0064 150.066 47.1763C144.596 48.3361 140.197 42.4469 140.197 42.4469Z" fill="#FFBEA4"/>
<path d="M147.226 47.2858C145.426 46.9059 143.776 46.086 142.377 44.8861C142.307 44.8261 142.407 44.7162 142.477 44.7762C143.856 45.956 145.476 46.7559 147.256 47.1358C147.346 47.1558 147.316 47.3058 147.226 47.2858Z" fill="#FC9171"/>
<path d="M149.726 40.3388C150.036 40.8188 149.876 40.8688 149.456 41.1687C149.376 41.2287 149.306 41.0887 149.386 41.0387C149.496 40.9587 149.726 40.7388 149.726 40.5988C149.726 40.4688 149.456 40.2189 149.376 40.1089C149.206 39.8889 149.016 39.6789 148.846 39.459C148.596 39.129 148.306 38.7791 148.226 38.3591C148.116 37.7692 148.546 37.3093 149.126 37.2593C149.226 37.2493 149.216 37.3992 149.126 37.4092C147.956 37.4992 148.426 38.6391 148.836 39.199C149.106 39.5889 149.456 39.9389 149.726 40.3388Z" fill="#C56146"/>
<path d="M145.266 38.6684C145.116 38.4484 145.256 37.9885 145.636 37.7385C146.016 37.4885 146.486 37.5385 146.636 37.7585C146.786 37.9785 146.506 38.2284 146.126 38.4784C145.746 38.7284 145.416 38.8883 145.266 38.6684Z" fill="#C56146"/>
<path d="M148.186 36.9488C148.076 36.7088 148.286 36.2789 148.706 36.0989C149.116 35.9089 149.576 36.0389 149.686 36.2789C149.796 36.5189 149.486 36.7188 149.066 36.9088C148.656 37.0888 148.296 37.1888 148.186 36.9488Z" fill="#C56146"/>
<path d="M146.736 40.0575C146.596 39.7875 146.646 39.4876 146.836 39.3876C147.026 39.2876 147.296 39.4376 147.436 39.7075C147.576 39.9775 147.526 40.2774 147.336 40.3774C147.136 40.4774 146.876 40.3374 146.736 40.0575Z" fill="#262F36"/>
<path d="M149.596 38.5985C149.456 38.3285 149.506 38.0286 149.696 37.9286C149.886 37.8286 150.156 37.9786 150.296 38.2485C150.436 38.5185 150.386 38.8185 150.196 38.9185C149.996 39.0084 149.726 38.8685 149.596 38.5985Z" fill="#262F36"/>
<path d="M150.965 42.0174C150.925 42.2474 150.855 42.5373 150.735 42.7373C150.565 43.0072 150.285 43.2572 149.826 43.3372C149.326 43.4272 148.926 43.3172 148.636 43.1372C148.456 43.0272 148.286 42.8373 148.156 42.6573C148.106 42.5873 148.096 42.5073 148.126 42.4373C148.156 42.3573 148.236 42.2973 148.326 42.2973C148.346 42.2973 148.376 42.2973 148.396 42.2973C148.406 42.2973 148.416 42.2973 148.426 42.2973C148.466 42.2973 148.496 42.2973 148.536 42.2973C148.546 42.2973 148.566 42.2973 148.586 42.2973C148.716 42.2973 148.846 42.2873 148.996 42.2673C149.046 42.2673 149.096 42.2573 149.146 42.2474C149.166 42.2474 149.196 42.2373 149.216 42.2373C149.246 42.2373 149.266 42.2274 149.296 42.2274C149.326 42.2274 149.346 42.2174 149.376 42.2174C149.406 42.2174 149.426 42.2074 149.456 42.2074C149.496 42.1974 149.526 42.1974 149.566 42.1874C149.596 42.1774 149.626 42.1774 149.656 42.1674C149.726 42.1474 149.796 42.1374 149.866 42.1174C149.886 42.1074 149.916 42.1074 149.946 42.0974C150.035 42.0674 150.135 42.0474 150.225 42.0074C150.265 41.9974 150.305 41.9774 150.345 41.9674C150.375 41.9574 150.415 41.9374 150.445 41.9274C150.455 41.9174 150.475 41.9174 150.485 41.9074C150.515 41.8974 150.545 41.8774 150.575 41.8674C150.615 41.8474 150.655 41.8274 150.695 41.8074C150.775 41.7674 150.855 41.7874 150.905 41.8374C150.945 41.8774 150.975 41.9474 150.965 42.0174Z" fill="#262F36"/>
<path d="M150.905 41.8379C150.555 42.1778 149.995 42.6078 149.386 42.6178C148.896 42.6178 148.456 42.5378 148.136 42.4378C148.166 42.3578 148.246 42.2978 148.336 42.2978C148.356 42.2978 148.386 42.2978 148.406 42.2978C148.416 42.2978 148.426 42.2978 148.436 42.2978C148.476 42.2978 148.506 42.2978 148.546 42.2978C148.556 42.2978 148.576 42.2978 148.596 42.2978C148.726 42.2978 148.856 42.2878 149.006 42.2678C149.056 42.2678 149.106 42.2578 149.156 42.2478C149.176 42.2478 149.206 42.2378 149.226 42.2378C149.256 42.2378 149.276 42.2278 149.306 42.2278C149.336 42.2278 149.356 42.2178 149.386 42.2178C149.416 42.2178 149.436 42.2078 149.466 42.2078C149.506 42.1978 149.536 42.1978 149.576 42.1878C149.606 42.1778 149.636 42.1778 149.666 42.1678C149.736 42.1478 149.806 42.1378 149.876 42.1178C149.895 42.1079 149.925 42.1078 149.955 42.0979C150.045 42.0679 150.145 42.0479 150.235 42.0079C150.275 41.9979 150.315 41.9779 150.355 41.9679C150.385 41.9579 150.425 41.9379 150.455 41.9279C150.465 41.9179 150.485 41.9179 150.495 41.9079C150.525 41.8979 150.555 41.8779 150.585 41.8679C150.625 41.8479 150.665 41.8279 150.705 41.8079C150.765 41.7779 150.845 41.7879 150.905 41.8379Z" fill="white"/>
<path d="M150.726 42.7377C150.556 43.0076 150.276 43.2576 149.816 43.3376C149.316 43.4276 148.916 43.3176 148.626 43.1376C148.826 42.9976 149.226 42.7777 149.726 42.7777C149.736 42.7777 150.376 42.3677 150.726 42.7377Z" fill="#E55A4D"/>
<path d="M131.848 59.2444C125.579 54.925 119.45 49.7257 115.431 44.7964C113.581 42.5267 107.882 30.8983 107.882 30.8983L113.291 26.209C113.291 26.209 119.61 35.9576 123.739 40.0371C127.199 43.4566 134.528 48.9958 140.367 49.3757L142.347 62.074C142.347 62.084 134.038 60.7542 131.848 59.2444Z" fill="#FFBF61"/>
<path d="M113.291 26.2092C113.181 25.9193 112.711 26.0193 112.291 26.2092C111.731 26.4592 110.991 26.9491 110.222 27.609C109.572 28.179 109.002 28.7789 108.592 29.3088C108.342 29.6288 108.122 29.9687 107.982 30.2787C107.972 30.2987 107.802 30.6686 107.882 30.8786C107.952 31.0586 108.172 31.0985 108.482 31.0186C108.702 30.9586 108.962 30.8486 109.262 30.6786C109.262 30.6786 109.272 30.6786 109.272 30.6686C109.762 30.3886 110.342 29.9787 110.942 29.4588C111.261 29.1788 111.561 28.8889 111.831 28.6089C112.221 28.209 112.551 27.819 112.791 27.4591C113.011 27.1991 113.421 26.5492 113.291 26.2092Z" fill="#FF964A"/>
<path d="M112.801 27.49C112.381 27.0001 112.361 26.6701 112.291 26.2202C112.241 25.9202 112.161 25.5703 111.911 25.1003C111.441 24.2104 109.671 21.1609 109.142 20.261C109.042 20.091 108.802 20.081 108.692 20.241C108.352 20.7409 108.402 21.6808 108.632 22.3407C108.712 22.5807 108.702 23.0606 108.572 23.0506C107.152 21.6108 104.482 19.0712 104.082 19.4611C103.722 19.8111 105.372 21.7808 106.562 23.0606L106.492 23.1106C104.882 21.6908 102.802 19.3911 102.382 19.8511C101.923 20.361 103.492 22.6807 105.032 24.0905L104.962 24.1405C104.952 24.1305 104.942 24.1205 104.932 24.1205C103.452 22.7906 101.633 21.2509 101.143 21.7108C100.903 21.9408 102.213 23.6205 103.502 25.1203C103.892 25.6602 103.722 25.7102 103.512 25.6702C103.412 25.6302 103.302 25.6002 103.212 25.5603C102.213 25.2303 101.793 25.3003 101.703 25.6302C101.643 25.8502 103.262 26.4301 104.942 27.9999C105.772 28.7798 106.912 29.2497 108.142 29.9696C108.482 30.1696 108.852 30.3996 109.252 30.7095C109.741 30.4296 110.331 30.0196 110.931 29.4897C111.251 29.2097 111.551 28.9198 111.821 28.6398C112.221 28.2399 112.551 27.8399 112.801 27.49Z" fill="#FFBEA4"/>
<path d="M137.877 48.9463C137.877 48.9463 139.637 52.7658 138.757 58.6849C137.667 66.0939 134.238 69.6434 131.848 70.1233C129.448 70.6033 131.468 72.843 131.468 72.843C131.468 72.843 140.267 70.5233 141.357 60.0247C142.116 52.6958 140.367 49.3862 140.367 49.3862L137.877 48.9463Z" fill="#8A80EE"/>
<path d="M148.636 34.1985C148.636 34.1985 142.807 31.9688 141.707 41.0875C141.707 41.0875 142.707 43.4472 141.907 44.847C141.107 46.2468 137.407 43.2372 137.407 43.2372C137.407 43.2372 133.198 38.8978 134.988 34.6984C136.787 30.489 145.876 28.5593 148.636 34.1985Z" fill="#262F36"/>
<path d="M141.367 43.2781C140.347 42.7782 139.837 41.7084 140.247 40.8985C140.657 40.0886 141.797 39.8386 142.827 40.3385C143.846 40.8385 144.356 41.9083 143.946 42.7182C143.536 43.5381 142.387 43.7881 141.367 43.2781Z" fill="#FFBEA4"/>
<path d="M141.027 43.2171C140.497 42.9171 140.227 42.3872 140.057 41.8173C140.027 41.7273 140.177 41.6873 140.207 41.7773C140.357 42.3072 140.597 42.8071 141.107 43.0871C141.737 43.4371 142.567 43.537 143.267 43.3971C143.357 43.3771 143.397 43.527 143.307 43.547C142.557 43.697 141.687 43.587 141.027 43.2171Z" fill="#C56146"/>
<path d="M142.377 41.4583C142.297 41.3983 142.377 41.2783 142.457 41.3283C142.597 41.4283 142.797 41.5783 142.817 41.7582C142.827 41.8482 142.777 41.9182 142.747 41.9982C142.667 42.1882 142.667 42.3582 142.777 42.5381C142.827 42.6181 142.697 42.6881 142.647 42.6081C142.567 42.4681 142.527 42.3182 142.547 42.1482C142.557 42.0682 142.597 41.9982 142.617 41.9282C142.657 41.6983 142.557 41.5883 142.377 41.4583Z" fill="#C56146"/>
<path d="M142.996 40.5672C142.856 40.4472 142.697 40.3572 142.517 40.3072C142.427 40.2773 142.467 40.1373 142.557 40.1673C142.757 40.2273 142.946 40.3273 143.096 40.4672C143.176 40.5372 143.066 40.6372 142.996 40.5672Z" fill="#C56146"/>
<path d="M202.058 81.3111L212.637 86.5104L211.417 84.0507L214.167 79.8113L208.147 77.0117C208.187 79.2014 206.488 81.0412 204.298 81.1811L202.058 81.3111Z" fill="#43466B"/>
<path d="M207.058 77.4121L208.648 68.2534C208.778 67.5235 209.467 67.0436 210.187 67.1736L211.057 67.3236C211.787 67.4535 212.267 68.1434 212.137 68.8633L210.547 78.0221C210.417 78.752 209.727 79.2319 209.008 79.1019L208.138 78.9519C207.418 78.8319 206.928 78.142 207.058 77.4121Z" fill="#43466B"/>
<path d="M208.907 81.0211L194.399 84.6106C193.539 84.8205 192.669 84.3006 192.46 83.4407L192.35 82.9908C192.14 82.1309 192.659 81.261 193.519 81.0511L208.027 77.4616C208.887 77.2516 209.757 77.7715 209.967 78.6314L210.077 79.0813C210.297 79.9412 209.767 80.8111 208.907 81.0211Z" fill="#43466B"/>
<path d="M203.308 71.2531C203.508 71.6031 203.798 71.903 204.138 72.133C204.678 72.5029 205.348 72.6829 205.998 72.6129C206.378 72.5729 206.738 72.4529 207.108 72.3929C207.688 72.293 208.288 72.323 208.857 72.4829C208.867 72.4929 208.877 72.5029 208.877 72.5229C209.147 72.9029 209.357 73.3128 209.637 73.6828C209.977 74.1327 210.447 74.5326 210.997 74.5726C211.057 74.5826 211.117 74.5826 211.177 74.5426C211.297 74.4727 211.277 74.2927 211.247 74.1527C211.057 73.3928 210.797 72.6329 210.457 71.913C210.477 71.933 210.497 71.953 210.507 71.973C210.857 72.4029 211.107 72.9229 211.447 73.3628C211.787 73.8128 212.747 72.7529 212.537 72.213C212.677 72.3929 213.717 70.9332 213.017 70.0433C213.207 70.1433 214.367 68.5635 212.857 67.8436C212.617 67.7236 212.357 67.6236 212.087 67.5536C211.257 67.3237 210.387 67.3237 209.527 67.3536C208.648 67.3836 207.768 67.4536 206.898 67.5436C206.488 67.5936 206.068 67.6436 205.668 67.7036C205.628 67.7136 205.598 67.7136 205.558 67.7236C204.158 67.9536 202.988 68.4535 203.008 70.4432C203.068 70.7332 203.168 71.0131 203.308 71.2531Z" fill="#FFBEA4"/>
<path d="M212.627 72.0924C212.197 71.5325 211.747 70.6726 211.017 70.4526C210.947 70.4326 210.897 70.5426 210.977 70.5626C211.667 70.7726 212.117 71.6325 212.537 72.1724C212.587 72.2324 212.677 72.1524 212.627 72.0924Z" fill="#FC9171"/>
<path d="M210.537 71.9837C210.327 71.4637 209.877 71.0738 209.327 70.9438C209.257 70.9238 209.207 71.0338 209.287 71.0538C209.807 71.1838 210.227 71.5337 210.427 72.0337C210.457 72.1037 210.567 72.0537 210.537 71.9837Z" fill="#FC9171"/>
<path d="M213.087 70.0253C212.747 69.7353 212.437 69.4054 212.167 69.0554C212.117 68.9954 212.027 69.0754 212.077 69.1354C212.357 69.4954 212.677 69.8253 213.027 70.1353C213.077 70.1753 213.147 70.0753 213.087 70.0253Z" fill="#FC9171"/>
<path d="M187.72 49.2168C187.72 49.2168 191.56 56.3458 196.339 59.8753C201.528 63.7148 208.208 67.2843 208.208 67.2843C208.208 67.2843 207.108 70.4638 204.378 72.6435C204.378 72.6435 195.999 68.7641 191.38 66.3144C186.771 63.8648 177.402 58.1256 177.402 58.1256L187.72 49.2168Z" fill="#8A80EE"/>
<path d="M181.341 132.595C181.321 133.365 181.291 134.105 181.281 134.805C181.281 135.215 181.571 135.575 181.971 135.665C183.001 135.875 184.071 135.875 185.121 135.865C188.54 135.835 191.96 135.805 195.389 135.775C195.739 135.775 196.139 135.755 196.329 135.405C196.459 135.185 196.439 134.905 196.319 134.685C196.089 134.225 195.609 134.025 195.149 133.855C192.94 133.015 190.07 132.525 188.88 130.556C187.94 129.016 191.07 121.637 191.07 121.587L186.031 127.486L185.681 127.466L181.011 127.226C181.321 128.406 181.381 129.796 181.361 131.196C181.371 131.646 181.361 132.125 181.341 132.595Z" fill="#736DDC"/>
<path d="M174.652 132.854C174.632 133.624 174.602 134.364 174.592 135.063C174.592 135.473 174.882 135.833 175.282 135.923C176.312 136.133 177.382 136.133 178.432 136.123C181.851 136.093 185.271 136.063 188.7 136.033C189.05 136.033 189.45 136.013 189.64 135.663C189.77 135.443 189.75 135.163 189.63 134.943C189.4 134.483 188.92 134.284 188.46 134.114C186.25 133.274 183.841 132.424 182.191 130.814C182.141 130.764 182.091 130.714 182.031 130.664C181.681 130.304 181.371 129.904 181.101 129.464C180.891 129.124 180.721 128.754 180.621 128.374C180.591 128.244 180.561 128.104 180.551 127.974C180.541 127.924 180.541 127.864 180.541 127.814L179.331 127.754L178.981 127.734L177.932 119.476C178.242 120.655 174.682 130.064 174.662 131.454C174.672 131.904 174.662 132.384 174.652 132.854Z" fill="#8A80EE"/>
<path d="M167.784 77.5723C167.784 77.5723 196.59 81.1218 199.149 91.3703C202.859 106.208 190.75 127.635 190.75 127.635C190.75 127.635 188.111 128.795 183.311 126.795L186.221 99.4092C186.221 99.4092 158.935 96.9296 156.055 89.3606C151.746 78.0222 167.784 77.5723 167.784 77.5723Z" fill="#F25647"/>
<path d="M162.274 79.2931C162.274 79.2931 193.43 83.4525 195.56 91.8813C199.169 106.209 183.511 129.796 183.511 129.796C183.511 129.796 179.252 130.846 174.453 128.856C174.453 128.856 178.722 111.499 183.371 100.73C184.491 98.1304 149.046 107.649 147.196 91.4214C145.137 73.4739 162.274 79.2931 162.274 79.2931Z" fill="#FF6A51"/>
<path d="M179.981 67.6245C189.28 56.536 191.7 50.9268 184.401 46.0475C176.932 41.0582 170.353 41.1682 160.734 50.5769C151.655 59.4456 147.336 75.3134 145.966 85.162C145.966 85.162 151.335 90.8412 160.654 85.392C171.073 79.2928 178.212 79.4128 178.212 79.4128C178.212 79.4128 171.672 77.5231 179.981 67.6245Z" fill="#8A80EE"/>
<path d="M179.321 26.1299C179.321 26.1299 175.122 26.7598 174.952 31.5791C174.792 35.8885 179.001 41.9677 182.001 39.668C183.911 38.1982 180.091 26.3698 179.321 26.1299Z" fill="#262F36"/>
<path d="M179.852 47.4075C176.402 45.0479 175.782 43.4381 176.792 42.5582C180.732 39.1187 183.021 34.7893 183.031 34.7793L184.011 36.5191L184.211 36.879L185.961 39.9986C185.961 39.9986 185.821 40.1785 185.611 40.4685C185.451 40.6885 185.251 40.9684 185.031 41.2884C184.821 41.5883 184.591 41.9283 184.371 42.2683C184.231 42.4782 184.091 42.6982 183.961 42.9082C183.841 43.0981 183.721 43.2881 183.621 43.4781C183.341 43.958 183.131 44.398 183.031 44.7279C182.981 44.8979 182.941 45.1278 182.891 45.3878C182.671 46.4377 182.511 49.2273 179.852 47.4075Z" fill="#FFBEA4"/>
<path d="M182.881 45.3983C182.201 44.3885 180.861 41.8788 182.081 39.2592C182.101 39.2292 182.111 39.1892 182.131 39.1592C182.131 39.1592 182.201 39.3292 182.331 39.6091C182.681 40.399 183.801 41.4889 184.321 42.3687C184.201 42.5587 183.721 43.3086 183.621 43.4986C183.341 43.9785 183.131 44.4184 183.031 44.7484C182.971 44.9084 182.931 45.1383 182.881 45.3983Z" fill="#FC9171"/>
<path d="M180.131 35.8181C180.131 35.8181 180.591 43.277 186.861 42.9671C193.02 42.6571 191.7 38.1378 190.58 31.6787C189.9 27.7792 179.092 24.0897 180.131 35.8181Z" fill="#FFBEA4"/>
<path d="M180.871 39.4173C181.711 40.7171 182.681 41.907 184.071 42.6569C184.161 42.7069 184.241 42.5769 184.151 42.5269C182.791 41.787 181.831 40.6272 181.011 39.3373C180.951 39.2673 180.821 39.3373 180.871 39.4173Z" fill="#C56146"/>
<path d="M185.781 38.6578C186.48 39.5577 187.57 40.0576 188.69 39.6177C188.77 39.5877 188.73 39.4577 188.64 39.4877C187.58 39.9076 186.56 39.4377 185.891 38.5778C185.841 38.5078 185.721 38.5878 185.781 38.6578Z" fill="#C56146"/>
<path d="M187.41 34.6491C187.24 35.129 187.34 35.599 187.49 36.0689C187.65 36.5988 188.34 37.7487 187.49 37.9786C187.4 37.9986 187.45 38.1286 187.54 38.1086C187.96 37.9986 188.21 38.0286 188.11 37.5287C187.94 36.6288 187.21 35.639 187.54 34.7091C187.56 34.6291 187.44 34.5691 187.41 34.6491Z" fill="#C56146"/>
<path d="M186.361 33.8499C186.441 34.2098 185.881 34.4198 185.171 34.5898C184.461 34.7598 183.861 34.8198 183.771 34.4598C183.691 34.0999 184.171 33.5599 184.881 33.39C185.601 33.22 186.281 33.4999 186.361 33.8499Z" fill="#C56146"/>
<path d="M190.49 33.6993C190.51 34.0592 189.87 34.1692 189.08 34.1992C188.291 34.2292 187.651 34.1792 187.641 33.8192C187.621 33.4593 188.241 33.0094 189.03 32.9694C189.82 32.9394 190.48 33.3393 190.49 33.6993Z" fill="#C56146"/>
<path d="M186.021 36.0487C186.061 36.3687 185.911 36.6486 185.681 36.6686C185.461 36.6986 185.251 36.4587 185.211 36.1387C185.171 35.8187 185.321 35.5388 185.551 35.5188C185.781 35.4988 185.991 35.7288 186.021 36.0487Z" fill="#262F36"/>
<path d="M189.03 35.509C189.07 35.829 188.92 36.1089 188.69 36.1289C188.47 36.1589 188.26 35.919 188.22 35.599C188.18 35.2791 188.33 34.9991 188.56 34.9791C188.78 34.9491 188.99 35.1891 189.03 35.509Z" fill="#262F36"/>
<path d="M178.962 35.4671C179.192 35.5171 179.402 35.6271 179.632 35.6671C180.321 35.7771 181.051 35.6371 181.631 35.2471C182.361 34.7672 182.841 33.8773 182.731 33.0174C182.671 32.5875 182.511 32.1676 182.331 31.7676C182.331 31.7576 182.321 31.7576 182.321 31.7476C182.031 31.1077 182.541 30.3678 183.241 30.4178C183.561 30.4378 183.881 30.4978 184.131 30.5778C185.111 30.8777 186.071 31.2277 187.011 31.6376C187.63 31.9076 188.28 32.0976 188.95 32.1876C192.27 32.6475 192.45 30.3378 190.94 29.048C189.64 27.9381 187.81 27.5482 186.101 27.6482C186.101 27.6482 188.41 27.5082 188.22 26.4784C188.03 25.4585 181.841 23.6587 179.322 26.1284C179.322 26.1284 176.922 26.8883 176.522 28.918C176.122 30.9477 177.042 35.0872 178.962 35.4671Z" fill="#262F36"/>
<path d="M178.871 25.4906C178.871 25.4906 179.031 24.6007 178.601 24.3408C178.171 24.0908 177.932 24.8307 178.871 25.4906Z" fill="#262F36"/>
<path d="M182.184 37.7613C182.686 37.0277 182.347 35.9222 181.427 35.2921C180.506 34.662 179.353 34.7458 178.851 35.4794C178.349 36.213 178.688 37.3184 179.608 37.9486C180.528 38.5787 181.681 38.4948 182.184 37.7613Z" fill="#FFBEA4"/>
<path d="M178.562 36.3265C178.642 36.9364 178.852 37.5063 179.372 37.8663C179.962 38.2762 180.732 38.4962 181.451 38.4562C181.531 38.4462 181.521 38.3262 181.441 38.3362C180.762 38.3762 180.082 38.1762 179.502 37.8063C178.972 37.4663 178.762 36.9264 178.682 36.3265C178.672 36.2365 178.552 36.2465 178.562 36.3265Z" fill="#C56146"/>
<path d="M180.851 36.3091C181.001 36.4591 181.091 36.579 181.011 36.809C180.991 36.869 180.941 36.929 180.921 36.999C180.871 37.159 180.881 37.3189 180.951 37.4789C180.981 37.5589 181.111 37.5189 181.081 37.4289C181.011 37.269 181.011 37.099 181.091 36.939C181.141 36.849 181.231 36.779 181.231 36.669C181.231 36.4891 181.061 36.3091 180.941 36.1991C180.881 36.1491 180.791 36.2491 180.851 36.3091Z" fill="#C56146"/>
<path d="M181.142 35.2077C181.312 35.2777 181.451 35.3877 181.571 35.5276C181.631 35.5976 181.741 35.5176 181.681 35.4477C181.551 35.2877 181.391 35.1677 181.202 35.0777C181.122 35.0477 181.062 35.1777 181.142 35.2077Z" fill="#C56146"/>
<path d="M183.041 101.61C183.611 99.8203 184.981 99.0904 186.691 98.6104C186.761 98.5905 186.731 98.4805 186.661 98.5005C184.911 98.9904 183.501 99.7603 182.931 101.58C182.911 101.65 183.021 101.68 183.041 101.61Z" fill="white"/>
<path d="M174.772 126.826C177.952 128.146 181.491 128.446 184.881 127.946C184.951 127.936 184.921 127.826 184.851 127.836C181.481 128.336 177.962 128.026 174.802 126.716C174.742 126.686 174.702 126.796 174.772 126.826Z" fill="white"/>
<path d="M194.549 77.5229C194.609 77.9628 194.779 78.3728 195.029 78.7427C195.419 79.3226 196.019 79.7726 196.689 79.9626C197.079 80.0725 197.489 80.1025 197.889 80.1825C198.509 80.3125 199.099 80.5925 199.599 80.9724C199.599 80.9924 199.609 81.0024 199.609 81.0224C199.729 81.5023 199.779 82.0023 199.909 82.4822C200.069 83.0621 200.379 83.652 200.908 83.922C200.968 83.952 201.028 83.982 201.098 83.972C201.248 83.952 201.298 83.762 201.318 83.612C201.428 82.7722 201.478 81.9123 201.428 81.0524C201.438 81.0824 201.448 81.1124 201.458 81.1324C201.638 81.7023 201.678 82.3222 201.838 82.9021C201.998 83.4821 202.308 84.072 202.838 84.3419C202.898 84.3719 202.958 84.4019 203.028 84.3919C203.178 84.3719 203.228 84.182 203.248 84.032C203.328 83.4321 203.378 82.8122 203.378 82.1922C203.448 82.4322 203.518 82.6722 203.608 82.9021C203.818 83.4621 204.188 84.022 204.748 84.232C204.808 84.252 204.878 84.272 204.938 84.262C205.088 84.222 205.118 84.032 205.128 83.882C205.168 82.6622 205.078 81.3824 204.738 80.2125C204.888 80.3925 205.028 80.5725 205.148 80.7724C205.428 81.2524 205.598 81.7923 205.858 82.2822C206.118 82.7722 206.518 83.2321 207.058 83.3621C207.118 83.3821 207.178 83.3821 207.238 83.3621C207.368 83.3121 207.378 83.1321 207.368 82.9921C207.188 81.1724 206.678 79.2627 205.468 77.9428C205.268 77.7229 205.058 77.5229 204.818 77.3429C204.088 76.773 203.218 76.433 202.348 76.1231C201.458 75.8031 200.559 75.5132 199.639 75.2632C199.209 75.1532 198.779 75.0232 198.349 74.9333C198.309 74.9233 198.269 74.9133 198.229 74.9033C196.739 74.5733 195.369 74.6033 194.589 76.603C194.509 76.903 194.499 77.2229 194.549 77.5229Z" fill="#FFBEA4"/>
<path d="M203.528 82.0924C203.318 81.3625 203.218 80.3127 202.578 79.8027C202.518 79.7527 202.428 79.8427 202.488 79.8927C203.098 80.3827 203.198 81.4225 203.398 82.1224C203.428 82.2124 203.548 82.1724 203.528 82.0924Z" fill="#FC9171"/>
<path d="M201.479 81.1519C201.479 80.542 201.189 79.982 200.689 79.6221C200.619 79.5721 200.539 79.6721 200.599 79.7121C201.069 80.052 201.349 80.572 201.349 81.1519C201.349 81.2419 201.479 81.2319 201.479 81.1519Z" fill="#FC9171"/>
<path d="M204.818 80.2115C204.598 79.7816 204.418 79.3317 204.288 78.8717C204.268 78.7917 204.138 78.8317 204.168 78.9117C204.308 79.3917 204.488 79.8416 204.718 80.2815C204.738 80.3515 204.848 80.2815 204.818 80.2115Z" fill="#FC9171"/>
<path d="M172.612 47.7969C172.612 47.7969 182.981 63.5147 187.9 66.8442C192.61 70.0238 201.128 75.313 201.128 75.313C201.128 75.313 199.269 79.0625 195.369 79.5724C195.369 79.5724 183.371 75.763 178.952 72.9734C174.532 70.1837 164.664 59.4652 164.664 59.4652L172.612 47.7969Z" fill="#8A80EE"/>
<path d="M177.702 72.1047C174.842 69.465 172.202 66.5954 169.803 63.5259C169.743 63.4459 169.623 63.5559 169.693 63.6358C172.092 66.7054 174.732 69.575 177.592 72.2147C177.662 72.2846 177.772 72.1747 177.702 72.1047Z" fill="white"/>
<path d="M185.461 64.5641C184.351 63.2243 183.221 61.9445 182.281 60.4747C181.311 58.9649 180.431 57.3851 179.521 55.8353C179.471 55.7454 179.331 55.8254 179.381 55.9153C180.331 57.5251 181.241 59.1749 182.271 60.7347C183.201 62.1445 184.291 63.3743 185.361 64.6741C185.411 64.7541 185.521 64.6441 185.461 64.5641Z" fill="white"/>
<path d="M183.891 62.8549C184.681 61.875 185.261 60.7152 185.74 59.5653C186.21 58.4355 186.67 57.1957 186.65 55.9558C186.65 55.8559 186.49 55.8559 186.49 55.9558C186.5 57.1757 186.05 58.3955 185.59 59.5054C185.111 60.6352 184.551 61.785 183.771 62.7449C183.711 62.8149 183.831 62.9349 183.891 62.8549Z" fill="white"/>
<path d="M176.422 73.2134C174.382 74.3532 172.192 75.1531 169.903 75.6031C169.803 75.6231 169.843 75.773 169.943 75.753C172.242 75.3031 174.452 74.4932 176.502 73.3434C176.592 73.2934 176.512 73.1634 176.422 73.2134Z" fill="white"/>
<path d="M176.162 73.4129C174.962 74.5828 173.662 75.6326 172.263 76.5425C172.173 76.6025 172.253 76.7325 172.343 76.6825C173.762 75.7626 175.072 74.7127 176.282 73.5329C176.352 73.4529 176.232 73.3429 176.162 73.4129Z" fill="white"/>
<path d="M149.926 80.5817C156.645 84.1712 163.814 78.362 170.703 78.702C170.803 78.712 170.803 78.552 170.703 78.542C167.033 78.352 163.594 79.7418 160.124 80.7017C156.835 81.6016 153.145 82.1115 150.016 80.4417C149.916 80.3918 149.836 80.5317 149.926 80.5817Z" fill="white"/>
<path d="M170.423 78.3842C164.104 77.1144 157.484 82.5337 151.405 79.2641C151.315 79.2141 151.235 79.3541 151.325 79.4041C157.444 82.6836 164.044 77.2644 170.383 78.5342C170.483 78.5542 170.523 78.4042 170.423 78.3842Z" fill="white"/>
<path d="M167.503 101.37C168.603 100.2 143.547 102.28 142.827 99.8899C141.327 94.9005 140.367 86.5117 148.876 86.5117C161.384 86.5117 179.812 86.4517 179.442 96.2704C179.082 105.689 169.123 114.118 166.423 128.706C166.423 128.706 165.594 134.565 162.964 133.135C161.164 132.165 159.664 129.426 159.664 129.426C162.914 116.608 161.154 108.149 167.503 101.37Z" fill="#FFBEA4"/>
<path d="M132.988 78.7715C132.988 78.7715 119.85 95.9391 131.378 100.388C131.378 100.388 134.108 100.908 138.387 101.008C147.066 101.218 149.366 101.058 149.366 101.058C149.366 101.058 151.875 100.059 151.655 97.5589C150.695 86.5004 156.455 86.5604 156.455 86.5604C156.455 86.5604 146.876 85.7405 146.946 80.3813C146.956 79.4814 132.988 78.7715 132.988 78.7715Z" fill="#FF6A51"/>
<path d="M132.918 72.2939C132.918 72.2939 131.748 77.1632 130.988 78.0531C130.219 78.943 130.679 80.1228 131.758 80.5228C132.838 80.9227 145.736 82.7125 146.966 80.9227C148.206 79.133 148.126 74.1137 148.986 71.424C149.846 68.7344 137.018 73.2238 132.918 72.2939Z" fill="#FFBF61"/>
<path d="M166.733 102.511C168.563 100.241 171.253 98.7913 174.172 98.5513C174.372 98.5313 174.372 98.2114 174.172 98.2314C171.183 98.4813 168.393 99.9511 166.513 102.291C166.383 102.441 166.603 102.671 166.733 102.511Z" fill="#FC9171"/>
<path d="M156.615 86.5616C150.466 85.3918 144.167 83.572 137.858 84.1719C137.758 84.1819 137.758 84.3419 137.858 84.3319C144.157 83.732 150.446 85.5417 156.575 86.7116C156.675 86.7316 156.725 86.5816 156.615 86.5616Z" fill="#EB4738"/>
<path d="M148.076 84.8725C144.456 85.1225 140.927 85.9024 137.647 87.4722C137.557 87.5122 137.637 87.6521 137.727 87.6121C140.977 86.0524 144.486 85.2825 148.076 85.0325C148.176 85.0225 148.176 84.8625 148.076 84.8725Z" fill="#EB4738"/>
<path d="M149.706 33.0586C149.836 31.9688 149.486 30.8989 148.746 30.089C147.966 29.2392 146.836 28.9892 145.716 29.0292C144.776 29.0692 144.027 28.9792 143.167 28.5492C142.567 28.2493 141.987 27.9093 141.337 27.7294C139.877 27.3394 138.347 27.7094 136.918 28.0593C136.818 28.0793 136.858 28.2393 136.958 28.2093C138.357 27.8693 139.857 27.4994 141.287 27.8793C142.447 28.1893 143.387 29.0592 144.596 29.1892C145.276 29.2591 145.966 29.1192 146.646 29.2192C147.256 29.3091 147.876 29.5191 148.346 29.9191C149.246 30.6989 149.676 31.8788 149.546 33.0586C149.536 33.1586 149.696 33.1586 149.706 33.0586Z" fill="#262F36"/>
<path d="M149.705 32.4289C148.995 29.5393 144.746 28.9394 141.127 30.2192C137.517 31.4991 133.648 32.129 134.457 36.7283C135.267 41.3177 142.086 37.2683 142.086 37.2683H142.586C142.586 37.2683 143.386 35.2385 145.516 35.4485C147.636 35.6585 150.415 35.3185 149.705 32.4289Z" fill="#262F36"/>
<path d="M194.449 140.855L180.971 142.134L161.404 143.984C160.764 143.664 160.204 143.184 159.784 142.574L156.025 137.115C155.365 136.155 154.555 135.305 153.635 134.615C153.685 134.605 153.725 134.605 153.775 134.605H171.243L175.252 136.655L194.449 140.855Z" fill="#FF964A"/>
<path d="M179.831 135.854H155.525C154.545 135.854 153.955 136.944 154.485 137.764L158.184 143.473C159.014 144.763 160.494 145.473 162.024 145.333L196.199 142.094L179.831 135.854Z" fill="#FFBF61"/>
<path d="M143.447 35.9574C143.917 35.1575 143.547 34.2276 142.807 33.7377C141.697 32.9978 140.167 33.1678 138.917 32.8678C137.457 32.5278 136.258 31.7979 134.938 31.118C133.708 30.4881 132.528 30.5681 131.208 30.8181C131.108 30.8381 131.148 30.9881 131.248 30.9681C131.908 30.8381 132.578 30.7081 133.258 30.7581C133.928 30.8081 134.528 31.068 135.118 31.388C136.018 31.8779 136.878 32.3779 137.847 32.7178C138.867 33.0678 139.887 33.1978 140.937 33.3177C142.117 33.4577 144.256 34.2676 143.317 35.8674C143.257 35.9674 143.397 36.0474 143.447 35.9574Z" fill="#45515A"/>
<path d="M134.328 29.7395C135.428 29.7995 135.907 30.9894 136.757 31.5093C137.597 32.0192 138.647 32.2292 139.597 32.3992C140.657 32.5991 141.737 32.7091 142.767 32.9991C143.396 33.1691 144.096 33.489 144.316 34.1689C144.546 34.9188 143.956 35.5087 143.386 35.8687C143.296 35.9287 143.376 36.0586 143.466 36.0087C144.156 35.5587 144.806 34.8088 144.396 33.9489C143.886 32.8691 142.377 32.7191 141.347 32.5391C139.927 32.2892 138.377 32.1592 137.067 31.4993C136.057 30.9894 135.538 29.6495 134.308 29.5796C134.228 29.5696 134.228 29.7295 134.328 29.7395Z" fill="#45515A"/>
<path d="M141.927 39.3186C141.577 38.3687 140.407 38.0787 139.497 38.2287C138.828 38.3387 138.298 38.7287 137.718 39.0586C136.938 39.4985 136.098 39.6885 135.198 39.6385C135.098 39.6285 135.098 39.7885 135.198 39.7985C136.278 39.8485 137.218 39.5485 138.138 38.9886C138.688 38.6587 139.237 38.3587 139.897 38.3487C140.627 38.3287 141.497 38.6087 141.767 39.3586C141.807 39.4586 141.957 39.4186 141.927 39.3186Z" fill="#45515A"/>
<path d="M141.987 39.1579C141.687 38.078 140.717 37.4681 139.617 37.5681C137.927 37.7181 136.148 38.6879 134.658 37.3681C134.578 37.2981 134.468 37.4081 134.548 37.4781C135.438 38.268 136.608 38.328 137.727 38.128C138.517 37.988 139.307 37.6581 140.117 37.7381C140.957 37.8181 141.597 38.408 141.827 39.2079C141.867 39.3078 142.017 39.2579 141.987 39.1579Z" fill="#45515A"/>
<path d="M135.058 40.1871C137.077 40.6471 136.608 43.3267 138.307 44.1466C139.387 44.6665 141.207 45.0764 142.047 43.9466C142.107 43.8666 141.967 43.7866 141.907 43.8666C141.337 44.6265 140.277 44.5665 139.447 44.3765C138.427 44.1366 137.677 43.7166 137.267 42.7168C136.818 41.6169 136.408 40.3271 135.108 40.0371C134.998 40.0072 134.958 40.1571 135.058 40.1871Z" fill="#45515A"/>
<path d="M250.052 127.647C250.052 128.287 249.682 128.907 249.002 129.277C248.692 129.437 248.342 129.537 247.982 129.567L245.802 129.707L236.714 130.277L229.265 130.747C226.885 130.897 224.645 131.777 222.966 133.226L218.766 136.836C216.916 138.426 214.417 139.315 211.797 139.315C210.567 139.315 209.577 138.466 209.567 137.406C209.557 132.176 210.887 117.948 225.575 117.119C239.313 116.339 246.832 123.238 249.622 126.547C249.912 126.867 250.052 127.257 250.052 127.647Z" fill="#FFBF61"/>
<path d="M167.913 144.153C167.913 144.153 187.81 142.704 196.199 142.094C198.499 141.924 200.588 140.674 201.828 138.724L217.346 114.978L208.017 118.117L195.429 133.155C193.999 134.865 191.889 135.845 189.66 135.845H160.894L167.913 144.153Z" fill="#FFBF61"/>
<path d="M159.125 134.406C159.105 134.886 159.325 135.606 159.794 135.716C160.974 136.006 162.324 135.756 163.544 135.786C167.523 135.896 171.493 136.006 175.472 136.106C175.882 136.116 176.342 136.116 176.582 135.716C176.732 135.466 176.732 135.146 176.602 134.876C176.352 134.336 175.802 134.086 175.282 133.867C172.743 132.797 169.993 131.707 168.133 129.777C168.073 129.717 168.013 129.657 167.963 129.587C166.603 127.977 167.163 125.558 167.163 125.488C167.163 125.488 165.944 126.328 163.514 125.948C161.694 125.658 160.644 124.968 160.644 124.968C159.724 128.167 159.165 133.597 159.125 134.406Z" fill="#2A2C4B"/>
<path d="M245.802 129.695L236.714 130.264C232.174 127.305 221.656 120.016 226.905 119.046C232.764 117.966 243.423 127.485 245.802 129.695Z" fill="#FFD298"/>
<path d="M154.285 117.727C154.285 117.727 152.286 110.368 146.277 108.248C138.458 105.489 129.609 108.078 128.759 108.678C127.909 109.278 138.728 107.848 143.637 110.298C149.556 113.218 154.475 123.296 154.285 117.727Z" fill="#FFD298"/>
<path d="M126.639 109.939C122.949 110.389 114.851 114.029 112.681 122.318C111.541 126.677 141.977 129.367 142.447 128.717C142.917 128.057 131.148 123.647 129.009 119.378C126.269 113.899 128.659 109.689 126.639 109.939Z" fill="#FF964A"/>
<path d="M220.616 87.111C220.496 87.3909 220.346 87.6609 220.146 87.8909C219.076 89.1107 217.136 88.8407 215.576 88.3808C213.856 87.8809 212.127 87.251 210.747 86.1111C209.657 85.2112 208.797 83.9414 208.567 82.5616C208.507 82.2017 208.487 81.8317 208.517 81.4518C208.657 79.862 209.677 78.4822 210.857 77.4023C213.017 75.4326 216.676 73.8828 219.596 73.6729C221.485 75.4026 221.235 79.442 221.265 82.0017C221.285 83.4915 221.235 85.0113 220.835 86.4511C220.775 86.671 220.705 86.891 220.616 87.111Z" fill="#FFBF61"/>
<path d="M220.616 87.1125C220.606 87.1325 219.916 88.4723 219.606 88.5923C218.566 88.9622 216.636 88.7922 215.516 88.4223C213.817 87.8524 212.127 87.2825 210.737 86.1226C208.677 84.3929 208.537 82.5331 208.517 82.2432C208.787 82.3731 214.936 86.4226 218.206 85.1228C219.636 84.5528 220.306 85.6627 220.616 87.1125Z" fill="#FF964A"/>
<path d="M219.726 73.6632C219.206 73.6732 218.786 74.0931 218.726 74.613C218.416 77.4326 217.286 88.941 219.546 88.5911C221.966 88.2311 222.885 73.6232 219.726 73.6632Z" fill="white"/>
<path d="M211.337 88.7603L213.397 105.298L212.067 123.075C212.067 123.075 217.676 114.887 222.525 113.497C227.375 112.107 216.096 86.8406 211.337 88.7603Z" fill="#FFBF61"/>
<path d="M192.65 76.1127C193.779 77.4425 194.889 78.7724 196.029 80.0922C196.579 80.7321 197.139 81.372 197.829 81.8519C198.459 82.3019 199.179 82.6018 199.919 82.8218C201.478 83.2817 203.128 83.4317 204.728 83.6717C206.448 83.9316 208.177 84.1816 209.897 84.4416C210.387 84.5116 210.367 85.3014 209.867 85.2215C208.017 84.9415 206.168 84.6715 204.318 84.3916C202.718 84.1516 201.078 84.0016 199.529 83.5217C197.959 83.0318 196.759 82.1219 195.689 80.9021C194.459 79.5023 193.279 78.0625 192.08 76.6427C191.75 76.2627 192.32 75.7228 192.65 76.1127Z" fill="#39364B"/>
<path d="M188.27 74.9437C188.64 76.0135 189.3 77.0434 190.31 77.5433C191.33 78.0432 192.73 77.8233 193.339 76.8634C193.459 76.6734 193.509 76.4534 193.449 76.2335C193.139 74.9837 192.3 73.8638 191.17 73.2339C190.63 72.9239 189.99 72.734 189.38 72.844C188.77 72.9539 188.19 73.4339 188.12 74.0538C188.09 74.3437 188.17 74.6537 188.27 74.9437Z" fill="#39364B"/>
<path d="M133.028 82.8712C133.678 84.241 131.788 85.2609 131.558 86.5307C131.458 87.0506 131.518 87.5805 131.508 88.1005C131.508 88.9204 131.298 89.4503 130.739 90.0402C130.389 90.4101 129.909 91.24 130.589 91.6C130.909 91.77 131.028 91.48 131.298 91.44C132.028 91.34 131.418 92.1399 131.308 92.3799C131.188 92.6398 131.058 92.9198 130.969 93.1998C130.739 93.9397 131.328 94.1796 131.968 93.9696C132.438 93.8097 132.918 93.6897 133.268 94.1696C133.388 94.3296 133.478 94.5096 133.598 94.6595C133.858 94.9895 134.198 95.1295 134.608 95.1495C135.148 95.1795 135.698 95.0295 136.248 95.0295C136.968 95.0295 137.668 95.1695 138.357 95.3594C139.587 95.6994 140.767 96.1893 142.017 96.4593C145.097 97.1092 148.226 95.7194 151.286 96.5093C151.386 96.5393 151.426 96.3793 151.326 96.3593C148.786 95.7094 146.236 96.5493 143.677 96.4893C141.147 96.4393 138.937 94.9695 136.428 94.8795C135.898 94.8595 135.388 94.9695 134.858 94.9895C134.468 95.0095 134.078 94.9495 133.788 94.6595C133.598 94.4596 133.488 94.1896 133.308 93.9796C133.118 93.7597 132.918 93.6197 132.618 93.6197C132.178 93.6197 130.669 94.4296 131.148 93.1498C131.278 92.7898 131.448 92.4299 131.618 92.0899C131.678 91.9699 131.938 91.62 131.938 91.49C131.948 91.31 131.778 91.22 131.628 91.19C131.528 91.18 131.438 91.2 131.338 91.24C130.989 91.37 131.228 91.46 130.749 91.27C130.639 91.22 130.529 91.18 130.419 91.13C130.369 90.9101 130.409 90.7101 130.539 90.5301C130.809 90.1002 131.248 89.8502 131.458 89.3703C131.978 88.1805 131.308 86.8306 132.068 85.6808C132.638 84.8109 133.708 83.951 133.158 82.8112C133.118 82.7012 132.988 82.7812 133.028 82.8712Z" fill="white"/>
<path d="M129.928 157.931H66.2471C66.2471 157.931 66.887 153.032 71.8863 153.032C76.8856 153.032 76.9656 156.492 80.875 150.352C84.7845 144.213 92.6134 146.163 95.8129 151.502C99.0125 156.842 103.622 146.543 107.191 152.242C110.761 157.931 129.928 157.931 129.928 157.931Z" fill="white"/>
<path d="M224.645 157.93H185.881C185.881 157.93 186.271 154.951 189.31 154.951C192.35 154.951 192.4 157.06 194.78 153.321C197.159 149.581 201.929 150.771 203.878 154.021C205.828 157.27 208.628 151.001 210.807 154.471C212.987 157.94 224.645 157.93 224.645 157.93Z" fill="white"/>
<path d="M208.027 118.127C208.017 118.137 208.017 118.137 208.027 118.127C208.567 116.988 208.947 115.788 209.267 114.558C210.257 110.648 208.747 96.2105 207.188 87.7516C208.977 87.4617 211.097 104.809 211.807 110.119C212.497 115.348 208.147 118.057 208.027 118.127Z" fill="#FF964A"/>
<path d="M220.616 110.578C220.466 110.178 215.786 94.1902 213.787 93.3103C211.787 92.4404 215.746 112.078 216.136 112.788C216.526 113.497 220.936 111.458 220.616 110.578Z" fill="#FFD298"/>
<path d="M211.787 78.7115C211.787 78.7115 217.076 74.5921 217.516 75.302C217.956 76.0119 217.656 77.3917 217.246 77.8016C216.836 78.2016 211.027 79.2914 211.787 78.7115Z" fill="#FFD298"/>
<path d="M203.308 42.7973H245.462C245.462 42.7973 243.513 39.3978 240.273 40.3476C237.034 41.2975 240.233 34.0585 231.624 32.1588C223.016 30.259 222.436 40.6176 217.696 38.4479C212.967 36.2882 213.237 39.2578 209.987 40.2076C206.748 41.1575 203.308 38.9978 203.308 42.7973Z" fill="white"/>
<path opacity="0.4" d="M189.9 15.0023H149.576C149.576 15.0023 150.106 10.9328 154.255 10.9328C158.405 10.9328 158.475 13.8024 161.724 8.70315C164.974 3.60386 171.473 5.22363 174.132 9.65301C176.792 14.0824 179.182 7.15336 184.411 9.09309C188.141 10.4829 189.9 15.0023 189.9 15.0023Z" fill="white"/>
</svg>
