<svg width="33" height="32" viewBox="0 0 33 32" fill="none" xmlns="http://www.w3.org/2000/svg">
<g id="Money Icon 1" clip-path="url(#clip0_73_759)">
<path id="Vector" d="M15.9834 14.5333C12.9568 13.7467 11.9834 12.9333 11.9834 11.6667C11.9834 10.2133 13.3301 9.2 15.5834 9.2C17.9568 9.2 18.8368 10.3333 18.9168 12H21.8634C21.7701 9.70667 20.3701 7.6 17.5834 6.92V4H13.5834V6.88C10.9968 7.44 8.91676 9.12 8.91676 11.6933C8.91676 14.7733 11.4634 16.3067 15.1834 17.2C18.5168 18 19.1834 19.1733 19.1834 20.4133C19.1834 21.3333 18.5301 22.8 15.5834 22.8C12.8368 22.8 11.7568 21.5733 11.6101 20H8.67676C8.83676 22.92 11.0234 24.56 13.5834 25.1067V28H17.5834V25.1333C20.1834 24.64 22.2501 23.1333 22.2501 20.4C22.2501 16.6133 19.0101 15.32 15.9834 14.5333Z" fill="#006837"/>
</g>
<defs>
<clipPath id="clip0_73_759">
<rect width="32" height="32" fill="white" transform="translate(0.25)"/>
</clipPath>
</defs>
</svg>
