<svg width="33" height="32" viewBox="0 0 33 32" fill="none" xmlns="http://www.w3.org/2000/svg">
<g id="Emoji Emotions Icon 1" clip-path="url(#clip0_213_3180)">
<g id="Group">
<path id="Vector" d="M16.4866 2.66699C9.12663 2.66699 3.16663 8.64033 3.16663 16.0003C3.16663 23.3603 9.12663 29.3337 16.4866 29.3337C23.86 29.3337 29.8333 23.3603 29.8333 16.0003C29.8333 8.64033 23.86 2.66699 16.4866 2.66699ZM11.8333 10.667C12.94 10.667 13.8333 11.5603 13.8333 12.667C13.8333 13.7737 12.94 14.667 11.8333 14.667C10.7266 14.667 9.83329 13.7737 9.83329 12.667C9.83329 11.5603 10.7266 10.667 11.8333 10.667ZM16.5 24.0003C13.46 24.0003 10.8733 21.787 9.83329 18.667H23.1666C22.1266 21.787 19.54 24.0003 16.5 24.0003ZM21.1666 14.667C20.06 14.667 19.1666 13.7737 19.1666 12.667C19.1666 11.5603 20.06 10.667 21.1666 10.667C22.2733 10.667 23.1666 11.5603 23.1666 12.667C23.1666 13.7737 22.2733 14.667 21.1666 14.667Z" fill="#006837"/>
</g>
</g>
<defs>
<clipPath id="clip0_213_3180">
<rect width="32" height="32" fill="white" transform="translate(0.5)"/>
</clipPath>
</defs>
</svg>
