<svg width="33" height="32" viewBox="0 0 33 32" fill="none" xmlns="http://www.w3.org/2000/svg">
<g id="Material Icon E8EAED (2) 1" clip-path="url(#clip0_213_2207)">
<path id="Vector" d="M16.25 2.66699C8.88996 2.66699 2.91663 8.64033 2.91663 16.0003C2.91663 23.3603 8.88996 29.3337 16.25 29.3337C23.61 29.3337 29.5833 23.3603 29.5833 16.0003C29.5833 8.64033 23.61 2.66699 16.25 2.66699ZM14.9166 26.5737C9.64996 25.9203 5.58329 21.4403 5.58329 16.0003C5.58329 15.1737 5.68996 14.387 5.86329 13.6137L12.25 20.0003V21.3337C12.25 22.8003 13.45 24.0003 14.9166 24.0003V26.5737ZM24.1166 23.187C23.77 22.107 22.7833 21.3337 21.5833 21.3337H20.25V17.3337C20.25 16.6003 19.65 16.0003 18.9166 16.0003H10.9166V13.3337H13.5833C14.3166 13.3337 14.9166 12.7337 14.9166 12.0003V9.33366H17.5833C19.05 9.33366 20.25 8.13366 20.25 6.66699V6.12033C24.1566 7.70699 26.9166 11.5337 26.9166 16.0003C26.9166 18.7737 25.85 21.2937 24.1166 23.187Z" fill="#249748"/>
</g>
<defs>
<clipPath id="clip0_213_2207">
<rect width="32" height="32" fill="white" transform="translate(0.25)"/>
</clipPath>
</defs>
</svg>
