<svg width="33" height="32" viewBox="0 0 33 32" fill="none" xmlns="http://www.w3.org/2000/svg">
<g id="Rocket Launch Icon 1" clip-path="url(#clip0_73_769)">
<g id="Group">
<g id="Group_2">
<path id="Vector" d="M13.0032 8.46665C10.2832 11.52 8.4165 15.9066 8.24317 16.32L3.4165 14.2533L8.8165 8.85331C9.44317 8.22665 10.3498 7.94665 11.2298 8.11998L13.0032 8.46665ZM15.6432 22.6666C15.6432 22.6666 20.6298 20.6 23.4965 17.7333C30.6965 10.5333 29.4965 4.90665 29.1098 3.63998C27.8432 3.23998 22.2165 2.05331 15.0165 9.25331C12.1498 12.12 10.0832 17.1066 10.0832 17.1066L15.6432 22.6666ZM24.2832 19.7466C21.2298 22.4666 16.8432 24.3333 16.4298 24.5066L18.4965 29.3333L23.8965 23.9333C24.5232 23.3066 24.8032 22.4 24.6298 21.52L24.2832 19.7466ZM12.7498 24C12.7498 25.1066 12.2965 26.1066 11.5765 26.8266C10.0032 28.4 3.4165 29.3333 3.4165 29.3333C3.4165 29.3333 4.34984 22.7466 5.92317 21.1733C6.64317 20.4533 7.64317 20 8.74984 20C10.9632 20 12.7498 21.7866 12.7498 24ZM18.0832 12C18.0832 10.5333 19.2832 9.33331 20.7498 9.33331C22.2165 9.33331 23.4165 10.5333 23.4165 12C23.4165 13.4666 22.2165 14.6666 20.7498 14.6666C19.2832 14.6666 18.0832 13.4666 18.0832 12Z" fill="#006837"/>
</g>
</g>
</g>
<defs>
<clipPath id="clip0_73_769">
<rect width="32" height="32" fill="white" transform="translate(0.75)"/>
</clipPath>
</defs>
</svg>
