<svg width="33" height="32" viewBox="0 0 33 32" fill="none" xmlns="http://www.w3.org/2000/svg">
<g id="Picture as PDF Icon 1" clip-path="url(#clip0_321_2100)">
<path id="Vector" d="M26.9165 2.66699H10.9165C9.44984 2.66699 8.24984 3.86699 8.24984 5.33366V21.3337C8.24984 22.8003 9.44984 24.0003 10.9165 24.0003H26.9165C28.3832 24.0003 29.5832 22.8003 29.5832 21.3337V5.33366C29.5832 3.86699 28.3832 2.66699 26.9165 2.66699ZM15.5832 12.667C15.5832 13.7737 14.6898 14.667 13.5832 14.667H12.2498V17.3337H10.2498V9.33366H13.5832C14.6898 9.33366 15.5832 10.227 15.5832 11.3337V12.667ZM22.2498 15.3337C22.2498 16.4403 21.3565 17.3337 20.2498 17.3337H16.9165V9.33366H20.2498C21.3565 9.33366 22.2498 10.227 22.2498 11.3337V15.3337ZM27.5832 11.3337H25.5832V12.667H27.5832V14.667H25.5832V17.3337H23.5832V9.33366H27.5832V11.3337ZM12.2498 12.667H13.5832V11.3337H12.2498V12.667ZM5.58317 8.00033H2.9165V26.667C2.9165 28.1337 4.1165 29.3337 5.58317 29.3337H24.2498V26.667H5.58317V8.00033ZM18.9165 15.3337H20.2498V11.3337H18.9165V15.3337Z" fill="#006837"/>
</g>
<defs>
<clipPath id="clip0_321_2100">
<rect width="32" height="32" fill="white" transform="translate(0.25)"/>
</clipPath>
</defs>
</svg>
