<svg width="33" height="32" viewBox="0 0 33 32" fill="none" xmlns="http://www.w3.org/2000/svg">
<g id="Savings Icon 1" clip-path="url(#clip0_322_2062)">
<g id="Group">
<path id="Vector" d="M27.1066 10.0003L24.0799 6.97366C24.1733 6.41366 24.3199 5.89366 24.5066 5.44033C24.6132 5.20033 24.6666 4.94699 24.6666 4.66699C24.6666 3.56033 23.7733 2.66699 22.6666 2.66699C20.4799 2.66699 18.5466 3.72033 17.3333 5.33366H10.6666C6.61325 5.33366 3.33325 8.61366 3.33325 12.667C3.33325 16.7203 6.66658 28.0003 6.66658 28.0003H13.9999V25.3337H16.6666V28.0003H23.9999L26.2399 20.547L29.9999 19.2937V10.0003H27.1066ZM17.9999 12.0003H11.3333V9.33366H17.9999V12.0003ZM21.9999 14.667C21.2666 14.667 20.6666 14.067 20.6666 13.3337C20.6666 12.6003 21.2666 12.0003 21.9999 12.0003C22.7333 12.0003 23.3333 12.6003 23.3333 13.3337C23.3333 14.067 22.7333 14.667 21.9999 14.667Z" fill="#006837"/>
</g>
</g>
<defs>
<clipPath id="clip0_322_2062">
<rect width="32" height="32" fill="white" transform="translate(0.666626)"/>
</clipPath>
</defs>
</svg>
