<svg width="33" height="32" viewBox="0 0 33 32" fill="none" xmlns="http://www.w3.org/2000/svg">
<g id="Book Icon 1" clip-path="url(#clip0_321_2057)">
<g id="Group">
<path id="Vector" d="M23.1665 1.33301H9.83317C8.3665 1.33301 7.1665 2.53301 7.1665 3.99967V27.9997C7.1665 29.4663 8.3665 30.6663 9.83317 30.6663H23.1665C24.6332 30.6663 25.8332 29.4663 25.8332 27.9997V3.99967C25.8332 2.53301 24.6332 1.33301 23.1665 1.33301ZM9.83317 23.9997V7.99967H23.1665V23.9997H9.83317ZM21.8332 14.6663V12.1863C21.8332 11.3463 21.2332 10.6663 20.4998 10.6663H12.4998C11.7665 10.6663 11.1665 11.3463 11.1665 12.1863V14.7997C11.8998 14.7997 12.4998 15.3997 12.4998 16.133C12.4998 16.8663 11.8998 17.4663 11.1665 17.4663V19.813C11.1665 20.653 11.7665 21.333 12.4998 21.333H20.4998C21.2332 21.333 21.8332 20.653 21.8332 19.813V17.333C21.0998 17.333 20.4998 16.733 20.4998 15.9997C20.4998 15.2663 21.0998 14.6663 21.8332 14.6663ZM17.1665 19.333H15.8332V17.9997H17.1665V19.333ZM17.1665 16.6663H15.8332V15.333H17.1665V16.6663ZM17.1665 13.9997H15.8332V12.6663H17.1665V13.9997Z" fill="#006837"/>
</g>
</g>
<defs>
<clipPath id="clip0_321_2057">
<rect width="32" height="32" fill="white" transform="translate(0.5)"/>
</clipPath>
</defs>
</svg>
