<svg width="33" height="32" viewBox="0 0 33 32" fill="none" xmlns="http://www.w3.org/2000/svg">
<g id="iPhone Icon 24dp 1" clip-path="url(#clip0_87_644)">
<path id="Vector" d="M21.4165 1.33301H10.7498C8.90984 1.33301 7.4165 2.82634 7.4165 4.66634V27.333C7.4165 29.173 8.90984 30.6663 10.7498 30.6663H21.4165C23.2565 30.6663 24.7498 29.173 24.7498 27.333V4.66634C24.7498 2.82634 23.2565 1.33301 21.4165 1.33301ZM16.0832 29.333C14.9765 29.333 14.0832 28.4397 14.0832 27.333C14.0832 26.2263 14.9765 25.333 16.0832 25.333C17.1898 25.333 18.0832 26.2263 18.0832 27.333C18.0832 28.4397 17.1898 29.333 16.0832 29.333ZM22.0832 23.9997H10.0832V5.33301H22.0832V23.9997Z" fill="#006837"/>
</g>
<defs>
<clipPath id="clip0_87_644">
<rect width="32" height="32" fill="white" transform="translate(0.75)"/>
</clipPath>
</defs>
</svg>
