<svg width="33" height="32" viewBox="0 0 33 32" fill="none" xmlns="http://www.w3.org/2000/svg">
<g id="iPhone Icon 24dp 1" clip-path="url(#clip0_73_753)">
<path id="Vector" d="M21.4165 1.33325H10.7498C8.90984 1.33325 7.4165 2.82659 7.4165 4.66659V27.3333C7.4165 29.1733 8.90984 30.6666 10.7498 30.6666H21.4165C23.2565 30.6666 24.7498 29.1733 24.7498 27.3333V4.66659C24.7498 2.82659 23.2565 1.33325 21.4165 1.33325ZM16.0832 29.3333C14.9765 29.3333 14.0832 28.4399 14.0832 27.3333C14.0832 26.2266 14.9765 25.3333 16.0832 25.3333C17.1898 25.3333 18.0832 26.2266 18.0832 27.3333C18.0832 28.4399 17.1898 29.3333 16.0832 29.3333ZM22.0832 23.9999H10.0832V5.33325H22.0832V23.9999Z" fill="#006837"/>
</g>
<defs>
<clipPath id="clip0_73_753">
<rect width="32" height="32" fill="white" transform="translate(0.75)"/>
</clipPath>
</defs>
</svg>
