<svg width="33" height="32" viewBox="0 0 33 32" fill="none" xmlns="http://www.w3.org/2000/svg">
<g id="Material Symbols Schedule Icon 1" clip-path="url(#clip0_371_2174)">
<path id="Vector" d="M16.6533 2.66699C9.29325 2.66699 3.33325 8.64033 3.33325 16.0003C3.33325 23.3603 9.29325 29.3337 16.6533 29.3337C24.0266 29.3337 29.9999 23.3603 29.9999 16.0003C29.9999 8.64033 24.0266 2.66699 16.6533 2.66699ZM16.6666 26.667C10.7733 26.667 5.99992 21.8937 5.99992 16.0003C5.99992 10.107 10.7733 5.33366 16.6666 5.33366C22.5599 5.33366 27.3333 10.107 27.3333 16.0003C27.3333 21.8937 22.5599 26.667 16.6666 26.667Z" fill="#006837"/>
<path id="Vector_2" d="M17.3333 9.33301H15.3333V17.333L22.3333 21.533L23.3333 19.893L17.3333 16.333V9.33301Z" fill="#006837"/>
</g>
<defs>
<clipPath id="clip0_371_2174">
<rect width="32" height="32" fill="white" transform="translate(0.666626)"/>
</clipPath>
</defs>
</svg>
