<svg width="491" height="165" viewBox="0 0 491 165" fill="none" xmlns="http://www.w3.org/2000/svg">
<g clip-path="url(#clip0_239_1286)">
<path d="M355 146.727H137V146.836H355V146.727Z" fill="#EBEBEB"/>
<path d="M240.332 127.281H156.145C155.485 127.28 154.853 127.017 154.387 126.551C153.921 126.084 153.66 125.451 153.66 124.792V6.44823C153.665 5.7925 153.93 5.16551 154.395 4.70345C154.86 4.2414 155.489 3.98159 156.145 3.98047H240.332C240.992 3.98047 241.626 4.24276 242.092 4.70964C242.559 5.17653 242.822 5.80976 242.822 6.47003V124.792C242.822 125.452 242.559 126.085 242.092 126.552C241.626 127.019 240.992 127.281 240.332 127.281ZM156.145 4.06767C155.514 4.06882 154.91 4.32014 154.464 4.76646C154.019 5.21277 153.769 5.81762 153.769 6.44823V124.792C153.769 125.422 154.019 126.027 154.464 126.473C154.91 126.92 155.514 127.171 156.145 127.172H240.332C240.963 127.171 241.568 126.92 242.014 126.474C242.46 126.028 242.712 125.423 242.713 124.792V6.44823C242.712 5.81722 242.46 5.21238 242.014 4.76619C241.568 4.32 240.963 4.06882 240.332 4.06767H156.145Z" fill="#EBEBEB"/>
<path d="M334.643 127.281H250.451C249.792 127.28 249.159 127.017 248.692 126.551C248.226 126.084 247.963 125.452 247.962 124.792V6.44823C247.969 5.7921 248.234 5.16511 248.7 4.70318C249.166 4.24124 249.795 3.98158 250.451 3.98047H334.643C335.298 3.98274 335.926 4.24305 336.39 4.70498C336.855 5.16691 337.118 5.79325 337.124 6.44823V124.792C337.124 125.45 336.863 126.082 336.398 126.549C335.933 127.016 335.302 127.279 334.643 127.281ZM250.451 4.06767C249.82 4.06882 249.216 4.32 248.769 4.76619C248.323 5.21238 248.072 5.81722 248.071 6.44823V124.792C248.072 125.423 248.323 126.028 248.769 126.474C249.216 126.92 249.82 127.171 250.451 127.172H334.643C335.274 127.171 335.879 126.92 336.325 126.474C336.771 126.028 337.022 125.423 337.024 124.792V6.44823C337.022 5.81722 336.771 5.21238 336.325 4.76619C335.879 4.32 335.274 4.06882 334.643 4.06767H250.451Z" fill="#EBEBEB"/>
<path d="M333.156 150.878H319.392V150.987H333.156V150.878Z" fill="#EBEBEB"/>
<path d="M283.208 149.696H268.642V149.805H283.208V149.696Z" fill="#EBEBEB"/>
<path d="M337.133 154.928H309.913V155.037H337.133V154.928Z" fill="#EBEBEB"/>
<path d="M168.257 154.195H159.873V154.304H168.257V154.195Z" fill="#EBEBEB"/>
<path d="M185.348 154.195H172.142V154.304H185.348V154.195Z" fill="#EBEBEB"/>
<path d="M243.445 152.355H219.657V152.464H243.445V152.355Z" fill="#EBEBEB"/>
<path d="M300.343 146.727V70.9678H281.351V146.727H300.343Z" fill="#F0F0F0"/>
<path d="M299.301 89.8852V73.1777H282.393V89.8852H299.301Z" fill="#F5F5F5"/>
<path d="M294.592 72.96H287.106C287.106 73.4225 287.29 73.8661 287.617 74.1931C287.944 74.5202 288.387 74.704 288.85 74.704H292.87C293.329 74.6982 293.767 74.5119 294.089 74.1855C294.411 73.8591 294.592 73.4187 294.592 72.96Z" fill="#E6E6E6"/>
<path d="M299.301 108.097V91.3896H282.393V108.097H299.301Z" fill="#F5F5F5"/>
<path d="M299.301 126.304V109.597H282.393V126.304H299.301Z" fill="#F5F5F5"/>
<path d="M299.301 144.512V127.805H282.393V144.512H299.301Z" fill="#F5F5F5"/>
<path d="M294.592 91.1807H287.106C287.106 91.6432 287.29 92.0868 287.617 92.4139C287.944 92.7409 288.387 92.9247 288.85 92.9247H292.87C293.329 92.9189 293.767 92.7327 294.089 92.4062C294.411 92.0798 294.592 91.6394 294.592 91.1807Z" fill="#E6E6E6"/>
<path d="M294.592 109.375H287.106C287.106 109.838 287.29 110.281 287.617 110.608C287.944 110.935 288.387 111.119 288.85 111.119H292.87C293.329 111.113 293.767 110.927 294.089 110.601C294.411 110.274 294.592 109.834 294.592 109.375Z" fill="#E6E6E6"/>
<path d="M294.592 127.582H287.106C287.106 128.045 287.29 128.488 287.617 128.815C287.944 129.142 288.387 129.326 288.85 129.326H292.87C293.329 129.32 293.767 129.134 294.089 128.808C294.411 128.481 294.592 128.041 294.592 127.582Z" fill="#E6E6E6"/>
<path d="M309.83 146.727V70.9678H300.343V146.727H309.83Z" fill="#F5F5F5"/>
<path d="M321.049 146.731V70.9717H302.056V146.731H321.049Z" fill="#F0F0F0"/>
<path d="M320.007 89.8853V73.1777H303.099V89.8853H320.007Z" fill="#F5F5F5"/>
<path d="M315.298 72.96H307.812C307.812 73.4225 307.996 73.8661 308.323 74.1931C308.65 74.5202 309.093 74.704 309.556 74.704H313.58C314.038 74.6971 314.475 74.5103 314.796 74.184C315.118 73.8577 315.298 73.418 315.298 72.96Z" fill="#E6E6E6"/>
<path d="M320.007 108.093V91.3857H303.099V108.093H320.007Z" fill="#F5F5F5"/>
<path d="M320.011 126.304V109.597H303.103V126.304H320.011Z" fill="#F5F5F5"/>
<path d="M320.007 144.512V127.805H303.099V144.512H320.007Z" fill="#F5F5F5"/>
<path d="M315.298 91.1807H307.812C307.812 91.6432 307.996 92.0868 308.323 92.4139C308.65 92.7409 309.093 92.9247 309.556 92.9247H313.58C314.038 92.9178 314.475 92.731 314.796 92.4047C315.118 92.0784 315.298 91.6387 315.298 91.1807Z" fill="#E6E6E6"/>
<path d="M315.298 109.375H307.812C307.812 109.838 307.996 110.281 308.323 110.608C308.65 110.935 309.093 111.119 309.556 111.119H313.58C314.038 111.112 314.475 110.925 314.796 110.599C315.118 110.273 315.298 109.833 315.298 109.375Z" fill="#E6E6E6"/>
<path d="M315.298 127.582H307.812C307.812 128.045 307.996 128.488 308.323 128.815C308.65 129.142 309.093 129.326 309.556 129.326H313.58C314.038 129.319 314.475 129.132 314.796 128.806C315.118 128.48 315.298 128.04 315.298 127.582Z" fill="#E6E6E6"/>
<path d="M330.536 146.727V70.9678H321.049V146.727H330.536Z" fill="#F5F5F5"/>
<path d="M318.664 55.8379H313.118V70.9671H318.664V55.8379Z" fill="#E0E0E0"/>
<path d="M295.704 70.9677H316.859L320.007 46.4863H298.852L295.704 70.9677Z" fill="#E6E6E6"/>
<path d="M293.289 70.9677H316.318L319.47 46.4863H296.436L293.289 70.9677Z" fill="#F0F0F0"/>
<path d="M314.639 69.0402L317.29 48.4131H298.119L295.464 69.0402H314.639Z" fill="white"/>
<path d="M309.745 62.3162C312.002 60.1996 312.323 56.8748 310.462 54.89C308.601 52.9052 305.262 53.012 303.005 55.1285C300.748 57.2451 300.427 60.57 302.288 62.5548C304.15 64.5396 307.488 64.4328 309.745 62.3162Z" fill="#E6E6E6"/>
<path d="M215.654 146.727H274.82V21.6861L215.654 21.6861V146.727Z" fill="#E6E6E6"/>
<path d="M214.338 146.727H273.503V21.6861L214.338 21.6861V146.727Z" fill="#F5F5F5"/>
<path d="M271.144 144.076V24.3369L216.701 24.3369V144.076H271.144Z" fill="white"/>
<path d="M217.695 144.076V24.3369H216.701V144.076H217.695Z" fill="#E6E6E6"/>
<path d="M215.319 63.1719L272.531 63.1719V59.6141L215.319 59.6141V63.1719Z" fill="#F5F5F5"/>
<path d="M195.908 143.339H204.153V89.8722H195.908V143.339Z" fill="#F0F0F0"/>
<path d="M161.904 146.727H202.57V143.339H161.904V146.727Z" fill="#F0F0F0"/>
<path d="M195.908 89.8721H160.322V143.339H195.908V89.8721Z" fill="#F5F5F5"/>
<path d="M192.664 96.4521H163.561V113.988H192.664V96.4521Z" fill="#F0F0F0"/>
<path d="M192.664 119.224H163.561V136.76H192.664V119.224Z" fill="#F0F0F0"/>
<path d="M169.465 108.31V102.137C169.465 101.593 169.023 101.151 168.479 101.151H168.043C167.499 101.151 167.058 101.593 167.058 102.137V108.31C167.058 108.855 167.499 109.296 168.043 109.296H168.479C169.023 109.296 169.465 108.855 169.465 108.31Z" fill="#F5F5F5"/>
<path d="M169.46 131.079V124.905C169.46 124.361 169.019 123.92 168.475 123.92H168.039C167.495 123.92 167.053 124.361 167.053 124.905V131.079C167.053 131.623 167.495 132.064 168.039 132.064H168.475C169.019 132.064 169.46 131.623 169.46 131.079Z" fill="#F5F5F5"/>
<path d="M195.742 59.6709C194.822 60.133 192.315 59.636 193.148 61.332C193.631 62.2182 194.205 63.0512 194.862 63.8172C195.795 64.9683 195.62 66.2196 194.517 66.673C194.277 66.7583 194.065 66.9094 193.907 67.109C193.401 67.8372 194.6 68.8138 195.189 69.5419C195.777 70.27 196.013 70.9851 195.581 71.5301C195.149 72.0751 194.099 71.905 193.305 72.0882C191.391 72.5242 193.357 75.1402 193.157 76.5136C193.017 77.4379 192.263 77.6995 191.243 77.8216C190.41 77.9262 189.298 78.0003 189.25 78.8549C189.211 79.5961 190.175 80.4332 190.427 81.2093C190.548 81.5437 190.594 81.9006 190.561 82.2547C190.529 82.6088 190.419 82.9515 190.24 83.2585C190.071 83.5166 189.851 83.7369 189.593 83.9058C189.334 84.0746 189.044 84.1882 188.74 84.2395C187.794 84.44 186.364 84.2395 186.294 85.299C186.264 85.7742 186.595 86.1971 186.364 86.6375C186.238 86.8207 186.074 86.9742 185.883 87.0872C185.691 87.2002 185.478 87.2699 185.256 87.2915C184.35 87.4295 183.428 87.4133 182.527 87.2435C181.415 87.0386 179.776 86.0576 180.378 85.1158C180.482 84.9794 180.614 84.8654 180.764 84.7808C180.913 84.6962 181.079 84.6425 181.25 84.6232C181.516 84.5665 182.292 84.6493 182.392 84.4706C182.492 84.2918 182.226 83.5986 182.213 83.3457C182.187 82.651 182.296 81.9579 182.536 81.3052C182.844 80.453 183.333 79.6778 183.97 79.0336C184.236 78.7677 184.655 78.5715 184.707 78.1834C184.705 77.7466 184.551 77.3241 184.271 76.9888C183.835 76.3871 183.185 75.816 182.963 75.175C182.588 74.1722 183.495 73.867 184.332 73.6229C185.095 73.418 186.076 73.152 185.836 72.2277C185.649 71.5606 184.812 71.0156 184.559 70.366C184.219 69.494 185.043 69.4634 185.631 69.1495C186.399 68.744 186.591 68.0246 186.316 67.109C185.88 65.6048 183.094 63.4772 184.507 62.4962C184.868 62.2476 185.2 62.1648 185.418 61.7898C185.636 61.4149 185.679 60.8917 185.98 60.5298C186.455 59.9543 187.441 59.8584 187.955 59.3221C189.01 58.2277 186.73 56.2701 188.827 55.8341C189.271 55.7799 189.691 55.6066 190.044 55.3327C190.236 55.1539 190.388 54.295 190.602 54.234C191.557 53.968 193.279 55.821 193.82 56.3922C194.412 57.068 196.85 59.1172 195.742 59.6709Z" fill="#E0E0E0"/>
<path d="M179.37 85.216C179.937 84.1652 182.422 83.1188 180.77 81.9024C179.883 81.2994 178.929 80.8019 177.927 80.42C176.488 79.8183 175.978 78.4318 176.706 77.2851C176.877 77.044 176.984 76.7634 177.016 76.4698C177.077 75.4103 175.494 75.1618 174.587 74.7781C173.681 74.3945 173.083 73.8102 173.179 72.9818C173.279 72.0706 174.282 71.6738 174.884 70.998C176.34 69.363 173.192 67.885 172.647 66.3721C172.277 65.3387 172.8 64.6281 173.633 63.8389C174.308 63.2111 175.25 62.4437 174.832 61.5412C174.474 60.7564 173.175 60.4991 172.538 59.8582C172.243 59.571 172.008 59.2273 171.847 58.8476C171.687 58.4679 171.605 58.0599 171.605 57.6477C171.616 56.9245 171.901 56.2324 172.403 55.7119C173.131 54.9183 174.505 54.2425 173.995 53.0959C173.763 52.5901 173.245 52.3634 173.214 51.7879C173.224 51.5305 173.285 51.2777 173.393 51.0441C173.502 50.8106 173.656 50.601 173.846 50.4275C174.551 49.7371 175.375 49.1802 176.279 48.7838C177.369 48.3042 179.331 48.2868 179.331 49.6253C179.297 50.0214 179.121 50.3918 178.834 50.6673C178.629 50.8897 177.901 51.2821 177.91 51.5393C177.919 51.7966 178.525 52.3285 178.668 52.5814C179.071 53.2906 179.344 54.0656 179.475 54.8704C179.662 55.9364 179.646 57.0281 179.427 58.0881C179.336 58.5241 179.07 58.9862 179.231 59.4179C179.458 59.8443 179.829 60.1765 180.277 60.3553C180.971 60.7041 181.86 60.8785 182.414 61.3886C183.286 62.1865 182.653 63.0759 182.034 63.8302C181.472 64.5147 180.726 65.4085 181.454 66.1933C181.978 66.7601 183.007 66.795 183.578 67.3051C184.341 67.9896 183.634 68.5346 183.281 69.2191C182.845 70.0911 183.037 70.9631 183.77 71.7305C184.982 72.9905 188.566 73.4745 187.833 75.3319C187.65 75.8115 187.397 76.1036 187.397 76.6181C187.397 77.1325 187.646 77.7037 187.576 78.2618C187.463 79.1338 186.647 79.8575 186.477 80.7252C186.133 82.4997 189.185 83.0752 187.598 84.841C187.227 85.1908 186.951 85.6288 186.795 86.1141C186.721 86.4106 187.044 87.3873 186.887 87.5835C186.189 88.4555 183.678 87.6227 182.898 87.3698C181.938 87.0515 178.695 86.4673 179.37 85.216Z" fill="#F5F5F5"/>
<path d="M173.022 82.8486C173.022 82.8486 173.323 89.8726 184.82 89.8726C196.318 89.8726 196.623 82.8486 196.623 82.8486H173.022Z" fill="#F0F0F0"/>
<path d="M246 166.416C292.688 166.416 330.536 164.206 330.536 161.48C330.536 158.755 292.688 156.545 246 156.545C199.312 156.545 161.464 158.755 161.464 161.48C161.464 164.206 199.312 166.416 246 166.416Z" fill="#F5F5F5"/>
<path d="M273.703 157.892L270.206 157.84L269.4 149.722L272.901 149.774L273.703 157.892Z" fill="#FFB573"/>
<path d="M291.706 157.906H288.209L285.484 149.801H288.981L291.706 157.906Z" fill="#FFB573"/>
<path d="M287.742 157.5H292.006C292.076 157.5 292.144 157.524 292.199 157.567C292.253 157.611 292.292 157.672 292.307 157.74L292.996 160.853C293.014 160.928 293.013 161.007 292.996 161.082C292.978 161.158 292.943 161.228 292.894 161.288C292.844 161.348 292.782 161.396 292.711 161.428C292.641 161.459 292.564 161.475 292.486 161.472C291.113 161.45 290.11 161.367 288.383 161.367C287.319 161.367 284.111 161.481 282.641 161.481C281.172 161.481 280.98 160.029 281.582 159.894C284.276 159.305 286.308 158.494 287.171 157.714C287.33 157.576 287.533 157.5 287.742 157.5Z" fill="#263238"/>
<path d="M270.237 157.452L274.057 157.513C274.126 157.514 274.193 157.538 274.247 157.581C274.301 157.625 274.338 157.685 274.353 157.753L274.994 160.875C275.011 160.95 275.01 161.028 274.992 161.103C274.974 161.178 274.939 161.248 274.889 161.307C274.84 161.366 274.778 161.414 274.708 161.445C274.637 161.477 274.561 161.492 274.484 161.49C273.102 161.446 271.114 161.333 269.378 161.306C267.355 161.276 265.602 161.359 263.226 161.306C261.792 161.285 261.417 159.828 262.019 159.706C264.765 159.148 267.002 159.118 269.391 157.696C269.646 157.539 269.938 157.454 270.237 157.452Z" fill="#263238"/>
<path d="M272.387 53.6101C271.28 56.0669 270.047 58.4652 268.694 60.7953C268.018 61.9595 267.311 63.1149 266.544 64.2485C265.78 65.4105 264.954 66.5297 264.068 67.6013L263.723 68.0112L263.549 68.2161C263.488 68.2858 263.449 68.3381 263.326 68.4646C262.827 69.0271 262.185 69.4456 261.469 69.6767C261.025 69.8157 260.558 69.8646 260.096 69.8205C259.688 69.7856 259.288 69.6824 258.914 69.5153C258.375 69.2705 257.884 68.9325 257.462 68.5169C256.865 67.9208 256.352 67.246 255.936 66.5113C255.572 65.8812 255.242 65.2321 254.947 64.5668C253.87 62.049 253.063 59.4242 252.54 56.7362L255.051 55.9558C255.587 57.0981 256.141 58.2796 256.721 59.4045C257.301 60.5294 257.894 61.6543 258.535 62.6876C258.835 63.1916 259.163 63.6792 259.516 64.1482C259.793 64.5289 260.115 64.8744 260.475 65.1772C260.606 65.2774 260.706 65.2992 260.654 65.2556C260.581 65.2163 260.501 65.1912 260.418 65.1815C260.282 65.1658 260.145 65.1762 260.013 65.212C259.751 65.2949 259.712 65.3559 259.743 65.2992L260.226 64.6322C261.642 62.5773 262.932 60.4384 264.089 58.2273C265.288 55.9994 266.457 53.6711 267.551 51.417L272.387 53.6101Z" fill="#FFB573"/>
<path d="M273.843 51.4174C274.785 54.6263 268.144 63.3769 268.144 63.3769L261.443 59.0692C262.706 56.2947 264.263 53.6637 266.087 51.2212C268.829 47.7027 272.805 47.8945 273.843 51.4174Z" fill="#249748"/>
<path opacity="0.2" d="M273.843 51.4174C274.785 54.6263 268.144 63.3769 268.144 63.3769L261.443 59.0692C262.706 56.2947 264.263 53.6637 266.087 51.2212C268.829 47.7027 272.805 47.8945 273.843 51.4174Z" fill="black"/>
<path opacity="0.2" d="M269.758 55.1836C268.38 55.7722 266.352 59.1076 265.297 61.5492L268.14 63.376C269.728 61.2526 271.156 59.0141 272.413 56.679C271.515 55.6937 270.486 54.874 269.758 55.1836Z" fill="black"/>
<path d="M254.99 57.2117L255.862 53.2659L251.882 53.2354C251.882 53.2354 250.818 56.2002 252.958 57.5954L254.99 57.2117Z" fill="#FFB573"/>
<path d="M255.396 49.5684L252.204 50.715L251.868 53.2351L255.849 53.2656L255.396 49.5684Z" fill="#FFB573"/>
<path opacity="0.2" d="M269.404 149.722L269.819 153.907L273.315 153.964L272.905 149.778L269.404 149.722Z" fill="black"/>
<path opacity="0.2" d="M288.981 149.805H285.484L286.888 153.982H290.389L288.981 149.805Z" fill="black"/>
<path d="M289.443 49.9956C285.671 63.2893 286.434 77.3983 286.094 80.2541C283.356 80.0578 273.045 79.2861 267.425 78.8676C264.975 58.9467 269.875 48.7138 269.875 48.7138C269.875 48.7138 271.079 48.4827 272.709 48.3127C273.219 48.2604 273.773 48.2168 274.349 48.1862C274.667 48.1862 274.989 48.1557 275.316 48.1514C277.971 48.1967 280.62 48.3932 283.252 48.74C283.749 48.801 284.254 48.8795 284.747 48.958C285.24 49.0364 285.645 49.1193 286.055 49.2021C287.974 49.5814 289.443 49.9956 289.443 49.9956Z" fill="#249748"/>
<path opacity="0.2" d="M289.443 49.9956C285.671 63.2893 286.434 77.3983 286.094 80.2541C283.356 80.0578 273.045 79.2861 267.425 78.8676C264.975 58.9467 269.875 48.7138 269.875 48.7138C269.875 48.7138 271.079 48.4827 272.709 48.3127C273.219 48.2604 273.773 48.2168 274.349 48.1862C274.667 48.1862 274.989 48.1557 275.316 48.1514C277.971 48.1967 280.62 48.3932 283.252 48.74C283.749 48.801 284.254 48.8795 284.747 48.958C285.24 49.0364 285.645 49.1193 286.055 49.2021C287.974 49.5814 289.443 49.9956 289.443 49.9956Z" fill="black"/>
<path opacity="0.2" d="M285.458 55.6982C285.122 56.9844 285.506 62.853 286.849 64.3005C287.032 62.4214 287.285 60.4594 287.599 58.4538L285.458 55.6982Z" fill="black"/>
<path d="M283.13 39.7324C282.441 42.2481 281.591 46.8915 283.252 48.7271C281.761 50.0046 279.829 51.4608 276.79 51.3431C273.751 51.2254 274.432 49.1631 275.317 48.1385C278.212 47.6676 278.299 45.5487 277.933 43.53L283.13 39.7324Z" fill="#FFB573"/>
<path d="M282.973 48.0166C282.973 48.0166 281.717 50.0876 276.668 51.3476C277.505 52.1237 277.911 53.9636 277.911 53.9636C277.911 53.9636 284.499 52.3766 284.298 48.6706C283.896 48.3799 283.448 48.1588 282.973 48.0166Z" fill="#263238"/>
<path d="M274.872 53.4877C274.872 53.4877 275.535 51.8919 276.668 51.3469C276.141 50.8019 275.36 49.1669 275.822 47.9417C275.431 47.9105 275.038 47.9355 274.654 48.0159C274.654 48.0159 272.657 50.5316 274.872 53.4877Z" fill="#263238"/>
<path d="M276.45 53.5359C276.393 53.8759 276.193 54.1288 276.014 54.0939C275.835 54.0591 275.726 53.7582 275.787 53.4181C275.848 53.0781 276.049 52.8208 276.223 52.8557C276.398 52.8906 276.52 53.1914 276.45 53.5359Z" fill="#263238"/>
<path d="M276.154 55.4976C276.123 55.8464 275.949 56.1123 275.761 56.0949C275.574 56.0775 275.447 55.7853 275.478 55.4409C275.508 55.0965 275.683 54.8261 275.87 54.8436C276.058 54.861 276.184 55.1531 276.154 55.4976Z" fill="#263238"/>
<path opacity="0.2" d="M281.02 41.2979L277.968 43.5433C278.059 44.013 278.106 44.4904 278.107 44.969C279.21 44.8905 280.793 43.8092 280.993 42.68C281.082 42.2243 281.091 41.7566 281.02 41.2979Z" fill="black"/>
<path d="M276.127 30.2319C273.407 30.1708 272.857 36.7457 274.623 37.8924C276.389 39.0391 281.22 30.3409 276.127 30.2319Z" fill="#263238"/>
<path d="M283.718 35.9257C283.252 39.3658 283.151 41.4063 281.272 43.05C278.447 45.5221 274.296 43.6211 273.73 40.1113C273.219 36.9503 274.07 31.8535 277.558 30.7286C278.325 30.4765 279.144 30.425 279.937 30.5789C280.73 30.7328 281.471 31.0871 282.088 31.608C282.706 32.1289 283.18 32.7991 283.465 33.5548C283.75 34.3106 283.837 35.1268 283.718 35.9257Z" fill="#FFB573"/>
<path d="M283.226 39.2959C281.482 40.2159 279.467 30.6937 284.098 31.1907C289.914 31.8098 286.727 37.4604 283.226 39.2959Z" fill="#263238"/>
<path d="M275.46 31.1692C275.46 33.3012 282.38 35.4202 284.752 34.692C287.123 33.9639 287.721 32.076 286.448 30.768C284.294 28.5139 275.46 26.9923 275.46 31.1692Z" fill="#263238"/>
<path d="M275.739 31.4485C275.899 32.1538 276.244 32.8038 276.738 33.332C276.119 33.2971 275.504 32.4207 275.308 31.9106C275.112 31.4005 275.739 31.4485 275.739 31.4485Z" fill="#263238"/>
<path d="M284.996 39.8542C284.74 40.2035 284.417 40.4988 284.047 40.7233C283.676 40.9477 283.265 41.0969 282.837 41.1622C281.691 41.3279 281.268 40.2641 281.713 39.2613C282.114 38.3587 283.191 37.1859 284.281 37.4824C285.371 37.7789 285.623 38.9866 284.996 39.8542Z" fill="#FFB573"/>
<path d="M268.519 153.092L274.445 153.184C274.445 153.184 272.465 129.775 273.001 118.884C273.163 115.57 273.83 110.936 274.702 105.97C275.809 99.7086 276.341 97.2147 277.754 89.3056C278.774 83.6638 279.681 79.7965 279.681 79.7965L267.408 78.8809C267.408 78.8809 262.219 107.081 262.341 117.776C262.463 128.864 268.519 153.092 268.519 153.092Z" fill="#263238"/>
<path opacity="0.2" d="M275.377 87.2559C273.171 92.7495 273.128 105.62 274.144 109.243C274.318 108.171 274.505 107.063 274.702 105.956C275.809 99.6949 276.341 97.201 277.754 89.292C277.78 89.135 277.81 88.9824 277.837 88.8298C277.114 88.1673 276.282 87.6348 275.377 87.2559Z" fill="black"/>
<path d="M274.048 79.3604C274.048 79.3604 275.129 108.873 275.953 119.093C276.851 130.29 285.24 153.171 285.24 153.171H291.649C291.649 153.171 287.372 132.243 286.06 121.343C284.564 108.96 286.086 80.2454 286.086 80.2454L274.048 79.3604Z" fill="#263238"/>
<path d="M284.477 153.311H292.024V151.056L283.587 150.908L284.477 153.311Z" fill="#249748"/>
<path d="M267.774 153.205L274.833 153.314L274.867 151.034L266.976 150.79L267.774 153.205Z" fill="#249748"/>
<path d="M278.404 36.5012C278.382 36.7846 278.216 37.0026 278.033 36.9852C277.85 36.9677 277.715 36.7323 277.736 36.4533C277.758 36.1742 277.924 35.9562 278.107 35.9693C278.29 35.9824 278.425 36.244 278.404 36.5012Z" fill="#263238"/>
<path d="M275.212 36.2663C275.212 36.5497 275.024 36.7634 274.841 36.7503C274.658 36.7372 274.527 36.4974 274.545 36.2184C274.562 35.9393 274.732 35.717 274.92 35.73C275.107 35.7431 275.242 35.9829 275.212 36.2663Z" fill="#263238"/>
<path d="M276.224 36.4795C275.823 37.3158 275.309 38.0933 274.698 38.7903C274.878 38.9392 275.088 39.0475 275.313 39.1077C275.539 39.1679 275.775 39.1786 276.006 39.1391L276.224 36.4795Z" fill="#ED893E"/>
<path d="M277.157 39.9809C277.473 39.9684 277.784 39.8906 278.069 39.7526C278.354 39.6146 278.607 39.4192 278.813 39.1787C278.821 39.171 278.827 39.1618 278.831 39.1517C278.836 39.1416 278.838 39.1308 278.838 39.1198C278.838 39.1089 278.836 39.098 278.831 39.0879C278.827 39.0778 278.821 39.0687 278.813 39.061C278.797 39.0462 278.776 39.0381 278.754 39.0381C278.733 39.0381 278.712 39.0462 278.696 39.061C278.462 39.3234 278.169 39.5269 277.842 39.6549C277.515 39.783 277.162 39.8319 276.812 39.7978C276.791 39.7965 276.77 39.8036 276.754 39.8174C276.737 39.8312 276.727 39.8507 276.725 39.8719C276.724 39.8828 276.725 39.8938 276.728 39.9043C276.731 39.9148 276.736 39.9246 276.743 39.9332C276.75 39.9417 276.758 39.9487 276.768 39.9539C276.778 39.9591 276.788 39.9624 276.799 39.9635C276.918 39.9774 277.037 39.9833 277.157 39.9809Z" fill="#263238"/>
<path d="M279.463 35.5465C279.491 35.5459 279.519 35.5368 279.541 35.5203C279.56 35.5088 279.576 35.4937 279.588 35.476C279.6 35.4583 279.609 35.4383 279.613 35.4171C279.618 35.396 279.618 35.3741 279.614 35.3529C279.61 35.3317 279.601 35.3115 279.589 35.2936C279.451 35.0668 279.26 34.877 279.032 34.7403C278.804 34.6036 278.547 34.5242 278.281 34.5088C278.237 34.5088 278.195 34.5262 278.164 34.5573C278.133 34.5884 278.116 34.6305 278.116 34.6745C278.116 34.7184 278.133 34.7606 278.164 34.7916C278.195 34.8227 278.237 34.8401 278.281 34.8401C278.489 34.8571 278.689 34.9233 278.866 35.0333C279.043 35.1432 279.19 35.2938 279.297 35.4724C279.315 35.4995 279.34 35.521 279.369 35.5341C279.398 35.5473 279.431 35.5516 279.463 35.5465Z" fill="#263238"/>
<path d="M273.93 35.0712C273.957 35.069 273.984 35.0604 274.008 35.046C274.031 35.0316 274.051 35.0118 274.065 34.9883C274.164 34.8041 274.305 34.6463 274.477 34.5279C274.65 34.4096 274.848 34.3342 275.055 34.3082C275.076 34.3071 275.098 34.3016 275.117 34.2922C275.137 34.2828 275.154 34.2695 275.168 34.2533C275.182 34.237 275.193 34.218 275.2 34.1975C275.207 34.177 275.209 34.1553 275.207 34.1338C275.207 34.1122 275.202 34.091 275.193 34.0713C275.184 34.0516 275.171 34.034 275.156 34.0193C275.14 34.0047 275.121 33.9934 275.101 33.9861C275.081 33.9788 275.059 33.9756 275.037 33.9768C274.776 34.0074 274.525 34.0997 274.306 34.246C274.087 34.3922 273.906 34.5884 273.777 34.8183C273.766 34.8372 273.759 34.858 273.757 34.8796C273.754 34.9013 273.755 34.9233 273.761 34.9443C273.766 34.9654 273.776 34.9851 273.79 35.0024C273.803 35.0197 273.82 35.0342 273.838 35.045C273.866 35.0616 273.898 35.0707 273.93 35.0712Z" fill="#263238"/>
<path d="M286.583 158.115C286.892 158.107 287.199 158.064 287.498 157.989C287.515 157.985 287.53 157.976 287.541 157.963C287.553 157.951 287.561 157.936 287.564 157.919C287.565 157.903 287.562 157.887 287.555 157.872C287.548 157.858 287.538 157.845 287.524 157.836C287.398 157.757 286.269 157.064 285.881 157.26C285.838 157.283 285.802 157.317 285.776 157.358C285.751 157.4 285.737 157.447 285.737 157.496C285.729 157.577 285.74 157.659 285.771 157.735C285.801 157.811 285.849 157.878 285.911 157.932C286.108 158.066 286.345 158.131 286.583 158.115ZM287.258 157.871C286.665 157.989 286.208 157.967 286.016 157.805C285.974 157.769 285.941 157.723 285.921 157.672C285.902 157.62 285.895 157.564 285.902 157.509C285.901 157.489 285.905 157.469 285.915 157.451C285.924 157.434 285.938 157.419 285.955 157.409C286.155 157.304 286.801 157.605 287.258 157.888V157.871Z" fill="#249748"/>
<path d="M287.481 157.989C287.495 157.993 287.51 157.993 287.525 157.989C287.537 157.981 287.547 157.97 287.554 157.957C287.561 157.944 287.564 157.929 287.564 157.915C287.564 157.871 287.477 156.86 287.071 156.528C287.023 156.486 286.967 156.455 286.906 156.437C286.845 156.419 286.781 156.414 286.718 156.424C286.656 156.423 286.595 156.443 286.546 156.482C286.498 156.521 286.464 156.576 286.452 156.637C286.378 157.03 287.08 157.797 287.442 157.993L287.481 157.989ZM286.775 156.581C286.844 156.58 286.911 156.607 286.962 156.655C287.209 156.969 287.353 157.351 287.376 157.749C287.019 157.474 286.57 156.877 286.613 156.668C286.613 156.646 286.613 156.594 286.735 156.581H286.775Z" fill="#249748"/>
<path d="M269.884 157.914C269.899 157.909 269.912 157.899 269.922 157.887C269.932 157.875 269.938 157.86 269.941 157.844C269.943 157.828 269.94 157.811 269.932 157.796C269.924 157.781 269.912 157.769 269.897 157.761C269.74 157.674 268.345 156.942 267.918 157.168C267.877 157.19 267.844 157.223 267.819 157.261C267.795 157.3 267.781 157.345 267.778 157.391C267.768 157.465 267.776 157.541 267.802 157.612C267.828 157.682 267.871 157.746 267.926 157.796C268.301 158.141 269.309 158.019 269.875 157.914H269.884ZM268.027 157.303C268.288 157.216 269.047 157.517 269.601 157.792C268.825 157.91 268.249 157.866 268.035 157.674C267.999 157.64 267.971 157.598 267.955 157.551C267.938 157.504 267.933 157.453 267.939 157.404C267.94 157.385 267.945 157.367 267.955 157.352C267.965 157.336 267.979 157.324 267.996 157.317L268.027 157.303Z" fill="#249748"/>
<path d="M269.884 157.914H269.906C269.918 157.906 269.928 157.895 269.934 157.882C269.941 157.869 269.943 157.854 269.941 157.84C269.941 157.801 269.858 156.854 269.417 156.484C269.358 156.431 269.289 156.391 269.215 156.365C269.14 156.34 269.06 156.33 268.981 156.336C268.75 156.336 268.685 156.466 268.667 156.562C268.598 156.955 269.422 157.726 269.84 157.923C269.855 157.923 269.87 157.92 269.884 157.914ZM268.89 156.501H268.977C269.038 156.496 269.099 156.503 269.157 156.522C269.215 156.542 269.268 156.573 269.313 156.615C269.566 156.923 269.719 157.302 269.749 157.7C269.313 157.434 268.763 156.828 268.803 156.593C268.816 156.58 268.82 156.523 268.89 156.501Z" fill="#249748"/>
<path d="M290.341 52.1758C291.562 54.6261 292.656 57.0764 293.663 59.5878C294.174 60.8435 294.644 62.1209 295.107 63.4071C295.333 64.0568 295.543 64.7151 295.761 65.3604L295.918 65.8531L296.088 66.4199C296.21 66.8079 296.279 67.196 296.371 67.5797C296.852 70.5157 296.715 73.5197 295.97 76.3999C295.647 77.7673 295.237 79.1128 294.745 80.4286C294.496 81.0826 294.23 81.7366 293.947 82.3601C293.663 82.9835 293.376 83.6114 293.022 84.2654L290.611 83.219C290.947 82.0287 291.287 80.7425 291.527 79.4912C291.767 78.2399 291.989 76.9755 292.129 75.7285C292.266 74.5041 292.316 73.2714 292.277 72.0399C292.253 70.887 292.092 69.7409 291.797 68.6261C291.714 68.3688 291.649 68.0985 291.549 67.8543C291.496 67.7279 291.466 67.6233 291.401 67.4707L291.217 67.0347C290.973 66.4373 290.707 65.84 290.454 65.2427C289.944 64.0393 289.391 62.8491 288.859 61.6501L285.567 54.4866L290.341 52.1758Z" fill="#FFB573"/>
<path d="M289.443 49.9955C292.634 50.9983 295.774 61.8242 295.774 61.8242L288.388 65.055C288.388 65.055 285.999 59.823 284.621 55.7246C283.125 51.2556 285.571 48.7834 289.443 49.9955Z" fill="#249748"/>
<path opacity="0.2" d="M289.443 49.9955C292.634 50.9983 295.774 61.8242 295.774 61.8242L288.388 65.055C288.388 65.055 285.999 59.823 284.621 55.7246C283.125 51.2556 285.571 48.7834 289.443 49.9955Z" fill="black"/>
<path d="M290.808 82.6299L289.085 85.7386L293.145 86.7937C293.145 86.7937 294.37 83.7809 292.922 82.8217L290.808 82.6299Z" fill="#FFB573"/>
<path d="M288.785 89.2665L292.512 89.5761L293.145 86.7944L289.086 85.7393L288.785 89.2665Z" fill="#FFB573"/>
<path opacity="0.19" d="M266.383 106.122H174.134L180.639 13.8779H272.888L266.383 106.122Z" fill="#249748"/>
<path opacity="0.2" d="M194.918 106.122H181.651L214.704 13.8779H227.972L194.918 106.122Z" fill="white"/>
<path opacity="0.2" d="M227.143 106.122H197.879L230.932 13.8779H260.196L227.143 106.122Z" fill="white"/>
<path d="M180.883 29.6301L178.18 29.4383L179.375 12.5215H196.296V15.2334H181.899L180.883 29.6301Z" fill="#249748"/>
<path d="M189.791 107.478H172.678L173.886 90.374L176.589 90.5659L175.586 104.766H189.791V107.478Z" fill="#249748"/>
<path d="M273.132 29.6301L270.433 29.4383L271.432 15.2334H257.227V12.5215H274.34L273.132 29.6301Z" fill="#249748"/>
<path d="M267.643 107.478H250.722V104.766H265.119L266.135 90.374L268.838 90.5659L267.643 107.478Z" fill="#249748"/>
<g opacity="0.3">
<path d="M221.693 92.519C221.613 92.5173 221.534 92.498 221.462 92.4623C221.436 92.4623 220.795 92.096 219.718 91.4333C219.282 91.1586 218.733 90.8229 218.135 90.4436C216.239 89.2097 214.412 87.9104 212.698 86.5806C212.262 86.258 211.87 85.9266 211.447 85.5866C209.869 84.2786 208.395 82.9967 207.113 81.7236C206.782 81.3922 206.455 81.0609 206.128 80.7208C204.937 79.495 203.819 78.2007 202.779 76.8448C202.526 76.5178 202.282 76.182 202.042 75.842C201.156 74.606 200.364 73.3045 199.675 71.9485C199.509 71.6215 199.344 71.277 199.191 70.9326C198.619 69.6716 198.172 68.3572 197.857 67.0086C197.778 66.699 197.709 66.3633 197.648 65.9884C197.6 65.7442 197.56 65.487 197.53 65.2341C197.395 64.2356 197.281 63.2198 197.172 62.121C197.137 61.794 197.107 61.4627 197.076 61.1357C196.963 59.8277 196.867 58.5502 196.797 57.2771V57.1724C196.797 56.8847 196.763 56.5969 196.749 56.3004C196.688 55.0448 196.645 53.7498 196.619 52.4506V51.4608C196.619 50.0874 196.619 48.7925 196.619 47.611C196.619 47.2796 196.619 46.9482 196.64 46.6212C196.671 45.1999 196.719 43.905 196.776 42.7714V42.6972C196.776 42.3833 196.802 42.0781 196.819 41.7773C196.898 40.3734 196.989 39.0436 197.085 37.9274C197.116 37.5481 197.142 37.2254 197.172 36.9377C197.273 35.839 197.347 35.2242 197.347 35.2242C197.356 35.1116 197.405 35.0058 197.484 34.9259C197.564 34.846 197.67 34.7972 197.783 34.7882C197.861 34.7882 205.905 34.1647 214.473 32.6562C216.217 32.351 217.9 32.0196 219.496 31.6752C221.846 31.1607 223.995 30.6026 225.892 30.014C225.987 29.9836 226.089 29.9836 226.184 30.014C227.993 30.607 230.064 31.165 232.34 31.6752C233.888 32.024 235.527 32.351 237.223 32.6562C245.577 34.1647 253.534 34.7838 253.613 34.7882C253.734 34.7982 253.847 34.8544 253.928 34.9453C254.009 35.0362 254.052 35.1547 254.049 35.2765C254.049 35.2765 254.049 35.8869 253.983 36.99C253.983 37.2821 253.953 37.6135 253.931 37.9797C253.865 39.1002 253.77 40.43 253.652 41.8296C253.626 42.1086 253.599 42.3877 253.573 42.6798V42.8237C253.473 43.9616 253.334 45.2566 253.168 46.6692C253.129 47.0049 253.089 47.3319 253.046 47.6633C252.898 48.8492 252.719 50.1441 252.509 51.5088L252.361 52.4942C252.152 53.8022 251.925 55.1102 251.69 56.3484C251.637 56.6274 251.581 56.9108 251.524 57.1942L251.494 57.3425C251.245 58.6069 250.97 59.9062 250.674 61.1924L250.438 62.1864C250.173 63.2852 249.915 64.301 249.645 65.2951C249.571 65.5524 249.497 65.8052 249.418 66.0581C249.301 66.4287 249.187 66.7601 249.065 67.074C248.554 68.4348 247.924 69.7479 247.182 70.998C246.985 71.3337 246.776 71.6738 246.558 72.0052C245.675 73.3628 244.704 74.6605 243.65 75.8899C243.362 76.2256 243.074 76.5614 242.778 76.8884C241.551 78.2435 240.256 79.5357 238.898 80.76C238.523 81.0972 238.148 81.4286 237.773 81.7541C236.295 83.0272 234.66 84.3222 232.903 85.6127C232.432 85.9528 231.97 86.2842 231.512 86.6068C229.611 87.9366 227.588 89.2228 225.539 90.4654C224.885 90.8447 224.305 91.1804 223.795 91.4551C222.626 92.1135 221.937 92.4666 221.911 92.4797C221.842 92.5095 221.768 92.5229 221.693 92.519ZM198.249 35.7212C198.219 36.009 198.175 36.445 198.123 37.0292C198.092 37.317 198.066 37.6353 198.04 37.9841C197.944 39.1177 197.853 40.4388 197.774 41.8383C197.774 42.1348 197.744 42.4356 197.726 42.7496V42.8237C197.665 43.9486 197.621 45.2348 197.591 46.6474C197.591 46.97 197.591 47.297 197.569 47.6284C197.569 48.8056 197.569 50.0918 197.569 51.4521V52.4418C197.595 53.728 197.639 55.0142 197.7 56.2568C197.7 56.5446 197.726 56.828 197.744 57.1288V57.2596C197.813 58.5197 197.905 59.8059 198.018 61.079C198.049 61.406 198.079 61.733 198.114 62.06C198.219 63.1456 198.336 64.1572 198.467 65.1425C198.498 65.3823 198.533 65.6221 198.576 65.8576C198.637 66.2151 198.703 66.5246 198.777 66.8211C199.079 68.1097 199.507 69.3656 200.054 70.5707C200.203 70.8977 200.355 71.2247 200.516 71.5386C201.185 72.8531 201.952 74.1153 202.81 75.3144C203.045 75.6414 203.281 75.9684 203.529 76.2867C204.548 77.6135 205.641 78.8814 206.804 80.0842C207.126 80.4156 207.449 80.7426 207.776 81.0652C209.049 82.3166 210.483 83.594 212.04 84.8672C212.476 85.2029 212.868 85.5299 213.278 85.8525C214.966 87.1605 216.766 88.4467 218.641 89.6632C219.23 90.0381 219.757 90.3695 220.206 90.6398C220.899 91.0758 221.414 91.3636 221.689 91.5118C221.981 91.3592 222.561 91.0758 223.311 90.6398C223.803 90.3651 224.374 90.0338 225.02 89.6544C227.06 88.438 229.048 87.1562 230.927 85.8394C231.363 85.5212 231.839 85.1942 232.305 84.8541C234.049 83.581 235.658 82.3035 237.101 81.0478C237.472 80.7252 237.842 80.3982 238.209 80.0624C239.545 78.8603 240.82 77.5914 242.028 76.2605C242.32 75.9379 242.604 75.6152 242.9 75.2882C243.928 74.0915 244.875 72.8271 245.734 71.5038C245.948 71.1811 246.17 70.8541 246.336 70.5315C247.06 69.3324 247.677 68.0718 248.18 66.7644C248.298 66.4636 248.407 66.1497 248.516 65.7965C248.594 65.5567 248.664 65.3126 248.729 65.0728C249 64.0874 249.257 63.0802 249.519 61.9902C249.601 61.6632 249.675 61.3362 249.754 61.0092C250.046 59.7318 250.321 58.4456 250.565 57.1899L250.595 57.0373C250.652 56.7582 250.704 56.4792 250.757 56.2002C250.992 54.9619 251.219 53.6757 251.424 52.3764L251.576 51.3954C251.781 50.0395 251.96 48.7533 252.108 47.5717C252.152 47.2447 252.187 46.9221 252.226 46.5994C252.392 45.1868 252.531 43.9006 252.632 42.767V42.6231C252.658 42.3354 252.684 42.052 252.706 41.7773C252.823 40.3908 252.919 39.0697 252.98 37.9579C253.002 37.5917 253.02 37.2647 253.037 36.9726C253.059 36.4406 253.076 36.0221 253.085 35.7387C251.271 35.5817 244.313 34.9408 237.058 33.6328C235.349 33.3232 233.696 32.9919 232.135 32.6431C229.89 32.1373 227.841 31.588 226.031 31.0037C224.143 31.588 222.016 32.1373 219.696 32.6431C218.092 32.9919 216.391 33.3232 214.639 33.6328C207.109 34.9364 199.98 35.5774 198.249 35.7212Z" fill="#249748"/>
<path d="M228.428 54.9175C230.782 52.6447 230.973 49.0228 228.854 46.8278C226.735 44.6328 223.109 44.6959 220.754 46.9687C218.4 49.2415 218.209 52.8634 220.328 55.0584C222.447 57.2534 226.073 57.1903 228.428 54.9175Z" fill="#249748"/>
<path d="M225.848 52.9385H224.449H223.053L219.103 71.3638H227.2L225.848 52.9385Z" fill="#249748"/>
<g opacity="0.2">
<path d="M237.136 33.1401H214.556C216.23 32.8436 217.926 32.5166 219.596 32.1504H232.24C233.857 32.5166 235.505 32.8436 237.136 33.1401Z" fill="#249748"/>
<path d="M253.456 37.9624H197.561C197.587 37.5961 197.613 37.2691 197.643 36.9727H253.508C253.495 37.2691 253.478 37.5961 253.456 37.9624Z" fill="#249748"/>
<path d="M253.177 41.7949C253.151 42.1176 253.12 42.4489 253.089 42.789H197.247C197.247 42.4489 197.277 42.1176 197.295 41.7949H253.177Z" fill="#249748"/>
<path d="M252.684 46.6211C252.645 46.9481 252.605 47.2795 252.562 47.6108H197.09C197.09 47.2795 197.09 46.9481 197.111 46.6211H252.684Z" fill="#249748"/>
<path d="M252.03 51.4473C251.978 51.7743 251.93 52.1013 251.877 52.4326H197.094C197.094 52.1013 197.094 51.7743 197.094 51.4473H252.03Z" fill="#249748"/>
<path d="M251.232 56.2695L251.036 57.2593H197.277C197.277 56.9279 197.238 56.5965 197.225 56.2695H251.232Z" fill="#249748"/>
<path d="M250.199 61.0967L249.963 62.082H197.643C197.608 61.755 197.578 61.4237 197.547 61.0967H250.199Z" fill="#249748"/>
<path d="M248.952 65.9189C248.847 66.2503 248.734 66.5817 248.607 66.9087H198.324C198.241 66.5817 198.175 66.2503 198.119 65.9189H248.952Z" fill="#249748"/>
<path d="M246.759 70.7412C246.567 71.0726 246.358 71.4083 246.148 71.7309H200.102C199.937 71.4083 199.78 71.0726 199.632 70.7412H246.759Z" fill="#249748"/>
<path d="M243.275 75.5674C242.992 75.8987 242.708 76.2301 242.403 76.5527H203.163C202.91 76.2301 202.67 75.8987 202.435 75.5674H243.275Z" fill="#249748"/>
<path d="M238.558 80.3896C238.187 80.7254 237.816 81.0567 237.441 81.3794H207.449C207.122 81.0567 206.795 80.7254 206.472 80.3896H238.558Z" fill="#249748"/>
<path d="M232.602 85.2119C232.131 85.552 231.673 85.8834 231.215 86.2016H212.995C212.585 85.8834 212.171 85.552 211.748 85.2119H232.602Z" fill="#249748"/>
<path d="M225.277 90.0381C224.627 90.4174 224.052 90.7488 223.559 91.0234H219.971C219.535 90.7488 218.986 90.4174 218.393 90.0381H225.277Z" fill="#249748"/>
</g>
</g>
</g>
<defs>
<clipPath id="clip0_239_1286">
<rect width="491" height="165" fill="white"/>
</clipPath>
</defs>
</svg>
