<svg width="491" height="165" viewBox="0 0 491 165" fill="none" xmlns="http://www.w3.org/2000/svg">
<g clip-path="url(#clip0_239_1286)">
<path d="M349 146.549H143V146.652H349V146.549Z" fill="#EBEBEB"/>
<path d="M175.136 150.471H164.613V150.574H175.136V150.471Z" fill="#EBEBEB"/>
<path d="M251.768 149.355H206.473V149.458H251.768V149.355Z" fill="#EBEBEB"/>
<path d="M213.04 151.814H183.1V151.917H213.04V151.814Z" fill="#EBEBEB"/>
<path d="M328.363 153.607H288.708V153.71H328.363V153.607Z" fill="#EBEBEB"/>
<path d="M285.037 153.607H282.429V153.71H285.037V153.607Z" fill="#EBEBEB"/>
<path d="M295.807 151.869H267.103V151.972H295.807V151.869Z" fill="#EBEBEB"/>
<path d="M240.644 128.174H161.091C160.468 128.173 159.87 127.924 159.43 127.483C158.99 127.042 158.742 126.444 158.742 125.821V13.9921C158.748 13.3724 158.998 12.78 159.437 12.3433C159.877 11.9067 160.471 11.6612 161.091 11.6602H240.644C241.268 11.6602 241.866 11.908 242.307 12.3492C242.749 12.7904 242.996 13.3887 242.996 14.0127V125.821C242.996 126.445 242.749 127.044 242.307 127.485C241.866 127.926 241.268 128.174 240.644 128.174ZM161.091 11.7426C160.495 11.7436 159.924 11.9811 159.503 12.4029C159.082 12.8246 158.845 13.3962 158.845 13.9921V125.821C158.845 126.417 159.082 126.989 159.503 127.41C159.924 127.832 160.495 128.07 161.091 128.071H240.644C241.24 128.07 241.812 127.832 242.233 127.411C242.655 126.989 242.892 126.418 242.893 125.821V13.9921C242.892 13.3958 242.655 12.8243 242.233 12.4026C241.812 11.981 241.24 11.7436 240.644 11.7426H161.091Z" fill="#EBEBEB"/>
<path d="M329.764 128.174H250.207C249.583 128.173 248.985 127.924 248.544 127.484C248.104 127.043 247.855 126.445 247.854 125.821V13.9921C247.861 13.3721 248.111 12.7796 248.552 12.3431C248.992 11.9066 249.587 11.6612 250.207 11.6602H329.764C330.383 11.6623 330.976 11.9083 331.415 12.3448C331.854 12.7813 332.103 13.3732 332.108 13.9921V125.821C332.108 126.444 331.862 127.041 331.422 127.482C330.983 127.923 330.386 128.172 329.764 128.174ZM250.207 11.7426C249.61 11.7436 249.039 11.981 248.617 12.4026C248.196 12.8243 247.958 13.3958 247.957 13.9921V125.821C247.958 126.418 248.196 126.989 248.617 127.411C249.039 127.832 249.61 128.07 250.207 128.071H329.764C330.36 128.07 330.932 127.832 331.353 127.411C331.775 126.989 332.012 126.418 332.013 125.821V13.9921C332.012 13.3958 331.775 12.8243 331.353 12.4026C330.932 11.981 330.36 11.7436 329.764 11.7426H250.207Z" fill="#EBEBEB"/>
<path d="M195.019 69.5176L303.05 69.5176V21.1323L195.019 21.1323V69.5176Z" fill="#E6E6E6"/>
<path d="M192.741 69.5176L301.987 69.5176V21.1323L192.741 21.1323V69.5176Z" fill="#F0F0F0"/>
<path d="M195.019 71.1533L303.05 71.1533V69.5136L195.019 69.5136V71.1533Z" fill="#E6E6E6"/>
<path d="M188.95 71.1533L298.196 71.1533V69.5136L188.95 69.5136V71.1533Z" fill="#F0F0F0"/>
<path d="M298.802 66.3331V24.3174L195.93 24.3174V66.3331H298.802Z" fill="#FAFAFA"/>
<path d="M271.012 66.3331L252.32 24.3174H233.187L251.883 66.3331H271.012Z" fill="white"/>
<path d="M297.327 59.3077C297.387 59.3077 297.445 59.2838 297.487 59.2414C297.53 59.1989 297.554 59.1412 297.554 59.0811V26.3889C297.554 26.3284 297.53 26.2704 297.488 26.2272C297.445 26.1841 297.388 26.1593 297.327 26.1582C297.297 26.1582 297.267 26.1642 297.24 26.1758C297.212 26.1875 297.187 26.2045 297.166 26.226C297.144 26.2475 297.128 26.273 297.117 26.3009C297.106 26.3289 297.1 26.3588 297.101 26.3889V59.0811C297.1 59.111 297.106 59.1408 297.117 59.1685C297.128 59.1962 297.145 59.2214 297.166 59.2426C297.187 59.2638 297.212 59.2804 297.24 59.2916C297.268 59.3028 297.297 59.3083 297.327 59.3077Z" fill="#F0F0F0"/>
<path d="M244.69 66.3331L225.993 24.3174H219.376L238.069 66.3331H244.69Z" fill="white"/>
<path d="M196.333 66.3292V24.3135H195.93V66.3292H196.333Z" fill="#E6E6E6"/>
<g opacity="0.5">
<path d="M191.987 28.689H300.021L300.314 25.5537H192.279L191.987 28.689Z" fill="#E6E6E6"/>
<path d="M191.987 33.8719H300.021L300.314 30.7324H192.279L191.987 33.8719Z" fill="#E6E6E6"/>
<path d="M191.987 39.0504H300.021L300.314 35.915H192.279L191.987 39.0504Z" fill="#E6E6E6"/>
<path d="M191.987 44.2332H300.021L300.314 41.0938H192.279L191.987 44.2332Z" fill="#E6E6E6"/>
<path d="M191.987 49.4129H300.021L300.314 46.2734H192.279L191.987 49.4129Z" fill="#E6E6E6"/>
<path d="M191.987 54.5914H300.021L300.314 51.4561H192.279L191.987 54.5914Z" fill="#E6E6E6"/>
</g>
<path d="M305.847 144.552H316.518V102.19H305.847V144.552Z" fill="#F0F0F0"/>
<path d="M264.116 146.549H314.466V144.551H264.116V146.549Z" fill="#F0F0F0"/>
<path d="M305.847 102.188H262.068V144.55H305.847V102.188Z" fill="#F5F5F5"/>
<path d="M301.645 128.714H266.262C266.239 128.714 266.217 128.709 266.196 128.701C266.176 128.692 266.157 128.679 266.141 128.663C266.125 128.647 266.113 128.628 266.105 128.607C266.096 128.586 266.093 128.563 266.093 128.541V118.195C266.093 118.173 266.096 118.151 266.105 118.13C266.113 118.109 266.125 118.09 266.141 118.073C266.157 118.057 266.176 118.044 266.196 118.036C266.217 118.027 266.239 118.022 266.262 118.022H279.973C280.006 118.022 280.038 118.032 280.065 118.049C280.093 118.066 280.115 118.091 280.129 118.12C280.143 118.149 280.149 118.182 280.145 118.214C280.142 118.246 280.129 118.277 280.109 118.303C280.038 118.393 279.999 118.505 279.998 118.62C280 118.692 280.016 118.763 280.045 118.83C280.074 118.896 280.116 118.955 280.169 119.005C280.221 119.055 280.283 119.094 280.351 119.12C280.418 119.146 280.49 119.158 280.563 119.155H287.348C287.42 119.158 287.492 119.146 287.56 119.12C287.628 119.094 287.689 119.055 287.742 119.005C287.794 118.955 287.837 118.896 287.866 118.83C287.895 118.763 287.911 118.692 287.913 118.62C287.912 118.505 287.873 118.393 287.801 118.303C287.781 118.277 287.769 118.246 287.765 118.214C287.762 118.182 287.767 118.149 287.782 118.12C287.796 118.091 287.818 118.066 287.845 118.049C287.873 118.032 287.905 118.022 287.937 118.022H301.645C301.69 118.022 301.734 118.041 301.767 118.073C301.799 118.106 301.818 118.15 301.818 118.195V128.541C301.818 128.587 301.799 128.631 301.767 128.663C301.734 128.696 301.69 128.714 301.645 128.714ZM266.435 128.368H301.455V118.369H288.222C288.246 118.45 288.259 118.535 288.259 118.62C288.254 118.857 288.156 119.083 287.985 119.249C287.815 119.414 287.586 119.505 287.348 119.502H280.563C280.325 119.505 280.096 119.414 279.925 119.249C279.755 119.083 279.656 118.857 279.652 118.62C279.652 118.535 279.664 118.45 279.689 118.369H266.435V128.368Z" fill="white"/>
<path d="M301.645 140.945H266.262C266.239 140.945 266.217 140.941 266.196 140.932C266.176 140.923 266.157 140.911 266.141 140.894C266.125 140.878 266.113 140.859 266.105 140.838C266.096 140.817 266.093 140.795 266.093 140.772V130.427C266.093 130.404 266.096 130.382 266.105 130.361C266.113 130.34 266.125 130.321 266.141 130.305C266.157 130.289 266.176 130.276 266.196 130.267C266.217 130.258 266.239 130.254 266.262 130.254H279.977C280.01 130.255 280.042 130.264 280.069 130.282C280.097 130.299 280.119 130.324 280.134 130.353C280.148 130.383 280.152 130.416 280.148 130.449C280.144 130.482 280.13 130.513 280.109 130.538C280.036 130.626 279.997 130.737 279.998 130.851C280 130.924 280.016 130.995 280.045 131.062C280.074 131.128 280.116 131.188 280.168 131.238C280.221 131.288 280.283 131.328 280.35 131.354C280.418 131.38 280.49 131.393 280.563 131.391H287.348C287.421 131.393 287.493 131.38 287.56 131.354C287.628 131.328 287.69 131.288 287.742 131.238C287.795 131.188 287.837 131.128 287.866 131.062C287.895 130.995 287.911 130.924 287.913 130.851C287.912 130.737 287.873 130.627 287.801 130.538C287.779 130.513 287.765 130.482 287.761 130.449C287.757 130.416 287.762 130.383 287.777 130.353C287.791 130.324 287.814 130.299 287.841 130.282C287.869 130.264 287.901 130.255 287.933 130.254H301.645C301.69 130.254 301.734 130.272 301.767 130.305C301.799 130.337 301.818 130.381 301.818 130.427V140.772C301.818 140.818 301.799 140.862 301.767 140.895C301.734 140.927 301.69 140.945 301.645 140.945ZM266.435 140.616H301.455V130.6H288.222C288.246 130.681 288.259 130.766 288.259 130.851C288.257 130.969 288.232 131.086 288.186 131.194C288.139 131.302 288.071 131.401 287.987 131.483C287.902 131.565 287.802 131.63 287.693 131.673C287.583 131.717 287.466 131.739 287.348 131.737H280.563C280.445 131.739 280.327 131.717 280.218 131.673C280.108 131.63 280.008 131.565 279.924 131.483C279.839 131.401 279.772 131.302 279.725 131.194C279.678 131.086 279.654 130.969 279.652 130.851C279.652 130.766 279.664 130.681 279.689 130.6H266.435V140.616Z" fill="white"/>
<path d="M301.645 116.481H266.262C266.239 116.481 266.217 116.477 266.196 116.468C266.176 116.459 266.157 116.447 266.141 116.431C266.125 116.414 266.113 116.395 266.105 116.374C266.096 116.353 266.093 116.331 266.093 116.308V105.963C266.093 105.941 266.096 105.918 266.105 105.897C266.113 105.876 266.125 105.857 266.141 105.841C266.157 105.825 266.176 105.812 266.196 105.803C266.217 105.795 266.239 105.79 266.262 105.79H279.973C280.006 105.791 280.038 105.801 280.065 105.818C280.093 105.835 280.115 105.86 280.13 105.889C280.147 105.917 280.156 105.949 280.156 105.982C280.156 106.014 280.147 106.046 280.13 106.074C280.057 106.162 280.017 106.273 280.019 106.387C280.02 106.46 280.036 106.531 280.065 106.597C280.095 106.663 280.137 106.723 280.189 106.773C280.242 106.823 280.304 106.862 280.371 106.887C280.439 106.913 280.511 106.925 280.583 106.923H287.369C287.441 106.925 287.513 106.913 287.581 106.887C287.648 106.862 287.71 106.823 287.763 106.773C287.815 106.723 287.857 106.663 287.886 106.597C287.916 106.531 287.932 106.46 287.933 106.387C287.935 106.273 287.895 106.162 287.822 106.074C287.805 106.046 287.796 106.014 287.796 105.982C287.796 105.949 287.805 105.917 287.822 105.889C287.837 105.86 287.859 105.835 287.887 105.818C287.914 105.801 287.946 105.791 287.979 105.79H301.686C301.708 105.79 301.731 105.795 301.752 105.803C301.773 105.812 301.792 105.825 301.808 105.841C301.824 105.857 301.837 105.876 301.846 105.897C301.854 105.918 301.859 105.94 301.859 105.963V116.308C301.86 116.335 301.856 116.362 301.845 116.387C301.834 116.412 301.817 116.433 301.796 116.45C301.775 116.467 301.751 116.479 301.724 116.484C301.698 116.49 301.671 116.489 301.645 116.481ZM266.435 116.135H301.455V106.136H288.222C288.246 106.218 288.259 106.302 288.259 106.387C288.254 106.625 288.156 106.851 287.985 107.016C287.815 107.182 287.586 107.272 287.348 107.269H280.563C280.325 107.272 280.096 107.182 279.925 107.016C279.755 106.851 279.656 106.625 279.652 106.387C279.652 106.302 279.664 106.218 279.689 106.136H266.435V116.135Z" fill="white"/>
<path d="M260.647 102.188H305.847V98.7112H260.647V102.188Z" fill="#F0F0F0"/>
<path d="M318.005 98.7119H305.843V102.189H318.005V98.7119Z" fill="#E6E6E6"/>
<path d="M163.101 146.545H180.212V89.0792H163.101V146.545Z" fill="#F5F5F5"/>
<path d="M163.106 146.545H165.928V89.0792H163.106V146.545Z" fill="#F0F0F0"/>
<path d="M242.535 90.9795H177.575V105.358H242.535V90.9795Z" fill="#E6E6E6"/>
<path d="M242.535 109.663H177.575V112.984H242.535V109.663Z" fill="#E6E6E6"/>
<path d="M238.741 89.084H163.106V94.0774H238.741V89.084Z" fill="#F0F0F0"/>
<path d="M238.741 146.545H255.847V89.0792H238.741V146.545Z" fill="#F5F5F5"/>
<path d="M238.736 146.545H241.559V89.0792H238.736V146.545Z" fill="#F0F0F0"/>
<path d="M246 165.156C290.118 165.156 325.883 163.068 325.883 160.492C325.883 157.916 290.118 155.828 246 155.828C201.882 155.828 166.118 157.916 166.118 160.492C166.118 163.068 201.882 165.156 246 165.156Z" fill="#F5F5F5"/>
<path d="M220.044 51.2118C219.307 51.9126 218.431 52.4515 217.473 52.7939C217.421 51.7442 217.24 50.705 216.934 49.6998C216.934 49.6998 217.016 51.9452 216.377 53.1812C215.47 53.469 214.545 53.7001 213.609 53.8733C213.551 53.5937 213.474 53.3183 213.378 53.0493C213.349 53.3546 213.287 53.6557 213.193 53.9475C210.074 54.516 205.777 55.443 201.891 54.7715C199.522 51.7227 202.003 49.469 202.246 47.6686C202.563 45.312 200.355 44.7599 200.622 42.8482C200.89 40.9365 203.029 42.0984 204.104 39.9354C205.529 37.0514 208.661 35.3416 211.396 35.8813C215.018 36.6023 213.769 42.0283 216.567 43.7711C219.364 45.5138 220.753 48.5214 220.044 51.2118Z" fill="#263238"/>
<path d="M219.982 51.9237H219.949C219.937 51.9195 219.925 51.9129 219.915 51.9042C219.905 51.8954 219.897 51.8848 219.891 51.8729C219.886 51.861 219.882 51.848 219.882 51.8348C219.881 51.8216 219.883 51.8084 219.888 51.796C220.65 49.5794 221.008 46.7284 216.958 44.3264C215.463 43.4365 215.047 41.8338 214.639 40.2847C214.091 38.1876 213.58 36.21 210.42 36.2553C210.394 36.2534 210.37 36.2424 210.352 36.2242C210.334 36.2061 210.323 36.182 210.321 36.1564C210.32 36.143 210.321 36.1294 210.326 36.1166C210.33 36.1039 210.338 36.0922 210.347 36.0825C210.356 36.0727 210.368 36.0651 210.38 36.0601C210.393 36.0551 210.406 36.0528 210.42 36.0534C213.716 36.0081 214.293 38.1546 214.836 40.2311C215.228 41.7432 215.64 43.3046 217.061 44.1534C221.284 46.6583 220.802 49.7524 220.077 51.8619C220.069 51.8803 220.056 51.896 220.039 51.907C220.022 51.9179 220.002 51.9237 219.982 51.9237Z" fill="#263238"/>
<path d="M215.512 78.5352C215.512 78.5352 215.347 98.682 214.086 115.232C211.355 131.613 208.961 154.1 208.961 154.1H206.349C206.349 154.1 203.716 124.259 206.621 114.659C204.899 102.349 205.434 78.8689 205.434 78.8689L215.512 78.5352Z" fill="#B55B52"/>
<path d="M218.96 60.7741C218.96 60.9636 218.96 61.2438 218.96 61.4827L218.993 62.2367C219.022 62.7434 219.068 63.2502 219.125 63.7487C219.232 64.7439 219.405 65.7308 219.644 66.7028C219.874 67.6301 220.194 68.5326 220.6 69.3972C220.974 70.1954 221.481 70.924 222.1 71.552L222.252 71.7044C222.182 71.6331 222.091 71.5855 221.993 71.5685C221.943 71.5685 221.993 71.5932 222.12 71.5891C222.461 71.5529 222.794 71.4669 223.109 71.3336C223.951 70.9921 224.761 70.5786 225.532 70.0976C226.356 69.6074 227.155 69.0635 227.958 68.5032C228.762 67.9429 229.569 67.3578 230.348 66.781C230.536 66.6411 230.769 66.5755 231.002 66.5967C231.236 66.6179 231.453 66.7244 231.613 66.8958C231.772 67.0672 231.863 67.2916 231.868 67.5258C231.872 67.7601 231.791 67.9878 231.638 68.1654C230.954 68.9646 230.241 69.6856 229.503 70.4108C228.766 71.1359 227.987 71.8157 227.159 72.4708C226.303 73.1617 225.381 73.7675 224.407 74.2794C223.819 74.5816 223.19 74.7967 222.541 74.918C222.088 74.9998 221.623 74.9914 221.173 74.8933C220.58 74.762 220.043 74.4495 219.636 73.9993L219.793 74.1558C218.801 73.3012 217.974 72.2721 217.354 71.1194C216.766 70.0392 216.305 68.8944 215.982 67.708C215.662 66.5668 215.429 65.403 215.285 64.2266C215.215 63.6457 215.166 63.0607 215.133 62.4756C215.133 62.1831 215.104 61.8906 215.1 61.594C215.096 61.2973 215.1 61.0213 215.1 60.667C215.131 60.1747 215.35 59.7133 215.713 59.3792C216.076 59.0452 216.554 58.8643 217.047 58.8744C217.54 58.8845 218.01 59.0848 218.359 59.4335C218.708 59.7821 218.909 60.2521 218.919 60.7452L218.96 60.7741Z" fill="#B55B52"/>
<path d="M234.357 66.7569L234.254 65.1707C234.245 65.0455 234.21 64.9235 234.152 64.8125C234.093 64.7015 234.012 64.6041 233.913 64.5265C233.815 64.4488 233.701 64.3927 233.579 64.3618C233.458 64.3308 233.331 64.3257 233.207 64.3467C232.417 64.4801 231.692 64.8712 231.147 65.4591L229.417 67.3131L229.104 69.0435C230.496 69.7274 232.445 68.3266 232.445 68.3266L233.866 67.6262C234.025 67.546 234.156 67.4206 234.243 67.2659C234.331 67.1112 234.37 66.934 234.357 66.7569Z" fill="#B55B52"/>
<path d="M217.708 57.8612C220.439 60.0571 220.023 62.4797 220.629 64.2678C219.364 66.4102 214.362 67.4196 214.362 67.4196C214.362 67.4196 214.762 55.4922 217.708 57.8612Z" fill="#249748"/>
<path d="M218.919 60.2747C219.331 65.8985 215.916 70.1627 215.623 76.0914L201.426 75.7453C201.838 69.9773 201.665 70.5459 199.638 59.3766C199.582 59.0683 199.589 58.7518 199.66 58.4466C199.731 58.1414 199.864 57.8541 200.051 57.6023C200.237 57.3505 200.473 57.1396 200.745 56.9828C201.016 56.8259 201.316 56.7264 201.628 56.6903C202.682 56.5709 203.988 56.4555 205.36 56.4308C207.66 56.33 209.963 56.3948 212.253 56.6244C213.732 56.8016 215.31 57.0859 216.513 57.3248C217.926 57.5926 218.808 58.8327 218.919 60.2747Z" fill="#249748"/>
<path d="M212.657 62.2654C212.714 62.8464 212.422 63.316 212.002 63.316C211.581 63.316 211.178 62.8505 211.136 62.2696C211.095 61.6886 211.371 61.2148 211.791 61.2148C212.212 61.2148 212.599 61.6845 212.657 62.2654Z" fill="white"/>
<path d="M211.895 59.6425C212.851 59.8855 213.872 60.5406 214.28 62.2133C217.131 57.945 212.261 56.6143 212.261 56.6143L211.895 59.6425Z" fill="white"/>
<path d="M210.218 59.8641C209.867 59.8185 209.51 59.8427 209.169 59.9354C208.827 60.028 208.507 60.1873 208.227 60.404C207.947 60.6207 207.713 60.8906 207.538 61.1981C207.363 61.5056 207.25 61.8448 207.206 62.196C204.079 58.1255 205.369 56.4033 205.369 56.4033L210.218 59.8641Z" fill="white"/>
<path d="M206.271 48.6777C206.642 50.9067 206.963 54.9813 205.369 56.4192C205.369 56.4192 208.178 59.4639 211.38 60.2673C211.847 59.7974 212.177 59.2081 212.333 58.5636C212.488 57.9191 212.463 57.2443 212.261 56.6129C209.789 55.9537 209.921 54.1203 210.399 52.4105L206.271 48.6777Z" fill="#B55B52"/>
<path opacity="0.2" d="M207.952 50.2031L210.399 52.4073C210.278 52.8107 210.195 53.2245 210.152 53.6433C209.208 53.4785 207.939 52.4073 207.869 51.4144C207.822 51.009 207.849 50.5983 207.952 50.2031Z" fill="black"/>
<path d="M203.655 46.198C205.105 49.6135 205.649 51.0884 208.047 52.2544C211.652 54.0095 215.529 51.4798 215.129 47.7018C214.766 44.2987 212.455 39.2888 208.537 39.1075C207.676 39.0658 206.818 39.2447 206.046 39.6273C205.273 40.0098 204.611 40.5833 204.122 41.2935C203.633 42.0036 203.333 42.8268 203.252 43.6851C203.17 44.5434 203.309 45.4084 203.655 46.198Z" fill="#B55B52"/>
<path d="M203.214 43.4746C207.853 43.4375 214.338 41.1179 212.43 38.6912C211.454 33.8626 203.28 38.889 203.214 43.4746Z" fill="#263238"/>
<path d="M203.914 42.675C207.021 44.4136 206.197 47.7797 204.227 48.443C202.147 45.9463 201.627 42.2383 203.914 42.675Z" fill="#263238"/>
<path d="M209.604 47.5826C209.604 47.5826 210.658 47.389 213.58 47.5538C213.168 48.4478 212.504 49.1606 211.009 49.0617C210.817 49.0637 210.627 49.0263 210.451 48.9517C210.275 48.8772 210.116 48.767 209.984 48.6282C209.852 48.4894 209.75 48.325 209.685 48.145C209.619 47.9651 209.592 47.7737 209.604 47.5826Z" fill="#263238"/>
<path d="M211.606 48.1057C211.033 48.0409 210.455 48.1638 209.958 48.4559C210.22 48.663 210.543 48.7787 210.877 48.7855C211.45 48.85 212.029 48.7256 212.525 48.4312C212.263 48.2246 211.94 48.1102 211.606 48.1057Z" fill="#A02724"/>
<path d="M209.744 47.5608C209.744 47.7339 209.826 47.8369 210.094 47.9481C210.876 48.0416 211.665 48.0609 212.451 48.0058C212.832 47.9906 213.192 47.8247 213.452 47.5444C212.217 47.4514 210.977 47.4569 209.744 47.5608Z" fill="white"/>
<path d="M209.25 45.1515C209.348 45.4358 209.579 45.613 209.769 45.5635C209.958 45.5141 210.02 45.2133 209.921 44.929C209.822 44.6448 209.587 44.4676 209.402 44.517C209.217 44.5665 209.147 44.8672 209.25 45.1515Z" fill="#263238"/>
<path d="M212.892 43.8732C212.99 44.1575 213.225 44.3346 213.411 44.2852C213.596 44.2358 213.666 43.935 213.563 43.6507C213.46 43.3664 213.229 43.1893 213.044 43.2387C212.859 43.2882 212.793 43.5889 212.892 43.8732Z" fill="#263238"/>
<path d="M212.97 43.2846L213.584 42.8438C213.584 42.8438 213.419 43.5029 212.97 43.2846Z" fill="#263238"/>
<path d="M211.853 44.5781C212.333 45.137 212.887 45.6265 213.501 46.0325C213.393 46.1881 213.252 46.3182 213.089 46.4135C212.925 46.5089 212.742 46.5673 212.554 46.5846L211.853 44.5781Z" fill="#A02724"/>
<path d="M203.564 49.5017C203.805 49.7674 204.097 49.9825 204.423 50.1345C204.748 50.2865 205.1 50.3726 205.459 50.3875C206.411 50.4205 206.662 49.5182 206.209 48.7395C205.797 48.0391 204.82 47.1781 203.955 47.5035C203.771 47.5833 203.61 47.7066 203.484 47.8627C203.358 48.0188 203.273 48.2031 203.234 48.3998C203.196 48.5964 203.206 48.7994 203.263 48.9914C203.32 49.1834 203.424 49.3585 203.564 49.5017Z" fill="#B55B52"/>
<path d="M207.569 44.6448C207.591 44.6394 207.612 44.6293 207.631 44.6151C207.649 44.6009 207.665 44.5829 207.676 44.5624C207.778 44.3644 207.926 44.1934 208.107 44.0638C208.288 43.9341 208.498 43.8494 208.718 43.8167C208.764 43.8115 208.807 43.7892 208.837 43.7541C208.868 43.719 208.884 43.6737 208.883 43.6272C208.881 43.6039 208.875 43.5811 208.865 43.5602C208.854 43.5393 208.84 43.5207 208.822 43.5054C208.805 43.4901 208.784 43.4784 208.762 43.471C208.74 43.4636 208.717 43.4607 208.693 43.4624C208.414 43.4988 208.147 43.602 207.916 43.7634C207.685 43.9248 207.497 44.1395 207.367 44.3894C207.345 44.4304 207.34 44.4785 207.353 44.5232C207.366 44.568 207.396 44.6057 207.437 44.6283C207.456 44.6401 207.478 44.6476 207.501 44.6505C207.524 44.6533 207.547 44.6514 207.569 44.6448Z" fill="#263238"/>
<path d="M213.205 42.5268C213.244 42.5034 213.273 42.4669 213.287 42.4238C213.294 42.4016 213.296 42.3783 213.294 42.3552C213.292 42.3321 213.285 42.3096 213.274 42.2893C213.262 42.2689 213.247 42.251 213.229 42.2366C213.211 42.2222 213.19 42.2116 213.168 42.2054C212.901 42.1165 212.616 42.0936 212.338 42.1388C212.061 42.184 211.798 42.296 211.573 42.465C211.539 42.4958 211.519 42.5383 211.516 42.5838C211.513 42.6293 211.527 42.6742 211.556 42.7093C211.586 42.7443 211.627 42.7667 211.673 42.7719C211.718 42.777 211.763 42.7645 211.8 42.7369C211.98 42.6059 212.188 42.5199 212.409 42.4862C212.629 42.4525 212.854 42.4721 213.065 42.5433C213.088 42.55 213.112 42.5521 213.136 42.5492C213.16 42.5464 213.184 42.5388 213.205 42.5268Z" fill="#263238"/>
<path d="M209.332 44.561L209.942 44.1201C209.942 44.1201 209.777 44.7793 209.332 44.561Z" fill="#263238"/>
<path d="M211.713 79.0215C211.713 79.0215 209.068 99.6215 204.8 115.895C198.974 128.293 192.114 137.867 185.082 148.031L182.61 146.713C187.434 135.762 192.597 122.792 197.483 114.256C201.018 83.1827 200.626 79.0338 200.626 79.0338L211.713 79.0215Z" fill="#B55B52"/>
<path d="M186.795 156.272C186.639 155.609 185.304 153.862 185.304 153.862C185.304 153.862 184.892 151.493 186.103 147.126C186.118 147.075 186.118 147.021 186.103 146.97C186.089 146.919 186.06 146.873 186.021 146.837L183.598 144.645C183.529 144.587 183.44 144.558 183.35 144.563C183.259 144.568 183.174 144.608 183.112 144.674C182.906 144.889 182.239 146.075 182 146.438C181.761 146.8 181.406 147.328 181.176 147.674C180.352 148.976 178.593 151.954 178.593 151.954L178.91 152.123C179.492 151.241 180.127 150.393 180.809 149.585C181.526 148.823 181.493 150.166 181.221 151.316C180.949 152.465 181.683 154.257 183.693 155.436C186.083 156.767 186.96 156.952 186.795 156.272Z" fill="#263238"/>
<path d="M215.631 76.0795C218.639 85.5884 216.352 95.2416 214.923 113.468C208.331 114.461 202.427 113.468 195.641 111.408C200 90.4871 194.623 85.2712 201.434 75.7334L215.631 76.0795Z" fill="#249748"/>
<path d="M201.19 74.6952C201.109 75.0644 201.054 75.4388 201.026 75.8158C201.012 75.8881 201.025 75.963 201.062 76.0267C201.099 76.0903 201.158 76.1383 201.228 76.1619C202.756 76.3967 211.705 77.6986 215.701 76.7098C215.758 76.6868 215.806 76.6457 215.837 76.5928C215.868 76.54 215.881 76.4783 215.874 76.4173C215.874 76.0754 215.874 75.5398 215.874 75.206C215.874 75.033 215.771 74.8888 215.643 74.8888C214.247 74.8888 206.876 74.9218 201.396 74.5098C201.346 74.5104 201.296 74.5296 201.259 74.5637C201.221 74.5978 201.196 74.6445 201.19 74.6952Z" fill="#263238"/>
<path d="M208.446 74.5515C209.134 74.3703 213.172 74.4897 213.538 74.6587C213.905 74.8276 213.728 77.0565 213.402 77.1966C212.756 77.485 209.076 77.4108 208.413 77.2625C207.75 77.1142 207.976 74.6957 208.446 74.5515Z" fill="white"/>
<path opacity="0.2" d="M208.487 99.1103L209.044 89.9227L212.216 85.5596L208.487 99.1103Z" fill="black"/>
<path d="M202.287 61.9242C201.739 62.5998 201.137 63.3456 200.598 64.083C200.058 64.8205 199.502 65.5704 199.007 66.3367C198.014 67.7674 197.215 69.3231 196.63 70.9634C196.581 71.153 196.523 71.3384 196.49 71.5155L196.461 71.6309C196.461 71.6309 196.461 71.6515 196.461 71.6803C196.501 71.951 196.591 72.2121 196.725 72.4508C197.14 73.1881 197.633 73.8787 198.196 74.5108C199.427 75.9078 200.735 77.2351 202.114 78.4866L202.138 78.5113C202.308 78.6703 202.414 78.8859 202.435 79.1175C202.457 79.349 202.393 79.5804 202.255 79.768C202.118 79.9556 201.917 80.0864 201.689 80.1358C201.462 80.1851 201.225 80.1495 201.022 80.0357C199.263 79.0592 197.614 77.8976 196.103 76.5708C195.279 75.8558 194.548 75.0406 193.927 74.1441C193.531 73.5727 193.251 72.9287 193.103 72.2489C193.061 72.0275 193.039 71.8027 193.037 71.5773C193.037 71.462 193.037 71.3342 193.037 71.2065C193.037 71.0788 193.058 71.05 193.07 70.9676C193.107 70.6668 193.169 70.3866 193.227 70.1024C193.485 69.0455 193.853 68.0182 194.323 67.0371C194.764 66.1052 195.259 65.1999 195.806 64.3261C196.342 63.4609 196.894 62.6163 197.495 61.8129C198.097 61.0095 198.694 60.2308 199.399 59.4357C199.733 59.0719 200.195 58.8517 200.688 58.8211C201.181 58.7905 201.667 58.9519 202.043 59.2715C202.42 59.5911 202.658 60.0442 202.708 60.5356C202.758 61.027 202.616 61.5188 202.311 61.9077L202.287 61.9242Z" fill="#B55B52"/>
<path d="M201.805 56.6586C199.115 56.8193 198.233 58.3478 197.306 59.9917C198.13 62.336 201.55 66.1017 201.55 66.1017C201.55 66.1017 206.691 56.3702 201.805 56.6586Z" fill="#249748"/>
<path d="M231.254 64.5853C226.677 61.5653 220.592 63.271 217.658 68.388C213.077 65.3681 206.992 67.0737 204.062 72.1908C201.133 77.3078 202.472 83.9081 207.049 86.928L223.632 97.8584L234.237 79.3184C237.175 74.2013 235.836 67.6052 231.254 64.5853Z" fill="#249748"/>
<path opacity="0.9" d="M231.254 64.5853C226.677 61.5653 220.592 63.271 217.658 68.388C213.077 65.3681 206.992 67.0737 204.062 72.1908C201.133 77.3078 202.472 83.9081 207.049 86.928L223.632 97.8584L234.237 79.3184C237.175 74.2013 235.836 67.6052 231.254 64.5853Z" fill="white"/>
<path opacity="0.2" d="M208.067 85.1681C207.161 84.5551 206.385 83.7682 205.785 82.853C205.186 81.9378 204.774 80.9125 204.573 79.8368C204.119 77.5823 204.499 75.2393 205.645 73.2448C206.715 71.2978 208.514 69.8547 210.646 69.2319C211.656 68.9417 212.716 68.8746 213.754 69.0354C214.792 69.1962 215.783 69.581 216.657 70.163L218.231 71.2013L219.236 69.442C220.308 67.4948 222.108 66.0518 224.242 65.4291C225.251 65.139 226.311 65.072 227.348 65.2328C228.386 65.3936 229.376 65.7783 230.249 66.3603C233.957 68.8034 235.041 74.1594 232.672 78.3083L223.076 95.0849L208.067 85.1681Z" fill="#249748"/>
<path d="M223.937 87.1422L219.261 88.4483L216.25 73.6039L220.926 72.2979L223.937 87.1422Z" fill="#249748"/>
<path d="M213.761 84.8221L212.731 79.7545L226.426 75.9229L227.452 80.9905L213.761 84.8221Z" fill="#249748"/>
<path d="M200.939 77.8271L204.491 77.9137L202.624 80.7688C202.624 80.7688 200.507 80.2456 199.963 78.75L200.939 77.8271Z" fill="#B55B52"/>
<path d="M205.962 79.9731L205.29 81.4769C205.253 81.5657 205.197 81.6451 205.125 81.7094C205.053 81.7738 204.969 81.8215 204.876 81.849C204.784 81.8766 204.687 81.8834 204.592 81.8689C204.497 81.8544 204.406 81.8191 204.326 81.7653L202.625 80.7682L204.491 77.9131L205.752 79.0749C205.872 79.1866 205.957 79.3318 205.994 79.4919C206.032 79.6519 206.02 79.8195 205.962 79.9731Z" fill="#B55B52"/>
<path d="M215.005 159.762C214.507 159.251 212.607 158.58 212.607 158.58C212.607 158.58 210.832 156.194 209.423 151.778C209.406 151.725 209.376 151.678 209.335 151.64C209.295 151.603 209.246 151.576 209.192 151.563L205.954 150.789C205.91 150.775 205.863 150.771 205.818 150.777C205.772 150.783 205.729 150.798 205.689 150.823C205.65 150.847 205.617 150.879 205.592 150.917C205.566 150.956 205.549 150.999 205.542 151.044C205.488 151.328 205.542 152.952 205.542 153.388C205.542 153.825 205.542 154.451 205.542 154.868C205.57 156.404 205.739 159.861 205.739 159.861H206.098C206.099 158.813 206.164 157.766 206.291 156.726C206.469 155.712 207.186 156.911 207.585 158.056C207.985 159.202 209.596 160.421 211.936 160.479C214.688 160.545 215.512 160.294 215.005 159.762Z" fill="#263238"/>
<path d="M279.524 150.686L285.828 150.743L285.589 158.184L280.324 158.139L279.524 150.686Z" fill="#FFC3BD"/>
<path opacity="0.2" d="M279.529 150.686L285.832 150.747L285.696 154.913L279.974 154.863L279.529 150.686Z" fill="black"/>
<path d="M286.216 121.063C288.416 111.278 292.058 100.945 288.222 92.165L270.72 93.6936C270.72 93.6936 272.455 114.52 272.92 123.32C273.406 132.471 279.347 153.582 279.347 153.582H286.557C286.557 153.582 287.67 131.194 286.216 121.063Z" fill="#263238"/>
<path d="M286.598 160.483H284.95L284.538 159.927L283.85 160.491H274.556C274.464 159.849 274.55 159.194 274.803 158.596C274.803 158.596 278.029 158.073 279.277 157.216C279.383 157.143 279.503 157.092 279.629 157.067C279.755 157.041 279.885 157.042 280.011 157.068C281.135 157.282 284.11 157.764 285.721 157.138C285.761 157.126 285.802 157.123 285.843 157.13C285.884 157.136 285.923 157.151 285.958 157.175C285.992 157.198 286.021 157.228 286.042 157.264C286.063 157.3 286.076 157.34 286.079 157.381C286.172 158.427 286.345 159.464 286.598 160.483Z" fill="#263238"/>
<path d="M306.704 146.367L312.777 144.665L315.117 151.731L310.045 153.16L306.704 146.367Z" fill="#FFC3BD"/>
<path opacity="0.2" d="M306.708 146.371L312.781 144.665L314.091 148.624L308.578 150.173L306.708 146.371Z" fill="black"/>
<path d="M305.917 119.279C305.563 109.729 304.965 95.4452 301.385 91.3623L281.786 92.6931C281.786 92.6931 289.107 113.013 291.93 121.599C294.867 130.527 307.549 149.141 307.549 149.141L314.099 147.258C314.099 147.258 309.448 129.905 305.917 119.279Z" fill="#263238"/>
<path d="M252.786 79.0713L253.325 81.6711C252.913 84.4273 249.444 83.2531 249.444 83.2531L247.561 83.3603C247.227 83.3583 246.905 83.2373 246.652 83.0191C246.399 82.8009 246.232 82.4997 246.181 82.1696L245.79 80.3568C245.686 79.9886 245.729 79.5943 245.912 79.2579C246.094 78.9215 246.401 78.6698 246.766 78.5563L248.373 78.1979C248.84 78.0947 249.325 78.1074 249.786 78.235L252.786 79.0713Z" fill="#FFC3BD"/>
<path d="M242.906 84.3077C241.456 84.305 240.049 83.8165 238.909 82.9204C237.77 82.0242 236.963 80.7719 236.619 79.3637C236.58 79.2041 236.606 79.0357 236.691 78.8955C236.777 78.7552 236.914 78.6547 237.074 78.6159C237.233 78.5771 237.402 78.6033 237.542 78.6886C237.682 78.774 237.783 78.9116 237.822 79.0711C238.15 80.4233 239.001 81.59 240.189 82.3143C241.377 83.0387 242.804 83.2615 244.156 82.9336C245.508 82.6058 246.675 81.7543 247.399 80.5663C248.124 79.3784 248.347 77.9513 248.019 76.5991L230.933 5.92878C230.895 5.76925 230.922 5.60106 231.007 5.46121C231.093 5.32136 231.231 5.2213 231.39 5.18306C231.55 5.14482 231.718 5.17151 231.858 5.25728C231.998 5.34304 232.098 5.48085 232.136 5.64038L249.218 76.2984C249.419 77.1259 249.455 77.9851 249.324 78.8267C249.193 79.6683 248.897 80.4758 248.454 81.2029C248.01 81.93 247.428 82.5625 246.739 83.0642C246.051 83.5658 245.271 83.9268 244.443 84.1264C243.939 84.2475 243.423 84.3084 242.906 84.3077Z" fill="#263238"/>
<path d="M187.339 37.5664C187.15 35.8648 190.153 33.7513 194.224 32.7666C198.439 31.7489 202.18 32.3216 202.6 34.0479C202.188 32.3216 206.399 29.8249 212.018 28.4653C217.638 27.1057 222.516 27.4023 222.928 29.1286C222.516 27.4023 228.197 24.5513 235.626 22.755C243.054 20.9587 249.428 20.8969 249.844 22.6231C249.432 20.8969 253.638 18.4001 259.258 17.0405C264.878 15.6809 269.76 15.9776 270.176 17.7039C269.764 15.9776 272.838 13.7569 277.04 12.7599C281.111 11.7752 284.761 12.2778 285.367 13.8846C282.627 3.49811 258.727 0.354548 231.782 6.88063C204.837 13.4067 185.024 27.0769 187.339 37.5664Z" fill="#249748"/>
<path opacity="0.2" d="M202.6 34.0482C202.188 32.322 206.399 29.8252 212.018 28.4656C217.638 27.106 222.516 27.4027 222.928 29.129C222.516 27.4027 228.198 24.5516 235.626 22.7553C243.054 20.959 249.428 20.8972 249.844 22.6235C249.432 20.8972 253.639 18.4005 259.258 17.0409C264.878 15.6813 269.76 15.9779 270.176 17.7042C267.638 7.19819 250.45 2.3366 231.782 6.85212C213.114 11.3676 200.058 23.5381 202.6 34.0482Z" fill="black"/>
<path d="M222.928 29.1282C222.516 27.4019 228.198 24.5509 235.626 22.7545C243.054 20.9582 249.428 20.8964 249.844 22.6227C247.314 12.1126 239.223 5.06738 231.794 6.85134C224.366 8.6353 220.398 18.6181 222.928 29.1282Z" fill="#249748"/>
<path d="M253.416 79.3727C252.291 77.3869 250.248 77.5022 248.637 77.0943C248.365 77.0243 247.932 77.6423 248.266 78.0296C248.45 78.2837 248.684 78.4981 248.953 78.6602C249.222 78.8223 249.521 78.9287 249.832 78.9731C249.91 79.6817 250.816 81.5357 252.819 81.3338C253.251 80.7753 253.464 80.0775 253.416 79.3727Z" fill="#FFC3BD"/>
<path d="M282.071 63.0532C281.214 64.3386 280.332 65.5829 279.454 66.8395C278.577 68.0961 277.679 69.3362 276.768 70.5722C274.951 73.0442 273.093 75.4956 271.136 77.9387L270.312 78.9811L269.542 79.3148C269.13 79.492 268.718 79.6774 268.334 79.8298L267.206 80.2418C266.48 80.4808 265.759 80.7156 265.055 80.9175C263.646 81.3295 262.249 81.6838 260.865 82.0134C259.481 82.343 258.088 82.6314 256.704 82.8951C255.319 83.1588 253.935 83.406 252.51 83.6079L250.824 77.1395L258.422 74.1648C259.678 73.6787 260.894 73.1595 262.109 72.6528C262.711 72.3973 263.279 72.1337 263.844 71.8741L264.626 71.4621L265.294 71.0913L263.687 72.4674C265.315 69.9954 266.938 67.4451 268.569 64.9113L271.041 61.1044C271.865 59.8437 272.689 58.5624 273.513 57.3223L282.071 63.0532Z" fill="#249748"/>
<g opacity="0.6">
<path d="M282.071 63.0532C281.214 64.3386 280.332 65.5829 279.454 66.8395C278.577 68.0961 277.679 69.3362 276.768 70.5722C274.951 73.0442 273.093 75.4956 271.136 77.9387L270.312 78.9811L269.542 79.3148C269.13 79.492 268.718 79.6774 268.334 79.8298L267.206 80.2418C266.48 80.4808 265.759 80.7156 265.055 80.9175C263.646 81.3295 262.249 81.6838 260.865 82.0134C259.481 82.343 258.088 82.6314 256.704 82.8951C255.319 83.1588 253.935 83.406 252.51 83.6079L250.824 77.1395L258.422 74.1648C259.678 73.6787 260.894 73.1595 262.109 72.6528C262.711 72.3973 263.279 72.1337 263.844 71.8741L264.626 71.4621L265.294 71.0913L263.687 72.4674C265.315 69.9954 266.938 67.4451 268.569 64.9113L271.041 61.1044C271.865 59.8437 272.689 58.5624 273.513 57.3223L282.071 63.0532Z" fill="white"/>
</g>
<path d="M277.922 53.9025C283.681 52.8235 289.543 52.3868 295.399 52.6006C296.201 52.6464 296.986 52.8556 297.705 53.2153C298.424 53.5749 299.062 54.0775 299.58 54.6923C300.098 55.3071 300.485 56.0211 300.717 56.7907C300.95 57.5602 301.023 58.3691 300.932 59.1679C299.457 73.077 302.287 89.4251 302.25 92.1526C302.25 92.1526 276.706 102.671 269.871 94.7029C266.575 78.124 271.321 63.6875 273.538 57.6517C273.885 56.7032 274.471 55.8601 275.239 55.2035C276.007 54.5469 276.931 54.0988 277.922 53.9025Z" fill="#249748"/>
<path d="M301.15 55.0925C300.05 53.6835 298.093 51.8295 291.53 52.1673C285.836 57.1525 281.869 64.0164 281.869 64.0164C281.869 64.0164 278.251 58.9035 281.683 53.0984C277.905 53.2014 275.433 54.3715 274.543 54.9895C273.653 55.6075 269.29 63.9134 268.326 77.0974C267.362 90.2814 269.484 114.936 270.308 121.251C282.598 126.195 302.922 120.633 307.248 116.307C306.7 106.284 302.926 91.2455 302.238 84.8595C301.55 78.4735 302.934 57.8735 301.15 55.0925Z" fill="#249748"/>
<path opacity="0.7" d="M301.15 55.0925C300.05 53.6835 298.093 51.8295 291.53 52.1673C285.836 57.1525 281.869 64.0164 281.869 64.0164C281.869 64.0164 278.251 58.9035 281.683 53.0984C277.905 53.2014 275.433 54.3715 274.543 54.9895C273.653 55.6075 269.29 63.9134 268.326 77.0974C267.362 90.2814 269.484 114.936 270.308 121.251C282.598 126.195 302.922 120.633 307.248 116.307C306.7 106.284 302.926 91.2455 302.238 84.8595C301.55 78.4735 302.934 57.8735 301.15 55.0925Z" fill="white"/>
<path d="M280.761 54.6602C281.076 53.8863 281.644 53.2417 282.371 52.8309C282.588 52.0703 282.536 51.2584 282.223 50.5319L290.574 47.0176C290.134 49.9222 289.796 52.217 290.986 53.5025C289.388 54.6849 286.454 56.8191 283.072 57.0292C279.689 57.2393 280.32 55.9003 280.761 54.6602Z" fill="#FFC3BD"/>
<path opacity="0.2" d="M282.314 50.799L288.733 49.835C286.912 52.1751 283.925 53.2628 282.454 52.513C282.554 51.9391 282.506 51.349 282.314 50.799Z" fill="black"/>
<path d="M282.862 57.0378L284.151 55.7441L286.112 56.5146C286.112 56.5146 285.017 57.7506 282.862 57.0378Z" fill="#249748"/>
<path opacity="0.3" d="M282.862 57.0378L284.151 55.7441L286.112 56.5146C286.112 56.5146 285.017 57.7506 282.862 57.0378Z" fill="black"/>
<path d="M282.079 45.7238C280.394 45.456 279.607 43.0211 280.711 41.6697C281.815 40.3183 279.195 39.7992 280.064 38.4973C280.933 37.1954 283.426 35.8893 284.946 37.0883C286.467 38.2872 283.014 41.8345 283.76 43.9357C283.231 44.5604 282.67 45.1572 282.079 45.7238Z" fill="#263238"/>
<path d="M291.852 42.4804C291.209 46.5715 290.686 49.3361 288.144 50.8481C283.076 53.8516 280.439 51.3384 279.846 47.1401C279.31 43.3538 280.447 37.3015 284.633 36.082C285.558 35.8132 286.536 35.7831 287.476 35.9944C288.415 36.2057 289.286 36.6516 290.007 37.2905C290.728 37.9294 291.275 38.7404 291.597 39.648C291.92 40.5555 292.007 41.5299 291.852 42.4804Z" fill="#FFC3BD"/>
<path d="M290.026 46.8171C288.44 46.195 288.189 43.6406 289.569 42.5653C290.949 41.4899 288.494 40.4105 289.627 39.3228C290.76 38.2351 294.089 37.1722 294.694 39.0056C295.646 41.8896 291.781 43.2245 292.053 45.4369C291.402 45.9318 290.725 46.3925 290.026 46.8171Z" fill="#263238"/>
<path d="M290.43 39.1479C286.463 40.5158 287.406 37.7306 285.198 38.1179C282.989 38.5052 280.789 38.8842 280.34 36.8819C279.974 35.2669 281.045 33.7919 283.171 33.9361C282.071 34.6695 282.347 35.3987 283.43 35.032C284.514 34.6654 287.249 32.0162 288.679 34.1256C290.109 36.2351 292.568 34.6159 293.718 35.992C294.867 37.3681 293.026 39.6753 290.43 39.1479Z" fill="#263238"/>
<path d="M280.785 50.1164C280.901 49.918 281.057 49.7463 281.244 49.6128C281.431 49.4793 281.644 49.3869 281.869 49.3418C282.425 49.5332 282.934 49.8392 283.364 50.24C283.57 51.237 281.304 52.2423 280.975 52.3782C280.859 51.4883 280.785 50.1164 280.785 50.1164Z" fill="#263238"/>
<path opacity="0.2" d="M286.376 42.7705C286.611 42.685 286.86 42.6469 287.11 42.6582C287.36 42.6695 287.604 42.7301 287.831 42.8364C287.346 42.9078 286.852 42.8854 286.376 42.7705Z" fill="black"/>
<path opacity="0.2" d="M286.376 43.1156C286.602 43.0853 286.833 43.1042 287.051 43.1711C287.269 43.2379 287.471 43.3511 287.641 43.5028C287.197 43.4657 286.765 43.3336 286.376 43.1156Z" fill="black"/>
<path opacity="0.2" d="M280.703 42.2925C280.703 42.2925 280.365 41.8805 280.114 42.1112C280.279 42.2456 280.49 42.3106 280.703 42.2925Z" fill="black"/>
<path opacity="0.2" d="M280.641 42.6133C280.641 42.6133 280.365 42.2507 280.188 42.6133C280.255 42.6576 280.334 42.6812 280.414 42.6812C280.495 42.6812 280.574 42.6576 280.641 42.6133Z" fill="black"/>
<path opacity="0.2" d="M281.939 39.1231C283.142 38.9007 284.37 38.8453 285.589 38.9583C283.566 39.1478 281.939 39.1231 281.939 39.1231Z" fill="black"/>
<path opacity="0.2" d="M281.469 39.6758C281.469 39.6758 284.258 39.5769 285.655 40.129C284.25 40.0902 282.85 39.9386 281.469 39.6758Z" fill="black"/>
<path d="M293.421 46.7172C293.134 47.1428 292.766 47.5075 292.337 47.7903C291.909 48.0731 291.429 48.2685 290.925 48.3652C289.569 48.6165 289 47.3764 289.466 46.1569C289.878 45.0609 291.114 43.6107 292.42 43.9073C293.726 44.204 294.118 45.6501 293.421 46.7172Z" fill="#FFC3BD"/>
<path d="M285.264 42.8845C285.231 43.2183 285.029 43.4696 284.811 43.449C284.592 43.4284 284.44 43.1359 284.469 42.8021C284.497 42.4684 284.703 42.213 284.926 42.2336C285.148 42.2542 285.297 42.5591 285.264 42.8845Z" fill="#263238"/>
<path d="M281.708 42.5965C281.675 42.9302 281.473 43.1815 281.255 43.1609C281.037 43.1403 280.884 42.8478 280.913 42.5141C280.942 42.1803 281.148 41.9249 281.37 41.9455C281.593 41.9661 281.741 42.2586 281.708 42.5965Z" fill="#263238"/>
<path d="M284.835 46.5977C285.362 46.9849 286.862 46.7336 286.965 46.1857C287.933 46.8449 287.142 47.8707 285.729 48.1839C284.316 48.497 282.483 47.9243 282.079 47.4134L282.128 45.7201C283.199 45.5182 283.904 45.922 284.835 46.5977Z" fill="#263238"/>
<path d="M280.109 46.1738C279.537 46.5529 279.166 46.3098 279.187 45.7618C278.288 46.3057 278.363 47.1626 279.413 47.6282C280.464 48.0938 281.679 47.8795 282.095 47.4222L282.194 45.7495C281.387 45.4446 280.975 45.6053 280.109 46.1738Z" fill="#263238"/>
<path d="M282.837 42.9717L282.59 45.7898C282.59 45.7898 281.494 45.9381 280.905 45.4025C281.318 44.4329 281.986 43.5931 282.837 42.9717Z" fill="#ED847E"/>
<path d="M286.471 41.8877C286.506 41.8879 286.54 41.8779 286.57 41.8589C286.614 41.8309 286.645 41.7866 286.657 41.7357C286.668 41.6847 286.659 41.6313 286.631 41.587C286.474 41.3144 286.253 41.0835 285.988 40.9136C285.723 40.7438 285.421 40.6398 285.107 40.6105C285.081 40.6094 285.056 40.6135 285.031 40.6225C285.007 40.6314 284.985 40.6452 284.966 40.6628C284.947 40.6805 284.932 40.7017 284.922 40.7253C284.911 40.7488 284.906 40.7743 284.905 40.8001C284.904 40.826 284.908 40.852 284.917 40.8764C284.926 40.9008 284.94 40.9232 284.957 40.9423C284.975 40.9615 284.996 40.977 285.02 40.9879C285.043 40.9988 285.069 41.005 285.095 41.0061C285.343 41.0332 285.581 41.1187 285.791 41.2554C286 41.3921 286.173 41.5763 286.298 41.793C286.315 41.8228 286.341 41.8474 286.371 41.864C286.402 41.8807 286.436 41.8889 286.471 41.8877Z" fill="#263238"/>
<path d="M279.875 41.398C279.908 41.4005 279.941 41.3947 279.971 41.381C280.001 41.3673 280.028 41.3463 280.048 41.3197C280.194 41.1202 280.386 40.9588 280.607 40.8491C280.829 40.7394 281.073 40.6846 281.321 40.6894C281.347 40.6916 281.373 40.6887 281.398 40.6808C281.423 40.6729 281.446 40.6602 281.466 40.6433C281.485 40.6265 281.502 40.6059 281.514 40.5827C281.526 40.5594 281.533 40.5341 281.535 40.5081C281.538 40.4559 281.521 40.4043 281.488 40.3643C281.454 40.3244 281.406 40.2991 281.354 40.2939C281.041 40.2844 280.73 40.3506 280.448 40.4868C280.166 40.6231 279.921 40.8255 279.734 41.0767C279.703 41.1178 279.688 41.1698 279.694 41.2215C279.7 41.2731 279.727 41.3203 279.767 41.3527C279.798 41.377 279.835 41.3927 279.875 41.398Z" fill="#263238"/>
<path d="M309.143 88.264L311.615 87.2999C314.404 87.2752 313.819 90.8679 313.819 90.8679L314.231 92.7095C314.284 93.0383 314.218 93.3752 314.046 93.6599C313.873 93.9445 313.604 94.1583 313.288 94.2627L311.561 94.9508C311.216 95.1139 310.82 95.1354 310.459 95.0107C310.098 94.886 309.8 94.6249 309.629 94.2833L309.007 92.7589C308.827 92.3153 308.759 91.8342 308.809 91.3581L309.143 88.264Z" fill="#FFC3BD"/>
<path d="M300.631 54.54L301.171 54.952L301.657 55.364C301.974 55.6277 302.279 55.8955 302.584 56.1633C303.194 56.703 303.791 57.2469 304.376 57.8113C305.546 58.9278 306.671 60.1103 307.759 61.3463C308.308 61.9643 308.84 62.6015 309.353 63.258C309.867 63.9144 310.367 64.6011 310.853 65.318C311.867 66.7895 312.746 68.349 313.482 69.9777L313.848 70.8017L313.894 71.4114C314.005 72.8452 314.091 74.2954 314.182 75.7251L314.458 80.0387C314.615 82.9227 314.771 85.8067 314.87 88.6907L307.631 89.4941C307.087 86.6678 306.605 83.8332 306.115 81.0028L305.423 76.7551C305.192 75.3378 304.961 73.9205 304.751 72.5032L305.163 73.937C304.578 72.8889 303.902 71.8936 303.144 70.9624C302.345 69.9777 301.463 69.0054 300.524 68.0536C299.585 67.1019 298.584 66.1832 297.554 65.2932C297.04 64.8428 296.517 64.4047 295.984 63.979L295.193 63.3527L294.801 63.052L294.459 62.7965L300.631 54.54Z" fill="#249748"/>
<g opacity="0.7">
<path d="M300.631 54.54L301.171 54.952L301.657 55.364C301.974 55.6277 302.279 55.8955 302.584 56.1633C303.194 56.703 303.791 57.2469 304.376 57.8113C305.546 58.9278 306.671 60.1103 307.759 61.3463C308.308 61.9643 308.84 62.6015 309.353 63.258C309.867 63.9144 310.367 64.6011 310.853 65.318C311.867 66.7895 312.746 68.349 313.482 69.9777L313.848 70.8017L313.894 71.4114C314.005 72.8452 314.091 74.2954 314.182 75.7251L314.458 80.0387C314.615 82.9227 314.771 85.8067 314.87 88.6907L307.631 89.4941C307.087 86.6678 306.605 83.8332 306.115 81.0028L305.423 76.7551C305.192 75.3378 304.961 73.9205 304.751 72.5032L305.163 73.937C304.578 72.8889 303.902 71.8936 303.144 70.9624C302.345 69.9777 301.463 69.0054 300.524 68.0536C299.585 67.1019 298.584 66.1832 297.554 65.2932C297.04 64.8428 296.517 64.4047 295.984 63.979L295.193 63.3527L294.801 63.052L294.459 62.7965L300.631 54.54Z" fill="white"/>
</g>
<path d="M290.22 51.7012C290.22 51.7012 287.748 55.2485 284.151 55.7511C285.605 56.3506 286.902 57.2735 287.946 58.4497C287.946 58.4497 291.654 55.5657 292.16 52.7394C291.802 51.7218 290.22 51.7012 290.22 51.7012Z" fill="#249748"/>
<path opacity="0.3" d="M284.065 121.734C284.017 121.735 283.971 121.718 283.934 121.688C283.897 121.658 283.872 121.616 283.863 121.569C278.177 93.5241 281.547 64.7954 281.58 64.507C281.584 64.4799 281.592 64.4538 281.605 64.43C281.619 64.4063 281.637 64.3854 281.658 64.3686C281.68 64.3517 281.704 64.3393 281.73 64.3319C281.757 64.3246 281.784 64.3225 281.811 64.3257C281.838 64.3289 281.864 64.3375 281.888 64.3508C281.912 64.3642 281.933 64.3821 281.949 64.4035C281.966 64.4249 281.979 64.4495 281.986 64.4757C281.993 64.5019 281.996 64.5294 281.992 64.5564C281.959 64.8448 278.597 93.5077 284.271 121.487C284.281 121.54 284.269 121.595 284.239 121.64C284.209 121.686 284.163 121.718 284.11 121.73L284.065 121.734Z" fill="#249748"/>
<path d="M290.142 71.6682H283.941C283.835 71.6711 283.729 71.6502 283.631 71.607C283.534 71.5639 283.447 71.4995 283.378 71.4185C283.308 71.3376 283.258 71.2422 283.23 71.1393C283.202 71.0364 283.197 70.9285 283.216 70.8236L283.628 67.9931C283.674 67.7656 283.795 67.5602 283.972 67.4106C284.15 67.2609 284.373 67.1758 284.605 67.1691H290.785C290.889 67.1668 290.993 67.1873 291.089 67.2293C291.185 67.2713 291.27 67.3337 291.339 67.4122C291.408 67.4908 291.459 67.5834 291.489 67.6838C291.518 67.7841 291.525 67.8897 291.51 67.9931L291.098 70.8236C291.057 71.0516 290.941 71.2591 290.767 71.4125C290.593 71.5658 290.373 71.6559 290.142 71.6682Z" fill="white"/>
<path d="M287.946 67.8391H287.274C287.247 67.8401 287.22 67.8351 287.195 67.8243C287.17 67.8134 287.148 67.7971 287.13 67.7766C287.112 67.756 287.099 67.7317 287.092 67.7054C287.085 67.6791 287.084 67.6516 287.089 67.6248L287.34 65.9439C287.35 65.8849 287.38 65.8311 287.425 65.792C287.47 65.7528 287.527 65.7308 287.587 65.7296H288.259C288.286 65.7286 288.313 65.7336 288.338 65.7444C288.363 65.7553 288.385 65.7716 288.403 65.7921C288.421 65.8127 288.434 65.837 288.441 65.8633C288.448 65.8896 288.449 65.9171 288.444 65.9439L288.193 67.6248C288.183 67.6838 288.153 67.7376 288.108 67.7767C288.063 67.8159 288.005 67.8379 287.946 67.8391Z" fill="#249748"/>
<path d="M282.862 57.0377L281.152 55.7646L279.195 56.5433C279.195 56.5433 280.872 58.1254 282.862 57.0377Z" fill="#249748"/>
<path opacity="0.3" d="M282.862 57.0377L281.152 55.7646L279.195 56.5433C279.195 56.5433 280.872 58.1254 282.862 57.0377Z" fill="black"/>
<path d="M282.371 52.8302C282.371 52.8302 281.135 54.5853 281.135 55.7636C279.899 56.3322 278.029 57.9102 278.029 57.9102C278.029 57.9102 278.272 55.4382 280.748 53.2834C281.231 52.9722 281.797 52.8142 282.371 52.8302Z" fill="#249748"/>
<path d="M317.074 152.32L315.941 153.095L315.323 152.844L315.043 153.713L308.212 158.381C307.802 157.872 307.533 157.264 307.433 156.618C307.433 156.618 309.353 155.035 309.44 153.478C309.442 153.42 309.46 153.364 309.493 153.315C309.526 153.267 309.572 153.229 309.625 153.206C310.404 152.885 313.453 151.558 314.569 149.997C314.597 149.958 314.633 149.926 314.675 149.904C314.718 149.882 314.765 149.87 314.812 149.87C314.86 149.87 314.907 149.882 314.949 149.904C314.992 149.926 315.028 149.958 315.055 149.997C315.669 150.821 316.343 151.598 317.074 152.32Z" fill="#263238"/>
</g>
<defs>
<clipPath id="clip0_239_1286">
<rect width="491" height="165" fill="white"/>
</clipPath>
</defs>
</svg>
