<svg width="312" height="165" viewBox="0 0 312 165" fill="none" xmlns="http://www.w3.org/2000/svg">
<g clip-path="url(#clip0_244_2146)">
<path d="M87.3689 112.558H37.9888V150.643H87.3689V112.558Z" fill="#EBEBEB"/>
<path d="M74.9985 150.372C74.9421 150.372 74.897 141.885 74.897 131.414C74.897 120.942 74.9421 112.452 74.9985 112.452C75.0549 112.452 75.0963 120.942 75.0963 131.414C75.0963 141.885 75.0511 150.372 74.9985 150.372Z" fill="#E0E0E0"/>
<path d="M83.184 141.972H79.3977V146.251H83.184V141.972Z" fill="#FAFAFA"/>
<path d="M58.6651 112.655H53.0552V120.781H58.6651V112.655Z" fill="#E0E0E0"/>
<path d="M58.6651 142.4H53.0552V150.526H58.6651V142.4Z" fill="#E0E0E0"/>
<path d="M95.0917 74.5586H45.7117V112.644H95.0917V74.5586Z" fill="#EBEBEB"/>
<path d="M82.7176 112.373C82.665 112.373 82.6199 103.887 82.6199 93.4149C82.6199 82.9433 82.665 74.457 82.7176 74.457C82.7703 74.457 82.8154 82.9433 82.8154 93.4149C82.8154 103.887 82.774 112.373 82.7176 112.373Z" fill="#E0E0E0"/>
<path d="M90.9033 103.973H87.1169V108.252H90.9033V103.973Z" fill="#FAFAFA"/>
<path d="M66.3843 74.6562H60.7744V82.7816H66.3843V74.6562Z" fill="#E0E0E0"/>
<path d="M66.3843 104.405H60.7744V112.531H66.3843V104.405Z" fill="#E0E0E0"/>
<path d="M91.6966 44.0352H51.991V74.6566H91.6966V44.0352Z" fill="#F5F5F5"/>
<path d="M81.7477 74.442C81.7063 74.442 81.6687 67.6138 81.6687 59.1952C81.6687 50.7766 81.7063 43.9521 81.7477 43.9521C81.789 43.9521 81.8266 50.7766 81.8266 59.1952C81.8266 67.6138 81.7928 74.442 81.7477 74.442Z" fill="#E0E0E0"/>
<path d="M88.3315 67.6855H85.2859V71.1259H88.3315V67.6855Z" fill="#FAFAFA"/>
<path d="M68.6139 44.1143H64.1057V50.6491H68.6139V44.1143Z" fill="#E0E0E0"/>
<path d="M68.6139 68.0312H64.1057V74.5661H68.6139V68.0312Z" fill="#E0E0E0"/>
<path d="M268.936 65.2939H231.64V94.0579H268.936V65.2939Z" fill="#F5F5F5"/>
<path d="M259.592 93.8587C259.55 93.8587 259.517 87.4441 259.517 79.5368C259.517 71.6295 259.55 65.2188 259.592 65.2188C259.633 65.2188 259.663 71.6295 259.663 79.5368C259.663 87.4441 259.633 93.8587 259.592 93.8587Z" fill="#E0E0E0"/>
<path d="M265.769 87.5117H262.912V90.7453H265.769V87.5117Z" fill="#FAFAFA"/>
<path d="M247.255 65.3691H243.018V71.5055H247.255V65.3691Z" fill="#E0E0E0"/>
<path d="M247.255 87.8389H243.018V93.9752H247.255V87.8389Z" fill="#E0E0E0"/>
<path d="M281.434 127.131H238.449V160.287H281.434V127.131Z" fill="#EBEBEB"/>
<path d="M270.68 160.05C270.635 160.05 270.597 152.662 270.597 143.547C270.597 134.433 270.635 127.041 270.68 127.041C270.725 127.041 270.767 134.429 270.767 143.547C270.767 152.665 270.714 160.05 270.68 160.05Z" fill="#E0E0E0"/>
<path d="M277.79 152.736H274.497V156.462H277.79V152.736Z" fill="#FAFAFA"/>
<path d="M256.448 127.214H251.564V134.286H256.448V127.214Z" fill="#E0E0E0"/>
<path d="M256.448 153.112H251.564V160.185H256.448V153.112Z" fill="#E0E0E0"/>
<path d="M275.497 94.0615H232.512V127.217H275.497V94.0615Z" fill="#EBEBEB"/>
<path d="M264.728 126.981C264.679 126.981 264.642 119.592 264.642 110.478C264.642 101.364 264.679 93.9717 264.728 93.9717C264.777 93.9717 264.815 101.36 264.815 110.478C264.815 119.596 264.777 126.981 264.728 126.981Z" fill="#E0E0E0"/>
<path d="M271.853 119.667H268.56V123.393H271.853V119.667Z" fill="#FAFAFA"/>
<path d="M250.511 94.1445H245.627V101.217H250.511V94.1445Z" fill="#E0E0E0"/>
<path d="M250.511 120.043H245.627V127.116H250.511V120.043Z" fill="#E0E0E0"/>
<path d="M196.221 65.7568H158.925V94.5208H196.221V65.7568Z" fill="#F5F5F5"/>
<path d="M186.877 94.3216C186.836 94.3216 186.806 87.907 186.806 79.9997C186.806 72.0924 186.836 65.6816 186.877 65.6816C186.918 65.6816 186.952 72.0736 186.952 79.9997C186.952 87.9258 186.918 94.3216 186.877 94.3216Z" fill="#E0E0E0"/>
<path d="M193.059 87.9746H190.201V91.2082H193.059V87.9746Z" fill="#FAFAFA"/>
<path d="M174.541 65.832H170.303V71.9684H174.541V65.832Z" fill="#E0E0E0"/>
<path d="M174.541 88.3018H170.303V94.4381H174.541V88.3018Z" fill="#E0E0E0"/>
<path d="M199.53 37.0674H162.234V65.8314H199.53V37.0674Z" fill="#EBEBEB"/>
<path d="M190.186 65.6282C190.145 65.6282 190.111 59.2362 190.111 51.3101C190.111 43.384 190.145 36.9883 190.186 36.9883C190.227 36.9883 190.261 43.3803 190.261 51.3101C190.261 59.24 190.216 65.6282 190.186 65.6282Z" fill="#E0E0E0"/>
<path d="M196.367 59.2852H193.51V62.5188H196.367V59.2852Z" fill="#FAFAFA"/>
<path d="M177.849 37.1387H173.612V43.275H177.849V37.1387Z" fill="#E0E0E0"/>
<path d="M177.849 59.6084H173.612V65.7447H177.849V59.6084Z" fill="#E0E0E0"/>
<path d="M198.131 17.1025H171.446V37.6848H198.131V17.1025Z" fill="#EBEBEB"/>
<path d="M191.449 37.5414C191.419 37.5414 191.397 32.9542 191.397 27.2954C191.397 21.6366 191.419 17.0645 191.449 17.0645C191.479 17.0645 191.502 21.6517 191.502 27.3105C191.502 32.9693 191.476 37.5414 191.449 37.5414Z" fill="#E0E0E0"/>
<path d="M195.871 33.0029H193.826V35.3153H195.871V33.0029Z" fill="#FAFAFA"/>
<path d="M182.621 17.1582H179.59V21.5499H182.621V17.1582Z" fill="#E0E0E0"/>
<path d="M182.621 33.2324H179.59V37.6241H182.621V33.2324Z" fill="#E0E0E0"/>
<path d="M208.723 127.594H165.739V160.749H208.723V127.594Z" fill="#EBEBEB"/>
<path d="M197.954 160.512C197.905 160.512 197.868 153.124 197.868 144.009C197.868 134.895 197.905 127.503 197.954 127.503C198.003 127.503 198.037 134.891 198.037 144.009C198.037 153.127 197.999 160.512 197.954 160.512Z" fill="#E0E0E0"/>
<path d="M205.075 153.199H201.782V156.925H205.075V153.199Z" fill="#FAFAFA"/>
<path d="M183.734 127.676H178.85V134.748H183.734V127.676Z" fill="#E0E0E0"/>
<path d="M183.734 153.575H178.85V160.648H183.734V153.575Z" fill="#E0E0E0"/>
<path d="M202.782 94.5244H159.798V127.68H202.782V94.5244Z" fill="#EBEBEB"/>
<path d="M192.017 127.443C191.968 127.443 191.931 120.054 191.931 110.94C191.931 101.826 191.968 94.4336 192.017 94.4336C192.066 94.4336 192.1 101.822 192.1 110.94C192.1 120.058 192.062 127.443 192.017 127.443Z" fill="#E0E0E0"/>
<path d="M199.138 120.13H195.845V123.856H199.138V120.13Z" fill="#FAFAFA"/>
<path d="M177.797 94.6074H172.913V101.68H177.797V94.6074Z" fill="#E0E0E0"/>
<path d="M177.797 120.506H172.913V127.578H177.797V120.506Z" fill="#E0E0E0"/>
<path d="M109.301 154.181V150.643H36.9209C36.6646 150.643 36.4188 150.744 36.2376 150.926C36.0564 151.107 35.9546 151.353 35.9546 151.609V153.214C35.9546 153.471 36.0564 153.716 36.2376 153.898C36.4188 154.079 36.6646 154.181 36.9209 154.181H38.9363V155.809C38.9363 155.934 38.9117 156.057 38.8639 156.173C38.8161 156.288 38.746 156.393 38.6576 156.481C38.5693 156.57 38.4644 156.64 38.349 156.688C38.2336 156.735 38.1099 156.76 37.985 156.76H36.9059C36.6574 156.76 36.4188 156.857 36.2411 157.031C36.0633 157.204 35.9605 157.44 35.9546 157.689V159.324C35.9546 159.577 36.0548 159.819 36.2332 159.997C36.4116 160.175 36.6536 160.276 36.9059 160.276H109.301V156.738H92.4298V154.173L109.301 154.181ZM56.2849 154.181H60.6239V156.745H56.2849V154.181ZM53.3935 156.745H49.0582V154.181H53.3935V156.745ZM63.5041 154.181H67.8394V156.745H63.5041V154.181ZM70.7308 154.181H75.0699V156.745H70.7421L70.7308 154.181ZM77.9613 154.181H82.3041V156.745H77.9726L77.9613 154.181ZM41.8164 154.181H46.1667V156.745H41.8277L41.8164 154.181ZM89.5271 156.745H85.1993V154.181H89.5384L89.5271 156.745Z" fill="#E0E0E0"/>
<path d="M106.861 80.4199H67.689V110.635H106.861V80.4199Z" fill="#249748"/>
<path opacity="0.3" d="M106.861 80.4199H67.689V110.635H106.861V80.4199Z" fill="black"/>
<path d="M97.0471 110.421C97.0132 110.421 96.9832 103.687 96.9832 95.3808C96.9832 87.075 97.0132 80.3408 97.0471 80.3408C97.0809 80.3408 97.111 87.075 97.111 95.3808C97.111 103.687 97.0809 110.421 97.0471 110.421Z" fill="#263238"/>
<path d="M103.541 103.758H100.536V107.153H103.541V103.758Z" fill="#F5F5F5"/>
<path d="M84.0863 80.499H79.6382V86.9474H84.0863V80.499Z" fill="#263238"/>
<path d="M84.0863 104.097H79.6382V110.545H84.0863V104.097Z" fill="#263238"/>
<path d="M106.522 80.42H106.421H106.127H104.999L100.837 80.4388H87.1094H73.3779L69.2193 80.4163L73.3779 80.3975H87.1094H100.837L104.999 80.4163H106.127H106.421L106.522 80.42Z" fill="#263238"/>
<path d="M139.471 80.3818H100.3V110.597H139.471V80.3818Z" fill="#249748"/>
<path d="M129.657 110.383C129.624 110.383 129.594 103.649 129.594 95.3427C129.594 87.0369 129.624 80.3027 129.657 80.3027C129.691 80.3027 129.721 87.0331 129.721 95.3427C129.721 103.652 129.68 110.383 129.657 110.383Z" fill="#263238"/>
<path d="M136.151 103.721H133.147V107.116H136.151V103.721Z" fill="#F5F5F5"/>
<path opacity="0.5" d="M116.697 80.4609H112.249V86.9093H116.697V80.4609Z" fill="white"/>
<path opacity="0.5" d="M116.697 104.059H112.249V110.507H116.697V104.059Z" fill="white"/>
<path d="M139.031 80.3822H138.734H137.606L133.448 80.401H119.72H105.988L101.826 80.3822L105.988 80.3596L119.72 80.3408L133.448 80.3596L137.606 80.3822H138.734H139.031Z" fill="#263238"/>
<path d="M141.671 50.167H102.499V80.3824H141.671V50.167Z" fill="#249748"/>
<path d="M131.857 80.1679C131.82 80.1679 131.793 73.4337 131.793 65.1279C131.793 56.8221 131.82 50.0879 131.857 50.0879C131.895 50.0879 131.921 56.8183 131.921 65.1279C131.921 73.4375 131.891 80.1679 131.857 80.1679Z" fill="#263238"/>
<path d="M138.351 73.5049H135.346V76.9002H138.351V73.5049Z" fill="#F5F5F5"/>
<path d="M118.896 50.2461H114.448V56.6945H118.896V50.2461Z" fill="#263238"/>
<path d="M118.896 73.8438H114.448V80.2922H118.896V73.8438Z" fill="#263238"/>
<path d="M141.336 50.1515C141.304 50.1571 141.271 50.1571 141.238 50.1515H140.941H139.813H135.655L121.927 50.1703L108.195 50.1515H104.033H102.905H102.608C102.576 50.1571 102.543 50.1571 102.51 50.1515H102.608H102.905H104.033L108.195 50.1289H121.927H135.655L139.813 50.1515H140.941H141.238H141.336Z" fill="#263238"/>
<path d="M137.482 144.275V140.737H65.1058C64.8492 140.737 64.603 140.839 64.4212 141.02C64.2394 141.201 64.1367 141.447 64.1357 141.704V143.309C64.1367 143.566 64.2394 143.812 64.4212 143.993C64.603 144.174 64.8492 144.275 65.1058 144.275H67.1212V145.885C67.1212 146.138 67.0206 146.381 66.8415 146.56C66.6624 146.739 66.4194 146.84 66.1661 146.84H65.0908C64.8381 146.84 64.5958 146.94 64.4168 147.118C64.2378 147.296 64.1367 147.538 64.1357 147.791V149.415C64.1367 149.668 64.2378 149.91 64.4168 150.088C64.5958 150.267 64.8381 150.367 65.0908 150.367H137.482V146.828H120.611V144.264L137.482 144.275ZM84.4661 144.275H88.8013V146.84H84.4698L84.4661 144.275ZM81.5746 146.84H77.2393V144.275H81.5784L81.5746 146.84ZM91.7041 144.275H96.0431V146.84H91.7041V144.275ZM98.9345 144.275H103.27V146.84H98.927L98.9345 144.275ZM106.161 144.275H110.504V146.84H106.154L106.161 144.275ZM70.0201 144.275H74.3554V146.84H70.0126L70.0201 144.275ZM117.727 146.84H113.38V144.275H117.72L117.727 146.84Z" fill="#455A64"/>
<path d="M195.822 83.3192C195.941 83.198 196.034 83.0544 196.096 82.8968C196.159 82.7392 196.189 82.5708 196.185 82.4013C196.182 82.2319 196.145 82.0648 196.076 81.9099C196.007 81.755 195.908 81.6154 195.785 81.4993L183.576 69.9599C183.332 69.7309 183.01 69.6035 182.675 69.6035C182.341 69.6035 182.019 69.7309 181.775 69.9599C181.646 70.0791 181.543 70.2228 181.471 70.3824C181.399 70.5421 181.36 70.7145 181.355 70.8896C181.351 71.0647 181.381 71.2389 181.445 71.4021C181.508 71.5653 181.604 71.7141 181.726 71.8399L186.595 76.961L184.061 79.4012L182.741 78.3522L173.533 88.899L168.611 84.1652L162.678 101.615L163.855 125.303H177.503L176.548 97.1522L185.704 84.1125L185.775 81.0105L188.407 78.3146L194.081 83.3831C194.327 83.6022 194.648 83.7179 194.978 83.7059C195.307 83.694 195.619 83.5555 195.848 83.3192H195.822Z" fill="#263238"/>
<path d="M159.008 129.691C158.956 129.691 158.91 108.079 158.91 81.4241C158.91 54.7694 158.956 33.1494 159.008 33.1494C159.061 33.1494 159.106 54.7581 159.106 81.4241C159.106 108.09 159.05 129.691 159.008 129.691Z" fill="#263238"/>
<path d="M189.558 123.604L197.86 100.536L194.739 99.2726V94.817L217.439 94.4673C217.974 94.4571 218.487 94.2527 218.882 93.8924C219.278 93.532 219.529 93.0402 219.589 92.5084L222.928 62.8721C223.003 62.2093 223.319 61.5973 223.816 61.1528C224.314 60.7083 224.957 60.4623 225.624 60.4619C225.99 60.4616 226.352 60.5353 226.688 60.6785C227.025 60.8218 227.329 61.0316 227.582 61.2954C227.835 61.5592 228.033 61.8715 228.162 62.2136C228.291 62.5556 228.35 62.9203 228.335 63.2857L227.064 93.8244L238.916 93.8883L239.318 99.4569L204.267 100.829L195.127 123.273L189.558 123.604Z" fill="#455A64"/>
<path d="M194.781 123.039L165.272 123.272V125.239L177.496 125.081L196.965 124.931L244.168 118.268L238.818 97.9037H206.858C206.305 97.8955 205.759 98.0221 205.266 98.2723C204.774 98.5226 204.35 98.889 204.03 99.34L194.781 123.039Z" fill="#263238"/>
<path d="M180.639 37.8795L159.207 106.285L159.358 125.315H166.152V106.405L183.726 38.0637L231.343 37.7968L240.45 108.985H245.823L234.742 38.2968C234.568 37.3722 234.076 36.5375 233.352 35.9368C232.627 35.3361 231.716 35.0072 230.775 35.0068H184.505C183.637 35.0065 182.793 35.2857 182.096 35.8032C181.4 36.3206 180.889 37.0487 180.639 37.8795Z" fill="#455A64"/>
<path d="M155.338 147.291V129.018L159.339 125.314L196.939 124.829L203.707 119.324C204.968 118.301 206.519 117.701 208.14 117.61L215.382 117.2C215.382 117.2 218.63 114.963 221.774 112.744C225.755 109.923 230.513 108.407 235.393 108.405H256.234C256.991 108.405 257.717 108.706 258.252 109.241C258.787 109.776 259.088 110.502 259.088 111.259V147.291H155.338Z" fill="#249748"/>
<path d="M259.081 141.403H154.97V147.412H259.081V141.403Z" fill="#263238"/>
<path d="M160.358 147.224C160.32 149.77 161.038 152.27 162.422 154.408C163.805 156.546 165.792 158.226 168.13 159.235C170.468 160.244 173.052 160.537 175.557 160.077C178.062 159.616 180.373 158.424 182.2 156.65C184.027 154.876 185.287 152.6 185.82 150.109C186.353 147.619 186.135 145.027 185.195 142.661C184.255 140.294 182.634 138.26 180.537 136.814C178.441 135.369 175.963 134.578 173.416 134.541C170.003 134.492 166.71 135.801 164.261 138.179C161.812 140.557 160.408 143.811 160.358 147.224Z" fill="#263238"/>
<path d="M160.362 147.193C160.362 147.193 160.362 147.212 160.362 147.223C160.342 150.618 161.664 153.883 164.04 156.308C166.416 158.732 169.653 160.12 173.048 160.17C176.442 160.22 179.719 158.927 182.164 156.572C184.61 154.218 186.027 150.993 186.107 147.599C186.107 147.599 186.107 147.577 186.107 147.566L160.362 147.193Z" fill="#263238"/>
<path d="M164.193 147.28C164.17 149.063 164.676 150.813 165.648 152.309C166.619 153.805 168.012 154.98 169.65 155.685C171.289 156.389 173.099 156.593 174.853 156.269C176.607 155.946 178.226 155.11 179.505 153.867C180.784 152.624 181.666 151.03 182.04 149.286C182.414 147.542 182.262 145.726 181.605 144.068C180.947 142.41 179.813 140.984 178.346 139.971C176.878 138.957 175.143 138.401 173.36 138.372C172.173 138.353 170.993 138.569 169.89 139.007C168.786 139.444 167.779 140.096 166.928 140.923C166.076 141.751 165.396 142.738 164.927 143.829C164.458 144.92 164.208 146.092 164.193 147.28Z" fill="#FAFAFA"/>
<path d="M173.36 138.372C172.173 138.353 170.993 138.569 169.89 139.007C168.786 139.444 167.779 140.096 166.928 140.923C166.076 141.751 165.396 142.738 164.927 143.829C164.458 144.92 164.208 146.092 164.193 147.28L182.267 147.539C182.286 146.352 182.071 145.173 181.633 144.069C181.195 142.965 180.544 141.958 179.716 141.107C178.889 140.255 177.902 139.575 176.811 139.106C175.72 138.637 174.547 138.387 173.36 138.372Z" fill="#E0E0E0"/>
<path d="M167.724 147.333C167.71 148.421 168.02 149.49 168.614 150.402C169.208 151.315 170.059 152.031 171.059 152.46C172.06 152.888 173.165 153.011 174.236 152.812C175.306 152.612 176.293 152.1 177.072 151.34C177.851 150.58 178.388 149.605 178.613 148.54C178.839 147.475 178.743 146.367 178.339 145.356C177.935 144.346 177.24 143.477 176.343 142.861C175.445 142.245 174.385 141.909 173.296 141.896C171.836 141.879 170.43 142.442 169.385 143.461C168.34 144.481 167.743 145.873 167.724 147.333Z" fill="#263238"/>
<path d="M223.353 147.224C223.315 149.77 224.034 152.27 225.417 154.408C226.8 156.546 228.787 158.226 231.125 159.235C233.463 160.244 236.048 160.537 238.552 160.077C241.057 159.616 243.369 158.424 245.195 156.65C247.022 154.876 248.282 152.6 248.815 150.109C249.348 147.619 249.131 145.027 248.19 142.661C247.25 140.294 245.629 138.26 243.532 136.814C241.436 135.369 238.958 134.578 236.411 134.541C232.998 134.492 229.705 135.801 227.256 138.179C224.807 140.557 223.403 143.811 223.353 147.224Z" fill="#263238"/>
<path d="M223.357 147.193C223.357 147.193 223.357 147.212 223.357 147.223C223.337 150.618 224.659 153.883 227.035 156.308C229.411 158.732 232.648 160.12 236.043 160.17C239.437 160.22 242.713 158.927 245.159 156.572C247.605 154.218 249.022 150.993 249.101 147.599C249.101 147.599 249.101 147.577 249.101 147.566L223.357 147.193Z" fill="#263238"/>
<path d="M227.188 147.28C227.165 149.063 227.672 150.813 228.643 152.309C229.614 153.805 231.007 154.98 232.645 155.685C234.284 156.389 236.094 156.593 237.848 156.269C239.602 155.946 241.221 155.11 242.5 153.867C243.779 152.624 244.661 151.03 245.035 149.286C245.409 147.542 245.257 145.726 244.6 144.068C243.942 142.41 242.808 140.984 241.341 139.971C239.873 138.957 238.138 138.401 236.355 138.372C235.168 138.353 233.989 138.569 232.885 139.007C231.781 139.444 230.774 140.096 229.923 140.923C229.071 141.751 228.391 142.738 227.922 143.829C227.453 144.92 227.203 146.092 227.188 147.28Z" fill="#FAFAFA"/>
<path d="M236.355 138.372C235.168 138.353 233.988 138.569 232.885 139.007C231.781 139.444 230.774 140.096 229.923 140.923C229.071 141.751 228.391 142.738 227.922 143.829C227.453 144.92 227.203 146.092 227.188 147.28L245.263 147.539C245.281 146.352 245.066 145.173 244.628 144.069C244.19 142.965 243.539 141.958 242.712 141.107C241.884 140.255 240.897 139.575 239.806 139.106C238.715 138.637 237.542 138.387 236.355 138.372Z" fill="#E0E0E0"/>
<path d="M230.723 147.333C230.709 148.421 231.019 149.489 231.612 150.401C232.205 151.313 233.056 152.029 234.056 152.459C235.056 152.888 236.16 153.011 237.23 152.813C238.3 152.614 239.287 152.103 240.067 151.344C240.847 150.585 241.384 149.612 241.611 148.547C241.837 147.483 241.744 146.375 241.341 145.364C240.939 144.353 240.246 143.484 239.349 142.867C238.453 142.25 237.394 141.912 236.306 141.896C235.582 141.886 234.864 142.018 234.191 142.286C233.518 142.554 232.905 142.951 232.387 143.456C231.868 143.961 231.454 144.564 231.168 145.229C230.883 145.894 230.731 146.609 230.723 147.333Z" fill="#263238"/>
<path d="M252.978 138.248C252.954 138.22 252.933 138.19 252.914 138.158L252.749 137.887L252.485 137.444C252.37 137.24 252.245 137.043 252.109 136.853C251.284 135.611 250.309 134.475 249.207 133.469C248.876 133.135 248.473 132.845 248.079 132.511C247.684 132.176 247.233 131.89 246.781 131.571C246.33 131.251 245.834 130.958 245.3 130.698C245.041 130.563 244.777 130.416 244.507 130.285L243.661 129.909C242.46 129.403 241.21 129.024 239.931 128.781C238.557 128.517 237.158 128.411 235.761 128.465C233.052 128.616 230.412 129.369 228.03 130.668L227.226 131.119C226.966 131.277 226.722 131.45 226.474 131.608C225.966 131.916 225.53 132.292 225.082 132.62C224.635 132.947 224.248 133.319 223.879 133.676C223.511 134.033 223.15 134.375 222.849 134.74C221.847 135.846 220.985 137.071 220.281 138.387C220.163 138.589 220.058 138.797 219.965 139.012C219.879 139.192 219.803 139.346 219.743 139.478L219.604 139.764C219.589 139.796 219.572 139.828 219.552 139.858C219.558 139.822 219.569 139.788 219.585 139.756L219.706 139.463L219.909 138.989C219.998 138.771 220.099 138.559 220.213 138.354C220.896 137.015 221.747 135.771 222.748 134.65C223.045 134.274 223.417 133.943 223.774 133.567C224.131 133.191 224.56 132.86 224.981 132.492C225.402 132.123 225.868 131.781 226.376 131.465C226.624 131.304 226.872 131.131 227.128 130.969L227.936 130.506C229.092 129.879 230.311 129.375 231.572 129.002C232.93 128.603 234.329 128.361 235.742 128.281C238.48 128.174 241.208 128.681 243.725 129.766L244.574 130.142C244.849 130.273 245.112 130.424 245.375 130.563C245.913 130.826 246.383 131.164 246.879 131.45C247.376 131.736 247.778 132.082 248.18 132.409C248.582 132.736 248.977 133.044 249.308 133.383C250.409 134.405 251.374 135.564 252.181 136.831C252.317 137.024 252.443 137.225 252.557 137.432L252.801 137.887C252.865 138.004 252.914 138.094 252.952 138.169C252.989 138.245 252.982 138.245 252.978 138.248Z" fill="#263238"/>
<path d="M190.039 140.617C190.017 140.586 190 140.552 189.987 140.516C189.957 140.437 189.915 140.335 189.863 140.207L189.66 139.707C189.569 139.512 189.468 139.286 189.355 139.034C188.7 137.613 187.883 136.272 186.922 135.037C185.52 133.186 183.732 131.663 181.681 130.574C180.453 129.975 179.15 129.541 177.808 129.285C176.37 128.988 174.903 128.855 173.435 128.886C171.967 128.907 170.506 129.095 169.081 129.446C167.755 129.778 166.476 130.278 165.276 130.931C163.225 132.022 161.391 133.478 159.865 135.229C158.851 136.416 157.968 137.709 157.233 139.087C156.97 139.576 156.771 139.959 156.647 140.215C156.587 140.339 156.534 140.437 156.496 140.512C156.482 140.547 156.463 140.58 156.44 140.61C156.447 140.573 156.459 140.537 156.478 140.504L156.613 140.2C156.726 139.929 156.914 139.542 157.166 139.046C157.878 137.645 158.748 136.33 159.76 135.128C161.284 133.349 163.125 131.869 165.189 130.762C166.402 130.101 167.693 129.595 169.032 129.258C170.472 128.902 171.948 128.712 173.431 128.69C174.915 128.665 176.397 128.806 177.849 129.112C179.207 129.374 180.523 129.817 181.764 130.428C183.831 131.536 185.628 133.087 187.028 134.97C187.985 136.219 188.789 137.579 189.423 139.019L189.708 139.7C189.78 139.899 189.844 140.076 189.893 140.207C189.942 140.339 189.975 140.44 190.002 140.523C190.018 140.553 190.031 140.584 190.039 140.617Z" fill="#263238"/>
<path d="M155.312 140.737H98.2427V147.411H155.312V140.737Z" fill="#263238"/>
<path d="M153.767 143.569C153.767 143.898 153.669 144.219 153.487 144.492C153.304 144.766 153.044 144.979 152.741 145.105C152.437 145.23 152.103 145.263 151.781 145.199C151.458 145.135 151.162 144.977 150.93 144.744C150.697 144.512 150.539 144.216 150.475 143.893C150.411 143.571 150.444 143.237 150.569 142.933C150.695 142.629 150.908 142.37 151.181 142.187C151.455 142.005 151.776 141.907 152.105 141.907C152.546 141.907 152.968 142.082 153.28 142.394C153.592 142.706 153.767 143.128 153.767 143.569Z" fill="#455A64"/>
<path d="M154.564 34.4805H149.8V129.112H154.564V34.4805Z" fill="#455A64"/>
<path d="M222.312 134.504C222.312 134.557 214.28 134.602 204.376 134.602C194.473 134.602 186.441 134.557 186.441 134.504C186.441 134.451 194.469 134.406 204.376 134.406C214.284 134.406 222.312 134.451 222.312 134.504Z" fill="#263238"/>
<path d="M215.002 133.086C214.946 133.086 214.904 129.593 214.904 125.284C214.904 120.975 214.946 117.485 215.002 117.485C215.058 117.485 215.1 120.975 215.1 125.284C215.1 129.593 215.055 133.086 215.002 133.086Z" fill="#263238"/>
<path d="M159.012 32.3105H149.289V36.6496H159.012V32.3105Z" fill="#263238"/>
<path d="M155.312 128.33H149.052V140.821H155.312V128.33Z" fill="#263238"/>
<path d="M140.776 110.608H101.604V140.824H140.776V110.608Z" fill="#249748"/>
<path opacity="0.3" d="M140.776 110.608H101.604V140.824H140.776V110.608Z" fill="black"/>
<path d="M130.962 140.61C130.929 140.61 130.898 133.876 130.898 125.57C130.898 117.264 130.929 110.53 130.962 110.53C130.996 110.53 131.026 117.264 131.026 125.57C131.026 133.876 130.996 140.61 130.962 140.61Z" fill="#263238"/>
<path d="M137.456 133.947H134.451V137.343H137.456V133.947Z" fill="#F5F5F5"/>
<path d="M118.002 110.688H113.553V117.136H118.002V110.688Z" fill="#263238"/>
<path d="M118.002 134.285H113.553V140.734H118.002V134.285Z" fill="#263238"/>
<path d="M140.434 110.608H140.336H140.039H138.911L134.749 110.627L121.032 110.687H107.301L103.142 110.669H102.014H101.717H101.619C101.652 110.665 101.684 110.665 101.717 110.669H102.014H103.142L107.301 110.65L121.032 110.631L134.76 110.65L138.922 110.669H140.05H140.347C140.374 110.646 140.403 110.625 140.434 110.608Z" fill="#263238"/>
<path d="M99.6866 110.608H60.5149V140.824H99.6866V110.608Z" fill="#249748"/>
<path d="M89.8767 140.61C89.8391 140.61 89.8127 133.876 89.8127 125.57C89.8127 117.264 89.8391 110.53 89.8767 110.53C89.9143 110.53 89.9368 117.264 89.9368 125.57C89.9368 133.876 89.9105 140.61 89.8767 140.61Z" fill="#263238"/>
<path d="M96.3702 133.947H93.366V137.343H96.3702V133.947Z" fill="#F5F5F5"/>
<path opacity="0.5" d="M76.9161 110.688H72.468V117.136H76.9161V110.688Z" fill="white"/>
<path opacity="0.5" d="M76.9161 134.285H72.468V140.734H76.9161V134.285Z" fill="white"/>
<path d="M99.3482 110.609H99.2467H98.9534H97.8254L93.6669 110.628H79.9391H66.2076L62.0453 110.609H60.9173H60.624H60.5225C60.5562 110.606 60.5902 110.606 60.624 110.609H60.9173H62.0453L66.2076 110.59L79.9391 110.571L93.6669 110.59L97.8254 110.609H98.9534H99.2467C99.2805 110.606 99.3145 110.606 99.3482 110.609Z" fill="#263238"/>
<path d="M260.724 118.82C262.743 119.309 264.439 121.358 264.405 123.438C264.362 124.479 263.979 125.478 263.314 126.281C262.649 127.083 261.739 127.646 260.724 127.882" fill="#249748"/>
<g opacity="0.6">
<path d="M260.724 118.82C262.743 119.309 264.439 121.358 264.405 123.438C264.362 124.479 263.979 125.478 263.314 126.281C262.649 127.083 261.739 127.646 260.724 127.882" fill="white"/>
</g>
<path d="M260.806 117.655H259.081V129.089H260.806V117.655Z" fill="#249748"/>
<path opacity="0.3" d="M260.806 117.655H259.081V129.089H260.806V117.655Z" fill="black"/>
<path d="M178.691 71.836C178.484 71.675 178.341 71.4447 178.29 71.1873C178.238 70.9298 178.28 70.6622 178.409 70.4335C178.699 69.9297 179.037 69.3356 179.192 69.0875C179.38 68.7939 179.552 68.4901 179.707 68.1775C179.754 67.9907 179.854 67.821 179.993 67.688C180.133 67.555 180.307 67.4641 180.496 67.4255C180.956 67.3664 181.421 67.3804 181.876 67.4669L186.58 68.4821L188.772 69.565L186.64 71.445L185.456 71.069C185.099 71.3773 183.704 71.539 183.23 71.4826C182.624 71.4074 181.414 71.0126 180.726 71.1442L180.06 71.2382L180.376 71.5014C180.955 71.4598 181.533 71.5782 182.049 71.8435C182.132 71.8991 182.195 71.979 182.229 72.0721C182.264 72.1652 182.269 72.2668 182.244 72.3628C182.218 72.4589 182.163 72.5445 182.086 72.6078C182.01 72.6711 181.915 72.7088 181.816 72.7159L180.271 72.8174C179.852 72.621 179.45 72.3922 179.067 72.1331C178.948 72.0272 178.822 71.9281 178.691 71.836Z" fill="#FFBE9D"/>
<path d="M180.064 71.2538C179.988 71.3057 179.902 71.3415 179.812 71.3591C179.566 71.4308 179.306 71.4308 179.06 71.3591C178.883 71.3012 178.728 71.1927 178.613 71.047C178.547 70.9586 178.5 70.8575 178.475 70.75C178.451 70.6425 178.449 70.5311 178.47 70.4229C178.498 70.2988 178.567 70.1876 178.665 70.107C178.763 70.0355 178.872 69.9808 178.989 69.9454C179.214 69.8706 179.443 69.8115 179.677 69.7686C180.12 69.6831 180.568 69.6254 181.019 69.5957C181.226 69.5957 181.421 69.5731 181.609 69.5731H181.752H181.865C181.943 69.5621 182.021 69.547 182.098 69.528C182.418 69.4251 182.743 69.3385 183.072 69.2686C182.78 69.4414 182.463 69.5682 182.132 69.6446C182.052 69.6712 181.97 69.6913 181.887 69.7047C181.838 69.7107 181.787 69.7107 181.737 69.7047H181.609C181.433 69.7047 181.233 69.7273 181.034 69.7461C180.591 69.7852 180.151 69.8467 179.714 69.9303C179.49 69.9717 179.269 70.0269 179.052 70.0958C178.834 70.1597 178.676 70.2574 178.646 70.4342C178.63 70.5181 178.63 70.6044 178.647 70.6883C178.663 70.7722 178.696 70.8519 178.744 70.923C178.842 71.0485 178.972 71.1447 179.12 71.2012C179.344 71.2797 179.585 71.3017 179.819 71.2651C179.962 71.2614 180.064 71.235 180.064 71.2538Z" fill="#EB996E"/>
<path d="M180.647 68.8018C180.699 68.8018 180.79 69.0349 180.696 69.3319C180.602 69.629 180.391 69.7869 180.357 69.7455C180.323 69.7042 180.436 69.5237 180.511 69.2755C180.587 69.0274 180.59 68.8093 180.647 68.8018Z" fill="#EB996E"/>
<path d="M181.384 69.0989C181.436 69.0989 181.451 69.2869 181.32 69.4749C181.188 69.6629 181.011 69.678 180.993 69.6253C180.974 69.5727 181.072 69.4825 181.166 69.3546C181.26 69.2268 181.327 69.0914 181.384 69.0989Z" fill="#EB996E"/>
<path d="M199.902 68.0499C200.548 67.7791 196.187 72.2648 196.187 72.2648L188.125 69.2568L185.279 71.0052L193.946 77.1077C194.836 77.7359 195.923 78.0243 197.008 77.9209C198.092 77.8174 199.104 77.3289 199.86 76.5437L204.978 70.6292L199.902 68.0499Z" fill="#FFBE9D"/>
<path d="M204.628 50.0773C203.5 49.8592 202.801 49.5133 202.77 49.0809C202.71 48.186 205.549 47.2685 209.114 47.0241C212.678 46.7797 215.611 47.3137 215.675 48.2048C215.701 48.6372 215.058 49.0733 213.983 49.4381" fill="#249748"/>
<g opacity="0.4">
<path d="M205.256 50.0023C204.259 49.8143 203.609 49.506 203.609 49.1225C203.609 48.0509 206.072 47.5132 209.23 47.2989C212.388 47.0846 214.994 47.5546 215.047 48.3479C215.073 48.7239 214.502 49.0999 213.543 49.4383" fill="black"/>
</g>
<path d="M203.628 48.5992C203.628 48.5992 204.293 44.7452 204.361 44.5534C204.429 44.3617 205.395 42.6321 207.948 41.9816L210.084 41.835C210.084 41.835 213.182 42.6058 213.783 43.3089C214.385 44.012 214.866 47.5765 214.866 47.5765L208.79 46.6816L204.786 47.9487L203.628 48.5992Z" fill="#249748"/>
<path d="M208.617 41.5043L207.7 41.5645C207.486 41.8482 207.379 42.1985 207.399 42.5533C207.399 43.2189 207.561 47.7835 207.561 47.7835L210.23 47.4827L209.768 41.8577L210.689 42.0006L210.64 41.681L210.381 41.4141L208.617 41.5043Z" fill="#249748"/>
<path d="M214.197 62.5118L207.655 62.6547C207.572 61.9666 207.632 57.6614 207.632 57.6614C207.632 57.6614 205.143 57.4433 204.944 54.9805C204.744 52.5177 204.79 47.5696 204.79 47.5696L204.816 47.3515C207.587 45.934 210.885 45.5993 213.464 47.3289L213.84 47.5846L214.197 62.5118Z" fill="#FFBE9D"/>
<path d="M207.632 57.6723C208.772 57.5913 209.864 57.1855 210.779 56.5029C210.779 56.5029 210.099 58.3829 207.625 58.3115L207.632 57.6723Z" fill="#EB996E"/>
<path d="M213.727 50.1524C213.768 50.1524 215.385 49.5395 215.445 51.2277C215.506 52.916 213.798 52.6265 213.795 52.5814C213.791 52.5362 213.727 50.1524 213.727 50.1524Z" fill="#FFBE9D"/>
<path d="M214.28 51.9233C214.28 51.9233 214.31 51.9459 214.359 51.9647C214.394 51.9797 214.432 51.9874 214.47 51.9874C214.508 51.9874 214.546 51.9797 214.581 51.9647C214.687 51.8916 214.772 51.7914 214.827 51.6744C214.882 51.5574 214.905 51.4278 214.893 51.2992C214.892 51.1544 214.859 51.0116 214.795 50.8818C214.777 50.8297 214.747 50.7826 214.707 50.7446C214.667 50.7067 214.619 50.6789 214.566 50.6637C214.532 50.6565 214.496 50.6611 214.466 50.6768C214.435 50.6926 214.41 50.7185 214.396 50.7502C214.374 50.7991 214.396 50.8329 214.378 50.8367C214.359 50.8404 214.34 50.8104 214.351 50.7389C214.361 50.6968 214.383 50.6587 214.415 50.6299C214.461 50.5933 214.519 50.5757 214.577 50.581C214.647 50.5921 214.713 50.6212 214.768 50.6653C214.823 50.7095 214.866 50.7672 214.893 50.8329C214.973 50.9694 215.02 51.1225 215.032 51.2804C215.048 51.4321 215.018 51.5853 214.946 51.7196C214.873 51.854 214.762 51.963 214.626 52.0324C214.581 52.0479 214.533 52.0529 214.486 52.047C214.439 52.0411 214.394 52.0245 214.355 51.9985C214.28 51.9647 214.28 51.9271 214.28 51.9233Z" fill="#EB996E"/>
<path d="M205.605 50.6107C205.616 50.7031 205.66 50.7884 205.729 50.8502C205.799 50.912 205.889 50.9459 205.981 50.9454C206.072 50.9454 206.159 50.9093 206.223 50.8451C206.288 50.781 206.324 50.6939 206.324 50.6032C206.313 50.5108 206.269 50.4255 206.2 50.3637C206.13 50.3019 206.041 50.268 205.948 50.2686C205.857 50.2686 205.77 50.3046 205.706 50.3688C205.642 50.4329 205.605 50.52 205.605 50.6107Z" fill="#263238"/>
<path d="M205.493 50.2653C205.538 50.3066 205.794 50.0923 206.173 50.066C206.553 50.0397 206.843 50.2126 206.88 50.1638C206.918 50.1149 206.846 50.0622 206.722 49.9833C206.55 49.8818 206.35 49.8346 206.151 49.8479C205.953 49.8608 205.765 49.9358 205.613 50.0622C205.504 50.1525 205.47 50.2465 205.493 50.2653Z" fill="#263238"/>
<path d="M209.339 50.4718C209.342 50.5186 209.353 50.5644 209.373 50.6066C209.394 50.6489 209.422 50.6867 209.457 50.7178C209.492 50.7489 209.533 50.7728 209.577 50.788C209.622 50.8032 209.668 50.8095 209.715 50.8065C209.76 50.8065 209.804 50.7976 209.846 50.7803C209.887 50.7631 209.924 50.7378 209.956 50.706C209.987 50.6742 210.012 50.6364 210.029 50.595C210.046 50.5535 210.054 50.5091 210.054 50.4643C210.051 50.4175 210.039 50.3717 210.019 50.3295C209.999 50.2872 209.971 50.2495 209.936 50.2183C209.901 50.1872 209.86 50.1633 209.815 50.1481C209.771 50.1329 209.724 50.1266 209.678 50.1297C209.633 50.1297 209.588 50.1385 209.547 50.1558C209.506 50.173 209.468 50.1983 209.437 50.2301C209.405 50.2619 209.381 50.2997 209.364 50.3412C209.347 50.3827 209.339 50.4271 209.339 50.4718Z" fill="#263238"/>
<path d="M209.223 50.0809C209.268 50.126 209.52 49.9117 209.899 49.8854C210.279 49.8591 210.569 50.032 210.606 49.9831C210.644 49.9343 210.576 49.8816 210.448 49.7989C210.278 49.6969 210.079 49.6509 209.881 49.6673C209.683 49.6783 209.494 49.7536 209.343 49.8816C209.234 49.9794 209.2 50.0621 209.223 50.0809Z" fill="#263238"/>
<path d="M208.038 52.9835C207.833 52.9374 207.624 52.9147 207.414 52.9158C207.316 52.9158 207.222 52.9158 207.204 52.8331C207.188 52.7342 207.204 52.633 207.249 52.5435L207.486 51.7915C207.706 51.1487 207.877 50.4901 207.997 49.8213C207.722 50.4438 207.498 51.0876 207.328 51.7464C207.249 52.0096 207.174 52.2615 207.102 52.4984C207.053 52.6177 207.045 52.7501 207.08 52.8744C207.096 52.9072 207.12 52.9358 207.149 52.958C207.179 52.9801 207.213 52.9953 207.249 53.0023C207.304 53.0094 207.359 53.0094 207.414 53.0023C207.622 53.0238 207.832 53.0175 208.038 52.9835Z" fill="#263238"/>
<path d="M209.17 53.1602C209.106 53.1602 209.136 53.57 208.794 53.8858C208.452 54.2017 208.042 54.1866 208.042 54.2618C208.042 54.337 208.144 54.3333 208.332 54.3258C208.571 54.3117 208.799 54.2146 208.974 54.0513C209.143 53.8918 209.244 53.6738 209.256 53.4422C209.249 53.2654 209.196 53.1602 209.17 53.1602Z" fill="#263238"/>
<path d="M209.016 48.6031C209.061 48.7047 209.433 48.6295 209.881 48.6558C210.328 48.6821 210.697 48.7761 210.749 48.6783C210.802 48.5806 210.704 48.5392 210.554 48.449C210.353 48.3376 210.129 48.2757 209.899 48.2685C209.67 48.2568 209.44 48.2993 209.23 48.3926C209.08 48.4715 209.016 48.558 209.016 48.6031Z" fill="#263238"/>
<path d="M205.557 49.1595C205.632 49.2384 205.884 49.1331 206.2 49.1068C206.516 49.0805 206.782 49.1256 206.839 49.0316C206.895 48.9376 206.813 48.9038 206.692 48.8286C206.53 48.7418 206.345 48.7052 206.162 48.7232C205.978 48.7413 205.804 48.8133 205.662 48.9301C205.557 49.0241 205.527 49.1181 205.557 49.1595Z" fill="#263238"/>
<path d="M213.904 48.5546C213.885 49.2427 213.953 49.9308 213.934 50.6189C213.912 50.8788 213.846 51.133 213.738 51.3709C213.703 51.5087 213.625 51.6318 213.516 51.723C213.406 51.8142 213.271 51.8688 213.129 51.8791C212.987 51.8895 212.846 51.8551 212.724 51.7808C212.603 51.7065 212.508 51.596 212.453 51.4649C212.319 51.1933 212.247 50.8954 212.242 50.5926C212.239 50.2894 212.189 49.9886 212.092 49.7014C211.931 49.4037 211.74 49.1239 211.52 48.8667C211.412 48.736 211.336 48.5822 211.297 48.4171C211.259 48.2521 211.259 48.0804 211.298 47.9154C212.208 47.8876 213.109 48.1072 213.904 48.5509" fill="#263238"/>
<path d="M204.79 48.8587L204.748 47.4788L208.696 46.0049L213.829 47.1329L213.926 48.6143C210.961 47.5302 207.693 47.6176 204.79 48.8587Z" fill="#455A64"/>
<path d="M204.981 47.171L204.816 47.3515L203.428 48.3629C205.245 47.7541 207.131 47.3752 209.042 47.2349C211.141 47.187 213.238 47.3839 215.291 47.8215L213.306 46.8025C212.984 46.5016 212.604 46.2683 212.19 46.1165C211.776 45.9648 211.336 45.8976 210.896 45.9189L207.271 46.0919C206.837 46.1124 206.412 46.2183 206.019 46.4035C205.626 46.5887 205.273 46.8495 204.981 47.171Z" fill="#249748"/>
<path d="M207.512 45.9671C207.578 45.3265 207.596 44.6816 207.564 44.0383C207.58 43.3938 207.548 42.749 207.467 42.1094C207.395 42.7497 207.378 43.395 207.414 44.0383C207.396 44.6828 207.429 45.3277 207.512 45.9671Z" fill="#263238"/>
<path d="M210.685 42.001C210.463 41.9191 210.23 41.8684 209.993 41.8506C209.92 41.8562 209.852 41.8891 209.802 41.9427C209.752 41.9963 209.723 42.0667 209.723 42.1401L209.745 42.5462C209.772 42.8357 209.794 43.144 209.82 43.4636C209.873 44.1179 209.933 44.7082 209.982 45.1331C209.993 45.366 210.031 45.5969 210.095 45.8211C210.122 45.5901 210.122 45.3566 210.095 45.1255C210.072 44.6969 210.031 44.1066 209.975 43.4561C209.944 43.1327 209.918 42.8244 209.892 42.5349C209.892 42.3995 209.862 42.2679 209.85 42.1401C209.85 42.0955 209.866 42.0522 209.895 42.0183C209.924 41.9844 209.964 41.9622 210.008 41.9559C210.232 41.9891 210.459 42.0042 210.685 42.001Z" fill="#263238"/>
<path d="M203.334 48.3513C203.334 48.3513 203.5 48.2686 203.804 48.137C203.955 48.0693 204.139 47.9941 204.35 47.8775C204.594 47.7512 204.802 47.5649 204.955 47.3361C205.132 47.0729 205.143 46.7232 205.331 46.46C205.519 46.1968 205.91 46.1554 206.294 46.1178C207.068 46.0314 207.922 45.9674 208.82 45.9298C209.719 45.8922 210.58 45.8847 211.358 45.8922C211.716 45.8623 212.072 45.9552 212.37 46.1554C212.49 46.2706 212.599 46.3964 212.697 46.5314L212.851 46.7157L212.93 46.8022C212.962 46.8316 212.999 46.8557 213.039 46.8736C213.596 47.0954 214.05 47.2496 214.363 47.3511C214.521 47.4164 214.683 47.4717 214.848 47.5166C214.811 47.49 214.772 47.4673 214.731 47.4489C214.652 47.4113 214.536 47.3586 214.381 47.2947C214.081 47.1631 213.629 47.0052 213.088 46.7758C213.06 46.7629 213.033 46.7465 213.009 46.727L212.938 46.6405L212.791 46.4562C212.688 46.322 212.575 46.1962 212.452 46.0802C212.136 45.8529 211.75 45.7438 211.362 45.7719C210.58 45.7719 209.719 45.7719 208.817 45.7982C207.914 45.8246 207.053 45.9035 206.275 45.9975C206.082 46.0126 205.891 46.0428 205.703 46.0878C205.523 46.1337 205.365 46.2415 205.256 46.3923C205.038 46.7006 205.038 47.0503 204.88 47.2834C204.742 47.5021 204.55 47.6819 204.323 47.8061C204.124 47.9264 203.947 48.0129 203.793 48.0881C203.639 48.1633 203.534 48.2272 203.459 48.2723C203.414 48.2925 203.372 48.3191 203.334 48.3513Z" fill="#263238"/>
<path d="M203.891 48.5279C203.927 48.5125 203.961 48.4923 203.993 48.4678C204.056 48.4226 204.154 48.3625 204.282 48.291C204.654 48.1062 205.043 47.9588 205.444 47.8511C206.773 47.5019 208.146 47.3424 209.52 47.3774C210.328 47.3774 211.095 47.3774 211.776 47.4074C212.456 47.4375 213.095 47.5466 213.614 47.633C213.847 47.6726 214.078 47.7241 214.306 47.7872C214.478 47.8185 214.642 47.8879 214.784 47.9902C214.84 48.0352 214.885 48.0925 214.916 48.1577C214.946 48.2229 214.962 48.2942 214.96 48.3662C214.981 48.3299 214.989 48.2874 214.983 48.2459C214.97 48.1263 214.914 48.0155 214.825 47.9338C214.682 47.815 214.514 47.7313 214.333 47.6894C214.103 47.6181 213.869 47.5591 213.633 47.5127C213.023 47.3934 212.407 47.3068 211.787 47.2533C211.084 47.2006 210.309 47.2157 209.505 47.2119C208.117 47.1746 206.732 47.3509 205.399 47.7346C204.992 47.8496 204.602 48.0151 204.237 48.2271C204.138 48.285 204.045 48.3517 203.959 48.4264C203.914 48.4941 203.887 48.5242 203.891 48.5279Z" fill="#263238"/>
<path d="M208.095 41.6551C208.22 41.6647 208.346 41.6647 208.471 41.6551L209.381 41.6213C209.734 41.6213 210.061 41.5649 210.287 41.5874C210.348 41.5898 210.408 41.6055 210.463 41.6334C210.517 41.6613 210.565 41.7008 210.603 41.7491C210.603 41.7491 210.603 41.7115 210.55 41.6626C210.478 41.5968 210.387 41.5559 210.291 41.5461C209.986 41.5224 209.681 41.5224 209.377 41.5461L208.467 41.5987C208.341 41.6035 208.216 41.6224 208.095 41.6551Z" fill="#FAFAFA"/>
<path d="M207.937 46.1178C208.001 46.1243 208.065 46.1243 208.129 46.1178H208.647C209.087 46.1178 209.693 46.1178 210.362 46.1178L211.306 46.1403C211.558 46.139 211.809 46.1591 212.058 46.2005C212.226 46.2354 212.377 46.327 212.486 46.4599C212.523 46.51 212.553 46.5643 212.577 46.6216C212.569 46.5573 212.545 46.4961 212.505 46.4449C212.399 46.3007 212.244 46.1993 212.069 46.1591C211.821 46.1112 211.569 46.086 211.317 46.0839C211.027 46.0839 210.708 46.0614 210.373 46.0576C209.7 46.0576 209.095 46.0576 208.655 46.0764L208.136 46.1027C208.069 46.1018 208.003 46.1069 207.937 46.1178Z" fill="#FAFAFA"/>
<path d="M209.918 45.4482C209.923 45.4032 209.923 45.3578 209.918 45.3128C209.918 45.1887 209.884 45.0684 209.866 44.9368C209.824 44.6247 209.772 44.1848 209.723 43.7148C209.674 43.2448 209.648 42.8049 209.629 42.4928C209.629 42.365 209.621 42.2396 209.606 42.1168C209.613 42.0719 209.613 42.0263 209.606 41.9814C209.601 42.0264 209.601 42.0719 209.606 42.1168C209.606 42.2033 209.606 42.3311 209.606 42.4928C209.606 42.8086 209.636 43.2448 209.681 43.7223C209.727 44.1998 209.79 44.6322 209.843 44.9406C209.869 45.0985 209.896 45.2226 209.915 45.3166C209.909 45.3604 209.911 45.4047 209.918 45.4482Z" fill="#FAFAFA"/>
<path d="M213.047 46.9453C213.085 46.9673 213.125 46.9849 213.167 46.998L213.498 47.122L214.596 47.498C214.798 47.5625 214.997 47.6391 215.19 47.7274C215.344 47.7986 215.468 47.9226 215.54 48.0771C215.586 48.1823 215.598 48.2994 215.573 48.4117C215.547 48.4869 215.517 48.5245 215.524 48.5283C215.556 48.4977 215.581 48.4605 215.596 48.4192C215.639 48.304 215.639 48.1773 215.596 48.062C215.521 47.8951 215.387 47.7614 215.22 47.686C215.026 47.591 214.825 47.5118 214.618 47.4492L213.513 47.0732L213.178 46.9679C213.135 46.955 213.091 46.9474 213.047 46.9453Z" fill="#FAFAFA"/>
<path d="M185.256 114.14L185.598 120.247C185.598 120.247 179.507 122.642 179.462 123.774L191.321 123.54L191.178 114.009L185.256 114.14Z" fill="#249748"/>
<g opacity="0.4">
<path d="M185.256 114.14L185.598 120.247C185.598 120.247 179.507 122.642 179.462 123.774L191.321 123.54L191.178 114.009L185.256 114.14Z" fill="black"/>
</g>
<path d="M189.253 119.66C189.368 119.692 189.467 119.765 189.531 119.866C189.595 119.967 189.619 120.088 189.599 120.205C189.571 120.321 189.5 120.422 189.4 120.486C189.3 120.551 189.178 120.574 189.061 120.551C188.937 120.52 188.83 120.443 188.76 120.335C188.69 120.228 188.664 120.098 188.685 119.972C188.727 119.855 188.813 119.758 188.924 119.702C189.035 119.646 189.164 119.635 189.283 119.671" fill="#E0E0E0"/>
<path d="M191.321 123.54L191.269 122.581L179.917 123.164C179.917 123.164 179.395 123.404 179.462 123.773L191.321 123.54Z" fill="#E0E0E0"/>
<path d="M185.407 120.19C185.407 120.247 185.696 120.266 185.986 120.446C186.275 120.626 186.433 120.867 186.486 120.845C186.538 120.822 186.444 120.487 186.091 120.277C185.738 120.066 185.392 120.138 185.407 120.19Z" fill="#263238"/>
<path d="M184.17 120.728C184.17 120.784 184.411 120.878 184.614 121.104C184.817 121.329 184.877 121.604 184.933 121.6C184.99 121.596 185.023 121.265 184.768 120.972C184.512 120.679 184.17 120.671 184.17 120.728Z" fill="#263238"/>
<path d="M183.493 122.232C183.546 122.232 183.621 121.95 183.467 121.638C183.313 121.326 183.038 121.202 183.015 121.262C182.993 121.322 183.162 121.476 183.286 121.736C183.41 121.995 183.448 122.224 183.493 122.232Z" fill="#263238"/>
<path d="M185.482 118.787C185.508 118.84 185.772 118.757 186.099 118.787C186.426 118.817 186.685 118.9 186.712 118.851C186.738 118.802 186.493 118.599 186.106 118.584C185.719 118.569 185.452 118.742 185.482 118.787Z" fill="#263238"/>
<g opacity="0.3">
<path d="M185.328 115.351L185.384 116.438L191.212 116.268L191.201 115.287L185.328 115.351Z" fill="black"/>
</g>
<path d="M185.437 117.558C185.632 117.609 185.836 117.609 186.031 117.558C186.244 117.513 186.45 117.445 186.648 117.355C186.764 117.299 186.877 117.236 186.986 117.167C187.051 117.127 187.11 117.079 187.163 117.024C187.199 116.982 187.22 116.929 187.223 116.873C187.227 116.818 187.212 116.762 187.182 116.716C187.152 116.676 187.114 116.644 187.069 116.621C187.025 116.599 186.976 116.588 186.926 116.588C186.851 116.586 186.776 116.598 186.704 116.622C186.574 116.654 186.448 116.699 186.328 116.757C186.129 116.854 185.947 116.981 185.787 117.133C185.52 117.393 185.429 117.611 185.448 117.622C185.467 117.633 185.606 117.457 185.881 117.246C186.042 117.121 186.219 117.017 186.407 116.938C186.517 116.891 186.63 116.853 186.745 116.825C186.87 116.787 186.975 116.787 187.009 116.825C187.043 116.863 187.009 116.855 187.009 116.893C186.971 116.933 186.928 116.968 186.881 116.998C186.781 117.065 186.676 117.127 186.569 117.182C186.387 117.277 186.197 117.355 186.001 117.415C185.809 117.447 185.621 117.495 185.437 117.558Z" fill="#263238"/>
<path d="M185.512 117.636C185.535 117.636 185.644 117.437 185.659 117.061C185.663 116.841 185.631 116.621 185.565 116.411C185.525 116.28 185.472 116.154 185.407 116.035C185.374 115.958 185.322 115.891 185.257 115.841C185.191 115.79 185.113 115.757 185.031 115.745C184.978 115.747 184.927 115.764 184.884 115.794C184.841 115.824 184.807 115.866 184.786 115.914C184.758 115.984 184.74 116.058 184.73 116.132C184.711 116.265 184.711 116.399 184.73 116.531C184.768 116.753 184.86 116.962 184.997 117.14C185.234 117.445 185.478 117.516 185.482 117.49C185.486 117.463 185.298 117.351 185.106 117.061C185 116.892 184.932 116.702 184.907 116.505C184.89 116.391 184.89 116.276 184.907 116.162C184.907 116.035 184.967 115.933 185.016 115.944C185.065 115.956 185.177 116.035 185.226 116.136C185.289 116.237 185.341 116.344 185.38 116.456C185.451 116.645 185.494 116.844 185.508 117.046C185.538 117.411 185.482 117.629 185.512 117.636Z" fill="#263238"/>
<path d="M217.288 88.2072C217.288 88.2072 215.991 94.8549 213.84 94.9489C211.208 95.0617 192.088 95.3249 192.088 95.3249L193.224 116.61L184.884 116.411L181.568 95.4339C181.197 93.5519 181.512 91.5995 182.455 89.9293L182.523 89.8127C183.235 88.6406 184.237 87.6712 185.432 86.9976C186.627 86.3241 187.975 85.9689 189.347 85.9662L205.226 85.7256L217.288 88.2072Z" fill="#263238"/>
<path d="M188.501 114.14L188.84 120.247C188.84 120.247 182.748 122.642 182.703 123.774L194.562 123.54L194.42 114.009L188.501 114.14Z" fill="#249748"/>
<path d="M192.494 119.66C192.609 119.692 192.708 119.765 192.772 119.866C192.836 119.967 192.861 120.088 192.84 120.205C192.813 120.322 192.742 120.423 192.642 120.487C192.541 120.552 192.42 120.575 192.303 120.551C192.179 120.52 192.071 120.443 192.001 120.335C191.931 120.228 191.905 120.098 191.927 119.972C191.969 119.855 192.054 119.758 192.165 119.702C192.277 119.646 192.405 119.635 192.525 119.671" fill="#E0E0E0"/>
<path d="M194.562 123.54L194.51 122.581L183.158 123.164C183.158 123.164 182.636 123.404 182.703 123.773L194.562 123.54Z" fill="#E0E0E0"/>
<path d="M188.648 120.19C188.648 120.247 188.941 120.266 189.227 120.446C189.513 120.626 189.674 120.867 189.727 120.845C189.78 120.822 189.686 120.487 189.332 120.277C188.979 120.066 188.633 120.138 188.648 120.19Z" fill="#263238"/>
<path d="M187.415 120.728C187.415 120.784 187.655 120.878 187.854 121.104C188.054 121.329 188.118 121.604 188.174 121.6C188.23 121.596 188.264 121.265 188.009 120.972C187.753 120.679 187.415 120.671 187.415 120.728Z" fill="#263238"/>
<path d="M186.734 122.232C186.791 122.232 186.862 121.95 186.708 121.638C186.554 121.326 186.279 121.202 186.257 121.262C186.234 121.322 186.403 121.476 186.527 121.736C186.651 121.995 186.678 122.224 186.734 122.232Z" fill="#263238"/>
<path d="M188.712 118.787C188.738 118.84 189.001 118.757 189.329 118.787C189.656 118.817 189.915 118.9 189.941 118.851C189.968 118.802 189.723 118.599 189.336 118.584C188.949 118.569 188.712 118.742 188.712 118.787Z" fill="#263238"/>
<g opacity="0.3">
<path d="M188.569 115.351L188.629 116.438L194.453 116.268L194.442 115.287L188.569 115.351Z" fill="black"/>
</g>
<path d="M188.678 117.558C188.873 117.609 189.077 117.609 189.272 117.558C189.484 117.513 189.691 117.445 189.889 117.355C190.005 117.3 190.118 117.237 190.227 117.167C190.292 117.127 190.351 117.079 190.404 117.024C190.44 116.982 190.461 116.929 190.464 116.873C190.467 116.818 190.453 116.762 190.423 116.716C190.393 116.676 190.354 116.644 190.31 116.621C190.266 116.599 190.217 116.588 190.167 116.588C190.092 116.586 190.017 116.598 189.945 116.622C189.815 116.654 189.689 116.699 189.569 116.757C189.371 116.853 189.189 116.98 189.031 117.133C188.761 117.393 188.655 117.611 188.689 117.622C188.723 117.633 188.847 117.457 189.122 117.246C189.283 117.121 189.46 117.017 189.648 116.938C189.758 116.891 189.871 116.853 189.986 116.825C190.111 116.787 190.216 116.787 190.25 116.825C190.283 116.863 190.25 116.855 190.25 116.893C190.212 116.933 190.169 116.968 190.122 116.998C190.022 117.065 189.917 117.127 189.81 117.182C189.628 117.277 189.438 117.355 189.242 117.415C189.05 117.447 188.862 117.495 188.678 117.558Z" fill="#263238"/>
<path d="M188.753 117.636C188.776 117.636 188.885 117.437 188.9 117.061C188.906 116.841 188.874 116.62 188.806 116.411C188.767 116.28 188.714 116.154 188.648 116.035C188.615 115.958 188.564 115.891 188.498 115.841C188.432 115.79 188.354 115.757 188.272 115.745C188.219 115.747 188.169 115.764 188.125 115.794C188.082 115.824 188.048 115.866 188.028 115.914C188 115.984 187.981 116.058 187.971 116.132C187.952 116.265 187.952 116.399 187.971 116.531C188.009 116.753 188.101 116.962 188.238 117.14C188.475 117.445 188.719 117.516 188.723 117.49C188.727 117.463 188.539 117.351 188.347 117.061C188.241 116.892 188.173 116.702 188.148 116.505C188.131 116.391 188.131 116.276 188.148 116.162C188.167 116.035 188.212 115.933 188.257 115.944C188.302 115.956 188.419 116.035 188.468 116.136C188.53 116.237 188.582 116.344 188.622 116.456C188.693 116.645 188.736 116.844 188.75 117.046C188.78 117.411 188.712 117.629 188.753 117.636Z" fill="#263238"/>
<path d="M219.378 88.2072C219.378 88.2072 218.085 94.8549 215.931 94.9489C213.299 95.0617 194.179 95.3249 194.179 95.3249L195.341 116.61L187.001 116.411L183.666 95.4339C183.296 93.5519 183.61 91.5995 184.553 89.9293L184.621 89.8127C185.334 88.64 186.336 87.6703 187.532 86.9967C188.728 86.3231 190.077 85.9683 191.449 85.9662L207.324 85.7256L219.378 88.2072Z" fill="#263238"/>
<path d="M203.113 61.5193L205.632 78.2437L203.929 85.7637L219.397 90.3171C220.796 88.3168 220.849 81.9661 220.8 77.4729C220.713 69.5544 221.063 69.1709 220.721 66.3922C220.379 63.6136 219.796 61.8313 218.33 60.9553L214.111 58.8008C214.111 58.8008 211.734 60.3048 210.287 60.2333C210.287 60.2333 208.569 60.3048 207.617 59.3911C207.617 59.3798 204.128 60.4326 203.113 61.5193Z" fill="#249748"/>
<path d="M203.113 61.5186L197.958 68.625L204.978 72.7459L204.44 70.1628L203.113 61.5186Z" fill="#249748"/>
<path d="M190.829 86.068C190.799 86.0743 190.768 86.0743 190.738 86.068L190.479 86.0868C190.337 86.0964 190.195 86.114 190.054 86.1395C189.863 86.1625 189.673 86.1977 189.486 86.2448C188.289 86.5389 187.183 87.1254 186.268 87.9518C185.639 88.5188 185.097 89.1765 184.662 89.9032C184.164 90.7359 183.855 91.6677 183.756 92.633C183.666 93.7055 183.707 94.785 183.876 95.8478C184.031 96.9758 184.252 98.1038 184.369 99.3032C184.636 101.672 184.993 103.921 185.328 105.962C185.662 108.004 185.986 109.835 186.245 111.384C186.505 112.933 186.708 114.178 186.832 115.046C186.888 115.467 186.933 115.798 186.967 116.047C186.967 116.152 186.99 116.235 186.997 116.306C187.001 116.336 187.001 116.366 186.997 116.396C186.985 116.369 186.978 116.34 186.975 116.31C186.975 116.238 186.945 116.156 186.922 116.05L186.753 115.058C186.595 114.178 186.377 112.937 186.106 111.407C185.835 109.876 185.508 108.023 185.147 105.992C184.786 103.962 184.437 101.702 184.17 99.322C184.049 98.1376 183.835 96.9946 183.685 95.8741C183.513 94.7963 183.476 93.7011 183.576 92.6142C183.679 91.6245 184.002 90.6703 184.519 89.8205C184.967 89.082 185.525 88.4163 186.174 87.8465C187.111 87.0168 188.245 86.4397 189.468 86.1696C189.915 86.0742 190.372 86.0401 190.829 86.068Z" fill="#455A64"/>
<path d="M196.754 80.9052C196.754 80.9052 202.722 82.8303 207.361 84.511C208.149 84.797 208.995 84.8835 209.825 84.7627C210.654 84.642 211.44 84.3178 212.114 83.8192C212.976 83.1836 213.615 82.2911 213.938 81.2699L217.115 71.2608L211.809 69.4033L208.264 78.401L195.066 76.6676" fill="#FFBE9D"/>
<path d="M188.862 78.8413L188.813 78.3676C188.846 78.0177 188.991 77.6879 189.227 77.4276C189.355 77.2855 189.508 77.1682 189.678 77.0816L191.239 76.2657C191.471 76.1478 191.734 76.1057 191.991 76.1454L195.19 76.6906L198.864 77.1719L198.112 81.3605L196.412 80.7965C196.412 80.7965 195.183 81.4771 194.423 81.3154C194.423 81.3154 193.72 81.7854 193.431 81.4395C193.431 81.4395 192.803 81.9809 192.566 81.9471C192.329 81.9132 191.863 81.6388 191.882 81.4771L191.9 81.259C191.78 81.325 191.644 81.3567 191.507 81.3507C191.369 81.3448 191.236 81.3013 191.122 81.2252C190.96 81.0989 190.836 80.9296 190.765 80.7364C190.472 80.7057 190.195 80.5864 189.972 80.3942C189.824 80.1775 189.725 79.9311 189.682 79.6723C189.682 79.6723 188.979 79.3301 188.862 78.8413Z" fill="#FFBE9D"/>
<path d="M191.224 77.3262C191.246 77.3262 191.284 77.4991 191.205 77.7623C191.088 78.0957 190.895 78.3971 190.641 78.6422C190.359 78.9317 190.096 79.1686 189.934 79.3641C189.772 79.5596 189.686 79.695 189.659 79.6837C189.633 79.6724 189.659 79.507 189.825 79.2814C190.024 79.0023 190.249 78.743 190.498 78.5068C190.733 78.2756 190.928 78.0077 191.077 77.7135C191.179 77.4879 191.19 77.3262 191.224 77.3262Z" fill="#EB996E"/>
<path d="M191.833 78.9993C191.654 79.6717 191.265 80.2696 190.723 80.7063C190.862 80.3947 191.039 80.1017 191.25 79.834C191.554 79.3678 191.78 78.973 191.833 78.9993Z" fill="#EB996E"/>
<path d="M192.648 80.1043C192.694 80.1343 192.562 80.4051 192.351 80.7134C192.141 81.0217 191.938 81.2473 191.893 81.2135C191.848 81.1796 191.983 80.9089 192.19 80.6043C192.397 80.2998 192.603 80.0742 192.648 80.1043Z" fill="#EB996E"/>
<path d="M192.498 79.6647C192.498 79.6872 192.416 79.691 192.318 79.6308C192.254 79.5883 192.2 79.5328 192.159 79.4681C192.118 79.4033 192.092 79.3306 192.081 79.2548C192.068 79.1807 192.071 79.1045 192.091 79.0318C192.11 78.959 192.145 78.8914 192.194 78.8337C192.265 78.7472 192.337 78.7247 192.355 78.7435C192.374 78.7623 192.231 78.9728 192.273 79.2248C192.314 79.4767 192.521 79.6158 192.498 79.6647Z" fill="#EB996E"/>
<path d="M193.389 80.7892C193.389 80.8117 193.322 80.8155 193.239 80.7892C193.186 80.7576 193.14 80.7157 193.104 80.666C193.068 80.6162 193.042 80.5596 193.028 80.4996C193.005 80.4341 193.002 80.363 193.02 80.2958C193.039 80.2286 193.077 80.1686 193.13 80.1236C193.228 80.056 193.303 80.1011 193.295 80.1236C193.254 80.1627 193.225 80.213 193.211 80.2685C193.198 80.3239 193.201 80.382 193.22 80.4357C193.261 80.6275 193.412 80.7403 193.389 80.7892Z" fill="#EB996E"/>
<path d="M191.979 78.4693C191.979 78.4918 191.897 78.5106 191.784 78.4693C191.709 78.4328 191.644 78.3775 191.597 78.3087C191.549 78.24 191.52 78.1601 191.513 78.0769C191.505 77.9937 191.519 77.9099 191.554 77.8338C191.588 77.7576 191.641 77.6916 191.709 77.6421C191.81 77.5706 191.893 77.5782 191.897 77.6007C191.9 77.6233 191.686 77.7925 191.709 78.0594C191.731 78.3264 191.994 78.4242 191.979 78.4693Z" fill="#EB996E"/>
<path d="M217.141 62.3117C215.931 61.7853 214.438 62.3117 213.562 63.2292C212.686 64.1466 212.283 65.3461 211.907 66.5117C211.531 67.6773 210.636 69.922 210.272 71.0462L217.149 73.9903C217.735 72.4036 218.282 70.8031 218.788 69.1888C219.217 67.8352 219.615 66.3763 219.119 65.0302" fill="#249748"/>
<path d="M219.119 65.0303C219.15 65.0821 219.174 65.1377 219.19 65.1958C219.25 65.3578 219.294 65.5253 219.322 65.6958C219.43 66.3347 219.413 66.9884 219.273 67.621C219.063 68.5842 218.785 69.5316 218.442 70.456C218.066 71.5314 217.69 72.7308 217.243 74.0205L217.209 74.1145L217.111 74.0731L212.268 72.0051L210.23 71.1328L210.148 71.0952L210.174 71.02C210.731 69.3806 211.351 67.8804 211.817 66.508C212.021 65.843 212.273 65.1934 212.569 64.5641C212.835 64.0024 213.199 63.493 213.645 63.0601C214.326 62.4179 215.228 62.0624 216.164 62.0674C216.42 62.0754 216.673 62.121 216.916 62.2028C216.997 62.2313 217.077 62.2665 217.153 62.3081C216.836 62.203 216.505 62.1447 216.171 62.1351C215.264 62.1549 214.398 62.5161 213.746 63.1466C213.321 63.5698 212.975 64.065 212.723 64.6092C212.438 65.2358 212.197 65.8816 212.001 66.5418C211.546 67.9368 210.926 69.4446 210.381 71.0726L210.324 70.9598L212.366 71.8322L217.201 73.9077L217.07 73.9603C217.514 72.6706 217.927 71.4787 218.299 70.4071C218.65 69.4907 218.94 68.5525 219.168 67.5984C219.313 66.9828 219.349 66.3464 219.273 65.7184C219.194 65.2634 219.104 65.0341 219.119 65.0303Z" fill="#263238"/>
<path d="M210.306 81.8343C210.283 81.8343 210.23 81.4583 209.997 80.7702C209.854 80.3645 209.663 79.9771 209.429 79.6159C209.131 79.1412 208.721 78.7473 208.234 78.4691H208.253L200.804 77.499L196.292 76.8937L194.333 76.6229L192.63 76.3485L191.878 76.2319C191.667 76.1944 191.45 76.233 191.265 76.3409L190.299 76.8072L189.686 77.0967C189.616 77.1352 189.541 77.1643 189.464 77.1832C189.528 77.1365 189.596 77.095 189.667 77.0591L190.265 76.7395L191.216 76.2432C191.42 76.1207 191.661 76.0729 191.897 76.1078L192.649 76.2131L194.352 76.4613L196.315 76.7169L200.827 77.3073L208.264 78.3262H208.286C208.796 78.6205 209.221 79.0398 209.523 79.5445C209.755 79.9172 209.938 80.3177 210.069 80.7364C210.151 80.9987 210.217 81.2663 210.264 81.5373C210.289 81.6345 210.303 81.7341 210.306 81.8343Z" fill="#EB996E"/>
<path d="M205.632 77.9759C205.58 77.7993 205.546 77.6179 205.53 77.4345C205.466 77.0585 205.388 76.5546 205.294 75.9568C205.079 74.6746 204.797 72.9676 204.485 71.0688C204.173 69.17 203.887 67.4742 203.677 66.1808C203.583 65.583 203.508 65.0829 203.447 64.6994C203.408 64.5189 203.388 64.335 203.387 64.1504C203.449 64.3237 203.494 64.5025 203.523 64.6843L203.812 66.1582C204.049 67.4028 204.361 69.1211 204.681 71.0462C205 72.9714 205.263 74.6822 205.433 75.9342C205.519 76.5622 205.576 77.0622 205.609 77.4382C205.634 77.6163 205.642 77.7964 205.632 77.9759Z" fill="#263238"/>
<path d="M276.884 160.282C276.884 160.339 222.462 160.38 155.346 160.38C88.2298 160.38 33.8 160.339 33.8 160.282C33.8 160.226 88.211 160.185 155.353 160.185C222.496 160.185 276.884 160.23 276.884 160.282Z" fill="#263238"/>
<path d="M41.0869 147.747C40.4815 148.563 39.3573 148.255 38.8497 147.747C38.3421 147.239 38.1353 146.484 37.951 145.777C37.5337 144.164 37.1163 142.472 37.5036 140.851C37.5974 140.358 37.8266 139.901 38.1653 139.531C38.3361 139.349 38.5517 139.215 38.7906 139.143C39.0295 139.07 39.2832 139.061 39.5265 139.118C40.0942 139.283 40.4326 139.851 40.677 140.389C41.3849 141.975 41.7329 143.698 41.696 145.435C41.7257 146.249 41.5124 147.054 41.0831 147.747" fill="#249748"/>
<g opacity="0.2">
<path d="M41.0869 147.747C40.4815 148.563 39.3573 148.255 38.8497 147.747C38.3421 147.239 38.1353 146.484 37.951 145.777C37.5337 144.164 37.1163 142.472 37.5036 140.851C37.5974 140.358 37.8266 139.901 38.1653 139.531C38.3361 139.349 38.5517 139.215 38.7906 139.143C39.0295 139.07 39.2832 139.061 39.5265 139.118C40.0942 139.283 40.4326 139.851 40.677 140.389C41.3849 141.975 41.7329 143.698 41.696 145.435C41.7257 146.249 41.5124 147.054 41.0831 147.747" fill="black"/>
</g>
<path d="M38.7933 151.894C37.8314 151.412 36.7406 151.25 35.6801 151.432C35.1017 151.469 34.5519 151.697 34.1159 152.079C33.7173 152.496 33.6271 153.244 34.0595 153.624C34.3411 153.822 34.6822 153.918 35.0258 153.895C35.853 153.895 36.7742 153.786 37.4209 154.301C37.7969 154.598 38.0301 155.075 38.4775 155.226C38.7012 155.285 38.938 155.269 39.1519 155.18C39.3657 155.092 39.5448 154.936 39.6619 154.737C39.8883 154.328 39.9489 153.847 39.8311 153.395C39.7849 153.082 39.6672 152.784 39.4873 152.523C39.3073 152.263 39.0699 152.048 38.7933 151.894Z" fill="#249748"/>
<path d="M42.651 148.981C42.3618 148.583 42.1746 148.12 42.1058 147.633C42.0369 147.146 42.0886 146.649 42.2562 146.187C42.595 145.264 43.1817 144.452 43.952 143.841C44.8375 143.097 45.8591 142.533 46.96 142.179C47.386 142.02 47.8415 141.956 48.2948 141.991C48.5207 142.01 48.7386 142.084 48.9294 142.206C49.1201 142.329 49.2779 142.496 49.389 142.694C49.686 143.292 49.3664 144.002 49.013 144.574C48.4172 145.592 47.742 146.561 46.9938 147.473C46.3922 148.206 45.7079 148.928 44.813 149.244C43.9182 149.56 43.0007 149.492 42.557 148.868" fill="#249748"/>
<path d="M40.79 160.283C40.7619 160.16 40.748 160.034 40.7486 159.907C40.7261 159.629 40.7035 159.283 40.6734 158.873C40.6361 158.369 40.5721 157.867 40.4817 157.369C40.3634 156.758 40.1962 156.156 39.9816 155.572C39.7723 154.985 39.4798 154.432 39.113 153.929C38.8147 153.521 38.4294 153.184 37.985 152.944C37.6839 152.783 37.3589 152.671 37.0225 152.613C36.8951 152.606 36.7688 152.585 36.6465 152.549C36.7715 152.536 36.8975 152.536 37.0225 152.549C37.3718 152.584 37.7119 152.682 38.0264 152.838C38.495 153.076 38.9027 153.418 39.2183 153.838C39.5995 154.348 39.9024 154.912 40.117 155.512C40.3386 156.096 40.5085 156.699 40.6246 157.313C40.7087 157.82 40.7627 158.333 40.7862 158.847C40.7862 159.287 40.8088 159.64 40.8088 159.884C40.8159 160.018 40.8096 160.151 40.79 160.283Z" fill="#263238"/>
<path d="M40.741 159.485C40.7328 159.427 40.7328 159.367 40.741 159.309C40.741 159.177 40.741 159.012 40.741 158.809C40.741 158.376 40.7711 157.745 40.7673 156.97C40.7673 155.413 40.6959 153.266 40.5004 150.901C40.3048 148.536 40.0153 146.389 39.7484 144.885C39.6844 144.509 39.6205 144.156 39.5566 143.855C39.4927 143.554 39.4476 143.291 39.3987 143.077C39.3498 142.862 39.3197 142.701 39.2934 142.588C39.2787 142.531 39.2699 142.473 39.2671 142.415C39.2671 142.415 39.2934 142.471 39.3235 142.58C39.3536 142.69 39.4024 142.866 39.4551 143.066C39.5077 143.265 39.5754 143.536 39.6431 143.836C39.7108 144.137 39.786 144.483 39.8574 144.867C40.2329 146.856 40.5015 148.864 40.662 150.883C40.8576 153.251 40.9177 155.395 40.8876 156.966C40.8876 157.745 40.8425 158.376 40.8087 158.809C40.8087 159.012 40.7786 159.185 40.7673 159.309C40.7625 159.368 40.7537 159.427 40.741 159.485Z" fill="#263238"/>
<path d="M40.8426 155.338C40.8269 155.163 40.8269 154.987 40.8426 154.812C40.8727 154.477 40.9291 153.992 41.0419 153.402C41.3402 151.857 41.825 150.355 42.4857 148.927C43.1219 147.485 44.0136 146.169 45.1177 145.043C45.3107 144.852 45.5154 144.672 45.7306 144.506C45.8246 144.431 45.9073 144.355 45.99 144.295L46.2269 144.141C46.369 144.041 46.5186 143.951 46.6743 143.874C46.1565 144.259 45.663 144.676 45.1967 145.122C44.1239 146.257 43.2517 147.565 42.6173 148.991C42.2589 149.77 41.9512 150.572 41.6961 151.39C41.4794 152.057 41.2975 152.735 41.1509 153.421C41.0268 154.007 40.9516 154.488 40.9027 154.819C40.8944 154.993 40.8743 155.167 40.8426 155.338Z" fill="#263238"/>
</g>
<defs>
<clipPath id="clip0_244_2146">
<rect width="312" height="165" fill="white"/>
</clipPath>
</defs>
</svg>
