<svg width="312" height="165" viewBox="0 0 312 165" fill="none" xmlns="http://www.w3.org/2000/svg">
<g clip-path="url(#clip0_244_2174)">
<g clip-path="url(#clip1_244_2174)">
<path d="M260.5 142.843H51.5V142.947H260.5V142.843Z" fill="#EBEBEB"/>
<path d="M239.559 149.567H225.714V149.672H239.559V149.567Z" fill="#EBEBEB"/>
<path d="M189.95 150.705H186.317V150.81H189.95V150.705Z" fill="#EBEBEB"/>
<path d="M225.296 145.688H217.274V145.793H225.296V145.688Z" fill="#EBEBEB"/>
<path d="M91.4816 146.392H73.4282V146.496H91.4816V146.392Z" fill="#EBEBEB"/>
<path d="M97.852 146.392H95.2061V146.496H97.852V146.392Z" fill="#EBEBEB"/>
<path d="M145.612 148.155H106.454V148.26H145.612V148.155Z" fill="#EBEBEB"/>
<path d="M150.566 124.2H69.8543C69.222 124.199 68.616 123.947 68.1693 123.499C67.7226 123.052 67.4717 122.445 67.4717 121.813V8.35514C67.4772 7.72648 67.7305 7.12537 68.1766 6.68239C68.6227 6.23941 69.2256 5.99033 69.8543 5.98926H150.566C151.199 5.98926 151.806 6.24072 152.254 6.68833C152.701 7.13594 152.953 7.74302 152.953 8.37604V121.813C152.953 122.446 152.701 123.053 152.254 123.501C151.806 123.948 151.199 124.2 150.566 124.2ZM69.8543 6.07286C69.2497 6.07397 68.6703 6.31491 68.2432 6.7428C67.8161 7.17069 67.5762 7.75056 67.5762 8.35514V121.813C67.5762 122.417 67.8161 122.997 68.2432 123.425C68.6703 123.853 69.2497 124.094 69.8543 124.095H150.566C151.171 124.094 151.751 123.853 152.178 123.425C152.606 122.998 152.847 122.418 152.848 121.813V8.35514C152.847 7.75018 152.606 7.17031 152.178 6.74254C151.751 6.31477 151.171 6.07396 150.566 6.07286H69.8543Z" fill="#EBEBEB"/>
<path d="M240.983 124.2H160.268C159.635 124.199 159.029 123.947 158.581 123.499C158.134 123.052 157.882 122.446 157.881 121.813V8.35514C157.887 7.7261 158.142 7.125 158.588 6.68213C159.035 6.23927 159.639 5.99032 160.268 5.98926H240.983C241.611 5.99143 242.213 6.241 242.658 6.68386C243.104 7.12672 243.356 7.7272 243.362 8.35514V121.813C243.362 122.444 243.112 123.05 242.666 123.498C242.22 123.945 241.615 124.197 240.983 124.2ZM160.268 6.07286C159.663 6.07396 159.083 6.31477 158.655 6.74254C158.227 7.17031 157.986 7.75018 157.985 8.35514V121.813C157.986 122.418 158.227 122.998 158.655 123.425C159.083 123.853 159.663 124.094 160.268 124.095H240.983C241.588 124.094 242.168 123.853 242.596 123.425C243.024 122.998 243.265 122.418 243.266 121.813V8.35514C243.265 7.75018 243.024 7.17031 242.596 6.74254C242.168 6.31477 241.588 6.07396 240.983 6.07286H160.268Z" fill="#EBEBEB"/>
<path d="M237.176 14.2031H168.436V75.1977H237.176V14.2031Z" fill="#E6E6E6"/>
<path d="M235.361 15.874H170.153V73.558H235.361V15.874Z" fill="#F0F0F0"/>
<path d="M185.46 15.874L170.153 73.4326V46.388L178.233 15.874H185.46Z" fill="white"/>
<path d="M190.878 15.874L175.441 73.558H172.979L188.416 15.874H190.878Z" fill="white"/>
<path d="M235.361 52.2754V61.4923L232.239 73.5599H229.777L235.361 52.2754Z" fill="white"/>
<path d="M192.901 14.8379H191.802V74.846H192.901V14.8379Z" fill="#E6E6E6"/>
<path d="M214.185 14.8379H213.086V74.846H214.185V14.8379Z" fill="#E6E6E6"/>
<path d="M111.328 108.839H73.4282V142.826H111.328V108.839Z" fill="#F5F5F5"/>
<path d="M86.6203 108.839H73.4282V142.826H86.6203V108.839Z" fill="#EBEBEB"/>
<path d="M118.869 75.5479H80.9692V109.535H118.869V75.5479Z" fill="#EBEBEB"/>
<path d="M94.1613 75.5479H80.9692V109.535H94.1613V75.5479Z" fill="#E0E0E0"/>
<path d="M111.328 41.6621H73.4282V75.6497H111.328V41.6621Z" fill="#F5F5F5"/>
<path d="M86.6203 41.6621H73.4282V75.6497H86.6203V41.6621Z" fill="#EBEBEB"/>
<path d="M152.572 108.868H114.672V142.856H152.572V108.868Z" fill="#EBEBEB"/>
<path d="M127.864 108.868H114.672V142.856H127.864V108.868Z" fill="#E0E0E0"/>
<path d="M156.769 88.2812H118.869V109.57H156.769V88.2812Z" fill="#F5F5F5"/>
<path d="M132.061 88.2812H118.869V109.57H132.061V88.2812Z" fill="#E6E6E6"/>
<path d="M140.413 54.6484H115.926V88.636H140.413V54.6484Z" fill="#EBEBEB"/>
<path d="M124.449 54.6484H115.926V88.636H124.449V54.6484Z" fill="#E0E0E0"/>
<path d="M196.341 142.888H234.241V108.9H196.341V142.888Z" fill="#F5F5F5"/>
<path d="M221.049 142.888H234.241V108.9H221.049V142.888Z" fill="#E6E6E6"/>
<path d="M188.796 109.6H226.696V81.9322H188.796V109.6Z" fill="#EBEBEB"/>
<path d="M213.509 109.6H226.701V81.9322H213.509V109.6Z" fill="#E0E0E0"/>
<path d="M197.691 81.9316H234.241V68.3884H197.691V81.9316Z" fill="#F5F5F5"/>
<path d="M221.525 81.9316H234.245V68.3884H221.525V81.9316Z" fill="#E6E6E6"/>
<path d="M156 161.72C200.761 161.72 237.046 159.602 237.046 156.989C237.046 154.375 200.761 152.257 156 152.257C111.24 152.257 74.9541 154.375 74.9541 156.989C74.9541 159.602 111.24 161.72 156 161.72Z" fill="#F5F5F5"/>
<path d="M201.086 28.959H189.453C188.407 28.959 187.56 29.8068 187.56 30.8525V41.4028C187.56 42.4486 188.407 43.2964 189.453 43.2964H201.086C202.132 43.2964 202.98 42.4486 202.98 41.4028V30.8525C202.98 29.8068 202.132 28.959 201.086 28.959Z" fill="#249748"/>
<path d="M193.763 41.4736C193.763 41.4736 194.737 46.1845 201.374 48.797C201.374 48.797 197.316 46.2012 197.566 41.4736H193.763Z" fill="#249748"/>
<path d="M191.932 35.7222L194.135 38.782L198.608 33.4775" stroke="white" stroke-width="3.48333" stroke-linecap="round" stroke-linejoin="round"/>
<path d="M215.578 45.4576C217.622 46.9248 219.47 49.4328 218.086 56.4552C216.703 63.4776 216.352 65.1496 216.352 65.1496L202.976 63.6448C202.976 63.6448 202.349 57.4292 203.394 51.5813C204.806 44.0281 209.593 41.1564 215.578 45.4576Z" fill="#263238"/>
<path d="M202.19 84.2598C202.19 84.2598 197.659 108.399 196.451 118.318C194.871 131.251 188.413 150.17 188.413 150.17L190.996 150.839C190.996 150.839 200.1 134.758 201.864 120.296C209.095 105.511 209.68 87.3028 209.68 87.3028L202.19 84.2598Z" fill="#EEC1BB"/>
<path d="M183.589 156.023C184.006 155.831 184.455 155.718 184.914 155.689C184.914 155.689 186.502 154.752 188.074 151.124H189.846C190.145 151.128 190.435 151.224 190.678 151.398C190.921 151.572 191.105 151.816 191.205 152.098C191.234 152.177 191.251 152.26 191.255 152.345C191.235 152.765 191.189 153.184 191.117 153.599C190.858 155.012 190.513 156.407 190.085 157.779L189.784 157.699L190.327 155.062C190.511 154.163 189.566 155.028 189.132 155.935C188.697 156.842 188.041 157.724 186.097 157.306C183.806 156.763 182.891 156.433 183.589 156.023Z" fill="#263238"/>
<path d="M191.271 152.131C191.606 151.275 192.032 149.741 192.032 149.741L188.241 149.214C188.241 149.214 188.241 151.078 187.539 152.299C189.52 152.29 191.271 152.131 191.271 152.131Z" fill="#263238"/>
<path d="M206.892 83.876C206.892 83.876 207.456 108.433 208.322 118.382C209.454 131.365 207.047 151.212 207.047 151.212L209.714 151.329C209.714 151.329 215.294 133.714 214.04 119.193C218.057 103.234 214.876 85.3014 214.876 85.3014L206.892 83.876Z" fill="#EEC1BB"/>
<path d="M202.9 156.834C203.295 156.597 203.73 156.434 204.184 156.354C204.184 156.354 205.659 155.254 206.834 151.476L208.589 151.275C208.889 151.247 209.19 151.312 209.451 151.462C209.713 151.611 209.921 151.838 210.048 152.111C210.086 152.186 210.111 152.266 210.123 152.349C210.151 152.777 210.151 153.205 210.123 153.632C210.016 155.059 209.822 156.477 209.542 157.879L209.237 157.838L209.492 155.154C209.576 154.243 208.736 155.204 208.397 156.153C208.059 157.102 207.49 158.076 205.5 157.825C203.185 157.545 202.236 157.307 202.9 156.834Z" fill="#263238"/>
<path d="M210.102 152.13C210.34 151.244 210.599 149.672 210.599 149.672L206.775 149.56C206.775 149.56 206.975 151.411 206.411 152.703C208.376 152.473 210.102 152.13 210.102 152.13Z" fill="#263238"/>
<path d="M201.224 80.2314L196.254 114.599C196.254 114.599 212.439 117.107 218.918 115.64C218.918 115.64 220.51 95.7978 213.747 81.3642L201.224 80.2314Z" fill="#263238"/>
<path d="M186.263 68.0792L181.937 63.8073C181.937 63.8073 181.791 62.662 181.369 62.3443C180.946 62.0266 177.987 60.9482 177.607 61.1864C177.226 61.4247 176.737 63.824 177.247 64.2629C177.757 64.7018 180.453 65.2619 180.729 65.2159L185.423 70.7795L186.263 68.0792Z" fill="#EEC1BB"/>
<path d="M201.747 60.292C199.882 61.2827 193.261 70.5372 192.287 70.9928C191.313 71.4484 183.86 65.4083 183.86 65.4083L182.606 67.5526C182.606 67.5526 188.718 76.2136 192.174 75.7956C195.631 75.3776 202.248 68.0626 202.248 68.0626L201.747 60.292Z" fill="#249748"/>
<path opacity="0.1" d="M201.747 60.292C199.882 61.2827 193.261 70.5372 192.287 70.9928C191.313 71.4484 183.86 65.4083 183.86 65.4083L182.606 67.5526C182.606 67.5526 188.718 76.2136 192.174 75.7956C195.631 75.3776 202.248 68.0626 202.248 68.0626L201.747 60.292Z" fill="white"/>
<path d="M184.27 65.6385L183.752 65.1494L182.393 67.4484L182.882 68.3889L184.27 65.6385Z" fill="#249748"/>
<path opacity="0.2" d="M199.59 70.7423C201.137 69.2668 202.249 68.042 202.249 68.042L202.132 66.2028L201.563 64.418C200.761 65.2435 200.165 66.2461 199.822 67.3447C199.479 68.4434 199.4 69.6073 199.59 70.7423Z" fill="black"/>
<path d="M201.119 79.8793C200.597 70.6833 200.831 65.6171 201.069 63.0882C201.332 60.3921 201.746 60.2918 201.746 60.2918C201.746 60.2918 204.672 60.0075 207.209 60.0284C209.172 60.095 211.128 60.3017 213.061 60.6471C214.902 60.9524 216.718 61.3897 218.495 61.9554C218.199 62.7914 217.931 63.6274 217.68 64.3631C217.35 65.3621 217.053 66.2859 216.782 67.1512C216.28 68.7646 215.887 70.1608 215.578 71.4106C214.779 74.5577 214.312 77.78 214.186 81.0246C214.186 81.0246 217.4 89.4264 218.027 95.5919L207.368 96.7414L205.905 90.5759L204.442 96.9504L198.486 94.8604L201.119 79.8793Z" fill="#249748"/>
<path opacity="0.1" d="M201.119 79.8793C200.597 70.6833 200.831 65.6171 201.069 63.0882C201.332 60.3921 201.746 60.2918 201.746 60.2918C201.746 60.2918 204.672 60.0075 207.209 60.0284C209.172 60.095 211.128 60.3017 213.061 60.6471C214.902 60.9524 216.718 61.3897 218.495 61.9554C218.199 62.7914 217.931 63.6274 217.68 64.3631C217.35 65.3621 217.053 66.2859 216.782 67.1512C216.28 68.7646 215.887 70.1608 215.578 71.4106C214.779 74.5577 214.312 77.78 214.186 81.0246C214.186 81.0246 217.4 89.4264 218.027 95.5919L207.368 96.7414L205.905 90.5759L204.442 96.9504L198.486 94.8604L201.119 79.8793Z" fill="white"/>
<path opacity="0.2" d="M215.06 73.6647C215.203 72.9625 215.37 72.2143 215.575 71.4117C215.704 70.9018 215.846 70.3667 215.993 69.7982C215.575 68.3729 215.157 69.4889 215.157 69.4889C214.897 70.8663 214.865 72.2768 215.06 73.6647Z" fill="black"/>
<path d="M207.357 60.589C207.485 60.5239 207.618 60.4666 207.754 60.4176C208.055 60.1794 208.423 59.6067 208.406 58.2148C208.392 57.6629 208.341 57.1126 208.251 56.5679L212.126 55.8447C212.126 55.8447 210.805 58.453 211.904 60.3926C212.285 60.5598 212.511 60.8106 212.469 61.1157C212.18 63.352 207.365 65.5172 207.365 65.5172C207.365 65.5172 205.02 61.8723 207.357 60.589Z" fill="#EEC1BB"/>
<path opacity="0.2" d="M208.251 56.5679C208.338 57.1086 208.389 57.6547 208.401 58.2022C211.018 58.2022 212.126 55.8447 212.126 55.8447L208.251 56.5679Z" fill="black"/>
<path d="M210.395 45.7466C207.026 45.5627 205.843 47.3057 205.408 50.7626C204.861 55.0847 205.655 58.2197 209.918 57.5258C215.708 56.5686 215.992 46.0517 210.395 45.7466Z" fill="#EEC1BB"/>
<path d="M207.595 50.7158C207.297 51.204 206.942 51.6545 206.537 52.0576C206.629 52.2006 206.76 52.3153 206.913 52.3891C207.066 52.4629 207.237 52.4928 207.407 52.4756L207.595 50.7158Z" fill="#D4827D"/>
<path d="M209.672 50.5324C209.672 50.8083 209.781 51.0466 209.965 51.0591C210.149 51.0717 210.316 50.8627 210.341 50.5868C210.366 50.3109 210.228 50.0726 210.044 50.0601C209.86 50.0476 209.693 50.2566 209.672 50.5324Z" fill="#263238"/>
<path d="M210.119 50.076L209.538 49.7959C209.538 49.7959 209.797 50.3226 210.119 50.076Z" fill="#263238"/>
<path d="M206.24 50.2059C206.22 50.4818 206.349 50.7159 206.533 50.7326C206.717 50.7493 206.888 50.5362 206.909 50.2561C206.93 49.976 206.796 49.7461 206.613 49.7294C206.429 49.7127 206.261 49.9301 206.24 50.2059Z" fill="#263238"/>
<path d="M206.688 49.751L206.107 49.4668C206.107 49.4668 206.366 49.9977 206.688 49.751Z" fill="#263238"/>
<path d="M209.835 48.2081C210.103 48.19 210.371 48.2338 210.619 48.336C210.867 48.4382 211.088 48.5961 211.265 48.7974" stroke="#263238" stroke-width="0.796799" stroke-linecap="round" stroke-linejoin="round"/>
<path d="M207.415 47.9321C207.188 47.8606 206.948 47.8415 206.713 47.8762C206.477 47.911 206.253 47.9987 206.057 48.1328" stroke="#263238" stroke-width="0.796799" stroke-linecap="round" stroke-linejoin="round"/>
<path d="M213.769 51.6277C213.769 51.6277 212.343 48.7727 212.699 46.6493C212.699 46.6493 206.174 43.5561 205.471 50.311C205.471 50.311 205.15 44.2583 210.947 44.459C216.745 44.6596 216.256 53.1158 213.129 55.4775C213.129 55.4607 214.647 53.4125 213.769 51.6277Z" fill="#263238"/>
<path d="M213.179 52.3096C213.235 51.9218 213.443 51.572 213.756 51.337C214.069 51.1019 214.463 51.0007 214.851 51.0556C215.888 51.227 216.268 53.4006 213.643 53.7726C213.267 53.8144 213.071 53.4382 213.179 52.3096Z" fill="#EEC1BB"/>
<path d="M210.036 53.2529C209.781 53.5046 209.479 53.7032 209.146 53.8373C208.814 53.9715 208.459 54.0385 208.101 54.0346" stroke="#263238" stroke-width="0.796799" stroke-linecap="round" stroke-linejoin="round"/>
<path d="M212.698 46.6483C212.698 46.6483 205.416 44.7548 204.806 51.5807" stroke="#263238" stroke-width="0.796799" stroke-linecap="round" stroke-linejoin="round"/>
<path d="M206.203 62.249C206.203 62.249 205.647 67.7833 206.558 72.8202C206.558 72.8202 208.706 65.0371 211.724 62.3911L208.255 62.8886L206.203 62.249Z" fill="#249748"/>
<path opacity="0.5" d="M206.203 62.249C206.203 62.249 205.647 67.7833 206.558 72.8202C206.558 72.8202 208.706 65.0371 211.724 62.3911L208.255 62.8886L206.203 62.249Z" fill="white"/>
<path d="M211.774 59.787L208.25 62.3912V59.624C208.25 59.624 205.404 60.6565 205.604 63.804L207.941 62.7298V63.804L208.489 62.7674L210.336 64.8783C210.336 64.8783 212.597 62.2407 212.844 61.4465C213.091 60.6523 211.774 59.787 211.774 59.787Z" fill="#249748"/>
<path opacity="0.7" d="M211.774 59.787L208.25 62.3912V59.624C208.25 59.624 205.404 60.6565 205.604 63.804L207.941 62.7298V63.804L208.489 62.7674L210.336 64.8783C210.336 64.8783 212.597 62.2407 212.844 61.4465C213.091 60.6523 211.774 59.787 211.774 59.787Z" fill="white"/>
<path d="M215.453 84.2057L212.217 68.7689C212.184 68.6074 212.096 68.4623 211.968 68.3581C211.84 68.2538 211.68 68.1967 211.515 68.1963H201.563C201.489 68.1964 201.417 68.2125 201.351 68.2436C201.284 68.2746 201.225 68.3198 201.178 68.376C201.131 68.4321 201.097 68.4979 201.078 68.5687C201.06 68.6395 201.056 68.7135 201.069 68.7857L203.765 83.9005C203.793 84.0635 203.877 84.2117 204.002 84.3199C204.127 84.4282 204.286 84.4897 204.451 84.4941L214.972 84.8076C215.045 84.806 215.118 84.7883 215.184 84.7558C215.249 84.7232 215.307 84.6766 215.353 84.6191C215.399 84.5617 215.432 84.4949 215.449 84.4235C215.466 84.352 215.467 84.2777 215.453 84.2057Z" fill="#263238"/>
<path opacity="0.1" d="M215.453 84.2057L212.217 68.7689C212.184 68.6074 212.096 68.4623 211.968 68.3581C211.84 68.2538 211.68 68.1967 211.515 68.1963H201.563C201.489 68.1964 201.417 68.2125 201.351 68.2436C201.284 68.2746 201.225 68.3198 201.178 68.376C201.131 68.4321 201.097 68.4979 201.078 68.5687C201.06 68.6395 201.056 68.7135 201.069 68.7857L203.765 83.9005C203.793 84.0635 203.877 84.2117 204.002 84.3199C204.127 84.4282 204.286 84.4897 204.451 84.4941L214.972 84.8076C215.045 84.806 215.118 84.7883 215.184 84.7558C215.249 84.7232 215.307 84.6766 215.353 84.6191C215.399 84.5617 215.432 84.4949 215.449 84.4235C215.466 84.352 215.467 84.2777 215.453 84.2057Z" fill="white"/>
<path d="M219.754 79.2075L214.609 75.9638C214.609 75.9638 214.216 74.8812 213.739 74.6597C213.263 74.4381 210.136 74.0243 209.831 74.3378C209.526 74.6513 209.551 77.0966 210.145 77.4185C210.738 77.7403 213.489 77.7027 213.748 77.5982L219.512 82.0123L219.754 79.2075Z" fill="#EEC1BB"/>
<path d="M218.496 61.9561C218.496 61.9561 215.152 66.8383 215.624 71.0183L220.084 78.4002L217.087 76.8703L215.729 79.4285C215.729 79.4285 219.177 84.7412 223.566 83.4872C227.955 82.2332 218.496 61.9561 218.496 61.9561Z" fill="#249748"/>
<path opacity="0.1" d="M218.496 61.9561C218.496 61.9561 215.152 66.8383 215.624 71.0183L220.084 78.4002L217.087 76.8703L215.729 79.4285C215.729 79.4285 219.177 84.7412 223.566 83.4872C227.955 82.2332 218.496 61.9561 218.496 61.9561Z" fill="white"/>
<path d="M217.401 76.7285L215.695 79.9012L215.311 78.9941L216.669 76.415L217.401 76.7285Z" fill="#249748"/>
<path d="M211.177 68.1968C210.784 68.1968 210.784 78.4796 210.784 78.4796L201.797 78.2205C201.797 78.2205 200.786 69.5261 201.797 68.1885L211.177 68.1968Z" fill="white"/>
<path opacity="0.1" d="M211.177 68.1968C210.784 68.1968 210.784 78.4796 210.784 78.4796L201.797 78.2205C201.797 78.2205 200.786 69.5261 201.797 68.1885L211.177 68.1968Z" fill="black"/>
<path d="M174.058 60.0501L182.556 63.624C182.602 63.6439 182.644 63.6728 182.678 63.7088C182.713 63.7448 182.74 63.7874 182.759 63.834C182.777 63.8806 182.786 63.9303 182.785 63.9804C182.784 64.0304 182.773 64.0797 182.753 64.1255C182.713 64.2158 182.64 64.2868 182.548 64.3228C182.456 64.3589 182.354 64.3571 182.264 64.3178L173.711 60.6938L173.632 60.652L172.637 59.9121L173.946 60.025C173.984 60.0273 174.022 60.0358 174.058 60.0501Z" fill="#263238"/>
<path d="M145.864 77.6642L137.608 78.3999L134.298 76.5314C134.298 76.5314 123.68 70.6167 120.922 68.7482C120.086 68.1756 119.304 66.9299 118.631 65.4669C118.066 64.2124 117.58 62.9239 117.176 61.6088C116.988 61.0194 116.821 60.4551 116.679 59.9368C116.361 58.8207 116.165 57.9847 116.11 57.759C116.113 57.741 116.113 57.7227 116.11 57.7047H116.131L118.748 56.8687L120.934 56.1748C120.934 56.1748 121.034 56.6931 121.206 57.4831L121.356 58.1812C121.402 58.3818 121.448 58.5992 121.498 58.8166C122.05 61.2493 122.899 64.5682 123.513 65.1116C124.504 65.9853 136.96 74.4748 137.403 74.6964C137.846 74.9179 141.813 74.6964 141.813 74.6964L145.864 77.6642Z" fill="#E4897B"/>
<path d="M116.044 45.9846C119.847 45.9261 122.268 57.7137 122.268 57.7137L117.252 60.2217C115.827 57.7547 115.084 54.953 115.099 52.1041C115.216 47.5814 116.044 45.9846 116.044 45.9846Z" fill="#249748"/>
<path opacity="0.5" d="M116.044 45.9846C119.847 45.9261 122.268 57.7137 122.268 57.7137L117.252 60.2217C115.827 57.7547 115.084 54.953 115.099 52.1041C115.216 47.5814 116.044 45.9846 116.044 45.9846Z" fill="white"/>
<path d="M122.823 57.9427L121.469 58.8205L119.701 59.9659L117.159 61.6086L116.704 61.9054L116.152 60.2292L116.662 59.9533L116.996 59.7694L119.32 58.5029L121.176 57.4871L122.104 56.9813L122.267 56.8936L122.823 57.9427Z" fill="#249748"/>
<path opacity="0.2" d="M119.927 61.9058C119.935 63.2126 119.468 64.4779 118.614 65.4671C118.05 64.2126 117.564 62.9241 117.16 61.609L116.704 61.9058L116.152 60.2338L116.662 59.9579C116.345 58.8418 116.148 58.0058 116.094 57.7801V57.7132L116.696 53.1152C117.485 54.3022 118.16 55.562 118.71 56.8772C118.928 57.3914 119.128 57.939 119.312 58.5074C119.376 58.7025 119.435 58.9031 119.488 59.1094C119.567 59.3936 119.634 59.682 119.693 59.9704C119.829 60.6072 119.907 61.255 119.927 61.9058Z" fill="black"/>
<path d="M115.475 154.112L118.974 154.484L119.63 146.939L116.131 146.567L115.475 154.112Z" fill="#E4897B"/>
<path d="M98.0234 153.858H101.409L101.689 146.008H98.2993L98.0234 153.858Z" fill="#E4897B"/>
<path d="M101.881 153.464H97.7642C97.6968 153.465 97.6318 153.489 97.5795 153.531C97.5273 153.574 97.4907 153.632 97.4758 153.698L96.807 156.716C96.7929 156.78 96.7917 156.847 96.8034 156.911C96.8151 156.976 96.8396 157.038 96.8754 157.093C96.9111 157.148 96.9575 157.196 97.0118 157.233C97.066 157.27 97.1271 157.296 97.1915 157.309C97.2275 157.316 97.2642 157.316 97.3002 157.309C98.6336 157.309 99.6034 157.209 101.275 157.209C102.308 157.209 105.418 157.314 106.839 157.314C108.26 157.314 108.448 155.909 107.863 155.78C105.251 155.211 103.265 154.421 102.429 153.69C102.28 153.55 102.085 153.47 101.881 153.464Z" fill="#263238"/>
<path d="M102.116 153.937C102.1 153.933 102.085 153.924 102.074 153.911C102.062 153.899 102.055 153.883 102.053 153.866C102.051 153.851 102.054 153.836 102.061 153.823C102.067 153.809 102.078 153.798 102.091 153.791C102.212 153.712 103.307 153.039 103.684 153.235C103.726 153.254 103.762 153.285 103.787 153.324C103.812 153.364 103.824 153.41 103.822 153.457C103.83 153.535 103.819 153.613 103.79 153.686C103.761 153.759 103.714 153.824 103.654 153.875C103.464 154.006 103.233 154.068 103.002 154.05C102.704 154.046 102.406 154.008 102.116 153.937ZM102.346 153.824C102.742 153.959 103.174 153.936 103.554 153.762C103.594 153.726 103.624 153.681 103.643 153.631C103.662 153.58 103.669 153.526 103.663 153.473C103.663 153.411 103.633 153.381 103.608 153.381C103.578 153.364 103.543 153.357 103.508 153.36C103.094 153.439 102.7 153.596 102.346 153.824Z" fill="#249748"/>
<path d="M102.078 153.962C102.066 153.953 102.056 153.942 102.05 153.929C102.043 153.916 102.04 153.901 102.041 153.887C102.041 153.841 102.128 152.867 102.521 152.549C102.567 152.508 102.62 152.477 102.679 152.459C102.737 152.441 102.799 152.436 102.86 152.444C102.921 152.444 102.979 152.465 103.027 152.503C103.074 152.541 103.107 152.594 103.119 152.653C103.186 153.013 102.509 153.757 102.162 153.949H102.124C102.11 153.958 102.094 153.962 102.078 153.962ZM102.622 152.641C102.379 152.945 102.233 153.315 102.204 153.703C102.555 153.439 102.985 152.867 102.943 152.653C102.943 152.633 102.943 152.574 102.826 152.574H102.789C102.733 152.578 102.679 152.599 102.634 152.633L102.622 152.641Z" fill="#249748"/>
<path d="M119.342 153.36H115.224C115.157 153.361 115.092 153.383 115.04 153.425C114.988 153.467 114.951 153.525 114.936 153.59L114.267 156.608C114.24 156.738 114.265 156.873 114.337 156.984C114.409 157.096 114.522 157.174 114.652 157.202H114.765C116.094 157.177 117.064 157.097 118.74 157.097C119.768 157.097 122.878 157.206 124.299 157.206C125.72 157.206 125.908 155.797 125.327 155.668C122.715 155.099 120.729 154.313 119.893 153.578C119.742 153.44 119.546 153.363 119.342 153.36Z" fill="#263238"/>
<path d="M119.576 153.829C119.559 153.825 119.544 153.816 119.533 153.803C119.522 153.79 119.515 153.775 119.513 153.758C119.511 153.742 119.514 153.727 119.521 153.713C119.529 153.7 119.54 153.689 119.555 153.683C119.676 153.603 120.771 152.93 121.143 153.127C121.185 153.146 121.221 153.177 121.245 153.217C121.27 153.256 121.282 153.302 121.281 153.348C121.29 153.426 121.279 153.505 121.25 153.578C121.221 153.651 121.174 153.716 121.114 153.766C120.927 153.902 120.701 153.971 120.47 153.963C120.168 153.952 119.868 153.907 119.576 153.829ZM119.806 153.716C120.201 153.848 120.632 153.827 121.014 153.657C121.053 153.622 121.084 153.577 121.103 153.527C121.122 153.476 121.129 153.422 121.122 153.369C121.122 153.302 121.093 153.273 121.072 153.273C121.04 153.256 121.004 153.248 120.968 153.252C120.554 153.332 120.16 153.49 119.806 153.716Z" fill="#249748"/>
<path d="M119.554 153.846C119.542 153.838 119.532 153.828 119.525 153.815C119.517 153.803 119.513 153.789 119.513 153.774C119.513 153.724 119.6 152.75 119.993 152.433C120.039 152.392 120.093 152.361 120.151 152.343C120.21 152.325 120.271 152.32 120.332 152.328C120.393 152.328 120.453 152.349 120.5 152.388C120.547 152.427 120.579 152.481 120.591 152.541C120.662 152.897 119.985 153.645 119.634 153.833H119.596C119.584 153.841 119.569 153.845 119.554 153.846ZM120.098 152.525C119.853 152.827 119.707 153.198 119.68 153.586C120.027 153.323 120.457 152.75 120.416 152.541C120.416 152.516 120.416 152.458 120.299 152.458H120.261C120.201 152.462 120.144 152.485 120.098 152.525Z" fill="#249748"/>
<path opacity="0.2" d="M116.131 146.567L119.63 146.939L119.287 150.831L115.789 150.459L116.131 146.567Z" fill="black"/>
<path opacity="0.2" d="M98.2996 146.012H101.69L101.543 150.062H98.1533L98.2996 146.012Z" fill="black"/>
<path d="M99.6956 77.1416H117.67C119.379 86.4839 124.734 119.535 120.892 148.983L114.802 148.227C114.802 148.227 115.366 109.131 109.991 94.6809C109.372 102.414 108.637 110.644 108.001 115.025C106.45 125.801 103.102 149.364 103.102 149.364H96.9033C96.9033 149.364 98.1573 126.817 98.7551 116.22C99.3946 104.717 99.6747 79.5033 99.6956 77.1416Z" fill="#249748"/>
<path opacity="0.2" d="M110.02 94.6818C110.906 97.2156 111.579 99.819 112.031 102.465C112.532 95.5805 110.522 88.2822 110.522 88.2822L110.02 94.6818Z" fill="black"/>
<path d="M121.607 150.401L114.07 149.281L114.3 147.195L122.138 148.224L121.607 150.401Z" fill="#249748"/>
<path opacity="0.6" d="M121.607 150.401L114.07 149.281L114.3 147.195L122.138 148.224L121.607 150.401Z" fill="white"/>
<path d="M103.846 149.41H96.5356V147.224L104.122 147.082L103.846 149.41Z" fill="#249748"/>
<path opacity="0.6" d="M103.846 149.41H96.5356V147.224L104.122 147.082L103.846 149.41Z" fill="white"/>
<path d="M99.6617 80.2682L99.645 77.664L117.978 76.5312L118.108 79.056L99.6617 80.2682Z" fill="#263238"/>
<path d="M104.302 77.0049H103.475V80.8212H104.302V77.0049Z" fill="#249748"/>
<path d="M116.972 75.7367L116.146 75.7969L116.424 79.6031L117.249 79.5429L116.972 75.7367Z" fill="#249748"/>
<path d="M117.963 76.5328L99.6459 77.8871C99.6459 76.282 99.6041 74.493 99.4829 72.6036C99.2572 69.1133 98.8266 65.2928 98.3459 61.7105C97.326 54.0988 96.0762 47.5654 96.0762 47.5654C104.603 45.4127 116.044 45.9728 116.044 45.9728C119.016 57.1084 117.963 76.5328 117.963 76.5328Z" fill="#249748"/>
<path opacity="0.6" d="M117.963 76.5328L99.6459 77.8871C99.6459 76.282 99.6041 74.493 99.4829 72.6036C99.2572 69.1133 98.8266 65.2928 98.3459 61.7105C97.326 54.0988 96.0762 47.5654 96.0762 47.5654C104.603 45.4127 116.044 45.9728 116.044 45.9728C119.016 57.1084 117.963 76.5328 117.963 76.5328Z" fill="white"/>
<path d="M102.583 46.424C104.255 47.9246 108.281 47.3729 108.281 47.3729C108.281 47.3729 110.789 46.679 110.275 45.889C108.787 45.6465 108.068 44.9527 107.767 44.0623C107.601 43.5128 107.55 42.9353 107.616 42.3652C107.639 42.0467 107.681 41.7299 107.742 41.4164L102.726 37.7129C103.399 40.1582 104.201 44.6517 102.583 46.424Z" fill="#E4897B"/>
<path opacity="0.2" d="M103.901 40.0654C104.097 43.0667 106.564 43.8943 107.772 44.0615C107.606 43.512 107.555 42.9345 107.621 42.3644L103.901 40.0654Z" fill="black"/>
<path d="M112.528 30.5821C113.745 31.7358 113.239 35.2512 110.76 37.0486C108.281 38.846 108.281 30.1516 108.281 30.1516C108.281 30.1516 111.755 29.8465 112.528 30.5821Z" fill="#263238"/>
<path d="M103.562 40.7593C104.082 41.5287 104.84 42.1061 105.72 42.4029C106.599 42.6997 107.552 42.6994 108.432 42.402C109.576 42.0397 110.538 41.2549 111.124 40.2075C111.207 40.0623 111.282 39.913 111.35 39.7602C112.57 36.922 112.946 31.906 109.941 30.0417C108.909 29.395 107.663 29.1841 106.475 29.4553C105.288 29.7264 104.257 30.4575 103.608 31.488C103.224 32.0997 102.988 32.7924 102.919 33.5111C102.551 36.8384 102.175 38.7863 103.562 40.7593Z" fill="#E4897B"/>
<path d="M107.784 35.2874C107.722 35.5507 107.843 35.7973 108.023 35.8266C108.202 35.8559 108.378 35.6594 108.441 35.4086C108.503 35.1578 108.378 34.8986 108.206 34.8694C108.035 34.8401 107.834 35.0157 107.784 35.2874Z" fill="#263238"/>
<path d="M110.831 35.8057C110.769 36.0691 110.894 36.3198 111.065 36.3491C111.237 36.3784 111.425 36.1819 111.483 35.9311C111.542 35.6803 111.421 35.417 111.245 35.3877C111.07 35.3585 110.877 35.5507 110.831 35.8057Z" fill="#263238"/>
<path d="M109.841 35.7725C110.022 36.6457 110.323 37.4897 110.735 38.2805C110.527 38.3818 110.3 38.4363 110.069 38.4399C109.837 38.4435 109.608 38.3962 109.397 38.3014L109.841 35.7725Z" fill="#DE5753"/>
<path d="M107.006 34.1381C107.034 34.1464 107.065 34.1477 107.094 34.1419C107.123 34.1361 107.15 34.1233 107.173 34.1046C107.316 33.9622 107.49 33.8555 107.682 33.793C107.874 33.7306 108.077 33.7142 108.277 33.7452C108.297 33.7501 108.318 33.7511 108.339 33.7479C108.359 33.7447 108.379 33.7375 108.397 33.7266C108.415 33.7157 108.431 33.7014 108.443 33.6845C108.455 33.6676 108.464 33.6485 108.469 33.6281C108.478 33.5872 108.471 33.5443 108.449 33.5085C108.427 33.4727 108.392 33.4467 108.352 33.4358C108.102 33.3897 107.845 33.4036 107.601 33.4762C107.358 33.5489 107.135 33.6783 106.952 33.8538C106.923 33.8842 106.906 33.9246 106.906 33.9667C106.906 34.0088 106.923 34.0492 106.952 34.0796C106.966 34.1024 106.984 34.1223 107.006 34.1381Z" fill="#263238"/>
<path d="M108.72 39.6398C108.325 39.6334 107.937 39.5311 107.589 39.3419C107.242 39.1526 106.946 38.8819 106.726 38.553C106.72 38.5434 106.716 38.5328 106.714 38.5216C106.713 38.5105 106.713 38.4991 106.716 38.4882C106.719 38.4773 106.724 38.467 106.73 38.458C106.737 38.449 106.746 38.4415 106.755 38.4359C106.774 38.4248 106.796 38.4211 106.817 38.4258C106.838 38.4305 106.856 38.4431 106.868 38.461C107.079 38.7603 107.356 39.0065 107.678 39.1799C108 39.3533 108.359 39.4492 108.724 39.46C108.746 39.46 108.766 39.4682 108.782 39.483C108.797 39.4978 108.807 39.518 108.808 39.5394C108.807 39.5602 108.798 39.5798 108.783 39.5945C108.769 39.6092 108.749 39.6179 108.728 39.6189L108.72 39.6398Z" fill="#263238"/>
<path d="M112.319 34.9793C112.347 34.9957 112.379 35.0044 112.411 35.0043C112.451 34.9917 112.485 34.9645 112.506 34.9281C112.527 34.8917 112.533 34.8488 112.524 34.8079C112.459 34.5612 112.336 34.3339 112.164 34.1454C111.992 33.9568 111.777 33.8127 111.538 33.7253C111.498 33.7135 111.455 33.7178 111.418 33.7374C111.381 33.7569 111.354 33.7901 111.341 33.8298C111.329 33.8702 111.333 33.9137 111.353 33.9512C111.372 33.9886 111.406 34.017 111.446 34.0304C111.633 34.1053 111.8 34.2229 111.933 34.3738C112.067 34.5248 112.163 34.705 112.215 34.8998C112.225 34.9198 112.24 34.9371 112.258 34.9508C112.276 34.9645 112.297 34.9742 112.319 34.9793Z" fill="#263238"/>
<path d="M106.053 29.7909V31.2789C105.79 31.3674 105.57 31.5515 105.437 31.7947C105.304 32.0379 105.267 32.3224 105.334 32.5915C105.656 33.8873 104.724 35.7181 103.683 36.3535C103.683 36.3535 103.716 35.8142 103.265 35.8853C102.813 35.9564 102.583 38.7611 103.302 40.1949C103.302 40.1949 102.115 38.8322 101.722 35.8142C101.355 33.022 101.547 30.7564 102.228 29.7783L106.053 29.7909Z" fill="#263238"/>
<path d="M101.012 35.9694C101.251 36.7805 101.801 37.4642 102.542 37.8713C103.529 38.4022 104.269 37.5745 104.214 36.517C104.147 35.5723 103.562 34.1344 102.467 34.0508C101.372 33.9672 100.728 34.9704 101.012 35.9694Z" fill="#E4897B"/>
<path d="M101.556 32.3243C101.556 32.3243 100.523 29.8455 103.228 28.0272C105.932 26.2089 112.349 28.3282 112.8 29.8037C113.251 31.2793 108.398 33.9587 101.556 32.3243Z" fill="#263238"/>
<path d="M103.215 44.8808L107.307 47.1213L107.867 44.0615L110.735 45.9258V49.8341L107.7 48.0242L105.568 51.2177L101.359 46.5946L103.215 44.8808Z" fill="#249748"/>
<path d="M112.51 76.6385L109.288 76.8169C109.02 76.8317 108.816 77.0605 108.831 77.3279L108.951 79.5065C108.966 79.7739 109.195 79.9786 109.462 79.9638L112.684 79.7854C112.952 79.7706 113.156 79.5418 113.141 79.2744L113.021 77.0958C113.006 76.8284 112.777 76.6237 112.51 76.6385Z" fill="white"/>
<path opacity="0.5" d="M103.215 44.8808L107.307 47.1213L107.867 44.0615L110.735 45.9258V49.8341L107.7 48.0242L105.568 51.2177L101.359 46.5946L103.215 44.8808Z" fill="white"/>
<path opacity="0.2" d="M106.053 71.808C104.837 73.6389 100.945 73.6263 99.4822 72.6148C99.2565 69.1245 98.8259 65.3039 98.3452 61.7217L106.053 71.808Z" fill="black"/>
<path d="M99.6454 57.7129C99.6454 57.7129 100.511 63.3475 101.359 64.4469C102.208 65.5462 119.751 75.1393 119.751 75.1393L125.816 74.7004L128.604 77.8981C128.604 77.8981 120.524 79.1521 119.643 78.9097C119.104 78.7607 118.582 78.5591 118.083 78.3077C118.083 78.3077 99.6914 71.0638 98.1448 69.4085C96.5982 67.7532 94.8384 59.2553 94.8384 59.2553L99.6454 57.7129Z" fill="#E4897B"/>
<path d="M96.0756 47.5771C99.2858 46.9083 100.945 60.23 100.945 60.23L94.3785 61.902C94.3785 61.902 92.1255 48.4047 96.0756 47.5771Z" fill="#249748"/>
<path opacity="0.5" d="M96.0756 47.5771C99.2858 46.9083 100.945 60.23 100.945 60.23L94.3785 61.902C94.3785 61.902 92.1255 48.4047 96.0756 47.5771Z" fill="white"/>
<path d="M93.9941 61.5843L101.359 59.8203V61.0869L94.3244 63.1267L93.9941 61.5843Z" fill="#249748"/>
<path d="M119.216 144.766V87.4662C119.217 84.9863 118.457 82.5659 117.038 80.5315L115.036 77.6641H150.608L152.61 80.5315C154.028 82.5659 154.788 84.9863 154.788 87.4662V144.222" stroke="#263238" stroke-width="6.96667" stroke-linecap="round" stroke-linejoin="round"/>
<path d="M194.811 157.326C196.845 157.326 198.494 155.677 198.494 153.644C198.494 151.61 196.845 149.961 194.811 149.961C192.777 149.961 191.128 151.61 191.128 153.644C191.128 155.677 192.777 157.326 194.811 157.326Z" fill="#263238"/>
<path opacity="0.4" d="M196.655 153.643C196.655 153.279 196.548 152.922 196.346 152.618C196.144 152.315 195.856 152.078 195.519 151.937C195.183 151.797 194.812 151.76 194.454 151.831C194.096 151.901 193.767 152.077 193.509 152.334C193.251 152.592 193.075 152.92 193.004 153.278C192.932 153.636 192.968 154.007 193.108 154.344C193.247 154.681 193.483 154.969 193.787 155.172C194.09 155.374 194.446 155.483 194.811 155.483C195.053 155.483 195.293 155.436 195.516 155.344C195.74 155.252 195.943 155.116 196.114 154.945C196.286 154.775 196.421 154.572 196.514 154.348C196.607 154.125 196.655 153.885 196.655 153.643Z" fill="white"/>
<path d="M194.368 154.463C194.081 154.463 193.801 154.375 193.565 154.21C193.33 154.046 193.15 153.813 193.051 153.544L190.882 147.6H195.768V153.063C195.768 153.434 195.621 153.79 195.358 154.053C195.096 154.316 194.739 154.463 194.368 154.463Z" fill="#263238"/>
<path opacity="0.2" d="M194.368 154.463C194.081 154.463 193.801 154.375 193.565 154.21C193.33 154.046 193.15 153.813 193.051 153.544L190.882 147.6H195.768V153.063C195.768 153.434 195.621 153.79 195.358 154.053C195.096 154.316 194.739 154.463 194.368 154.463Z" fill="white"/>
<path d="M153.848 157.326C155.881 157.326 157.53 155.677 157.53 153.644C157.53 151.61 155.881 149.961 153.848 149.961C151.814 149.961 150.165 151.61 150.165 153.644C150.165 155.677 151.814 157.326 153.848 157.326Z" fill="#263238"/>
<path opacity="0.4" d="M155.691 153.643C155.692 153.279 155.585 152.922 155.383 152.618C155.18 152.315 154.893 152.078 154.556 151.937C154.219 151.797 153.849 151.76 153.491 151.831C153.133 151.901 152.804 152.077 152.546 152.334C152.288 152.592 152.112 152.92 152.04 153.278C151.969 153.636 152.005 154.007 152.144 154.344C152.284 154.681 152.52 154.969 152.823 155.172C153.126 155.374 153.483 155.483 153.848 155.483C154.09 155.483 154.329 155.436 154.553 155.344C154.777 155.252 154.98 155.116 155.151 154.945C155.322 154.775 155.458 154.572 155.551 154.348C155.643 154.125 155.691 153.885 155.691 153.643Z" fill="white"/>
<path d="M153.405 154.463C153.117 154.463 152.837 154.375 152.602 154.21C152.366 154.046 152.187 153.813 152.088 153.544L149.918 147.6H154.805V153.063C154.805 153.434 154.657 153.79 154.395 154.053C154.132 154.316 153.776 154.463 153.405 154.463Z" fill="#263238"/>
<path opacity="0.2" d="M153.405 154.463C153.117 154.463 152.837 154.375 152.602 154.21C152.366 154.046 152.187 153.813 152.088 153.544L149.918 147.6H154.805V153.063C154.805 153.434 154.657 153.79 154.395 154.053C154.132 154.316 153.776 154.463 153.405 154.463Z" fill="white"/>
<path d="M201.144 143.315V146.793C201.144 147.105 201.021 147.403 200.8 147.624C200.58 147.844 200.281 147.968 199.97 147.968H117.653C117.342 147.968 117.043 147.844 116.823 147.624C116.602 147.403 116.479 147.105 116.479 146.793V143.315H201.144Z" fill="#263238"/>
<path opacity="0.4" d="M201.144 143.315V146.793C201.144 147.105 201.021 147.403 200.8 147.624C200.58 147.844 200.281 147.968 199.97 147.968H117.653C117.342 147.968 117.043 147.844 116.823 147.624C116.602 147.403 116.479 147.105 116.479 146.793V143.315H201.144Z" fill="white"/>
<path opacity="0.2" d="M171.884 143.315V146.793C171.884 147.105 171.761 147.403 171.54 147.624C171.32 147.844 171.021 147.968 170.71 147.968H117.653C117.342 147.968 117.043 147.844 116.823 147.624C116.602 147.403 116.479 147.105 116.479 146.793V143.315H171.884Z" fill="white"/>
<path d="M165.134 157.326C167.168 157.326 168.816 155.677 168.816 153.644C168.816 151.61 167.168 149.961 165.134 149.961C163.1 149.961 161.451 151.61 161.451 153.644C161.451 155.677 163.1 157.326 165.134 157.326Z" fill="#263238"/>
<path opacity="0.6" d="M166.977 153.643C166.978 153.279 166.871 152.922 166.669 152.618C166.467 152.315 166.179 152.078 165.842 151.937C165.505 151.797 165.135 151.76 164.777 151.831C164.419 151.901 164.09 152.077 163.832 152.334C163.574 152.592 163.398 152.92 163.326 153.278C163.255 153.636 163.291 154.007 163.43 154.344C163.57 154.681 163.806 154.969 164.109 155.172C164.413 155.374 164.769 155.483 165.134 155.483C165.376 155.483 165.615 155.436 165.839 155.344C166.063 155.252 166.266 155.116 166.437 154.945C166.608 154.775 166.744 154.572 166.837 154.348C166.93 154.125 166.977 153.885 166.977 153.643Z" fill="white"/>
<path d="M164.691 154.463C164.404 154.463 164.123 154.375 163.888 154.21C163.653 154.046 163.473 153.813 163.374 153.544L161.205 147.6H166.091V153.063C166.091 153.434 165.943 153.79 165.681 154.053C165.418 154.316 165.062 154.463 164.691 154.463Z" fill="#263238"/>
<path opacity="0.4" d="M164.691 154.463C164.404 154.463 164.123 154.375 163.888 154.21C163.653 154.046 163.473 153.813 163.374 153.544L161.205 147.6H166.091V153.063C166.091 153.434 165.943 153.79 165.681 154.053C165.418 154.316 165.062 154.463 164.691 154.463Z" fill="white"/>
<path d="M124.169 157.326C126.203 157.326 127.852 155.677 127.852 153.644C127.852 151.61 126.203 149.961 124.169 149.961C122.136 149.961 120.487 151.61 120.487 153.644C120.487 155.677 122.136 157.326 124.169 157.326Z" fill="#263238"/>
<path opacity="0.6" d="M126.012 153.643C126.013 153.279 125.906 152.922 125.704 152.618C125.502 152.315 125.214 152.078 124.877 151.937C124.541 151.797 124.17 151.76 123.812 151.831C123.454 151.901 123.125 152.077 122.867 152.334C122.609 152.592 122.433 152.92 122.361 153.278C122.29 153.636 122.326 154.007 122.466 154.344C122.605 154.681 122.841 154.969 123.144 155.172C123.448 155.374 123.804 155.483 124.169 155.483C124.411 155.483 124.651 155.436 124.874 155.344C125.098 155.252 125.301 155.116 125.472 154.945C125.644 154.775 125.779 154.572 125.872 154.348C125.965 154.125 126.012 153.885 126.012 153.643Z" fill="white"/>
<path d="M123.726 154.463C123.439 154.463 123.159 154.375 122.924 154.21C122.688 154.046 122.509 153.813 122.41 153.544L120.24 147.6H125.127V153.063C125.127 153.434 124.979 153.79 124.717 154.053C124.454 154.316 124.098 154.463 123.726 154.463Z" fill="#263238"/>
<path opacity="0.4" d="M123.726 154.463C123.439 154.463 123.159 154.375 122.924 154.21C122.688 154.046 122.509 153.813 122.41 153.544L120.24 147.6H125.127V153.063C125.127 153.434 124.979 153.79 124.717 154.053C124.454 154.316 124.098 154.463 123.726 154.463Z" fill="white"/>
<path d="M165.652 116.333H126.673V143.315H165.652V116.333Z" fill="#249748"/>
<path opacity="0.4" d="M165.652 116.333H126.673V143.315H165.652V116.333Z" fill="white"/>
<path opacity="0.2" d="M144.76 116.333H126.673V143.315H144.76V116.333Z" fill="white"/>
<path opacity="0.2" d="M143.051 137.609H140.79C140.577 137.609 140.405 137.782 140.405 137.994V141.083C140.405 141.295 140.577 141.468 140.79 141.468H143.051C143.264 141.468 143.436 141.295 143.436 141.083V137.994C143.436 137.782 143.264 137.609 143.051 137.609Z" fill="black"/>
<path opacity="0.2" d="M138.971 137.609H136.71C136.497 137.609 136.325 137.782 136.325 137.994V141.083C136.325 141.295 136.497 141.468 136.71 141.468H138.971C139.184 141.468 139.356 141.295 139.356 141.083V137.994C139.356 137.782 139.184 137.609 138.971 137.609Z" fill="black"/>
<path opacity="0.4" d="M157.271 116.333H155.068V119.146H157.271V116.333Z" fill="black"/>
<path opacity="0.2" d="M163.295 127.854H148.121V131.381H163.295V127.854Z" fill="black"/>
<path opacity="0.2" d="M133.039 117.737H127.852V122.925H133.039V117.737Z" fill="black"/>
<path d="M169.631 89.3516H130.653V116.333H169.631V89.3516Z" fill="#249748"/>
<path opacity="0.4" d="M169.631 89.3516H130.653V116.333H169.631V89.3516Z" fill="black"/>
<path opacity="0.2" d="M148.74 89.3516H130.653V116.333H148.74V89.3516Z" fill="white"/>
<path opacity="0.2" d="M147.034 110.627H144.773C144.56 110.627 144.388 110.799 144.388 111.012V114.101C144.388 114.313 144.56 114.485 144.773 114.485H147.034C147.247 114.485 147.419 114.313 147.419 114.101V111.012C147.419 110.799 147.247 110.627 147.034 110.627Z" fill="black"/>
<path opacity="0.2" d="M142.955 110.627H140.693C140.481 110.627 140.309 110.799 140.309 111.012V114.101C140.309 114.313 140.481 114.485 140.693 114.485H142.955C143.167 114.485 143.339 114.313 143.339 114.101V111.012C143.339 110.799 143.167 110.627 142.955 110.627Z" fill="black"/>
<path opacity="0.4" d="M161.25 89.3516H159.047V92.1647H161.25V89.3516Z" fill="black"/>
<path opacity="0.2" d="M167.274 100.871H152.101V104.399H167.274V100.871Z" fill="black"/>
<path opacity="0.2" d="M137.023 90.7549H131.835V95.9423H137.023V90.7549Z" fill="black"/>
<path d="M193.491 89.3516H154.512V116.333H193.491V89.3516Z" fill="#249748"/>
<path opacity="0.4" d="M193.491 89.3516H154.512V116.333H193.491V89.3516Z" fill="white"/>
<path opacity="0.2" d="M172.599 89.3516H154.512V116.333H172.599V89.3516Z" fill="white"/>
<path opacity="0.2" d="M170.894 110.627H168.632C168.42 110.627 168.248 110.799 168.248 111.012V114.101C168.248 114.313 168.42 114.485 168.632 114.485H170.894C171.106 114.485 171.278 114.313 171.278 114.101V111.012C171.278 110.799 171.106 110.627 170.894 110.627Z" fill="black"/>
<path opacity="0.2" d="M166.814 110.627H164.553C164.341 110.627 164.168 110.799 164.168 111.012V114.101C164.168 114.313 164.341 114.485 164.553 114.485H166.814C167.027 114.485 167.199 114.313 167.199 114.101V111.012C167.199 110.799 167.027 110.627 166.814 110.627Z" fill="black"/>
<path opacity="0.4" d="M185.11 89.3516H182.907V92.1647H185.11V89.3516Z" fill="black"/>
<path opacity="0.2" d="M191.133 100.871H175.96V104.399H191.133V100.871Z" fill="black"/>
<path opacity="0.2" d="M160.882 90.7549H155.695V95.9423H160.882V90.7549Z" fill="black"/>
<path d="M180.01 62.3691H141.032V89.351H180.01V62.3691Z" fill="#249748"/>
<path opacity="0.2" d="M159.119 62.3691H141.032V89.351H159.119V62.3691Z" fill="white"/>
<path opacity="0.2" d="M157.409 83.6465H155.147C154.935 83.6465 154.763 83.8187 154.763 84.031V87.1201C154.763 87.3324 154.935 87.5046 155.147 87.5046H157.409C157.621 87.5046 157.793 87.3324 157.793 87.1201V84.031C157.793 83.8187 157.621 83.6465 157.409 83.6465Z" fill="black"/>
<path opacity="0.2" d="M153.333 83.6465H151.072C150.86 83.6465 150.688 83.8187 150.688 84.031V87.1201C150.688 87.3324 150.86 87.5046 151.072 87.5046H153.333C153.546 87.5046 153.718 87.3324 153.718 87.1201V84.031C153.718 83.8187 153.546 83.6465 153.333 83.6465Z" fill="black"/>
<path opacity="0.4" d="M171.63 62.3691H169.427V65.1823H171.63V62.3691Z" fill="black"/>
<path opacity="0.2" d="M177.652 73.8896H162.479V77.4176H177.652V73.8896Z" fill="black"/>
<path opacity="0.2" d="M147.398 63.7744H142.21V68.9618H147.398V63.7744Z" fill="black"/>
<path d="M190.456 116.333H151.478V143.315H190.456V116.333Z" fill="#263238"/>
<path opacity="0.2" d="M190.456 116.333H151.478V143.315H190.456V116.333Z" fill="white"/>
<path opacity="0.2" d="M169.564 116.333H151.478V143.315H169.564V116.333Z" fill="white"/>
<path opacity="0.2" d="M167.855 137.609H165.594C165.381 137.609 165.209 137.782 165.209 137.994V141.083C165.209 141.295 165.381 141.468 165.594 141.468H167.855C168.067 141.468 168.239 141.295 168.239 141.083V137.994C168.239 137.782 168.067 137.609 167.855 137.609Z" fill="black"/>
<path opacity="0.2" d="M163.775 137.609H161.514C161.302 137.609 161.129 137.782 161.129 137.994V141.083C161.129 141.295 161.302 141.468 161.514 141.468H163.775C163.988 141.468 164.16 141.295 164.16 141.083V137.994C164.16 137.782 163.988 137.609 163.775 137.609Z" fill="black"/>
<path opacity="0.4" d="M182.075 116.333H179.872V119.146H182.075V116.333Z" fill="black"/>
<path opacity="0.2" d="M188.099 127.854H172.925V131.381H188.099V127.854Z" fill="black"/>
<path opacity="0.2" d="M157.843 117.737H152.656V122.925H157.843V117.737Z" fill="black"/>
</g>
</g>
<defs>
<clipPath id="clip0_244_2174">
<rect width="312" height="165" fill="white"/>
</clipPath>
<clipPath id="clip1_244_2174">
<rect width="209" height="209" fill="white" transform="translate(51.5 -17)"/>
</clipPath>
</defs>
</svg>
