<svg width="312" height="165" viewBox="0 0 312 165" fill="none" xmlns="http://www.w3.org/2000/svg">
<g clip-path="url(#clip0_244_2172)">
<path d="M256.357 20.3282C256.56 18.8697 254.507 17.6691 252.968 17.5453C252.232 17.4834 251.468 17.5969 250.772 17.3526C249.264 16.8263 248.661 14.869 247.191 14.2566C246.091 13.7888 244.823 14.205 243.764 14.7451C242.706 15.2852 241.643 15.9629 240.451 16.0386C239.423 16.1039 238.289 15.7186 237.367 16.2278C236.681 16.6062 236.339 17.387 235.715 17.848C235.091 18.309 234.31 18.395 233.553 18.4362C232.796 18.4775 232.014 18.4844 231.326 18.8009C230.637 19.1174 230.068 19.8329 230.212 20.5966L256.357 20.3282Z" fill="#F5F5F5"/>
<path d="M91.2981 46.3037H62.3359V138.448H91.2981V46.3037Z" fill="#F5F5F5"/>
<path d="M91.298 46.3037H76.8169V138.193H91.298V46.3037Z" fill="#EBEBEB"/>
<path d="M75.8712 37.2598H65.6426V46.307H75.8712V37.2598Z" fill="#F5F5F5"/>
<path d="M75.868 37.2598H73.4316V46.307H75.868V37.2598Z" fill="#EBEBEB"/>
<path d="M59.9238 46.3037V45.7773H92.1448V46.3037" fill="#E0E0E0"/>
<path d="M70.5018 50.249H68.0518V55.4365H70.5018V50.249Z" fill="#FAFAFA"/>
<path d="M76.817 57.4796C76.817 57.5312 73.5754 57.576 69.5765 57.576C65.5776 57.576 62.3359 57.5312 62.3359 57.4796C62.3359 57.428 65.5776 57.3799 69.5765 57.3799C73.5754 57.3799 76.817 57.4212 76.817 57.4796Z" fill="#E0E0E0"/>
<path d="M85.1097 50.249H82.6597V55.4365H85.1097V50.249Z" fill="#E0E0E0"/>
<path d="M91.4215 57.4796C91.4215 57.5312 88.1799 57.576 84.181 57.576C80.1821 57.576 76.9404 57.5312 76.9404 57.4796C76.9404 57.428 80.1821 57.3799 84.181 57.3799C88.1799 57.3799 91.4215 57.4212 91.4215 57.4796Z" fill="#E0E0E0"/>
<path d="M85.1097 60.5518H82.6597V65.7427H85.1097V60.5518Z" fill="#E0E0E0"/>
<path d="M91.4215 67.7795C91.4215 67.8311 88.1799 67.8758 84.181 67.8758C80.1821 67.8758 76.9404 67.8311 76.9404 67.7795C76.9404 67.7279 80.1821 67.6797 84.181 67.6797C88.1799 67.6797 91.4215 67.7244 91.4215 67.7795Z" fill="#E0E0E0"/>
<path d="M85.1097 71.1641H82.6597V76.3516H85.1097V71.1641Z" fill="#E0E0E0"/>
<path d="M91.4215 78.3917C91.4215 78.4468 88.1799 78.4915 84.181 78.4915C80.1821 78.4915 76.9404 78.4468 76.9404 78.3917C76.9404 78.3367 80.1821 78.292 84.181 78.292C88.1799 78.292 91.4215 78.3367 91.4215 78.3917Z" fill="#E0E0E0"/>
<path d="M85.1097 81.7803H82.6597V86.9678H85.1097V81.7803Z" fill="#E0E0E0"/>
<path d="M91.4215 89.0041C91.4215 89.0591 88.1799 89.1038 84.181 89.1038C80.1821 89.1038 76.9404 89.0591 76.9404 89.0041C76.9404 88.949 80.1821 88.9043 84.181 88.9043C88.1799 88.9043 91.4215 88.949 91.4215 89.0041Z" fill="#E0E0E0"/>
<path d="M85.1097 92.0898H82.6597V97.2774H85.1097V92.0898Z" fill="#E0E0E0"/>
<path d="M91.4215 99.3136C91.4215 99.3687 88.1799 99.4134 84.181 99.4134C80.1821 99.4134 76.9404 99.3687 76.9404 99.3136C76.9404 99.2586 80.1821 99.2139 84.181 99.2139C88.1799 99.2139 91.4215 99.2586 91.4215 99.3136Z" fill="#E0E0E0"/>
<path d="M85.1097 102.44H82.6597V107.628H85.1097V102.44Z" fill="#E0E0E0"/>
<path d="M85.1097 112.926H82.6597V118.113H85.1097V112.926Z" fill="#E0E0E0"/>
<path d="M91.4215 109.665C91.4215 109.72 88.1799 109.764 84.181 109.764C80.1821 109.764 76.9404 109.72 76.9404 109.665C76.9404 109.61 80.1821 109.568 84.181 109.568C88.1799 109.568 91.4215 109.613 91.4215 109.665Z" fill="#E0E0E0"/>
<path d="M70.5018 60.71H68.0518V65.8975H70.5018V60.71Z" fill="#FAFAFA"/>
<path d="M76.817 67.9347C76.817 67.9898 73.5754 68.0345 69.5765 68.0345C65.5776 68.0345 62.3359 67.9898 62.3359 67.9347C62.3359 67.8797 65.5776 67.835 69.5765 67.835C73.5754 67.835 76.817 67.8797 76.817 67.9347Z" fill="#E0E0E0"/>
<path d="M70.5018 71.168H68.0518V76.3555H70.5018V71.168Z" fill="#FAFAFA"/>
<path d="M76.817 78.3957C76.817 78.4507 73.5754 78.4954 69.5765 78.4954C65.5776 78.4954 62.3359 78.4507 62.3359 78.3957C62.3359 78.3406 65.5776 78.2959 69.5765 78.2959C73.5754 78.2959 76.817 78.3406 76.817 78.3957Z" fill="#E0E0E0"/>
<path d="M70.5018 81.6289H68.0518V86.8164H70.5018V81.6289Z" fill="#FAFAFA"/>
<path d="M76.817 88.8566C76.817 88.9082 73.5754 88.9529 69.5765 88.9529C65.5776 88.9529 62.3359 88.9082 62.3359 88.8566C62.3359 88.805 65.5776 88.7568 69.5765 88.7568C73.5754 88.7568 76.817 88.8015 76.817 88.8566Z" fill="#E0E0E0"/>
<path d="M70.5018 92.0898H68.0518V97.2774H70.5018V92.0898Z" fill="#FAFAFA"/>
<path d="M76.817 99.3136C76.817 99.3687 73.5754 99.4134 69.5765 99.4134C65.5776 99.4134 62.3359 99.3687 62.3359 99.3136C62.3359 99.2586 65.5776 99.2139 69.5765 99.2139C73.5754 99.2139 76.817 99.2586 76.817 99.3136Z" fill="#E0E0E0"/>
<path d="M70.5018 102.548H68.0518V107.735H70.5018V102.548Z" fill="#FAFAFA"/>
<path d="M76.817 109.768C76.817 109.823 73.5754 109.867 69.5765 109.867C65.5776 109.867 62.3359 109.823 62.3359 109.768C62.3359 109.713 65.5776 109.668 69.5765 109.668C73.5754 109.668 76.817 109.72 76.817 109.768Z" fill="#E0E0E0"/>
<path d="M70.5018 113.009H68.0518V118.196H70.5018V113.009Z" fill="#FAFAFA"/>
<path d="M205.578 25.2891H163.831V158.107H205.578V25.2891Z" fill="#F5F5F5"/>
<path d="M205.574 25.2891H184.702V157.743H205.574V25.2891Z" fill="#EBEBEB"/>
<path d="M183.339 12.251H168.597V25.292H183.339V12.251Z" fill="#F5F5F5"/>
<path d="M183.339 12.251H179.826V25.292H183.339V12.251Z" fill="#EBEBEB"/>
<path d="M160.353 25.2886V24.5283H206.798V25.2886" fill="#E0E0E0"/>
<path d="M175.605 30.9785H172.072V38.4571H175.605V30.9785Z" fill="#FAFAFA"/>
<path d="M184.702 41.391C184.702 41.4702 180.032 41.5355 174.268 41.5355C168.505 41.5355 163.831 41.4702 163.831 41.391C163.831 41.3119 168.501 41.25 174.268 41.25C180.035 41.25 184.702 41.3119 184.702 41.391Z" fill="#E0E0E0"/>
<path d="M196.658 30.9785H193.125V38.4571H196.658V30.9785Z" fill="#E0E0E0"/>
<path d="M205.759 41.391C205.759 41.4702 201.085 41.5355 195.321 41.5355C189.558 41.5355 184.884 41.4702 184.884 41.391C184.884 41.3119 189.558 41.25 195.321 41.25C201.085 41.25 205.759 41.3119 205.759 41.391Z" fill="#E0E0E0"/>
<path d="M196.658 45.8291H193.125V53.3077H196.658V45.8291Z" fill="#E0E0E0"/>
<path d="M205.759 56.2451C205.759 56.3242 201.085 56.3861 195.321 56.3861C189.558 56.3861 184.884 56.3242 184.884 56.2451C184.884 56.1659 189.558 56.1006 195.321 56.1006C201.085 56.1006 205.759 56.1659 205.759 56.2451Z" fill="#E0E0E0"/>
<path d="M196.658 61.127H193.125V68.6055H196.658V61.127Z" fill="#E0E0E0"/>
<path d="M205.759 71.5429C205.759 71.622 201.085 71.6874 195.321 71.6874C189.558 71.6874 184.884 71.622 184.884 71.5429C184.884 71.4638 189.558 71.3984 195.321 71.3984C201.085 71.3984 205.759 71.4638 205.759 71.5429Z" fill="#E0E0E0"/>
<path d="M196.658 76.4277H193.125V83.9063H196.658V76.4277Z" fill="#E0E0E0"/>
<path d="M205.759 86.8403C205.759 86.9194 201.085 86.9847 195.321 86.9847C189.558 86.9847 184.884 86.9194 184.884 86.8403C184.884 86.7611 189.558 86.6992 195.321 86.6992C201.085 86.6992 205.759 86.7611 205.759 86.8403Z" fill="#E0E0E0"/>
<path d="M196.658 91.2881H193.125V98.7666H196.658V91.2881Z" fill="#E0E0E0"/>
<path d="M205.759 101.705C205.759 101.781 201.085 101.846 195.321 101.846C189.558 101.846 184.884 101.781 184.884 101.705C184.884 101.629 189.558 101.561 195.321 101.561C201.085 101.561 205.759 101.626 205.759 101.705Z" fill="#E0E0E0"/>
<path d="M196.658 106.208H193.125V113.687H196.658V106.208Z" fill="#E0E0E0"/>
<path d="M196.658 121.326H193.125V128.805H196.658V121.326Z" fill="#E0E0E0"/>
<path d="M205.759 116.624C205.759 116.704 201.085 116.769 195.321 116.769C189.558 116.769 184.884 116.704 184.884 116.624C184.884 116.545 189.558 116.483 195.321 116.483C201.085 116.483 205.759 116.545 205.759 116.624Z" fill="#E0E0E0"/>
<path d="M175.605 46.0557H172.072V53.5342H175.605V46.0557Z" fill="#FAFAFA"/>
<path d="M184.702 56.4726C184.702 56.5483 180.032 56.6136 174.268 56.6136C168.505 56.6136 163.831 56.5483 163.831 56.4726C163.831 56.3969 168.501 56.3281 174.268 56.3281C180.035 56.3281 184.702 56.3935 184.702 56.4726Z" fill="#E0E0E0"/>
<path d="M175.605 61.1338H172.072V68.6124H175.605V61.1338Z" fill="#FAFAFA"/>
<path d="M184.702 71.5498C184.702 71.6254 180.032 71.6908 174.268 71.6908C168.505 71.6908 163.831 71.6254 163.831 71.5498C163.831 71.4741 168.501 71.4053 174.268 71.4053C180.035 71.4053 184.702 71.4706 184.702 71.5498Z" fill="#E0E0E0"/>
<path d="M175.605 76.2109H172.072V83.6895H175.605V76.2109Z" fill="#FAFAFA"/>
<path d="M184.702 86.6269C184.702 86.7026 180.032 86.7679 174.268 86.7679C168.505 86.7679 163.831 86.7026 163.831 86.6269C163.831 86.5512 168.501 86.4824 174.268 86.4824C180.035 86.4824 184.702 86.5478 184.702 86.6269Z" fill="#E0E0E0"/>
<path d="M175.605 91.2881H172.072V98.7666H175.605V91.2881Z" fill="#FAFAFA"/>
<path d="M184.702 101.705C184.702 101.781 180.032 101.846 174.268 101.846C168.505 101.846 163.831 101.781 163.831 101.705C163.831 101.629 168.501 101.561 174.268 101.561C180.035 101.561 184.702 101.626 184.702 101.705Z" fill="#E0E0E0"/>
<path d="M175.605 106.366H172.072V113.845H175.605V106.366Z" fill="#FAFAFA"/>
<path d="M184.702 116.782C184.702 116.861 180.032 116.923 174.268 116.923C168.505 116.923 163.831 116.861 163.831 116.782C163.831 116.703 168.501 116.638 174.268 116.638C180.035 116.638 184.702 116.703 184.702 116.782Z" fill="#E0E0E0"/>
<path d="M175.605 121.443H172.072V128.922H175.605V121.443Z" fill="#FAFAFA"/>
<path d="M220.309 85.54H197.501V158.103H220.309V85.54Z" fill="#F5F5F5"/>
<path d="M220.309 85.54H208.905V157.904H220.309V85.54Z" fill="#EBEBEB"/>
<path d="M208.158 78.416H200.105V85.5403H208.158V78.416Z" fill="#F5F5F5"/>
<path d="M208.158 78.416H206.239V85.5403H208.158V78.416Z" fill="#EBEBEB"/>
<path d="M195.599 85.5403V85.124H220.977V85.5403" fill="#E0E0E0"/>
<path d="M203.933 88.6465H202.003V92.7332H203.933V88.6465Z" fill="#FAFAFA"/>
<path d="M208.905 94.3399C208.905 94.3811 206.352 94.4155 203.203 94.4155C200.054 94.4155 197.501 94.3811 197.501 94.3399C197.501 94.2986 200.054 94.2607 203.203 94.2607C206.352 94.2607 208.905 94.2883 208.905 94.3399Z" fill="#E0E0E0"/>
<path d="M215.436 88.6465H213.507V92.7332H215.436V88.6465Z" fill="#E0E0E0"/>
<path d="M220.408 94.3399C220.408 94.3811 217.855 94.4155 214.706 94.4155C211.557 94.4155 209.004 94.3811 209.004 94.3399C209.004 94.2986 211.557 94.2607 214.706 94.2607C217.855 94.2607 220.408 94.2883 220.408 94.3399Z" fill="#E0E0E0"/>
<path d="M215.436 96.7617H213.507V100.848H215.436V96.7617Z" fill="#E0E0E0"/>
<path d="M220.408 102.451C220.408 102.496 217.855 102.53 214.706 102.53C211.557 102.53 209.004 102.496 209.004 102.451C209.004 102.406 211.557 102.372 214.706 102.372C217.855 102.372 220.408 102.41 220.408 102.451Z" fill="#E0E0E0"/>
<path d="M215.436 105.121H213.507V109.208H215.436V105.121Z" fill="#E0E0E0"/>
<path d="M220.408 110.8C220.408 110.841 217.855 110.879 214.706 110.879C211.557 110.879 209.004 110.841 209.004 110.8C209.004 110.759 211.557 110.721 214.706 110.721C217.855 110.721 220.408 110.765 220.408 110.8Z" fill="#E0E0E0"/>
<path d="M215.436 113.477H213.507V117.563H215.436V113.477Z" fill="#E0E0E0"/>
<path d="M220.408 119.17C220.408 119.211 217.855 119.246 214.706 119.246C211.557 119.246 209.004 119.211 209.004 119.17C209.004 119.129 211.557 119.091 214.706 119.091C217.855 119.091 220.408 119.125 220.408 119.17Z" fill="#E0E0E0"/>
<path d="M215.436 121.599H213.507V125.685H215.436V121.599Z" fill="#E0E0E0"/>
<path d="M220.408 127.288C220.408 127.333 217.855 127.367 214.706 127.367C211.557 127.367 209.004 127.333 209.004 127.288C209.004 127.243 211.557 127.209 214.706 127.209C217.855 127.209 220.408 127.243 220.408 127.288Z" fill="#E0E0E0"/>
<path d="M215.436 129.751H213.507V133.838H215.436V129.751Z" fill="#E0E0E0"/>
<path d="M215.436 138.007H213.507V142.094H215.436V138.007Z" fill="#E0E0E0"/>
<path d="M220.408 135.44C220.408 135.482 217.855 135.516 214.706 135.516C211.557 135.516 209.004 135.482 209.004 135.44C209.004 135.399 211.557 135.361 214.706 135.361C217.855 135.361 220.408 135.396 220.408 135.44Z" fill="#E0E0E0"/>
<path d="M203.933 96.8857H202.003V100.972H203.933V96.8857Z" fill="#FAFAFA"/>
<path d="M208.905 102.575C208.905 102.62 206.352 102.654 203.203 102.654C200.054 102.654 197.501 102.62 197.501 102.575C197.501 102.53 200.054 102.496 203.203 102.496C206.352 102.496 208.905 102.544 208.905 102.575Z" fill="#E0E0E0"/>
<path d="M203.933 105.124H202.003V109.211H203.933V105.124Z" fill="#FAFAFA"/>
<path d="M208.905 110.8C208.905 110.841 206.352 110.876 203.203 110.876C200.054 110.876 197.501 110.841 197.501 110.8C197.501 110.759 200.054 110.721 203.203 110.721C206.352 110.721 208.905 110.769 208.905 110.8Z" fill="#E0E0E0"/>
<path d="M203.933 113.359H202.003V117.446H203.933V113.359Z" fill="#FAFAFA"/>
<path d="M208.905 119.056C208.905 119.101 206.352 119.135 203.203 119.135C200.054 119.135 197.501 119.101 197.501 119.056C197.501 119.011 200.054 118.98 203.203 118.98C206.352 118.98 208.905 119.008 208.905 119.056Z" fill="#E0E0E0"/>
<path d="M203.933 121.599H202.003V125.685H203.933V121.599Z" fill="#FAFAFA"/>
<path d="M208.905 127.288C208.905 127.333 206.352 127.367 203.203 127.367C200.054 127.367 197.501 127.333 197.501 127.288C197.501 127.243 200.054 127.209 203.203 127.209C206.352 127.209 208.905 127.243 208.905 127.288Z" fill="#E0E0E0"/>
<path d="M203.933 129.834H202.003V133.921H203.933V129.834Z" fill="#FAFAFA"/>
<path d="M208.905 135.526C208.905 135.568 206.352 135.602 203.203 135.602C200.054 135.602 197.501 135.568 197.501 135.526C197.501 135.485 200.054 135.447 203.203 135.447C206.352 135.447 208.905 135.482 208.905 135.526Z" fill="#E0E0E0"/>
<path d="M203.933 138.072H202.003V142.159H203.933V138.072Z" fill="#FAFAFA"/>
<path d="M105.927 111.323H81.3711V158.107H105.927V111.323Z" fill="#E0E0E0"/>
<path d="M105.927 111.323H94.4131V158.107H105.927V111.323Z" fill="#EBEBEB"/>
<path d="M88.7283 115.723H86.5215V121.106H88.7283V115.723Z" fill="#F5F5F5"/>
<path d="M88.7283 136.8H86.5215V142.183H88.7283V136.8Z" fill="#F5F5F5"/>
<path d="M94.4129 123.222C94.4129 123.27 91.4934 123.305 87.9023 123.305C84.3111 123.305 81.3916 123.27 81.3916 123.222C81.3916 123.174 84.3111 123.14 87.9023 123.14C91.4934 123.14 94.4129 123.184 94.4129 123.222Z" fill="#F5F5F5"/>
<path d="M88.7283 126.342H86.5215V131.725H88.7283V126.342Z" fill="#F5F5F5"/>
<path d="M94.4129 133.848C94.4129 133.892 91.4934 133.93 87.9023 133.93C84.3111 133.93 81.3916 133.892 81.3916 133.848C81.3916 133.803 84.3111 133.762 87.9023 133.762C91.4934 133.762 94.4129 133.793 94.4129 133.848Z" fill="#F5F5F5"/>
<path d="M99.0666 115.723H96.8599V121.106H99.0666V115.723Z" fill="#E0E0E0"/>
<path d="M103.857 115.723H101.65V121.106H103.857V115.723Z" fill="#E0E0E0"/>
<path d="M99.0666 125.943H96.8599V131.327H99.0666V125.943Z" fill="#E0E0E0"/>
<path d="M103.857 125.943H101.65V131.327H103.857V125.943Z" fill="#E0E0E0"/>
<path d="M99.0666 136.16H96.8599V141.544H99.0666V136.16Z" fill="#E0E0E0"/>
<path d="M103.857 136.16H101.65V141.544H103.857V136.16Z" fill="#E0E0E0"/>
<path d="M107.774 110.191H79.5278V111.364H107.774V110.191Z" fill="#E0E0E0"/>
<path d="M106.098 111.488C106.098 111.533 100.615 111.571 93.8407 111.571C87.0662 111.571 81.5835 111.533 81.5835 111.488C81.5835 111.444 87.0662 111.402 93.8407 111.402C100.615 111.402 106.098 111.426 106.098 111.488Z" fill="#EBEBEB"/>
<path d="M81.6521 158.072H42.1084L41.9336 95.3301H81.4808L81.6521 158.072Z" fill="#EBEBEB"/>
<path d="M81.4809 95.3301H61.709V158.072H81.4809V95.3301Z" fill="#E0E0E0"/>
<path d="M60.4139 82.9775H46.4502V95.3306H60.4139V82.9775Z" fill="#EBEBEB"/>
<path d="M60.4137 82.9775H57.0864V95.3306H60.4137V82.9775Z" fill="#E0E0E0"/>
<path d="M82.639 94.6084H38.6406V95.3274H82.639V94.6084Z" fill="#E0E0E0"/>
<path d="M53.0876 100.718H49.7397V107.804H53.0876V100.718Z" fill="white"/>
<path d="M61.7089 110.583C61.7089 110.659 57.2816 110.717 51.823 110.717C46.3643 110.717 41.9336 110.659 41.9336 110.583C41.9336 110.508 46.3608 110.456 51.823 110.456C57.2851 110.456 61.7089 110.508 61.7089 110.583Z" fill="#E0E0E0"/>
<path d="M73.0339 100.718H69.686V107.804H73.0339V100.718Z" fill="#F5F5F5"/>
<path d="M81.6522 110.583C81.6522 110.659 77.225 110.718 71.7663 110.718C66.3076 110.718 61.8804 110.659 61.8804 110.583C61.8804 110.508 66.3042 110.449 71.7663 110.449C77.2284 110.449 81.6522 110.508 81.6522 110.583Z" fill="#EBEBEB"/>
<path d="M73.0339 114.783H69.686V121.87H73.0339V114.783Z" fill="#F5F5F5"/>
<path d="M81.6522 124.653C81.6522 124.725 77.225 124.787 71.7663 124.787C66.3076 124.787 61.8804 124.725 61.8804 124.653C61.8804 124.581 66.3042 124.516 71.7663 124.516C77.2284 124.516 81.6522 124.578 81.6522 124.653Z" fill="#EBEBEB"/>
<path d="M73.0339 129.276H69.686V136.363H73.0339V129.276Z" fill="#F5F5F5"/>
<path d="M81.6522 139.145C81.6522 139.218 77.225 139.28 71.7663 139.28C66.3076 139.28 61.8804 139.218 61.8804 139.145C61.8804 139.073 66.3042 139.008 71.7663 139.008C77.2284 139.008 81.6522 139.07 81.6522 139.145Z" fill="#EBEBEB"/>
<path d="M73.0339 143.77H69.686V150.856H73.0339V143.77Z" fill="#F5F5F5"/>
<path d="M81.6522 153.635C81.6522 153.711 77.225 153.773 71.7663 153.773C66.3076 153.773 61.8804 153.711 61.8804 153.635C61.8804 153.559 66.3042 153.501 71.7663 153.501C77.2284 153.501 81.6522 153.563 81.6522 153.635Z" fill="#EBEBEB"/>
<path d="M53.0876 115H49.7397V122.086H53.0876V115Z" fill="white"/>
<path d="M61.7089 124.867C61.7089 124.942 57.2816 125.001 51.823 125.001C46.3643 125.001 41.9336 124.942 41.9336 124.867C41.9336 124.791 46.3608 124.732 51.823 124.732C57.2851 124.732 61.7089 124.791 61.7089 124.867Z" fill="#E0E0E0"/>
<path d="M53.0876 129.283H49.7397V136.37H53.0876V129.283Z" fill="white"/>
<path d="M61.7089 139.149C61.7089 139.225 57.2816 139.283 51.823 139.283C46.3643 139.283 41.9336 139.225 41.9336 139.149C41.9336 139.073 46.3608 139.008 51.823 139.008C57.2851 139.008 61.7089 139.073 61.7089 139.149Z" fill="#E0E0E0"/>
<path d="M53.0876 143.566H49.7397V150.653H53.0876V143.566Z" fill="white"/>
<path d="M61.7089 153.432C61.7089 153.508 57.2816 153.566 51.823 153.566C46.3643 153.566 41.9336 153.508 41.9336 153.432C41.9336 153.356 46.3608 153.298 51.823 153.298C57.2851 153.298 61.7089 153.356 61.7089 153.432Z" fill="#E0E0E0"/>
<path d="M269.111 60.9203C269.396 58.8356 266.466 57.1363 264.262 56.9436C263.214 56.8576 262.121 57.0193 261.127 56.6719C258.972 55.9185 258.112 53.1218 256.008 52.2308C254.435 51.5635 252.622 52.1586 251.101 52.9188C249.579 53.6791 248.068 54.656 246.365 54.7661C244.885 54.8624 243.281 54.3086 241.979 55.0379C241.012 55.578 240.505 56.696 239.614 57.3564C238.723 58.0169 237.61 58.1373 236.53 58.1958C235.451 58.2543 234.33 58.2646 233.347 58.7187C232.364 59.1728 231.548 60.2151 231.754 61.2815L269.111 60.9203Z" fill="#F5F5F5"/>
<path d="M277.873 135.145H246.06V158.103H277.873V135.145Z" fill="#EBEBEB"/>
<path d="M254.592 135.145C254.64 135.145 254.592 139.991 254.592 139.991H252.238V135.145H254.592Z" fill="#F5F5F5"/>
<path d="M261.967 158.104H277.874V135.145H261.967V158.104Z" fill="#E0E0E0"/>
<path d="M251.289 153.611H247.03V156.635H251.289V153.611Z" fill="white"/>
<path d="M254.206 153.611H252.078V156.635H254.206V153.611Z" fill="white"/>
<path d="M274.851 120.194H254.137V135.145H274.851V120.194Z" fill="#EBEBEB"/>
<path d="M259.695 120.194C259.722 120.194 259.695 123.352 259.695 123.352H258.16V120.194H259.695Z" fill="#F5F5F5"/>
<path d="M264.496 135.145H274.851V120.194H264.496V135.145Z" fill="#E0E0E0"/>
<path d="M257.543 132.218H254.771V134.189H257.543V132.218Z" fill="white"/>
<path d="M259.442 132.218H258.054V134.189H259.442V132.218Z" fill="white"/>
<path d="M63.1209 20.8445C63.282 19.6646 61.6235 18.691 60.3796 18.5913C59.7834 18.5431 59.1666 18.6326 58.6012 18.4365C57.3813 18.0099 56.8878 16.4275 55.7022 15.9218C54.8113 15.5434 53.7867 15.8806 52.9232 16.3174C52.0597 16.7543 51.2098 17.3013 50.2435 17.3494C49.404 17.4045 48.4925 17.0914 47.7592 17.5042C47.2109 17.8104 46.9231 18.4434 46.4194 18.8149C45.8942 19.1417 45.2861 19.309 44.6683 19.2965C44.0542 19.279 43.4425 19.3794 42.8659 19.5923C42.3074 19.8469 41.8379 20.4386 41.9613 21.044L63.1209 20.8445Z" fill="#EBEBEB"/>
<path d="M274.889 44.8104C275.046 43.658 273.429 42.712 272.213 42.6122C271.633 42.5675 271.03 42.6535 270.479 42.4643C269.29 42.0446 268.813 40.5001 267.652 40.0082C266.785 39.6435 265.784 39.9703 264.941 40.3934C264.098 40.8166 263.266 41.3566 262.327 41.4254C261.508 41.4805 260.613 41.1743 259.904 41.5768C259.369 41.8761 259.092 42.4918 258.598 42.8565C258.084 43.1731 257.489 43.3344 256.885 43.3209C256.286 43.305 255.69 43.4031 255.127 43.6098C254.582 43.8575 254.133 44.4354 254.247 45.0237L274.889 44.8104Z" fill="#EBEBEB"/>
<path d="M99.5497 28.1543C99.8444 25.9974 96.8084 24.2223 94.5365 24.0263C93.4468 23.9403 92.3194 24.1054 91.2914 23.7476C89.0607 22.9667 88.1697 20.0737 85.9938 19.1518C84.3661 18.4638 82.4952 19.0761 80.9189 19.8742C79.3426 20.6723 77.7835 21.6733 76.0222 21.7868C74.4871 21.8866 72.8251 21.3155 71.4819 22.0655C70.4847 22.6262 69.9604 23.7855 69.0387 24.4735C68.1169 25.1615 66.9655 25.2819 65.845 25.3438C64.7245 25.4057 63.5697 25.416 62.552 25.8839C61.5343 26.3517 60.6947 27.4319 60.9038 28.5361L99.5497 28.1543Z" fill="#F5F5F5"/>
<path d="M277.757 158.103C277.757 158.155 225.432 158.193 160.907 158.193C96.3833 158.193 44.0581 158.155 44.0581 158.103C44.0581 158.052 96.373 158.014 160.925 158.014C225.476 158.014 277.757 158.055 277.757 158.103Z" fill="#263238"/>
<path d="M137.527 143.7C137.891 143.786 138.234 143.944 138.535 144.166C138.837 144.387 139.091 144.668 139.281 144.99C139.661 145.637 139.888 146.364 139.943 147.113C140.094 148.554 139.6 150.15 138.997 151.461C137.592 150.687 136.941 148.946 136.643 148.041C136.197 146.61 136.256 143.752 137.527 143.7Z" fill="#249748"/>
<path d="M140.875 153.48C140.707 153.095 140.643 152.673 140.689 152.255C140.735 151.838 140.89 151.44 141.139 151.103C141.394 150.77 141.712 150.492 142.075 150.284C142.438 150.076 142.838 149.943 143.253 149.892C143.441 149.847 143.636 149.845 143.825 149.885C144.014 149.924 144.192 150.006 144.346 150.122C144.47 150.254 144.557 150.416 144.598 150.593C144.64 150.769 144.634 150.953 144.583 151.127C144.469 151.472 144.269 151.781 144 152.024C143.119 152.891 142.109 153.572 140.875 153.48Z" fill="#249748"/>
<path d="M140.31 158.12C140.292 158.023 140.284 157.923 140.286 157.824C140.286 157.611 140.269 157.339 140.258 157.012C140.2 156.113 140.287 155.211 140.515 154.34C140.759 153.465 141.233 152.673 141.886 152.045C142.084 151.859 142.304 151.698 142.54 151.563C142.604 151.525 142.671 151.492 142.739 151.464C142.784 151.443 142.808 151.433 142.811 151.436C142.497 151.627 142.203 151.85 141.934 152.1C141.312 152.734 140.859 153.515 140.618 154.371C140.393 155.232 140.298 156.123 140.337 157.012C140.337 157.356 140.337 157.632 140.337 157.824C140.338 157.924 140.328 158.023 140.31 158.12Z" fill="#263238"/>
<path d="M137.681 145.888C137.699 145.926 137.713 145.967 137.722 146.008C137.75 146.101 137.78 146.221 137.821 146.352C137.907 146.665 138.027 147.116 138.164 147.676C138.449 148.794 138.819 150.342 139.192 152.066C139.566 153.789 139.86 155.351 140.063 156.49C140.162 157.057 140.241 157.522 140.289 157.835C140.313 157.986 140.33 158.11 140.343 158.203C140.347 158.246 140.347 158.29 140.343 158.334C140.327 158.293 140.316 158.25 140.309 158.206C140.289 158.113 140.265 157.993 140.234 157.842C140.172 157.515 140.083 157.057 139.977 156.504C139.758 155.372 139.446 153.807 139.079 152.087C138.712 150.367 138.349 148.815 138.085 147.694C137.955 147.14 137.849 146.689 137.773 146.362L137.691 146.018C137.683 145.975 137.68 145.932 137.681 145.888Z" fill="#263238"/>
<path d="M139.024 154.784C138.695 153.963 138.176 153.233 137.51 152.654C136.843 152.075 136.049 151.664 135.193 151.454C134.758 151.35 134.217 151.34 133.956 151.708C133.696 152.076 133.888 152.585 134.135 152.96C134.667 153.733 135.415 154.33 136.284 154.676C137.154 155.023 138.106 155.103 139.021 154.907" fill="#249748"/>
<path d="M135.677 152.747C135.77 152.754 135.862 152.772 135.951 152.799C136.058 152.823 136.163 152.853 136.266 152.888C136.39 152.933 136.53 152.967 136.677 153.036C136.841 153.1 137.001 153.174 137.157 153.256C137.338 153.347 137.513 153.448 137.681 153.559C138.071 153.814 138.429 154.113 138.751 154.45C139.067 154.792 139.343 155.169 139.573 155.575C139.671 155.752 139.759 155.934 139.837 156.122C139.907 156.283 139.969 156.449 140.022 156.617C140.066 156.756 140.102 156.897 140.132 157.04C140.161 157.146 140.181 157.254 140.193 157.364C140.213 157.455 140.223 157.549 140.224 157.642C140.2 157.642 140.156 157.247 139.95 156.641C139.895 156.476 139.831 156.314 139.758 156.156C139.679 155.973 139.588 155.795 139.487 155.623C139.259 155.226 138.986 154.857 138.675 154.522C138.365 154.192 138.02 153.897 137.647 153.641C137.481 153.529 137.31 153.426 137.133 153.332C136.972 153.239 136.811 153.17 136.667 153.105C136.061 152.85 135.67 152.768 135.677 152.747Z" fill="#263238"/>
<path d="M246.649 154.487C246.78 153.985 246.451 153.479 246.081 153.111C245.711 152.743 245.268 152.423 245.077 151.935C244.765 151.15 245.183 150.136 244.652 149.482C244.34 149.097 243.781 148.966 243.504 148.557C243.375 148.329 243.291 148.079 243.254 147.821C242.957 146.518 242.318 145.319 241.403 144.35C241.343 145.51 241.594 146.666 242.13 147.697C242.381 148.092 242.565 148.527 242.675 148.983C242.791 149.73 242.376 150.497 242.558 151.23C242.767 152.066 243.703 152.626 243.747 153.486C243.785 154.216 243.151 154.862 243.199 155.585C243.238 155.894 243.348 156.189 243.521 156.448C243.771 156.93 244.15 157.331 244.616 157.607C245.082 157.882 245.615 158.021 246.156 158.006L247.688 158.061L246.649 154.487Z" fill="#249748"/>
<g opacity="0.3">
<path d="M246.649 154.487C246.78 153.985 246.451 153.479 246.081 153.111C245.711 152.743 245.268 152.423 245.077 151.935C244.765 151.15 245.183 150.136 244.652 149.482C244.34 149.097 243.781 148.966 243.504 148.557C243.375 148.329 243.291 148.079 243.254 147.821C242.957 146.518 242.318 145.319 241.403 144.35C241.343 145.51 241.594 146.666 242.13 147.697C242.381 148.092 242.565 148.527 242.675 148.983C242.791 149.73 242.376 150.497 242.558 151.23C242.767 152.066 243.703 152.626 243.747 153.486C243.785 154.216 243.151 154.862 243.199 155.585C243.238 155.894 243.348 156.189 243.521 156.448C243.771 156.93 244.15 157.331 244.616 157.607C245.082 157.882 245.615 158.021 246.156 158.006L247.688 158.061L246.649 154.487Z" fill="black"/>
</g>
<path d="M247.996 158.096C248.135 158.121 248.278 158.121 248.418 158.096C248.587 158.072 248.753 158.03 248.914 157.973C249.136 157.893 249.344 157.777 249.528 157.629C249.64 157.537 249.727 157.419 249.781 157.285C249.827 157.136 249.851 156.982 249.853 156.827C249.856 156.66 249.869 156.494 249.891 156.328C249.919 156.153 249.982 155.986 250.076 155.836C250.324 155.519 250.518 155.164 250.652 154.784C250.726 154.337 250.712 153.88 250.611 153.439C250.5 152.962 250.513 152.464 250.648 151.994C250.813 151.516 251.145 151.079 251.313 150.539C251.481 149.999 251.402 149.404 251.44 148.819C251.45 148.524 251.517 148.234 251.639 147.966C251.762 147.694 251.933 147.439 252.067 147.154C252.3 146.554 252.434 145.919 252.461 145.276C252.499 144.952 252.536 144.625 252.571 144.295C252.593 143.962 252.651 143.632 252.742 143.311C252.844 142.987 252.966 142.67 253.109 142.362C253.18 142.2 253.239 142.033 253.287 141.863C253.314 141.684 253.325 141.519 253.335 141.337C253.352 140.982 253.338 140.626 253.294 140.274C253.253 139.93 253.187 139.565 253.15 139.211V139.149V139.08L253.088 139.111C252.764 139.273 252.481 139.509 252.262 139.799C252.051 140.085 251.881 140.4 251.759 140.735C251.538 141.389 251.379 142.063 251.282 142.747C251.184 143.399 250.971 144.028 250.652 144.605C250.484 144.876 250.282 145.128 250.103 145.392C249.913 145.653 249.784 145.953 249.723 146.27C249.634 146.92 249.99 147.491 249.915 148.065C249.882 148.349 249.787 148.621 249.637 148.863C249.497 149.108 249.336 149.335 249.178 149.551C249.02 149.774 248.884 150.011 248.771 150.26C248.661 150.503 248.597 150.764 248.582 151.031C248.544 151.547 248.616 152.039 248.582 152.503C248.54 152.945 248.412 153.374 248.205 153.765C248.02 154.144 247.814 154.484 247.643 154.797C247.557 154.957 247.479 155.121 247.41 155.289C247.349 155.446 247.304 155.608 247.276 155.774C247.234 156.065 247.234 156.361 247.276 156.652C247.318 157.057 247.47 157.444 247.715 157.77C247.754 157.817 247.795 157.861 247.838 157.904C247.87 157.936 247.904 157.965 247.941 157.99L248.027 158.052C247.919 157.963 247.82 157.864 247.732 157.756C247.494 157.431 247.349 157.047 247.314 156.645C247.28 156.357 247.287 156.067 247.335 155.781C247.365 155.619 247.411 155.46 247.472 155.307C247.541 155.142 247.619 154.981 247.705 154.825C247.876 154.481 248.085 154.158 248.274 153.776C248.486 153.378 248.619 152.942 248.664 152.493C248.705 152.018 248.633 151.523 248.664 151.017C248.681 150.76 248.743 150.508 248.849 150.274C248.962 150.032 249.097 149.802 249.254 149.586C249.408 149.359 249.572 149.132 249.716 148.881C249.873 148.629 249.972 148.346 250.008 148.052C250.083 147.436 249.73 146.861 249.819 146.259C249.88 145.956 250.006 145.669 250.189 145.42C250.36 145.159 250.566 144.911 250.737 144.629C251.065 144.044 251.283 143.404 251.382 142.74C251.48 142.062 251.639 141.395 251.855 140.745C251.976 140.42 252.142 140.113 252.348 139.833C252.555 139.552 252.825 139.324 253.136 139.166L253.068 139.125V139.187C253.105 139.548 253.17 139.899 253.211 140.25C253.252 140.592 253.265 140.937 253.249 141.282C253.245 141.453 253.23 141.624 253.205 141.794C253.16 141.959 253.103 142.12 253.033 142.276C252.889 142.587 252.766 142.908 252.663 143.236C252.571 143.561 252.514 143.896 252.492 144.233C252.454 144.577 252.416 144.894 252.382 145.217C252.356 145.85 252.226 146.474 251.998 147.064C251.872 147.343 251.7 147.601 251.57 147.883C251.446 148.162 251.377 148.462 251.368 148.767C251.334 149.359 251.409 149.94 251.251 150.463C251.094 150.986 250.758 151.423 250.59 151.918C250.453 152.4 250.441 152.909 250.556 153.397C250.657 153.83 250.675 154.279 250.607 154.718C250.474 155.09 250.283 155.439 250.042 155.75C249.945 155.907 249.881 156.081 249.853 156.263C249.832 156.429 249.821 156.597 249.819 156.765C249.819 156.917 249.797 157.067 249.754 157.212C249.703 157.338 249.621 157.449 249.518 157.536C249.338 157.683 249.135 157.799 248.918 157.88C248.759 157.939 248.595 157.983 248.428 158.01C248.325 158.032 248.221 158.042 248.116 158.041L247.996 158.096Z" fill="#263238"/>
<path d="M252.817 139.998C252.816 140.014 252.816 140.03 252.817 140.046L252.783 140.184C252.752 140.304 252.718 140.487 252.66 140.717C252.601 140.947 252.461 141.199 252.341 141.519C252.201 141.874 252.079 142.237 251.978 142.606C251.861 143.018 251.758 143.472 251.635 143.957C251.543 144.479 251.378 144.985 251.145 145.461C251.022 145.708 250.878 145.963 250.768 146.238C250.657 146.521 250.582 146.817 250.545 147.119C250.464 147.744 250.35 148.364 250.203 148.976C249.898 150.235 249.603 151.436 249.339 152.527C249.075 153.617 248.818 154.591 248.613 155.423C248.407 156.255 248.246 156.906 248.133 157.377C248.078 157.601 248.037 157.779 248.006 157.907L247.975 158.048C247.974 158.064 247.974 158.08 247.975 158.096C247.975 158.096 247.975 158.079 247.992 158.048L248.034 157.914C248.068 157.783 248.116 157.607 248.177 157.384C248.297 156.916 248.472 156.255 248.688 155.44C248.904 154.625 249.151 153.634 249.432 152.551C249.713 151.467 249.997 150.26 250.305 149.001C250.452 148.384 250.567 147.761 250.648 147.133C250.684 146.838 250.756 146.55 250.861 146.273C250.97 146.004 251.107 145.753 251.234 145.499C251.466 145.017 251.63 144.505 251.721 143.978C251.827 143.49 251.926 143.036 252.036 142.626C252.146 142.217 252.269 141.852 252.379 141.536C252.488 141.219 252.625 140.961 252.68 140.724C252.735 140.487 252.762 140.311 252.786 140.187L252.817 140.039C252.817 140.015 252.817 139.998 252.817 139.998Z" fill="#263238"/>
<path d="M248.267 158.1C249.267 157.505 249.552 155.692 249.137 154.605C248.722 153.518 247.989 152.52 247.876 151.357C247.79 150.463 248.082 149.548 247.876 148.674C247.598 147.498 246.454 146.586 246.464 145.375C246.464 144.687 246.858 144.054 246.827 143.377C246.79 142.544 246.142 141.884 245.758 141.151C245.155 140.026 245.118 138.702 244.909 137.443C244.699 136.184 244.223 134.835 243.113 134.216C242.952 135.286 242.671 136.018 242.77 137.463C242.805 137.986 243.404 138.98 243.486 140.119C243.534 140.807 243.569 141.495 243.61 142.162C243.618 142.828 243.727 143.489 243.932 144.123C244.114 144.598 244.405 145.031 244.538 145.52C244.792 146.445 244.46 147.446 244.665 148.382C244.837 149.173 245.385 149.854 245.494 150.659C245.652 151.787 244.926 152.96 245.296 154.037C245.481 154.574 245.919 155.004 246.043 155.554C246.142 155.984 246.043 156.435 246.122 156.865C246.262 157.553 247.581 158.096 248.284 158.055" fill="#249748"/>
<path d="M243.387 135.278C243.387 135.278 243.387 135.299 243.387 135.337L243.411 135.512C243.432 135.667 243.459 135.894 243.511 136.2C243.562 136.506 243.716 136.826 243.853 137.232C243.99 137.638 244.107 138.092 244.22 138.608C244.333 139.124 244.429 139.692 244.528 140.304C244.608 140.965 244.781 141.612 245.042 142.224C245.179 142.547 245.337 142.867 245.457 143.208C245.571 143.56 245.641 143.925 245.666 144.295C245.723 145.078 245.821 145.858 245.961 146.63C246.266 148.213 246.557 149.726 246.824 151.102C247.091 152.478 247.355 153.7 247.568 154.738C247.78 155.777 247.955 156.603 248.078 157.188C248.137 157.47 248.185 157.693 248.219 157.852L248.26 158.024L248.277 158.082C248.279 158.063 248.279 158.043 248.277 158.024L248.246 157.848C248.215 157.69 248.174 157.463 248.123 157.177C248.006 156.593 247.842 155.757 247.643 154.725C247.444 153.693 247.174 152.423 246.903 151.047C246.632 149.671 246.351 148.168 246.046 146.575C245.908 145.805 245.81 145.027 245.752 144.246C245.725 143.87 245.653 143.498 245.536 143.139C245.412 142.795 245.255 142.468 245.114 142.151C244.855 141.545 244.681 140.906 244.597 140.253C244.494 139.64 244.395 139.069 244.275 138.553C244.171 138.088 244.044 137.629 243.894 137.177C243.768 136.778 243.61 136.448 243.552 136.145C243.493 135.842 243.463 135.626 243.432 135.474C243.432 135.402 243.408 135.347 243.401 135.302C243.397 135.294 243.392 135.286 243.387 135.278Z" fill="#263238"/>
<path d="M219.085 112.702H66.917V127.969H219.085V112.702Z" fill="#249748"/>
<g opacity="0.4">
<path d="M219.085 112.702H66.917V127.969H219.085V112.702Z" fill="black"/>
</g>
<path d="M186.117 129.896H141.2V144.034H186.117V129.896Z" fill="#455A64"/>
<path d="M109.812 123.5V142.19H125.15L131.297 133.246H243.284V123.5H109.812Z" fill="#263238"/>
<path d="M108.856 64.3188C108.839 64.0183 108.705 63.7364 108.484 63.5337C108.262 63.3311 107.97 63.2239 107.67 63.2352C101.609 63.4863 72.8315 64.8107 66.9136 67.6659C62.3835 69.8537 57.4217 78.0203 53.9231 83.5209C51.4148 87.4631 45.8739 96.2145 44.7533 100.69C43.8042 104.474 43.2319 112.345 43.297 116.249L44.8801 136.91H70.9605L73.5716 130.085C74.4049 127.911 75.8748 126.041 77.7877 124.723C79.7005 123.404 81.9665 122.699 84.2868 122.699H110.203V88.4125L108.856 64.3188Z" fill="#249748"/>
<path d="M63.8227 69.9531C60.2316 73.3931 56.6267 79.2411 53.9231 83.5205C51.5998 87.1703 46.6791 94.9413 45.072 99.6266C45.0411 99.7126 45.0172 99.7951 44.9897 99.8811C45.7847 99.661 47.0081 99.2103 47.3884 98.4535C47.9607 97.308 48.694 93.383 57.7609 78.5669C60.516 74.0502 63.2025 71.4082 63.8227 69.9531Z" fill="#455A64"/>
<path d="M95.4577 68.4221C88.7894 68.8039 74.3323 69.7981 69.7131 71.3736C63.6959 73.4376 56.9419 89.4302 56.6233 90.1319L52.0726 101.828C52.0471 101.904 52.0401 101.986 52.0521 102.066C52.064 102.145 52.0947 102.221 52.1416 102.287C52.1884 102.352 52.2501 102.405 52.3215 102.442C52.3929 102.479 52.4721 102.499 52.5524 102.499H64.3161C64.7617 102.499 65.2037 102.42 65.6217 102.265L96.5611 90.6858C97.2442 90.4299 97.8331 89.9705 98.249 89.3692C98.6648 88.7679 98.8877 88.0534 98.8878 87.3215V71.6798C98.888 71.236 98.798 70.7969 98.6233 70.3893C98.4486 69.9816 98.1929 69.6141 97.8718 69.3091C97.5507 69.0042 97.1709 68.7682 96.7558 68.6157C96.3407 68.4632 95.899 68.3973 95.4577 68.4221Z" fill="#263238"/>
<path d="M53.3853 101.351C53.3853 101.351 57.744 91.5362 59.2106 88.3198C61.4242 83.4625 66.5951 73.5278 70.0868 72.458C73.2976 71.4913 82.5291 70.3148 95.523 69.5684H95.6463C96.2044 69.5702 96.739 69.7938 97.1333 70.1902C97.5276 70.5867 97.7494 71.1237 97.7503 71.684V87.68C97.7491 88.0742 97.6284 88.4587 97.4044 88.7825C97.1804 89.1062 96.8637 89.354 96.4961 89.4928L73.6369 92.324C72.7205 92.4375 71.8398 92.7498 71.0557 93.2393C70.2717 93.7288 69.6032 94.3837 69.0965 95.1585L65.1353 101.223C64.9028 101.31 64.6568 101.354 64.4088 101.354L53.3853 101.351Z" fill="#455A64"/>
<path d="M72.8073 92.4992L65.0356 101.189L69.3361 72.3373L70.4121 71.9658L68.2944 93.3385C68.2844 93.4459 68.302 93.554 68.3456 93.6525C68.3892 93.751 68.4572 93.8366 68.5432 93.9012C68.6291 93.9658 68.7302 94.0071 68.8366 94.0212C68.9431 94.0353 69.0513 94.0217 69.1511 93.9818L72.8073 92.4992Z" fill="#263238"/>
<path d="M42.7864 118.254C42.759 117.879 42.8858 117.566 43.0777 117.566L47.2445 117.181C47.5872 117.147 47.9059 117.797 47.947 118.557L48.1355 121.767C48.1663 122.283 48.0121 122.719 47.7928 122.757L43.5437 123.493C43.3518 123.528 43.1668 123.242 43.1394 122.864L42.7864 118.254Z" fill="#EBEBEB"/>
<path d="M72.8077 133.249H42.7832V145.334H72.8077V133.249Z" fill="#263238"/>
<path d="M92.8499 157.956C101.916 157.607 108.983 149.945 108.635 140.844C108.286 131.743 100.655 124.648 91.5887 124.998C82.5227 125.347 75.4557 133.009 75.804 142.11C76.1522 151.211 83.784 158.306 92.8499 157.956Z" fill="#263238"/>
<path d="M75.8056 141.192C75.8075 141.207 75.8075 141.222 75.8056 141.237C75.7482 145.607 77.421 149.821 80.4565 152.954C83.4921 156.087 87.6422 157.882 91.9952 157.944C96.3482 158.007 100.548 156.333 103.672 153.289C106.796 150.246 108.589 146.082 108.657 141.712C108.657 141.712 108.657 141.684 108.657 141.671L75.8056 141.192Z" fill="#263238"/>
<path d="M80.6956 141.306C80.6619 143.596 81.3055 145.844 82.545 147.767C83.7845 149.69 85.5641 151.201 87.6589 152.108C89.7536 153.015 92.0694 153.279 94.3132 152.865C96.5571 152.451 98.6282 151.378 100.265 149.782C101.901 148.187 103.03 146.14 103.507 143.9C103.985 141.66 103.79 139.329 102.947 137.201C102.105 135.072 100.653 133.242 98.7741 131.943C96.8957 130.643 94.6754 129.932 92.3942 129.899C89.3363 129.855 86.386 131.031 84.1922 133.171C81.9984 135.31 80.7407 138.236 80.6956 141.306Z" fill="#FAFAFA"/>
<path d="M92.3944 129.899C89.3365 129.855 86.3862 131.031 84.1924 133.171C81.9986 135.31 80.7409 138.236 80.6958 141.306L103.761 141.65C103.806 138.578 102.633 135.615 100.502 133.411C98.3702 131.207 95.4539 129.944 92.3944 129.899Z" fill="#E0E0E0"/>
<path d="M85.2053 141.371C85.1851 142.766 85.5774 144.135 86.3325 145.306C87.0876 146.477 88.1716 147.397 89.4475 147.949C90.7233 148.502 92.1337 148.662 93.5002 148.409C94.8667 148.157 96.1279 147.504 97.1244 146.532C98.121 145.56 98.808 144.313 99.0986 142.949C99.3892 141.585 99.2703 140.165 98.757 138.869C98.2438 137.573 97.3591 136.458 96.215 135.667C95.0709 134.876 93.7187 134.442 92.3294 134.423C90.4668 134.396 88.67 135.113 87.3341 136.416C85.9981 137.719 85.2324 139.502 85.2053 141.371Z" fill="#263238"/>
<path d="M60.3653 78.8975H59.0255C57.5153 78.8975 56.291 80.1265 56.291 81.6426V92.5577C56.291 94.0738 57.5153 95.3028 59.0255 95.3028H60.3653C61.8755 95.3028 63.0998 94.0738 63.0998 92.5577V81.6426C63.0998 80.1265 61.8755 78.8975 60.3653 78.8975Z" fill="#263238"/>
<path d="M53.474 105.444H53.1313V88.0957C53.1323 87.2685 53.46 86.4754 54.0427 85.8904C54.6253 85.3055 55.4153 84.9765 56.2393 84.9756H57.0617V85.3196H56.2393C55.5062 85.3205 54.8034 85.6133 54.285 86.1337C53.7666 86.6541 53.4749 87.3597 53.474 88.0957V105.444Z" fill="#263238"/>
<path d="M55.8076 105.464L54.8549 89.2448C54.8416 88.9675 54.8841 88.6903 54.9799 88.4299C55.0757 88.1695 55.2228 87.9311 55.4125 87.7291C55.6023 87.5271 55.8306 87.3656 56.084 87.2542C56.3373 87.1429 56.6104 87.084 56.887 87.0811V87.4251C56.6563 87.4251 56.4282 87.4725 56.2164 87.5643C56.0047 87.6561 55.8139 87.7903 55.6557 87.9588C55.4975 88.1272 55.3753 88.3264 55.2965 88.544C55.2177 88.7616 55.1841 88.9931 55.1976 89.2242L56.1502 105.447L55.8076 105.464Z" fill="#263238"/>
<path d="M56.8872 103.882H52.2681V109.252H56.8872V103.882Z" fill="#263238"/>
<path d="M55.1805 93.6895H53.3027V94.0335H55.1805V93.6895Z" fill="#263238"/>
<path d="M70.8612 68.887L71.269 68.8319L72.4717 68.6909L77.132 68.1508L94.5052 66.1659C95.4304 66.0662 96.3727 65.9423 97.3493 65.8563C97.8482 65.8181 98.35 65.8506 98.8399 65.9526C99.3381 66.0696 99.8186 66.2523 100.269 66.4962C101.198 67.015 101.951 67.8009 102.431 68.7528C102.68 69.2394 102.847 69.7634 102.928 70.3042C102.971 70.5774 102.995 70.8533 103 71.1298V71.9589C103 76.3999 103 81.1678 103 86.2211C103 96.3278 103 107.57 103 119.589V119.679H84.9516C83.9213 119.645 82.89 119.694 81.8676 119.826C79.7587 120.131 77.769 120.995 76.104 122.33C74.439 123.665 73.159 125.421 72.3963 127.419C72.2483 127.785 72.1235 128.161 72.0228 128.543C71.9114 128.922 71.8233 129.307 71.759 129.696L71.6699 130.281L71.6288 130.573L71.6116 130.865L71.5842 131.454V131.75V131.784C71.6596 131.708 71.478 131.901 71.4917 131.88H48.605V131.784C48.605 126.6 48.605 121.602 48.605 116.827C48.605 114.439 48.605 112.108 48.605 109.833V106.469C48.605 105.915 48.605 105.368 48.605 104.821C48.6162 104.277 48.655 103.734 48.7215 103.194C48.9828 101.113 49.6413 99.1015 50.661 97.2704C51.6045 95.4885 52.5182 93.7685 53.4023 92.1104L58.2613 82.9703L62.2054 75.5502C62.4933 75.0113 62.7697 74.4896 63.0347 73.985C63.1717 73.7374 63.2917 73.4862 63.4356 73.2523C63.5775 73.0237 63.7319 72.8032 63.8982 72.5918C64.4924 71.8479 65.1921 71.1954 65.9748 70.6551C67.0527 69.9205 68.2579 69.3943 69.5282 69.1037C69.9643 68.9987 70.4076 68.9262 70.8543 68.887L70.5117 68.9386C70.2889 68.973 69.96 69.0314 69.5282 69.1312C68.2654 69.4309 67.0687 69.9628 65.9987 70.6998C65.2226 71.2409 64.5299 71.8934 63.9427 72.6366C63.7768 72.8443 63.6246 73.0626 63.487 73.2902C63.3465 73.5172 63.2266 73.7718 63.0895 74.0229L62.2637 75.5915L58.3538 83.0185C56.8872 85.7911 55.2698 88.8493 53.5222 92.1654L50.7809 97.3254C49.7707 99.1427 49.1202 101.139 48.8654 103.204C48.8001 103.74 48.7624 104.278 48.7523 104.818C48.7523 105.358 48.7523 105.912 48.7523 106.462V109.826C48.7523 112.099 48.7523 114.43 48.7523 116.82C48.7523 121.595 48.7523 126.593 48.7523 131.777L48.6667 131.694H71.4643C71.4883 131.677 71.2998 131.86 71.3786 131.777V131.739V131.443L71.4094 130.845V130.549L71.454 130.253L71.5431 129.658C71.6082 129.263 71.6974 128.872 71.8104 128.488C71.9129 128.1 72.0399 127.719 72.1907 127.346C72.9656 125.32 74.2648 123.538 75.9543 122.183C77.6438 120.829 79.6626 119.951 81.8025 119.641C82.825 119.51 83.8562 119.461 84.8865 119.493H102.853L102.763 119.579C102.763 107.573 102.763 96.3313 102.763 86.2108C102.763 81.1574 102.763 76.3896 102.763 71.9486C102.786 71.4029 102.763 70.8564 102.695 70.3146C102.617 69.7859 102.454 69.2735 102.212 68.7975C101.747 67.867 101.012 67.0996 100.104 66.5959C99.6669 66.3555 99.1989 66.1761 98.7131 66.0627C98.2347 65.9614 97.7445 65.9278 97.2568 65.963C96.287 66.0455 95.3379 66.1694 94.4161 66.2691L77.0463 68.199L72.3826 68.7115L71.1799 68.8388L70.8612 68.887Z" fill="#263238"/>
<path d="M97.5307 106.906C97.5307 106.906 97.6267 106.906 97.798 106.865C98.0499 106.82 98.2901 106.724 98.5039 106.583C98.841 106.361 99.0934 106.031 99.2201 105.647C99.2975 105.407 99.3289 105.155 99.3126 104.904C99.3052 104.625 99.2337 104.352 99.1036 104.106C98.9545 103.824 98.7327 103.587 98.4615 103.421C98.1902 103.255 97.8794 103.164 97.5616 103.16H95.3H90.1188C89.6875 103.16 89.2714 103.32 88.9497 103.609C88.6281 103.897 88.4234 104.295 88.3747 104.725C88.3208 105.133 88.3964 105.549 88.5906 105.912C88.7832 106.255 89.0847 106.524 89.4472 106.675C89.8056 106.8 90.1864 106.847 90.5643 106.813H91.6608H93.6312L96.4856 106.841H97.2635C97.353 106.839 97.4425 106.846 97.5307 106.861C97.442 106.872 97.3528 106.878 97.2635 106.878H96.4856L93.6312 106.906H91.6608H90.5643C90.3724 106.906 90.1874 106.906 89.9852 106.906C89.7796 106.89 89.5774 106.844 89.3855 106.768C88.9892 106.603 88.6589 106.31 88.4466 105.936C88.2338 105.542 88.1499 105.09 88.2068 104.646C88.2597 104.174 88.4838 103.737 88.8364 103.42C89.189 103.103 89.6454 102.927 90.1188 102.926H95.3H97.5616C98.0559 102.936 98.5269 103.138 98.8749 103.491C99.2229 103.843 99.4204 104.318 99.4257 104.814C99.4366 105.077 99.3982 105.34 99.3126 105.588C99.1716 105.988 98.8998 106.327 98.5416 106.552C98.3181 106.691 98.0664 106.779 97.8049 106.81C97.7178 106.853 97.6257 106.885 97.5307 106.906Z" fill="#263238"/>
<path d="M96.9036 102.586C95.9272 102.672 94.9466 102.7 93.9669 102.672C92.9861 102.701 92.0044 102.672 91.0269 102.586C92.0042 102.497 92.986 102.467 93.9669 102.496C94.9467 102.467 95.9274 102.497 96.9036 102.586Z" fill="white"/>
<path d="M74.1749 145.434L71.4336 145.235C72.1498 135.379 73.1983 129.483 74.641 127.209C77.4097 122.84 80.1613 122.049 83.2076 121.53C86.0449 121.045 88.9062 121.158 91.6749 121.272L92.3602 121.299C98.0759 121.523 110.049 121.323 110.179 121.323L110.223 124.075C110.104 124.075 98.0554 124.278 92.2643 124.051L91.579 124.024C88.9507 123.921 86.2368 123.807 83.6805 124.247C80.9563 124.712 79.1436 125.245 76.9574 128.692C76.296 129.72 75.0556 133.295 74.1749 145.434Z" fill="#263238"/>
<path d="M246.642 33.166H111.639V123.404H246.642V33.166Z" fill="#249748"/>
<path d="M245.025 121.619C245.025 121.038 244.998 87.9413 244.953 35.2061L245.025 35.2749L113.098 35.2956L113.187 35.2061C113.187 65.9219 113.187 95.1584 113.187 121.619L113.105 121.536L245.032 121.619L113.105 121.701H113.009V121.619C113.009 95.1584 113.009 65.9219 113.009 35.2061V35.1201H113.109L245.035 35.1373H245.107V35.2096C245.052 87.9413 245.025 121.041 245.025 121.619Z" fill="#263238"/>
<g opacity="0.5">
<path d="M130.78 81.5735L132.055 107.384L232.178 86.4755L230.407 59.5713L130.78 81.5735Z" fill="black"/>
</g>
<path d="M138.366 99.4481L139.052 97.0401C140.392 97.6191 141.879 97.7611 143.304 97.446C144.836 97.102 145.703 96.3728 145.501 95.4887C145.086 93.552 139.333 95.8774 138.5 92.0177C137.969 89.5272 139.795 87.4494 143.14 86.7304C144.76 86.3864 146.337 86.4208 147.533 86.868L146.933 89.2313C145.823 88.8122 144.614 88.732 143.458 89.0008C141.837 89.3448 141.022 90.1773 141.207 91.0442C141.618 93.036 147.392 90.7002 148.19 94.4257C148.725 96.9369 146.864 99.0216 143.503 99.744C141.543 100.171 139.555 99.9813 138.366 99.4481Z" fill="white"/>
<path d="M161.147 83.0566L161.322 95.6883L158.529 96.2903L158.457 91.1475L152.991 92.324L153.067 97.484L150.253 98.0722L150.079 85.4371L152.888 84.8317L152.957 89.7956L158.423 88.6191L158.354 83.6552L161.147 83.0566Z" fill="white"/>
<path d="M164.005 82.4404L166.808 81.835L166.983 94.4666L164.173 95.0721L164.005 82.4404Z" fill="white"/>
<path d="M180.069 82.9356C180.727 86.0144 178.88 88.4396 175.272 89.1998L172.582 89.7778L172.633 93.2556L169.823 93.861L169.659 81.2156L174.538 80.1836C177.554 79.5197 179.562 80.5551 180.069 82.9356ZM177.293 83.7853C177.043 82.6088 176.097 82.2338 174.682 82.54L172.493 83.0113L172.547 87.3973L174.908 86.8882C176.745 86.4822 177.636 85.3849 177.293 83.775V83.7853Z" fill="white"/>
<path d="M192.508 80.242C193.166 83.338 191.319 85.746 187.711 86.5063L185.024 87.0876L185.082 90.5655L182.272 91.1709L182.094 78.5392L186.974 77.4866C190 76.8364 192.008 77.8719 192.508 80.242ZM189.732 81.0951C189.482 79.9152 188.533 79.5403 187.121 79.8464L184.932 80.3177L184.986 84.7071L187.347 84.198C189.198 83.799 190.082 82.7016 189.739 81.0951H189.732Z" fill="white"/>
<path d="M194.564 75.8564L197.374 75.251L197.552 87.8861L194.742 88.4915L194.564 75.8564Z" fill="white"/>
<path d="M211.272 72.2715L211.45 84.9032L209.155 85.3985L203.038 78.7731L203.141 86.6851L200.399 87.2802L200.221 74.6451L202.531 74.1463L208.654 80.7752L208.531 72.8632L211.272 72.2715Z" fill="white"/>
<path d="M222.385 75.9977L224.938 75.4473L225.003 80.6451C223.871 81.9122 222.361 82.7775 220.699 83.1116C217.043 83.8993 214.278 82.2688 213.609 79.1384C212.725 75.0104 215.073 71.2264 219.64 70.2357C221.95 69.7369 223.797 70.1153 225.123 71.2677L223.471 73.3317C222.443 72.537 221.374 72.3719 220.045 72.6609C217.218 73.2697 215.844 75.7018 216.412 78.3678C216.8 80.1841 218.27 81.1542 220.562 80.6589C221.254 80.5169 221.906 80.222 222.471 79.7954L222.385 75.9977Z" fill="white"/>
<path d="M150.74 57.6933V80.2356L207.801 67.6383L207.781 45.3574L150.74 57.6933Z" fill="#249748"/>
<g opacity="0.3">
<path d="M150.74 57.6933V80.2356L207.801 67.6383L207.781 45.3574L150.74 57.6933Z" fill="black"/>
</g>
<path d="M159.108 63.3008L159.235 68.2613L165.478 66.8371L165.502 67.993L159.269 69.4171L159.413 74.7767L158.159 75.0622L157.833 62.4305L166.085 60.5488L166.112 61.7047L159.108 63.3008Z" fill="white"/>
<path d="M175.463 66.8679L178.647 70.387L177.276 70.7001L174.24 67.3461C174.055 67.408 173.832 67.4562 173.623 67.5043L170.197 68.2852L170.306 72.2894L169.035 72.5783L168.709 59.9501L173.041 58.9594C175.782 58.3367 177.626 59.2414 178.112 61.3983C178.674 63.882 177.663 65.8015 175.463 66.8679ZM176.868 61.8077C176.509 60.2218 175.2 59.6302 173.205 60.0877L170.008 60.817L170.152 67.1362L173.404 66.3966C176.118 65.774 177.406 64.1916 176.868 61.8077Z" fill="white"/>
<path d="M182.42 57.9825L182.533 62.4785L188.773 61.0544L188.814 62.1896L182.571 63.6103L182.694 68.3025L189.931 66.6513L189.958 67.8071L181.464 69.7438L181.138 57.1156L189.39 55.2305L189.417 56.3863L182.42 57.9825Z" fill="white"/>
<path d="M193.92 55.361L194.033 59.8536L200.276 58.4294L200.314 59.5646L194.074 60.9888L194.194 65.681L201.434 64.0297L201.458 65.1856L192.967 67.112L192.625 54.4803L200.879 52.5986L200.907 53.7545L193.92 55.361Z" fill="white"/>
<path d="M214.342 57.6932L234.549 52.9425L233.751 50.7822L214.342 57.6932Z" fill="#FAFAFA"/>
<path d="M123.861 72.8735L137.911 69.5711L137.356 68.0713L123.861 72.8735Z" fill="#FAFAFA"/>
<path d="M171.961 106.857L192.168 102.103L191.373 99.9463L171.961 106.857Z" fill="#FAFAFA"/>
<path d="M198.748 46.8884C198.748 46.9365 187.96 49.5269 174.634 52.671C161.308 55.8152 150.49 58.3298 150.476 58.2817C150.462 58.2335 161.26 55.6432 174.593 52.499C187.926 49.3549 198.737 46.8402 198.748 46.8884Z" fill="#FAFAFA"/>
<path d="M150.589 77.9716C150.589 78.0197 145.963 79.0036 140.234 80.1594C134.505 81.3152 129.855 82.2234 129.844 82.1752C129.834 82.1271 134.47 81.1432 140.2 79.984C145.929 78.8247 150.579 77.9234 150.589 77.9716Z" fill="#FAFAFA"/>
<path d="M150.771 75.9317C150.755 75.8723 150.748 75.8109 150.75 75.7494C150.75 75.6084 150.75 75.4364 150.733 75.23C150.733 74.7518 150.733 74.1051 150.706 73.3173C150.706 71.6764 150.678 69.4576 150.665 67.0049C150.651 64.5522 150.617 62.33 150.599 60.6925C150.599 59.9048 150.579 59.258 150.572 58.7799V58.257C150.563 58.1977 150.563 58.1374 150.572 58.0781C150.588 58.1364 150.596 58.1966 150.596 58.257C150.596 58.398 150.617 58.5666 150.63 58.7764C150.658 59.2271 150.685 59.8807 150.713 60.6891C150.771 62.3024 150.815 64.535 150.832 67.0015C150.85 69.468 150.832 71.7005 150.832 73.3139C150.832 74.1051 150.812 74.7518 150.805 75.23C150.805 75.4364 150.805 75.6084 150.788 75.7494C150.787 75.8106 150.782 75.8715 150.771 75.9317Z" fill="#FAFAFA"/>
<path d="M92.4492 75.8975C92.4492 75.8975 92.4081 75.9387 92.3224 76.0041L91.9455 76.2759C91.6028 76.5132 91.1333 76.8435 90.5371 77.2528C89.3412 78.0647 87.6758 79.1723 85.8186 80.366C83.9613 81.5597 82.2651 82.6158 81.0212 83.3691C80.4044 83.7441 79.9007 84.0571 79.5512 84.2498L79.1469 84.4768C79.1008 84.5067 79.0513 84.531 78.9995 84.5491C78.9995 84.5491 79.0406 84.5078 79.1263 84.4493L79.5135 84.1879L80.9561 83.2625L85.7158 80.2147L90.4583 77.1462L91.9009 76.2208L92.2984 75.9731C92.3458 75.9425 92.3963 75.9172 92.4492 75.8975Z" fill="#FAFAFA"/>
<path d="M86.5927 77.4521C86.5927 77.4521 86.5516 77.4934 86.4659 77.5588L86.089 77.8306C85.7463 78.0645 85.2769 78.3982 84.6772 78.8041C83.4813 79.6194 81.816 80.7236 79.9621 81.9001C78.1083 83.0766 76.4087 84.1533 75.1648 84.9066C74.548 85.2816 74.0443 85.5946 73.6948 85.7838L73.2904 86.0143C73.2451 86.0447 73.1954 86.068 73.1431 86.0831C73.1815 86.0452 73.224 86.0117 73.2699 85.9834L73.6571 85.7254L75.0963 84.7966L79.8593 81.7521L84.6018 78.6837L86.0445 77.7549L86.4385 77.5106C86.4871 77.4844 86.539 77.4647 86.5927 77.4521Z" fill="#FAFAFA"/>
<path d="M57.744 87.4667C57.6914 87.3726 57.6555 87.2702 57.6377 87.1639C57.5829 86.9679 57.5075 86.6789 57.4218 86.3211C57.1966 85.3862 57.0816 84.4279 57.0792 83.4659C57.0743 82.4942 57.2974 81.5349 57.7302 80.6658C57.8657 80.4057 58.0288 80.1612 58.2168 79.9365C58.2802 79.8507 58.3565 79.7752 58.443 79.7129C58.2243 80.039 58.0229 80.3766 57.8399 80.7243C57.4494 81.5885 57.2495 82.5273 57.2539 83.4763C57.2643 84.4265 57.3665 85.3735 57.5589 86.3039C57.6446 86.6873 57.7064 87.0756 57.744 87.4667Z" fill="#FAFAFA"/>
<path d="M43.7905 111.856C43.7782 111.734 43.7782 111.61 43.7905 111.488C43.7905 111.24 43.7905 110.882 43.8111 110.456C43.8385 109.572 43.9036 108.351 44.0099 107.016C44.1161 105.681 44.2429 104.457 44.3525 103.576C44.4073 103.136 44.4553 102.781 44.493 102.544C44.5059 102.416 44.5323 102.291 44.5718 102.169C44.589 102.297 44.589 102.426 44.5718 102.554L44.4827 103.586C44.4073 104.508 44.3045 105.702 44.1915 107.026C44.0784 108.351 44.0099 109.541 43.9447 110.466C43.9139 110.879 43.8865 111.226 43.8659 111.498C43.8555 111.62 43.8302 111.74 43.7905 111.856Z" fill="#FAFAFA"/>
<path d="M81.3434 118.533C81.3434 118.571 80.6821 118.664 79.6575 118.998C79.0578 119.193 78.4726 119.431 77.9065 119.71C76.5192 120.401 75.2641 121.333 74.1988 122.462C73.7638 122.92 73.3618 123.408 72.996 123.924C72.3758 124.808 72.0846 125.417 72.0537 125.399C72.1047 125.249 72.1689 125.104 72.2456 124.966C72.3223 124.798 72.4093 124.635 72.506 124.478C72.6157 124.292 72.7356 124.075 72.8932 123.851C73.248 123.32 73.6445 122.817 74.0789 122.348C74.6173 121.775 75.203 121.25 75.8299 120.776C76.4625 120.315 77.1345 119.911 77.8379 119.569C78.4125 119.292 79.0084 119.062 79.6198 118.881C79.8768 118.795 80.1201 118.746 80.3291 118.695C80.5088 118.651 80.6907 118.617 80.874 118.592C81.0282 118.557 81.1854 118.538 81.3434 118.533Z" fill="#FAFAFA"/>
<path d="M115.089 97.7657C115.085 97.7165 115.085 97.667 115.089 97.6178C115.089 97.5123 115.089 97.3678 115.089 97.1843C115.089 96.7922 115.089 96.2314 115.065 95.5159C115.045 94.0574 115.017 91.9624 114.98 89.379C114.887 84.188 114.76 77.0362 114.62 69.1346C114.479 61.2329 114.359 54.0674 114.311 48.8867C114.287 46.2964 114.281 44.198 114.284 42.7498C114.284 42.0308 114.284 41.4701 114.284 41.0814V40.6479C114.284 40.5482 114.284 40.5 114.284 40.5C114.289 40.5492 114.289 40.5987 114.284 40.6479C114.284 40.7511 114.284 40.8956 114.284 41.0814C114.284 41.4701 114.284 42.0308 114.308 42.7498C114.329 44.2083 114.356 46.2998 114.394 48.8833C114.486 54.0742 114.613 61.226 114.753 69.1311C114.894 77.0362 115.017 84.1949 115.062 89.3755C115.086 91.9693 115.096 94.0642 115.093 95.5125C115.093 96.2314 115.093 96.7922 115.093 97.1843C115.093 97.3666 115.093 97.5111 115.093 97.6178C115.094 97.6671 115.093 97.7165 115.089 97.7657Z" fill="#FAFAFA"/>
<path d="M214.233 157.937C223.298 157.573 230.353 149.901 229.991 140.8C229.628 131.699 221.986 124.617 212.92 124.981C203.855 125.345 196.8 133.017 197.162 142.118C197.525 151.218 205.168 158.301 214.233 157.937Z" fill="#263238"/>
<path d="M197.144 141.192C197.144 141.192 197.144 141.223 197.144 141.237C197.082 145.61 198.752 149.829 201.788 152.965C204.823 156.102 208.976 157.899 213.332 157.962C217.688 158.025 221.89 156.349 225.015 153.301C228.139 150.253 229.93 146.085 229.992 141.712V141.671L197.144 141.192Z" fill="#263238"/>
<path d="M202.034 141.306C202.001 143.595 202.645 145.842 203.884 147.764C205.124 149.686 206.903 151.195 208.997 152.102C211.091 153.009 213.406 153.272 215.648 152.858C217.891 152.444 219.961 151.372 221.597 149.777C223.233 148.181 224.361 146.135 224.839 143.897C225.316 141.658 225.122 139.328 224.28 137.2C223.438 135.072 221.987 133.243 220.109 131.943C218.232 130.644 216.013 129.932 213.733 129.899C210.675 129.855 207.724 131.031 205.531 133.171C203.337 135.31 202.079 138.236 202.034 141.306Z" fill="#FAFAFA"/>
<path d="M213.732 129.899C212.218 129.876 210.714 130.154 209.307 130.715C207.899 131.276 206.616 132.11 205.529 133.17C204.443 134.229 203.575 135.493 202.975 136.889C202.376 138.285 202.056 139.786 202.034 141.306L225.095 141.65C225.118 140.129 224.843 138.619 224.284 137.205C223.725 135.791 222.895 134.502 221.839 133.41C220.784 132.319 219.525 131.447 218.134 130.845C216.743 130.242 215.247 129.921 213.732 129.899Z" fill="#E0E0E0"/>
<path d="M206.557 141.371C206.537 142.766 206.929 144.135 207.684 145.306C208.439 146.477 209.523 147.397 210.799 147.949C212.075 148.502 213.485 148.662 214.852 148.409C216.218 148.157 217.479 147.504 218.476 146.532C219.473 145.56 220.16 144.313 220.45 142.949C220.741 141.585 220.622 140.165 220.109 138.869C219.595 137.573 218.711 136.458 217.567 135.667C216.422 134.876 215.07 134.442 213.681 134.423C211.818 134.396 210.022 135.113 208.686 136.416C207.35 137.719 206.584 139.502 206.557 141.371Z" fill="#263238"/>
<path d="M191.973 145.992C191.973 145.992 189.472 122.6 213.616 122.6C235.889 122.6 235.396 142.717 235.183 145.83H231.692C231.692 145.83 233.47 126.002 213.616 126.002C193.762 126.002 195.489 146.232 195.489 146.232C195.489 146.232 194.022 146.16 191.973 145.992Z" fill="#455A64"/>
<path d="M204.905 125.021C204.846 125.052 204.782 125.075 204.717 125.09C204.59 125.135 204.402 125.18 204.169 125.262C203.499 125.476 202.843 125.732 202.205 126.029C200.094 127.001 198.225 128.431 196.73 130.215C195.236 132 194.154 134.095 193.563 136.349C193.382 137.028 193.244 137.717 193.149 138.413C193.111 138.661 193.097 138.854 193.077 138.984C193.071 139.052 193.059 139.118 193.042 139.184C193.034 139.118 193.034 139.05 193.042 138.984C193.042 138.85 193.042 138.64 193.083 138.406C193.151 137.699 193.273 136.997 193.447 136.308C194.008 134.019 195.086 131.89 196.596 130.085C198.106 128.279 200.009 126.846 202.157 125.895C202.803 125.605 203.47 125.364 204.152 125.173C204.391 125.104 204.583 125.066 204.71 125.035C204.775 125.023 204.84 125.019 204.905 125.021Z" fill="#FAFAFA"/>
<path d="M264.211 148.826L267.13 153.237L268.443 157.392C268.465 157.463 268.501 157.529 268.549 157.586C268.598 157.643 268.657 157.688 268.724 157.721C268.791 157.753 268.864 157.771 268.938 157.774C269.013 157.776 269.087 157.764 269.156 157.736C269.239 157.708 269.314 157.659 269.374 157.594C269.434 157.529 269.477 157.45 269.498 157.365C269.766 156.277 270.728 152.273 270.499 151.96C270.269 151.647 267.723 147.106 267.723 147.106L264.211 148.826Z" fill="#455A64"/>
<g opacity="0.6">
<path d="M269.156 157.732L270.293 151.657L270.413 151.846C270.517 152.01 270.56 152.205 270.533 152.397C270.461 152.909 270.228 154.323 269.505 157.35C269.485 157.438 269.442 157.519 269.382 157.585C269.323 157.652 269.247 157.702 269.163 157.732H269.156Z" fill="white"/>
</g>
<g opacity="0.6">
<path d="M268.467 150.794C268.441 150.869 268.442 150.951 268.47 151.026C268.497 151.101 268.549 151.163 268.618 151.204C268.692 151.236 268.775 151.239 268.851 151.211C268.927 151.184 268.989 151.128 269.026 151.056C269.057 150.976 269.058 150.887 269.027 150.807C268.997 150.727 268.937 150.661 268.861 150.622C268.781 150.596 268.693 150.603 268.618 150.641C268.542 150.679 268.484 150.745 268.457 150.825" fill="white"/>
</g>
<path d="M268.94 155.132C268.745 155.058 268.538 155.024 268.33 155.032C268.126 155.07 267.93 155.147 267.754 155.259C267.754 155.259 267.778 155.18 267.874 155.097C268.002 154.995 268.157 154.931 268.32 154.915C268.482 154.896 268.647 154.926 268.793 155.001C268.902 155.059 268.95 155.121 268.94 155.132Z" fill="#263238"/>
<path d="M269.002 155.934C268.828 155.94 268.655 155.96 268.484 155.992C268.323 156.054 268.166 156.127 268.015 156.212C267.987 156.195 268.142 155.964 268.453 155.868C268.543 155.834 268.64 155.822 268.736 155.833C268.831 155.845 268.922 155.879 269.002 155.934Z" fill="#263238"/>
<path d="M269.049 153.986C268.78 153.978 268.511 153.991 268.244 154.024C267.985 154.092 267.732 154.181 267.487 154.289C267.679 154.078 267.94 153.943 268.224 153.911C268.499 153.839 268.791 153.865 269.049 153.986Z" fill="#263238"/>
<path d="M268.272 152.572C268.272 152.606 267.963 152.658 267.638 152.851C267.312 153.043 267.103 153.281 267.076 153.26C267.18 153.037 267.358 152.857 267.579 152.751C267.781 152.61 268.027 152.546 268.272 152.572Z" fill="#263238"/>
<path d="M267.446 151.255C267.206 151.314 266.975 151.407 266.761 151.53C266.573 151.682 266.406 151.858 266.264 152.053C266.264 152.053 266.264 151.963 266.329 151.836C266.418 151.675 266.544 151.537 266.695 151.434C266.847 151.33 267.021 151.263 267.203 151.237C267.36 151.224 267.446 151.241 267.446 151.255Z" fill="#263238"/>
<path d="M266.627 151.275C266.581 151.227 266.543 151.171 266.517 151.11C266.432 150.945 266.382 150.765 266.37 150.58C266.35 150.447 266.372 150.311 266.435 150.191C266.46 150.154 266.495 150.125 266.537 150.108C266.579 150.092 266.625 150.088 266.668 150.099C266.751 150.126 266.822 150.182 266.867 150.257C266.952 150.414 266.979 150.596 266.945 150.771C266.91 150.946 266.816 151.104 266.678 151.217C266.54 151.325 266.373 151.39 266.198 151.402C266.023 151.415 265.848 151.376 265.695 151.289C265.657 151.268 265.623 151.238 265.598 151.203C265.572 151.167 265.555 151.126 265.548 151.082C265.543 151.037 265.552 150.992 265.575 150.953C265.598 150.914 265.633 150.883 265.674 150.866C265.799 150.82 265.934 150.808 266.065 150.831C266.248 150.852 266.425 150.904 266.589 150.986C266.651 151.012 266.706 151.049 266.754 151.096C266.535 151.003 266.304 150.942 266.069 150.914C265.953 150.898 265.835 150.911 265.726 150.952C265.703 150.961 265.683 150.977 265.67 150.998C265.657 151.019 265.652 151.044 265.654 151.069C265.662 151.097 265.675 151.123 265.694 151.145C265.712 151.168 265.734 151.186 265.76 151.199C265.894 151.27 266.046 151.301 266.197 151.288C266.348 151.276 266.493 151.22 266.613 151.127C266.726 151.029 266.804 150.897 266.835 150.75C266.866 150.604 266.848 150.451 266.785 150.315C266.756 150.261 266.708 150.22 266.651 150.198C266.627 150.192 266.602 150.193 266.578 150.202C266.555 150.21 266.535 150.226 266.521 150.247C266.463 150.351 266.441 150.472 266.459 150.591C266.478 150.826 266.535 151.057 266.627 151.275Z" fill="#263238"/>
<path d="M261.435 151.347L261.093 155.775C261.093 155.775 265.468 157.278 265.486 158.104L256.919 158.083L257.159 151.165L261.435 151.347Z" fill="#455A64"/>
<g opacity="0.6">
<path d="M258.464 155.296C258.381 155.317 258.308 155.368 258.26 155.44C258.213 155.512 258.194 155.6 258.207 155.685C258.227 155.769 258.278 155.843 258.349 155.891C258.42 155.939 258.506 155.959 258.591 155.947C258.68 155.923 258.756 155.868 258.806 155.791C258.856 155.714 258.876 155.621 258.862 155.53C258.835 155.443 258.775 155.37 258.695 155.328C258.614 155.285 258.52 155.276 258.434 155.303" fill="white"/>
</g>
<g opacity="0.6">
<path d="M256.93 158.084L256.954 157.396L265.236 157.705C265.323 157.752 265.397 157.819 265.452 157.901C265.507 157.983 265.541 158.078 265.551 158.176L256.93 158.084Z" fill="white"/>
</g>
<path d="M261.24 155.737C261.24 155.779 261.028 155.789 260.815 155.916C260.603 156.043 260.473 156.215 260.452 156.198C260.432 156.181 260.486 155.937 260.743 155.789C261 155.641 261.251 155.699 261.24 155.737Z" fill="#263238"/>
<path d="M262.124 156.146C262.124 156.188 261.949 156.25 261.799 156.422C261.648 156.594 261.603 156.766 261.559 156.766C261.514 156.766 261.5 156.525 261.692 156.315C261.884 156.105 262.124 156.105 262.124 156.146Z" fill="#263238"/>
<path d="M262.594 157.24C262.556 157.24 262.505 157.034 262.621 156.807C262.738 156.58 262.936 156.497 262.964 156.535C262.991 156.573 262.854 156.69 262.762 156.879C262.669 157.068 262.635 157.24 262.594 157.24Z" fill="#263238"/>
<path d="M261.206 154.718C261.185 154.756 260.997 154.691 260.761 154.698C260.524 154.705 260.336 154.77 260.315 154.736C260.294 154.701 260.476 154.553 260.757 154.55C261.038 154.546 261.227 154.687 261.206 154.718Z" fill="#263238"/>
<g opacity="0.3">
<path d="M261.367 152.224L261.309 153.012L257.097 152.806L257.121 152.094L261.367 152.224Z" fill="black"/>
</g>
<path d="M261.257 153.824C261.116 153.857 260.967 153.852 260.829 153.807C260.675 153.771 260.525 153.718 260.383 153.649C260.3 153.608 260.22 153.561 260.144 153.508C260.096 153.479 260.053 153.443 260.017 153.401C259.993 153.369 259.979 153.33 259.979 153.289C259.979 153.249 259.993 153.21 260.017 153.177C260.039 153.149 260.068 153.126 260.101 153.111C260.133 153.095 260.169 153.087 260.205 153.088C260.259 153.091 260.312 153.1 260.363 153.115C260.454 153.142 260.542 153.177 260.627 153.219C260.769 153.291 260.9 153.385 261.014 153.497C261.206 153.69 261.267 153.841 261.25 153.841C261.233 153.841 261.141 153.721 260.945 153.559C260.829 153.467 260.703 153.39 260.568 153.329C260.49 153.292 260.409 153.263 260.325 153.243C260.236 153.215 260.161 153.212 260.133 153.243C260.106 153.274 260.133 153.263 260.133 153.291C260.158 153.322 260.188 153.349 260.222 153.37C260.294 153.42 260.368 153.466 260.445 153.508C260.575 153.579 260.712 153.639 260.853 153.686C260.991 153.723 261.126 153.769 261.257 153.824Z" fill="#263238"/>
<path d="M261.199 153.883C261.123 153.757 261.089 153.61 261.103 153.463C261.103 153.208 261.17 152.957 261.298 152.737C261.322 152.68 261.361 152.63 261.412 152.593C261.462 152.556 261.521 152.533 261.583 152.527C261.621 152.531 261.657 152.545 261.687 152.567C261.718 152.589 261.742 152.62 261.758 152.655C261.775 152.707 261.788 152.761 261.795 152.816C261.81 152.946 261.798 153.077 261.762 153.202C261.725 153.328 261.665 153.444 261.583 153.546C261.405 153.759 261.24 153.804 261.24 153.79C261.24 153.776 261.377 153.694 261.514 153.484C261.591 153.362 261.642 153.227 261.665 153.085C261.677 153.001 261.677 152.917 261.665 152.834C261.665 152.741 261.627 152.668 261.59 152.675C261.552 152.682 261.473 152.737 261.435 152.809C261.39 152.883 261.351 152.96 261.319 153.04C261.266 153.177 261.232 153.32 261.22 153.466C261.185 153.718 261.223 153.876 261.199 153.883Z" fill="#263238"/>
<path d="M264.568 114.929C264.568 114.929 266.14 118.166 266.552 120.474C266.668 121.128 262.049 154.31 262.049 154.31L256.587 154.103L259.147 123.226L258.235 117.034L264.568 114.929Z" fill="#263238"/>
<path d="M251.3 116.934C251.262 119.175 251.376 121.416 251.642 123.642C252.047 126.896 252.972 130.601 253.273 132.672C253.938 137.254 255.247 138.121 255.247 138.121L265.726 151.581L269.838 147.87L260.586 133.033C260.586 133.033 258.125 116.569 258.211 117.013C258.297 117.456 251.3 116.934 251.3 116.934Z" fill="#263238"/>
<path d="M255.466 138.32C255.496 138.37 255.529 138.417 255.566 138.461L255.864 138.847L256.964 140.271C257.892 141.485 259.157 143.15 260.558 144.99C261.96 146.831 263.235 148.503 264.18 149.693C264.65 150.288 265.037 150.766 265.311 151.093L265.626 151.465C265.662 151.51 265.701 151.553 265.743 151.592C265.715 151.541 265.681 151.494 265.644 151.451L265.345 151.062L264.245 149.641L260.651 144.918C259.253 143.071 257.975 141.406 257.029 140.219C256.559 139.621 256.172 139.146 255.902 138.819L255.583 138.444C255.548 138.399 255.509 138.357 255.466 138.32Z" fill="#455A64"/>
<path d="M254.298 119.455C254.292 119.64 254.241 119.82 254.151 119.981C253.784 120.794 253.111 121.427 252.28 121.743C252.113 121.819 251.932 121.857 251.749 121.856C252.299 121.622 252.811 121.306 253.267 120.917C253.684 120.486 254.031 119.993 254.298 119.455Z" fill="#455A64"/>
<path d="M265.606 117.577C265.355 117.692 265.077 117.731 264.805 117.691C264.533 117.651 264.278 117.532 264.071 117.35C264.095 117.305 264.413 117.453 264.832 117.512C265.25 117.57 265.596 117.529 265.606 117.577Z" fill="#455A64"/>
<path d="M259.709 122.152C259.726 122.225 259.739 122.298 259.746 122.373C259.767 122.531 259.791 122.741 259.825 123.005C259.887 123.573 259.976 124.381 260.089 125.365C260.301 127.388 260.593 130.181 260.928 133.394V133.356L262.446 135.792L267.72 144.313C268.381 145.396 268.919 146.277 269.3 146.907L269.711 147.608C269.764 147.689 269.809 147.774 269.845 147.863C269.784 147.788 269.729 147.708 269.68 147.626L269.228 146.938L267.6 144.375C266.23 142.19 264.355 139.194 262.282 135.885L260.767 133.446V133.425C260.459 130.223 260.185 127.416 259.99 125.389L259.777 123.023C259.757 122.758 259.739 122.548 259.729 122.386C259.713 122.309 259.706 122.231 259.709 122.152Z" fill="#455A64"/>
<path d="M258.115 93.2359L261.384 94.2885L261.631 101.248C261.631 101.248 263.399 109.424 263.783 110.456C264.233 111.693 264.567 112.969 264.78 114.268C264.78 114.268 264.15 118.884 259.554 119.428C254.959 119.972 250.683 117.323 250.683 117.323C250.683 117.323 249.151 110.443 247.746 104.271C246.41 98.3993 247.496 94.8974 247.496 94.8974L252.53 93.0811L258.115 93.2359Z" fill="#455A64"/>
<path d="M260.544 97.1097L257.54 97.4746L257.633 98.2498L260.637 97.8849L260.544 97.1097Z" fill="#FAFAFA"/>
<path d="M261.268 88.7845C261.239 88.615 261.148 88.4624 261.013 88.3567C260.878 88.251 260.709 88.1999 260.538 88.2135C260.614 88.1555 260.675 88.0793 260.714 87.9917C260.754 87.9041 260.771 87.808 260.764 87.7122C260.756 87.6164 260.725 87.5238 260.673 87.4431C260.621 87.3624 260.55 87.2961 260.466 87.2503C260.626 87.005 260.69 86.7088 260.645 86.4189C260.6 86.1291 260.45 85.8663 260.223 85.6816L256.772 90.4598C257.037 90.6714 257.343 90.8268 257.67 90.9167C257.996 91.0066 258.338 91.029 258.674 90.9827C259.347 90.8833 259.994 90.6494 260.576 90.2947C260.736 90.2255 260.869 90.1044 260.953 89.9507C261.018 89.789 260.925 89.5551 260.747 89.5516C260.913 89.5122 261.059 89.4115 261.156 89.2696C261.252 89.1276 261.292 88.9546 261.268 88.7845Z" fill="#263238"/>
<path d="M252.698 86.1732C252.633 86.1576 252.566 86.1621 252.504 86.186C252.442 86.2099 252.389 86.2521 252.352 86.3071C252.315 86.362 252.295 86.427 252.296 86.4934C252.296 86.5598 252.317 86.6245 252.355 86.6789C252.252 86.6649 252.147 86.6792 252.052 86.7201C251.956 86.7611 251.874 86.8272 251.813 86.9115C251.751 86.9957 251.714 87.095 251.705 87.1988C251.695 87.3026 251.714 87.407 251.759 87.501C251.516 87.4873 251.275 87.5537 251.073 87.6902C250.971 87.7601 250.891 87.8577 250.843 87.9717C250.794 88.0857 250.779 88.2112 250.799 88.3335C250.828 88.4514 250.901 88.5533 251.004 88.6176C251.106 88.6819 251.229 88.7034 251.347 88.6775C251.287 88.7835 251.258 88.9046 251.265 89.0265C251.271 89.1484 251.311 89.2661 251.382 89.3655C251.419 89.4117 251.466 89.4492 251.519 89.4755C251.572 89.5018 251.63 89.5163 251.69 89.5179C251.749 89.5195 251.808 89.5083 251.862 89.485C251.917 89.4616 251.966 89.4267 252.005 89.3827C251.94 89.4719 251.906 89.5806 251.909 89.6915C251.912 89.8024 251.952 89.9089 252.023 89.9942C252.094 90.0794 252.191 90.1384 252.299 90.1616C252.407 90.1848 252.519 90.171 252.619 90.1223C252.592 90.2328 252.6 90.3489 252.643 90.4543C252.686 90.5597 252.76 90.6488 252.856 90.709C252.952 90.7693 253.065 90.7975 253.178 90.7898C253.291 90.782 253.399 90.7386 253.486 90.6658L252.698 86.1732Z" fill="#263238"/>
<path d="M252.91 85.2584L252.759 93.7173C252.748 94.3841 252.99 95.0303 253.435 95.5252C253.88 96.02 254.496 96.3268 255.158 96.3833C255.515 96.415 255.875 96.3727 256.215 96.2592C256.555 96.1458 256.868 95.9635 257.136 95.7236C257.403 95.4837 257.618 95.1914 257.768 94.8646C257.918 94.5379 258 94.1837 258.009 93.824C258.009 93.019 258.036 92.3585 258.036 92.3585C258.036 92.3585 260.092 92.2209 260.294 90.1913C260.414 89.0149 260.445 86.3317 260.452 84.2711C260.455 83.6 260.206 82.9525 259.755 82.4568C259.305 81.9611 258.685 81.6534 258.019 81.5948L256.796 81.4881C256.292 81.4725 255.791 81.5584 255.321 81.7407C254.851 81.9229 254.422 82.198 254.06 82.5494C253.697 82.9009 253.409 83.3217 253.212 83.787C253.014 84.2523 252.912 84.7526 252.91 85.2584Z" fill="#FFBE9D"/>
<path d="M258.029 92.3582C257.092 92.2689 256.2 91.9106 255.459 91.3262C255.459 91.3262 255.98 92.8638 258.019 92.8604L258.029 92.3582Z" fill="#EB996E"/>
<path d="M259.88 86.3389C259.842 86.3733 259.636 86.191 259.325 86.1635C259.013 86.1359 258.773 86.2735 258.742 86.2323C258.711 86.191 258.77 86.1463 258.876 86.0843C259.018 86.0015 259.182 85.9654 259.345 85.9811C259.508 85.9958 259.661 86.0621 259.784 86.1703C259.873 86.2495 259.9 86.3217 259.88 86.3389Z" fill="#263238"/>
<path d="M256.587 86.4724C256.581 86.5482 256.546 86.6185 256.489 86.6686C256.432 86.7187 256.358 86.7446 256.282 86.7407C256.245 86.7407 256.208 86.7333 256.174 86.7189C256.14 86.7045 256.109 86.6833 256.083 86.6567C256.057 86.6301 256.037 86.5986 256.024 86.564C256.01 86.5294 256.004 86.4924 256.004 86.4552C256.011 86.3795 256.046 86.3091 256.103 86.259C256.16 86.2089 256.234 86.1831 256.309 86.1869C256.346 86.1869 256.383 86.1943 256.417 86.2087C256.451 86.2232 256.482 86.2443 256.508 86.2709C256.534 86.2975 256.554 86.3291 256.568 86.3637C256.581 86.3983 256.588 86.4352 256.587 86.4724Z" fill="#263238"/>
<path d="M259.602 86.7475C259.596 86.8233 259.561 86.8936 259.504 86.9437C259.447 86.9938 259.373 87.0197 259.297 87.0158C259.26 87.0149 259.224 87.0068 259.19 86.9918C259.156 86.9768 259.126 86.9552 259.1 86.9284C259.075 86.9015 259.055 86.8699 259.042 86.8354C259.028 86.8008 259.022 86.7639 259.023 86.7269C259.028 86.6508 259.063 86.5799 259.12 86.5297C259.178 86.4794 259.252 86.4538 259.328 86.4586C259.365 86.4585 259.402 86.4661 259.436 86.4807C259.47 86.4954 259.501 86.5169 259.527 86.544C259.553 86.571 259.572 86.603 259.585 86.638C259.598 86.673 259.604 86.7102 259.602 86.7475Z" fill="#263238"/>
<path d="M256.85 86.0704C256.813 86.1048 256.607 85.9225 256.295 85.8949C255.984 85.8674 255.74 86.005 255.709 85.9637C255.679 85.9225 255.737 85.8777 255.843 85.8158C255.985 85.7336 256.149 85.6974 256.312 85.7122C256.475 85.727 256.63 85.792 256.755 85.8984C256.844 85.9809 256.871 86.0532 256.85 86.0704Z" fill="#263238"/>
<path d="M257.776 88.4889C257.948 88.4515 258.124 88.4353 258.3 88.4408C258.382 88.4408 258.458 88.4408 258.475 88.3789C258.49 88.2973 258.479 88.2131 258.444 88.1381C258.386 87.9351 258.324 87.7287 258.262 87.5085C258.089 86.9744 257.959 86.4267 257.875 85.8711C258.089 86.3898 258.262 86.9247 258.393 87.4707C258.451 87.6943 258.509 87.9041 258.564 88.1037C258.6 88.206 258.6 88.3178 258.564 88.4201C258.55 88.4472 258.53 88.4709 258.506 88.4893C258.481 88.5078 258.453 88.5206 258.424 88.5268C258.378 88.5316 258.332 88.5316 258.286 88.5268C258.115 88.5356 257.944 88.5229 257.776 88.4889Z" fill="#263238"/>
<path d="M256.841 88.6232C256.892 88.6232 256.865 88.9672 257.132 89.232C257.399 89.4969 257.762 89.4935 257.762 89.5382C257.762 89.5829 257.673 89.6001 257.522 89.5898C257.324 89.5741 257.137 89.4889 256.995 89.349C256.858 89.2161 256.778 89.0346 256.772 88.8433C256.772 88.6988 256.82 88.6197 256.841 88.6232Z" fill="#263238"/>
<path d="M257.022 85.059C256.981 85.1416 256.679 85.059 256.306 85.0865C255.932 85.1141 255.62 85.1725 255.59 85.0865C255.559 85.0005 255.631 84.973 255.758 84.9008C255.925 84.8125 256.11 84.7654 256.299 84.7632C256.488 84.7578 256.676 84.7967 256.847 84.8767C256.974 84.9489 257.036 85.0212 257.022 85.059Z" fill="#263238"/>
<path d="M259.917 85.4375C259.856 85.5063 259.647 85.4135 259.39 85.3859C259.133 85.3584 258.91 85.3859 258.865 85.3137C258.821 85.2415 258.886 85.2071 258.989 85.1486C259.124 85.0794 259.276 85.052 259.427 85.0697C259.578 85.0875 259.72 85.1496 259.835 85.2483C259.921 85.3447 259.945 85.4066 259.917 85.4375Z" fill="#263238"/>
<path d="M253.458 86.8439C253.424 86.8267 252.088 86.3072 252.023 87.7039C251.958 89.1005 253.356 88.8907 253.363 88.8494C253.369 88.8081 253.458 86.8439 253.458 86.8439Z" fill="#FFBE9D"/>
<path d="M252.968 88.2955C252.968 88.2955 252.941 88.3127 252.9 88.3299C252.841 88.3521 252.777 88.3521 252.718 88.3299C252.632 88.2678 252.564 88.1838 252.52 88.0865C252.477 87.9892 252.46 87.882 252.471 87.7761C252.476 87.6567 252.505 87.5395 252.557 87.4321C252.574 87.3898 252.601 87.352 252.635 87.3216C252.668 87.2912 252.709 87.269 252.752 87.2566C252.781 87.2507 252.81 87.2551 252.835 87.2689C252.86 87.2828 252.879 87.3053 252.89 87.3323C252.89 87.3736 252.89 87.4011 252.89 87.4011C252.89 87.4011 252.92 87.3805 252.914 87.322C252.907 87.287 252.889 87.2554 252.862 87.2325C252.826 87.2011 252.779 87.185 252.732 87.1878C252.674 87.1964 252.62 87.2195 252.574 87.255C252.528 87.2905 252.491 87.3373 252.468 87.3908C252.401 87.5083 252.365 87.6408 252.362 87.7761C252.348 87.8998 252.371 88.0249 252.428 88.1356C252.484 88.2464 252.572 88.3379 252.68 88.3987C252.717 88.4109 252.756 88.415 252.794 88.4109C252.833 88.4067 252.87 88.3944 252.903 88.3746C252.961 88.3299 252.972 88.2989 252.968 88.2955Z" fill="#EB996E"/>
<path d="M252.69 86.7206C252.823 86.7232 252.953 86.762 253.065 86.8329C253.177 86.9039 253.268 87.0042 253.328 87.1231C253.4 87.3295 253.4 87.5565 253.472 87.7629C253.544 87.9693 253.732 88.1688 253.948 88.1344C254.022 88.119 254.09 88.0841 254.146 88.0333C254.202 87.9825 254.244 87.9177 254.267 87.8455C254.31 87.6994 254.324 87.5463 254.308 87.3948C254.284 86.7378 254.205 86.0807 254.236 85.4271C254.243 84.7648 254.443 84.1191 254.812 83.5695C255.001 83.2977 255.261 83.0825 255.562 82.9469C255.864 82.8112 256.197 82.7601 256.525 82.799C256.953 82.8712 257.327 83.143 257.748 83.2324C258 83.2883 258.261 83.2864 258.512 83.2268C258.763 83.1673 258.997 83.0516 259.198 82.8884C259.249 82.8471 259.479 82.7233 259.479 82.7233C259.484 82.568 259.446 82.4142 259.369 82.2795C258.591 81.4161 257.08 81.0583 255.942 81.2475C255.36 81.3375 254.805 81.5537 254.314 81.881C253.823 82.2083 253.41 82.639 253.102 83.143C252.526 84.1578 252.54 85.637 252.711 86.7275" fill="#263238"/>
<path d="M260.699 83.9232C260.576 84.1194 260.404 84.2798 260.2 84.3885C259.996 84.4971 259.768 84.5502 259.537 84.5424C259.076 84.5212 258.622 84.4126 258.201 84.2225C257.533 83.9919 256.844 83.8272 256.145 83.7306C256.076 83.7306 255.994 83.7306 255.963 83.6583C255.932 83.5861 256.008 83.4898 256.083 83.4382C256.731 83.0185 258.214 82.8568 258.985 82.8912C259.372 82.8994 259.75 83.0067 260.083 83.203C260.417 83.3993 260.695 83.678 260.891 84.0126" fill="#263238"/>
<path d="M260.497 83.9684C260.095 83.4606 259.513 83.1299 258.872 83.0464C257.643 82.9428 256.409 83.1815 255.307 83.7362C254.204 84.2909 253.275 85.1402 252.622 86.1906C252.498 85.5979 252.436 84.9937 252.437 84.388C252.471 83.9718 252.937 81.5294 255.521 80.979C255.531 80.9721 259.465 79.8404 260.497 83.9684Z" fill="#455A64"/>
<path d="M252.893 85.6642C253.805 84.5285 254.952 83.6058 256.255 82.9603C257.783 82.2606 259.396 81.7622 261.052 81.4777C261.477 81.3769 261.919 81.3687 262.347 81.4536C262.56 81.5005 262.756 81.6067 262.912 81.76C263.067 81.9133 263.177 82.1076 263.228 82.3205C263.314 82.8571 262.31 83.5898 261.857 83.8685C261.403 84.1177 260.935 84.3417 260.456 84.5393C260.456 84.5393 260.555 83.5658 259.013 83.2252C256.906 82.7608 252.893 85.6642 252.893 85.6642Z" fill="#455A64"/>
<path d="M262.618 81.5227C262.472 81.4917 262.324 81.4687 262.176 81.4539C261.766 81.4384 261.356 81.4661 260.952 81.5364C259.615 81.7628 258.306 82.1354 257.049 82.6476C255.784 83.1362 254.621 83.8597 253.623 84.7804C253.325 85.0611 253.062 85.3777 252.841 85.7229C252.691 85.9706 252.632 86.122 252.619 86.1151C252.605 86.1082 252.619 86.0738 252.646 86.0016C252.684 85.8938 252.729 85.7891 252.783 85.6885C252.984 85.3206 253.238 84.9845 253.537 84.6909C254.524 83.7262 255.697 82.9746 256.984 82.4824C258.252 81.9628 259.579 81.6023 260.935 81.4091C261.348 81.3508 261.767 81.3427 262.182 81.3851C262.3 81.394 262.416 81.4219 262.525 81.4676C262.587 81.4986 262.621 81.5158 262.618 81.5227Z" fill="#263238"/>
<path d="M257.615 82.0624C258.118 81.8477 258.653 81.7164 259.198 81.6737C259.079 81.5616 258.947 81.4646 258.804 81.3848C258.38 81.4183 257.963 81.5193 257.57 81.684L257.615 82.0624Z" fill="#FAFAFA"/>
<path d="M260.73 84.6565C260.793 84.5675 260.832 84.4629 260.842 84.3537C260.852 84.2445 260.833 84.1346 260.787 84.0354C260.74 83.9362 260.668 83.8512 260.578 83.7892C260.488 83.7273 260.383 83.6906 260.274 83.683C260.346 83.6541 260.411 83.6105 260.465 83.555C260.52 83.4996 260.562 83.4334 260.59 83.3607C260.617 83.288 260.63 83.2104 260.626 83.1326C260.623 83.0549 260.603 82.9788 260.568 82.909C260.488 82.7738 260.364 82.6694 260.218 82.6121C260.072 82.5548 259.91 82.5479 259.76 82.5925C259.611 82.6421 259.475 82.7266 259.365 82.8391C259.255 82.9515 259.173 83.0887 259.126 83.2393C259.062 83.1442 258.975 83.0671 258.873 83.0154C258.771 82.9637 258.658 82.9391 258.544 82.944C258.43 82.9488 258.319 82.9829 258.221 83.043C258.124 83.1032 258.044 83.1873 257.988 83.2874C257.958 83.2013 257.896 83.1301 257.815 83.0879C257.734 83.0458 257.641 83.036 257.553 83.0604C257.379 83.1179 257.22 83.213 257.087 83.339C256.953 83.4664 256.781 83.5451 256.597 83.5626L256.477 83.6142C256.575 83.7725 256.728 83.8893 256.906 83.9425C257.084 83.9957 257.275 83.9817 257.443 83.9032C257.442 84.0204 257.478 84.135 257.547 84.2295C257.617 84.3241 257.714 84.3935 257.826 84.4273C257.938 84.4611 258.058 84.4574 258.167 84.4169C258.277 84.3763 258.37 84.301 258.434 84.2025C258.455 84.2892 258.498 84.3693 258.557 84.4354C258.617 84.5015 258.693 84.5515 258.777 84.5809C258.861 84.6102 258.951 84.6181 259.039 84.6037C259.127 84.5892 259.21 84.553 259.28 84.4983C259.318 84.5988 259.38 84.6889 259.459 84.7613C259.538 84.8337 259.634 84.8864 259.737 84.9152C259.84 84.944 259.949 84.948 260.054 84.927C260.159 84.906 260.258 84.8605 260.342 84.7941C260.43 84.9335 260.487 85.0899 260.509 85.2531C260.531 85.4162 260.519 85.5822 260.473 85.7401C260.586 85.7149 260.689 85.6584 260.772 85.5768C260.854 85.4953 260.912 85.3921 260.939 85.2791C260.966 85.166 260.96 85.0477 260.923 84.9376C260.886 84.8275 260.819 84.7301 260.73 84.6565Z" fill="#263238"/>
<path d="M254.935 84.3125C254.457 84.5252 253.998 84.7796 253.565 85.0727C253.129 85.3716 252.78 85.7811 252.554 86.2595L253.239 86.9166C253.428 86.9785 253.582 87.0439 253.726 86.9166C253.8 86.8518 253.857 86.7694 253.892 86.6769C253.926 86.5845 253.938 86.4847 253.924 86.3868C254.015 86.4063 254.11 86.4004 254.198 86.3696C254.285 86.3389 254.363 86.2845 254.422 86.2124C254.481 86.1403 254.519 86.0533 254.533 85.9609C254.546 85.8685 254.533 85.7743 254.497 85.6885C254.565 85.6724 254.627 85.6384 254.678 85.59C254.728 85.5416 254.765 85.4807 254.784 85.4133C254.802 85.3459 254.802 85.2751 254.785 85.2076C254.768 85.1401 254.733 85.0783 254.685 85.028C254.763 85.0235 254.837 84.9963 254.899 84.9498C254.961 84.9033 255.009 84.8396 255.035 84.7665C255.062 84.6934 255.067 84.614 255.049 84.5382C255.031 84.4625 254.992 84.3936 254.935 84.34V84.3125Z" fill="#263238"/>
<path d="M261.384 94.2881C261.384 94.2881 263.409 95.5093 264.019 96.5963C264.629 97.6834 267.871 105.616 267.737 106.916C267.604 108.217 264.561 109.018 264.561 109.018L261.384 104.89L262.837 104.02L261.384 101.209V94.2881Z" fill="#455A64"/>
<path d="M264.567 109.008C264.567 109.008 257.207 110.487 254.534 107.288L255.309 104.588C255.309 104.588 260.171 105.744 261.692 105.248L264.567 109.008Z" fill="#FFBE9D"/>
<path d="M265.328 102.444C265.356 102.499 264.465 102.874 263.536 103.586C262.608 104.298 262.022 105.069 261.974 105.031C262.057 104.839 262.173 104.662 262.316 104.508C262.64 104.114 263.006 103.757 263.409 103.445C263.815 103.136 264.253 102.872 264.715 102.658C264.906 102.552 265.113 102.48 265.328 102.444Z" fill="#263238"/>
<path d="M262.967 103.92C262.705 103.504 262.483 103.062 262.306 102.603C262.071 102.171 261.869 101.721 261.703 101.258C262.026 101.635 262.284 102.064 262.467 102.527C262.698 102.966 262.866 103.435 262.967 103.92Z" fill="#263238"/>
<path d="M261.631 100.58C261.611 100.192 261.551 99.8068 261.452 99.4311C261.39 99.0461 261.29 98.6681 261.154 98.3027C261.237 99.0759 261.396 99.8388 261.631 100.58Z" fill="#263238"/>
<path d="M248.418 95.3207C248.558 95.4687 250.58 96.8137 251.255 99.1047C251.93 101.396 252.674 103.787 252.674 103.787L255.309 104.131L253.821 110.233C252.815 110.077 251.854 109.706 251.003 109.145C250.152 108.583 249.432 107.845 248.89 106.979C247.714 104.922 246.763 102.743 246.053 100.481C246.053 100.481 246.276 93.071 248.418 95.3207Z" fill="#455A64"/>
<path d="M254.404 104.01C254.404 104.01 253.287 101.499 253.136 101.465C252.985 101.43 250.83 100.67 250.83 100.67C250.764 100.846 250.764 101.041 250.83 101.217L250.052 101.317C250.052 101.317 250.169 101.795 250.433 101.86L250.152 102.111C250.293 102.298 250.473 102.45 250.679 102.558C250.759 102.598 250.846 102.618 250.935 102.618C251.023 102.618 251.111 102.598 251.19 102.558C251.19 102.558 251.094 102.737 251.533 103.019C251.971 103.302 252.735 103.707 252.735 103.707L254.404 104.01Z" fill="#FFBE9D"/>
<path d="M252.739 103.721C252.739 103.721 251.975 103.301 251.536 103.033C251.156 102.792 251.166 102.627 251.193 102.579C251.115 102.614 251.029 102.633 250.943 102.633C250.857 102.633 250.772 102.614 250.693 102.579C250.486 102.468 250.305 102.315 250.162 102.128L250.419 101.856C250.162 101.781 250.049 101.33 250.045 101.309L250.82 101.21C250.758 101.034 250.758 100.842 250.82 100.666C250.84 100.666 252.982 101.43 253.129 101.461C253.277 101.492 254.353 103.906 254.401 104.01L252.739 103.721ZM250.834 101.213L250.056 101.313C250.056 101.368 250.189 101.787 250.433 101.849L250.148 102.1C250.286 102.285 250.464 102.436 250.669 102.541C250.748 102.579 250.835 102.6 250.923 102.6C251.011 102.6 251.097 102.579 251.176 102.541V102.561C251.176 102.561 251.087 102.74 251.519 103.016C251.951 103.291 252.694 103.704 252.722 103.704L254.377 103.996C253.986 103.126 253.229 101.488 253.116 101.464C253.003 101.44 250.93 100.711 250.813 100.669C250.752 100.847 250.759 101.041 250.834 101.213Z" fill="#EB996E"/>
<path d="M250.898 101.224C251.354 101.445 251.826 101.631 252.31 101.777C252.509 101.85 252.704 101.901 252.858 101.977C252.996 102.043 253.109 102.151 253.181 102.287C253.311 102.521 253.359 102.689 253.379 102.682C253.371 102.529 253.329 102.38 253.256 102.245C253.184 102.09 253.064 101.962 252.913 101.881C252.731 101.798 252.543 101.727 252.351 101.667C251.878 101.484 251.393 101.336 250.898 101.224Z" fill="#EB996E"/>
<path d="M250.395 101.856C250.515 101.928 250.648 101.976 250.786 101.997C251.032 102.066 251.382 102.121 251.752 102.221C252.067 102.3 252.364 102.44 252.626 102.634C252.825 102.789 252.91 102.923 252.927 102.913C252.879 102.777 252.794 102.657 252.681 102.569C252.422 102.345 252.114 102.186 251.783 102.104C251.402 102.001 251.05 101.96 250.803 101.915C250.669 101.88 250.533 101.861 250.395 101.856Z" fill="#EB996E"/>
<path d="M252.372 103.006C252.245 102.834 252.062 102.712 251.855 102.662C251.659 102.573 251.44 102.553 251.231 102.603C251.231 102.641 251.505 102.658 251.817 102.772C252.129 102.885 252.351 103.033 252.372 103.006Z" fill="#EB996E"/>
<path d="M255.082 104.78L261.727 101.416L262.943 103.903C262.943 103.903 256.82 109.995 253.952 109.916" fill="#FFBE9D"/>
<path d="M251.046 97.7285C251.056 97.8966 251.086 98.063 251.135 98.2239C251.207 98.5232 251.31 98.936 251.433 99.39C251.556 99.8441 251.673 100.257 251.776 100.553C251.814 100.715 251.871 100.872 251.947 101.021C251.935 100.854 251.905 100.689 251.858 100.529C251.786 100.229 251.683 99.8166 251.56 99.3591C251.437 98.9016 251.32 98.4956 251.217 98.2032C251.179 98.0389 251.121 97.8796 251.046 97.7285Z" fill="#263238"/>
<path d="M251.334 106.008C251.354 106.008 251.412 105.702 251.567 105.224C251.654 104.946 251.789 104.686 251.964 104.453C252.175 104.178 252.478 103.988 252.817 103.92C253.172 103.904 253.527 103.945 253.869 104.041L254.74 104.216C254.849 104.231 254.956 104.258 255.058 104.299C255.131 104.331 255.189 104.39 255.219 104.464C255.233 104.495 255.24 104.529 255.24 104.564C255.24 104.598 255.233 104.632 255.219 104.663C255.219 104.663 255.312 104.608 255.274 104.45C255.261 104.405 255.239 104.363 255.209 104.327C255.178 104.291 255.141 104.261 255.099 104.24C254.99 104.19 254.875 104.154 254.757 104.134L253.89 103.934C253.536 103.828 253.166 103.784 252.797 103.803C252.424 103.877 252.092 104.09 251.868 104.398C251.69 104.643 251.557 104.918 251.477 105.21C251.421 105.405 251.377 105.602 251.344 105.802C251.33 105.87 251.327 105.939 251.334 106.008Z" fill="#263238"/>
<path d="M250.419 104.667C250.6 104.344 250.844 104.061 251.135 103.834C251.457 103.641 251.803 103.491 252.163 103.387C252.048 103.369 251.931 103.378 251.82 103.415C251.553 103.47 251.3 103.581 251.077 103.738C250.851 103.896 250.664 104.104 250.532 104.347C250.467 104.442 250.428 104.552 250.419 104.667Z" fill="#263238"/>
<path d="M246.053 100.48C246.053 100.48 246.053 100.525 246.087 100.611C246.122 100.697 246.159 100.828 246.211 100.976C246.324 101.32 246.478 101.76 246.67 102.314C246.862 102.868 247.095 103.556 247.424 104.278C247.753 105.001 248.14 105.778 248.61 106.566C249.048 107.312 249.607 107.979 250.265 108.54C250.8 108.999 251.401 109.376 252.046 109.658C252.484 109.847 252.945 109.976 253.417 110.04C253.544 110.059 253.672 110.072 253.801 110.078C253.89 110.078 253.935 110.078 253.935 110.078C253.935 110.078 253.753 110.057 253.424 109.999C252.963 109.916 252.514 109.776 252.088 109.583C250.678 108.929 249.502 107.857 248.719 106.511C248.253 105.73 247.876 104.942 247.53 104.237C247.184 103.532 246.961 102.861 246.752 102.29C246.543 101.719 246.382 101.275 246.259 100.962L246.115 100.618C246.099 100.57 246.079 100.524 246.053 100.48Z" fill="#263238"/>
<path d="M247.958 95.4648C247.958 95.4992 248.466 95.685 249.045 96.0324C249.624 96.3799 250.038 96.7411 250.073 96.7204C249.512 96.1014 248.779 95.6663 247.969 95.4717L247.958 95.4648Z" fill="#263238"/>
<path d="M252.999 111.674C253.108 111.741 253.223 111.798 253.342 111.846C253.455 111.901 253.592 111.963 253.753 112.025C253.914 112.087 254.096 112.169 254.308 112.235C254.793 112.408 255.287 112.552 255.788 112.668C256.404 112.804 257.028 112.903 257.656 112.964C258.285 113.016 258.917 113.027 259.547 112.998C260.062 112.974 260.574 112.92 261.083 112.837C261.298 112.806 261.494 112.761 261.662 112.726C261.83 112.692 261.98 112.654 262.097 112.623C262.221 112.595 262.344 112.559 262.463 112.513C262.336 112.526 262.211 112.548 262.087 112.579C261.97 112.603 261.823 112.634 261.651 112.661C261.48 112.689 261.285 112.73 261.069 112.754C260.562 112.827 260.052 112.873 259.541 112.892C258.915 112.912 258.289 112.896 257.666 112.843C257.043 112.785 256.424 112.691 255.812 112.561C255.313 112.452 254.82 112.316 254.335 112.155C254.123 112.094 253.941 112.021 253.777 111.963C253.612 111.904 253.475 111.849 253.362 111.805C253.244 111.753 253.123 111.709 252.999 111.674Z" fill="#263238"/>
<path d="M258.396 115.138C258.857 115.079 259.309 114.963 259.743 114.794C260.188 114.666 260.616 114.484 261.017 114.251C261.017 114.22 260.428 114.44 259.705 114.681C258.982 114.922 258.389 115.108 258.396 115.138Z" fill="#263238"/>
<g opacity="0.3">
<path d="M263.468 109.19C261.949 109.491 260.389 109.515 258.862 109.259C258.308 109.09 257.728 109.02 257.149 109.052C256.69 109.164 256.247 109.333 255.83 109.555C255.041 109.88 254.185 110.004 253.337 109.916C252.489 109.828 251.676 109.53 250.971 109.049C251.219 109.524 251.576 109.933 252.014 110.242C252.451 110.55 252.956 110.748 253.486 110.821C254.546 110.956 255.622 110.859 256.642 110.539C257.249 110.34 257.877 110.213 258.513 110.16C259.321 110.14 260.113 110.404 260.911 110.418C261.848 110.445 262.768 110.166 263.533 109.624L263.468 109.19Z" fill="black"/>
</g>
<g opacity="0.3">
<path d="M260.836 114.488C260.495 115.062 260.025 115.548 259.463 115.907C258.901 116.265 258.263 116.486 257.601 116.552C257.315 116.588 257.024 116.565 256.748 116.483C256.609 116.443 256.48 116.374 256.37 116.281C256.259 116.188 256.168 116.073 256.104 115.943C256.411 115.746 256.751 115.605 257.108 115.527L260.798 114.512" fill="black"/>
</g>
<path d="M262.844 104.003C262.754 104.114 262.654 104.216 262.546 104.309C262.347 104.502 262.059 104.777 261.72 105.128C261.381 105.479 260.976 105.912 260.483 106.342C259.989 106.772 259.427 107.216 258.835 107.677C258.277 108.115 257.692 108.517 257.084 108.881C256.585 109.179 256.057 109.425 255.507 109.614C255.137 109.74 254.756 109.833 254.37 109.892C254.23 109.917 254.087 109.925 253.945 109.916C254.46 109.807 254.968 109.667 255.466 109.497C256 109.293 256.514 109.039 257.001 108.74C257.595 108.371 258.167 107.969 258.715 107.536C259.308 107.075 259.873 106.638 260.363 106.218C260.853 105.799 261.264 105.382 261.621 105.038C261.977 104.694 262.278 104.433 262.491 104.257C262.598 104.158 262.716 104.073 262.844 104.003Z" fill="#EB996E"/>
</g>
<defs>
<clipPath id="clip0_244_2172">
<rect width="312" height="165" fill="white"/>
</clipPath>
</defs>
</svg>
