<svg width="174" height="165" viewBox="0 0 174 165" fill="none" xmlns="http://www.w3.org/2000/svg">
<g id="Travel Insurance Rafiki" clip-path="url(#clip0_353_5969)">
<g id="freepik--background-complete--inject-85">
<path id="Vector" d="M154.096 106.627H91.5567C91.0193 106.626 90.5041 106.412 90.124 106.032C89.744 105.652 89.5301 105.137 89.5292 104.599V13.508C89.5301 12.9706 89.744 12.4554 90.124 12.0753C90.5041 11.6953 91.0193 11.4814 91.5567 11.4805H154.096C154.634 11.4814 155.149 11.6953 155.529 12.0753C155.909 12.4554 156.123 12.9706 156.124 13.508V104.599C156.123 105.137 155.909 105.652 155.529 106.032C155.149 106.412 154.634 106.626 154.096 106.627ZM91.5567 11.567C91.0419 11.567 90.5482 11.7715 90.1842 12.1355C89.8202 12.4995 89.6157 12.9932 89.6157 13.508V104.599C89.6157 104.854 89.6659 105.107 89.7634 105.342C89.861 105.578 90.004 105.792 90.1842 105.972C90.3644 106.152 90.5784 106.295 90.8139 106.393C91.0494 106.49 91.3018 106.541 91.5567 106.541H154.096C154.351 106.541 154.604 106.49 154.839 106.393C155.075 106.295 155.289 106.152 155.469 105.972C155.649 105.792 155.792 105.578 155.89 105.342C155.987 105.107 156.037 104.854 156.037 104.599V13.508C156.037 12.9932 155.833 12.4995 155.469 12.1355C155.105 11.7715 154.611 11.567 154.096 11.567H91.5567Z" fill="#E0E0E0"/>
<path id="Vector_2" d="M81.9795 106.627H19.4435C18.9054 106.627 18.3894 106.413 18.0086 106.033C17.6278 105.653 17.4134 105.138 17.4125 104.599V13.508C17.4134 12.97 17.6278 12.4543 18.0086 12.0741C18.3894 11.694 18.9054 11.4805 19.4435 11.4805H81.9795C82.5173 11.4805 83.033 11.6941 83.4132 12.0743C83.7935 12.4546 84.0071 12.9703 84.0071 13.508V104.599C84.0071 105.137 83.7935 105.653 83.4132 106.033C83.033 106.413 82.5173 106.627 81.9795 106.627ZM19.4435 11.567C18.9284 11.567 18.4343 11.7714 18.0697 12.1353C17.7052 12.4992 17.4999 12.9929 17.499 13.508V104.599C17.5035 105.112 17.7104 105.602 18.0746 105.963C18.4388 106.324 18.9308 106.527 19.4435 106.527H81.9795C82.2345 106.527 82.4869 106.476 82.7224 106.379C82.9579 106.281 83.1718 106.138 83.3521 105.958C83.5323 105.778 83.6753 105.564 83.7729 105.328C83.8704 105.093 83.9206 104.841 83.9206 104.586V13.508C83.9206 13.2531 83.8704 13.0007 83.7729 12.7652C83.6753 12.5297 83.5323 12.3157 83.3521 12.1355C83.1718 11.9552 82.9579 11.8123 82.7224 11.7147C82.4869 11.6172 82.2345 11.567 81.9795 11.567H19.4435Z" fill="#E0E0E0"/>
<path id="Vector_3" d="M173.5 127.757H0.5V127.843H173.5V127.757Z" fill="#E0E0E0"/>
<path id="Vector_4" d="M77.011 131.476H58.4896V131.562H77.011V131.476Z" fill="#E0E0E0"/>
<path id="Vector_5" d="M35.8716 135.628H23.3291V135.714H35.8716V135.628Z" fill="#E0E0E0"/>
<path id="Vector_6" d="M145.398 131.432H130.454V131.518H145.398V131.432Z" fill="#E0E0E0"/>
<path id="Vector_7" d="M150.671 131.432H148.481V131.518H150.671V131.432Z" fill="#E0E0E0"/>
<path id="Vector_8" d="M127.6 133.587H108.954V133.673H127.6V133.587Z" fill="#E0E0E0"/>
<path id="Vector_9" d="M24.2079 132.314H18.6511V132.401H24.2079V132.314Z" fill="#E0E0E0"/>
<path id="Vector_10" d="M45.1513 43.4193L29.8754 37.5996L14.5995 43.4193C14.3089 44.0006 14.5995 68.5874 29.8754 74.1165C45.1513 68.5874 45.4419 44.0006 45.1513 43.4193Z" fill="#E0E0E0"/>
<path id="Vector_11" d="M42.5458 45.5393L29.8753 40.6953L17.2048 45.5393C16.9626 46.0203 17.2048 66.417 29.8753 71.0049C42.5458 66.417 42.788 46.0203 42.5458 45.5393Z" fill="#F0F0F0"/>
<path id="Vector_12" d="M30.0622 60.6286L24.0764 55.9749L25.7026 53.8851L29.7162 57.006L35.4564 50.4424L37.4493 52.1828L30.0622 60.6286Z" fill="white"/>
<path id="Vector_13" d="M17.0907 152.651H28.6852L30.9584 127.621H14.8175L17.0907 152.651Z" fill="#E0E0E0"/>
<path id="Vector_14" d="M22.7167 131.783C23.0385 121.341 20.4746 99.7953 16.3053 91.4187L16.5925 91.2803C20.914 99.9995 23.336 121.438 23.0488 131.783H22.7167Z" fill="#E0E0E0"/>
<path id="Vector_15" d="M26.4258 98.3086C22.5056 101.381 21.4434 111.408 21.4434 111.408C24.2217 106.817 28.526 104.637 26.4258 98.3086Z" fill="#E0E0E0"/>
<path id="Vector_16" d="M21.3984 111.56C21.3637 111.55 21.3338 111.528 21.3141 111.497C21.2945 111.467 21.2863 111.43 21.2911 111.394C21.3327 110.983 22.4018 101.267 26.3289 98.184C26.3484 98.168 26.3716 98.1571 26.3963 98.1522C26.4211 98.1474 26.4467 98.1488 26.4708 98.1563C26.4959 98.1632 26.5189 98.1764 26.5376 98.1945C26.5564 98.2126 26.5703 98.2352 26.578 98.2601C28.1558 103.011 26.1974 105.453 23.9311 108.277C23.076 109.294 22.2911 110.368 21.5818 111.491C21.5676 111.515 21.5473 111.535 21.523 111.548C21.4986 111.561 21.4711 111.568 21.4434 111.567L21.3984 111.56ZM21.6994 110.713C22.3291 109.754 23.0142 108.903 23.6751 108.076C25.8514 105.367 27.7337 103.021 26.3427 98.5784C23.2564 101.225 22.0074 108.415 21.6994 110.713Z" fill="#E0E0E0"/>
<path id="Vector_17" d="M11.8765 96.7061C16.5682 98.3392 20.7375 107.609 20.7375 107.609C16.6236 104.166 11.9387 103.367 11.8765 96.7061Z" fill="#E0E0E0"/>
<path id="Vector_18" d="M20.7514 107.738C19.7511 106.926 18.7031 106.175 17.6132 105.489C14.5442 103.489 11.8869 101.759 11.8419 96.6933C11.843 96.6681 11.8498 96.6435 11.8618 96.6213C11.8737 96.5991 11.8906 96.58 11.9111 96.5653C11.9318 96.5502 11.9558 96.5403 11.9812 96.5367C12.0065 96.5331 12.0324 96.5358 12.0564 96.5445C16.7724 98.188 20.8379 107.16 21.0075 107.54C21.0125 107.563 21.0125 107.587 21.0075 107.61C21.0066 107.651 20.9894 107.691 20.9596 107.72C20.9299 107.749 20.8899 107.765 20.8483 107.765C20.8141 107.765 20.7806 107.755 20.7514 107.738ZM17.8 105.226C18.6616 105.786 19.5473 106.364 20.4227 107.046C19.4055 104.97 15.9628 98.451 12.1741 96.9321C12.2917 101.641 14.8452 103.302 17.8 105.226Z" fill="#E0E0E0"/>
<path id="Vector_19" d="M29.2665 107.882C24.3982 111.57 22.7963 125.528 22.7963 125.528C26.2943 119.957 31.7023 115.684 29.2665 107.882Z" fill="#E0E0E0"/>
<path id="Vector_20" d="M22.7305 125.704C22.688 125.689 22.652 125.66 22.6281 125.621C22.6043 125.583 22.594 125.538 22.599 125.493C22.6682 124.919 24.2737 111.421 29.1453 107.733C29.1706 107.714 29.2001 107.701 29.2315 107.695C29.2628 107.69 29.295 107.692 29.3253 107.702C29.3558 107.71 29.3837 107.726 29.4062 107.749C29.4286 107.771 29.4448 107.799 29.4533 107.83C31.3978 114.058 28.4741 117.995 25.3774 122.182C24.5643 123.289 23.7097 124.434 22.9554 125.621C22.9382 125.65 22.9138 125.673 22.8846 125.689C22.8554 125.704 22.8225 125.712 22.7893 125.711L22.7305 125.704ZM23.1042 124.666C23.7339 123.725 24.419 122.819 25.0625 121.933C28.0485 117.895 30.8753 114.075 29.1626 108.21C25.2701 111.484 23.5436 121.649 23.1042 124.68V124.666Z" fill="#E0E0E0"/>
<path id="Vector_21" d="M11.091 105.951C16.8139 108.058 22.2322 117.999 22.2322 117.999C17.274 113.691 11.0149 114.117 11.091 105.951Z" fill="#E0E0E0"/>
<path id="Vector_22" d="M22.1043 118.148C20.5715 116.816 18.9349 115.954 17.3468 115.117C13.8557 113.276 10.8385 111.685 10.8801 105.951C10.8794 105.919 10.8868 105.888 10.9014 105.859C10.916 105.831 10.9375 105.806 10.9639 105.788C10.9903 105.77 11.0208 105.759 11.0527 105.755C11.0845 105.752 11.1168 105.756 11.1465 105.768C16.8728 107.882 22.177 117.494 22.3949 117.902C22.4183 117.942 22.4267 117.988 22.4184 118.034C22.4101 118.079 22.3858 118.119 22.35 118.148C22.3328 118.164 22.3125 118.176 22.2905 118.184C22.2685 118.191 22.2452 118.194 22.2219 118.193C22.1792 118.19 22.1383 118.174 22.1043 118.148ZM11.2849 106.239C11.3402 111.505 14.212 113.02 17.544 114.771C18.9418 115.46 20.2796 116.264 21.5438 117.176C20.0594 114.726 15.7587 108.086 11.2849 106.239Z" fill="#E0E0E0"/>
<path id="Vector_23" d="M23.1526 92.1289C20.4192 94.2741 19.6926 101.267 19.6926 101.267C21.606 98.0663 24.6197 96.5439 23.1526 92.1289Z" fill="#E0E0E0"/>
<path id="Vector_24" d="M19.6304 101.37C19.6067 101.361 19.5866 101.345 19.5734 101.324C19.5602 101.302 19.5547 101.277 19.5577 101.252C19.5992 100.965 20.3466 94.187 23.0834 92.0349C23.0983 92.0244 23.1154 92.0173 23.1334 92.0143C23.1513 92.0113 23.1697 92.0125 23.1872 92.0176C23.2043 92.0229 23.2198 92.0323 23.2325 92.045C23.2452 92.0576 23.2546 92.0731 23.2599 92.0902C24.3602 95.4049 22.9935 97.1072 21.4088 99.0794C20.8157 99.7949 20.2701 100.548 19.7757 101.335C19.7655 101.351 19.7517 101.364 19.7354 101.373C19.7191 101.382 19.7009 101.387 19.6823 101.387C19.6636 101.387 19.6454 101.381 19.6304 101.37ZM19.8553 100.782C20.2981 100.114 20.7722 99.5188 21.2393 98.941C22.7582 97.0519 24.0626 95.4187 23.1007 92.3186C20.9452 94.1697 20.0836 99.1832 19.8553 100.782Z" fill="#E0E0E0"/>
<path id="Vector_25" d="M18.3363 96.627C17.6387 96.0627 16.9073 95.5416 16.1462 95.0665C14.001 93.6825 12.1464 92.4611 12.1153 88.9319C12.1149 88.9136 12.1192 88.8954 12.1277 88.8791C12.1361 88.8628 12.1485 88.8488 12.1637 88.8385C12.1801 88.8317 12.1978 88.8281 12.2156 88.8281C12.2334 88.8281 12.251 88.8317 12.2675 88.8385C15.551 89.9907 18.3882 96.2464 18.5128 96.5128C18.5212 96.5364 18.5221 96.5621 18.5153 96.5863C18.5085 96.6105 18.4943 96.632 18.4747 96.6477C18.4557 96.6617 18.4326 96.669 18.409 96.6685C18.3947 96.667 18.3808 96.6625 18.3683 96.6554C18.3558 96.6482 18.3449 96.6386 18.3363 96.627Z" fill="#E0E0E0"/>
<g id="freepik--freepik--Earth--inject-158--inject-85">
<path id="Vector_26" d="M154.647 27.0902C156.527 16.1405 149.175 5.73974 138.225 3.85949C127.275 1.97923 116.875 9.33149 114.994 20.2812C113.114 31.2309 120.466 41.6317 131.416 43.5119C142.366 45.3922 152.767 38.0399 154.647 27.0902Z" fill="#F0F0F0"/>
<path id="Vector_27" d="M120.399 34.042V33.869L120.092 33.5956L120.081 32.9521L120.375 32.7168L120.368 32.3569L120.604 32.2981L120.638 32.0386L121.199 32.1528L120.476 31.2774L120.092 31.4124L119.735 31.1736L119.815 30.8691L119.5 30.665L119.991 30.1944L120.085 29.8277L120.669 29.5163L120.434 29.0215L120.649 28.8796L120.642 28.5371L121.341 28.7205L121.507 29.0077L122.199 29.8104L122.275 30.3398L122.475 30.6892L122.486 30.9487L122.711 31.1771L122.728 31.8691L122.514 31.9694L122.517 32.1355L122.306 32.478L121.939 33.7202L121.514 33.7444L121.327 34.0454L120.399 34.042Z" fill="#E6E6E6"/>
<path id="Vector_28" d="M128.925 7.45498L129.139 7.20932L129.551 6.24052L129.821 6.41006L129.928 6.28204L129.624 5.84262L129.856 5.51392L129.835 5.30632L130.24 5.0918L131.025 5.29248L131.302 5.29594L131.461 5.45164L132.16 5.30286L132.167 5.59004L132.482 5.67308L132.191 6.33048L131.914 6.63842L132.025 6.97404L130.949 7.7214L130.759 7.93246L129.901 7.88748L129.78 8.19888L129.406 8.29922L128.925 7.45498Z" fill="#E6E6E6"/>
<path id="Vector_29" d="M138.8 9.24449L139.156 8.97461L139.786 9.14069L139.627 9.75657L139.018 10.2583L138.641 9.86037L138.8 9.24449Z" fill="#E6E6E6"/>
<path id="Vector_30" d="M143.941 13.0327L144.121 12.8909L144.211 12.6867L144.46 12.4895L144.651 12.4687L144.848 12.3096L144.955 12.5449L145.294 12.6798L145.346 13.396L146 13.3926L146.038 13.9289L145.834 14.0327L145.785 14.2299L145.228 14.0846L144.917 14.2576L145.035 14.4202L144.91 14.4963L144.969 14.5828L144.609 14.7696L144.561 14.7039L144.433 14.78L144.163 14.6693L143.9 14.8181L143.772 14.6831L143.581 14.735L143.464 14.3441L142.941 14.2091L142.851 14.0811L142.575 14.0084L142.156 13.4237L142.194 13.1642L142.045 12.9601L142.267 12.7594L142.568 12.7974L142.806 12.9427L142.986 12.922L143.249 13.0362L143.391 13.3095L143.53 13.2403L143.696 13.2957L143.941 13.0327Z" fill="#E6E6E6"/>
<path id="Vector_31" d="M151.661 19.8871L152.623 19.6553L153.377 20.0324L153.82 20.9113L153.706 21.2849L153.854 21.5929L153.692 22.2226L153.432 22.1742L153.2 22.4994L152.36 22.2814L152.578 21.4406L151.92 21.1362L151.917 20.3196L151.661 19.8871Z" fill="#E6E6E6"/>
<path id="Vector_32" d="M141.007 11.7324L141.54 12.2895L141.294 13.2444L140.526 13.5835L140.44 13.4244L140.205 13.3932L140.011 12.6493L139.89 12.4279L140.052 12.331L140.146 12.0888L140.637 11.7809L140.893 11.8051L141.007 11.7324Z" fill="#E6E6E6"/>
<path id="Vector_33" d="M126.385 7.93589L127.434 7.78711L127.835 8.10197L127.949 9.29913L127.69 9.29221L127.236 9.54133L126.61 9.51365L126.416 9.24031L126.053 9.22647L125.313 8.61405L125.756 7.98087L126.126 8.10197L126.385 7.93589Z" fill="#E6E6E6"/>
<path id="Vector_34" d="M134.087 5.26465L134.814 5.69369L135.098 6.67287L134.309 7.05693L133.271 6.78705L133.561 5.66601L134.087 5.26465Z" fill="#E6E6E6"/>
</g>
</g>
<g id="freepik--Shadow--inject-85">
<path id="Vector_35" d="M148.529 152.922C148.529 154.095 119.642 155.043 84.0071 155.043C48.3726 155.043 19.4885 154.095 19.4885 152.922C19.4885 151.749 48.3761 150.814 84.0071 150.814C119.638 150.814 148.529 151.749 148.529 152.922Z" fill="#F5F5F5"/>
</g>
<g id="freepik--Airplane--inject-85">
<g id="freepik--freepik--Plane--inject-2--inject-85">
<path id="Vector_36" d="M51.8187 11.4819L56.0849 10.6377L57.6869 10.9526L54.9327 12.5961L51.8187 11.4819Z" fill="#249748"/>
<path id="Vector_37" opacity="0.3" d="M51.8187 11.4819L56.0849 10.6377L57.6869 10.9526L54.9327 12.5961L51.8187 11.4819Z" fill="black"/>
<path id="Vector_38" d="M28.5433 5.98784L35.0101 3.38938C35.9617 3.01228 37.0014 2.91504 38.0064 3.10912L39.2451 3.35132L35.8958 7.56906L28.5433 5.98784Z" fill="#249748"/>
<path id="Vector_39" opacity="0.3" d="M28.5433 5.98784L35.0101 3.38938C35.9617 3.01228 37.0014 2.91504 38.0064 3.10912L39.2451 3.35132L35.8958 7.56906L28.5433 5.98784Z" fill="black"/>
<path id="Vector_40" d="M17.8484 4.84965C17.7772 4.93889 17.7243 5.0413 17.6927 5.15102C17.6611 5.26073 17.6515 5.37559 17.6643 5.48903C17.6772 5.60247 17.7123 5.71227 17.7676 5.81213C17.8229 5.912 17.8974 5.99997 17.9868 6.07103C18.8217 6.79366 19.8306 7.28618 20.9139 7.50001L54.0884 13.9944L55.3652 13.081L55.0572 11.6693L22.2979 4.22339C21.3233 4.01553 20.3133 4.04042 19.35 4.29605L18.357 4.54171C18.1563 4.58074 17.976 4.6899 17.8484 4.84965Z" fill="#249748"/>
<path id="Vector_41" d="M38.3876 14.8269L38.3502 15.0029L52.7034 18.0538L52.7408 17.8778L38.3876 14.8269Z" fill="#249748"/>
<path id="Vector_42" d="M40.2455 5.60135L40.2081 5.77734L49.5626 7.76569L49.6 7.5897L40.2455 5.60135Z" fill="#249748"/>
<path id="Vector_43" d="M55.4218 18.449L55.3844 18.625L59.2291 19.4422L59.2665 19.2662L55.4218 18.449Z" fill="#249748"/>
<path id="Vector_44" opacity="0.3" d="M19.2393 6.8772L19.3604 6.93601C19.8538 7.17883 20.3757 7.35899 20.9139 7.47232L54.0884 13.9667C54.2453 13.9926 54.4055 13.9926 54.5624 13.9667C54.4329 13.8869 54.2898 13.8318 54.1403 13.8041L21.7443 6.88412C20.918 6.71547 20.0664 6.71312 19.2393 6.8772Z" fill="black"/>
<path id="Vector_45" d="M51.6941 12.4512L54.6074 16.2572L56.2094 16.572L55.3755 13.0532L51.6941 12.4512Z" fill="#249748"/>
<path id="Vector_46" d="M51.2097 10.8872L55.5174 7.83203L57.0121 8.12613L55.0676 11.6415L51.2097 10.8872Z" fill="#249748"/>
<path id="Vector_47" d="M27.4603 7.44531L32.5223 16.5659C32.898 17.2397 33.4161 17.8234 34.0406 18.2764C34.6651 18.7293 35.3809 19.0406 36.138 19.1886L35.5982 9.03345L27.4603 7.44531Z" fill="#249748"/>
<g id="Group" opacity="0.5">
<path id="Vector_48" d="M44.0262 10.2739L43.8733 11.0195L44.28 11.1029L44.433 10.3573L44.0262 10.2739Z" fill="white"/>
<path id="Vector_49" d="M43.1998 10.1127L43.047 10.8584L43.4537 10.9417L43.6065 10.196L43.1998 10.1127Z" fill="white"/>
<path id="Vector_50" d="M42.377 9.94179L42.2242 10.6875L42.631 10.7708L42.7838 10.0251L42.377 9.94179Z" fill="white"/>
<path id="Vector_51" d="M41.5537 9.77676L41.4009 10.5225L41.8076 10.6058L41.9604 9.8601L41.5537 9.77676Z" fill="white"/>
<path id="Vector_52" d="M40.7268 9.60781L40.574 10.3535L40.9807 10.4369L41.1335 9.69115L40.7268 9.60781Z" fill="white"/>
<path id="Vector_53" d="M39.9 9.43984L39.7472 10.1855L40.1539 10.2689L40.3067 9.52318L39.9 9.43984Z" fill="white"/>
<path id="Vector_54" d="M39.0695 9.26796L38.9167 10.0137L39.3235 10.097L39.4763 9.35131L39.0695 9.26796Z" fill="white"/>
<path id="Vector_55" d="M38.2385 9.08342L38.0856 9.8291L38.4923 9.91252L38.6452 9.16684L38.2385 9.08342Z" fill="white"/>
<path id="Vector_56" d="M37.4159 8.92714L37.2631 9.67285L37.6698 9.7562L37.8226 9.01049L37.4159 8.92714Z" fill="white"/>
<path id="Vector_57" d="M36.5897 8.75527L36.4369 9.50098L36.8436 9.58432L36.9964 8.83862L36.5897 8.75527Z" fill="white"/>
<path id="Vector_58" d="M35.7629 8.58144L35.6101 9.32715L36.0202 9.41119L36.173 8.66548L35.7629 8.58144Z" fill="white"/>
<path id="Vector_59" d="M34.9436 8.41835L34.7908 9.16406L35.1975 9.24741L35.3503 8.5017L34.9436 8.41835Z" fill="white"/>
<path id="Vector_60" d="M34.1112 8.23772L33.9583 8.9834L34.365 9.06682L34.5179 8.32114L34.1112 8.23772Z" fill="white"/>
<path id="Vector_61" d="M33.2824 8.07265L33.1296 8.81836L33.5398 8.9024L33.6926 8.15669L33.2824 8.07265Z" fill="white"/>
<path id="Vector_62" d="M32.4554 7.90859L32.3026 8.6543L32.7128 8.73834L32.8656 7.99263L32.4554 7.90859Z" fill="white"/>
<path id="Vector_63" d="M31.6327 7.73672L31.4799 8.48242L31.8866 8.56577L32.0394 7.82006L31.6327 7.73672Z" fill="white"/>
<path id="Vector_64" d="M30.8025 7.56387L30.6497 8.30957L31.0598 8.39361L31.2126 7.64791L30.8025 7.56387Z" fill="white"/>
<path id="Vector_65" d="M29.9757 7.3998L29.8229 8.14551L30.233 8.22955L30.3858 7.48384L29.9757 7.3998Z" fill="white"/>
<path id="Vector_66" d="M29.1562 7.23183L29.0034 7.97754L29.4102 8.06088L29.563 7.31518L29.1562 7.23183Z" fill="white"/>
<path id="Vector_67" d="M28.3263 7.04631L28.1733 7.79199L28.5801 7.87541L28.733 7.12973L28.3263 7.04631Z" fill="white"/>
<path id="Vector_68" d="M27.4984 6.89492L27.3456 7.64062L27.7557 7.72467L27.9085 6.97896L27.4984 6.89492Z" fill="white"/>
<path id="Vector_69" d="M26.6715 6.72304L26.5187 7.46875L26.9254 7.5521L27.0782 6.80639L26.6715 6.72304Z" fill="white"/>
</g>
<path id="Vector_70" opacity="0.5" d="M18.1113 4.63216L21.0627 5.2342C21.1618 5.25348 21.2645 5.23259 21.3482 5.17614C21.4319 5.11968 21.4898 5.03229 21.509 4.93319C21.5283 4.83408 21.5074 4.73138 21.451 4.64767C21.3945 4.56397 21.3071 4.50612 21.208 4.48684L19.7444 4.20312C19.606 4.22734 19.4711 4.26195 19.3362 4.29655L18.3431 4.5422C18.2625 4.56279 18.1847 4.593 18.1113 4.63216Z" fill="white"/>
</g>
</g>
<g id="freepik--speech-bubble--inject-85">
<path id="Vector_71" d="M152.827 56.3342C153.264 55.1404 153.366 53.8499 153.122 52.6022C152.879 51.3545 152.299 50.1971 151.445 49.2553C150.591 48.3134 149.496 47.6229 148.278 47.2585C147.06 46.894 145.766 46.8695 144.535 47.1875C143.304 47.5056 142.184 48.1541 141.295 49.0629C140.406 49.9718 139.783 51.1064 139.492 52.3439C139.202 53.5815 139.255 54.875 139.646 56.0845C140.038 57.294 140.752 58.3734 141.713 59.206L141.741 61.282L143.782 60.4343L143.889 60.4793C145.624 61.1132 147.54 61.0327 149.215 60.2556C150.891 59.4784 152.19 58.0681 152.827 56.3342Z" fill="#249748"/>
<path id="Vector_72" d="M153.954 52.549C153.934 52.549 153.913 52.5412 153.898 52.5271C153.883 52.513 153.873 52.4936 153.871 52.4728C153.74 51.3581 153.337 50.2928 152.697 49.3703C152.058 48.4479 151.202 47.6966 150.204 47.1825C150.184 47.1721 150.169 47.1544 150.162 47.1331C150.155 47.1118 150.156 47.0886 150.166 47.0683C150.171 47.0577 150.177 47.0482 150.186 47.0403C150.195 47.0324 150.205 47.0264 150.216 47.0225C150.227 47.0186 150.238 47.017 150.25 47.0178C150.262 47.0185 150.273 47.0216 150.283 47.0268C151.306 47.5547 152.184 48.3258 152.839 49.2724C153.495 50.219 153.907 51.3121 154.041 52.4555C154.042 52.4667 154.042 52.4781 154.038 52.4889C154.035 52.4998 154.03 52.5099 154.023 52.5186C154.016 52.5274 154.007 52.5346 153.997 52.5398C153.987 52.545 153.976 52.5481 153.965 52.549H153.954Z" fill="#249748"/>
<path id="Vector_73" d="M153.999 54.6259H153.979C153.957 54.6202 153.938 54.6061 153.926 54.5867C153.915 54.5673 153.911 54.5441 153.916 54.5221C153.993 54.1964 154.002 53.8586 153.944 53.5291C153.942 53.5179 153.941 53.5064 153.944 53.4951C153.946 53.4839 153.95 53.4732 153.957 53.4638C153.963 53.4544 153.972 53.4464 153.981 53.4404C153.991 53.4344 154.002 53.4304 154.013 53.4288C154.024 53.4263 154.036 53.4261 154.047 53.4283C154.059 53.4305 154.069 53.4349 154.079 53.4414C154.088 53.4479 154.096 53.4563 154.102 53.466C154.108 53.4758 154.112 53.4866 154.114 53.498C154.176 53.8516 154.165 54.2143 154.083 54.5636C154.077 54.5816 154.066 54.5974 154.051 54.6086C154.036 54.6199 154.018 54.6259 153.999 54.6259Z" fill="#249748"/>
<path id="Vector_74" d="M146.166 57.0023L142.972 54.6218L143.803 53.5077L145.945 55.1027L148.889 51.5908L149.955 52.4835L146.166 57.0023Z" fill="white"/>
</g>
<g id="freepik--Clipboard--inject-85">
<path id="Vector_75" d="M125.714 20.874H37.3248C35.905 20.874 34.754 22.025 34.754 23.4448V148.652C34.754 150.072 35.905 151.223 37.3248 151.223H125.714C127.134 151.223 128.285 150.072 128.285 148.652V23.4448C128.285 22.025 127.134 20.874 125.714 20.874Z" fill="#249748"/>
<path id="Vector_76" opacity="0.3" d="M124.887 33.873H38.1517V146.347H124.887V33.873Z" fill="black"/>
<path id="Vector_77" d="M125.043 25.6592H38.3074V142.912H125.043V25.6592Z" fill="white"/>
<path id="Vector_78" d="M49.6667 34.8184H55.9985C56.4068 34.8184 56.7984 34.9806 57.0872 35.2693C57.3759 35.5581 57.5382 35.9497 57.5382 36.3581V42.6899C57.5382 43.0973 57.3763 43.488 57.0882 43.7761C56.8001 44.0643 56.4094 44.2261 56.0019 44.2261H49.6667C49.2583 44.2261 48.8667 44.0639 48.5779 43.7751C48.2892 43.4864 48.127 43.0948 48.127 42.6864V36.3581C48.1265 36.1557 48.166 35.9553 48.2432 35.7683C48.3204 35.5813 48.4338 35.4114 48.5769 35.2683C48.72 35.1252 48.8899 35.0119 49.0769 34.9346C49.2639 34.8574 49.4643 34.8179 49.6667 34.8184Z" fill="#249748"/>
<path id="Vector_79" d="M61.3441 38.184H60.2577V37.5439H63.2125V38.184H62.1295V40.952H61.3441V38.184Z" fill="#263238"/>
<path id="Vector_80" d="M65.7971 40.9377L65.1432 39.9896H64.4201V40.9377H63.6346V37.5434H65.1017C65.3713 37.5376 65.6391 37.5895 65.8871 37.6956C66.0984 37.7848 66.2787 37.9342 66.4055 38.1253C66.5323 38.3164 66.5999 38.5407 66.5999 38.77C66.5999 38.9993 66.5323 39.2235 66.4055 39.4146C66.2787 39.6057 66.0984 39.7552 65.8871 39.8443L66.6448 40.9377H65.7971ZM65.5965 38.3357C65.4407 38.2245 65.2512 38.1706 65.0602 38.1835H64.4201V39.3668H65.0602C65.2518 39.3805 65.442 39.3253 65.5965 39.2111C65.6556 39.1546 65.7027 39.0867 65.7348 39.0114C65.767 38.9362 65.7836 38.8552 65.7836 38.7734C65.7836 38.6916 65.767 38.6107 65.7348 38.5354C65.7027 38.4602 65.6556 38.3923 65.5965 38.3357Z" fill="#263238"/>
<path id="Vector_81" d="M69.4301 40.2116H67.8558L67.5548 40.9382H66.7521L68.2641 37.5439H69.0391L70.5546 40.9382H69.7311L69.4301 40.2116ZM69.1845 39.613L68.662 38.3155L68.1257 39.613H69.1845Z" fill="#263238"/>
<path id="Vector_82" d="M73.9835 37.5439L72.5165 40.9382H71.7414L70.2778 37.5439H71.1255L72.1635 39.9659L73.2015 37.5439H73.9835Z" fill="#263238"/>
<path id="Vector_83" d="M76.8934 40.3085V40.9382H74.2672V37.5439H76.8276V38.1737H75.0457V38.9106H76.62V39.5231H75.0457V40.3085H76.8934Z" fill="#263238"/>
<path id="Vector_84" d="M77.5161 37.5439H78.3015V40.3119H80.0039V40.952H77.5161V37.5439Z" fill="#263238"/>
<path id="Vector_85" d="M81.8101 37.5439H82.5955V40.9382H81.8101V37.5439Z" fill="#263238"/>
<path id="Vector_86" d="M86.5154 37.5439V40.9382H85.8684L84.1799 38.8622V40.9382H83.4049V37.5439H84.0519L85.7404 39.6199V37.5439H86.5154Z" fill="#263238"/>
<path id="Vector_87" d="M87.6539 40.8863C87.4374 40.8298 87.2333 40.7336 87.0519 40.6025L87.3183 40.0109C87.4757 40.1248 87.6512 40.2113 87.8373 40.2669C88.0315 40.3311 88.2348 40.3638 88.4393 40.3638C88.6088 40.376 88.7785 40.3425 88.9307 40.2669C88.979 40.241 89.0196 40.2027 89.0482 40.1558C89.0768 40.109 89.0924 40.0554 89.0933 40.0005C89.0938 39.9618 89.0853 39.9236 89.0685 39.8887C89.0517 39.8539 89.027 39.8234 88.9964 39.7998C88.925 39.7414 88.8427 39.6979 88.7542 39.6718C88.6573 39.6407 88.5224 39.6026 88.3563 39.5645C88.1402 39.5176 87.9276 39.4564 87.7197 39.3812C87.5565 39.3201 87.4113 39.219 87.2975 39.0871C87.1744 38.9336 87.1116 38.7404 87.1211 38.5438C87.1183 38.353 87.1739 38.1659 87.2802 38.0075C87.4004 37.8368 87.5674 37.7046 87.7612 37.6269C88.0117 37.5261 88.2802 37.4779 88.5501 37.4851C88.7636 37.4855 88.9762 37.5122 89.1832 37.5647C89.3748 37.6096 89.5581 37.6843 89.7265 37.7861L89.4843 38.3847C89.1999 38.2136 88.875 38.1216 88.5431 38.1183C88.3751 38.1065 88.2072 38.1424 88.0587 38.2221C88.0096 38.2512 87.9691 38.2928 87.9411 38.3426C87.9132 38.3924 87.8989 38.4487 87.8996 38.5058C87.9 38.5622 87.9179 38.617 87.9507 38.6629C87.9835 38.7087 88.0297 38.7433 88.083 38.7618C88.2608 38.8382 88.4464 38.895 88.6366 38.9314C88.8512 38.9793 89.0627 39.0406 89.2697 39.1147C89.4332 39.1753 89.5794 39.2751 89.6953 39.4054C89.8192 39.5558 89.8821 39.7471 89.8718 39.9417C89.8728 40.1317 89.8161 40.3175 89.7092 40.4745C89.587 40.6461 89.4175 40.7784 89.2213 40.8551C88.9706 40.9546 88.7021 41.0017 88.4324 40.9935C88.1692 40.9946 87.9071 40.9584 87.6539 40.8863Z" fill="#263238"/>
<path id="Vector_88" d="M90.7852 40.5929C90.6433 40.4389 90.5343 40.2577 90.4647 40.0602C90.3951 39.8627 90.3664 39.6531 90.3804 39.4442V37.5446H91.152V39.4027C91.152 40.0082 91.4046 40.3126 91.9063 40.3126C92.0109 40.3209 92.1161 40.3053 92.2138 40.2669C92.3115 40.2286 92.3992 40.1685 92.4702 40.0912C92.6152 39.891 92.6839 39.6456 92.664 39.3992V37.5273H93.439V39.4269C93.453 39.6358 93.4244 39.8454 93.3548 40.0429C93.2852 40.2404 93.1761 40.4216 93.0342 40.5756C92.7143 40.8352 92.3148 40.9769 91.9028 40.9769C91.4908 40.9769 91.0913 40.8352 90.7714 40.5756L90.7852 40.5929Z" fill="#263238"/>
<path id="Vector_89" d="M96.3904 40.9377L95.7365 39.9896H95.0133V40.9377H94.2279V37.5434H95.6949C95.9646 37.5376 96.2324 37.5895 96.4804 37.6956C96.6916 37.7848 96.872 37.9342 96.9987 38.1253C97.1255 38.3164 97.1931 38.5407 97.1931 38.77C97.1931 38.9993 97.1255 39.2235 96.9987 39.4146C96.872 39.6057 96.6916 39.7552 96.4804 39.8443L97.2381 40.9377H96.3904ZM96.1897 38.3357C96.034 38.2245 95.8444 38.1706 95.6534 38.1835H95.0133V39.3668H95.65C95.8416 39.3805 96.0317 39.3253 96.1863 39.2111C96.2445 39.1541 96.2908 39.086 96.3224 39.0108C96.354 38.9357 96.3703 38.855 96.3703 38.7734C96.3703 38.6919 96.354 38.6112 96.3224 38.536C96.2908 38.4609 96.2445 38.3928 96.1863 38.3357H96.1897Z" fill="#263238"/>
<path id="Vector_90" d="M100.023 40.2116H98.4491L98.1481 40.9382H97.3453L98.8539 37.5439H99.6289L101.148 40.9382H100.324L100.023 40.2116ZM99.7777 39.613L99.238 38.3155L98.7017 39.613H99.7777Z" fill="#263238"/>
<path id="Vector_91" d="M104.611 37.5439V40.9382H103.954L102.262 38.8622V40.9382H101.487V37.5439H102.137L103.822 39.6199V37.5439H104.611Z" fill="#263238"/>
<path id="Vector_92" d="M106.103 40.7867C105.829 40.6446 105.6 40.4289 105.442 40.1639C105.285 39.8881 105.203 39.5763 105.203 39.2591C105.203 38.942 105.285 38.6302 105.442 38.3544C105.6 38.0894 105.829 37.8737 106.103 37.7315C106.392 37.5764 106.716 37.4978 107.044 37.5032C107.317 37.4989 107.588 37.5519 107.84 37.6589C108.075 37.7506 108.285 37.8978 108.452 38.0879L107.95 38.555C107.844 38.425 107.709 38.3214 107.556 38.2524C107.403 38.1834 107.236 38.1507 107.068 38.1571C106.872 38.1532 106.679 38.2009 106.507 38.2955C106.344 38.3827 106.211 38.5164 106.123 38.6796C106.032 38.8531 105.985 39.046 105.985 39.2418C105.985 39.4377 106.032 39.6306 106.123 39.8041C106.212 39.9666 106.345 40.1 106.507 40.1882C106.679 40.2827 106.872 40.3305 107.068 40.3265C107.231 40.328 107.393 40.2927 107.541 40.2232C107.689 40.1537 107.819 40.0519 107.923 39.9252L108.424 40.3888C108.265 40.5865 108.059 40.7421 107.826 40.8421C107.572 40.9459 107.3 40.9976 107.026 40.9943C106.706 41.0035 106.388 40.9321 106.103 40.7867Z" fill="#263238"/>
<path id="Vector_93" d="M111.594 40.3085V40.9382H108.967V37.5439H111.531V38.1737H109.749V38.9106H111.324V39.5231H109.749V40.3085H111.594Z" fill="#263238"/>
<path id="Vector_94" d="M114.908 49.457H48.127V53.0658H114.908V49.457Z" fill="#E0E0E0"/>
<path id="Vector_95" d="M114.908 75.0684H48.127V78.6771H114.908V75.0684Z" fill="#E0E0E0"/>
<path id="Vector_96" d="M114.908 132.359H48.127V135.968H114.908V132.359Z" fill="#E0E0E0"/>
<path id="Vector_97" d="M114.908 57.9375H48.127V58.2835H114.908V57.9375Z" fill="#263238"/>
<path id="Vector_98" d="M114.908 63.5186H48.127V63.8646H114.908V63.5186Z" fill="#263238"/>
<path id="Vector_99" d="M114.908 69.1035H48.127V69.4495H114.908V69.1035Z" fill="#263238"/>
<path id="Vector_100" d="M114.908 85.1475H48.127V85.4935H114.908V85.1475Z" fill="#263238"/>
<path id="Vector_101" d="M114.908 92.3643H60.4341V92.7103H114.908V92.3643Z" fill="#263238"/>
<path id="Vector_102" d="M114.908 97.4502H60.4341V97.7962H114.908V97.4502Z" fill="#263238"/>
<path id="Vector_103" d="M57.8426 99.0385H48.684V89.8799H57.8426V99.0385ZM49.03 98.6925H57.4966V90.2259H49.03V98.6925Z" fill="#263238"/>
<path id="Vector_104" d="M114.908 106.095H60.4341V106.441H114.908V106.095Z" fill="#263238"/>
<path id="Vector_105" d="M114.908 111.181H60.4341V111.527H114.908V111.181Z" fill="#263238"/>
<path id="Vector_106" d="M57.8426 112.754H48.684V103.609H57.8426V112.754ZM49.03 112.408H57.4966V103.955H49.03V112.408Z" fill="#263238"/>
<path id="Vector_107" d="M114.908 119.823H60.4341V120.169H114.908V119.823Z" fill="#263238"/>
<path id="Vector_108" d="M114.908 124.909H60.4341V125.255H114.908V124.909Z" fill="#263238"/>
<path id="Vector_109" d="M57.8426 126.498H48.684V117.336H57.8426V126.498ZM49.03 126.152H57.4966V117.682H49.03V126.152Z" fill="#263238"/>
<path id="Vector_110" d="M49.2098 37.9527C49.6527 37.4407 50.7945 37.7624 51.5799 38.1811C51.5799 38.1811 52.1197 38.4371 52.3203 38.5686L54.1541 38.3403C54.3026 38.3234 54.4528 38.3498 54.5866 38.4164L54.7389 38.4925C54.7566 38.5004 54.7717 38.5132 54.7822 38.5295C54.7928 38.5458 54.7985 38.5648 54.7985 38.5842C54.7985 38.6036 54.7928 38.6226 54.7822 38.6389C54.7717 38.6551 54.7566 38.668 54.7389 38.6759L53.3895 39.2537L54.7216 40.1291H54.7423C54.9931 40.2911 55.2962 40.3517 55.59 40.2986L56.3028 40.1706C56.3378 40.1603 56.375 40.1603 56.41 40.1706C56.4388 40.1822 56.4641 40.2011 56.4834 40.2254C56.5027 40.2497 56.5155 40.2785 56.5203 40.3092C56.5252 40.3398 56.5221 40.3712 56.5112 40.4003C56.5004 40.4293 56.4822 40.4551 56.4585 40.4751L55.6315 41.1671C55.568 41.2203 55.4906 41.2541 55.4084 41.2645C55.3262 41.2749 55.2427 41.2615 55.1679 41.2259L54.7804 41.0494L52.8255 40.1152L53.0504 41.2328C53.0519 41.2437 53.051 41.2547 53.0479 41.2652C53.0447 41.2756 53.0393 41.2853 53.0321 41.2935C53.0249 41.3017 53.016 41.3083 53.006 41.3127C52.996 41.3172 52.9852 41.3194 52.9743 41.3193H52.8808C52.8187 41.3155 52.7584 41.2964 52.7053 41.2638C52.6522 41.2313 52.608 41.1862 52.5764 41.1325L51.7875 39.6274L49.4797 38.5271C49.1683 38.4198 49.0575 38.1569 49.2098 37.9527Z" fill="white"/>
<path id="Vector_111" d="M54.3964 97.9601L49.5731 94.3651L50.8256 92.6836L54.0607 95.0917L58.5068 89.791L60.1123 91.137L54.3964 97.9601Z" fill="#249748"/>
<path id="Vector_112" d="M54.3964 111.392L49.5731 107.8L50.8256 106.115L54.0607 108.523L58.5068 103.223L60.1123 104.572L54.3964 111.392Z" fill="#249748"/>
<path id="Vector_113" d="M54.3964 124.823L49.5731 121.232L50.8256 119.55L54.0607 121.958L58.5068 116.654L60.1123 118.004L54.3964 124.823Z" fill="#249748"/>
<path id="Vector_114" d="M96.3524 18.6182H66.6829V29.8078H96.3524V18.6182Z" fill="#263238"/>
<path id="Vector_115" d="M90.9098 19.7495H73.5613L71.6272 11.2275H93.2868L90.9098 19.7495Z" fill="#263238"/>
<path id="Vector_116" opacity="0.3" d="M91.5153 11.2275C91.4946 11.2794 89.2041 18.5212 89.2594 18.5212H91.2282L93.3042 11.2275H91.5153Z" fill="black"/>
<path id="Vector_117" opacity="0.3" d="M94.4355 18.6182C94.4355 18.6182 94.2936 29.8113 94.4355 29.8113H96.3419V18.6182H94.4355Z" fill="black"/>
</g>
<g id="freepik--Character--inject-85">
<path id="Vector_118" d="M122.873 74.2314L116.064 88.2963L107.947 96.8944L109.743 98.4411C109.743 98.4411 117.545 93.0815 119.721 90.1128C121.756 87.3448 125.551 78.3488 125.551 78.3488L122.873 74.2314Z" fill="#B97964"/>
<path id="Vector_119" d="M107.954 96.8939C106.933 97.0081 106.282 96.7382 105.099 96.4164C104.919 96.3432 104.733 96.2865 104.542 96.2469C104.468 96.242 104.395 96.2608 104.333 96.3007C104.27 96.3405 104.223 96.3993 104.196 96.4683C104.195 96.5599 104.212 96.6509 104.247 96.7358C104.281 96.8207 104.332 96.898 104.397 96.9631C104.737 97.2634 105.13 97.498 105.556 97.6551C105.13 97.8675 104.753 98.1683 104.452 98.5374C104.309 98.7266 104.233 98.9576 104.234 99.1948C104.24 99.3115 104.29 99.4217 104.373 99.5037C104.456 99.5857 104.567 99.6335 104.684 99.6376C104.696 99.8268 104.77 100.007 104.896 100.149C105.021 100.291 105.19 100.387 105.376 100.423C105.469 100.696 105.656 100.987 105.94 101.001C106.037 100.987 106.136 100.987 106.234 101.001C106.321 101.035 106.376 101.119 106.449 101.174C106.684 101.368 107.037 101.26 107.32 101.136C108.448 100.638 109.009 99.4058 109.742 98.4128" fill="#B97964"/>
<path id="Vector_120" d="M105.096 98.6203C105.835 98.6221 106.542 98.9166 107.065 99.4393C107.587 99.962 107.88 100.67 107.881 101.409V133.514C107.876 134.25 107.58 134.953 107.058 135.472C106.537 135.99 105.831 136.281 105.096 136.282H102.12C101.384 136.281 100.679 135.99 100.157 135.472C99.6344 134.954 99.3379 134.25 99.3315 133.514V101.409C99.3324 100.67 99.6265 99.9609 100.149 99.4381C100.672 98.9153 101.381 98.6212 102.12 98.6203H105.096ZM105.096 98.084H102.12C101.239 98.0876 100.396 98.4391 99.7731 99.0619C99.1503 99.6847 98.7988 100.528 98.7952 101.409V133.514C98.7988 134.395 99.1504 135.238 99.7733 135.86C100.396 136.483 101.24 136.833 102.12 136.836H105.096C105.976 136.833 106.819 136.482 107.442 135.86C108.064 135.238 108.415 134.394 108.417 133.514V101.409C108.415 100.529 108.064 99.685 107.442 99.0621C106.82 98.4392 105.976 98.0876 105.096 98.084Z" fill="black"/>
<path id="Vector_121" d="M111.078 154.72C111.774 154.72 112.338 154.156 112.338 153.461C112.338 152.765 111.774 152.201 111.078 152.201C110.383 152.201 109.819 152.765 109.819 153.461C109.819 154.156 110.383 154.72 111.078 154.72Z" fill="black"/>
<path id="Vector_122" d="M107.905 153.462C107.909 153.711 107.838 153.956 107.702 154.166C107.566 154.376 107.371 154.54 107.142 154.639C106.912 154.738 106.659 154.766 106.413 154.721C106.168 154.675 105.941 154.558 105.762 154.384C105.583 154.21 105.459 153.986 105.407 153.742C105.355 153.498 105.377 153.244 105.469 153.012C105.562 152.779 105.721 152.58 105.927 152.438C106.132 152.297 106.375 152.219 106.625 152.216C106.791 152.214 106.956 152.244 107.11 152.305C107.264 152.367 107.404 152.458 107.523 152.574C107.642 152.689 107.737 152.827 107.803 152.98C107.868 153.132 107.903 153.296 107.905 153.462Z" fill="black"/>
<path id="Vector_123" d="M100.65 153.461C100.65 153.71 100.576 153.953 100.437 154.16C100.299 154.367 100.102 154.529 99.8721 154.624C99.642 154.719 99.3888 154.744 99.1445 154.696C98.9002 154.647 98.6758 154.527 98.4996 154.351C98.3235 154.175 98.2035 153.951 98.1549 153.706C98.1063 153.462 98.1313 153.209 98.2266 152.979C98.3219 152.749 98.4834 152.552 98.6905 152.413C98.8976 152.275 99.1411 152.201 99.3902 152.201C99.7242 152.201 100.045 152.334 100.281 152.57C100.517 152.806 100.65 153.127 100.65 153.461Z" fill="black"/>
<path id="Vector_124" d="M94.9545 154.72C95.6501 154.72 96.2139 154.156 96.2139 153.461C96.2139 152.765 95.6501 152.201 94.9545 152.201C94.2589 152.201 93.6951 152.765 93.6951 153.461C93.6951 154.156 94.2589 154.72 94.9545 154.72Z" fill="black"/>
<path id="Vector_125" d="M113.095 119.675H95.1552C94.2437 119.675 93.5048 120.414 93.5048 121.325V151.012C93.5048 151.924 94.2437 152.662 95.1552 152.662H113.095C114.007 152.662 114.746 151.924 114.746 151.012V121.325C114.746 120.414 114.007 119.675 113.095 119.675Z" fill="#249748"/>
<path id="Vector_126" opacity="0.5" d="M113.095 119.675H95.1552C94.2437 119.675 93.5048 120.414 93.5048 121.325V151.012C93.5048 151.924 94.2437 152.662 95.1552 152.662H113.095C114.007 152.662 114.746 151.924 114.746 151.012V121.325C114.746 120.414 114.007 119.675 113.095 119.675Z" fill="black"/>
<path id="Vector_127" d="M109.04 119.675H93.1068C92.1953 119.675 91.4564 120.414 91.4564 121.325V151.012C91.4564 151.924 92.1953 152.662 93.1068 152.662H109.04C109.952 152.662 110.691 151.924 110.691 151.012V121.325C110.691 120.414 109.952 119.675 109.04 119.675Z" fill="#249748"/>
<path id="Vector_128" opacity="0.3" d="M109.04 119.675H93.1068C92.1953 119.675 91.4564 120.414 91.4564 121.325V151.012C91.4564 151.924 92.1953 152.662 93.1068 152.662H109.04C109.952 152.662 110.691 151.924 110.691 151.012V121.325C110.691 120.414 109.952 119.675 109.04 119.675Z" fill="black"/>
<path id="Vector_129" opacity="0.3" d="M95.304 149.48C95.0893 149.48 94.8834 149.394 94.7315 149.243C94.5797 149.091 94.4944 148.885 94.4944 148.67V125.031C94.4944 124.817 94.5797 124.611 94.7315 124.459C94.8834 124.307 95.0893 124.222 95.304 124.222C95.5188 124.222 95.7247 124.307 95.8765 124.459C96.0284 124.611 96.1137 124.817 96.1137 125.031V148.67C96.1137 148.885 96.0284 149.091 95.8765 149.243C95.7247 149.394 95.5188 149.48 95.304 149.48Z" fill="white"/>
<path id="Vector_130" opacity="0.3" d="M99.2345 149.48C99.1276 149.481 99.0216 149.46 98.9226 149.42C98.8235 149.38 98.7335 149.32 98.6575 149.245C98.5816 149.17 98.5214 149.08 98.4803 148.981C98.4391 148.883 98.418 148.777 98.418 148.67V125.031C98.418 124.817 98.5033 124.611 98.6551 124.459C98.8069 124.307 99.0129 124.222 99.2276 124.222C99.4423 124.222 99.6483 124.307 99.8001 124.459C99.9519 124.611 100.037 124.817 100.037 125.031V148.67C100.037 148.884 99.9529 149.088 99.8026 149.24C99.6522 149.392 99.4481 149.478 99.2345 149.48Z" fill="white"/>
<path id="Vector_131" opacity="0.3" d="M103.151 149.48C102.936 149.48 102.731 149.394 102.579 149.243C102.427 149.091 102.342 148.885 102.342 148.67V125.031C102.342 124.817 102.427 124.611 102.579 124.459C102.731 124.307 102.936 124.222 103.151 124.222C103.366 124.222 103.572 124.307 103.724 124.459C103.876 124.611 103.961 124.817 103.961 125.031V148.67C103.961 148.885 103.876 149.091 103.724 149.243C103.572 149.394 103.366 149.48 103.151 149.48Z" fill="white"/>
<path id="Vector_132" opacity="0.3" d="M107.068 149.48C106.853 149.48 106.647 149.394 106.496 149.243C106.344 149.091 106.258 148.885 106.258 148.67V125.031C106.258 124.817 106.344 124.611 106.496 124.459C106.647 124.307 106.853 124.222 107.068 124.222C107.283 124.222 107.489 124.307 107.641 124.459C107.792 124.611 107.878 124.817 107.878 125.031V148.67C107.878 148.885 107.792 149.091 107.641 149.243C107.489 149.394 107.283 149.48 107.068 149.48Z" fill="white"/>
<g id="Group_2" opacity="0.3">
<path id="Vector_133" d="M105.231 97.8109C105.753 97.772 106.276 97.8726 106.747 98.1025C107.217 98.3323 107.618 98.683 107.909 99.1188C107.966 99.1884 108.007 99.2697 108.03 99.3569C108.053 99.4441 108.056 99.5352 108.04 99.6239C108.003 99.7058 107.949 99.779 107.882 99.8386C107.814 99.8982 107.735 99.943 107.649 99.9699C107.424 100.074 107.625 99.7519 107.386 99.8142C107.262 99.8454 106.985 99.6897 106.857 99.6585C106.719 99.6234 106.597 99.543 106.511 99.4302C106.116 99.0115 105.456 99.0842 105.203 98.5548" fill="black"/>
</g>
<path id="Vector_134" d="M107.566 100.748C107.729 100.689 107.876 100.594 107.999 100.471C108.059 100.408 108.098 100.328 108.11 100.242C108.123 100.156 108.108 100.068 108.068 99.9905C108.031 99.9411 107.984 99.9007 107.929 99.8725C107.875 99.8443 107.814 99.8291 107.753 99.8279C107.634 99.8309 107.517 99.8555 107.407 99.9005C107.243 99.9654 107.086 100.045 106.936 100.139C107.064 100.058 107.18 99.9599 107.282 99.8486C107.333 99.7919 107.371 99.7256 107.395 99.6536C107.419 99.5816 107.427 99.5055 107.421 99.43C107.412 99.3627 107.38 99.3005 107.331 99.2535C107.276 99.2182 107.214 99.1964 107.149 99.1898C107.084 99.1832 107.018 99.192 106.957 99.2154C106.688 99.287 106.439 99.4183 106.227 99.5995C106.324 99.4757 106.43 99.36 106.545 99.2535C106.663 99.1521 106.75 99.0205 106.798 98.8729C106.822 98.7995 106.823 98.7207 106.801 98.6466C106.78 98.5726 106.736 98.5067 106.677 98.4577C106.615 98.4158 106.544 98.3881 106.47 98.3768C106.396 98.3654 106.32 98.3706 106.248 98.392C106.023 98.4604 105.812 98.5656 105.622 98.7034C105.799 98.5744 105.95 98.4137 106.068 98.2293C106.103 98.1817 106.126 98.1257 106.134 98.0667C106.134 97.9525 106.026 97.8695 105.919 97.828C105.7 97.7619 105.464 97.7804 105.258 97.8799C104.912 98.0471 104.616 98.3025 104.4 98.6203C104.4 98.6203 104.867 99.077 104.905 99.1013L107.113 100.644L107.566 100.748Z" fill="#B97964"/>
<path id="Vector_135" d="M138.28 79.7866L137.958 79.9121L147.607 104.701L147.93 104.575L138.28 79.7866Z" fill="#249748"/>
<path id="Vector_136" d="M155.113 117.412C152.539 116.855 149.861 117.129 147.256 117.519C142.305 118.256 137.374 119.409 132.848 121.547C127.368 122.274 119.738 122.287 118.316 124.36C132.468 130.152 149.204 123.962 155.615 120.049C156.141 119.727 156.722 119.27 156.688 118.665C156.639 117.945 155.816 117.564 155.113 117.412Z" fill="#249748"/>
<g id="Group_3" opacity="0.2">
<path id="Vector_137" d="M155.114 117.411C152.539 116.854 149.861 117.128 147.256 117.519C142.305 118.256 137.374 119.408 132.849 121.546C127.368 122.273 119.739 122.286 118.317 124.359C132.468 130.151 149.204 123.961 155.615 120.048C156.141 119.726 156.723 119.269 156.688 118.664C156.639 117.944 155.816 117.564 155.114 117.411Z" fill="black"/>
</g>
<path id="Vector_138" d="M138.502 74.2314C138.502 74.2314 139.54 74.5117 140.55 76.5946C141.242 78.0305 144.865 86.2549 145.145 87.6666C145.588 89.8533 145.779 102.375 145.779 102.375H143.523C143.523 102.375 141.284 89.0956 141.239 88.9607C141.194 88.8257 136.257 79.0132 136.257 79.0132L138.502 74.2314Z" fill="#B97964"/>
<path id="Vector_139" d="M148.315 129.847C147.374 128.266 145.72 126.706 145.104 125.384C144.564 124.242 144.626 123.346 143.72 120.62C142.623 117.315 140.889 113.008 138.602 110.091C138.602 110.091 140.18 105.088 136.201 101.129L133.589 98.6416L123.631 101.382L138.751 127.007L153.11 148.113L155.799 146.964C154.172 142.058 150.927 134.46 148.315 129.847Z" fill="#B97964"/>
<path id="Vector_140" opacity="0.2" d="M143.135 118.679L136.658 122.485V123.523L137.17 124.346L137.741 125.315C137.741 125.315 139.087 124.398 140.509 123.498C141.931 122.599 143.969 121.333 143.969 121.333L143.135 118.679Z" fill="black"/>
<path id="Vector_141" d="M154.02 155.534C154.181 155.064 154.415 154.622 154.712 154.223C154.712 154.223 155.155 152.417 153.591 149.355L154.858 147.819C155.059 147.574 155.317 147.383 155.61 147.263C155.903 147.142 156.221 147.095 156.536 147.127C156.613 147.139 156.687 147.164 156.757 147.199C157.054 147.413 157.333 147.65 157.591 147.909C158.443 148.796 159.227 149.748 159.933 150.756L159.653 150.995L158.093 149.265C157.584 148.663 157.522 149.912 157.878 150.711C158.235 151.51 158.439 152.538 156.698 154.005C154.712 155.697 153.813 156.351 154.02 155.534Z" fill="black"/>
<path id="Vector_142" d="M152.629 147.237C153.266 148.595 153.825 149.989 154.304 151.41C154.645 152.311 154.782 153.276 154.705 154.237C154.705 154.237 156.166 153.33 156.19 152.188C156.214 151.047 155.128 148.099 156.56 147.123C156.311 147.037 156.051 146.985 155.788 146.967L155.363 146.085C154.55 146.424 152.629 147.237 152.629 147.237Z" fill="#B97964"/>
<path id="Vector_143" d="M136.398 79.9265L138.941 74.6154C137.796 72.8854 132.122 71.5879 132.122 71.5879L128.385 71.792C128.385 71.792 126.946 72.1138 125.717 72.5152C124.074 73.0515 123.188 73.4805 122.794 74.3905C122.794 74.3905 122.008 76.4215 122.52 80.57C122.662 81.7188 123.05 88.3551 122.001 90.2581L122.022 90.784C128.852 96.102 134.63 95.2128 134.63 95.2128C134.322 94.2716 134.354 91.175 134.215 90.2581C134.258 88.8714 134.443 87.4928 134.769 86.1441C134.862 85.767 136.232 80.3105 136.398 79.9265Z" fill="#B97964"/>
<path id="Vector_144" d="M138.471 69.543C138.789 66.5882 136.634 67.3148 136.918 63.5365C137.225 59.3845 133.271 58.3465 133.271 58.3465C133.271 58.3465 131.887 56.5196 130.008 56.0075C127.586 55.3536 121.379 56.9521 122.804 62.2078C123.652 65.3426 123.133 65.2146 122.662 66.5259C121.995 68.3805 123.597 70.9236 121.832 72.0619C121.832 72.0619 128.617 71.9235 135.873 72.3422C135.873 72.3179 138.277 71.3457 138.471 69.543Z" fill="#263238"/>
<path id="Vector_145" d="M133.049 72.1826C132.078 72.7034 131.171 73.3338 130.343 74.0614C130.034 74.3314 129.694 74.5636 129.33 74.7534C128.35 75.2759 127.461 75.57 127.219 75.0994C127.163 74.9896 127.12 74.8735 127.091 74.7534C126.887 73.9645 126.973 72.8539 127.61 72.3314C128.33 71.757 128.676 71.2692 128.548 70.4941C128.463 70.0339 128.324 69.5855 128.132 69.1586L128.966 68.6603L131.928 65.6709C131.589 67.5324 131.489 71.0962 133.049 72.1826Z" fill="#B97964"/>
<path id="Vector_146" opacity="0.2" d="M128.572 70.6912C129.385 70.2068 130.278 69.3695 130.17 68.411C130.137 68.057 130.06 67.7084 129.942 67.373L128.285 69.5632C128.421 69.9277 128.517 70.3059 128.572 70.6912Z" fill="black"/>
<path id="Vector_147" d="M132.499 62.3292C132.222 65.374 132.153 66.6611 130.596 68.2596C128.236 70.6574 124.6 69.8512 123.977 66.8341C123.413 64.1214 123.977 59.5992 126.949 58.319C127.582 58.0217 128.282 57.8992 128.978 57.9642C129.674 58.0292 130.339 58.2794 130.906 58.6886C131.472 59.0979 131.919 59.6514 132.199 60.2916C132.479 60.9318 132.583 61.6354 132.499 62.3292Z" fill="#B97964"/>
<path id="Vector_148" d="M128.558 63.3185C128.558 63.6403 128.368 63.9067 128.171 63.9102C127.973 63.9137 127.825 63.6576 127.825 63.3358C127.825 63.0141 128.011 62.7476 128.212 62.7442C128.413 62.7407 128.572 62.9968 128.558 63.3185Z" fill="#263238"/>
<path id="Vector_149" d="M125.558 63.311C125.541 63.6224 125.368 63.8784 125.167 63.8819C124.967 63.8854 124.821 63.6362 124.821 63.3248C124.821 63.0134 125.012 62.7574 125.209 62.7539C125.406 62.7505 125.572 62.9961 125.558 63.311Z" fill="#263238"/>
<path id="Vector_150" d="M129.212 62.1977C129.192 62.2001 129.172 62.1982 129.153 62.1922C129.134 62.1863 129.116 62.1763 129.101 62.1631C128.97 62.0379 128.811 61.9469 128.636 61.898C128.462 61.8491 128.278 61.8439 128.101 61.8828C128.083 61.8891 128.064 61.8915 128.045 61.8897C128.026 61.888 128.007 61.8822 127.99 61.8727C127.974 61.8632 127.959 61.8502 127.948 61.8347C127.937 61.8191 127.929 61.8013 127.925 61.7825C127.917 61.7432 127.924 61.7024 127.944 61.6679C127.965 61.6334 127.997 61.6077 128.036 61.5957C128.26 61.5408 128.494 61.5438 128.717 61.6043C128.94 61.6649 129.143 61.7809 129.309 61.9417C129.336 61.97 129.351 62.0078 129.351 62.0472C129.351 62.0865 129.336 62.1244 129.309 62.1527C129.284 62.1798 129.249 62.1959 129.212 62.1977Z" fill="#263238"/>
<path id="Vector_151" d="M124.548 61.7815C124.532 61.7767 124.518 61.7682 124.506 61.7568C124.494 61.7454 124.484 61.7314 124.479 61.7158C124.467 61.6797 124.468 61.6405 124.482 61.6051C124.496 61.5697 124.522 61.5403 124.555 61.522C124.736 61.4042 124.944 61.3348 125.16 61.3203C125.376 61.3057 125.591 61.3466 125.787 61.439C125.802 61.4494 125.815 61.4627 125.824 61.478C125.834 61.4934 125.841 61.5106 125.844 61.5287C125.848 61.5467 125.847 61.5652 125.843 61.583C125.839 61.6009 125.832 61.6178 125.821 61.6328C125.803 61.665 125.773 61.6892 125.738 61.7007C125.703 61.7122 125.665 61.7102 125.631 61.695C125.475 61.624 125.304 61.5938 125.133 61.6071C124.963 61.6204 124.798 61.6768 124.655 61.7712C124.639 61.7804 124.621 61.786 124.603 61.7878C124.584 61.7896 124.566 61.7875 124.548 61.7815Z" fill="#263238"/>
<path id="Vector_152" d="M126.375 63.1621C126.101 63.8108 125.761 64.4299 125.361 65.0097C125.342 65.0389 125.33 65.0719 125.326 65.1064C125.321 65.1408 125.324 65.1758 125.335 65.2089C125.345 65.242 125.363 65.2723 125.387 65.2977C125.411 65.3231 125.44 65.3429 125.472 65.3557C125.739 65.4305 126.021 65.4305 126.288 65.3557L126.375 63.1621Z" fill="#A24E3F"/>
<path id="Vector_153" d="M128.337 62.7579L127.645 62.5918C127.645 62.5918 128.022 63.1143 128.337 62.7579Z" fill="#263238"/>
<path id="Vector_154" d="M125.295 62.7608L124.603 62.5947C124.603 62.5947 124.98 63.1137 125.295 62.7608Z" fill="#263238"/>
<path id="Vector_155" d="M131.444 63.3804C131.444 63.3804 129.873 61.0172 129.956 59.1038C129.956 59.1038 126.949 58.3184 124.555 61.5258C124.171 62.0345 123.946 62.8856 123.603 63.6018C123.603 63.6018 123.029 57.8098 128.167 57.3358C133.305 56.8618 134.305 64.0759 131.803 66.5013C131.971 65.9858 132.026 65.4402 131.964 64.9016C131.902 64.363 131.724 63.8442 131.444 63.3804Z" fill="#263238"/>
<path id="Vector_156" d="M133.419 64.8093C133.261 65.0886 133.049 65.3339 132.795 65.531C132.542 65.7281 132.252 65.8733 131.942 65.958C131.136 66.1622 130.721 64.8647 130.994 64.0585C131.125 63.6972 131.381 63.3944 131.715 63.2042C132.049 63.0141 132.44 62.9489 132.817 63.0205C133.589 63.1658 133.831 64.0966 133.419 64.8093Z" fill="#B97964"/>
<path id="Vector_157" opacity="0.2" d="M131.721 64.734C131.709 64.7332 131.698 64.7301 131.688 64.7249C131.678 64.7197 131.669 64.7126 131.661 64.7039C131.654 64.6952 131.648 64.6852 131.645 64.6743C131.641 64.6634 131.64 64.652 131.641 64.6406C131.651 64.4848 131.691 64.3325 131.76 64.1924C131.829 64.0522 131.925 63.9271 132.042 63.8241C132.281 63.619 132.59 63.5137 132.904 63.53C132.915 63.5308 132.926 63.534 132.936 63.5391C132.947 63.5443 132.956 63.5514 132.963 63.5601C132.97 63.5688 132.976 63.5789 132.98 63.5897C132.983 63.6006 132.984 63.612 132.983 63.6234C132.984 63.6348 132.981 63.646 132.977 63.6564C132.972 63.6668 132.965 63.6761 132.957 63.6837C132.948 63.6912 132.938 63.6968 132.927 63.7002C132.916 63.7035 132.905 63.7044 132.893 63.703C132.624 63.6883 132.36 63.7789 132.156 63.9555C131.956 64.133 131.832 64.3809 131.81 64.6475C131.812 64.6595 131.81 64.6716 131.806 64.6828C131.802 64.6941 131.795 64.7042 131.786 64.7126C131.778 64.7209 131.767 64.7271 131.756 64.7309C131.745 64.7346 131.732 64.7357 131.721 64.734Z" fill="black"/>
<path id="Vector_158" d="M127.261 66.3902C127.167 66.3905 127.073 66.3813 126.98 66.3625C126.958 66.3575 126.938 66.3439 126.925 66.3246C126.912 66.3052 126.907 66.2816 126.911 66.2587C126.914 66.2476 126.918 66.237 126.925 66.2277C126.931 66.2183 126.94 66.2103 126.949 66.2042C126.959 66.1981 126.97 66.194 126.981 66.1921C126.992 66.1901 127.004 66.1904 127.015 66.193C127.235 66.2479 127.468 66.2214 127.67 66.1184C127.872 66.0154 128.03 65.8428 128.115 65.6325C128.117 65.6198 128.122 65.6078 128.129 65.5973C128.137 65.5867 128.146 65.5779 128.157 65.5714C128.168 65.565 128.18 65.561 128.193 65.5599C128.206 65.5588 128.219 65.5605 128.231 65.5649C128.243 65.5694 128.254 65.5764 128.263 65.5855C128.271 65.5947 128.278 65.6057 128.282 65.6178C128.287 65.6299 128.288 65.6427 128.287 65.6554C128.285 65.6681 128.281 65.6804 128.274 65.6913C128.192 65.8943 128.053 66.0687 127.873 66.193C127.692 66.3172 127.48 66.3858 127.261 66.3902Z" fill="#263238"/>
<path id="Vector_159" d="M120.693 98.877L119.576 125.003L120.472 150.32L123.621 151.13C125.005 146.127 126.146 136.293 126.472 131.166C126.548 129.408 125.98 127.38 126.177 125.996C126.35 124.779 126.918 124.007 127.662 121.246C128.561 117.903 129.471 113.433 129.108 109.973C129.108 109.973 133.336 106.167 132.084 101.129L120.693 98.877Z" fill="#B97964"/>
<path id="Vector_160" opacity="0.2" d="M119.576 125.003C119.576 125.003 120.804 123.834 123.063 124.173C125.323 124.512 126.392 125.083 126.392 125.083L127.004 123.377L121.814 121.91L119.565 123.024L119.576 125.003Z" fill="black"/>
<path id="Vector_161" d="M116.507 156.274C116.938 156.023 117.405 155.837 117.891 155.724C117.891 155.724 119.396 154.63 120.174 151.285L122.129 150.939C122.44 150.88 122.76 150.899 123.062 150.993C123.363 151.087 123.637 151.254 123.859 151.478C123.91 151.537 123.951 151.604 123.98 151.676C124.069 152.029 124.129 152.389 124.16 152.752C124.241 153.982 124.225 155.216 124.115 156.443H123.749L123.662 154.125C123.662 153.336 122.807 154.253 122.565 155.094C122.323 155.935 121.814 156.852 119.538 156.852C116.932 156.845 115.829 156.758 116.507 156.274Z" fill="black"/>
<path id="Vector_162" d="M120.541 150.085C120.214 151.179 119.827 152.254 119.382 153.306C119.063 154.216 118.545 155.043 117.867 155.728C117.867 155.728 119.565 155.981 120.323 155.123C121.081 154.265 122.143 151.317 123.87 151.486C123.734 151.261 123.57 151.054 123.382 150.87C123.102 150.556 120.541 150.085 120.541 150.085Z" fill="#B97964"/>
<path id="Vector_163" d="M119.576 98.7766C118.095 105.811 118.078 118.26 118.309 124.36C118.309 124.36 121.541 121.658 126.717 123.471C131.893 125.284 134.101 125.315 136.706 124.509C139.312 123.702 141.353 119.761 148.868 118.374C156.383 116.987 156.67 118.557 156.67 118.557C156.67 118.557 157.574 116.762 153.813 115.509C150.051 114.257 145.553 109.987 143.377 107.219C141.201 104.451 136.18 95.5553 135.097 93.4516C134.419 92.158 134.13 90.6952 134.267 89.2408L122.583 88.3896C121.337 91.7768 120.332 95.2478 119.576 98.7766Z" fill="#263238"/>
<path id="Vector_164" d="M136.755 80.2659L138.865 74.3839C137.301 72.7992 133.232 71.8857 133.232 71.8857L128.06 80.5565L125.717 72.5155C124.074 73.0518 123.188 73.4808 122.794 74.3908C122.794 74.3908 122.008 76.4218 122.52 80.5703C122.662 81.7191 123.05 88.3553 122.001 90.2583L122.022 90.7843C128.852 96.1023 134.63 95.2131 134.63 95.2131C134.322 94.2719 134.392 91.0161 134.253 90.0957C134.354 88.9262 134.271 88.1962 134.769 86.1444C134.862 85.7673 136.589 80.6499 136.755 80.2659Z" fill="#263238"/>
<path id="Vector_165" d="M121.88 90.2158L134.482 91.2745L134.485 88.8283L122.551 87.8076L121.88 90.2158Z" fill="#249748"/>
<path id="Vector_166" d="M147.221 104.583L142.121 106.32C141.316 106.594 140.886 107.469 141.16 108.274L142.627 112.581C142.902 113.386 143.776 113.816 144.581 113.542L149.681 111.805C150.486 111.531 150.916 110.656 150.642 109.851L149.175 105.544C148.901 104.739 148.026 104.309 147.221 104.583Z" fill="#249748"/>
<path id="Vector_167" opacity="0.3" d="M146.796 109.603C146.495 109.594 146.196 109.548 145.906 109.468C144.269 109.009 142.69 108.364 141.201 107.544C141.181 107.533 141.165 107.515 141.158 107.493C141.151 107.471 141.153 107.447 141.163 107.427C141.168 107.417 141.176 107.408 141.184 107.4C141.193 107.393 141.203 107.388 141.214 107.385C141.225 107.382 141.237 107.381 141.248 107.382C141.259 107.383 141.27 107.386 141.28 107.392C142.759 108.202 144.325 108.84 145.948 109.295C146.417 109.461 146.929 109.461 147.398 109.295C147.825 109.053 148.138 108.651 148.27 108.177C148.634 107.065 148.662 105.87 148.353 104.742C148.346 104.72 148.348 104.696 148.358 104.675C148.369 104.655 148.386 104.639 148.408 104.631C148.43 104.624 148.454 104.626 148.474 104.636C148.495 104.647 148.511 104.665 148.519 104.686C148.835 105.853 148.805 107.086 148.432 108.236C148.36 108.492 148.238 108.731 148.073 108.94C147.908 109.148 147.703 109.322 147.47 109.451C147.26 109.551 147.029 109.603 146.796 109.603Z" fill="black"/>
<path id="Vector_168" d="M142.308 106.363C138.039 97.1252 133.873 82.78 136.198 72.7529L136.544 72.8325C134.239 82.7731 138.385 97.0317 142.633 106.218L142.308 106.363Z" fill="#249748"/>
<path id="Vector_169" d="M143.644 102.306C143.157 102.604 142.789 103.063 142.606 103.604C142.408 104.396 142.042 104.988 141.938 105.579C141.834 106.171 142.471 105.659 142.754 105.313C143.038 104.967 143.36 104.579 143.585 104.832C143.81 105.084 144.405 107.946 144.758 108.264C145.111 108.583 145.159 108.088 145.159 108.088C145.159 108.088 145.325 108.78 145.616 108.78C145.692 108.78 145.872 108.666 145.848 108.337C145.789 107.603 145.592 106.067 145.592 106.067C145.592 106.157 145.983 108.036 146.076 108.309C146.197 108.655 146.422 108.773 146.643 108.693C146.934 108.583 146.543 106.24 146.595 106.129C146.595 106.129 146.775 107.486 147.152 107.631C147.529 107.776 147.46 106.915 147.259 106.167C147.072 105.475 146.886 104.091 146.63 103.399C146.311 102.566 145.91 102.074 145.076 102.015C144.582 101.987 144.088 102.087 143.644 102.306Z" fill="#B97964"/>
</g>
</g>
<defs>
<clipPath id="clip0_353_5969">
<rect width="173" height="173" fill="white" transform="translate(0.5 -8)"/>
</clipPath>
</defs>
</svg>
