<svg width="279" height="156" viewBox="0 0 279 156" fill="none" xmlns="http://www.w3.org/2000/svg">
<path d="M275.732 155H3.344C2.05076 155 1 155.224 1 155.5C1 155.776 2.05076 156 3.344 156H275.652C276.945 156 277.996 155.776 277.996 155.5C278.076 155.224 277.026 155 275.732 155Z" fill="#A5A5A5"/>
<path d="M263.601 107.131C262.873 106.16 261.498 106.565 260.85 105.918C259.232 104.461 259.718 103.167 260.608 101.872C261.902 99.8491 263.601 98.7164 266.271 99.6064C268.942 100.577 270.317 102.196 273.311 100.82C277.276 99.04 278.408 92.4052 272.987 91.9197C272.421 91.8388 271.854 92.0815 271.288 92.0006C270.155 91.8388 268.942 91.596 268.375 90.6251C268.052 90.0587 267.89 89.4114 267.971 88.7641C268.052 88.1977 268.052 87.3886 268.456 86.9031C268.942 86.1749 269.993 85.6894 270.722 85.2039C272.502 84.0711 274.444 83.1811 275.9 81.6437C277.842 79.54 278.732 76.0608 276.709 73.7143C275.01 71.8533 272.016 71.6915 269.913 72.7433C268.294 73.5525 267.323 75.2516 266.433 76.789C265.948 77.5981 265.462 78.4881 264.977 79.2973C264.41 80.1873 264.006 81.2392 263.035 81.8056C261.983 82.4529 260.608 82.6147 259.394 82.6147C255.672 82.5338 255.267 79.8637 253.892 77.3554C252.678 75.2516 250.413 74.1998 248.309 75.6562C246.448 76.9508 246.205 79.2973 246.367 81.401C246.61 83.262 249.603 93.8616 246.286 92.567C245.639 92.3242 244.91 90.4632 243.94 89.9778C243.05 89.5732 241.998 89.4114 241.027 89.735C238.761 90.4632 238.033 92.6479 238.923 94.6707C239.651 96.4508 240.622 97.9072 240.622 100.011C240.541 102.519 239.328 103.652 237.952 105.432C236.496 107.374 235.767 109.64 237.386 111.743C238.923 113.766 241.593 114.413 244.02 114.009C245.801 113.685 247.338 112.957 248.956 112.229C251.545 111.177 252.435 113.2 254.458 114.171C257.695 115.789 266.838 111.501 263.601 107.131Z" fill="#495FA8"/>
<path d="M273.392 75.8979C269.994 80.5099 265.867 84.0701 261.66 87.873C257.533 91.6759 254.054 95.8834 250.413 100.172C246.853 104.379 242.402 107.535 238.599 111.5C235.039 115.222 231.641 119.753 229.456 124.365C229.375 124.527 229.618 124.769 229.78 124.607C231.479 122.666 232.855 120.4 234.392 118.377C236.091 116.112 237.871 113.846 239.813 111.823C243.697 107.778 248.066 104.379 251.707 100.01C255.187 95.7215 258.747 91.7568 262.792 88.0348C266.676 84.4746 270.803 80.6717 273.473 75.9788C273.554 75.817 273.473 75.817 273.392 75.8979Z" fill="#FFB948"/>
<path d="M251.707 80.268C250.251 86.1746 257.938 91.1103 253.487 96.6124C253.407 96.6933 253.487 96.936 253.649 96.8551C256.158 96.046 256.4 92.8095 255.753 90.7058C254.62 87.1456 250.979 84.3136 251.95 80.3489C251.95 80.1871 251.788 80.1871 251.707 80.268Z" fill="#FFB948"/>
<path d="M272.421 95.2352C268.537 96.368 265.139 93.2124 261.417 92.8078C257.857 92.4033 255.672 94.6688 253.487 97.1771C253.406 97.258 253.487 97.258 253.568 97.258C254.944 96.2062 256.643 94.9925 258.342 94.3452C260.284 93.536 262.226 93.9406 264.168 94.4261C267.081 95.2352 269.508 96.368 272.502 95.3161C272.583 95.3161 272.502 95.2352 272.421 95.2352Z" fill="#FFB948"/>
<path d="M242.24 93.2135C242.645 94.1845 243.13 95.1555 243.697 96.0455C244.344 97.0165 245.315 97.8256 245.962 98.8774C247.5 101.709 245.315 104.784 244.02 107.211C243.94 107.373 244.182 107.535 244.263 107.454C246.043 105.755 247.823 103.409 247.419 100.738C247.176 99.5248 246.529 98.5538 245.72 97.6638C244.425 96.2073 243.211 94.9936 242.483 93.2135C242.321 93.0517 242.159 93.1326 242.24 93.2135Z" fill="#FFB948"/>
<path d="M259.799 108.669C255.996 110.853 252.516 107.05 248.794 106.565C245.962 106.16 242.726 106.969 240.946 109.235C240.784 109.397 240.946 109.72 241.189 109.559C242.726 108.83 244.263 108.021 245.882 107.698C247.985 107.293 249.927 107.779 251.869 108.426C254.458 109.316 257.29 110.368 259.799 108.669C259.96 108.75 259.879 108.669 259.799 108.669Z" fill="#FFB948"/>
<path d="M254.701 85.6076C253.73 84.8794 252.435 85.6076 251.626 85.203C249.603 84.2321 249.765 82.8565 250.17 81.3192C250.898 78.9727 252.192 77.3545 255.024 77.5163C257.937 77.6781 259.717 78.8918 262.307 76.6262C265.705 73.7134 264.815 66.8358 259.394 67.9686C258.827 68.0495 258.342 68.454 257.775 68.535C256.643 68.6968 255.429 68.7777 254.458 67.9686C253.973 67.564 253.649 66.9167 253.568 66.2694C253.487 65.703 253.325 64.8939 253.487 64.3275C253.811 63.5184 254.701 62.7092 255.267 62.0619C256.724 60.4437 258.342 59.0682 259.313 57.0453C260.607 54.4561 260.526 50.7341 257.775 49.035C255.591 47.6594 252.597 48.3877 250.817 50.0868C249.441 51.3814 248.956 53.3233 248.551 55.0225C248.309 55.9935 248.147 56.9644 247.904 57.9354C247.661 58.9872 247.5 60.12 246.69 60.9292C245.881 61.8192 244.587 62.4665 243.373 62.7901C239.732 63.842 238.518 61.2528 236.414 59.23C234.634 57.5308 232.126 57.1262 230.427 59.1491C228.97 60.9291 229.375 63.3565 230.184 65.2984C230.912 67.0785 236.9 76.6262 233.34 76.3026C232.612 76.2217 231.398 74.6034 230.346 74.4416C229.375 74.2798 228.242 74.4416 227.433 75.008C225.41 76.3026 225.329 78.73 226.786 80.5101C228 82.0474 229.375 83.1802 229.941 85.2839C230.589 87.7113 229.699 89.1677 228.89 91.3524C228 93.6989 228 96.1262 230.103 97.6636C232.207 99.2009 235.039 99.0391 237.224 97.9063C238.842 97.0972 240.136 95.8835 241.593 94.7507C243.858 92.9706 245.234 94.6698 247.58 95.0744C251.464 95.8026 259.151 89.0059 254.701 85.6076Z" fill="#313566"/>
<path d="M255.348 52.1085C253.406 57.6106 250.332 62.3036 247.338 67.2392C244.344 72.1749 242.159 77.2724 239.813 82.5318C237.547 87.7102 234.068 92.0795 231.479 97.0152C229.051 101.627 227.029 107.129 226.3 112.308C226.3 112.55 226.543 112.712 226.705 112.47C227.838 110.123 228.566 107.453 229.456 105.026C230.427 102.275 231.56 99.6044 232.854 97.0152C235.524 91.9177 238.842 87.3056 241.107 82.0463C243.292 76.8679 245.639 71.9322 248.551 67.0774C251.383 62.4654 254.296 57.5297 255.51 52.1085C255.429 52.0276 255.348 52.0276 255.348 52.1085Z" fill="#CC8240"/>
<path d="M235.282 62.7084C235.525 68.9387 244.506 71.5279 241.755 78.2437C241.674 78.4055 241.836 78.5673 241.998 78.4864C244.182 77.03 243.535 73.7126 242.24 71.8516C240.137 68.696 235.686 66.9968 235.525 62.7893C235.525 62.6275 235.282 62.6275 235.282 62.7084Z" fill="#CC8240"/>
<path d="M259.96 71.4468C256.481 73.7123 252.192 71.5277 248.39 72.2559C244.748 72.9032 243.292 75.7352 241.917 78.8099C241.917 78.8908 241.997 78.8908 241.997 78.8908C243.049 77.4343 244.344 75.8161 245.8 74.6833C247.499 73.3078 249.441 73.146 251.545 73.146C254.62 73.065 257.371 73.4696 259.96 71.6086C260.122 71.4468 260.041 71.3659 259.96 71.4468Z" fill="#CC8240"/>
<path d="M229.699 78.1628C230.346 79.0528 231.074 79.862 231.964 80.5093C232.935 81.2375 234.068 81.723 234.958 82.613C237.305 84.9595 236.01 88.6006 235.444 91.3516C235.363 91.5134 235.686 91.6752 235.767 91.5134C237.062 89.3288 238.114 86.4968 236.9 83.9885C236.334 82.8557 235.363 82.1275 234.311 81.4802C232.612 80.4284 231.074 79.6192 229.861 78.001C229.78 78.001 229.618 78.0819 229.699 78.1628Z" fill="#CC8240"/>
<path d="M251.464 88.2767C248.39 91.5132 243.858 88.8431 240.055 89.4095C237.224 89.8949 234.23 91.5132 233.097 94.3451C233.016 94.5879 233.259 94.7497 233.421 94.5879C234.715 93.4551 235.929 92.2414 237.547 91.4323C239.489 90.4613 241.512 90.2995 243.616 90.3804C246.448 90.4613 249.522 90.7041 251.464 88.3576C251.626 88.2767 251.545 88.1958 251.464 88.2767Z" fill="#CC8240"/>
<path d="M55.4936 101.465C54.4417 102.112 54.7654 103.569 54.1181 104.216C52.5807 105.753 51.2052 105.187 49.9106 104.216C47.8878 102.76 46.8359 100.98 47.9687 98.3094C49.1015 95.6393 50.8007 94.3447 49.587 91.1891C47.9687 87.0625 41.2529 85.5252 40.5247 91.0273C40.4438 91.5937 40.6056 92.241 40.5247 92.7264C40.3629 93.8592 39.9583 95.0729 38.9065 95.6393C38.3401 95.9629 37.6119 96.0439 36.9646 95.9629C36.3982 95.882 35.589 95.8011 35.1036 95.3966C34.3753 94.8302 33.9708 93.6974 33.4853 92.9692C32.4334 91.1082 31.6243 89.0044 30.1679 87.4671C28.1451 85.3634 24.5849 84.2306 22.0766 86.2534C20.0538 87.8717 19.7301 90.9463 20.7011 93.2119C21.4293 94.9111 23.1285 96.0439 24.5849 97.0148C25.394 97.5812 26.2841 98.0667 27.0932 98.6331C27.9832 99.2804 28.9542 99.7658 29.5206 100.737C30.087 101.789 30.2488 103.245 30.1679 104.459C29.9251 108.181 27.0932 108.504 24.504 109.799C22.3193 110.851 21.1056 113.116 22.4812 115.382C23.6948 117.324 26.1222 117.809 28.226 117.648C30.1679 117.567 41.172 115.058 39.6347 118.376C39.311 119.023 37.3691 119.67 36.8836 120.641C36.3982 121.531 36.1554 122.583 36.3982 123.635C36.9646 125.982 39.2301 126.791 41.3338 126.063C43.1948 125.415 44.7322 124.525 46.8359 124.687C49.3442 124.849 50.477 126.224 52.1762 127.681C54.0372 129.218 56.3027 130.108 58.5683 128.652C60.7529 127.195 61.4812 124.444 61.2384 122.017C60.9957 120.237 60.3484 118.538 59.7011 116.838C58.7301 114.087 60.9148 113.359 61.9666 111.336C63.9894 108.019 60.1056 98.3903 55.4936 101.465Z" fill="#313566"/>
<path d="M24.0994 89.7342C28.6306 93.4562 32.0289 97.8255 35.67 102.357C39.3111 106.807 43.4376 110.61 47.5642 114.574C51.6907 118.458 54.6036 123.151 58.4874 127.278C62.0476 131.081 66.4978 134.884 71.1907 137.311C71.3525 137.392 71.6762 137.149 71.4335 136.987C69.5725 135.126 67.3069 133.589 65.2841 131.89C63.0185 130.029 60.8339 128.087 58.892 125.983C55.0081 121.776 51.7716 117.083 47.4832 113.199C43.3567 109.396 39.4729 105.593 35.9127 101.224C32.5144 97.0164 28.7924 92.6471 24.1803 89.6533C24.0994 89.6533 24.0185 89.7342 24.0994 89.7342Z" fill="#CC8240"/>
<path d="M27.4166 112.146C33.4041 114.007 38.8253 106.321 44.1655 111.256C44.2465 111.337 44.4892 111.256 44.4083 111.095C43.761 108.505 40.4435 108.101 38.2589 108.667C34.6178 109.638 31.4622 113.198 27.4166 111.985C27.4166 111.904 27.3357 112.146 27.4166 112.146Z" fill="#CC8240"/>
<path d="M43.8422 91.8376C44.8132 95.8832 41.3339 99.2006 40.7675 103.004C40.2011 106.645 42.3858 108.991 44.8132 111.338C44.8941 111.418 44.975 111.338 44.8941 111.257C43.8422 109.719 42.7904 108.02 42.143 106.24C41.4148 104.217 41.9003 102.275 42.5476 100.333C43.5186 97.4206 44.8132 94.9932 43.9231 91.8376C43.9231 91.6757 43.8422 91.7567 43.8422 91.8376Z" fill="#CC8240"/>
<path d="M40.1202 122.585C41.172 122.261 42.143 121.856 43.1139 121.209C44.1658 120.562 44.9749 119.591 46.1077 119.105C49.1015 117.649 52.0953 120.076 54.5227 121.533C54.6845 121.614 54.8463 121.452 54.7654 121.29C53.1471 119.348 50.8007 117.406 48.0496 117.73C46.755 117.892 45.7841 118.539 44.8131 119.348C43.2758 120.643 41.9812 121.776 40.0393 122.423C39.9583 122.423 40.0393 122.666 40.1202 122.585Z" fill="#CC8240"/>
<path d="M56.8691 105.43C58.8919 109.475 54.8463 112.793 54.1181 116.595C53.5517 119.427 54.199 122.826 56.4645 124.768C56.6264 124.93 56.95 124.768 56.7882 124.525C56.1409 122.907 55.4127 121.369 55.1699 119.589C54.9272 117.405 55.4127 115.463 56.2218 113.521C57.2737 110.932 58.4874 108.019 56.95 105.43C56.95 105.349 56.8691 105.43 56.8691 105.43Z" fill="#CC8240"/>
<path d="M50.8813 118.538C49.9104 118.781 49.1822 119.509 49.0203 120.561C48.8585 121.774 49.6676 122.745 49.9104 123.797C50.3959 125.658 49.0203 128.167 46.9975 126.791C46.3502 126.306 45.5411 125.739 45.0556 125.011C44.3274 123.716 45.0556 122.907 45.2983 121.613C45.9457 118.862 43.6801 117.001 41.3336 116.111C39.4726 115.463 36.5598 115.14 36.317 117.81C36.1552 119.104 37.0452 120.48 37.5307 121.694C37.8544 122.422 38.0971 123.15 38.3398 123.878C38.5017 124.364 38.8253 124.93 38.8253 125.496C38.8253 125.739 38.6635 125.982 38.5017 126.144C38.4208 126.306 38.2589 126.467 38.0971 126.629C38.0971 126.71 38.0162 126.71 37.9353 126.71C37.8544 126.71 37.8544 126.71 37.7735 126.71C37.4498 126.629 37.2071 126.467 36.8834 126.225C34.2133 124.364 33.0805 120.075 29.1967 120.318C26.0411 120.48 24.3419 123.474 23.5328 126.144C22.7237 128.733 23.371 131.322 26.3647 131.727C28.3876 131.969 30.2486 130.918 32.2714 131.241C33.3232 131.403 34.2942 131.889 35.0224 132.617C35.3461 133.669 35.5888 134.801 35.1842 135.691C34.6988 136.743 33.8087 137.148 32.6759 136.743C32.1905 136.581 31.7859 136.339 31.3004 136.339C29.3585 136.42 27.8212 139.575 28.0639 141.274C28.3876 143.945 31.5432 144.43 33.6469 143.945C36.8834 143.216 39.0681 140.708 41.1718 138.362C41.6573 137.795 42.2237 137.067 42.9519 136.743C44.1656 136.096 45.8647 136.581 45.8647 138.119C45.9457 139.98 43.3564 140.142 42.4664 141.517C41.0909 143.702 43.5992 145.32 45.5411 145.158C48.7776 144.996 50.234 142.003 52.1759 139.899C53.4705 138.442 54.6033 138.2 56.5452 138.038C57.8398 137.957 58.7299 137.229 59.3772 136.096C60.5909 133.83 60.6718 131.484 58.9726 129.461C57.7589 128.086 56.8689 127.357 57.2735 125.335C57.5162 124.121 57.7589 123.069 57.2735 121.855C56.2216 119.913 53.1469 117.81 50.8813 118.538Z" fill="#495FA8"/>
<path d="M27.0115 126.144C30.7335 125.739 33.8082 128.733 36.9638 130.27C40.2003 131.808 43.7605 132.698 47.4016 133.264C50.9618 133.749 54.6028 133.992 58.163 134.316C62.2086 134.639 66.0925 135.368 70.0572 136.096C70.3808 136.177 70.6236 135.61 70.2999 135.529C66.9016 134.235 63.0987 133.83 59.4576 133.507C55.331 133.102 51.2045 132.94 47.0779 132.374C43.1132 131.808 39.2294 130.837 35.6692 128.895C32.9182 127.438 30.329 125.415 27.0115 126.144Z" fill="#FFB948"/>
<path d="M32.5947 139.656C34.6984 139.333 37.0449 138.847 38.2586 136.905C39.0677 135.611 39.3104 134.235 40.605 133.345C41.8187 132.617 43.437 132.293 44.8125 132.698C44.9743 132.779 45.1362 132.455 44.9743 132.374C43.0324 131.403 40.7669 131.727 39.2295 133.426C38.1776 134.559 38.0967 136.177 37.1258 137.31C35.993 138.685 34.2129 139.09 32.5137 139.494C32.3519 139.413 32.4328 139.656 32.5947 139.656Z" fill="#FFB948"/>
<path d="M39.6345 119.186C40.5246 122.584 41.3337 126.063 43.5183 128.976C45.2984 131.323 47.9685 133.426 51.1241 133.103C51.286 133.103 51.286 132.941 51.1241 132.86C48.0495 132.051 45.3793 130.271 43.5183 127.52C41.8192 124.931 40.6864 122.018 39.7963 119.105C39.7963 119.024 39.6345 119.024 39.6345 119.186Z" fill="#FFB948"/>
<path d="M46.5118 141.517C48.13 141.112 48.8582 139.656 49.5055 138.118C49.9101 137.067 50.2338 135.853 51.1238 134.963C52.0948 134.073 53.3894 133.83 54.5221 133.264C54.7649 133.183 54.6031 132.859 54.4412 132.859C52.6611 132.778 50.8811 133.587 49.9101 135.125C48.7773 137.147 49.101 140.384 46.4309 141.193C46.3499 141.355 46.4309 141.598 46.5118 141.517Z" fill="#FFB948"/>
<path d="M52.4183 122.34C53.632 123.877 52.9847 125.576 52.661 127.275C52.4992 128.408 52.4992 129.541 52.9847 130.674C53.8747 132.939 55.9784 134.072 58.4058 133.829C58.5677 133.829 58.6486 133.506 58.4058 133.425C55.4121 133.02 53.2274 130.674 53.3892 127.599C53.4701 125.657 54.1174 123.634 52.4992 122.178C52.4183 122.178 52.3374 122.259 52.4183 122.34Z" fill="#FFB948"/>
<path d="M234.068 122.341H121.276V138.604H234.068V122.341Z" fill="#495FA8"/>
<path d="M239.732 141.113H231.883C231.883 140.708 231.964 140.223 231.964 139.818C231.964 132.455 225.977 126.548 218.695 126.548C211.332 126.548 205.425 132.536 205.425 139.818C205.425 140.223 205.425 140.627 205.506 140.951C205.506 142.569 204.211 143.945 202.593 143.945H153.317C151.051 143.945 149.19 142.084 149.19 139.818C149.19 132.455 143.203 126.548 135.921 126.548C128.558 126.548 122.651 132.536 122.651 139.818C122.651 140.303 122.651 140.708 122.732 141.113H118.605C118.605 141.113 113.103 133.588 115.045 120.965C115.045 120.965 113.184 113.602 144.74 114.088L147.006 112.389L148.381 111.337C148.381 111.337 158.738 99.0379 162.865 95.0732C163.593 94.345 164.159 93.8595 164.402 93.7786C166.101 93.2122 208.5 90.2184 222.417 94.9923C235.12 99.2807 248.309 121.613 248.309 121.613C248.309 121.613 248.794 143.783 239.732 141.113Z" fill="#FFB948"/>
<path d="M135.921 152.198C142.579 152.198 147.977 146.8 147.977 140.142C147.977 133.484 142.579 128.086 135.921 128.086C129.262 128.086 123.865 133.484 123.865 140.142C123.865 146.8 129.262 152.198 135.921 152.198Z" fill="#495FA8"/>
<path d="M135.921 147.1C139.764 147.1 142.879 143.984 142.879 140.141C142.879 136.298 139.764 133.183 135.921 133.183C132.077 133.183 128.962 136.298 128.962 140.141C128.962 143.984 132.077 147.1 135.921 147.1Z" fill="#CC8240"/>
<path d="M218.614 152.198C225.272 152.198 230.67 146.8 230.67 140.142C230.67 133.484 225.272 128.086 218.614 128.086C211.955 128.086 206.558 133.484 206.558 140.142C206.558 146.8 211.955 152.198 218.614 152.198Z" fill="#495FA8"/>
<path d="M218.614 147.1C222.457 147.1 225.572 143.984 225.572 140.141C225.572 136.298 222.457 133.183 218.614 133.183C214.771 133.183 211.655 136.298 211.655 140.141C211.655 143.984 214.771 147.1 218.614 147.1Z" fill="#CC8240"/>
<path d="M119.738 136.015H113.427C112.537 136.015 111.809 135.287 111.809 134.397V133.992C111.809 133.102 112.537 132.374 113.427 132.374H119.738C120.628 132.374 121.356 133.102 121.356 133.992V134.397C121.276 135.287 120.547 136.015 119.738 136.015Z" fill="#495FA8"/>
<path d="M248.632 137.714H244.263C243.13 137.714 242.24 136.824 242.24 135.691V135.124C242.24 133.992 243.13 133.102 244.263 133.102H248.713C249.846 133.102 250.736 133.992 250.736 135.124V135.691C250.655 136.824 249.765 137.714 248.632 137.714Z" fill="#495FA8"/>
<path d="M163.674 98.7143L152.427 111.903C151.941 112.47 151.213 112.793 150.485 112.712L146.844 112.389L148.22 111.337C148.22 111.337 158.576 99.038 162.703 95.0732L162.784 95.1542C164.24 95.7205 164.645 97.5815 163.674 98.7143Z" fill="#495FA8"/>
<path d="M160.923 107.858L167.962 99.0381C168.529 98.3098 169.419 97.9053 170.309 97.9053H190.78C192.479 97.9053 193.773 99.2808 193.773 100.899V109.557C193.773 111.256 192.398 112.551 190.78 112.551L163.269 112.712C160.761 112.793 159.386 109.88 160.923 107.858Z" fill="#495FA8"/>
<path d="M197.9 101.223V109.476C197.9 111.337 199.356 112.793 201.217 112.793H217.4C220.07 112.793 221.607 109.88 220.151 107.615L214.73 99.3616C214.082 98.3906 213.03 97.8242 211.979 97.8242H201.217C199.437 97.9051 197.9 99.3616 197.9 101.223Z" fill="#495FA8"/>
<path d="M118.039 127.6H118.363V122.26H118.039C116.825 122.26 115.854 123.231 115.854 124.444V125.415C115.854 126.629 116.825 127.6 118.039 127.6Z" fill="#495FA8"/>
<path d="M194.906 136.338H153.155C152.427 136.338 151.78 135.691 151.78 134.963V134.558C151.78 133.83 152.427 133.183 153.155 133.183H194.906C195.634 133.183 196.282 133.83 196.282 134.558V134.963C196.282 135.691 195.634 136.338 194.906 136.338Z" fill="#495FA8"/>
<path d="M194.501 118.781H189.323C188.919 118.781 188.595 118.458 188.595 118.053V117.81C188.595 117.406 188.919 117.082 189.323 117.082H194.501C194.906 117.082 195.23 117.406 195.23 117.81V118.053C195.23 118.458 194.906 118.781 194.501 118.781Z" fill="#495FA8"/>
<path d="M203.807 124.687C203.807 125.658 203.078 126.387 202.107 126.387C201.136 126.387 200.408 125.658 200.408 124.687C200.408 123.717 201.136 122.988 202.107 122.988C202.997 123.069 203.807 123.797 203.807 124.687Z" fill="#CC8240"/>
<path d="M245.639 131.323L245.153 131.404C244.506 131.485 243.859 130.999 243.859 130.271V123.475C243.859 122.746 244.506 122.261 245.153 122.342L245.639 122.423C246.124 122.504 246.529 122.989 246.529 123.555V130.109C246.61 130.757 246.205 131.242 245.639 131.323Z" fill="#CC8240"/>
<path d="M181.394 90.6221H179.614V93.6968H181.394V90.6221Z" fill="#495FA8"/>
<path d="M203.321 90.6221H201.541V93.6968H203.321V90.6221Z" fill="#495FA8"/>
<path d="M207.124 81.4785H177.025V89.8935H207.124V81.4785Z" fill="#CC8240"/>
<path d="M201.137 73.0635H174.678V81.4784H201.137V73.0635Z" fill="#FFB948"/>
<path d="M206.072 64.6484H183.255V73.0634H206.072V64.6484Z" fill="#313566"/>
<path d="M192.922 81.4521H194.783V73.0372H192.922V81.4521Z" fill="#495FA8"/>
<path d="M178.963 81.4521H180.824V73.0372H178.963V81.4521Z" fill="#495FA8"/>
<path d="M182.314 89.8643H184.175V81.4493H182.314V89.8643Z" fill="#FFB948"/>
<path d="M200.231 89.8643H202.092V81.4493H200.231V89.8643Z" fill="#FFB948"/>
<path d="M200.231 73.0391H202.092V64.6241H200.231V73.0391Z" fill="#CC8240"/>
<path d="M186.371 73.0391H188.232V64.6241H186.371V73.0391Z" fill="#CC8240"/>
<path d="M209.309 89.8936H173.626V90.6218H209.309V89.8936Z" fill="#495FA8"/>
<path d="M229.132 8.25375C231.398 16.5878 206.072 22.0898 139.724 39.8098C73.3751 57.6106 55.3315 46.6874 55.3315 46.6874L54.3606 43.0463C66.1739 34.6313 167.234 9.38653 191.751 2.83258C204.778 -0.64667 211.251 -0.403931 214.811 0.890675C217.319 1.78072 218.452 3.07532 219.423 3.88445C219.666 4.12719 219.908 4.28902 220.232 4.36993C223.145 5.58362 227.919 3.80354 229.132 8.25375Z" fill="#FFB948"/>
<path d="M153.803 27.916L160.033 28.9679L151.213 36.331L144.659 31.7189L153.803 27.916Z" fill="#CC8240"/>
<path d="M95.0598 28.8049C82.6802 32.446 71.7569 35.8443 64.1511 38.5954L48.6968 10.2759L51.286 9.54765C57.4354 7.92939 63.9893 9.79039 68.3586 14.4024C75.3171 21.6037 86.1594 30.9086 95.0598 28.8049Z" fill="#313566"/>
<path d="M84.1365 40.4564L65.2839 45.473C64.4747 45.7157 63.7465 45.2303 63.5038 44.4211L63.0992 42.8838C62.8565 42.0747 63.3419 41.3465 64.1511 41.1037L83.0038 36.0871C83.8129 35.8444 84.5411 36.3299 84.7838 37.139L85.1884 38.6763C85.3502 39.4855 84.9457 40.2137 84.1365 40.4564Z" fill="#313566"/>
<path d="M101.533 44.0162L97.5681 45.068C96.678 45.3108 95.788 44.7444 95.5453 43.9353L93.1988 35.1158C92.956 34.2257 93.5224 33.3357 94.3316 33.0929L98.2963 32.0411C99.1863 31.7983 100.076 32.3647 100.319 33.1739L102.666 41.9934C102.908 42.8834 102.423 43.7734 101.533 44.0162Z" fill="#495FA8"/>
<path d="M96.1927 39.0003C96.2736 39.3239 96.1118 39.5667 95.7882 39.6476C95.4645 39.7285 95.2218 39.5667 95.1409 39.243C95.0599 38.9194 95.2218 38.6766 95.5454 38.5957C95.7882 38.5957 96.1118 38.7575 96.1927 39.0003Z" fill="#CC8240"/>
<path d="M197.334 18.3677L193.369 19.4196C192.479 19.6623 191.589 19.096 191.346 18.2868L189 9.46732C188.757 8.57728 189.323 7.68724 190.132 7.4445L194.097 6.39263C194.987 6.1499 195.877 6.71629 196.12 7.52541L198.466 16.3449C198.709 17.235 198.224 18.125 197.334 18.3677Z" fill="#495FA8"/>
<path d="M191.993 13.3511C192.074 13.6748 191.912 13.9175 191.589 13.9984C191.265 14.0793 191.022 13.9175 190.941 13.5938C190.86 13.2702 191.022 13.0274 191.346 12.9465C191.589 12.8656 191.912 13.1084 191.993 13.3511Z" fill="#CC8240"/>
<path d="M147.878 27.8918C149.173 27.5448 149.829 25.794 149.343 23.9811C148.857 22.1683 147.414 20.9799 146.119 21.3269C144.824 21.6738 144.168 23.4247 144.654 25.2375C145.14 27.0504 146.583 28.2387 147.878 27.8918Z" fill="#495FA8"/>
<path d="M142.636 25.8124C143.122 27.6734 142.475 29.4535 141.18 29.7772C139.885 30.1008 138.429 28.8871 137.944 27.1071C137.458 25.2461 138.105 23.466 139.4 23.1423C140.695 22.7378 142.151 23.9514 142.636 25.8124Z" fill="#495FA8"/>
<path d="M134.214 31.5988C135.509 31.2519 136.165 29.501 135.679 27.6882C135.193 25.8753 133.75 24.687 132.455 25.0339C131.16 25.3809 130.504 27.1317 130.99 28.9446C131.475 30.7574 132.919 31.9458 134.214 31.5988Z" fill="#495FA8"/>
<path d="M127.412 33.3918C128.707 33.0448 129.363 31.294 128.877 29.4811C128.391 27.6683 126.948 26.4799 125.653 26.8269C124.358 27.1738 123.702 28.9247 124.188 30.7375C124.673 32.5504 126.117 33.7387 127.412 33.3918Z" fill="#495FA8"/>
<path d="M121.923 31.3142C122.408 33.1752 121.761 34.9553 120.466 35.2789C119.172 35.6026 117.715 34.3889 117.23 32.6088C116.744 30.7478 117.391 28.9677 118.686 28.6441C119.981 28.3204 121.437 29.5341 121.923 31.3142Z" fill="#495FA8"/>
<path d="M115.531 33.0144C116.016 34.8754 115.369 36.6555 114.074 36.9791C112.78 37.3028 111.323 36.0891 110.838 34.309C110.352 32.448 111 30.6679 112.294 30.3443C113.589 30.0206 115.045 31.2343 115.531 33.0144Z" fill="#495FA8"/>
<path d="M183.497 14.8093C183.983 16.6703 183.336 18.4504 182.041 18.7741C180.746 19.0977 179.29 17.884 178.804 16.1039C178.319 14.2429 178.966 12.4629 180.261 12.1392C181.556 11.8156 183.012 13.0293 183.497 14.8093Z" fill="#495FA8"/>
<path d="M176.539 16.7499C177.024 18.6109 176.377 20.391 175.083 20.7147C173.788 21.0383 172.331 19.8246 171.846 18.0446C171.361 16.1836 172.008 14.4035 173.302 14.0798C174.597 13.6753 176.053 14.889 176.539 16.7499Z" fill="#495FA8"/>
<path d="M169.823 18.5302C170.309 20.3912 169.661 22.1713 168.367 22.4949C167.072 22.8186 165.616 21.6049 165.13 19.8248C164.645 17.9638 165.292 16.1837 166.587 15.8601C167.8 15.4555 169.338 16.6692 169.823 18.5302Z" fill="#495FA8"/>
<path d="M162.784 20.3911C163.269 22.2521 162.622 24.0322 161.327 24.3559C160.033 24.6795 158.576 23.4658 158.091 21.6857C157.605 19.8247 158.253 18.0447 159.547 17.721C160.842 17.3973 162.298 18.5301 162.784 20.3911Z" fill="#495FA8"/>
<path d="M154.919 26.0187C156.214 25.6718 156.87 23.9209 156.384 22.1081C155.899 20.2952 154.455 19.1069 153.16 19.4538C151.865 19.8008 151.209 21.5516 151.695 23.3645C152.181 25.1773 153.624 26.3657 154.919 26.0187Z" fill="#495FA8"/>
<path d="M219.504 3.80432C219.099 3.88524 218.695 4.04706 218.371 4.20889C218.29 4.20889 218.29 4.20889 218.209 4.20889C218.128 4.20889 218.047 4.20889 217.967 4.12797C216.915 3.48067 215.944 2.75246 214.892 2.02424C214.892 1.61968 214.892 1.21511 214.811 0.810547C217.319 1.70059 218.452 2.99519 219.504 3.80432Z" fill="#495FA8"/>
<path d="M211.412 3.23789C211.331 2.99515 211.493 2.75241 211.736 2.6715C212.545 2.42876 213.031 2.18602 214.406 2.83333C215.296 3.23789 216.024 3.72337 216.51 4.12793C216.834 4.37067 216.672 4.85615 216.348 4.93706L212.707 5.90802C212.464 5.98893 212.222 5.8271 212.141 5.58436L211.412 3.23789Z" fill="#495FA8"/>
<path d="M153.074 30.2621L106.549 42.7227C105.821 42.8845 105.174 42.48 104.931 41.8327L104.527 40.4572C104.365 39.7289 104.769 39.0816 105.417 38.8389L152.022 26.2974C152.751 26.1356 153.398 26.5401 153.641 27.1874L154.045 28.563C154.207 29.3721 153.802 30.0194 153.074 30.2621Z" fill="#313566"/>
<path d="M151.456 33.1742C151.213 33.336 151.051 33.6596 151.132 33.9024L151.618 35.7634L152.427 38.8381L152.912 40.6991C152.993 41.0227 153.236 41.1845 153.56 41.1845C156.23 41.1845 169.176 40.9418 177.834 35.9252L176.863 32.2841L176.054 29.2094L175.083 25.5684C165.049 25.5684 153.803 31.7986 151.456 33.1742Z" fill="#CC8240"/>
<path d="M148.462 35.1976C148.3 35.2786 148.139 35.5213 148.22 35.764L148.624 37.2205L149.11 39.0815L149.514 40.5379C149.595 40.7806 149.757 40.9425 150 40.9425H153.155L152.427 38.2723L151.942 36.4113L151.213 33.7412L148.462 35.1976Z" fill="#CC8240"/>
<path d="M111.566 147.91C111.566 147.91 110.514 151.551 111.97 152.845C113.427 154.14 118.282 156.406 119.9 155.92C121.518 155.435 116.906 152.117 116.421 150.823C115.935 149.528 116.097 146.858 116.097 146.858L111.97 146.534L111.566 147.91Z" fill="#CC8240"/>
<path d="M128.639 147.91C128.639 147.91 127.587 151.551 129.043 152.845C130.5 154.14 135.354 156.406 136.973 155.92C138.591 155.435 133.979 152.117 133.493 150.823C133.008 149.528 133.17 146.858 133.17 146.858L129.043 146.534L128.639 147.91Z" fill="#CC8240"/>
<path d="M132.927 97.3397C132.927 97.3397 139.157 99.7671 133.17 147.748C133.17 147.748 130.581 149.609 128.477 147.587C128.477 147.587 127.425 115.869 123.946 110.771L116.016 147.91C116.016 147.91 113.346 150.176 111.242 147.587C111.242 147.587 108.491 108.263 112.294 97.2588L132.927 97.3397Z" fill="#495FA8"/>
<path d="M153.236 78.9721L152.427 78.4867C152.184 78.3248 152.103 78.0012 152.265 77.7585L157.767 68.6962C157.929 68.4535 158.253 68.3726 158.495 68.5344L159.305 69.0199C159.547 69.1817 159.628 69.5053 159.466 69.7481L153.964 78.8103C153.883 79.0531 153.479 79.134 153.236 78.9721Z" fill="#495FA8"/>
<path d="M150.728 79.3767L152.427 77.5966C152.427 77.5966 152.346 78.6484 152.993 78.7294C153.56 78.8912 154.369 78.6484 155.178 76.7874C155.178 76.7874 154.774 75.0883 155.34 74.2792C155.502 74.0364 155.825 74.1982 155.987 74.5219C155.987 74.5219 155.825 72.9036 156.23 72.6609C156.392 72.58 156.796 72.8227 156.877 72.9845C156.877 72.9845 156.311 72.1754 156.796 71.6899C156.796 71.6899 157.605 71.3663 158.819 73.7128C159.952 75.9783 159.143 76.0592 158.9 76.302C158.657 76.4638 158.738 77.192 158.576 77.4347C158.415 77.6775 157.444 77.9202 157.282 78.0821C157.201 78.2439 156.149 79.8621 155.906 80.2667C155.664 80.6713 152.993 81.7231 152.993 81.7231L150.728 79.3767Z" fill="#F2CFAF"/>
<path d="M106.549 98.3105C105.821 99.767 103.717 103.57 104.122 105.026C104.203 105.835 105.174 106.725 105.74 107.13C106.711 107.858 108.896 106.806 108.896 105.997C108.896 105.674 107.682 103.813 107.601 103.974C107.197 104.298 107.035 104.864 107.035 105.35C107.035 105.431 107.035 105.593 107.035 105.674C106.792 105.674 106.549 105.593 106.388 105.35C106.307 105.269 106.307 105.269 106.226 105.188C106.145 104.945 106.145 104.784 106.145 104.541C106.145 103.813 106.873 102.437 107.844 102.033C109.462 101.547 109.543 99.9288 109.543 99.767C108.572 99.9288 106.711 98.3915 106.549 98.3105Z" fill="#F2CFAF"/>
<path d="M122.166 58.1777C122.166 58.1777 109.058 59.796 105.821 79.7006C105.093 84.3935 106.226 92.8084 106.307 98.5533C106.307 99.686 109.301 100.819 109.543 99.7669C110.514 96.1259 109.139 78.5678 115.207 75.8167C115.207 75.8167 113.993 91.6757 111.728 96.3686C109.462 101.062 136.649 104.541 134.788 97.6632C133.089 91.5138 133.655 86.0118 133.655 86.0118C133.655 86.0118 133.817 90.7856 138.51 89.2483C143.203 87.7109 153.722 82.1279 153.884 81.2379C154.126 80.2669 152.589 78.6487 151.132 78.5678C149.676 78.4869 138.348 83.1798 138.348 83.1798C138.348 83.1798 136.002 65.0553 128.639 60.6051C125.402 58.5014 122.166 58.1777 122.166 58.1777Z" fill="#FFB948"/>
<path d="M132.361 45.5555C130.419 41.7526 125.078 40.7008 121.761 43.4518C117.796 46.7692 119.172 51.7858 122.004 55.346C122.327 57.9352 121.599 61.6572 124.188 62.79C125.078 63.1945 126.292 63.5182 127.101 62.7091C127.83 61.9808 127.506 60.6862 127.344 59.7153C128.8 59.958 130.419 59.3916 131.066 58.0161C131.471 57.1261 131.309 56.236 131.228 55.2651C131.147 53.5659 131.552 52.6759 132.28 51.3813C133.332 49.5203 133.332 47.3356 132.361 45.5555Z" fill="#F2CFAF"/>
<path d="M72.566 150.175L64.8793 143.297C63.261 141.841 63.0992 139.332 64.5556 137.633L84.622 115.22C86.0784 113.602 88.5867 113.44 90.2859 114.897L97.9726 121.774C99.5909 123.231 99.7527 125.739 98.2963 127.438L78.2299 149.851C76.7735 151.55 74.1842 151.631 72.566 150.175Z" fill="#313566"/>
<path d="M79.5245 152.683C79.6054 153.896 78.6345 154.948 77.4208 155.029C76.2071 155.11 75.1552 154.139 75.0743 152.925C74.9934 151.712 75.9643 150.66 77.178 150.579C78.4726 150.498 79.5245 151.469 79.5245 152.683Z" fill="#495FA8"/>
<path d="M78.7154 152.683C78.7963 153.411 78.149 154.059 77.4208 154.14C76.6926 154.221 76.0453 153.573 75.9644 152.845C75.8835 152.117 76.5308 151.47 77.259 151.389C78.0681 151.389 78.7154 151.955 78.7154 152.683Z" fill="#CC8240"/>
<path d="M94.7361 119.752L93.2796 118.457C93.0369 118.296 93.0369 117.891 93.1987 117.729L94.0078 116.839C94.1697 116.596 94.5742 116.596 94.7361 116.758L96.1925 118.053C96.4352 118.215 96.4352 118.619 96.2734 118.781L95.4643 119.671C95.3025 119.914 94.9788 119.914 94.7361 119.752Z" fill="#495FA8"/>
<path d="M106.925 103.309L94.6125 117.692L95.2887 118.271L107.601 103.887L106.925 103.309Z" fill="#495FA8"/>
<path d="M108.168 104.379C108.168 105.107 107.601 105.673 106.873 105.673C106.145 105.673 105.578 105.107 105.578 104.379C105.578 103.65 106.145 103.084 106.873 103.084C107.52 103.084 108.168 103.731 108.168 104.379Z" fill="#495FA8"/>
<path d="M66.7401 144.997L86.4829 123.717C87.8584 122.261 90.1239 122.18 91.4994 123.555C92.9559 124.931 93.0368 127.115 91.6613 128.572L72.1613 149.852L66.7401 144.997Z" fill="#CC8240"/>
<path d="M131.956 43.5322C131.956 43.5322 133.655 42.3185 134.95 43.5322C136.244 44.7459 135.112 50.9762 129.69 47.8206C129.69 47.8206 129.286 48.5488 128.234 48.7106C127.182 48.8725 125.564 48.4679 124.998 50.8144C124.35 53.1608 123.865 53.4036 123.865 53.4036C123.865 53.4036 123.946 49.6007 122.408 49.9243C120.871 50.248 120.709 51.2998 121.599 52.999C122.489 54.6982 124.755 57.3683 121.923 58.0156C119.01 58.6629 120.466 55.4264 119.738 54.2127C119.01 52.999 119.253 52.1899 118.767 51.3808C118.282 50.4907 116.502 47.6588 119.01 46.1214C119.01 46.1214 119.091 41.6712 121.437 40.5384C123.784 39.4057 126.13 40.8621 127.587 40.5384C128.881 40.2148 133.412 38.8393 131.956 43.5322Z" fill="#313566"/>
<path d="M111.89 60.6855L107.278 57.8535L97.73 88.4386L103.232 87.9531L111.89 60.6855Z" fill="#495FA8"/>
<path d="M113.751 54.9414L102.18 91.2713L110.676 87.5493L117.634 63.2754L113.751 54.9414Z" fill="#495FA8"/>
<path d="M111.242 72.0132C109.624 73.3078 107.925 73.2269 107.925 73.2269L108.491 71.5277C107.52 71.6086 104.931 72.5796 103.475 73.3078C101.694 72.0132 105.012 69.6667 104.688 69.2622C104.122 68.5339 102.261 69.9904 100.885 71.1232C99.5098 72.2559 98.3771 74.036 98.3771 74.036L97.8107 75.5734L99.1862 76.5443L101.614 76.2207C101.694 76.6252 101.856 76.9489 102.342 76.868C103.232 76.6252 106.387 77.2725 106.954 77.9198C107.601 78.5671 110.029 78.0817 110.838 76.7061C111.485 75.3306 111.242 72.0132 111.242 72.0132Z" fill="#F2CFAF"/>
<path d="M102.18 76.8686L101.452 74.2794C101.452 74.2794 91.9039 78.7296 89.5574 79.1342C87.2919 79.6197 83.9744 71.7711 82.4371 70.5574C80.8997 69.3437 82.3562 67.0782 80.4952 66.4309C78.7151 65.7835 76.3686 63.1943 76.3686 63.1943C76.3686 63.1943 65.6881 68.9392 69.2483 98.9578C69.2483 98.9578 81.628 105.269 90.3666 98.3914L89.3956 86.6591C93.4412 85.3645 102.18 76.8686 102.18 76.8686Z" fill="#FFB948"/>
<path d="M99.0242 75.4112L98.2151 74.1166C98.2151 74.1166 90.852 79.1332 89.1528 78.2432C87.4536 77.3531 81.547 68.21 81.547 68.21L80.576 74.683L89.2337 83.017L98.7005 77.7577L99.0242 75.4112Z" fill="#FFB948"/>
<path d="M73.0514 72.0936C72.566 78.5666 74.427 94.911 68.1967 95.882C67.7112 95.9629 67.2257 95.9629 66.6593 95.882C64.5556 95.4774 63.0182 94.8301 61.8855 94.021C58.568 91.6745 58.568 88.1143 59.0535 85.4442C59.7008 81.8031 56.1406 62.5459 67.1448 61.7368C70.3004 61.494 73.5369 65.216 73.0514 72.0936Z" fill="#313566"/>
<path d="M68.1967 83.4214V95.882C67.7112 95.9629 67.2257 95.9629 66.6594 95.882C64.5556 95.4774 63.0183 94.8301 61.8855 94.021V83.4214C61.8855 82.6123 62.5328 82.0459 63.261 82.0459H66.8212C67.6303 82.0459 68.1967 82.6932 68.1967 83.4214Z" fill="#CC8240"/>
<path d="M72.8087 85.8492L78.4726 81.1562L79.9291 82.4509L72.4042 89.4094L72.8087 85.8492Z" fill="#CC8240"/>
<path d="M73.1323 70.4759C73.1323 70.4759 74.5078 68.8577 75.9642 68.6958L74.0223 67.8867L73.0513 68.3722C72.9704 68.3722 73.1323 69.5859 73.1323 70.4759Z" fill="#CC8240"/>
<path d="M60.5908 142.488C60.5908 142.488 59.0534 144.349 58.1634 146.453C57.1115 148.961 60.8335 155.03 61.8854 155.111C62.9372 155.192 68.5202 156.082 69.1675 155.111C69.8148 154.14 65.2028 152.521 64.8791 151.874C64.5555 151.227 62.2899 146.453 63.6654 144.916L60.5908 142.488Z" fill="#313566"/>
<path d="M70.2195 96.5294C70.2195 96.5294 68.1966 100.818 69.5721 106.724C70.9477 112.712 60.5908 142.488 60.5908 142.488L63.6655 144.834C63.6655 144.834 76.2879 130.917 82.4373 113.845L94.8979 146.291L98.8626 145.077C98.8626 145.077 92.7132 103.65 90.6095 98.4713L77.6634 94.9111L70.2195 96.5294Z" fill="#495FA8"/>
<path d="M76.4497 63.2738C76.4497 63.2738 77.097 59.7137 76.4497 57.2863C75.8024 54.8589 75.8833 51.1369 81.7091 50.166C87.5348 49.2759 89.3149 53.4834 88.4248 57.8527C87.5348 62.222 85.4311 67.0767 84.0555 65.944C81.4663 63.7593 80.4145 66.7531 80.4145 66.7531L76.7734 64.973L76.4497 63.2738Z" fill="#F2CFAF"/>
<path d="M94.8169 146.291C94.8169 146.291 93.1987 153.168 95.4642 153.654C97.7298 154.139 108.41 152.278 110.352 150.498C113.103 147.99 99.5099 150.498 98.7816 145.077L94.8169 146.291Z" fill="#313566"/>
<path d="M81.0616 68.6147C81.0616 68.6147 75.8023 62.7081 78.0678 59.7143C78.0678 59.7143 77.4205 58.0151 78.7151 57.9342C80.0097 57.8533 79.3624 60.0379 79.3624 60.0379C79.3624 60.0379 81.8707 57.8533 81.628 57.3678C81.4662 56.8824 83.0844 54.6977 85.0263 54.374C86.9682 54.1313 85.8355 57.1251 85.8355 57.1251C85.8355 57.1251 87.6155 57.9342 88.9101 57.5297C88.9101 57.5297 90.1238 51.5421 86.24 50.4093C86.24 50.4093 80.657 45.3118 74.4267 52.1085C69.6529 57.206 74.9931 59.4716 72.8894 62.2226C69.1674 67.2392 76.2877 70.0711 81.0616 68.6147Z" fill="#495FA8"/>
</svg>
