<svg width="40" height="40" viewBox="0 0 40 40" fill="none" xmlns="http://www.w3.org/2000/svg">
<g id="Frame" clip-path="url(#clip0_80_2640)">
<path id="Vector" d="M40 20C40 31.0508 31.0508 40 20 40C8.94915 40 0 31.0508 0 20C0 8.94915 8.94915 0 20 0C31.0508 0 40 8.94915 40 20Z" fill="#249748"/>
<path id="Vector_2" d="M11.8645 8.47439C12.0679 8.4066 12.2713 8.4066 12.4747 8.4066C16.1357 8.4066 19.7289 8.4066 23.3899 8.4066C24.3391 8.4066 25.356 8.3388 26.3052 8.47439C27.6611 8.54219 28.9493 9.15236 29.8984 10.0337C31.1188 11.2541 31.7967 12.949 31.8645 14.6439C31.8645 19.4574 31.8645 24.271 31.8645 29.0846C31.8645 29.0846 31.7967 29.1524 31.7967 29.2202C30.5086 30.6439 28.7459 31.6608 26.9154 32.271C24.4747 33.0846 21.8306 33.3558 19.2544 33.1524C16.6781 32.949 14.1018 32.271 11.8645 30.8473C10.7798 31.3219 9.49164 31.593 8.2713 31.4574C8.20351 31.3897 8.20351 31.3897 8.13571 31.3219C8.81368 30.6439 9.28825 29.6947 9.28825 28.6778C9.28825 28.2032 8.94927 27.8642 8.74588 27.5252C7.52554 25.4235 6.91537 22.9151 6.77978 20.4744C6.64418 17.4913 7.18656 14.3727 8.74588 11.7286C9.55944 10.5083 10.5764 9.35575 11.8645 8.47439ZM22.373 17.6269C22.373 19.7964 22.373 21.9659 22.373 24.1354C22.5086 24.6778 23.1188 24.4066 23.5255 24.4744C23.5255 22.1693 23.5255 19.932 23.5255 17.6269H22.373ZM10.4408 17.6947C10.4408 18.1015 10.4408 18.4405 10.4408 18.8473C11.6611 18.8473 12.9493 18.8473 14.2374 18.8473C13.0171 20.4066 11.7967 21.8981 10.5764 23.4574C10.3052 23.7286 10.3052 24.1354 10.3052 24.4744C11.9323 24.4744 13.6272 24.4744 15.2544 24.4744C15.4577 24.4744 15.6611 24.4744 15.7967 24.3388C16.0001 24.0676 15.8645 23.7286 15.9323 23.3896C14.6442 23.3896 13.2883 23.3896 12.0001 23.3896C13.2205 21.8303 14.4408 20.271 15.6611 18.7117C15.9323 18.4405 15.9323 18.0337 15.9323 17.6947C14.1018 17.6947 12.2713 17.6947 10.4408 17.6947ZM26.4408 19.2541C25.695 19.3896 24.9493 19.932 24.6103 20.6778C24.2035 21.4913 24.2035 22.5083 24.6781 23.3219C25.2883 24.4066 26.6442 24.8812 27.7967 24.4744C29.1527 24.0676 29.9662 22.5083 29.4916 21.1524C29.1527 19.7964 27.7289 18.9151 26.4408 19.2541ZM16.7459 20.2032C15.9323 21.2202 15.9323 22.7795 16.8815 23.6608C17.695 24.61 19.3222 24.8134 20.3391 23.9998C20.4069 24.1354 20.4747 24.3388 20.6781 24.4744C20.9493 24.5422 21.2205 24.4744 21.4916 24.4744C21.4916 22.7795 21.4916 21.0846 21.4916 19.3219C21.1527 19.3219 20.7459 19.3219 20.4069 19.3219C20.4069 19.3896 20.4069 19.593 20.4069 19.6608C20.1357 19.4574 19.8645 19.3219 19.5255 19.2541C18.5086 18.9829 17.4238 19.3896 16.7459 20.2032Z" fill="white"/>
<path id="Vector_3" d="M18.2373 20.4068C18.9831 20.0679 19.9322 20.5424 20.2034 21.2882C20.4746 21.9662 20.2034 22.8475 19.5254 23.2543C18.7797 23.6611 17.7627 23.3221 17.4237 22.5763C17.017 21.7628 17.4237 20.678 18.2373 20.4068Z" fill="white"/>
<path id="Vector_4" d="M26.4405 20.4066C27.2541 20.0676 28.2032 20.5422 28.4744 21.3557C28.7456 22.1693 28.271 23.1862 27.3897 23.3896C26.6439 23.593 25.7626 23.1862 25.4914 22.4405C25.2202 21.6269 25.627 20.6778 26.4405 20.4066Z" fill="white"/>
</g>
<defs>
<clipPath id="clip0_80_2640">
<rect width="40" height="40" fill="white"/>
</clipPath>
</defs>
</svg>
